<?xml version="1.0" encoding="UTF-8" standalone="no"?>
<svg
   xmlns:dc="http://purl.org/dc/elements/1.1/"
   xmlns:cc="http://creativecommons.org/ns#"
   xmlns:rdf="http://www.w3.org/1999/02/22-rdf-syntax-ns#"
   xmlns:svg="http://www.w3.org/2000/svg"
   xmlns="http://www.w3.org/2000/svg"
   xmlns:sodipodi="http://sodipodi.sourceforge.net/DTD/sodipodi-0.dtd"
   xmlns:inkscape="http://www.inkscape.org/namespaces/inkscape"
   version="1.1"
   viewBox="0.0 0.0 600.0 371.0"
   fill="none"
   stroke="none"
   stroke-linecap="square"
   stroke-miterlimit="10"
   width="600"
   height="371"
   id="svg101"
   sodipodi:docname="3dbars.svg"
   inkscape:version="0.92.5 (2060ec1f9f, 2020-04-08)">
  <metadata
     id="metadata107">
    <rdf:RDF>
      <cc:Work
         rdf:about="">
        <dc:format>image/svg+xml</dc:format>
        <dc:type
           rdf:resource="http://purl.org/dc/dcmitype/StillImage" />
      </cc:Work>
    </rdf:RDF>
  </metadata>
  <defs
     id="defs105" />
  <sodipodi:namedview
     pagecolor="#ffffff"
     bordercolor="#666666"
     borderopacity="1"
     objecttolerance="10"
     gridtolerance="10"
     guidetolerance="10"
     inkscape:pageopacity="0"
     inkscape:pageshadow="2"
     inkscape:window-width="999"
     inkscape:window-height="628"
     id="namedview103"
     showgrid="false"
     inkscape:zoom="1.0635108"
     inkscape:cx="300"
     inkscape:cy="185.5"
     inkscape:window-x="0"
     inkscape:window-y="0"
     inkscape:window-maximized="0"
     inkscape:current-layer="svg101" />
  <path
     stroke="#333333"
     stroke-width="1.0"
     stroke-linecap="butt"
     d="M17.5 354.5L600.5 354.5"
     fill-rule="nonzero"
     id="path4" />
  <path
     fill="#eeeeee"
     d="M0.5 371.5L17.5 355.5L600.5 355.5L583.5 371.5Z"
     fill-rule="nonzero"
     id="path6" />
  <path
     stroke="#cccccc"
     stroke-width="1.0"
     stroke-linecap="butt"
     d="M17.5 283.5L600.5 283.5"
     fill-rule="nonzero"
     id="path8" />
  <path
     stroke="#cccccc"
     stroke-width="1.0"
     stroke-linecap="butt"
     d="M17.5 212.5L600.5 212.5"
     fill-rule="nonzero"
     id="path10" />
  <path
     stroke="#cccccc"
     stroke-width="1.0"
     stroke-linecap="butt"
     d="M17.5 141.5L600.5 141.5"
     fill-rule="nonzero"
     id="path12" />
  <path
     stroke="#cccccc"
     stroke-width="1.0"
     stroke-linecap="butt"
     d="M17.5 70.5L600.5 70.5"
     fill-rule="nonzero"
     id="path14" />
  <path
     stroke="#cccccc"
     stroke-width="1.0"
     stroke-linecap="butt"
     d="M17.5 0.5L600.5 0.5"
     fill-rule="nonzero"
     id="path16" />
  <clipPath
     id="id_0">
    <path
       d="M0 0L600.0 0L600.0 371.0L0 371.0L0 0Z"
       clip-rule="nonzero"
       id="path18" />
  </clipPath>
  <path
     fill="#2b569f"
     clip-path="url(#id_0)"
     d="M79.0 283.0L79.0 354.0L67.0 366.0L67.0 295.0Z"
     fill-rule="nonzero"
     id="path21" />
  <path
     fill="#689df6"
     clip-path="url(#id_0)"
     d="M67.0 295.0L20.0 295.0L32.0 283.0L79.0 283.0Z"
     fill-rule="nonzero"
     id="path23" />
  <path
     stroke="#000000"
     stroke-width="2.0"
     stroke-linecap="butt"
     stroke-opacity="0.0"
     clip-path="url(#id_0)"
     d="M67.0 366.0L20.0 366.0L20.0 295.0L67.0 295.0Z"
     fill-rule="nonzero"
     id="path25" />
  <path
     fill="#4285f4"
     clip-path="url(#id_0)"
     d="M67.0 366.0L20.0 366.0L20.0 295.0L67.0 295.0Z"
     fill-rule="nonzero"
     id="path27" />
  <path
     fill="#2b569f"
     clip-path="url(#id_0)"
     d="M150.0 212.0L150.0 354.0L138.0 366.0L138.0 224.0Z"
     fill-rule="nonzero"
     id="path29" />
  <path
     fill="#689df6"
     clip-path="url(#id_0)"
     d="M138.0 224.0L91.0 224.0L103.0 212.0L150.0 212.0Z"
     fill-rule="nonzero"
     id="path31" />
  <path
     stroke="#000000"
     stroke-width="2.0"
     stroke-linecap="butt"
     stroke-opacity="0.0"
     clip-path="url(#id_0)"
     d="M138.0 366.0L91.0 366.0L91.0 224.0L138.0 224.0Z"
     fill-rule="nonzero"
     id="path33" />
  <path
     fill="#4285f4"
     clip-path="url(#id_0)"
     d="M138.0 366.0L91.0 366.0L91.0 224.0L138.0 224.0Z"
     fill-rule="nonzero"
     id="path35" />
  <path
     fill="#2b569f"
     clip-path="url(#id_0)"
     d="M222.0 142.0L222.0 354.0L210.0 366.0L210.0 154.0Z"
     fill-rule="nonzero"
     id="path37" />
  <path
     fill="#689df6"
     clip-path="url(#id_0)"
     d="M210.0 154.0L163.0 154.0L175.0 142.0L222.0 142.0Z"
     fill-rule="nonzero"
     id="path39" />
  <path
     stroke="#000000"
     stroke-width="2.0"
     stroke-linecap="butt"
     stroke-opacity="0.0"
     clip-path="url(#id_0)"
     d="M210.0 366.0L163.0 366.0L163.0 154.0L210.0 154.0Z"
     fill-rule="nonzero"
     id="path41" />
  <path
     fill="#4285f4"
     clip-path="url(#id_0)"
     d="M210.0 366.0L163.0 366.0L163.0 154.0L210.0 154.0Z"
     fill-rule="nonzero"
     id="path43" />
  <path
     fill="#2b569f"
     clip-path="url(#id_0)"
     d="M294.0 142.0L294.0 354.0L282.0 366.0L282.0 154.0Z"
     fill-rule="nonzero"
     id="path45" />
  <path
     fill="#689df6"
     clip-path="url(#id_0)"
     d="M282.0 154.0L235.0 154.0L247.0 142.0L294.0 142.0Z"
     fill-rule="nonzero"
     id="path47" />
  <path
     stroke="#000000"
     stroke-width="2.0"
     stroke-linecap="butt"
     stroke-opacity="0.0"
     clip-path="url(#id_0)"
     d="M282.0 366.0L235.0 366.0L235.0 154.0L282.0 154.0Z"
     fill-rule="nonzero"
     id="path49" />
  <path
     fill="#4285f4"
     clip-path="url(#id_0)"
     d="M282.0 366.0L235.0 366.0L235.0 154.0L282.0 154.0Z"
     fill-rule="nonzero"
     id="path51" />
  <path
     fill="#2b569f"
     clip-path="url(#id_0)"
     d="M366.0 71.0L366.0 354.0L354.0 366.0L354.0 83.0Z"
     fill-rule="nonzero"
     id="path53" />
  <path
     fill="#689df6"
     clip-path="url(#id_0)"
     d="M354.0 83.0L307.0 83.0L319.0 71.0L366.0 71.0Z"
     fill-rule="nonzero"
     id="path55" />
  <path
     stroke="#000000"
     stroke-width="2.0"
     stroke-linecap="butt"
     stroke-opacity="0.0"
     clip-path="url(#id_0)"
     d="M354.0 366.0L307.0 366.0L307.0 83.0L354.0 83.0Z"
     fill-rule="nonzero"
     id="path57" />
  <path
     fill="#4285f4"
     clip-path="url(#id_0)"
     d="M354.0 366.0L307.0 366.0L307.0 83.0L354.0 83.0Z"
     fill-rule="nonzero"
     id="path59" />
  <path
     fill="#2b569f"
     clip-path="url(#id_0)"
     d="M438.0 248.0L438.0 354.0L426.0 366.0L426.0 260.0Z"
     fill-rule="nonzero"
     id="path61" />
  <path
     fill="#689df6"
     clip-path="url(#id_0)"
     d="M426.0 260.0L379.0 260.0L391.0 248.0L438.0 248.0Z"
     fill-rule="nonzero"
     id="path63" />
  <path
     stroke="#000000"
     stroke-width="2.0"
     stroke-linecap="butt"
     stroke-opacity="0.0"
     clip-path="url(#id_0)"
     d="M426.0 366.0L379.0 366.0L379.0 260.0L426.0 260.0Z"
     fill-rule="nonzero"
     id="path65" />
  <path
     fill="#4285f4"
     clip-path="url(#id_0)"
     d="M426.0 366.0L379.0 366.0L379.0 260.0L426.0 260.0Z"
     fill-rule="nonzero"
     id="path67" />
  <path
     fill="#2b569f"
     clip-path="url(#id_0)"
     d="M510.0 177.0L510.0 354.0L498.0 366.0L498.0 189.0Z"
     fill-rule="nonzero"
     id="path69" />
  <path
     fill="#689df6"
     clip-path="url(#id_0)"
     d="M498.0 189.0L451.0 189.0L463.0 177.0L510.0 177.0Z"
     fill-rule="nonzero"
     id="path71" />
  <path
     stroke="#000000"
     stroke-width="2.0"
     stroke-linecap="butt"
     stroke-opacity="0.0"
     clip-path="url(#id_0)"
     d="M498.0 366.0L451.0 366.0L451.0 189.0L498.0 189.0Z"
     fill-rule="nonzero"
     id="path73" />
  <path
     fill="#4285f4"
     clip-path="url(#id_0)"
     d="M498.0 366.0L451.0 366.0L451.0 189.0L498.0 189.0Z"
     fill-rule="nonzero"
     id="path75" />
  <path
     fill="#2b569f"
     clip-path="url(#id_0)"
     d="M581.0 0L581.0 354.0L569.0 366.0L569.0 12.0Z"
     fill-rule="nonzero"
     id="path77" />
  <path
     fill="#689df6"
     clip-path="url(#id_0)"
     d="M569.0 12.0L522.0 12.0L534.0 0L581.0 0Z"
     fill-rule="nonzero"
     id="path79" />
  <path
     stroke="#000000"
     stroke-width="2.0"
     stroke-linecap="butt"
     stroke-opacity="0.0"
     clip-path="url(#id_0)"
     d="M569.0 366.0L522.0 366.0L522.0 12.0L569.0 12.0Z"
     fill-rule="nonzero"
     id="path81" />
  <path
     fill="#4285f4"
     clip-path="url(#id_0)"
     d="M569.0 366.0L522.0 366.0L522.0 12.0L569.0 12.0Z"
     fill-rule="nonzero"
     id="path83" />
  <path
     stroke="#ffffff"
     stroke-width="3.0"
     stroke-linejoin="round"
     stroke-linecap="round"
     d="M12.046875 295.1844L12.046875 296.2L6.359375 296.2Q6.359375 295.825 6.484375 295.46564Q6.703125 294.8875 7.171875 294.325Q7.65625 293.7625 8.5625 293.02814Q9.96875 291.8719 10.453125 291.2Q10.953125 290.52814 10.953125 289.9344Q10.953125 289.3094 10.5 288.8875Q10.046875 288.45 9.328125 288.45Q8.5625 288.45 8.109375 288.90314Q7.65625 289.35626 7.640625 290.16876L6.5625 290.0594Q6.671875 288.84064 7.390625 288.21564Q8.125 287.575 9.359375 287.575Q10.59375 287.575 11.3125 288.2625Q12.03125 288.95 12.03125 289.96564Q12.03125 290.48126 11.8125 290.98126Q11.609375 291.46564 11.109375 292.02814Q10.625 292.575 9.5 293.52814Q8.546875 294.325 8.265625 294.6219Q8.0 294.90314 7.828125 295.1844L12.046875 295.1844Z"
     fill-rule="nonzero"
     id="path85" />
  <path
     fill="#000000"
     d="M12.046875 295.1844L12.046875 296.2L6.359375 296.2Q6.359375 295.825 6.484375 295.46564Q6.703125 294.8875 7.171875 294.325Q7.65625 293.7625 8.5625 293.02814Q9.96875 291.8719 10.453125 291.2Q10.953125 290.52814 10.953125 289.9344Q10.953125 289.3094 10.5 288.8875Q10.046875 288.45 9.328125 288.45Q8.5625 288.45 8.109375 288.90314Q7.65625 289.35626 7.640625 290.16876L6.5625 290.0594Q6.671875 288.84064 7.390625 288.21564Q8.125 287.575 9.359375 287.575Q10.59375 287.575 11.3125 288.2625Q12.03125 288.95 12.03125 289.96564Q12.03125 290.48126 11.8125 290.98126Q11.609375 291.46564 11.109375 292.02814Q10.625 292.575 9.5 293.52814Q8.546875 294.325 8.265625 294.6219Q8.0 294.90314 7.828125 295.1844L12.046875 295.1844Z"
     fill-rule="nonzero"
     id="path87" />
  <path
     stroke="#ffffff"
     stroke-width="3.0"
     stroke-linejoin="round"
     stroke-linecap="round"
     d="M9.875 225.4L9.875 223.3375L6.15625 223.3375L6.15625 222.36874L10.078125 216.80624L10.9375 216.80624L10.9375 222.36874L12.09375 222.36874L12.09375 223.3375L10.9375 223.3375L10.9375 225.4L9.875 225.4ZM9.875 222.36874L9.875 218.50937L7.1875 222.36874L9.875 222.36874Z"
     fill-rule="nonzero"
     id="path89" />
  <path
     fill="#000000"
     d="M9.875 225.4L9.875 223.3375L6.15625 223.3375L6.15625 222.36874L10.078125 216.80624L10.9375 216.80624L10.9375 222.36874L12.09375 222.36874L12.09375 223.3375L10.9375 223.3375L10.9375 225.4L9.875 225.4ZM9.875 222.36874L9.875 218.50937L7.1875 222.36874L9.875 222.36874Z"
     fill-rule="nonzero"
     id="path91" />
  <path
     stroke="#ffffff"
     stroke-width="3.0"
     stroke-linejoin="round"
     stroke-linecap="round"
     d="M11.96875 148.11563L10.921875 148.19376Q10.78125 147.56876 10.53125 147.2875Q10.09375 146.83438 9.46875 146.83438Q8.96875 146.83438 8.578125 147.11563Q8.09375 147.49063 7.796875 148.19376Q7.515625 148.88126 7.5 150.1625Q7.875 149.58438 8.421875 149.30313Q8.984375 149.02188 9.59375 149.02188Q10.640625 149.02188 11.375 149.80313Q12.125 150.58438 12.125 151.80313Q12.125 152.61563 11.765625 153.31876Q11.421875 154.00626 10.8125 154.38126Q10.203125 154.74063 9.4375 154.74063Q8.109375 154.74063 7.28125 153.77188Q6.453125 152.80313 6.453125 150.58438Q6.453125 148.08438 7.375 146.95938Q8.171875 145.975 9.53125 145.975Q10.546875 145.975 11.1875 146.55313Q11.84375 147.11563 11.96875 148.11563ZM7.671875 151.81876Q7.671875 152.36563 7.890625 152.86563Q8.125 153.35 8.53125 153.61563Q8.953125 153.88126 9.421875 153.88126Q10.078125 153.88126 10.5625 153.35Q11.046875 152.80313 11.046875 151.88126Q11.046875 150.99063 10.5625 150.475Q10.09375 149.95938 9.375 149.95938Q8.65625 149.95938 8.15625 150.475Q7.671875 150.99063 7.671875 151.81876Z"
     fill-rule="nonzero"
     id="path93" />
  <path
     fill="#000000"
     d="M11.96875 148.11563L10.921875 148.19376Q10.78125 147.56876 10.53125 147.2875Q10.09375 146.83438 9.46875 146.83438Q8.96875 146.83438 8.578125 147.11563Q8.09375 147.49063 7.796875 148.19376Q7.515625 148.88126 7.5 150.1625Q7.875 149.58438 8.421875 149.30313Q8.984375 149.02188 9.59375 149.02188Q10.640625 149.02188 11.375 149.80313Q12.125 150.58438 12.125 151.80313Q12.125 152.61563 11.765625 153.31876Q11.421875 154.00626 10.8125 154.38126Q10.203125 154.74063 9.4375 154.74063Q8.109375 154.74063 7.28125 153.77188Q6.453125 152.80313 6.453125 150.58438Q6.453125 148.08438 7.375 146.95938Q8.171875 145.975 9.53125 145.975Q10.546875 145.975 11.1875 146.55313Q11.84375 147.11563 11.96875 148.11563ZM7.671875 151.81876Q7.671875 152.36563 7.890625 152.86563Q8.125 153.35 8.53125 153.61563Q8.953125 153.88126 9.421875 153.88126Q10.078125 153.88126 10.5625 153.35Q11.046875 152.80313 11.046875 151.88126Q11.046875 150.99063 10.5625 150.475Q10.09375 149.95938 9.375 149.95938Q8.65625 149.95938 8.15625 150.475Q7.671875 150.99063 7.671875 151.81876Z"
     fill-rule="nonzero"
     id="path95" />
  <path
     stroke="#ffffff"
     stroke-width="3.0"
     stroke-linejoin="round"
     stroke-linecap="round"
     d="M8.125 79.14375Q7.46875 78.89375 7.140625 78.45625Q6.828125 78.00313 6.828125 77.39375Q6.828125 76.45625 7.5 75.81563Q8.1875 75.175 9.296875 75.175Q10.421875 75.175 11.109375 75.83125Q11.796875 76.4875 11.796875 77.425Q11.796875 78.01875 11.484375 78.45625Q11.171875 78.89375 10.53125 79.14375Q11.328125 79.39375 11.734375 79.97188Q12.140625 80.55 12.140625 81.34688Q12.140625 82.44063 11.359375 83.19063Q10.59375 83.94063 9.3125 83.94063Q8.046875 83.94063 7.265625 83.19063Q6.484375 82.44063 6.484375 81.31563Q6.484375 80.47188 6.90625 79.90938Q7.34375 79.34688 8.125 79.14375ZM7.90625 77.34688Q7.90625 77.95625 8.296875 78.34688Q8.703125 78.7375 9.328125 78.7375Q9.9375 78.7375 10.328125 78.3625Q10.71875 77.97188 10.71875 77.40938Q10.71875 76.83125 10.3125 76.44063Q9.90625 76.03438 9.3125 76.03438Q8.703125 76.03438 8.296875 76.425Q7.90625 76.81563 7.90625 77.34688ZM7.578125 81.31563Q7.578125 81.76875 7.78125 82.19063Q8.0 82.6125 8.421875 82.84688Q8.84375 83.08125 9.328125 83.08125Q10.078125 83.08125 10.5625 82.59688Q11.0625 82.1125 11.0625 81.3625Q11.0625 80.59688 10.5625 80.09688Q10.0625 79.59688 9.296875 79.59688Q8.546875 79.59688 8.0625 80.09688Q7.578125 80.58125 7.578125 81.31563Z"
     fill-rule="nonzero"
     id="path97" />
  <path
     fill="#000000"
     d="M8.125 79.14375Q7.46875 78.89375 7.140625 78.45625Q6.828125 78.00313 6.828125 77.39375Q6.828125 76.45625 7.5 75.81563Q8.1875 75.175 9.296875 75.175Q10.421875 75.175 11.109375 75.83125Q11.796875 76.4875 11.796875 77.425Q11.796875 78.01875 11.484375 78.45625Q11.171875 78.89375 10.53125 79.14375Q11.328125 79.39375 11.734375 79.97188Q12.140625 80.55 12.140625 81.34688Q12.140625 82.44063 11.359375 83.19063Q10.59375 83.94063 9.3125 83.94063Q8.046875 83.94063 7.265625 83.19063Q6.484375 82.44063 6.484375 81.31563Q6.484375 80.47188 6.90625 79.90938Q7.34375 79.34688 8.125 79.14375ZM7.90625 77.34688Q7.90625 77.95625 8.296875 78.34688Q8.703125 78.7375 9.328125 78.7375Q9.9375 78.7375 10.328125 78.3625Q10.71875 77.97188 10.71875 77.40938Q10.71875 76.83125 10.3125 76.44063Q9.90625 76.03438 9.3125 76.03438Q8.703125 76.03438 8.296875 76.425Q7.90625 76.81563 7.90625 77.34688ZM7.578125 81.31563Q7.578125 81.76875 7.78125 82.19063Q8.0 82.6125 8.421875 82.84688Q8.84375 83.08125 9.328125 83.08125Q10.078125 83.08125 10.5625 82.59688Q11.0625 82.1125 11.0625 81.3625Q11.0625 80.59688 10.5625 80.09688Q10.0625 79.59688 9.296875 79.59688Q8.546875 79.59688 8.0625 80.09688Q7.578125 80.58125 7.578125 81.31563Z"
     fill-rule="nonzero"
     id="path99" />
</svg>
