<?xml version="1.0" encoding="UTF-8" standalone="no"?>
<svg
   xmlns:dc="http://purl.org/dc/elements/1.1/"
   xmlns:cc="http://creativecommons.org/ns#"
   xmlns:rdf="http://www.w3.org/1999/02/22-rdf-syntax-ns#"
   xmlns:svg="http://www.w3.org/2000/svg"
   xmlns="http://www.w3.org/2000/svg"
   xmlns:sodipodi="http://sodipodi.sourceforge.net/DTD/sodipodi-0.dtd"
   xmlns:inkscape="http://www.inkscape.org/namespaces/inkscape"
   width="476.96445pt"
   height="111.82pt"
   viewBox="0 0 476.96445 111.82"
   version="1.1"
   id="svg125"
   sodipodi:docname="citiespop.svg"
   inkscape:version="0.92.5 (2060ec1f9f, 2020-04-08)">
  <metadata
     id="metadata129">
    <rdf:RDF>
      <cc:Work
         rdf:about="">
        <dc:format>image/svg+xml</dc:format>
        <dc:type
           rdf:resource="http://purl.org/dc/dcmitype/StillImage" />
        <dc:title>gl2ps_renderer figure</dc:title>
      </cc:Work>
    </rdf:RDF>
  </metadata>
  <sodipodi:namedview
     pagecolor="#ffffff"
     bordercolor="#666666"
     borderopacity="1"
     objecttolerance="10"
     gridtolerance="10"
     guidetolerance="10"
     inkscape:pageopacity="0"
     inkscape:pageshadow="2"
     inkscape:window-width="946"
     inkscape:window-height="630"
     id="namedview127"
     showgrid="false"
     fit-margin-top="0"
     fit-margin-left="0"
     fit-margin-right="0"
     fit-margin-bottom="0"
     inkscape:zoom="0.6882053"
     inkscape:cx="306.83267"
     inkscape:cy="72.893333"
     inkscape:window-x="0"
     inkscape:window-y="0"
     inkscape:window-maximized="0"
     inkscape:current-layer="svg125" />
  <title
     id="title2">gl2ps_renderer figure</title>
  <desc
     id="desc4">
Creator: GL2PS 1.4.0, (C) 1999-2017 C. Geuzaine
For: Octave
CreationDate: Fri Jun 25 11:28:26 2021
</desc>
  <defs
     id="defs6" />
  <g
     id="g123"
     transform="translate(-57.8755,-158.85)">
    <clipPath
       id="cp00576432">
      <polygon
         points="576,0 0,0 0,432 576,432 "
         id="polygon12" />
    </clipPath>
    <g
       clip-path="url(#cp00576432)"
       id="g121">
      <polygon
         points="521.28,161.94 74.88,161.94 74.88,254.94 521.28,254.94 "
         id="polygon15"
         style="fill:#ffffff;shape-rendering:crispEdges" />
      <polyline
         points="74.88,254.94 74.88,250.476"
         id="polyline17"
         style="fill:none;stroke:#262626;stroke-width:0.5;stroke-linecap:butt;stroke-linejoin:miter" />
      <polyline
         points="149.28,254.94 149.28,250.476"
         id="polyline19"
         style="fill:none;stroke:#262626;stroke-width:0.5;stroke-linecap:butt;stroke-linejoin:miter" />
      <polyline
         points="223.68,254.94 223.68,250.476"
         id="polyline21"
         style="fill:none;stroke:#262626;stroke-width:0.5;stroke-linecap:butt;stroke-linejoin:miter" />
      <polyline
         points="298.08,254.94 298.08,250.476"
         id="polyline23"
         style="fill:none;stroke:#262626;stroke-width:0.5;stroke-linecap:butt;stroke-linejoin:miter" />
      <polyline
         points="372.48,254.94 372.48,250.476"
         id="polyline25"
         style="fill:none;stroke:#262626;stroke-width:0.5;stroke-linecap:butt;stroke-linejoin:miter" />
      <polyline
         points="446.88,254.94 446.88,250.476"
         id="polyline27"
         style="fill:none;stroke:#262626;stroke-width:0.5;stroke-linecap:butt;stroke-linejoin:miter" />
      <polyline
         points="521.28,254.94 521.28,250.476"
         id="polyline29"
         style="fill:none;stroke:#262626;stroke-width:0.5;stroke-linecap:butt;stroke-linejoin:miter" />
      <text
         font-weight="normal"
         font-style="normal"
         font-size="10"
         xml:space="preserve"
         transform="translate(67.38,270.44)"
         id="text33"
         style="font-style:normal;font-weight:normal;font-size:10px;font-family:FreeSans">     <tspan
   y="0"
   x="0 3 9"
   id="tspan31"
   style="fill:#262626">-20</tspan>   </text>
      <text
         font-weight="normal"
         font-style="normal"
         font-size="10"
         xml:space="preserve"
         transform="translate(146.28,270.44)"
         id="text37"
         style="font-style:normal;font-weight:normal;font-size:10px;font-family:FreeSans">     <tspan
   y="0"
   x="0"
   id="tspan35"
   style="fill:#262626">0</tspan>   </text>
      <text
         font-weight="normal"
         font-style="normal"
         font-size="10"
         xml:space="preserve"
         transform="translate(217.68,270.44)"
         id="text41"
         style="font-style:normal;font-weight:normal;font-size:10px;font-family:FreeSans">     <tspan
   y="0"
   x="0 6"
   id="tspan39"
   style="fill:#262626">20</tspan>   </text>
      <text
         font-weight="normal"
         font-style="normal"
         font-size="10"
         xml:space="preserve"
         transform="translate(292.08,270.44)"
         id="text45"
         style="font-style:normal;font-weight:normal;font-size:10px;font-family:FreeSans">     <tspan
   y="0"
   x="0 6"
   id="tspan43"
   style="fill:#262626">40</tspan>   </text>
      <text
         font-weight="normal"
         font-style="normal"
         font-size="10"
         xml:space="preserve"
         transform="translate(366.48,270.44)"
         id="text49"
         style="font-style:normal;font-weight:normal;font-size:10px;font-family:FreeSans">     <tspan
   y="0"
   x="0 6"
   id="tspan47"
   style="fill:#262626">60</tspan>   </text>
      <text
         font-weight="normal"
         font-style="normal"
         font-size="10"
         xml:space="preserve"
         transform="translate(440.88,270.44)"
         id="text53"
         style="font-style:normal;font-weight:normal;font-size:10px;font-family:FreeSans">     <tspan
   y="0"
   x="0 6"
   id="tspan51"
   style="fill:#262626">80</tspan>   </text>
      <text
         font-weight="normal"
         font-style="normal"
         font-size="10"
         xml:space="preserve"
         transform="translate(512.28,270.44)"
         id="text57"
         style="font-style:normal;font-weight:normal;font-size:10px;font-family:FreeSans">     <tspan
   y="0"
   x="0 6 12"
   id="tspan55"
   style="fill:#262626">100</tspan>   </text>
      <polyline
         points="74.88,254.94 79.348,254.94"
         id="polyline59"
         style="fill:none;stroke:#262626;stroke-width:0.5;stroke-linecap:butt;stroke-linejoin:miter" />
      <polyline
         points="74.88,236.34 79.348,236.34"
         id="polyline61"
         style="fill:none;stroke:#262626;stroke-width:0.5;stroke-linecap:butt;stroke-linejoin:miter" />
      <polyline
         points="74.88,217.74 79.348,217.74"
         id="polyline63"
         style="fill:none;stroke:#262626;stroke-width:0.5;stroke-linecap:butt;stroke-linejoin:miter" />
      <polyline
         points="74.88,199.14 79.348,199.14"
         id="polyline65"
         style="fill:none;stroke:#262626;stroke-width:0.5;stroke-linecap:butt;stroke-linejoin:miter" />
      <polyline
         points="74.88,180.54 79.348,180.54"
         id="polyline67"
         style="fill:none;stroke:#262626;stroke-width:0.5;stroke-linecap:butt;stroke-linejoin:miter" />
      <polyline
         points="74.88,161.94 79.348,161.94"
         id="polyline69"
         style="fill:none;stroke:#262626;stroke-width:0.5;stroke-linecap:butt;stroke-linejoin:miter" />
      <text
         font-weight="normal"
         font-style="normal"
         font-size="10"
         xml:space="preserve"
         transform="translate(63.8755,258.94)"
         id="text73"
         style="font-style:normal;font-weight:normal;font-size:10px;font-family:FreeSans">     <tspan
   y="0"
   x="0"
   id="tspan71"
   style="fill:#262626">0</tspan>   </text>
      <text
         font-weight="normal"
         font-style="normal"
         font-size="10"
         xml:space="preserve"
         transform="translate(63.8755,240.34)"
         id="text77"
         style="font-style:normal;font-weight:normal;font-size:10px;font-family:FreeSans">     <tspan
   y="0"
   x="0"
   id="tspan75"
   style="fill:#262626">5</tspan>   </text>
      <text
         font-weight="normal"
         font-style="normal"
         font-size="10"
         xml:space="preserve"
         transform="translate(57.8755,221.74)"
         id="text81"
         style="font-style:normal;font-weight:normal;font-size:10px;font-family:FreeSans">     <tspan
   y="0"
   x="0 6"
   id="tspan79"
   style="fill:#262626">10</tspan>   </text>
      <text
         font-weight="normal"
         font-style="normal"
         font-size="10"
         xml:space="preserve"
         transform="translate(57.8755,203.14)"
         id="text85"
         style="font-style:normal;font-weight:normal;font-size:10px;font-family:FreeSans">     <tspan
   y="0"
   x="0 6"
   id="tspan83"
   style="fill:#262626">15</tspan>   </text>
      <text
         font-weight="normal"
         font-style="normal"
         font-size="10"
         xml:space="preserve"
         transform="translate(57.8755,184.54)"
         id="text89"
         style="font-style:normal;font-weight:normal;font-size:10px;font-family:FreeSans">     <tspan
   y="0"
   x="0 6"
   id="tspan87"
   style="fill:#262626">20</tspan>   </text>
      <text
         font-weight="normal"
         font-style="normal"
         font-size="10"
         xml:space="preserve"
         transform="translate(57.8755,165.94)"
         id="text93"
         style="font-style:normal;font-weight:normal;font-size:10px;font-family:FreeSans">     <tspan
   y="0"
   x="0 6"
   id="tspan91"
   style="fill:#262626">25</tspan>   </text>
      <polyline
         points="74.88,254.94 521.28,254.94"
         id="polyline95"
         style="fill:none;stroke:#262626;stroke-width:0.5;stroke-linecap:square;stroke-linejoin:miter;stroke-dasharray:16, 0" />
      <polyline
         points="74.88,254.94 74.88,161.94"
         id="polyline97"
         style="fill:none;stroke:#262626;stroke-width:0.5;stroke-linecap:square;stroke-linejoin:miter;stroke-dasharray:16, 0" />
      <polyline
         points="190.216,214.004 190.06,210.436 189.594,206.895 188.821,203.409 187.747,200.003 186.381,196.704 184.732,193.536 182.813,190.524 180.639,187.691 178.226,185.058 175.593,182.645 172.76,180.471 169.748,178.552 166.58,176.903 163.281,175.537 159.875,174.463 156.388,173.69 152.848,173.224 149.28,173.068 145.712,173.224 142.172,173.69 138.685,174.463 135.279,175.537 131.98,176.903 128.812,178.552 125.8,180.471 122.967,182.645 120.334,185.058 117.921,187.691 115.747,190.524 113.828,193.536 112.179,196.704 110.813,200.003 109.739,203.409 108.966,206.895 108.5,210.436 108.344,214.004 108.5,217.572 108.966,221.112 109.739,224.599 110.813,228.005 112.179,231.304 113.828,234.472 115.747,237.484 117.921,240.317 120.334,242.95 122.967,245.363 125.8,247.537 128.812,249.456 131.98,251.105 135.279,252.471 138.685,253.545 142.172,254.318 145.712,254.784 149.28,254.94 152.848,254.784 156.388,254.318 159.875,253.545 163.281,252.471 166.58,251.105 169.748,249.456 172.76,247.537 175.593,245.363 178.226,242.95 180.639,240.317 182.813,237.484 184.732,234.472 186.381,231.304 187.747,228.005 188.821,224.599 189.594,221.112 190.06,217.572 190.216,214.004"
         id="polyline99"
         style="fill:none;stroke:#0071bc;stroke-width:0.5;stroke-linecap:butt;stroke-linejoin:round" />
      <polyline
         points="201.161,240.259 201.106,238.979 200.938,237.709 200.661,236.459 200.276,235.237 199.786,234.054 199.195,232.918 198.506,231.838 197.727,230.821 196.861,229.877 195.917,229.012 194.901,228.232 193.821,227.544 192.685,226.953 191.501,226.462 190.28,226.077 189.029,225.8 187.76,225.633 186.48,225.577 185.2,225.633 183.931,225.8 182.68,226.077 181.459,226.462 180.275,226.953 179.139,227.544 178.059,228.232 177.043,229.012 176.099,229.877 175.233,230.821 174.454,231.838 173.765,232.918 173.174,234.054 172.684,235.237 172.299,236.459 172.022,237.709 171.854,238.979 171.798,240.259 171.854,241.538 172.022,242.808 172.299,244.058 172.684,245.28 173.174,246.463 173.765,247.599 174.454,248.679 175.233,249.696 176.099,250.64 177.043,251.505 178.059,252.285 179.139,252.973 180.275,253.564 181.459,254.055 182.68,254.44 183.931,254.717 185.2,254.884 186.48,254.94 187.76,254.884 189.029,254.717 190.28,254.44 191.501,254.055 192.685,253.564 193.821,252.973 194.901,252.285 195.917,251.505 196.861,250.64 197.727,249.696 198.506,248.679 199.195,247.599 199.786,246.463 200.276,245.28 200.661,244.058 200.938,242.808 201.106,241.538 201.161,240.259"
         id="polyline101"
         style="fill:none;stroke:#d85218;stroke-width:0.5;stroke-linecap:butt;stroke-linejoin:round" />
      <polyline
         points="234.542,244.078 234.5,243.132 234.377,242.192 234.172,241.267 233.887,240.363 233.524,239.488 233.086,238.648 232.577,237.848 232.001,237.097 231.36,236.398 230.662,235.758 229.91,235.181 229.111,234.672 228.27,234.234 227.395,233.872 226.491,233.587 225.566,233.382 224.627,233.258 223.68,233.217 222.733,233.258 221.794,233.382 220.869,233.587 219.965,233.872 219.09,234.234 218.249,234.672 217.45,235.181 216.698,235.758 216,236.398 215.359,237.097 214.783,237.848 214.274,238.648 213.836,239.488 213.473,240.363 213.188,241.267 212.983,242.192 212.86,243.132 212.818,244.078 212.86,245.025 212.983,245.964 213.188,246.89 213.473,247.793 213.836,248.669 214.274,249.509 214.783,250.308 215.359,251.06 216,251.759 216.698,252.399 217.45,252.976 218.249,253.485 219.09,253.922 219.965,254.285 220.869,254.57 221.794,254.775 222.733,254.899 223.68,254.94 224.627,254.899 225.566,254.775 226.491,254.57 227.395,254.285 228.27,253.922 229.111,253.485 229.91,252.976 230.662,252.399 231.36,251.759 232.001,251.06 232.577,250.308 233.086,249.509 233.524,248.669 233.887,247.793 234.172,246.89 234.377,245.964 234.5,245.025 234.542,244.078"
         id="polyline103"
         style="fill:none;stroke:#ecb01f;stroke-width:0.5;stroke-linecap:butt;stroke-linejoin:round" />
      <polyline
         points="269.191,246.629 269.159,245.905 269.065,245.186 268.908,244.478 268.69,243.787 268.412,243.117 268.077,242.474 267.688,241.862 267.247,241.287 266.757,240.752 266.222,240.263 265.647,239.821 265.035,239.432 264.392,239.097 263.722,238.819 263.031,238.601 262.323,238.444 261.604,238.35 260.88,238.318 260.156,238.35 259.437,238.444 258.729,238.601 258.038,238.819 257.368,239.097 256.725,239.432 256.113,239.821 255.538,240.263 255.003,240.752 254.513,241.287 254.072,241.862 253.683,242.474 253.348,243.117 253.07,243.787 252.852,244.478 252.695,245.186 252.601,245.905 252.569,246.629 252.601,247.353 252.695,248.072 252.852,248.78 253.07,249.472 253.348,250.141 253.683,250.785 254.072,251.396 254.513,251.971 255.003,252.506 255.538,252.996 256.113,253.437 256.725,253.827 257.368,254.161 258.038,254.439 258.729,254.657 259.437,254.814 260.156,254.908 260.88,254.94 261.604,254.908 262.323,254.814 263.031,254.657 263.722,254.439 264.392,254.161 265.035,253.827 265.647,253.437 266.222,252.996 266.757,252.506 267.247,251.971 267.688,251.396 268.077,250.785 268.412,250.141 268.69,249.472 268.908,248.78 269.065,248.072 269.159,247.353 269.191,246.629"
         id="polyline105"
         style="fill:none;stroke:#7d2e8d;stroke-width:0.5;stroke-linecap:butt;stroke-linejoin:round" />
      <polyline
         points="305.396,247.624 305.368,246.986 305.285,246.354 305.147,245.73 304.955,245.122 304.711,244.532 304.416,243.966 304.073,243.428 303.684,242.921 303.253,242.451 302.783,242.019 302.276,241.631 301.738,241.288 301.172,240.993 300.582,240.749 299.974,240.557 299.35,240.419 298.718,240.336 298.08,240.308 297.442,240.336 296.81,240.419 296.186,240.557 295.578,240.749 294.988,240.993 294.422,241.288 293.884,241.631 293.377,242.019 292.907,242.451 292.476,242.921 292.087,243.428 291.744,243.966 291.449,244.532 291.205,245.122 291.013,245.73 290.875,246.354 290.792,246.986 290.764,247.624 290.792,248.262 290.875,248.894 291.013,249.517 291.205,250.126 291.449,250.716 291.744,251.282 292.087,251.82 292.476,252.327 292.907,252.797 293.377,253.228 293.884,253.617 294.422,253.96 294.988,254.255 295.578,254.499 296.186,254.691 296.81,254.829 297.442,254.912 298.08,254.94 298.718,254.912 299.35,254.829 299.974,254.691 300.582,254.499 301.172,254.255 301.738,253.96 302.276,253.617 302.783,253.228 303.253,252.797 303.684,252.327 304.073,251.82 304.416,251.282 304.711,250.716 304.955,250.126 305.147,249.517 305.285,248.894 305.368,248.262 305.396,247.624"
         id="polyline107"
         style="fill:none;stroke:#76ab2f;stroke-width:0.5;stroke-linecap:butt;stroke-linejoin:round" />
      <polyline
         points="341.28,248.94 341.257,248.417 341.189,247.898 341.075,247.387 340.918,246.888 340.718,246.405 340.476,245.94 340.195,245.499 339.876,245.084 339.522,244.698 339.137,244.344 338.721,244.026 338.28,243.744 337.816,243.503 337.332,243.302 336.833,243.145 336.322,243.032 335.803,242.963 335.28,242.941 334.757,242.963 334.238,243.032 333.727,243.145 333.228,243.302 332.744,243.503 332.28,243.744 331.839,244.026 331.423,244.344 331.038,244.698 330.684,245.084 330.365,245.499 330.084,245.94 329.842,246.405 329.642,246.888 329.485,247.387 329.371,247.898 329.303,248.417 329.28,248.94 329.303,249.463 329.371,249.982 329.485,250.493 329.642,250.992 329.842,251.476 330.084,251.94 330.365,252.382 330.684,252.797 331.038,253.183 331.423,253.536 331.839,253.855 332.28,254.136 332.744,254.378 333.228,254.578 333.727,254.736 334.238,254.849 334.757,254.917 335.28,254.94 335.803,254.917 336.322,254.849 336.833,254.736 337.332,254.578 337.816,254.378 338.28,254.136 338.721,253.855 339.137,253.536 339.522,253.183 339.876,252.797 340.195,252.382 340.476,251.94 340.718,251.476 340.918,250.992 341.075,250.493 341.189,249.982 341.257,249.463 341.28,248.94"
         id="polyline109"
         style="fill:none;stroke:#4cbded;stroke-width:0.5;stroke-linecap:butt;stroke-linejoin:round" />
      <polyline
         points="377.801,249.619 377.781,249.155 377.72,248.695 377.62,248.241 377.48,247.799 377.303,247.37 377.088,246.958 376.839,246.567 376.556,246.198 376.243,245.856 375.9,245.542 375.532,245.26 375.141,245.01 374.729,244.796 374.3,244.618 373.857,244.479 373.404,244.378 372.944,244.318 372.48,244.297 372.016,244.318 371.556,244.378 371.103,244.479 370.66,244.618 370.231,244.796 369.819,245.01 369.428,245.26 369.06,245.542 368.717,245.856 368.404,246.198 368.121,246.567 367.872,246.958 367.657,247.37 367.48,247.799 367.34,248.241 367.24,248.695 367.179,249.155 367.159,249.619 367.179,250.082 367.24,250.543 367.34,250.996 367.48,251.439 367.657,251.868 367.872,252.279 368.121,252.671 368.404,253.039 368.717,253.381 369.06,253.695 369.428,253.978 369.819,254.227 370.231,254.441 370.66,254.619 371.103,254.759 371.556,254.859 372.016,254.92 372.48,254.94 372.944,254.92 373.404,254.859 373.857,254.759 374.3,254.619 374.729,254.441 375.141,254.227 375.532,253.978 375.9,253.695 376.243,253.381 376.556,253.039 376.839,252.671 377.088,252.279 377.303,251.868 377.48,251.439 377.62,250.996 377.72,250.543 377.781,250.082 377.801,249.619"
         id="polyline111"
         style="fill:none;stroke:#a1132e;stroke-width:0.5;stroke-linecap:butt;stroke-linejoin:round" />
      <polyline
         points="414.411,250.209 414.393,249.797 414.339,249.388 414.25,248.985 414.126,248.591 413.968,248.21 413.777,247.844 413.555,247.496 413.304,247.168 413.025,246.864 412.721,246.585 412.394,246.334 412.045,246.112 411.679,245.921 411.298,245.764 410.904,245.639 410.501,245.55 410.092,245.496 409.68,245.478 409.268,245.496 408.858,245.55 408.456,245.639 408.062,245.764 407.681,245.921 407.315,246.112 406.966,246.334 406.639,246.585 406.335,246.864 406.056,247.168 405.805,247.496 405.583,247.844 405.392,248.21 405.234,248.591 405.11,248.985 405.021,249.388 404.967,249.797 404.949,250.209 404.967,250.621 405.021,251.031 405.11,251.434 405.234,251.827 405.392,252.208 405.583,252.575 405.805,252.923 406.056,253.25 406.335,253.554 406.639,253.833 406.966,254.084 407.315,254.306 407.681,254.497 408.062,254.655 408.456,254.779 408.858,254.868 409.268,254.922 409.68,254.94 410.092,254.922 410.501,254.868 410.904,254.779 411.298,254.655 411.679,254.497 412.045,254.306 412.394,254.084 412.721,253.833 413.025,253.554 413.304,253.25 413.555,252.923 413.777,252.575 413.968,252.208 414.126,251.827 414.25,251.434 414.339,251.031 414.393,250.621 414.411,250.209"
         id="polyline113"
         style="fill:none;stroke:#0071bc;stroke-width:0.5;stroke-linecap:butt;stroke-linejoin:round" />
      <polyline
         points="451.139,250.681 451.123,250.309 451.075,249.941 450.994,249.578 450.882,249.224 450.74,248.881 450.569,248.551 450.369,248.238 450.143,247.943 449.892,247.669 449.618,247.418 449.323,247.192 449.01,246.992 448.68,246.82 448.337,246.678 447.982,246.567 447.62,246.486 447.251,246.438 446.88,246.421 446.509,246.438 446.14,246.486 445.778,246.567 445.423,246.678 445.08,246.82 444.75,246.992 444.437,247.192 444.142,247.418 443.868,247.669 443.617,247.943 443.391,248.238 443.191,248.551 443.02,248.881 442.878,249.224 442.766,249.578 442.685,249.941 442.637,250.309 442.621,250.681 442.637,251.052 442.685,251.42 442.766,251.783 442.878,252.137 443.02,252.481 443.191,252.81 443.391,253.124 443.617,253.419 443.868,253.692 444.142,253.944 444.437,254.17 444.75,254.369 445.08,254.541 445.423,254.683 445.778,254.795 446.14,254.875 446.509,254.924 446.88,254.94 447.251,254.924 447.62,254.875 447.982,254.795 448.337,254.683 448.68,254.541 449.01,254.369 449.323,254.17 449.618,253.944 449.892,253.692 450.143,253.419 450.369,253.124 450.569,252.81 450.74,252.481 450.882,252.137 450.994,251.783 451.075,251.42 451.123,251.052 451.139,250.681"
         id="polyline115"
         style="fill:none;stroke:#d85218;stroke-width:0.5;stroke-linecap:butt;stroke-linejoin:round" />
      <polyline
         points="488.132,250.888 488.116,250.535 488.07,250.185 487.994,249.84 487.887,249.502 487.752,249.176 487.589,248.862 487.399,248.564 487.184,248.284 486.945,248.023 486.684,247.784 486.404,247.569 486.106,247.379 485.792,247.216 485.466,247.081 485.129,246.975 484.784,246.898 484.433,246.852 484.08,246.836 483.727,246.852 483.376,246.898 483.031,246.975 482.694,247.081 482.368,247.216 482.054,247.379 481.756,247.569 481.476,247.784 481.215,248.023 480.976,248.284 480.761,248.564 480.571,248.862 480.408,249.176 480.273,249.502 480.166,249.84 480.09,250.185 480.044,250.535 480.028,250.888 480.044,251.241 480.09,251.592 480.166,251.937 480.273,252.274 480.408,252.601 480.571,252.914 480.761,253.212 480.976,253.493 481.215,253.753 481.476,253.992 481.756,254.207 482.054,254.397 482.368,254.56 482.694,254.696 483.031,254.802 483.376,254.878 483.727,254.925 484.08,254.94 484.433,254.925 484.784,254.878 485.129,254.802 485.466,254.696 485.792,254.56 486.106,254.397 486.404,254.207 486.684,253.992 486.945,253.753 487.184,253.493 487.399,253.212 487.589,252.914 487.752,252.601 487.887,252.274 487.994,251.937 488.07,251.592 488.116,251.241 488.132,250.888"
         id="polyline117"
         style="fill:none;stroke:#ecb01f;stroke-width:0.5;stroke-linecap:butt;stroke-linejoin:round" />
      <polyline
         points="149.28,214.004 153,232.731 156.72,233.107 160.44,233.164 164.16,233.316 167.88,236.666 171.6,237.743 175.32,237.973 179.04,240.235 182.76,240.256 186.48,240.259 190.2,241.022 193.92,241.294 197.64,241.46 201.36,241.981 205.08,242.197 208.8,242.203 212.52,242.947 216.24,243.396 219.96,243.576 223.68,244.078 227.4,244.47 231.12,244.809 234.84,244.985 238.56,245.11 242.28,245.747 246,245.906 249.72,245.941 253.44,246.022 257.16,246.241 260.88,246.629 264.6,246.672 268.32,246.701 272.04,246.721 275.76,247.022 279.48,247.152 283.2,247.248 286.92,247.393 290.64,247.526 294.36,247.617 298.08,247.624 301.8,248.361 305.52,248.377 309.24,248.471 312.96,248.543 316.68,248.552 320.4,248.691 324.12,248.773 327.84,248.843 331.56,248.871 335.28,248.94 339,248.958 342.72,248.992 346.44,249.004 350.16,249.141 353.88,249.295 357.6,249.385 361.32,249.447 365.04,249.485 368.76,249.579 372.48,249.619 376.2,249.627 379.92,249.716 383.64,249.743 387.36,249.744 391.08,249.817 394.8,249.917 398.52,250.123 402.24,250.155 405.96,250.161 409.68,250.209 413.4,250.249 417.12,250.256 420.84,250.34 424.56,250.445 428.28,250.532 432,250.545 435.72,250.577 439.44,250.675 443.16,250.676 446.88,250.681 450.6,250.697 454.32,250.719 458.04,250.72 461.76,250.738 465.48,250.751 469.2,250.759 472.92,250.785 476.64,250.805 480.36,250.807 484.08,250.888 487.8,250.898 491.52,250.942 495.24,250.999 498.96,251.032 502.68,251.091 506.4,251.109 510.12,251.157 513.84,251.18 517.56,251.22"
         id="polyline119"
         style="fill:none;stroke:#000000;stroke-width:0.5;stroke-linecap:butt;stroke-linejoin:round" />
    </g>
  </g>
</svg>
