<?xml version="1.0" encoding="UTF-8" standalone="no"?>
<svg
   xmlns:dc="http://purl.org/dc/elements/1.1/"
   xmlns:cc="http://creativecommons.org/ns#"
   xmlns:rdf="http://www.w3.org/1999/02/22-rdf-syntax-ns#"
   xmlns:svg="http://www.w3.org/2000/svg"
   xmlns="http://www.w3.org/2000/svg"
   xmlns:sodipodi="http://sodipodi.sourceforge.net/DTD/sodipodi-0.dtd"
   xmlns:inkscape="http://www.inkscape.org/namespaces/inkscape"
   viewBox="0 0 576 432"
   height="432pt"
   width="576pt"
   version="1.1"
   id="svg141"
   sodipodi:docname="piex-dots.svg"
   inkscape:version="0.92.5 (2060ec1f9f, 2020-04-08)">
  <metadata
     id="metadata145">
    <rdf:RDF>
      <cc:Work
         rdf:about="">
        <dc:format>image/svg+xml</dc:format>
        <dc:type
           rdf:resource="http://purl.org/dc/dcmitype/StillImage" />
      </cc:Work>
    </rdf:RDF>
  </metadata>
  <sodipodi:namedview
     pagecolor="#ffffff"
     bordercolor="#666666"
     borderopacity="1"
     objecttolerance="10"
     gridtolerance="10"
     guidetolerance="10"
     inkscape:pageopacity="0"
     inkscape:pageshadow="2"
     inkscape:window-width="640"
     inkscape:window-height="480"
     id="namedview143"
     showgrid="false"
     inkscape:zoom="0.44813368"
     inkscape:cx="384"
     inkscape:cy="288"
     inkscape:window-x="0"
     inkscape:window-y="0"
     inkscape:window-maximized="0"
     inkscape:current-layer="svg141" />
  <title
     id="title2">gl2ps_renderer figure</title>
  <desc
     id="desc4">
Creator: GL2PS 1.4.0, (C) 1999-2017 C. Geuzaine
For: Octave
CreationDate: Thu Jun 24 17:39:25 2021
</desc>
  <defs
     id="defs6" />
  <g
     id="g139">
    <clipPath
       id="cp00576432">
      <polygon
         points="0,432 576,432 576,0 0,0"
         id="polygon12" />
    </clipPath>
    <g
       clip-path="url(#cp00576432)"
       id="g55">
      <polygon
         shape-rendering="crispEdges"
         fill="#000000"
         points="121.947,351.035 120.447,352.125 118.593,352.125 117.093,351.035 116.52,349.272 117.093,347.509 118.593,346.419 120.447,346.419 121.947,347.509 122.52,349.272"
         id="polygon15" />
      <polyline
         stroke-linejoin="round"
         stroke-width="0.5"
         stroke="#000000"
         stroke-linecap="round"
         fill="none"
         points="122.52,349.272 121.947,351.035 120.447,352.125 118.593,352.125 117.093,351.035 116.52,349.272 117.093,347.509 118.593,346.419 120.447,346.419 121.947,347.509 122.52,349.272"
         id="polyline17" />
      <polygon
         shape-rendering="crispEdges"
         fill="#000000"
         points="166.587,174.995 165.087,176.085 163.233,176.085 161.733,174.995 161.16,173.232 161.733,171.469 163.233,170.379 165.087,170.379 166.587,171.469 167.16,173.232"
         id="polygon19" />
      <polyline
         stroke-linejoin="round"
         stroke-width="0.5"
         stroke="#000000"
         stroke-linecap="round"
         fill="none"
         points="167.16,173.232 166.587,174.995 165.087,176.085 163.233,176.085 161.733,174.995 161.16,173.232 161.733,171.469 163.233,170.379 165.087,170.379 166.587,171.469 167.16,173.232"
         id="polyline21" />
      <polygon
         shape-rendering="crispEdges"
         fill="#000000"
         points="211.227,315.827 209.727,316.917 207.873,316.917 206.373,315.827 205.8,314.064 206.373,312.301 207.873,311.211 209.727,311.211 211.227,312.301 211.8,314.064"
         id="polygon23" />
      <polyline
         stroke-linejoin="round"
         stroke-width="0.5"
         stroke="#000000"
         stroke-linecap="round"
         fill="none"
         points="211.8,314.064 211.227,315.827 209.727,316.917 207.873,316.917 206.373,315.827 205.8,314.064 206.373,312.301 207.873,311.211 209.727,311.211 211.227,312.301 211.8,314.064"
         id="polyline25" />
      <polygon
         shape-rendering="crispEdges"
         fill="#000000"
         points="255.867,139.787 254.367,140.877 252.513,140.877 251.013,139.787 250.44,138.024 251.013,136.261 252.513,135.171 254.367,135.171 255.867,136.261 256.44,138.024"
         id="polygon27" />
      <polyline
         stroke-linejoin="round"
         stroke-width="0.5"
         stroke="#000000"
         stroke-linecap="round"
         fill="none"
         points="256.44,138.024 255.867,139.787 254.367,140.877 252.513,140.877 251.013,139.787 250.44,138.024 251.013,136.261 252.513,135.171 254.367,135.171 255.867,136.261 256.44,138.024"
         id="polyline29" />
      <polygon
         shape-rendering="crispEdges"
         fill="#000000"
         points="300.507,333.431 299.007,334.521 297.153,334.521 295.653,333.431 295.08,331.668 295.653,329.905 297.153,328.815 299.007,328.815 300.507,329.905 301.08,331.668"
         id="polygon31" />
      <polyline
         stroke-linejoin="round"
         stroke-width="0.5"
         stroke="#000000"
         stroke-linecap="round"
         fill="none"
         points="301.08,331.668 300.507,333.431 299.007,334.521 297.153,334.521 295.653,333.431 295.08,331.668 295.653,329.905 297.153,328.815 299.007,328.815 300.507,329.905 301.08,331.668"
         id="polyline33" />
      <polygon
         shape-rendering="crispEdges"
         fill="#000000"
         points="345.147,153.871 343.647,154.96 341.793,154.96 340.293,153.871 339.72,152.107 340.293,150.344 341.793,149.254 343.647,149.254 345.147,150.344 345.72,152.107"
         id="polygon35" />
      <polyline
         stroke-linejoin="round"
         stroke-width="0.5"
         stroke="#000000"
         stroke-linecap="round"
         fill="none"
         points="345.72,152.107 345.147,153.871 343.647,154.96 341.793,154.96 340.293,153.871 339.72,152.107 340.293,150.344 341.793,149.254 343.647,149.254 345.147,150.344 345.72,152.107"
         id="polyline37" />
      <polygon
         shape-rendering="crispEdges"
         fill="#000000"
         points="389.787,305.265 388.287,306.355 386.433,306.355 384.933,305.265 384.36,303.502 384.933,301.738 386.433,300.648 388.287,300.648 389.787,301.738 390.36,303.502"
         id="polygon39" />
      <polyline
         stroke-linejoin="round"
         stroke-width="0.5"
         stroke="#000000"
         stroke-linecap="round"
         fill="none"
         points="390.36,303.502 389.787,305.265 388.287,306.355 386.433,306.355 384.933,305.265 384.36,303.502 384.933,301.738 386.433,300.648 388.287,300.648 389.787,301.738 390.36,303.502"
         id="polyline41" />
      <polygon
         shape-rendering="crispEdges"
         fill="#000000"
         points="434.427,122.183 432.927,123.273 431.073,123.273 429.573,122.183 429,120.42 429.573,118.657 431.073,117.567 432.927,117.567 434.427,118.657 435,120.42"
         id="polygon43" />
      <polyline
         stroke-linejoin="round"
         stroke-width="0.5"
         stroke="#000000"
         stroke-linecap="round"
         fill="none"
         points="435,120.42 434.427,122.183 432.927,123.273 431.073,123.273 429.573,122.183 429,120.42 429.573,118.657 431.073,117.567 432.927,117.567 434.427,118.657 435,120.42"
         id="polyline45" />
      <polygon
         shape-rendering="crispEdges"
         fill="#000000"
         points="479.067,375.681 477.567,376.771 475.713,376.771 474.213,375.681 473.64,373.918 474.213,372.154 475.713,371.064 477.567,371.064 479.067,372.154 479.64,373.918"
         id="polygon47" />
      <polyline
         stroke-linejoin="round"
         stroke-width="0.5"
         stroke="#000000"
         stroke-linecap="round"
         fill="none"
         points="479.64,373.918 479.067,375.681 477.567,376.771 475.713,376.771 474.213,375.681 473.64,373.918 474.213,372.154 475.713,371.064 477.567,371.064 479.067,372.154 479.64,373.918"
         id="polyline49" />
      <polygon
         shape-rendering="crispEdges"
         fill="#000000"
         points="523.707,182.037 522.207,183.127 520.353,183.127 518.853,182.037 518.28,180.274 518.853,178.51 520.353,177.42 522.207,177.42 523.707,178.51 524.28,180.274"
         id="polygon51" />
      <polyline
         stroke-linejoin="round"
         stroke-width="0.5"
         stroke="#000000"
         stroke-linecap="round"
         fill="none"
         points="524.28,180.274 523.707,182.037 522.207,183.127 520.353,183.127 518.853,182.037 518.28,180.274 518.853,178.51 520.353,177.42 522.207,177.42 523.707,178.51 524.28,180.274"
         id="polyline53" />
    </g>
    <clipPath
       id="clipPath59">
      <polygon
         points="0,432 576,432 576,0 0,0"
         id="polygon57" />
    </clipPath>
    <g
       clip-path="url(#cp00576432)"
       id="g137">
      <polyline
         stroke-linejoin="miter"
         stroke-width="1"
         stroke="#000000"
         stroke-linecap="butt"
         fill="none"
         points="74.88,384.48 74.88,388.945"
         id="polyline61" />
      <polyline
         stroke-linejoin="miter"
         stroke-width="1"
         stroke="#000000"
         stroke-linecap="butt"
         fill="none"
         points="164.16,384.48 164.16,388.945"
         id="polyline63" />
      <polyline
         stroke-linejoin="miter"
         stroke-width="1"
         stroke="#000000"
         stroke-linecap="butt"
         fill="none"
         points="253.44,384.48 253.44,388.945"
         id="polyline65" />
      <polyline
         stroke-linejoin="miter"
         stroke-width="1"
         stroke="#000000"
         stroke-linecap="butt"
         fill="none"
         points="342.72,384.48 342.72,388.945"
         id="polyline67" />
      <polyline
         stroke-linejoin="miter"
         stroke-width="1"
         stroke="#000000"
         stroke-linecap="butt"
         fill="none"
         points="432,384.48 432,388.945"
         id="polyline69" />
      <polyline
         stroke-linejoin="miter"
         stroke-width="1"
         stroke="#000000"
         stroke-linecap="butt"
         fill="none"
         points="521.28,384.48 521.28,388.945"
         id="polyline71" />
      <text
         font-size="10"
         font-weight="normal"
         transform="translate(71.88,404.447) rotate(-0,3,-8)"
         font-style="normal"
         xml:space="preserve"
         font-family="FreeSans"
         id="text75">
    <tspan
   y="-0"
   x="0 "
   fill="rgb(0,0,0)"
   id="tspan73">0</tspan>
   </text>
      <text
         font-size="10"
         font-weight="normal"
         transform="translate(161.16,404.447) rotate(-0,3,-8)"
         font-style="normal"
         xml:space="preserve"
         font-family="FreeSans"
         id="text79">
    <tspan
   y="-0"
   x="0 "
   fill="rgb(0,0,0)"
   id="tspan77">2</tspan>
   </text>
      <text
         font-size="10"
         font-weight="normal"
         transform="translate(250.44,404.447) rotate(-0,3,-8)"
         font-style="normal"
         xml:space="preserve"
         font-family="FreeSans"
         id="text83">
    <tspan
   y="-0"
   x="0 "
   fill="rgb(0,0,0)"
   id="tspan81">4</tspan>
   </text>
      <text
         font-size="10"
         font-weight="normal"
         transform="translate(339.72,404.447) rotate(-0,3,-8)"
         font-style="normal"
         xml:space="preserve"
         font-family="FreeSans"
         id="text87">
    <tspan
   y="-0"
   x="0 "
   fill="rgb(0,0,0)"
   id="tspan85">6</tspan>
   </text>
      <text
         font-size="10"
         font-weight="normal"
         transform="translate(429,404.447) rotate(-0,3,-8)"
         font-style="normal"
         xml:space="preserve"
         font-family="FreeSans"
         id="text91">
    <tspan
   y="-0"
   x="0 "
   fill="rgb(0,0,0)"
   id="tspan89">8</tspan>
   </text>
      <text
         font-size="10"
         font-weight="normal"
         transform="translate(515.28,404.447) rotate(-0,6,-8)"
         font-style="normal"
         xml:space="preserve"
         font-family="FreeSans"
         id="text95">
    <tspan
   y="-0"
   x="0 6 "
   fill="rgb(0,0,0)"
   id="tspan93">10</tspan>
   </text>
      <polyline
         stroke-linejoin="miter"
         stroke-width="1"
         stroke="#000000"
         stroke-linecap="butt"
         fill="none"
         points="74.88,384.48 70.412,384.48"
         id="polyline97" />
      <polyline
         stroke-linejoin="miter"
         stroke-width="1"
         stroke="#000000"
         stroke-linecap="butt"
         fill="none"
         points="74.88,314.064 70.412,314.064"
         id="polyline99" />
      <polyline
         stroke-linejoin="miter"
         stroke-width="1"
         stroke="#000000"
         stroke-linecap="butt"
         fill="none"
         points="74.88,243.648 70.412,243.648"
         id="polyline101" />
      <polyline
         stroke-linejoin="miter"
         stroke-width="1"
         stroke="#000000"
         stroke-linecap="butt"
         fill="none"
         points="74.88,173.232 70.412,173.232"
         id="polyline103" />
      <polyline
         stroke-linejoin="miter"
         stroke-width="1"
         stroke="#000000"
         stroke-linecap="butt"
         fill="none"
         points="74.88,102.816 70.412,102.816"
         id="polyline105" />
      <polyline
         stroke-linejoin="miter"
         stroke-width="1"
         stroke="#000000"
         stroke-linecap="butt"
         fill="none"
         points="74.88,32.4 70.412,32.4"
         id="polyline107" />
      <text
         font-size="10"
         font-weight="normal"
         transform="translate(44.4075,388.48) rotate(-0,21,-4)"
         font-style="normal"
         xml:space="preserve"
         font-family="FreeSans"
         id="text111">
    <tspan
   y="-0"
   x="0 6 9 15 "
   fill="rgb(0,0,0)"
   id="tspan109">0.06</tspan>
   </text>
      <text
         font-size="10"
         font-weight="normal"
         transform="translate(44.4075,318.064) rotate(-0,21,-4)"
         font-style="normal"
         xml:space="preserve"
         font-family="FreeSans"
         id="text115">
    <tspan
   y="-0"
   x="0 6 9 15 "
   fill="rgb(0,0,0)"
   id="tspan113">0.08</tspan>
   </text>
      <text
         font-size="10"
         font-weight="normal"
         transform="translate(50.4075,247.648) rotate(-0,15,-4)"
         font-style="normal"
         xml:space="preserve"
         font-family="FreeSans"
         id="text119">
    <tspan
   y="-0"
   x="0 6 9 "
   fill="rgb(0,0,0)"
   id="tspan117">0.1</tspan>
   </text>
      <text
         font-size="10"
         font-weight="normal"
         transform="translate(44.4075,177.232) rotate(-0,21,-4)"
         font-style="normal"
         xml:space="preserve"
         font-family="FreeSans"
         id="text123">
    <tspan
   y="-0"
   x="0 6 9 15 "
   fill="rgb(0,0,0)"
   id="tspan121">0.12</tspan>
   </text>
      <text
         font-size="10"
         font-weight="normal"
         transform="translate(44.4075,106.816) rotate(-0,21,-4)"
         font-style="normal"
         xml:space="preserve"
         font-family="FreeSans"
         id="text127">
    <tspan
   y="-0"
   x="0 6 9 15 "
   fill="rgb(0,0,0)"
   id="tspan125">0.14</tspan>
   </text>
      <text
         font-size="10"
         font-weight="normal"
         transform="translate(44.4075,36.4) rotate(-0,21,-4)"
         font-style="normal"
         xml:space="preserve"
         font-family="FreeSans"
         id="text131">
    <tspan
   y="-0"
   x="0 6 9 15 "
   fill="rgb(0,0,0)"
   id="tspan129">0.16</tspan>
   </text>
      <polyline
         stroke-linejoin="miter"
         stroke-width="1"
         stroke="#000000"
         stroke-dasharray="16,0"
         stroke-linecap="square"
         fill="none"
         points="74.88,384.48 521.28,384.48"
         id="polyline133" />
      <polyline
         stroke-linejoin="miter"
         stroke-width="1"
         stroke="#000000"
         stroke-dasharray="16,0"
         stroke-linecap="square"
         fill="none"
         points="74.88,384.48 74.88,32.4"
         id="polyline135" />
    </g>
  </g>
</svg>
