<?xml version="1.0" encoding="UTF-8" standalone="no"?>
<svg
   xmlns:dc="http://purl.org/dc/elements/1.1/"
   xmlns:cc="http://creativecommons.org/ns#"
   xmlns:rdf="http://www.w3.org/1999/02/22-rdf-syntax-ns#"
   xmlns:svg="http://www.w3.org/2000/svg"
   xmlns="http://www.w3.org/2000/svg"
   xmlns:sodipodi="http://sodipodi.sourceforge.net/DTD/sodipodi-0.dtd"
   xmlns:inkscape="http://www.inkscape.org/namespaces/inkscape"
   viewBox="0 0 576 432"
   width="576pt"
   height="432pt"
   version="1.1"
   id="svg165"
   sodipodi:docname="piex-dots-order.svg"
   inkscape:version="0.92.5 (2060ec1f9f, 2020-04-08)">
  <metadata
     id="metadata169">
    <rdf:RDF>
      <cc:Work
         rdf:about="">
        <dc:format>image/svg+xml</dc:format>
        <dc:type
           rdf:resource="http://purl.org/dc/dcmitype/StillImage" />
      </cc:Work>
    </rdf:RDF>
  </metadata>
  <sodipodi:namedview
     pagecolor="#ffffff"
     bordercolor="#666666"
     borderopacity="1"
     objecttolerance="10"
     gridtolerance="10"
     guidetolerance="10"
     inkscape:pageopacity="0"
     inkscape:pageshadow="2"
     inkscape:window-width="788"
     inkscape:window-height="615"
     id="namedview167"
     showgrid="false"
     inkscape:zoom="0.66419813"
     inkscape:cx="384"
     inkscape:cy="288"
     inkscape:window-x="0"
     inkscape:window-y="0"
     inkscape:window-maximized="0"
     inkscape:current-layer="svg165" />
  <title
     id="title2">gl2ps_renderer figure</title>
  <desc
     id="desc4">
Creator: GL2PS 1.4.0, (C) 1999-2017 C. Geuzaine
For: Octave
CreationDate: Thu Jun 24 18:00:46 2021
</desc>
  <defs
     id="defs6" />
  <g
     id="g163">
    <clipPath
       id="cp00576432">
      <polygon
         points="0,432 576,432 576,0 0,0"
         id="polygon12" />
    </clipPath>
    <g
       clip-path="url(#cp00576432)"
       id="g55">
      <polygon
         shape-rendering="crispEdges"
         points="121.947,375.681 120.447,376.771 118.593,376.771 117.093,375.681 116.52,373.918 117.093,372.154 118.593,371.064 120.447,371.064 121.947,372.154 122.52,373.918"
         fill="#000000"
         id="polygon15" />
      <polyline
         stroke-width="0.5"
         stroke="#000000"
         points="122.52,373.918 121.947,375.681 120.447,376.771 118.593,376.771 117.093,375.681 116.52,373.918 117.093,372.154 118.593,371.064 120.447,371.064 121.947,372.154 122.52,373.918"
         stroke-linejoin="round"
         fill="none"
         stroke-linecap="round"
         id="polyline17" />
      <polygon
         shape-rendering="crispEdges"
         points="166.587,351.035 165.087,352.125 163.233,352.125 161.733,351.035 161.16,349.272 161.733,347.509 163.233,346.419 165.087,346.419 166.587,347.509 167.16,349.272"
         fill="#000000"
         id="polygon19" />
      <polyline
         stroke-width="0.5"
         stroke="#000000"
         points="167.16,349.272 166.587,351.035 165.087,352.125 163.233,352.125 161.733,351.035 161.16,349.272 161.733,347.509 163.233,346.419 165.087,346.419 166.587,347.509 167.16,349.272"
         stroke-linejoin="round"
         fill="none"
         stroke-linecap="round"
         id="polyline21" />
      <polygon
         shape-rendering="crispEdges"
         points="211.227,333.431 209.727,334.521 207.873,334.521 206.373,333.431 205.8,331.668 206.373,329.905 207.873,328.815 209.727,328.815 211.227,329.905 211.8,331.668"
         fill="#000000"
         id="polygon23" />
      <polyline
         stroke-width="0.5"
         stroke="#000000"
         points="211.8,331.668 211.227,333.431 209.727,334.521 207.873,334.521 206.373,333.431 205.8,331.668 206.373,329.905 207.873,328.815 209.727,328.815 211.227,329.905 211.8,331.668"
         stroke-linejoin="round"
         fill="none"
         stroke-linecap="round"
         id="polyline25" />
      <polygon
         shape-rendering="crispEdges"
         points="255.867,315.827 254.367,316.917 252.513,316.917 251.013,315.827 250.44,314.064 251.013,312.301 252.513,311.211 254.367,311.211 255.867,312.301 256.44,314.064"
         fill="#000000"
         id="polygon27" />
      <polyline
         stroke-width="0.5"
         stroke="#000000"
         points="256.44,314.064 255.867,315.827 254.367,316.917 252.513,316.917 251.013,315.827 250.44,314.064 251.013,312.301 252.513,311.211 254.367,311.211 255.867,312.301 256.44,314.064"
         stroke-linejoin="round"
         fill="none"
         stroke-linecap="round"
         id="polyline29" />
      <polygon
         shape-rendering="crispEdges"
         points="300.507,305.265 299.007,306.355 297.153,306.355 295.653,305.265 295.08,303.502 295.653,301.738 297.153,300.648 299.007,300.648 300.507,301.738 301.08,303.502"
         fill="#000000"
         id="polygon31" />
      <polyline
         stroke-width="0.5"
         stroke="#000000"
         points="301.08,303.502 300.507,305.265 299.007,306.355 297.153,306.355 295.653,305.265 295.08,303.502 295.653,301.738 297.153,300.648 299.007,300.648 300.507,301.738 301.08,303.502"
         stroke-linejoin="round"
         fill="none"
         stroke-linecap="round"
         id="polyline33" />
      <polygon
         shape-rendering="crispEdges"
         points="345.147,182.037 343.647,183.127 341.793,183.127 340.293,182.037 339.72,180.274 340.293,178.51 341.793,177.42 343.647,177.42 345.147,178.51 345.72,180.274"
         fill="#000000"
         id="polygon35" />
      <polyline
         stroke-width="0.5"
         stroke="#000000"
         points="345.72,180.274 345.147,182.037 343.647,183.127 341.793,183.127 340.293,182.037 339.72,180.274 340.293,178.51 341.793,177.42 343.647,177.42 345.147,178.51 345.72,180.274"
         stroke-linejoin="round"
         fill="none"
         stroke-linecap="round"
         id="polyline37" />
      <polygon
         shape-rendering="crispEdges"
         points="389.787,174.995 388.287,176.085 386.433,176.085 384.933,174.995 384.36,173.232 384.933,171.469 386.433,170.379 388.287,170.379 389.787,171.469 390.36,173.232"
         fill="#000000"
         id="polygon39" />
      <polyline
         stroke-width="0.5"
         stroke="#000000"
         points="390.36,173.232 389.787,174.995 388.287,176.085 386.433,176.085 384.933,174.995 384.36,173.232 384.933,171.469 386.433,170.379 388.287,170.379 389.787,171.469 390.36,173.232"
         stroke-linejoin="round"
         fill="none"
         stroke-linecap="round"
         id="polyline41" />
      <polygon
         shape-rendering="crispEdges"
         points="434.427,153.871 432.927,154.96 431.073,154.96 429.573,153.871 429,152.107 429.573,150.344 431.073,149.254 432.927,149.254 434.427,150.344 435,152.107"
         fill="#000000"
         id="polygon43" />
      <polyline
         stroke-width="0.5"
         stroke="#000000"
         points="435,152.107 434.427,153.871 432.927,154.96 431.073,154.96 429.573,153.871 429,152.107 429.573,150.344 431.073,149.254 432.927,149.254 434.427,150.344 435,152.107"
         stroke-linejoin="round"
         fill="none"
         stroke-linecap="round"
         id="polyline45" />
      <polygon
         shape-rendering="crispEdges"
         points="479.067,139.787 477.567,140.877 475.713,140.877 474.213,139.787 473.64,138.024 474.213,136.261 475.713,135.171 477.567,135.171 479.067,136.261 479.64,138.024"
         fill="#000000"
         id="polygon47" />
      <polyline
         stroke-width="0.5"
         stroke="#000000"
         points="479.64,138.024 479.067,139.787 477.567,140.877 475.713,140.877 474.213,139.787 473.64,138.024 474.213,136.261 475.713,135.171 477.567,135.171 479.067,136.261 479.64,138.024"
         stroke-linejoin="round"
         fill="none"
         stroke-linecap="round"
         id="polyline49" />
      <polygon
         shape-rendering="crispEdges"
         points="523.707,122.183 522.207,123.273 520.353,123.273 518.853,122.183 518.28,120.42 518.853,118.657 520.353,117.567 522.207,117.567 523.707,118.657 524.28,120.42"
         fill="#000000"
         id="polygon51" />
      <polyline
         stroke-width="0.5"
         stroke="#000000"
         points="524.28,120.42 523.707,122.183 522.207,123.273 520.353,123.273 518.853,122.183 518.28,120.42 518.853,118.657 520.353,117.567 522.207,117.567 523.707,118.657 524.28,120.42"
         stroke-linejoin="round"
         fill="none"
         stroke-linecap="round"
         id="polyline53" />
    </g>
    <clipPath
       id="clipPath59">
      <polygon
         points="0,432 576,432 576,0 0,0"
         id="polygon57" />
    </clipPath>
    <g
       clip-path="url(#cp00576432)"
       id="g161">
      <polyline
         stroke-width="1"
         stroke="#000000"
         points="119.52,384.48 119.52,388.945"
         stroke-linejoin="miter"
         fill="none"
         stroke-linecap="butt"
         id="polyline61" />
      <polyline
         stroke-width="1"
         stroke="#000000"
         points="164.16,384.48 164.16,388.945"
         stroke-linejoin="miter"
         fill="none"
         stroke-linecap="butt"
         id="polyline63" />
      <polyline
         stroke-width="1"
         stroke="#000000"
         points="208.8,384.48 208.8,388.945"
         stroke-linejoin="miter"
         fill="none"
         stroke-linecap="butt"
         id="polyline65" />
      <polyline
         stroke-width="1"
         stroke="#000000"
         points="253.44,384.48 253.44,388.945"
         stroke-linejoin="miter"
         fill="none"
         stroke-linecap="butt"
         id="polyline67" />
      <polyline
         stroke-width="1"
         stroke="#000000"
         points="298.08,384.48 298.08,388.945"
         stroke-linejoin="miter"
         fill="none"
         stroke-linecap="butt"
         id="polyline69" />
      <polyline
         stroke-width="1"
         stroke="#000000"
         points="342.72,384.48 342.72,388.945"
         stroke-linejoin="miter"
         fill="none"
         stroke-linecap="butt"
         id="polyline71" />
      <polyline
         stroke-width="1"
         stroke="#000000"
         points="387.36,384.48 387.36,388.945"
         stroke-linejoin="miter"
         fill="none"
         stroke-linecap="butt"
         id="polyline73" />
      <polyline
         stroke-width="1"
         stroke="#000000"
         points="432,384.48 432,388.945"
         stroke-linejoin="miter"
         fill="none"
         stroke-linecap="butt"
         id="polyline75" />
      <polyline
         stroke-width="1"
         stroke="#000000"
         points="476.64,384.48 476.64,388.945"
         stroke-linejoin="miter"
         fill="none"
         stroke-linecap="butt"
         id="polyline77" />
      <polyline
         stroke-width="1"
         stroke="#000000"
         points="521.28,384.48 521.28,388.945"
         stroke-linejoin="miter"
         fill="none"
         stroke-linecap="butt"
         id="polyline79" />
      <text
         xml:space="preserve"
         transform="translate(107.52,405.447) rotate(-0,12,-9)"
         font-size="10"
         font-family="FreeSans"
         font-weight="normal"
         font-style="normal"
         id="text83">
    <tspan
   y="-0"
   x="0 2 5 10 18 "
   fill="rgb(0,0,0)"
   id="tspan81">item9</tspan>
   </text>
      <text
         xml:space="preserve"
         transform="translate(152.16,405.447) rotate(-0,12,-9)"
         font-size="10"
         font-family="FreeSans"
         font-weight="normal"
         font-style="normal"
         id="text87">
    <tspan
   y="-0"
   x="0 2 5 10 18 "
   fill="rgb(0,0,0)"
   id="tspan85">item1</tspan>
   </text>
      <text
         xml:space="preserve"
         transform="translate(196.8,405.447) rotate(-0,12,-9)"
         font-size="10"
         font-family="FreeSans"
         font-weight="normal"
         font-style="normal"
         id="text91">
    <tspan
   y="-0"
   x="0 2 5 10 18 "
   fill="rgb(0,0,0)"
   id="tspan89">item5</tspan>
   </text>
      <text
         xml:space="preserve"
         transform="translate(241.44,405.447) rotate(-0,12,-9)"
         font-size="10"
         font-family="FreeSans"
         font-weight="normal"
         font-style="normal"
         id="text95">
    <tspan
   y="-0"
   x="0 2 5 10 18 "
   fill="rgb(0,0,0)"
   id="tspan93">item3</tspan>
   </text>
      <text
         xml:space="preserve"
         transform="translate(286.08,405.447) rotate(-0,12,-9)"
         font-size="10"
         font-family="FreeSans"
         font-weight="normal"
         font-style="normal"
         id="text99">
    <tspan
   y="-0"
   x="0 2 5 10 18 "
   fill="rgb(0,0,0)"
   id="tspan97">item7</tspan>
   </text>
      <text
         xml:space="preserve"
         transform="translate(327.72,405.447) rotate(-0,15,-9)"
         font-size="10"
         font-family="FreeSans"
         font-weight="normal"
         font-style="normal"
         id="text103">
    <tspan
   y="-0"
   x="0 2 5 10 18 24 "
   fill="rgb(0,0,0)"
   id="tspan101">item10</tspan>
   </text>
      <text
         xml:space="preserve"
         transform="translate(375.36,405.447) rotate(-0,12,-9)"
         font-size="10"
         font-family="FreeSans"
         font-weight="normal"
         font-style="normal"
         id="text107">
    <tspan
   y="-0"
   x="0 2 5 10 18 "
   fill="rgb(0,0,0)"
   id="tspan105">item2</tspan>
   </text>
      <text
         xml:space="preserve"
         transform="translate(420,405.447) rotate(-0,12,-9)"
         font-size="10"
         font-family="FreeSans"
         font-weight="normal"
         font-style="normal"
         id="text111">
    <tspan
   y="-0"
   x="0 2 5 10 18 "
   fill="rgb(0,0,0)"
   id="tspan109">item6</tspan>
   </text>
      <text
         xml:space="preserve"
         transform="translate(464.64,405.447) rotate(-0,12,-9)"
         font-size="10"
         font-family="FreeSans"
         font-weight="normal"
         font-style="normal"
         id="text115">
    <tspan
   y="-0"
   x="0 2 5 10 18 "
   fill="rgb(0,0,0)"
   id="tspan113">item4</tspan>
   </text>
      <text
         xml:space="preserve"
         transform="translate(509.28,405.447) rotate(-0,12,-9)"
         font-size="10"
         font-family="FreeSans"
         font-weight="normal"
         font-style="normal"
         id="text119">
    <tspan
   y="-0"
   x="0 2 5 10 18 "
   fill="rgb(0,0,0)"
   id="tspan117">item8</tspan>
   </text>
      <polyline
         stroke-width="1"
         stroke="#000000"
         points="74.88,384.48 70.412,384.48"
         stroke-linejoin="miter"
         fill="none"
         stroke-linecap="butt"
         id="polyline121" />
      <polyline
         stroke-width="1"
         stroke="#000000"
         points="74.88,314.064 70.412,314.064"
         stroke-linejoin="miter"
         fill="none"
         stroke-linecap="butt"
         id="polyline123" />
      <polyline
         stroke-width="1"
         stroke="#000000"
         points="74.88,243.648 70.412,243.648"
         stroke-linejoin="miter"
         fill="none"
         stroke-linecap="butt"
         id="polyline125" />
      <polyline
         stroke-width="1"
         stroke="#000000"
         points="74.88,173.232 70.412,173.232"
         stroke-linejoin="miter"
         fill="none"
         stroke-linecap="butt"
         id="polyline127" />
      <polyline
         stroke-width="1"
         stroke="#000000"
         points="74.88,102.816 70.412,102.816"
         stroke-linejoin="miter"
         fill="none"
         stroke-linecap="butt"
         id="polyline129" />
      <polyline
         stroke-width="1"
         stroke="#000000"
         points="74.88,32.4 70.412,32.4"
         stroke-linejoin="miter"
         fill="none"
         stroke-linecap="butt"
         id="polyline131" />
      <text
         xml:space="preserve"
         transform="translate(44.4075,388.48) rotate(-0,21,-4)"
         font-size="10"
         font-family="FreeSans"
         font-weight="normal"
         font-style="normal"
         id="text135">
    <tspan
   y="-0"
   x="0 6 9 15 "
   fill="rgb(0,0,0)"
   id="tspan133">0.06</tspan>
   </text>
      <text
         xml:space="preserve"
         transform="translate(44.4075,318.064) rotate(-0,21,-4)"
         font-size="10"
         font-family="FreeSans"
         font-weight="normal"
         font-style="normal"
         id="text139">
    <tspan
   y="-0"
   x="0 6 9 15 "
   fill="rgb(0,0,0)"
   id="tspan137">0.08</tspan>
   </text>
      <text
         xml:space="preserve"
         transform="translate(50.4075,247.648) rotate(-0,15,-4)"
         font-size="10"
         font-family="FreeSans"
         font-weight="normal"
         font-style="normal"
         id="text143">
    <tspan
   y="-0"
   x="0 6 9 "
   fill="rgb(0,0,0)"
   id="tspan141">0.1</tspan>
   </text>
      <text
         xml:space="preserve"
         transform="translate(44.4075,177.232) rotate(-0,21,-4)"
         font-size="10"
         font-family="FreeSans"
         font-weight="normal"
         font-style="normal"
         id="text147">
    <tspan
   y="-0"
   x="0 6 9 15 "
   fill="rgb(0,0,0)"
   id="tspan145">0.12</tspan>
   </text>
      <text
         xml:space="preserve"
         transform="translate(44.4075,106.816) rotate(-0,21,-4)"
         font-size="10"
         font-family="FreeSans"
         font-weight="normal"
         font-style="normal"
         id="text151">
    <tspan
   y="-0"
   x="0 6 9 15 "
   fill="rgb(0,0,0)"
   id="tspan149">0.14</tspan>
   </text>
      <text
         xml:space="preserve"
         transform="translate(44.4075,36.4) rotate(-0,21,-4)"
         font-size="10"
         font-family="FreeSans"
         font-weight="normal"
         font-style="normal"
         id="text155">
    <tspan
   y="-0"
   x="0 6 9 15 "
   fill="rgb(0,0,0)"
   id="tspan153">0.16</tspan>
   </text>
      <polyline
         stroke-width="1"
         stroke="#000000"
         stroke-dasharray="16,0"
         points="74.88,384.48 521.28,384.48"
         stroke-linejoin="miter"
         fill="none"
         stroke-linecap="square"
         id="polyline157" />
      <polyline
         stroke-width="1"
         stroke="#000000"
         stroke-dasharray="16,0"
         points="74.88,384.48 74.88,32.4"
         stroke-linejoin="miter"
         fill="none"
         stroke-linecap="square"
         id="polyline159" />
    </g>
  </g>
</svg>
