<?xml version="1.0" encoding="UTF-8" standalone="no"?>
<!-- Created with Inkscape (http://www.inkscape.org/) -->

<svg
   xmlns:dc="http://purl.org/dc/elements/1.1/"
   xmlns:cc="http://creativecommons.org/ns#"
   xmlns:rdf="http://www.w3.org/1999/02/22-rdf-syntax-ns#"
   xmlns:svg="http://www.w3.org/2000/svg"
   xmlns="http://www.w3.org/2000/svg"
   xmlns:xlink="http://www.w3.org/1999/xlink"
   xmlns:sodipodi="http://sodipodi.sourceforge.net/DTD/sodipodi-0.dtd"
   xmlns:inkscape="http://www.inkscape.org/namespaces/inkscape"
   width="413.93903"
   height="147.51711"
   id="svg2"
   version="1.1"
   inkscape:version="0.48.5 r10040"
   sodipodi:docname="New document 1">
  <defs
     id="defs4">
    <clipPath
       id="clipPath3358"
       clipPathUnits="userSpaceOnUse">
      <path
         id="path3360"
         d="m 0,194.402 545.5,0 L 545.5,0 0,0 0,194.402 z"
         inkscape:connector-curvature="0" />
    </clipPath>
    <clipPath
       id="clipPath3350"
       clipPathUnits="userSpaceOnUse">
      <path
         id="path3352"
         d="m 0,0 545.5,0 0,194.402 -545.5,0 L 0,0 z"
         inkscape:connector-curvature="0" />
    </clipPath>
    <radialGradient
       id="radialGradient3318"
       gradientUnits="userSpaceOnUse"
       r="2.5697"
       cy="2.5697"
       cx="2.5697"
       fy="3.6656001"
       fx="1.67305">
      <stop
         id="stop3320"
         offset="0"
         style="stop-opacity:1;stop-color:#e0e0f4" />
      <stop
         id="stop3322"
         offset="0.797"
         style="stop-opacity:1;stop-color:#6666c6" />
      <stop
         id="stop3324"
         offset="1.59401"
         style="stop-opacity:1;stop-color:#24247d" />
      <stop
         id="stop3326"
         offset="2.1918"
         style="stop-opacity:1;stop-color:#191959" />
      <stop
         id="stop3328"
         offset="2.5697"
         style="stop-opacity:1;stop-color:#ffffff" />
    </radialGradient>
    <clipPath
       id="clipPath3314"
       clipPathUnits="userSpaceOnUse">
      <path
         id="path3316"
         d="m 0,0 5.139,0 0,5.139 L 0,5.139 0,0 z"
         inkscape:connector-curvature="0" />
    </clipPath>
    <linearGradient
       id="linearGradient3298"
       gradientUnits="userSpaceOnUse"
       y2="3.9851"
       x2="0"
       y1="0"
       x1="0">
      <stop
         id="stop3300"
         offset="0"
         style="stop-opacity:1;stop-color:#ffffff" />
      <stop
         id="stop3302"
         offset="1"
         style="stop-opacity:1;stop-color:#808080" />
    </linearGradient>
    <clipPath
       id="clipPath3294"
       clipPathUnits="userSpaceOnUse">
      <path
         id="path3296"
         d="m 0,0 362.835,0 0,3.985 L 0,3.985 0,0 z"
         inkscape:connector-curvature="0" />
    </clipPath>
    <linearGradient
       id="linearGradient3274"
       gradientUnits="userSpaceOnUse"
       y2="0"
       x2="362.83939"
       y1="0"
       x1="0">
      <stop
         id="stop3276"
         offset="0"
         style="stop-opacity:1;stop-color:#3333b3" />
      <stop
         id="stop3278"
         offset="1"
         style="stop-opacity:1;stop-color:#000000" />
    </linearGradient>
    <clipPath
       id="clipPath3270"
       clipPathUnits="userSpaceOnUse">
      <path
         id="path3272"
         d="m 0,0 362.835,0 0,272.126 L 0,272.126 0,0 z"
         inkscape:connector-curvature="0" />
    </clipPath>
    <clipPath
       id="clipPath3256"
       clipPathUnits="userSpaceOnUse">
      <path
         id="path3258"
         d="m 0,0 362.8394,0 0,20.52338 L 0,20.52338 0,0 z"
         inkscape:connector-curvature="0" />
    </clipPath>
    <linearGradient
       inkscape:collect="always"
       xlink:href="#linearGradient3274"
       id="linearGradient6070"
       gradientUnits="userSpaceOnUse"
       x1="0"
       y1="0"
       x2="362.83939"
       y2="0" />
    <radialGradient
       inkscape:collect="always"
       xlink:href="#radialGradient3318"
       id="radialGradient6076"
       gradientUnits="userSpaceOnUse"
       cx="2.5697"
       cy="2.5697"
       fx="1.67305"
       fy="3.6656001"
       r="2.5697" />
    <linearGradient
       inkscape:collect="always"
       xlink:href="#linearGradient3298"
       id="linearGradient6364"
       gradientUnits="userSpaceOnUse"
       x1="0"
       y1="0"
       x2="0"
       y2="3.9851"
       gradientTransform="matrix(1.25,0,0,-1.25,148.2281,407.43593)" />
  </defs>
  <sodipodi:namedview
     id="base"
     pagecolor="#ffffff"
     bordercolor="#666666"
     borderopacity="1.0"
     inkscape:pageopacity="0.0"
     inkscape:pageshadow="2"
     inkscape:zoom="0.35"
     inkscape:cx="221.83599"
     inkscape:cy="475.82642"
     inkscape:document-units="px"
     inkscape:current-layer="layer1"
     showgrid="false"
     fit-margin-top="0"
     fit-margin-left="0"
     fit-margin-right="0"
     fit-margin-bottom="0"
     inkscape:window-width="1036"
     inkscape:window-height="681"
     inkscape:window-x="0"
     inkscape:window-y="19"
     inkscape:window-maximized="0" />
  <metadata
     id="metadata7">
    <rdf:RDF>
      <cc:Work
         rdf:about="">
        <dc:format>image/svg+xml</dc:format>
        <dc:type
           rdf:resource="http://purl.org/dc/dcmitype/StillImage" />
        <dc:title></dc:title>
      </cc:Work>
    </rdf:RDF>
  </metadata>
  <g
     inkscape:label="Layer 1"
     inkscape:groupmode="layer"
     id="layer1"
     transform="translate(-153.16401,-860.6715)">
    <g
       transform="matrix(0.758825,0,0,-0.758825,153.16401,1008.1886)"
       id="g3342">
      <g
         id="g3344">
        <g
           id="g3346">
          <g
             clip-path="url(#clipPath3350)"
             id="g3348">
            <g
               id="g3354">
              <g
                 clip-path="url(#clipPath3358)"
                 id="g3356">
                <g
                   transform="translate(545,97.4512)"
                   id="g3362">
                  <path
                     id="path3364"
                     style="fill:#efee0e;fill-opacity:1;fill-rule:nonzero;stroke:none"
                     d="m 0,0 c 0,-38.798 -54.733,-70.25 -122.25,-70.25 -67.517,0 -122.25,31.452 -122.25,70.25 0,38.798 54.733,70.25 122.25,70.25 C -54.733,70.25 0,38.798 0,0"
                     inkscape:connector-curvature="0" />
                </g>
                <g
                   transform="translate(545,97.4512)"
                   id="g3366">
                  <path
                     id="path3368"
                     style="fill:none;stroke:#231f20;stroke-width:1;stroke-linecap:butt;stroke-linejoin:miter;stroke-miterlimit:10;stroke-opacity:1;stroke-dasharray:none"
                     d="m 0,0 c 0,-38.798 -54.733,-70.25 -122.25,-70.25 -67.517,0 -122.25,31.452 -122.25,70.25 0,38.798 54.733,70.25 122.25,70.25 C -54.733,70.25 0,38.798 0,0 z"
                     inkscape:connector-curvature="0" />
                </g>
                <g
                   transform="translate(336,101.9512)"
                   id="g3370">
                  <path
                     id="path3372"
                     style="fill:#ffffff;fill-opacity:1;fill-rule:nonzero;stroke:none"
                     d="m 0,0 c 0,-9.527 -7.723,-17.25 -17.25,-17.25 -9.527,0 -17.25,7.723 -17.25,17.25 0,9.527 7.723,17.25 17.25,17.25 C -7.723,17.25 0,9.527 0,0"
                     inkscape:connector-curvature="0" />
                </g>
                <g
                   transform="translate(336,101.9512)"
                   id="g3374">
                  <path
                     id="path3376"
                     style="fill:none;stroke:#231f20;stroke-width:1;stroke-linecap:butt;stroke-linejoin:miter;stroke-miterlimit:10;stroke-opacity:1;stroke-dasharray:none"
                     d="m 0,0 c 0,-9.527 -7.723,-17.25 -17.25,-17.25 -9.527,0 -17.25,7.723 -17.25,17.25 0,9.527 7.723,17.25 17.25,17.25 C -7.723,17.25 0,9.527 0,0 z"
                     inkscape:connector-curvature="0" />
                </g>
                <g
                   transform="translate(358,128.9512)"
                   id="g3378">
                  <path
                     id="path3380"
                     style="fill:#ffffff;fill-opacity:1;fill-rule:nonzero;stroke:none"
                     d="m 0,0 c 0,-9.527 -7.723,-17.25 -17.25,-17.25 -9.527,0 -17.25,7.723 -17.25,17.25 0,9.527 7.723,17.25 17.25,17.25 C -7.723,17.25 0,9.527 0,0"
                     inkscape:connector-curvature="0" />
                </g>
                <g
                   transform="translate(358,128.9512)"
                   id="g3382">
                  <path
                     id="path3384"
                     style="fill:none;stroke:#231f20;stroke-width:1;stroke-linecap:butt;stroke-linejoin:miter;stroke-miterlimit:10;stroke-opacity:1;stroke-dasharray:none"
                     d="m 0,0 c 0,-9.527 -7.723,-17.25 -17.25,-17.25 -9.527,0 -17.25,7.723 -17.25,17.25 0,9.527 7.723,17.25 17.25,17.25 C -7.723,17.25 0,9.527 0,0 z"
                     inkscape:connector-curvature="0" />
                </g>
                <g
                   transform="translate(351,70.9512)"
                   id="g3386">
                  <path
                     id="path3388"
                     style="fill:#ffffff;fill-opacity:1;fill-rule:nonzero;stroke:none"
                     d="m 0,0 c 0,-9.527 -7.723,-17.25 -17.25,-17.25 -9.527,0 -17.25,7.723 -17.25,17.25 0,9.527 7.723,17.25 17.25,17.25 C -7.723,17.25 0,9.527 0,0"
                     inkscape:connector-curvature="0" />
                </g>
                <g
                   transform="translate(351,70.9512)"
                   id="g3390">
                  <path
                     id="path3392"
                     style="fill:none;stroke:#231f20;stroke-width:1;stroke-linecap:butt;stroke-linejoin:miter;stroke-miterlimit:10;stroke-opacity:1;stroke-dasharray:none"
                     d="m 0,0 c 0,-9.527 -7.723,-17.25 -17.25,-17.25 -9.527,0 -17.25,7.723 -17.25,17.25 0,9.527 7.723,17.25 17.25,17.25 C -7.723,17.25 0,9.527 0,0 z"
                     inkscape:connector-curvature="0" />
                </g>
                <g
                   transform="translate(374,97.9512)"
                   id="g3394">
                  <path
                     id="path3396"
                     style="fill:#ffffff;fill-opacity:1;fill-rule:nonzero;stroke:none"
                     d="m 0,0 c 0,-9.527 -7.723,-17.25 -17.25,-17.25 -9.527,0 -17.25,7.723 -17.25,17.25 0,9.527 7.723,17.25 17.25,17.25 C -7.723,17.25 0,9.527 0,0"
                     inkscape:connector-curvature="0" />
                </g>
                <g
                   transform="translate(374,97.9512)"
                   id="g3398">
                  <path
                     id="path3400"
                     style="fill:none;stroke:#231f20;stroke-width:1;stroke-linecap:butt;stroke-linejoin:miter;stroke-miterlimit:10;stroke-opacity:1;stroke-dasharray:none"
                     d="m 0,0 c 0,-9.527 -7.723,-17.25 -17.25,-17.25 -9.527,0 -17.25,7.723 -17.25,17.25 0,9.527 7.723,17.25 17.25,17.25 C -7.723,17.25 0,9.527 0,0 z"
                     inkscape:connector-curvature="0" />
                </g>
                <g
                   transform="translate(390,142.9512)"
                   id="g3402">
                  <path
                     id="path3404"
                     style="fill:#ffffff;fill-opacity:1;fill-rule:nonzero;stroke:none"
                     d="m 0,0 c 0,-9.527 -7.723,-17.25 -17.25,-17.25 -9.527,0 -17.25,7.723 -17.25,17.25 0,9.527 7.723,17.25 17.25,17.25 C -7.723,17.25 0,9.527 0,0"
                     inkscape:connector-curvature="0" />
                </g>
                <g
                   transform="translate(390,142.9512)"
                   id="g3406">
                  <path
                     id="path3408"
                     style="fill:none;stroke:#231f20;stroke-width:1;stroke-linecap:butt;stroke-linejoin:miter;stroke-miterlimit:10;stroke-opacity:1;stroke-dasharray:none"
                     d="m 0,0 c 0,-9.527 -7.723,-17.25 -17.25,-17.25 -9.527,0 -17.25,7.723 -17.25,17.25 0,9.527 7.723,17.25 17.25,17.25 C -7.723,17.25 0,9.527 0,0 z"
                     inkscape:connector-curvature="0" />
                </g>
                <g
                   transform="translate(424,149.9512)"
                   id="g3410">
                  <path
                     id="path3412"
                     style="fill:#ffffff;fill-opacity:1;fill-rule:nonzero;stroke:none"
                     d="m 0,0 c 0,-9.527 -7.723,-17.25 -17.25,-17.25 -9.527,0 -17.25,7.723 -17.25,17.25 0,9.527 7.723,17.25 17.25,17.25 C -7.723,17.25 0,9.527 0,0"
                     inkscape:connector-curvature="0" />
                </g>
                <g
                   transform="translate(424,149.9512)"
                   id="g3414">
                  <path
                     id="path3416"
                     style="fill:none;stroke:#231f20;stroke-width:1;stroke-linecap:butt;stroke-linejoin:miter;stroke-miterlimit:10;stroke-opacity:1;stroke-dasharray:none"
                     d="m 0,0 c 0,-9.527 -7.723,-17.25 -17.25,-17.25 -9.527,0 -17.25,7.723 -17.25,17.25 0,9.527 7.723,17.25 17.25,17.25 C -7.723,17.25 0,9.527 0,0 z"
                     inkscape:connector-curvature="0" />
                </g>
                <g
                   transform="translate(413,116.9512)"
                   id="g3418">
                  <path
                     id="path3420"
                     style="fill:#ffffff;fill-opacity:1;fill-rule:nonzero;stroke:none"
                     d="m 0,0 c 0,-9.527 -7.723,-17.25 -17.25,-17.25 -9.527,0 -17.25,7.723 -17.25,17.25 0,9.527 7.723,17.25 17.25,17.25 C -7.723,17.25 0,9.527 0,0"
                     inkscape:connector-curvature="0" />
                </g>
                <g
                   transform="translate(413,116.9512)"
                   id="g3422">
                  <path
                     id="path3424"
                     style="fill:none;stroke:#231f20;stroke-width:1;stroke-linecap:butt;stroke-linejoin:miter;stroke-miterlimit:10;stroke-opacity:1;stroke-dasharray:none"
                     d="m 0,0 c 0,-9.527 -7.723,-17.25 -17.25,-17.25 -9.527,0 -17.25,7.723 -17.25,17.25 0,9.527 7.723,17.25 17.25,17.25 C -7.723,17.25 0,9.527 0,0 z"
                     inkscape:connector-curvature="0" />
                </g>
                <g
                   transform="translate(406,82.9512)"
                   id="g3426">
                  <path
                     id="path3428"
                     style="fill:#ffffff;fill-opacity:1;fill-rule:nonzero;stroke:none"
                     d="m 0,0 c 0,-9.527 -7.723,-17.25 -17.25,-17.25 -9.527,0 -17.25,7.723 -17.25,17.25 0,9.527 7.723,17.25 17.25,17.25 C -7.723,17.25 0,9.527 0,0"
                     inkscape:connector-curvature="0" />
                </g>
                <g
                   transform="translate(406,82.9512)"
                   id="g3430">
                  <path
                     id="path3432"
                     style="fill:none;stroke:#231f20;stroke-width:1;stroke-linecap:butt;stroke-linejoin:miter;stroke-miterlimit:10;stroke-opacity:1;stroke-dasharray:none"
                     d="m 0,0 c 0,-9.527 -7.723,-17.25 -17.25,-17.25 -9.527,0 -17.25,7.723 -17.25,17.25 0,9.527 7.723,17.25 17.25,17.25 C -7.723,17.25 0,9.527 0,0 z"
                     inkscape:connector-curvature="0" />
                </g>
                <g
                   transform="translate(383,56.9512)"
                   id="g3434">
                  <path
                     id="path3436"
                     style="fill:#ffffff;fill-opacity:1;fill-rule:nonzero;stroke:none"
                     d="m 0,0 c 0,-9.527 -7.723,-17.25 -17.25,-17.25 -9.527,0 -17.25,7.723 -17.25,17.25 0,9.527 7.723,17.25 17.25,17.25 C -7.723,17.25 0,9.527 0,0"
                     inkscape:connector-curvature="0" />
                </g>
                <g
                   transform="translate(383,56.9512)"
                   id="g3438">
                  <path
                     id="path3440"
                     style="fill:none;stroke:#231f20;stroke-width:1;stroke-linecap:butt;stroke-linejoin:miter;stroke-miterlimit:10;stroke-opacity:1;stroke-dasharray:none"
                     d="m 0,0 c 0,-9.527 -7.723,-17.25 -17.25,-17.25 -9.527,0 -17.25,7.723 -17.25,17.25 0,9.527 7.723,17.25 17.25,17.25 C -7.723,17.25 0,9.527 0,0 z"
                     inkscape:connector-curvature="0" />
                </g>
                <g
                   transform="translate(417,49.9512)"
                   id="g3442">
                  <path
                     id="path3444"
                     style="fill:#ffffff;fill-opacity:1;fill-rule:nonzero;stroke:none"
                     d="m 0,0 c 0,-9.527 -7.723,-17.25 -17.25,-17.25 -9.527,0 -17.25,7.723 -17.25,17.25 0,9.527 7.723,17.25 17.25,17.25 C -7.723,17.25 0,9.527 0,0"
                     inkscape:connector-curvature="0" />
                </g>
                <g
                   transform="translate(417,49.9512)"
                   id="g3446">
                  <path
                     id="path3448"
                     style="fill:none;stroke:#231f20;stroke-width:1;stroke-linecap:butt;stroke-linejoin:miter;stroke-miterlimit:10;stroke-opacity:1;stroke-dasharray:none"
                     d="m 0,0 c 0,-9.527 -7.723,-17.25 -17.25,-17.25 -9.527,0 -17.25,7.723 -17.25,17.25 0,9.527 7.723,17.25 17.25,17.25 C -7.723,17.25 0,9.527 0,0 z"
                     inkscape:connector-curvature="0" />
                </g>
                <g
                   transform="translate(440,75.9512)"
                   id="g3450">
                  <path
                     id="path3452"
                     style="fill:#ffffff;fill-opacity:1;fill-rule:nonzero;stroke:none"
                     d="m 0,0 c 0,-9.527 -7.723,-17.25 -17.25,-17.25 -9.527,0 -17.25,7.723 -17.25,17.25 0,9.527 7.723,17.25 17.25,17.25 C -7.723,17.25 0,9.527 0,0"
                     inkscape:connector-curvature="0" />
                </g>
                <g
                   transform="translate(440,75.9512)"
                   id="g3454">
                  <path
                     id="path3456"
                     style="fill:none;stroke:#231f20;stroke-width:1;stroke-linecap:butt;stroke-linejoin:miter;stroke-miterlimit:10;stroke-opacity:1;stroke-dasharray:none"
                     d="m 0,0 c 0,-9.527 -7.723,-17.25 -17.25,-17.25 -9.527,0 -17.25,7.723 -17.25,17.25 0,9.527 7.723,17.25 17.25,17.25 C -7.723,17.25 0,9.527 0,0 z"
                     inkscape:connector-curvature="0" />
                </g>
                <g
                   transform="translate(447,109.9512)"
                   id="g3458">
                  <path
                     id="path3460"
                     style="fill:#ffffff;fill-opacity:1;fill-rule:nonzero;stroke:none"
                     d="m 0,0 c 0,-9.527 -7.723,-17.25 -17.25,-17.25 -9.527,0 -17.25,7.723 -17.25,17.25 0,9.527 7.723,17.25 17.25,17.25 C -7.723,17.25 0,9.527 0,0"
                     inkscape:connector-curvature="0" />
                </g>
                <g
                   transform="translate(447,109.9512)"
                   id="g3462">
                  <path
                     id="path3464"
                     style="fill:none;stroke:#231f20;stroke-width:1;stroke-linecap:butt;stroke-linejoin:miter;stroke-miterlimit:10;stroke-opacity:1;stroke-dasharray:none"
                     d="m 0,0 c 0,-9.527 -7.723,-17.25 -17.25,-17.25 -9.527,0 -17.25,7.723 -17.25,17.25 0,9.527 7.723,17.25 17.25,17.25 C -7.723,17.25 0,9.527 0,0 z"
                     inkscape:connector-curvature="0" />
                </g>
                <g
                   transform="translate(458,142.9512)"
                   id="g3466">
                  <path
                     id="path3468"
                     style="fill:#ffffff;fill-opacity:1;fill-rule:nonzero;stroke:none"
                     d="m 0,0 c 0,-9.527 -7.723,-17.25 -17.25,-17.25 -9.527,0 -17.25,7.723 -17.25,17.25 0,9.527 7.723,17.25 17.25,17.25 C -7.723,17.25 0,9.527 0,0"
                     inkscape:connector-curvature="0" />
                </g>
                <g
                   transform="translate(458,142.9512)"
                   id="g3470">
                  <path
                     id="path3472"
                     style="fill:none;stroke:#231f20;stroke-width:1;stroke-linecap:butt;stroke-linejoin:miter;stroke-miterlimit:10;stroke-opacity:1;stroke-dasharray:none"
                     d="m 0,0 c 0,-9.527 -7.723,-17.25 -17.25,-17.25 -9.527,0 -17.25,7.723 -17.25,17.25 0,9.527 7.723,17.25 17.25,17.25 C -7.723,17.25 0,9.527 0,0 z"
                     inkscape:connector-curvature="0" />
                </g>
                <g
                   transform="translate(493,142.9512)"
                   id="g3474">
                  <path
                     id="path3476"
                     style="fill:#ffffff;fill-opacity:1;fill-rule:nonzero;stroke:none"
                     d="m 0,0 c 0,-9.527 -7.723,-17.25 -17.25,-17.25 -9.527,0 -17.25,7.723 -17.25,17.25 0,9.527 7.723,17.25 17.25,17.25 C -7.723,17.25 0,9.527 0,0"
                     inkscape:connector-curvature="0" />
                </g>
                <g
                   transform="translate(493,142.9512)"
                   id="g3478">
                  <path
                     id="path3480"
                     style="fill:none;stroke:#231f20;stroke-width:1;stroke-linecap:butt;stroke-linejoin:miter;stroke-miterlimit:10;stroke-opacity:1;stroke-dasharray:none"
                     d="m 0,0 c 0,-9.527 -7.723,-17.25 -17.25,-17.25 -9.527,0 -17.25,7.723 -17.25,17.25 0,9.527 7.723,17.25 17.25,17.25 C -7.723,17.25 0,9.527 0,0 z"
                     inkscape:connector-curvature="0" />
                </g>
                <g
                   transform="translate(482,109.9512)"
                   id="g3482">
                  <path
                     id="path3484"
                     style="fill:#ffffff;fill-opacity:1;fill-rule:nonzero;stroke:none"
                     d="m 0,0 c 0,-9.527 -7.723,-17.25 -17.25,-17.25 -9.527,0 -17.25,7.723 -17.25,17.25 0,9.527 7.723,17.25 17.25,17.25 C -7.723,17.25 0,9.527 0,0"
                     inkscape:connector-curvature="0" />
                </g>
                <g
                   transform="translate(482,109.9512)"
                   id="g3486">
                  <path
                     id="path3488"
                     style="fill:none;stroke:#231f20;stroke-width:1;stroke-linecap:butt;stroke-linejoin:miter;stroke-miterlimit:10;stroke-opacity:1;stroke-dasharray:none"
                     d="m 0,0 c 0,-9.527 -7.723,-17.25 -17.25,-17.25 -9.527,0 -17.25,7.723 -17.25,17.25 0,9.527 7.723,17.25 17.25,17.25 C -7.723,17.25 0,9.527 0,0 z"
                     inkscape:connector-curvature="0" />
                </g>
                <g
                   transform="translate(475,75.9512)"
                   id="g3490">
                  <path
                     id="path3492"
                     style="fill:#ffffff;fill-opacity:1;fill-rule:nonzero;stroke:none"
                     d="m 0,0 c 0,-9.527 -7.723,-17.25 -17.25,-17.25 -9.527,0 -17.25,7.723 -17.25,17.25 0,9.527 7.723,17.25 17.25,17.25 C -7.723,17.25 0,9.527 0,0"
                     inkscape:connector-curvature="0" />
                </g>
                <g
                   transform="translate(475,75.9512)"
                   id="g3494">
                  <path
                     id="path3496"
                     style="fill:none;stroke:#231f20;stroke-width:1;stroke-linecap:butt;stroke-linejoin:miter;stroke-miterlimit:10;stroke-opacity:1;stroke-dasharray:none"
                     d="m 0,0 c 0,-9.527 -7.723,-17.25 -17.25,-17.25 -9.527,0 -17.25,7.723 -17.25,17.25 0,9.527 7.723,17.25 17.25,17.25 C -7.723,17.25 0,9.527 0,0 z"
                     inkscape:connector-curvature="0" />
                </g>
                <g
                   transform="translate(458,45.9512)"
                   id="g3498">
                  <path
                     id="path3500"
                     style="fill:#ffffff;fill-opacity:1;fill-rule:nonzero;stroke:none"
                     d="m 0,0 c 0,-9.527 -7.723,-17.25 -17.25,-17.25 -9.527,0 -17.25,7.723 -17.25,17.25 0,9.527 7.723,17.25 17.25,17.25 C -7.723,17.25 0,9.527 0,0"
                     inkscape:connector-curvature="0" />
                </g>
                <g
                   transform="translate(458,45.9512)"
                   id="g3502">
                  <path
                     id="path3504"
                     style="fill:none;stroke:#231f20;stroke-width:1;stroke-linecap:butt;stroke-linejoin:miter;stroke-miterlimit:10;stroke-opacity:1;stroke-dasharray:none"
                     d="m 0,0 c 0,-9.527 -7.723,-17.25 -17.25,-17.25 -9.527,0 -17.25,7.723 -17.25,17.25 0,9.527 7.723,17.25 17.25,17.25 C -7.723,17.25 0,9.527 0,0 z"
                     inkscape:connector-curvature="0" />
                </g>
                <g
                   transform="translate(504,56.9512)"
                   id="g3506">
                  <path
                     id="path3508"
                     style="fill:#ffffff;fill-opacity:1;fill-rule:nonzero;stroke:none"
                     d="m 0,0 c 0,-9.527 -7.723,-17.25 -17.25,-17.25 -9.527,0 -17.25,7.723 -17.25,17.25 0,9.527 7.723,17.25 17.25,17.25 C -7.723,17.25 0,9.527 0,0"
                     inkscape:connector-curvature="0" />
                </g>
                <g
                   transform="translate(504,56.9512)"
                   id="g3510">
                  <path
                     id="path3512"
                     style="fill:none;stroke:#231f20;stroke-width:1;stroke-linecap:butt;stroke-linejoin:miter;stroke-miterlimit:10;stroke-opacity:1;stroke-dasharray:none"
                     d="m 0,0 c 0,-9.527 -7.723,-17.25 -17.25,-17.25 -9.527,0 -17.25,7.723 -17.25,17.25 0,9.527 7.723,17.25 17.25,17.25 C -7.723,17.25 0,9.527 0,0 z"
                     inkscape:connector-curvature="0" />
                </g>
                <g
                   transform="translate(511,90.9512)"
                   id="g3514">
                  <path
                     id="path3516"
                     style="fill:#ffffff;fill-opacity:1;fill-rule:nonzero;stroke:none"
                     d="m 0,0 c 0,-9.527 -7.723,-17.25 -17.25,-17.25 -9.527,0 -17.25,7.723 -17.25,17.25 0,9.527 7.723,17.25 17.25,17.25 C -7.723,17.25 0,9.527 0,0"
                     inkscape:connector-curvature="0" />
                </g>
                <g
                   transform="translate(511,90.9512)"
                   id="g3518">
                  <path
                     id="path3520"
                     style="fill:none;stroke:#231f20;stroke-width:1;stroke-linecap:butt;stroke-linejoin:miter;stroke-miterlimit:10;stroke-opacity:1;stroke-dasharray:none"
                     d="m 0,0 c 0,-9.527 -7.723,-17.25 -17.25,-17.25 -9.527,0 -17.25,7.723 -17.25,17.25 0,9.527 7.723,17.25 17.25,17.25 C -7.723,17.25 0,9.527 0,0 z"
                     inkscape:connector-curvature="0" />
                </g>
                <g
                   transform="translate(522,123.9512)"
                   id="g3522">
                  <path
                     id="path3524"
                     style="fill:#ffffff;fill-opacity:1;fill-rule:nonzero;stroke:none"
                     d="m 0,0 c 0,-9.527 -7.723,-17.25 -17.25,-17.25 -9.527,0 -17.25,7.723 -17.25,17.25 0,9.527 7.723,17.25 17.25,17.25 C -7.723,17.25 0,9.527 0,0"
                     inkscape:connector-curvature="0" />
                </g>
                <g
                   transform="translate(522,123.9512)"
                   id="g3526">
                  <path
                     id="path3528"
                     style="fill:none;stroke:#231f20;stroke-width:1;stroke-linecap:butt;stroke-linejoin:miter;stroke-miterlimit:10;stroke-opacity:1;stroke-dasharray:none"
                     d="m 0,0 c 0,-9.527 -7.723,-17.25 -17.25,-17.25 -9.527,0 -17.25,7.723 -17.25,17.25 0,9.527 7.723,17.25 17.25,17.25 C -7.723,17.25 0,9.527 0,0 z"
                     inkscape:connector-curvature="0" />
                </g>
                <g
                   transform="translate(545,93.9512)"
                   id="g3530">
                  <path
                     id="path3532"
                     style="fill:#ffffff;fill-opacity:1;fill-rule:nonzero;stroke:none"
                     d="m 0,0 c 0,-9.527 -7.723,-17.25 -17.25,-17.25 -9.527,0 -17.25,7.723 -17.25,17.25 0,9.527 7.723,17.25 17.25,17.25 C -7.723,17.25 0,9.527 0,0"
                     inkscape:connector-curvature="0" />
                </g>
                <g
                   transform="translate(545,93.9512)"
                   id="g3534">
                  <path
                     id="path3536"
                     style="fill:none;stroke:#231f20;stroke-width:1;stroke-linecap:butt;stroke-linejoin:miter;stroke-miterlimit:10;stroke-opacity:1;stroke-dasharray:none"
                     d="m 0,0 c 0,-9.527 -7.723,-17.25 -17.25,-17.25 -9.527,0 -17.25,7.723 -17.25,17.25 0,9.527 7.723,17.25 17.25,17.25 C -7.723,17.25 0,9.527 0,0 z"
                     inkscape:connector-curvature="0" />
                </g>
                <g
                   transform="translate(245,97.4512)"
                   id="g3538">
                  <path
                     id="path3540"
                     style="fill:#efee0e;fill-opacity:1;fill-rule:nonzero;stroke:none"
                     d="m 0,0 c 0,-38.798 -54.733,-70.25 -122.25,-70.25 -67.517,0 -122.25,31.452 -122.25,70.25 0,38.798 54.733,70.25 122.25,70.25 C -54.733,70.25 0,38.798 0,0"
                     inkscape:connector-curvature="0" />
                </g>
                <g
                   transform="translate(245,97.4512)"
                   id="g3542">
                  <path
                     id="path3544"
                     style="fill:none;stroke:#231f20;stroke-width:1;stroke-linecap:butt;stroke-linejoin:miter;stroke-miterlimit:10;stroke-opacity:1;stroke-dasharray:none"
                     d="m 0,0 c 0,-38.798 -54.733,-70.25 -122.25,-70.25 -67.517,0 -122.25,31.452 -122.25,70.25 0,38.798 54.733,70.25 122.25,70.25 C -54.733,70.25 0,38.798 0,0 z"
                     inkscape:connector-curvature="0" />
                </g>
                <g
                   transform="translate(21.3374,101.9512)"
                   id="g3546">
                  <path
                     id="path3548"
                     style="fill:#231f20;fill-opacity:1;fill-rule:nonzero;stroke:none"
                     d="m 0,0 c 0,-1.429 -1.158,-2.588 -2.587,-2.588 -1.43,0 -2.588,1.159 -2.588,2.588 0,1.429 1.158,2.588 2.588,2.588 C -1.158,2.588 0,1.429 0,0"
                     inkscape:connector-curvature="0" />
                </g>
                <g
                   transform="translate(21.3374,101.9512)"
                   id="g3550">
                  <path
                     id="path3552"
                     style="fill:none;stroke:#ffffff;stroke-width:0.15000001;stroke-linecap:butt;stroke-linejoin:miter;stroke-miterlimit:10;stroke-opacity:1;stroke-dasharray:none"
                     d="m 0,0 c 0,-1.429 -1.158,-2.588 -2.587,-2.588 -1.43,0 -2.588,1.159 -2.588,2.588 0,1.429 1.158,2.588 2.588,2.588 C -1.158,2.588 0,1.429 0,0 z"
                     inkscape:connector-curvature="0" />
                </g>
                <g
                   transform="translate(43.3379,128.9512)"
                   id="g3554">
                  <path
                     id="path3556"
                     style="fill:#231f20;fill-opacity:1;fill-rule:nonzero;stroke:none"
                     d="m 0,0 c 0,-1.429 -1.159,-2.588 -2.588,-2.588 -1.429,0 -2.588,1.159 -2.588,2.588 0,1.429 1.159,2.588 2.588,2.588 C -1.159,2.588 0,1.429 0,0"
                     inkscape:connector-curvature="0" />
                </g>
                <g
                   transform="translate(43.3379,128.9512)"
                   id="g3558">
                  <path
                     id="path3560"
                     style="fill:none;stroke:#ffffff;stroke-width:0.15000001;stroke-linecap:butt;stroke-linejoin:miter;stroke-miterlimit:10;stroke-opacity:1;stroke-dasharray:none"
                     d="m 0,0 c 0,-1.429 -1.159,-2.588 -2.588,-2.588 -1.429,0 -2.588,1.159 -2.588,2.588 0,1.429 1.159,2.588 2.588,2.588 C -1.159,2.588 0,1.429 0,0 z"
                     inkscape:connector-curvature="0" />
                </g>
                <g
                   transform="translate(36.3379,70.9512)"
                   id="g3562">
                  <path
                     id="path3564"
                     style="fill:#231f20;fill-opacity:1;fill-rule:nonzero;stroke:none"
                     d="m 0,0 c 0,-1.429 -1.159,-2.588 -2.588,-2.588 -1.429,0 -2.587,1.159 -2.587,2.588 0,1.429 1.158,2.588 2.587,2.588 C -1.159,2.588 0,1.429 0,0"
                     inkscape:connector-curvature="0" />
                </g>
                <g
                   transform="translate(36.3379,70.9512)"
                   id="g3566">
                  <path
                     id="path3568"
                     style="fill:none;stroke:#ffffff;stroke-width:0.15000001;stroke-linecap:butt;stroke-linejoin:miter;stroke-miterlimit:10;stroke-opacity:1;stroke-dasharray:none"
                     d="m 0,0 c 0,-1.429 -1.159,-2.588 -2.588,-2.588 -1.429,0 -2.587,1.159 -2.587,2.588 0,1.429 1.158,2.588 2.587,2.588 C -1.159,2.588 0,1.429 0,0 z"
                     inkscape:connector-curvature="0" />
                </g>
                <g
                   transform="translate(59.3379,97.9512)"
                   id="g3570">
                  <path
                     id="path3572"
                     style="fill:#231f20;fill-opacity:1;fill-rule:nonzero;stroke:none"
                     d="m 0,0 c 0,-1.43 -1.159,-2.588 -2.588,-2.588 -1.429,0 -2.588,1.158 -2.588,2.588 0,1.429 1.159,2.588 2.588,2.588 C -1.159,2.588 0,1.429 0,0"
                     inkscape:connector-curvature="0" />
                </g>
                <g
                   transform="translate(59.3379,97.9512)"
                   id="g3574">
                  <path
                     id="path3576"
                     style="fill:none;stroke:#ffffff;stroke-width:0.15000001;stroke-linecap:butt;stroke-linejoin:miter;stroke-miterlimit:10;stroke-opacity:1;stroke-dasharray:none"
                     d="m 0,0 c 0,-1.43 -1.159,-2.588 -2.588,-2.588 -1.429,0 -2.588,1.158 -2.588,2.588 0,1.429 1.159,2.588 2.588,2.588 C -1.159,2.588 0,1.429 0,0 z"
                     inkscape:connector-curvature="0" />
                </g>
                <g
                   transform="translate(75.3379,142.9512)"
                   id="g3578">
                  <path
                     id="path3580"
                     style="fill:#231f20;fill-opacity:1;fill-rule:nonzero;stroke:none"
                     d="m 0,0 c 0,-1.43 -1.159,-2.588 -2.588,-2.588 -1.429,0 -2.588,1.158 -2.588,2.588 0,1.429 1.159,2.588 2.588,2.588 C -1.159,2.588 0,1.429 0,0"
                     inkscape:connector-curvature="0" />
                </g>
                <g
                   transform="translate(75.3379,142.9512)"
                   id="g3582">
                  <path
                     id="path3584"
                     style="fill:none;stroke:#ffffff;stroke-width:0.15000001;stroke-linecap:butt;stroke-linejoin:miter;stroke-miterlimit:10;stroke-opacity:1;stroke-dasharray:none"
                     d="m 0,0 c 0,-1.43 -1.159,-2.588 -2.588,-2.588 -1.429,0 -2.588,1.158 -2.588,2.588 0,1.429 1.159,2.588 2.588,2.588 C -1.159,2.588 0,1.429 0,0 z"
                     inkscape:connector-curvature="0" />
                </g>
                <g
                   transform="translate(109.3379,149.9512)"
                   id="g3586">
                  <path
                     id="path3588"
                     style="fill:#231f20;fill-opacity:1;fill-rule:nonzero;stroke:none"
                     d="m 0,0 c 0,-1.429 -1.159,-2.588 -2.588,-2.588 -1.429,0 -2.588,1.159 -2.588,2.588 0,1.429 1.159,2.588 2.588,2.588 C -1.159,2.588 0,1.429 0,0"
                     inkscape:connector-curvature="0" />
                </g>
                <g
                   transform="translate(109.3379,149.9512)"
                   id="g3590">
                  <path
                     id="path3592"
                     style="fill:none;stroke:#ffffff;stroke-width:0.15000001;stroke-linecap:butt;stroke-linejoin:miter;stroke-miterlimit:10;stroke-opacity:1;stroke-dasharray:none"
                     d="m 0,0 c 0,-1.429 -1.159,-2.588 -2.588,-2.588 -1.429,0 -2.588,1.159 -2.588,2.588 0,1.429 1.159,2.588 2.588,2.588 C -1.159,2.588 0,1.429 0,0 z"
                     inkscape:connector-curvature="0" />
                </g>
                <g
                   transform="translate(98.3379,116.9512)"
                   id="g3594">
                  <path
                     id="path3596"
                     style="fill:#231f20;fill-opacity:1;fill-rule:nonzero;stroke:none"
                     d="m 0,0 c 0,-1.429 -1.159,-2.588 -2.588,-2.588 -1.429,0 -2.588,1.159 -2.588,2.588 0,1.429 1.159,2.588 2.588,2.588 C -1.159,2.588 0,1.429 0,0"
                     inkscape:connector-curvature="0" />
                </g>
                <g
                   transform="translate(98.3379,116.9512)"
                   id="g3598">
                  <path
                     id="path3600"
                     style="fill:none;stroke:#ffffff;stroke-width:0.15000001;stroke-linecap:butt;stroke-linejoin:miter;stroke-miterlimit:10;stroke-opacity:1;stroke-dasharray:none"
                     d="m 0,0 c 0,-1.429 -1.159,-2.588 -2.588,-2.588 -1.429,0 -2.588,1.159 -2.588,2.588 0,1.429 1.159,2.588 2.588,2.588 C -1.159,2.588 0,1.429 0,0 z"
                     inkscape:connector-curvature="0" />
                </g>
                <g
                   transform="translate(91.3379,82.9512)"
                   id="g3602">
                  <path
                     id="path3604"
                     style="fill:#231f20;fill-opacity:1;fill-rule:nonzero;stroke:none"
                     d="m 0,0 c 0,-1.43 -1.159,-2.588 -2.588,-2.588 -1.429,0 -2.588,1.158 -2.588,2.588 0,1.429 1.159,2.588 2.588,2.588 C -1.159,2.588 0,1.429 0,0"
                     inkscape:connector-curvature="0" />
                </g>
                <g
                   transform="translate(91.3379,82.9512)"
                   id="g3606">
                  <path
                     id="path3608"
                     style="fill:none;stroke:#ffffff;stroke-width:0.15000001;stroke-linecap:butt;stroke-linejoin:miter;stroke-miterlimit:10;stroke-opacity:1;stroke-dasharray:none"
                     d="m 0,0 c 0,-1.43 -1.159,-2.588 -2.588,-2.588 -1.429,0 -2.588,1.158 -2.588,2.588 0,1.429 1.159,2.588 2.588,2.588 C -1.159,2.588 0,1.429 0,0 z"
                     inkscape:connector-curvature="0" />
                </g>
                <g
                   transform="translate(68.3379,56.9512)"
                   id="g3610">
                  <path
                     id="path3612"
                     style="fill:#231f20;fill-opacity:1;fill-rule:nonzero;stroke:none"
                     d="m 0,0 c 0,-1.429 -1.159,-2.588 -2.588,-2.588 -1.429,0 -2.588,1.159 -2.588,2.588 0,1.429 1.159,2.588 2.588,2.588 C -1.159,2.588 0,1.429 0,0"
                     inkscape:connector-curvature="0" />
                </g>
                <g
                   transform="translate(68.3379,56.9512)"
                   id="g3614">
                  <path
                     id="path3616"
                     style="fill:none;stroke:#ffffff;stroke-width:0.15000001;stroke-linecap:butt;stroke-linejoin:miter;stroke-miterlimit:10;stroke-opacity:1;stroke-dasharray:none"
                     d="m 0,0 c 0,-1.429 -1.159,-2.588 -2.588,-2.588 -1.429,0 -2.588,1.159 -2.588,2.588 0,1.429 1.159,2.588 2.588,2.588 C -1.159,2.588 0,1.429 0,0 z"
                     inkscape:connector-curvature="0" />
                </g>
                <g
                   transform="translate(102.3379,49.9512)"
                   id="g3618">
                  <path
                     id="path3620"
                     style="fill:#231f20;fill-opacity:1;fill-rule:nonzero;stroke:none"
                     d="m 0,0 c 0,-1.429 -1.159,-2.588 -2.588,-2.588 -1.429,0 -2.588,1.159 -2.588,2.588 0,1.429 1.159,2.588 2.588,2.588 C -1.159,2.588 0,1.429 0,0"
                     inkscape:connector-curvature="0" />
                </g>
                <g
                   transform="translate(102.3379,49.9512)"
                   id="g3622">
                  <path
                     id="path3624"
                     style="fill:none;stroke:#ffffff;stroke-width:0.15000001;stroke-linecap:butt;stroke-linejoin:miter;stroke-miterlimit:10;stroke-opacity:1;stroke-dasharray:none"
                     d="m 0,0 c 0,-1.429 -1.159,-2.588 -2.588,-2.588 -1.429,0 -2.588,1.159 -2.588,2.588 0,1.429 1.159,2.588 2.588,2.588 C -1.159,2.588 0,1.429 0,0 z"
                     inkscape:connector-curvature="0" />
                </g>
                <g
                   transform="translate(125.3379,75.9512)"
                   id="g3626">
                  <path
                     id="path3628"
                     style="fill:#231f20;fill-opacity:1;fill-rule:nonzero;stroke:none"
                     d="m 0,0 c 0,-1.429 -1.159,-2.588 -2.588,-2.588 -1.429,0 -2.588,1.159 -2.588,2.588 0,1.429 1.159,2.588 2.588,2.588 C -1.159,2.588 0,1.429 0,0"
                     inkscape:connector-curvature="0" />
                </g>
                <g
                   transform="translate(125.3379,75.9512)"
                   id="g3630">
                  <path
                     id="path3632"
                     style="fill:none;stroke:#ffffff;stroke-width:0.15000001;stroke-linecap:butt;stroke-linejoin:miter;stroke-miterlimit:10;stroke-opacity:1;stroke-dasharray:none"
                     d="m 0,0 c 0,-1.429 -1.159,-2.588 -2.588,-2.588 -1.429,0 -2.588,1.159 -2.588,2.588 0,1.429 1.159,2.588 2.588,2.588 C -1.159,2.588 0,1.429 0,0 z"
                     inkscape:connector-curvature="0" />
                </g>
                <g
                   transform="translate(132.3379,109.9512)"
                   id="g3634">
                  <path
                     id="path3636"
                     style="fill:#231f20;fill-opacity:1;fill-rule:nonzero;stroke:none"
                     d="m 0,0 c 0,-1.429 -1.159,-2.588 -2.588,-2.588 -1.429,0 -2.588,1.159 -2.588,2.588 0,1.429 1.159,2.588 2.588,2.588 C -1.159,2.588 0,1.429 0,0"
                     inkscape:connector-curvature="0" />
                </g>
                <g
                   transform="translate(132.3379,109.9512)"
                   id="g3638">
                  <path
                     id="path3640"
                     style="fill:none;stroke:#ffffff;stroke-width:0.15000001;stroke-linecap:butt;stroke-linejoin:miter;stroke-miterlimit:10;stroke-opacity:1;stroke-dasharray:none"
                     d="m 0,0 c 0,-1.429 -1.159,-2.588 -2.588,-2.588 -1.429,0 -2.588,1.159 -2.588,2.588 0,1.429 1.159,2.588 2.588,2.588 C -1.159,2.588 0,1.429 0,0 z"
                     inkscape:connector-curvature="0" />
                </g>
                <g
                   transform="translate(143.3379,142.9512)"
                   id="g3642">
                  <path
                     id="path3644"
                     style="fill:#231f20;fill-opacity:1;fill-rule:nonzero;stroke:none"
                     d="m 0,0 c 0,-1.43 -1.159,-2.588 -2.588,-2.588 -1.429,0 -2.588,1.158 -2.588,2.588 0,1.429 1.159,2.588 2.588,2.588 C -1.159,2.588 0,1.429 0,0"
                     inkscape:connector-curvature="0" />
                </g>
                <g
                   transform="translate(143.3379,142.9512)"
                   id="g3646">
                  <path
                     id="path3648"
                     style="fill:none;stroke:#ffffff;stroke-width:0.15000001;stroke-linecap:butt;stroke-linejoin:miter;stroke-miterlimit:10;stroke-opacity:1;stroke-dasharray:none"
                     d="m 0,0 c 0,-1.43 -1.159,-2.588 -2.588,-2.588 -1.429,0 -2.588,1.158 -2.588,2.588 0,1.429 1.159,2.588 2.588,2.588 C -1.159,2.588 0,1.429 0,0 z"
                     inkscape:connector-curvature="0" />
                </g>
                <g
                   transform="translate(178.3379,142.9512)"
                   id="g3650">
                  <path
                     id="path3652"
                     style="fill:#231f20;fill-opacity:1;fill-rule:nonzero;stroke:none"
                     d="m 0,0 c 0,-1.43 -1.159,-2.588 -2.588,-2.588 -1.429,0 -2.588,1.158 -2.588,2.588 0,1.429 1.159,2.588 2.588,2.588 C -1.159,2.588 0,1.429 0,0"
                     inkscape:connector-curvature="0" />
                </g>
                <g
                   transform="translate(178.3379,142.9512)"
                   id="g3654">
                  <path
                     id="path3656"
                     style="fill:none;stroke:#ffffff;stroke-width:0.15000001;stroke-linecap:butt;stroke-linejoin:miter;stroke-miterlimit:10;stroke-opacity:1;stroke-dasharray:none"
                     d="m 0,0 c 0,-1.43 -1.159,-2.588 -2.588,-2.588 -1.429,0 -2.588,1.158 -2.588,2.588 0,1.429 1.159,2.588 2.588,2.588 C -1.159,2.588 0,1.429 0,0 z"
                     inkscape:connector-curvature="0" />
                </g>
                <g
                   transform="translate(167.3379,109.9512)"
                   id="g3658">
                  <path
                     id="path3660"
                     style="fill:#231f20;fill-opacity:1;fill-rule:nonzero;stroke:none"
                     d="m 0,0 c 0,-1.429 -1.159,-2.588 -2.588,-2.588 -1.429,0 -2.588,1.159 -2.588,2.588 0,1.429 1.159,2.588 2.588,2.588 C -1.159,2.588 0,1.429 0,0"
                     inkscape:connector-curvature="0" />
                </g>
                <g
                   transform="translate(167.3379,109.9512)"
                   id="g3662">
                  <path
                     id="path3664"
                     style="fill:none;stroke:#ffffff;stroke-width:0.15000001;stroke-linecap:butt;stroke-linejoin:miter;stroke-miterlimit:10;stroke-opacity:1;stroke-dasharray:none"
                     d="m 0,0 c 0,-1.429 -1.159,-2.588 -2.588,-2.588 -1.429,0 -2.588,1.159 -2.588,2.588 0,1.429 1.159,2.588 2.588,2.588 C -1.159,2.588 0,1.429 0,0 z"
                     inkscape:connector-curvature="0" />
                </g>
                <g
                   transform="translate(160.3379,75.9512)"
                   id="g3666">
                  <path
                     id="path3668"
                     style="fill:#231f20;fill-opacity:1;fill-rule:nonzero;stroke:none"
                     d="m 0,0 c 0,-1.429 -1.159,-2.588 -2.588,-2.588 -1.429,0 -2.588,1.159 -2.588,2.588 0,1.429 1.159,2.588 2.588,2.588 C -1.159,2.588 0,1.429 0,0"
                     inkscape:connector-curvature="0" />
                </g>
                <g
                   transform="translate(160.3379,75.9512)"
                   id="g3670">
                  <path
                     id="path3672"
                     style="fill:none;stroke:#ffffff;stroke-width:0.15000001;stroke-linecap:butt;stroke-linejoin:miter;stroke-miterlimit:10;stroke-opacity:1;stroke-dasharray:none"
                     d="m 0,0 c 0,-1.429 -1.159,-2.588 -2.588,-2.588 -1.429,0 -2.588,1.159 -2.588,2.588 0,1.429 1.159,2.588 2.588,2.588 C -1.159,2.588 0,1.429 0,0 z"
                     inkscape:connector-curvature="0" />
                </g>
                <g
                   transform="translate(143.3379,45.9512)"
                   id="g3674">
                  <path
                     id="path3676"
                     style="fill:#231f20;fill-opacity:1;fill-rule:nonzero;stroke:none"
                     d="m 0,0 c 0,-1.429 -1.159,-2.588 -2.588,-2.588 -1.429,0 -2.588,1.159 -2.588,2.588 0,1.429 1.159,2.588 2.588,2.588 C -1.159,2.588 0,1.429 0,0"
                     inkscape:connector-curvature="0" />
                </g>
                <g
                   transform="translate(143.3379,45.9512)"
                   id="g3678">
                  <path
                     id="path3680"
                     style="fill:none;stroke:#ffffff;stroke-width:0.15000001;stroke-linecap:butt;stroke-linejoin:miter;stroke-miterlimit:10;stroke-opacity:1;stroke-dasharray:none"
                     d="m 0,0 c 0,-1.429 -1.159,-2.588 -2.588,-2.588 -1.429,0 -2.588,1.159 -2.588,2.588 0,1.429 1.159,2.588 2.588,2.588 C -1.159,2.588 0,1.429 0,0 z"
                     inkscape:connector-curvature="0" />
                </g>
                <g
                   transform="translate(189.3379,56.9512)"
                   id="g3682">
                  <path
                     id="path3684"
                     style="fill:#231f20;fill-opacity:1;fill-rule:nonzero;stroke:none"
                     d="m 0,0 c 0,-1.429 -1.159,-2.588 -2.588,-2.588 -1.429,0 -2.588,1.159 -2.588,2.588 0,1.429 1.159,2.588 2.588,2.588 C -1.159,2.588 0,1.429 0,0"
                     inkscape:connector-curvature="0" />
                </g>
                <g
                   transform="translate(189.3379,56.9512)"
                   id="g3686">
                  <path
                     id="path3688"
                     style="fill:none;stroke:#ffffff;stroke-width:0.15000001;stroke-linecap:butt;stroke-linejoin:miter;stroke-miterlimit:10;stroke-opacity:1;stroke-dasharray:none"
                     d="m 0,0 c 0,-1.429 -1.159,-2.588 -2.588,-2.588 -1.429,0 -2.588,1.159 -2.588,2.588 0,1.429 1.159,2.588 2.588,2.588 C -1.159,2.588 0,1.429 0,0 z"
                     inkscape:connector-curvature="0" />
                </g>
                <g
                   transform="translate(196.3379,90.9512)"
                   id="g3690">
                  <path
                     id="path3692"
                     style="fill:#231f20;fill-opacity:1;fill-rule:nonzero;stroke:none"
                     d="m 0,0 c 0,-1.429 -1.159,-2.588 -2.588,-2.588 -1.429,0 -2.588,1.159 -2.588,2.588 0,1.429 1.159,2.588 2.588,2.588 C -1.159,2.588 0,1.429 0,0"
                     inkscape:connector-curvature="0" />
                </g>
                <g
                   transform="translate(196.3379,90.9512)"
                   id="g3694">
                  <path
                     id="path3696"
                     style="fill:none;stroke:#ffffff;stroke-width:0.15000001;stroke-linecap:butt;stroke-linejoin:miter;stroke-miterlimit:10;stroke-opacity:1;stroke-dasharray:none"
                     d="m 0,0 c 0,-1.429 -1.159,-2.588 -2.588,-2.588 -1.429,0 -2.588,1.159 -2.588,2.588 0,1.429 1.159,2.588 2.588,2.588 C -1.159,2.588 0,1.429 0,0 z"
                     inkscape:connector-curvature="0" />
                </g>
                <g
                   transform="translate(207.3379,123.9512)"
                   id="g3698">
                  <path
                     id="path3700"
                     style="fill:#231f20;fill-opacity:1;fill-rule:nonzero;stroke:none"
                     d="m 0,0 c 0,-1.429 -1.159,-2.588 -2.588,-2.588 -1.429,0 -2.588,1.159 -2.588,2.588 0,1.429 1.159,2.588 2.588,2.588 C -1.159,2.588 0,1.429 0,0"
                     inkscape:connector-curvature="0" />
                </g>
                <g
                   transform="translate(207.3379,123.9512)"
                   id="g3702">
                  <path
                     id="path3704"
                     style="fill:none;stroke:#ffffff;stroke-width:0.15000001;stroke-linecap:butt;stroke-linejoin:miter;stroke-miterlimit:10;stroke-opacity:1;stroke-dasharray:none"
                     d="m 0,0 c 0,-1.429 -1.159,-2.588 -2.588,-2.588 -1.429,0 -2.588,1.159 -2.588,2.588 0,1.429 1.159,2.588 2.588,2.588 C -1.159,2.588 0,1.429 0,0 z"
                     inkscape:connector-curvature="0" />
                </g>
                <g
                   transform="translate(230.3379,93.9512)"
                   id="g3706">
                  <path
                     id="path3708"
                     style="fill:#231f20;fill-opacity:1;fill-rule:nonzero;stroke:none"
                     d="m 0,0 c 0,-1.429 -1.159,-2.588 -2.588,-2.588 -1.429,0 -2.588,1.159 -2.588,2.588 0,1.429 1.159,2.588 2.588,2.588 C -1.159,2.588 0,1.429 0,0"
                     inkscape:connector-curvature="0" />
                </g>
                <g
                   transform="translate(230.3379,93.9512)"
                   id="g3710">
                  <path
                     id="path3712"
                     style="fill:none;stroke:#ffffff;stroke-width:0.15000001;stroke-linecap:butt;stroke-linejoin:miter;stroke-miterlimit:10;stroke-opacity:1;stroke-dasharray:none"
                     d="m 0,0 c 0,-1.429 -1.159,-2.588 -2.588,-2.588 -1.429,0 -2.588,1.159 -2.588,2.588 0,1.429 1.159,2.588 2.588,2.588 C -1.159,2.588 0,1.429 0,0 z"
                     inkscape:connector-curvature="0" />
                </g>
                <g
                   transform="translate(106.2939,151.7246)"
                   id="g3714">
                  <path
                     id="path3716"
                     style="fill:#f9a72b;fill-opacity:1;fill-rule:nonzero;stroke:none"
                     d="m 0,0 c 0.006,1.773 0.401,3.617 1.092,5.259 0.69,1.655 1.646,3.164 2.735,4.53 2.191,2.735 4.876,4.94 7.682,6.873 5.656,3.836 11.854,6.641 18.144,9.049 12.63,4.751 25.76,7.856 38.957,10.284 26.442,4.745 53.306,6.606 80.114,6.683 26.81,0.002 53.667,-1.79 80.11,-6.35 13.203,-2.326 26.331,-5.316 39.006,-9.779 6.32,-2.256 12.545,-4.875 18.343,-8.319 2.888,-1.729 5.668,-3.678 8.132,-6.008 2.441,-2.324 4.614,-5.098 5.657,-8.399 0.06,-0.193 -0.047,-0.398 -0.24,-0.46 -0.192,-0.06 -0.398,0.049 -0.459,0.241 -0.999,3.121 -3.096,5.797 -5.49,8.055 -2.415,2.265 -5.159,4.175 -8.017,5.87 -5.742,3.376 -11.934,5.954 -18.226,8.169 -12.621,4.385 -25.717,7.312 -38.887,9.574 -26.382,4.435 -53.185,6.111 -79.924,5.997 C 121.993,41.079 95.211,39.107 68.927,34.274 55.813,31.807 42.776,28.659 30.338,23.919 24.148,21.522 18.071,18.729 12.645,15.012 9.954,13.144 7.42,11.028 5.429,8.518 3.441,6.019 2.066,3.077 2.088,-0.047 2.092,-0.623 1.627,-1.094 1.051,-1.098 0.475,-1.102 0.004,-0.638 0,-0.062 L 0,-0.057 0,0 z"
                     inkscape:connector-curvature="0" />
                </g>
                <g
                   transform="translate(406.5,151.7012)"
                   id="g3718">
                  <path
                     id="path3720"
                     style="fill:#f9a72b;fill-opacity:1;fill-rule:nonzero;stroke:none"
                     d="M 0,0 C -0.952,1.642 -2.437,3.626 -3.844,4.772 L -0.725,4.215 2.028,5.782 C 1.084,4.231 0.349,1.865 0,0"
                     inkscape:connector-curvature="0" />
                </g>
                <g
                   transform="translate(140.2939,144.7246)"
                   id="g3722">
                  <path
                     id="path3724"
                     style="fill:#967e72;fill-opacity:1;fill-rule:nonzero;stroke:none"
                     d="m 0,0 c 0.006,1.773 0.401,3.617 1.092,5.259 0.69,1.655 1.646,3.164 2.735,4.53 2.191,2.735 4.876,4.94 7.682,6.873 5.656,3.836 11.854,6.641 18.144,9.049 12.63,4.751 25.76,7.856 38.957,10.284 26.442,4.745 53.306,6.606 80.114,6.683 26.81,0.002 53.667,-1.79 80.111,-6.35 13.202,-2.326 26.33,-5.316 39.005,-9.779 6.32,-2.256 12.545,-4.875 18.343,-8.319 2.888,-1.729 5.668,-3.678 8.132,-6.008 2.441,-2.324 4.614,-5.098 5.657,-8.399 0.06,-0.193 -0.047,-0.398 -0.24,-0.46 -0.192,-0.06 -0.398,0.049 -0.459,0.241 -0.999,3.121 -3.096,5.797 -5.49,8.055 -2.415,2.265 -5.159,4.175 -8.017,5.87 -5.742,3.376 -11.934,5.954 -18.226,8.169 -12.621,4.385 -25.717,7.312 -38.888,9.574 -26.381,4.435 -53.184,6.111 -79.923,5.997 C 121.993,41.079 95.211,39.107 68.927,34.274 55.813,31.807 42.776,28.659 30.338,23.919 24.148,21.522 18.071,18.729 12.645,15.012 9.954,13.144 7.42,11.028 5.429,8.518 3.441,6.019 2.066,3.077 2.088,-0.047 2.092,-0.623 1.627,-1.094 1.051,-1.098 0.475,-1.102 0.004,-0.638 0,-0.062 L 0,-0.057 0,0 z"
                     inkscape:connector-curvature="0" />
                </g>
                <g
                   transform="translate(440.5,144.7012)"
                   id="g3726">
                  <path
                     id="path3728"
                     style="fill:#967e72;fill-opacity:1;fill-rule:nonzero;stroke:none"
                     d="M 0,0 C -0.952,1.642 -2.437,3.626 -3.844,4.772 L -0.725,4.215 2.028,5.782 C 1.084,4.231 0.349,1.865 0,0"
                     inkscape:connector-curvature="0" />
                </g>
                <g
                   transform="translate(175.2939,145.7246)"
                   id="g3730">
                  <path
                     id="path3732"
                     style="fill:#ef2e32;fill-opacity:1;fill-rule:nonzero;stroke:none"
                     d="m 0,0 c 0.006,1.773 0.401,3.617 1.092,5.259 0.69,1.655 1.646,3.164 2.735,4.53 2.191,2.735 4.876,4.94 7.682,6.873 5.656,3.836 11.854,6.641 18.144,9.049 12.63,4.751 25.76,7.856 38.957,10.284 26.442,4.745 53.306,6.606 80.114,6.683 26.809,0.002 53.667,-1.79 80.111,-6.35 13.202,-2.326 26.33,-5.316 39.005,-9.779 6.32,-2.256 12.545,-4.875 18.343,-8.319 2.888,-1.729 5.668,-3.678 8.132,-6.008 2.441,-2.324 4.614,-5.098 5.657,-8.399 0.06,-0.193 -0.047,-0.398 -0.24,-0.46 -0.192,-0.06 -0.398,0.049 -0.459,0.241 -0.999,3.121 -3.096,5.797 -5.49,8.055 -2.415,2.265 -5.159,4.175 -8.017,5.87 -5.742,3.376 -11.934,5.954 -18.226,8.169 -12.621,4.385 -25.717,7.312 -38.888,9.574 -26.381,4.435 -53.183,6.111 -79.923,5.997 C 121.993,41.079 95.211,39.107 68.927,34.274 55.813,31.807 42.776,28.659 30.338,23.919 24.148,21.522 18.071,18.729 12.645,15.012 9.954,13.144 7.42,11.028 5.429,8.518 3.44,6.019 2.066,3.077 2.088,-0.047 2.092,-0.623 1.627,-1.094 1.051,-1.098 0.475,-1.102 0.004,-0.638 0,-0.062 L 0,-0.057 0,0 z"
                     inkscape:connector-curvature="0" />
                </g>
                <g
                   transform="translate(475.5,145.7012)"
                   id="g3734">
                  <path
                     id="path3736"
                     style="fill:#ef2e32;fill-opacity:1;fill-rule:nonzero;stroke:none"
                     d="M 0,0 C -0.952,1.642 -2.437,3.626 -3.844,4.772 L -0.725,4.215 2.028,5.782 C 1.084,4.231 0.349,1.865 0,0"
                     inkscape:connector-curvature="0" />
                </g>
                <g
                   transform="translate(71.2939,145.7246)"
                   id="g3738">
                  <path
                     id="path3740"
                     style="fill:#231f20;fill-opacity:1;fill-rule:nonzero;stroke:none"
                     d="m 0,0 c 0.006,1.773 0.401,3.617 1.092,5.259 0.69,1.655 1.646,3.164 2.735,4.53 2.191,2.735 4.876,4.94 7.682,6.873 5.656,3.836 11.854,6.641 18.144,9.049 12.63,4.751 25.76,7.856 38.957,10.284 26.442,4.745 53.306,6.606 80.114,6.683 26.81,0.002 53.667,-1.79 80.11,-6.35 13.203,-2.326 26.331,-5.316 39.006,-9.779 6.32,-2.256 12.545,-4.875 18.343,-8.319 2.888,-1.729 5.668,-3.678 8.132,-6.008 2.441,-2.324 4.614,-5.098 5.657,-8.399 0.06,-0.193 -0.047,-0.398 -0.24,-0.46 -0.192,-0.06 -0.398,0.049 -0.459,0.241 -0.999,3.121 -3.096,5.797 -5.49,8.055 -2.415,2.265 -5.159,4.175 -8.017,5.87 -5.742,3.376 -11.934,5.954 -18.226,8.169 -12.621,4.385 -25.717,7.312 -38.887,9.574 -26.382,4.435 -53.185,6.111 -79.924,5.997 C 121.993,41.079 95.211,39.107 68.927,34.274 55.813,31.807 42.776,28.659 30.338,23.919 24.148,21.522 18.071,18.729 12.645,15.012 9.954,13.144 7.42,11.028 5.429,8.518 3.441,6.019 2.066,3.077 2.088,-0.047 2.092,-0.623 1.627,-1.094 1.051,-1.098 0.475,-1.102 0.004,-0.638 0,-0.062 L 0,-0.057 0,0 z"
                     inkscape:connector-curvature="0" />
                </g>
                <g
                   transform="translate(371.5,145.7012)"
                   id="g3742">
                  <path
                     id="path3744"
                     style="fill:#231f20;fill-opacity:1;fill-rule:nonzero;stroke:none"
                     d="M 0,0 C -0.952,1.642 -2.437,3.626 -3.844,4.772 L -0.725,4.215 2.028,5.782 C 1.084,4.231 0.349,1.865 0,0"
                     inkscape:connector-curvature="0" />
                </g>
                <g
                   transform="translate(40.2939,131.7246)"
                   id="g3746">
                  <path
                     id="path3748"
                     style="fill:#f9a72b;fill-opacity:1;fill-rule:nonzero;stroke:none"
                     d="m 0,0 c 0.006,1.773 0.401,3.617 1.092,5.259 0.69,1.655 1.646,3.164 2.735,4.53 2.191,2.735 4.876,4.94 7.682,6.873 5.656,3.836 11.854,6.641 18.144,9.049 12.63,4.751 25.76,7.856 38.957,10.284 26.442,4.745 53.306,6.606 80.114,6.683 26.81,0.002 53.667,-1.79 80.11,-6.35 13.203,-2.326 26.331,-5.316 39.006,-9.779 6.32,-2.256 12.545,-4.875 18.343,-8.319 2.888,-1.729 5.668,-3.678 8.132,-6.008 2.441,-2.324 4.614,-5.098 5.657,-8.399 0.06,-0.193 -0.047,-0.398 -0.24,-0.46 -0.192,-0.06 -0.398,0.049 -0.459,0.241 -0.999,3.121 -3.096,5.797 -5.49,8.055 -2.415,2.265 -5.158,4.175 -8.018,5.87 -5.741,3.376 -11.933,5.954 -18.225,8.169 -12.621,4.385 -25.717,7.312 -38.887,9.574 -26.382,4.435 -53.185,6.111 -79.924,5.997 C 121.993,41.079 95.211,39.107 68.927,34.274 55.813,31.807 42.776,28.659 30.338,23.919 24.148,21.522 18.071,18.729 12.645,15.012 9.954,13.144 7.42,11.028 5.429,8.518 3.441,6.019 2.066,3.077 2.088,-0.047 2.092,-0.623 1.627,-1.094 1.051,-1.098 0.475,-1.102 0.004,-0.638 0,-0.062 L 0,-0.057 0,0 z"
                     inkscape:connector-curvature="0" />
                </g>
                <g
                   transform="translate(340.5,131.7012)"
                   id="g3750">
                  <path
                     id="path3752"
                     style="fill:#f9a72b;fill-opacity:1;fill-rule:nonzero;stroke:none"
                     d="M 0,0 C -0.952,1.642 -2.437,3.626 -3.844,4.772 L -0.725,4.215 2.028,5.782 C 1.084,4.231 0.349,1.865 0,0"
                     inkscape:connector-curvature="0" />
                </g>
                <g
                   transform="translate(18.2939,105.7246)"
                   id="g3754">
                  <path
                     id="path3756"
                     style="fill:#40b93c;fill-opacity:1;fill-rule:nonzero;stroke:none"
                     d="m 0,0 c 0.006,1.773 0.401,3.617 1.092,5.259 0.69,1.655 1.646,3.164 2.735,4.53 2.191,2.735 4.876,4.94 7.682,6.873 5.656,3.836 11.854,6.641 18.144,9.049 12.63,4.751 25.76,7.856 38.957,10.284 26.442,4.745 53.306,6.606 80.114,6.683 26.81,0.002 53.667,-1.79 80.11,-6.35 13.203,-2.326 26.331,-5.316 39.006,-9.779 6.32,-2.256 12.545,-4.875 18.343,-8.319 2.888,-1.729 5.668,-3.678 8.132,-6.008 2.441,-2.324 4.613,-5.098 5.656,-8.399 0.061,-0.193 -0.046,-0.398 -0.239,-0.46 -0.192,-0.06 -0.398,0.049 -0.459,0.241 -0.998,3.121 -3.096,5.797 -5.49,8.055 -2.415,2.265 -5.158,4.175 -8.018,5.87 -5.741,3.376 -11.933,5.954 -18.225,8.169 -12.621,4.385 -25.717,7.312 -38.887,9.574 -26.382,4.435 -53.185,6.111 -79.924,5.997 C 121.993,41.079 95.211,39.107 68.927,34.274 55.813,31.807 42.776,28.659 30.338,23.919 24.148,21.522 18.071,18.729 12.645,15.012 9.954,13.144 7.42,11.028 5.429,8.518 3.441,6.019 2.066,3.077 2.088,-0.047 2.092,-0.623 1.627,-1.094 1.051,-1.098 0.475,-1.102 0.004,-0.638 0,-0.062 L 0,-0.057 0,0 z"
                     inkscape:connector-curvature="0" />
                </g>
                <g
                   transform="translate(318.5,105.7012)"
                   id="g3758">
                  <path
                     id="path3760"
                     style="fill:#40b93c;fill-opacity:1;fill-rule:nonzero;stroke:none"
                     d="M 0,0 C -0.952,1.642 -2.436,3.626 -3.844,4.772 L -0.725,4.215 2.028,5.782 C 1.084,4.231 0.349,1.865 0,0"
                     inkscape:connector-curvature="0" />
                </g>
                <g
                   transform="translate(95.2939,119.7246)"
                   id="g3762">
                  <path
                     id="path3764"
                     style="fill:#ef2e32;fill-opacity:1;fill-rule:nonzero;stroke:none"
                     d="m 0,0 c 0.006,1.773 0.401,3.617 1.092,5.259 0.69,1.655 1.646,3.164 2.735,4.53 2.191,2.735 4.876,4.94 7.682,6.873 5.656,3.836 11.854,6.641 18.144,9.049 12.63,4.751 25.76,7.856 38.957,10.284 26.442,4.745 53.306,6.606 80.114,6.683 26.81,0.002 53.667,-1.79 80.11,-6.35 13.203,-2.326 26.331,-5.316 39.006,-9.779 6.32,-2.256 12.545,-4.875 18.343,-8.319 2.888,-1.729 5.668,-3.678 8.132,-6.008 2.441,-2.324 4.614,-5.098 5.657,-8.399 0.06,-0.193 -0.047,-0.398 -0.24,-0.46 -0.192,-0.06 -0.398,0.049 -0.459,0.241 -0.999,3.121 -3.096,5.797 -5.49,8.055 -2.415,2.265 -5.159,4.175 -8.017,5.87 -5.742,3.376 -11.934,5.954 -18.226,8.169 -12.621,4.385 -25.717,7.312 -38.887,9.574 -26.382,4.435 -53.185,6.111 -79.924,5.997 C 121.993,41.079 95.211,39.107 68.927,34.274 55.813,31.807 42.776,28.659 30.338,23.919 24.148,21.522 18.071,18.729 12.645,15.012 9.954,13.144 7.42,11.028 5.429,8.518 3.441,6.019 2.066,3.077 2.088,-0.047 2.092,-0.623 1.627,-1.094 1.051,-1.098 0.475,-1.102 0.004,-0.638 0,-0.062 L 0,-0.057 0,0 z"
                     inkscape:connector-curvature="0" />
                </g>
                <g
                   transform="translate(395.5,119.7012)"
                   id="g3766">
                  <path
                     id="path3768"
                     style="fill:#ef2e32;fill-opacity:1;fill-rule:nonzero;stroke:none"
                     d="M 0,0 C -0.952,1.642 -2.437,3.626 -3.844,4.772 L -0.725,4.215 2.028,5.782 C 1.084,4.231 0.349,1.865 0,0"
                     inkscape:connector-curvature="0" />
                </g>
                <g
                   transform="translate(204.2939,126.7246)"
                   id="g3770">
                  <path
                     id="path3772"
                     style="fill:#ef2e32;fill-opacity:1;fill-rule:nonzero;stroke:none"
                     d="m 0,0 c 0.006,1.773 0.401,3.617 1.092,5.259 0.69,1.655 1.646,3.164 2.735,4.53 2.191,2.735 4.876,4.94 7.682,6.873 5.656,3.836 11.854,6.641 18.144,9.049 12.63,4.751 25.76,7.856 38.957,10.284 26.442,4.745 53.306,6.606 80.115,6.683 26.808,0.002 53.666,-1.79 80.11,-6.35 13.202,-2.326 26.33,-5.316 39.005,-9.779 6.32,-2.256 12.545,-4.875 18.343,-8.319 2.888,-1.729 5.668,-3.678 8.132,-6.008 2.441,-2.324 4.614,-5.098 5.657,-8.399 0.06,-0.193 -0.047,-0.398 -0.24,-0.46 -0.192,-0.06 -0.398,0.049 -0.459,0.241 -0.999,3.121 -3.096,5.797 -5.49,8.055 -2.415,2.265 -5.159,4.175 -8.017,5.87 -5.742,3.376 -11.934,5.954 -18.226,8.169 -12.621,4.385 -25.717,7.312 -38.888,9.574 -26.381,4.435 -53.183,6.111 -79.923,5.997 C 121.993,41.079 95.211,39.107 68.927,34.274 55.813,31.807 42.776,28.659 30.338,23.919 24.148,21.522 18.071,18.729 12.645,15.012 9.954,13.144 7.42,11.028 5.429,8.518 3.44,6.019 2.066,3.077 2.088,-0.047 2.092,-0.623 1.627,-1.094 1.051,-1.098 0.475,-1.102 0.004,-0.638 0,-0.062 L 0,-0.057 0,0 z"
                     inkscape:connector-curvature="0" />
                </g>
                <g
                   transform="translate(504.5,126.7012)"
                   id="g3774">
                  <path
                     id="path3776"
                     style="fill:#ef2e32;fill-opacity:1;fill-rule:nonzero;stroke:none"
                     d="M 0,0 C -0.952,1.642 -2.437,3.626 -3.844,4.772 L -0.725,4.215 2.028,5.782 C 1.084,4.231 0.349,1.865 0,0"
                     inkscape:connector-curvature="0" />
                </g>
                <g
                   transform="translate(164.2939,111.7246)"
                   id="g3778">
                  <path
                     id="path3780"
                     style="fill:#3f50ab;fill-opacity:1;fill-rule:nonzero;stroke:none"
                     d="m 0,0 c 0.006,1.773 0.401,3.617 1.092,5.259 0.69,1.655 1.646,3.164 2.735,4.53 2.191,2.735 4.876,4.94 7.682,6.873 5.656,3.836 11.854,6.641 18.144,9.049 12.63,4.751 25.76,7.856 38.957,10.284 26.442,4.745 53.306,6.606 80.114,6.683 26.809,0.002 53.667,-1.79 80.111,-6.35 13.202,-2.326 26.33,-5.316 39.005,-9.779 6.32,-2.256 12.545,-4.875 18.343,-8.319 2.888,-1.729 5.668,-3.678 8.132,-6.008 2.441,-2.324 4.614,-5.098 5.657,-8.399 0.06,-0.193 -0.047,-0.398 -0.24,-0.46 -0.192,-0.06 -0.398,0.049 -0.459,0.241 -0.999,3.121 -3.096,5.797 -5.49,8.055 -2.415,2.265 -5.159,4.175 -8.017,5.87 -5.742,3.376 -11.934,5.954 -18.226,8.169 -12.621,4.385 -25.717,7.312 -38.888,9.574 -26.381,4.435 -53.183,6.111 -79.923,5.997 C 121.993,41.079 95.211,39.107 68.927,34.274 55.813,31.807 42.776,28.659 30.338,23.919 24.148,21.522 18.071,18.729 12.645,15.012 9.954,13.144 7.42,11.028 5.429,8.518 3.44,6.019 2.066,3.077 2.088,-0.047 2.092,-0.623 1.627,-1.094 1.051,-1.098 0.475,-1.102 0.004,-0.638 0,-0.062 L 0,-0.057 0,0 z"
                     inkscape:connector-curvature="0" />
                </g>
                <g
                   transform="translate(464.5,111.7012)"
                   id="g3782">
                  <path
                     id="path3784"
                     style="fill:#3f50ab;fill-opacity:1;fill-rule:nonzero;stroke:none"
                     d="M 0,0 C -0.952,1.642 -2.437,3.626 -3.844,4.772 L -0.725,4.215 2.028,5.782 C 1.084,4.231 0.349,1.865 0,0"
                     inkscape:connector-curvature="0" />
                </g>
                <g
                   transform="translate(129.2939,111.7246)"
                   id="g3786">
                  <path
                     id="path3788"
                     style="fill:#bf1b2c;fill-opacity:1;fill-rule:nonzero;stroke:none"
                     d="m 0,0 c 0.006,1.773 0.401,3.617 1.092,5.259 0.69,1.655 1.646,3.164 2.735,4.53 2.191,2.735 4.876,4.94 7.682,6.873 5.656,3.836 11.854,6.641 18.144,9.049 12.63,4.751 25.76,7.856 38.957,10.284 26.442,4.745 53.306,6.606 80.114,6.683 26.81,0.002 53.667,-1.79 80.111,-6.35 13.202,-2.326 26.33,-5.316 39.005,-9.779 6.32,-2.256 12.545,-4.875 18.343,-8.319 2.888,-1.729 5.668,-3.678 8.132,-6.008 2.441,-2.324 4.614,-5.098 5.657,-8.399 0.06,-0.193 -0.047,-0.398 -0.24,-0.46 -0.192,-0.06 -0.398,0.049 -0.459,0.241 -0.999,3.121 -3.096,5.797 -5.49,8.055 -2.415,2.265 -5.159,4.175 -8.017,5.87 -5.742,3.376 -11.934,5.954 -18.226,8.169 -12.621,4.385 -25.717,7.312 -38.888,9.574 -26.381,4.435 -53.184,6.111 -79.923,5.997 C 121.993,41.079 95.211,39.107 68.927,34.274 55.813,31.807 42.776,28.659 30.338,23.919 24.148,21.522 18.071,18.729 12.645,15.012 9.954,13.144 7.42,11.028 5.429,8.518 3.441,6.019 2.066,3.077 2.088,-0.047 2.092,-0.623 1.627,-1.094 1.051,-1.098 0.475,-1.102 0.004,-0.638 0,-0.062 L 0,-0.057 0,0 z"
                     inkscape:connector-curvature="0" />
                </g>
                <g
                   transform="translate(429.5,111.7012)"
                   id="g3790">
                  <path
                     id="path3792"
                     style="fill:#bf1b2c;fill-opacity:1;fill-rule:nonzero;stroke:none"
                     d="M 0,0 C -0.952,1.642 -2.437,3.626 -3.844,4.772 L -0.725,4.215 2.028,5.782 C 1.084,4.231 0.349,1.865 0,0"
                     inkscape:connector-curvature="0" />
                </g>
                <g
                   transform="translate(34.3818,67.7246)"
                   id="g3794">
                  <path
                     id="path3796"
                     style="fill:#855333;fill-opacity:1;fill-rule:nonzero;stroke:none"
                     d="m 0,0 c -0.021,-3.124 1.353,-6.065 3.341,-8.564 1.991,-2.511 4.525,-4.626 7.216,-6.495 5.426,-3.716 11.504,-6.51 17.693,-8.907 12.438,-4.74 25.475,-7.888 38.589,-10.355 26.284,-4.833 53.066,-6.805 79.802,-6.994 26.739,-0.115 53.542,1.561 79.924,5.996 13.17,2.262 26.266,5.189 38.887,9.574 6.292,2.215 12.485,4.793 18.225,8.169 2.86,1.695 5.603,3.605 8.018,5.87 2.394,2.258 4.492,4.935 5.49,8.056 0.06,0.192 0.266,0.3 0.459,0.24 0.192,-0.061 0.299,-0.268 0.239,-0.46 -1.043,-3.301 -3.215,-6.075 -5.656,-8.399 -2.464,-2.33 -5.244,-4.279 -8.132,-6.008 -5.798,-3.444 -12.023,-6.063 -18.343,-8.319 -12.675,-4.463 -25.803,-7.453 -39.005,-9.779 -26.444,-4.56 -53.301,-6.352 -80.111,-6.35 -26.808,0.078 -53.672,1.938 -80.114,6.683 -13.197,2.428 -26.327,5.533 -38.957,10.284 -6.29,2.408 -12.488,5.213 -18.144,9.049 -2.806,1.934 -5.491,4.138 -7.682,6.873 -1.089,1.366 -2.045,2.875 -2.735,4.53 -0.691,1.642 -1.086,3.486 -1.092,5.259 l 0,0.051 C -2.09,0.58 -1.624,1.049 -1.047,1.051 -0.471,1.053 -0.002,0.587 0,0.011 L 0,0 z"
                     inkscape:connector-curvature="0" />
                </g>
                <g
                   transform="translate(332.5,67.7012)"
                   id="g3798">
                  <path
                     id="path3800"
                     style="fill:#855333;fill-opacity:1;fill-rule:nonzero;stroke:none"
                     d="m 0,0 c 0.349,-1.865 1.085,-4.231 2.029,-5.782 l -2.754,1.567 -3.118,-0.557 C -2.436,-3.626 -0.952,-1.642 0,0"
                     inkscape:connector-curvature="0" />
                </g>
                <g
                   transform="translate(66.3818,54.7246)"
                   id="g3802">
                  <path
                     id="path3804"
                     style="fill:#cce310;fill-opacity:1;fill-rule:nonzero;stroke:none"
                     d="m 0,0 c -0.021,-3.124 1.353,-6.065 3.341,-8.564 1.991,-2.511 4.525,-4.626 7.216,-6.495 5.426,-3.716 11.504,-6.51 17.693,-8.907 12.438,-4.74 25.475,-7.888 38.589,-10.355 26.284,-4.833 53.066,-6.805 79.802,-6.994 26.739,-0.115 53.542,1.561 79.924,5.996 13.17,2.262 26.266,5.189 38.887,9.574 6.292,2.215 12.485,4.793 18.226,8.169 2.858,1.695 5.602,3.605 8.017,5.87 2.394,2.258 4.492,4.935 5.491,8.056 0.059,0.192 0.264,0.3 0.458,0.24 0.192,-0.061 0.298,-0.268 0.24,-0.46 -1.043,-3.301 -3.216,-6.075 -5.656,-8.399 -2.465,-2.33 -5.245,-4.279 -8.133,-6.008 -5.798,-3.444 -12.023,-6.063 -18.343,-8.319 -12.675,-4.463 -25.803,-7.453 -39.005,-9.779 -26.444,-4.56 -53.301,-6.352 -80.111,-6.35 -26.808,0.078 -53.672,1.938 -80.114,6.683 -13.197,2.428 -26.327,5.533 -38.957,10.284 -6.29,2.408 -12.488,5.213 -18.144,9.049 -2.806,1.934 -5.491,4.138 -7.682,6.873 -1.089,1.366 -2.045,2.875 -2.735,4.53 -0.691,1.642 -1.086,3.486 -1.092,5.259 l 0,0.051 C -2.09,0.58 -1.624,1.049 -1.047,1.051 -0.471,1.053 -0.002,0.587 0,0.011 L 0,0 z"
                     inkscape:connector-curvature="0" />
                </g>
                <g
                   transform="translate(364.5,54.7012)"
                   id="g3806">
                  <path
                     id="path3808"
                     style="fill:#cce310;fill-opacity:1;fill-rule:nonzero;stroke:none"
                     d="m 0,0 c 0.349,-1.865 1.085,-4.231 2.028,-5.782 l -2.753,1.567 -3.119,-0.557 C -2.436,-3.626 -0.951,-1.642 0,0"
                     inkscape:connector-curvature="0" />
                </g>
                <g
                   transform="translate(100.3818,47.7246)"
                   id="g3810">
                  <path
                     id="path3812"
                     style="fill:#f2ef1d;fill-opacity:1;fill-rule:nonzero;stroke:none"
                     d="m 0,0 c -0.021,-3.124 1.353,-6.065 3.341,-8.564 1.991,-2.511 4.525,-4.626 7.216,-6.495 5.426,-3.716 11.504,-6.51 17.693,-8.907 12.438,-4.74 25.475,-7.888 38.589,-10.355 26.284,-4.833 53.066,-6.805 79.802,-6.994 26.739,-0.115 53.542,1.561 79.924,5.996 13.17,2.262 26.266,5.189 38.887,9.574 6.292,2.215 12.485,4.793 18.226,8.169 2.858,1.695 5.602,3.605 8.017,5.87 2.394,2.258 4.492,4.935 5.491,8.056 0.059,0.192 0.264,0.3 0.458,0.24 0.192,-0.061 0.298,-0.268 0.24,-0.46 -1.043,-3.301 -3.216,-6.075 -5.656,-8.399 -2.465,-2.33 -5.245,-4.279 -8.133,-6.008 -5.798,-3.444 -12.023,-6.063 -18.343,-8.319 -12.675,-4.463 -25.803,-7.453 -39.005,-9.779 -26.444,-4.56 -53.301,-6.352 -80.111,-6.35 -26.808,0.078 -53.672,1.938 -80.114,6.683 -13.197,2.428 -26.327,5.533 -38.957,10.284 -6.29,2.408 -12.488,5.213 -18.144,9.049 -2.806,1.934 -5.491,4.138 -7.682,6.873 -1.089,1.366 -2.045,2.875 -2.735,4.53 -0.691,1.642 -1.086,3.486 -1.092,5.259 l 0,0.051 C -2.09,0.58 -1.624,1.049 -1.047,1.051 -0.471,1.053 -0.002,0.587 0,0.011 L 0,0 z"
                     inkscape:connector-curvature="0" />
                </g>
                <g
                   transform="translate(398.5,47.7012)"
                   id="g3814">
                  <path
                     id="path3816"
                     style="fill:#f2ef1d;fill-opacity:1;fill-rule:nonzero;stroke:none"
                     d="m 0,0 c 0.349,-1.865 1.085,-4.231 2.028,-5.782 l -2.753,1.567 -3.119,-0.557 C -2.436,-3.626 -0.951,-1.642 0,0"
                     inkscape:connector-curvature="0" />
                </g>
                <g
                   transform="translate(141.3818,42.7246)"
                   id="g3818">
                  <path
                     id="path3820"
                     style="fill:#231f20;fill-opacity:1;fill-rule:nonzero;stroke:none"
                     d="m 0,0 c -0.021,-3.124 1.353,-6.065 3.341,-8.564 1.991,-2.511 4.525,-4.626 7.216,-6.495 5.426,-3.716 11.504,-6.51 17.693,-8.907 12.438,-4.74 25.475,-7.888 38.589,-10.355 26.284,-4.833 53.066,-6.805 79.802,-6.994 26.739,-0.115 53.542,1.561 79.923,5.996 13.171,2.262 26.267,5.189 38.888,9.574 6.292,2.215 12.485,4.793 18.226,8.169 2.858,1.695 5.602,3.605 8.017,5.87 2.394,2.258 4.492,4.935 5.491,8.056 0.059,0.192 0.264,0.3 0.458,0.24 0.192,-0.061 0.298,-0.268 0.24,-0.46 -1.043,-3.301 -3.216,-6.075 -5.656,-8.399 -2.465,-2.33 -5.245,-4.279 -8.133,-6.008 -5.798,-3.444 -12.023,-6.063 -18.343,-8.319 -12.675,-4.463 -25.803,-7.453 -39.005,-9.779 -26.444,-4.56 -53.301,-6.352 -80.111,-6.35 -26.808,0.078 -53.672,1.938 -80.114,6.683 -13.197,2.428 -26.327,5.533 -38.957,10.284 -6.29,2.408 -12.488,5.213 -18.144,9.049 -2.806,1.934 -5.491,4.138 -7.682,6.873 -1.089,1.366 -2.045,2.875 -2.735,4.53 -0.691,1.642 -1.086,3.486 -1.092,5.259 l 0,0.051 C -2.09,0.58 -1.624,1.049 -1.047,1.051 -0.471,1.053 -0.002,0.587 0,0.011 L 0,0 z"
                     inkscape:connector-curvature="0" />
                </g>
                <g
                   transform="translate(439.5,42.7012)"
                   id="g3822">
                  <path
                     id="path3824"
                     style="fill:#231f20;fill-opacity:1;fill-rule:nonzero;stroke:none"
                     d="m 0,0 c 0.349,-1.865 1.085,-4.231 2.028,-5.782 l -2.753,1.567 -3.119,-0.557 C -2.436,-3.626 -0.951,-1.642 0,0"
                     inkscape:connector-curvature="0" />
                </g>
                <g
                   transform="translate(187.3818,53.7246)"
                   id="g3826">
                  <path
                     id="path3828"
                     style="fill:#8d198f;fill-opacity:1;fill-rule:nonzero;stroke:none"
                     d="m 0,0 c -0.021,-3.124 1.353,-6.065 3.341,-8.564 1.991,-2.511 4.525,-4.626 7.216,-6.495 5.426,-3.716 11.504,-6.51 17.693,-8.907 12.438,-4.74 25.475,-7.888 38.589,-10.355 26.284,-4.833 53.066,-6.805 79.802,-6.994 26.74,-0.115 53.542,1.561 79.923,5.996 13.171,2.262 26.267,5.189 38.888,9.574 6.292,2.215 12.485,4.793 18.226,8.169 2.858,1.695 5.602,3.605 8.017,5.87 2.394,2.258 4.492,4.935 5.491,8.056 0.059,0.192 0.264,0.3 0.458,0.24 0.192,-0.061 0.298,-0.268 0.24,-0.46 -1.043,-3.301 -3.216,-6.075 -5.656,-8.399 -2.465,-2.33 -5.245,-4.279 -8.133,-6.008 -5.798,-3.444 -12.023,-6.063 -18.343,-8.319 -12.675,-4.463 -25.803,-7.453 -39.005,-9.779 -26.444,-4.56 -53.302,-6.352 -80.111,-6.35 -26.808,0.078 -53.672,1.938 -80.114,6.683 -13.197,2.428 -26.327,5.533 -38.957,10.284 -6.29,2.408 -12.488,5.213 -18.144,9.049 -2.806,1.934 -5.491,4.138 -7.682,6.873 -1.089,1.366 -2.045,2.875 -2.735,4.53 -0.691,1.642 -1.086,3.486 -1.092,5.259 l 0,0.051 C -2.09,0.58 -1.624,1.049 -1.047,1.051 -0.471,1.053 -0.002,0.587 0,0.011 L 0,0 z"
                     inkscape:connector-curvature="0" />
                </g>
                <g
                   transform="translate(485.5,53.7012)"
                   id="g3830">
                  <path
                     id="path3832"
                     style="fill:#8d198f;fill-opacity:1;fill-rule:nonzero;stroke:none"
                     d="m 0,0 c 0.349,-1.865 1.085,-4.231 2.028,-5.782 l -2.753,1.567 -3.119,-0.557 C -2.436,-3.626 -0.951,-1.642 0,0"
                     inkscape:connector-curvature="0" />
                </g>
                <g
                   transform="translate(228.3818,90.7246)"
                   id="g3834">
                  <path
                     id="path3836"
                     style="fill:#ef2e32;fill-opacity:1;fill-rule:nonzero;stroke:none"
                     d="m 0,0 c -0.021,-3.124 1.353,-6.065 3.341,-8.564 1.991,-2.511 4.525,-4.626 7.216,-6.495 5.426,-3.716 11.504,-6.51 17.693,-8.907 12.438,-4.74 25.475,-7.888 38.589,-10.355 26.284,-4.833 53.066,-6.805 79.803,-6.994 26.739,-0.115 53.541,1.561 79.922,5.996 13.171,2.262 26.267,5.189 38.888,9.574 6.292,2.215 12.485,4.793 18.226,8.169 2.858,1.695 5.602,3.605 8.017,5.87 2.394,2.258 4.492,4.935 5.491,8.056 0.059,0.192 0.264,0.3 0.458,0.24 0.192,-0.061 0.298,-0.268 0.24,-0.46 -1.043,-3.301 -3.216,-6.075 -5.656,-8.399 -2.465,-2.33 -5.245,-4.279 -8.133,-6.008 -5.798,-3.444 -12.023,-6.063 -18.343,-8.319 -12.675,-4.463 -25.803,-7.453 -39.005,-9.779 -26.444,-4.56 -53.302,-6.352 -80.11,-6.35 -26.809,0.078 -53.673,1.938 -80.115,6.683 -13.197,2.428 -26.327,5.533 -38.957,10.284 -6.29,2.408 -12.488,5.213 -18.144,9.049 -2.806,1.934 -5.491,4.138 -7.682,6.873 -1.089,1.366 -2.045,2.875 -2.735,4.53 -0.691,1.642 -1.086,3.486 -1.092,5.259 l 0,0.051 C -2.09,0.58 -1.624,1.049 -1.047,1.051 -0.471,1.053 -0.002,0.587 0,0.011 L 0,0 z"
                     inkscape:connector-curvature="0" />
                </g>
                <g
                   transform="translate(526.5,90.7012)"
                   id="g3838">
                  <path
                     id="path3840"
                     style="fill:#ef2e32;fill-opacity:1;fill-rule:nonzero;stroke:none"
                     d="m 0,0 c 0.349,-1.865 1.085,-4.231 2.028,-5.782 l -2.753,1.567 -3.119,-0.557 C -2.436,-3.626 -0.951,-1.642 0,0"
                     inkscape:connector-curvature="0" />
                </g>
                <g
                   transform="translate(194.3818,88.7246)"
                   id="g3842">
                  <path
                     id="path3844"
                     style="fill:#40bb6a;fill-opacity:1;fill-rule:nonzero;stroke:none"
                     d="m 0,0 c -0.021,-3.124 1.353,-6.065 3.341,-8.564 1.991,-2.511 4.525,-4.626 7.216,-6.495 5.426,-3.716 11.504,-6.51 17.693,-8.907 12.438,-4.74 25.475,-7.888 38.589,-10.355 26.284,-4.833 53.066,-6.805 79.803,-6.994 26.739,-0.115 53.541,1.561 79.922,5.996 13.171,2.262 26.267,5.189 38.888,9.574 6.292,2.215 12.485,4.793 18.226,8.169 2.858,1.695 5.602,3.605 8.017,5.87 2.394,2.258 4.492,4.935 5.491,8.056 0.059,0.192 0.264,0.3 0.458,0.24 0.192,-0.061 0.298,-0.268 0.24,-0.46 -1.043,-3.301 -3.216,-6.075 -5.656,-8.399 -2.465,-2.33 -5.245,-4.279 -8.133,-6.008 -5.798,-3.444 -12.023,-6.063 -18.343,-8.319 -12.675,-4.463 -25.803,-7.453 -39.005,-9.779 -26.444,-4.56 -53.302,-6.352 -80.11,-6.35 -26.809,0.078 -53.673,1.938 -80.115,6.683 -13.197,2.428 -26.327,5.533 -38.957,10.284 -6.29,2.408 -12.488,5.213 -18.144,9.049 -2.806,1.934 -5.491,4.138 -7.682,6.873 -1.089,1.366 -2.045,2.875 -2.735,4.53 -0.691,1.642 -1.086,3.486 -1.092,5.259 l 0,0.051 C -2.09,0.58 -1.624,1.049 -1.047,1.051 -0.471,1.053 -0.002,0.587 0,0.011 L 0,0 z"
                     inkscape:connector-curvature="0" />
                </g>
                <g
                   transform="translate(492.5,88.7012)"
                   id="g3846">
                  <path
                     id="path3848"
                     style="fill:#40bb6a;fill-opacity:1;fill-rule:nonzero;stroke:none"
                     d="m 0,0 c 0.349,-1.865 1.085,-4.231 2.028,-5.782 l -2.753,1.567 -3.119,-0.557 C -2.436,-3.626 -0.951,-1.642 0,0"
                     inkscape:connector-curvature="0" />
                </g>
                <g
                   transform="translate(158.3818,72.7246)"
                   id="g3850">
                  <path
                     id="path3852"
                     style="fill:#bf1b2c;fill-opacity:1;fill-rule:nonzero;stroke:none"
                     d="m 0,0 c -0.021,-3.124 1.353,-6.065 3.341,-8.564 1.991,-2.511 4.525,-4.626 7.216,-6.495 5.426,-3.716 11.504,-6.51 17.693,-8.907 12.438,-4.74 25.475,-7.888 38.589,-10.355 26.284,-4.833 53.066,-6.805 79.802,-6.994 26.739,-0.115 53.542,1.561 79.923,5.996 13.171,2.262 26.267,5.189 38.888,9.574 6.292,2.215 12.485,4.793 18.226,8.169 2.858,1.695 5.602,3.605 8.017,5.87 2.394,2.258 4.492,4.935 5.491,8.056 0.059,0.192 0.264,0.3 0.458,0.24 0.192,-0.061 0.298,-0.268 0.24,-0.46 -1.043,-3.301 -3.216,-6.075 -5.656,-8.399 -2.465,-2.33 -5.245,-4.279 -8.133,-6.008 -5.798,-3.444 -12.023,-6.063 -18.343,-8.319 -12.675,-4.463 -25.803,-7.453 -39.005,-9.779 -26.444,-4.56 -53.301,-6.352 -80.111,-6.35 -26.808,0.078 -53.672,1.938 -80.114,6.683 -13.197,2.428 -26.327,5.533 -38.957,10.284 -6.29,2.408 -12.488,5.213 -18.144,9.049 -2.806,1.934 -5.491,4.138 -7.682,6.873 -1.089,1.366 -2.045,2.875 -2.735,4.53 -0.691,1.642 -1.086,3.486 -1.092,5.259 l 0,0.051 C -2.09,0.58 -1.624,1.049 -1.047,1.051 -0.471,1.053 -0.002,0.587 0,0.011 L 0,0 z"
                     inkscape:connector-curvature="0" />
                </g>
                <g
                   transform="translate(456.5,72.7012)"
                   id="g3854">
                  <path
                     id="path3856"
                     style="fill:#bf1b2c;fill-opacity:1;fill-rule:nonzero;stroke:none"
                     d="m 0,0 c 0.349,-1.865 1.085,-4.231 2.028,-5.782 l -2.753,1.567 -3.119,-0.557 C -2.436,-3.626 -0.951,-1.642 0,0"
                     inkscape:connector-curvature="0" />
                </g>
                <g
                   transform="translate(123.3818,72.7246)"
                   id="g3858">
                  <path
                     id="path3860"
                     style="fill:#00adef;fill-opacity:1;fill-rule:nonzero;stroke:none"
                     d="m 0,0 c -0.021,-3.124 1.353,-6.065 3.341,-8.564 1.991,-2.511 4.525,-4.626 7.216,-6.495 5.426,-3.716 11.504,-6.51 17.693,-8.907 12.438,-4.74 25.475,-7.888 38.589,-10.355 26.284,-4.833 53.066,-6.805 79.802,-6.994 26.739,-0.115 53.542,1.561 79.923,5.996 13.171,2.262 26.267,5.189 38.888,9.574 6.292,2.215 12.485,4.793 18.226,8.169 2.858,1.695 5.602,3.605 8.017,5.87 2.394,2.258 4.492,4.935 5.491,8.056 0.059,0.192 0.264,0.3 0.458,0.24 0.192,-0.061 0.298,-0.268 0.24,-0.46 -1.043,-3.301 -3.216,-6.075 -5.656,-8.399 -2.465,-2.33 -5.245,-4.279 -8.133,-6.008 -5.798,-3.444 -12.023,-6.063 -18.343,-8.319 -12.675,-4.463 -25.803,-7.453 -39.005,-9.779 -26.444,-4.56 -53.301,-6.352 -80.111,-6.35 -26.808,0.078 -53.672,1.938 -80.114,6.683 -13.197,2.428 -26.327,5.533 -38.957,10.284 -6.29,2.408 -12.488,5.213 -18.144,9.049 -2.806,1.934 -5.491,4.138 -7.682,6.873 -1.089,1.366 -2.045,2.875 -2.735,4.53 -0.691,1.642 -1.086,3.486 -1.092,5.259 l 0,0.051 C -2.09,0.58 -1.624,1.049 -1.047,1.051 -0.471,1.053 -0.002,0.587 0,0.011 L 0,0 z"
                     inkscape:connector-curvature="0" />
                </g>
                <g
                   transform="translate(421.5,72.7012)"
                   id="g3862">
                  <path
                     id="path3864"
                     style="fill:#00adef;fill-opacity:1;fill-rule:nonzero;stroke:none"
                     d="m 0,0 c 0.349,-1.865 1.085,-4.231 2.028,-5.782 l -2.753,1.567 -3.119,-0.557 C -2.436,-3.626 -0.951,-1.642 0,0"
                     inkscape:connector-curvature="0" />
                </g>
                <g
                   transform="translate(89.3818,79.7246)"
                   id="g3866">
                  <path
                     id="path3868"
                     style="fill:#1d6434;fill-opacity:1;fill-rule:nonzero;stroke:none"
                     d="m 0,0 c -0.021,-3.124 1.353,-6.065 3.341,-8.564 1.991,-2.511 4.525,-4.626 7.216,-6.495 5.426,-3.716 11.504,-6.51 17.693,-8.907 12.438,-4.74 25.475,-7.888 38.589,-10.355 26.284,-4.833 53.066,-6.805 79.802,-6.994 26.739,-0.115 53.542,1.561 79.924,5.996 13.17,2.262 26.266,5.189 38.887,9.574 6.292,2.215 12.485,4.793 18.226,8.169 2.858,1.695 5.602,3.605 8.017,5.87 2.394,2.258 4.492,4.935 5.491,8.056 0.059,0.192 0.264,0.3 0.458,0.24 0.192,-0.061 0.298,-0.268 0.24,-0.46 -1.043,-3.301 -3.216,-6.075 -5.656,-8.399 -2.465,-2.33 -5.245,-4.279 -8.133,-6.008 -5.798,-3.444 -12.023,-6.063 -18.343,-8.319 -12.675,-4.463 -25.803,-7.453 -39.005,-9.779 -26.444,-4.56 -53.301,-6.352 -80.111,-6.35 -26.808,0.078 -53.672,1.938 -80.114,6.683 -13.197,2.428 -26.327,5.533 -38.957,10.284 -6.29,2.408 -12.488,5.213 -18.144,9.049 -2.806,1.934 -5.491,4.138 -7.682,6.873 -1.089,1.366 -2.045,2.875 -2.735,4.53 -0.691,1.642 -1.086,3.486 -1.092,5.259 l 0,0.051 C -2.09,0.58 -1.624,1.049 -1.047,1.051 -0.471,1.053 -0.002,0.587 0,0.011 L 0,0 z"
                     inkscape:connector-curvature="0" />
                </g>
                <g
                   transform="translate(387.5,79.7012)"
                   id="g3870">
                  <path
                     id="path3872"
                     style="fill:#1d6434;fill-opacity:1;fill-rule:nonzero;stroke:none"
                     d="m 0,0 c 0.349,-1.865 1.085,-4.231 2.028,-5.782 l -2.753,1.567 -3.119,-0.557 C -2.436,-3.626 -0.951,-1.642 0,0"
                     inkscape:connector-curvature="0" />
                </g>
                <g
                   transform="translate(57.3818,94.7246)"
                   id="g3874">
                  <path
                     id="path3876"
                     style="fill:#9c1661;fill-opacity:1;fill-rule:nonzero;stroke:none"
                     d="m 0,0 c -0.021,-3.124 1.353,-6.065 3.341,-8.564 1.991,-2.511 4.525,-4.626 7.216,-6.495 5.426,-3.716 11.504,-6.51 17.693,-8.907 12.438,-4.74 25.475,-7.888 38.589,-10.355 26.284,-4.833 53.066,-6.805 79.802,-6.994 26.739,-0.115 53.542,1.561 79.924,5.996 13.17,2.262 26.266,5.189 38.887,9.574 6.292,2.215 12.485,4.793 18.226,8.169 2.858,1.695 5.602,3.605 8.017,5.87 2.394,2.258 4.492,4.935 5.491,8.056 0.059,0.192 0.264,0.3 0.458,0.24 0.192,-0.061 0.298,-0.268 0.24,-0.46 -1.043,-3.301 -3.216,-6.075 -5.656,-8.399 -2.465,-2.33 -5.245,-4.279 -8.133,-6.008 -5.798,-3.444 -12.023,-6.063 -18.343,-8.319 -12.675,-4.463 -25.803,-7.453 -39.005,-9.779 -26.444,-4.56 -53.301,-6.352 -80.111,-6.35 -26.808,0.078 -53.672,1.938 -80.114,6.683 -13.197,2.428 -26.327,5.533 -38.957,10.284 -6.29,2.408 -12.488,5.213 -18.144,9.049 -2.806,1.934 -5.491,4.138 -7.682,6.873 -1.089,1.366 -2.045,2.875 -2.735,4.53 -0.691,1.642 -1.086,3.486 -1.092,5.259 l 0,0.051 C -2.09,0.58 -1.624,1.049 -1.047,1.051 -0.471,1.053 -0.002,0.587 0,0.011 L 0,0 z"
                     inkscape:connector-curvature="0" />
                </g>
                <g
                   transform="translate(355.5,94.7012)"
                   id="g3878">
                  <path
                     id="path3880"
                     style="fill:#9c1661;fill-opacity:1;fill-rule:nonzero;stroke:none"
                     d="m 0,0 c 0.349,-1.865 1.085,-4.231 2.028,-5.782 l -2.753,1.567 -3.119,-0.557 C -2.436,-3.626 -0.951,-1.642 0,0"
                     inkscape:connector-curvature="0" />
                </g>
              </g>
            </g>
          </g>
        </g>
      </g>
    </g>
  </g>
</svg>
