<?xml version="1.0" encoding="UTF-8" standalone="no"?>
<!-- Created with Inkscape (http://www.inkscape.org/) -->

<svg
   xmlns:dc="http://purl.org/dc/elements/1.1/"
   xmlns:cc="http://creativecommons.org/ns#"
   xmlns:rdf="http://www.w3.org/1999/02/22-rdf-syntax-ns#"
   xmlns:svg="http://www.w3.org/2000/svg"
   xmlns="http://www.w3.org/2000/svg"
   xmlns:sodipodi="http://sodipodi.sourceforge.net/DTD/sodipodi-0.dtd"
   xmlns:inkscape="http://www.inkscape.org/namespaces/inkscape"
   width="79.617996mm"
   height="29.29269mm"
   viewBox="0 0 282.11101 103.793"
   id="svg2"
   version="1.1"
   inkscape:version="0.91 r13725"
   sodipodi:docname="bscc.svg">
  <defs
     id="defs4">
    <clipPath
       id="clipPath3401"
       clipPathUnits="userSpaceOnUse">
      <path
         inkscape:connector-curvature="0"
         id="path3403"
         d="M 0,0 523,0 523,215 0,215 0,0 Z" />
    </clipPath>
    <clipPath
       id="clipPath3845"
       clipPathUnits="userSpaceOnUse">
      <path
         inkscape:connector-curvature="0"
         id="path3847"
         d="M 0,0 621,0 621,216 0,216 0,0 Z" />
    </clipPath>
  </defs>
  <sodipodi:namedview
     id="base"
     pagecolor="#ffffff"
     bordercolor="#666666"
     borderopacity="1.0"
     inkscape:pageopacity="0.0"
     inkscape:pageshadow="2"
     inkscape:zoom="1.8185106"
     inkscape:cx="173.42619"
     inkscape:cy="53.536267"
     inkscape:document-units="px"
     inkscape:current-layer="layer1"
     showgrid="false"
     fit-margin-top="0"
     fit-margin-left="0"
     fit-margin-right="0"
     fit-margin-bottom="0"
     inkscape:window-width="1364"
     inkscape:window-height="726"
     inkscape:window-x="0"
     inkscape:window-y="20"
     inkscape:window-maximized="1" />
  <metadata
     id="metadata7">
    <rdf:RDF>
      <cc:Work
         rdf:about="">
        <dc:format>image/svg+xml</dc:format>
        <dc:type
           rdf:resource="http://purl.org/dc/dcmitype/StillImage" />
        <dc:title></dc:title>
      </cc:Work>
    </rdf:RDF>
  </metadata>
  <g
     inkscape:label="Layer 1"
     inkscape:groupmode="layer"
     id="layer1"
     transform="translate(-222.2881,-150.6769)">
    <g
       id="g3397"
       transform="matrix(0.542,0,0,-0.542,220.9331,254.4699)">
      <g
         clip-path="url(#clipPath3401)"
         id="g3399">
        <g
           id="g3405" />
        <g
           id="g3407">
          <path
             inkscape:connector-curvature="0"
             id="path3409"
             style="fill:#ffffff;fill-opacity:1;fill-rule:nonzero;stroke:none"
             d="m 2.5,-541.5 576,0 0,733 -576,0 0,-733 z" />
          <path
             inkscape:connector-curvature="0"
             id="path3411"
             style="fill:#42a5d7;fill-opacity:1;fill-rule:nonzero;stroke:none"
             d="m 289.0976,69.43558 c 6.038,-13.6346 -0.1204,-29.58229 -13.755,-35.62018 -13.6346,-6.03795 -29.5823,0.12036 -35.6202,13.755 -6.0379,13.6346 0.1204,29.58229 13.755,35.62017 13.6346,6.03796 29.5823,-0.12036 35.6202,-13.75499" />
          <g
             transform="matrix(1,0,0,-1,3.5,190.5)"
             id="g3413">
            <path
               inkscape:connector-curvature="0"
               id="path3415"
               style="fill:none;stroke:#000000;stroke-width:4;stroke-linecap:butt;stroke-linejoin:miter;stroke-miterlimit:10;stroke-dasharray:none;stroke-opacity:1"
               d="m 285.5976,121.0644 c 6.038,13.6346 -0.1204,29.5823 -13.755,35.6202 -13.6346,6.0379 -29.5823,-0.1204 -35.6202,-13.755 -6.0379,-13.6346 0.1204,-29.5823 13.755,-35.6202 13.6346,-6.0379 29.5823,0.1204 35.6202,13.755" />
          </g>
          <path
             inkscape:connector-curvature="0"
             id="path3417"
             style="fill:#acb6b9;fill-opacity:1;fill-rule:nonzero;stroke:none"
             d="m 97.09748,166.519 c 6.03792,-13.6346 -0.12036,-29.5823 -13.755,-35.6202 -13.63459,-6.0379 -29.58229,0.1204 -35.62017,13.755 -6.03795,13.6347 0.12036,29.5823 13.755,35.6202 13.6346,6.038 29.58229,-0.1203 35.62017,-13.755" />
          <g
             transform="matrix(1,0,0,-1,3.5,190.5)"
             id="g3419">
            <path
               inkscape:connector-curvature="0"
               id="path3421"
               style="fill:none;stroke:#000000;stroke-width:4;stroke-linecap:butt;stroke-linejoin:miter;stroke-miterlimit:10;stroke-dasharray:none;stroke-opacity:1"
               d="m 93.59748,23.98099 c 6.03796,13.6346 -0.12036,29.58227 -13.755,35.62018 C 66.20789,65.63911 50.26019,59.48079 44.22231,45.84616 38.18436,32.21155 44.34267,16.26387 57.97731,10.22598 71.61191,4.188034 87.5596,10.34634 93.59748,23.98099" />
          </g>
          <path
             inkscape:connector-curvature="0"
             id="path3423"
             style="fill:#acb6b9;fill-opacity:1;fill-rule:nonzero;stroke:none"
             d="m 289.0976,166.519 c 6.038,-13.6346 -0.1204,-29.5823 -13.755,-35.6202 -13.6346,-6.0379 -29.5823,0.1204 -35.6202,13.755 -6.0379,13.6347 0.1204,29.5823 13.755,35.6202 13.6346,6.038 29.5823,-0.1203 35.6202,-13.755" />
          <g
             transform="matrix(1,0,0,-1,3.5,190.5)"
             id="g3425">
            <path
               inkscape:connector-curvature="0"
               id="path3427"
               style="fill:none;stroke:#000000;stroke-width:4;stroke-linecap:butt;stroke-linejoin:miter;stroke-miterlimit:10;stroke-dasharray:none;stroke-opacity:1"
               d="m 285.5976,23.98099 c 6.038,13.6346 -0.1204,29.58227 -13.755,35.62018 -13.6346,6.03794 -29.5823,-0.12038 -35.6202,-13.75501 -6.0379,-13.63461 0.1204,-29.58229 13.755,-35.62018 13.6346,-6.037946 29.5823,0.12036 35.6202,13.75501" />
          </g>
          <g
             transform="matrix(1,0,0,-1,3.5,190.5)"
             id="g3429">
            <path
               inkscape:connector-curvature="0"
               id="path3431"
               style="fill:none;stroke:#000000;stroke-width:4;stroke-linecap:round;stroke-linejoin:round;stroke-miterlimit:10;stroke-dasharray:none;stroke-opacity:1"
               d="M 97.91664,34.91327 224.5233,34.91193" />
          </g>
          <path
             inkscape:connector-curvature="0"
             id="path3433"
             style="fill:#000000;fill-opacity:1;fill-rule:nonzero;stroke:none"
             d="m 229.3032,155.5881 -1.28,0.48 0,-0.96 1.28,0.48 z" />
          <g
             transform="matrix(1,0,0,-1,3.5,190.5)"
             id="g3435">
            <path
               inkscape:connector-curvature="0"
               id="path3437"
               style="fill:none;stroke:#000000;stroke-width:4;stroke-linecap:butt;stroke-linejoin:miter;stroke-miterlimit:10;stroke-dasharray:none;stroke-opacity:1"
               d="m 225.8032,34.91191 -1.28,-0.47999 0,0.96 1.28,-0.48001 z" />
          </g>
          <g
             transform="matrix(1,0,0,-1,3.5,190.5)"
             id="g3439">
            <path
               inkscape:connector-curvature="0"
               id="path3441"
               style="fill:none;stroke:#000000;stroke-width:4;stroke-linecap:round;stroke-linejoin:round;stroke-miterlimit:10;stroke-dasharray:8, 8;stroke-dashoffset:0;stroke-opacity:1"
               d="M 94.79033,47.99983 228.4436,115.5807" />
          </g>
          <path
             inkscape:connector-curvature="0"
             id="path3443"
             style="fill:#000000;fill-opacity:1;fill-rule:nonzero;stroke:none"
             d="m 233.0859,74.34174 -0.9257,1.00594 -0.4332,-0.85671 1.3589,-0.14923 z" />
          <g
             transform="matrix(1,0,0,-1,3.5,190.5)"
             id="g3445">
            <path
               inkscape:connector-curvature="0"
               id="path3447"
               style="fill:none;stroke:#000000;stroke-width:4;stroke-linecap:butt;stroke-linejoin:miter;stroke-miterlimit:10;stroke-dasharray:none;stroke-opacity:1"
               d="m 229.5859,116.1583 -0.9257,-1.006 -0.4332,0.8567 1.3589,0.1493 z" />
          </g>
          <path
             inkscape:connector-curvature="0"
             id="path3449"
             style="fill:#42a5d7;fill-opacity:1;fill-rule:nonzero;stroke:none"
             d="M 97.09748,69.43558 C 103.1354,55.80098 96.97712,39.85329 83.34248,33.8154 69.70789,27.77745 53.76019,33.93576 47.72231,47.5704 41.68436,61.205 47.84267,77.15269 61.47731,83.19057 75.11191,89.22853 91.0596,83.07021 97.09748,69.43558" />
          <g
             transform="matrix(1,0,0,-1,3.5,190.5)"
             id="g3451">
            <path
               inkscape:connector-curvature="0"
               id="path3453"
               style="fill:none;stroke:#000000;stroke-width:4;stroke-linecap:butt;stroke-linejoin:miter;stroke-miterlimit:10;stroke-dasharray:none;stroke-opacity:1"
               d="m 93.59748,121.0644 c 6.03796,13.6346 -0.12036,29.5823 -13.755,35.6202 -13.63459,6.0379 -29.58229,-0.1204 -35.62017,-13.755 -6.03795,-13.6346 0.12036,-29.5823 13.755,-35.6202 13.6346,-6.0379 29.58229,0.1204 35.62017,13.755" />
          </g>
          <g
             transform="matrix(1,0,0,-1,3.5,190.5)"
             id="g3455">
            <path
               inkscape:connector-curvature="0"
               id="path3457"
               style="fill:none;stroke:#000000;stroke-width:4;stroke-linecap:round;stroke-linejoin:round;stroke-miterlimit:10;stroke-dasharray:8, 8;stroke-dashoffset:0;stroke-opacity:1"
               d="M 94.79015,118.9109 228.4438,51.32986" />
          </g>
          <path
             inkscape:connector-curvature="0"
             id="path3459"
             style="fill:#000000;fill-opacity:1;fill-rule:nonzero;stroke:none"
             d="m 233.0861,139.7477 -1.3589,-0.1492 0.4332,-0.8567 0.9257,1.0059 z" />
          <g
             transform="matrix(1,0,0,-1,3.5,190.5)"
             id="g3461">
            <path
               inkscape:connector-curvature="0"
               id="path3463"
               style="fill:none;stroke:#000000;stroke-width:4;stroke-linecap:butt;stroke-linejoin:miter;stroke-miterlimit:10;stroke-dasharray:none;stroke-opacity:1"
               d="m 229.5861,50.75229 -1.3589,0.14923 0.4332,0.8567 0.9257,-1.00593 z" />
          </g>
          <g
             transform="matrix(1,0,0,-1,3.5,190.5)"
             id="g3465">
            <path
               inkscape:connector-curvature="0"
               id="path3467"
               style="fill:none;stroke:#000000;stroke-width:4;stroke-linecap:round;stroke-linejoin:round;stroke-miterlimit:10;stroke-dasharray:none;stroke-opacity:1"
               d="m 97.91664,131.9967 126.60666,-0.001" />
          </g>
          <path
             inkscape:connector-curvature="0"
             id="path3469"
             style="fill:#000000;fill-opacity:1;fill-rule:nonzero;stroke:none"
             d="m 229.3032,58.50465 -1.28,0.47998 0,-0.95999 1.28,0.48001 z" />
          <g
             transform="matrix(1,0,0,-1,3.5,190.5)"
             id="g3471">
            <path
               inkscape:connector-curvature="0"
               id="path3473"
               style="fill:none;stroke:#000000;stroke-width:4;stroke-linecap:butt;stroke-linejoin:miter;stroke-miterlimit:10;stroke-dasharray:none;stroke-opacity:1"
               d="m 225.8032,131.9953 -1.28,-0.4799 0,0.96 1.28,-0.4801 z" />
          </g>
          <path
             inkscape:connector-curvature="0"
             id="path3475"
             style="fill:#42a5d7;fill-opacity:1;fill-rule:nonzero;stroke:none"
             d="m 488.094,69.43558 c 6.038,-13.6346 -0.1204,-29.58229 -13.755,-35.62018 -13.6346,-6.03795 -29.5823,0.12036 -35.6202,13.755 -6.038,13.6346 0.1204,29.58229 13.755,35.62017 13.6346,6.03796 29.5823,-0.12036 35.6202,-13.75499" />
          <g
             transform="matrix(1,0,0,-1,3.5,190.5)"
             id="g3477">
            <path
               inkscape:connector-curvature="0"
               id="path3479"
               style="fill:none;stroke:#000000;stroke-width:4;stroke-linecap:butt;stroke-linejoin:miter;stroke-miterlimit:10;stroke-dasharray:none;stroke-opacity:1"
               d="m 484.594,121.0644 c 6.038,13.6346 -0.1204,29.5823 -13.755,35.6202 -13.6346,6.0379 -29.5823,-0.1204 -35.6202,-13.755 -6.038,-13.6346 0.1204,-29.5823 13.755,-35.6202 13.6346,-6.0379 29.5823,0.1204 35.6202,13.755" />
          </g>
          <path
             inkscape:connector-curvature="0"
             id="path3481"
             style="fill:#acb6b9;fill-opacity:1;fill-rule:nonzero;stroke:none"
             d="m 488.094,166.518 c 6.038,-13.6346 -0.1204,-29.5823 -13.755,-35.6202 -13.6346,-6.038 -29.5823,0.1204 -35.6202,13.755 -6.038,13.6346 0.1204,29.5823 13.755,35.6202 13.6346,6.0379 29.5823,-0.1204 35.6202,-13.755" />
          <g
             transform="matrix(1,0,0,-1,3.5,190.5)"
             id="g3483">
            <path
               inkscape:connector-curvature="0"
               id="path3485"
               style="fill:none;stroke:#000000;stroke-width:4;stroke-linecap:butt;stroke-linejoin:miter;stroke-miterlimit:10;stroke-dasharray:none;stroke-opacity:1"
               d="m 484.594,23.98203 c 6.038,13.63459 -0.1204,29.58229 -13.755,35.62017 -13.6346,6.03795 -29.5823,-0.12036 -35.6202,-13.755 -6.038,-13.6346 0.1204,-29.58229 13.755,-35.62018 13.6346,-6.037948 29.5823,0.12036 35.6202,13.75501" />
          </g>
          <g
             transform="matrix(1,0,0,-1,3.5,190.5)"
             id="g3487">
            <path
               inkscape:connector-curvature="0"
               id="path3489"
               style="fill:none;stroke:#000000;stroke-width:4;stroke-linecap:round;stroke-linejoin:round;stroke-miterlimit:10;stroke-dasharray:none;stroke-opacity:1"
               d="m 289.9168,34.91373 133.6029,7e-4" />
          </g>
          <path
             inkscape:connector-curvature="0"
             id="path3491"
             style="fill:#000000;fill-opacity:1;fill-rule:nonzero;stroke:none"
             d="m 428.2996,155.5856 -1.28,0.48 0,-0.96 1.28,0.48 z" />
          <g
             transform="matrix(1,0,0,-1,3.5,190.5)"
             id="g3493">
            <path
               inkscape:connector-curvature="0"
               id="path3495"
               style="fill:none;stroke:#000000;stroke-width:4;stroke-linecap:butt;stroke-linejoin:miter;stroke-miterlimit:10;stroke-dasharray:none;stroke-opacity:1"
               d="m 424.7996,34.91443 -1.28,-0.48001 0,0.96 1.28,-0.47999 z" />
          </g>
          <g
             transform="matrix(1,0,0,-1,3.5,190.5)"
             id="g3497">
            <path
               inkscape:connector-curvature="0"
               id="path3499"
               style="fill:none;stroke:#000000;stroke-width:4;stroke-linecap:round;stroke-linejoin:round;stroke-miterlimit:10;stroke-dasharray:8, 8;stroke-dashoffset:0;stroke-opacity:1"
               d="M 286.9793,47.61902 427.2418,115.9792" />
          </g>
          <path
             inkscape:connector-curvature="0"
             id="path3501"
             style="fill:#000000;fill-opacity:1;fill-rule:nonzero;stroke:none"
             d="m 431.8924,73.96005 -0.9403,0.99227 -0.4206,-0.86296 1.3609,-0.12931 z" />
          <g
             transform="matrix(1,0,0,-1,3.5,190.5)"
             id="g3503">
            <path
               inkscape:connector-curvature="0"
               id="path3505"
               style="fill:none;stroke:#000000;stroke-width:4;stroke-linecap:butt;stroke-linejoin:miter;stroke-miterlimit:10;stroke-dasharray:none;stroke-opacity:1"
               d="m 428.3924,116.5399 -0.9403,-0.9922 -0.4206,0.8629 1.3609,0.1293 z" />
          </g>
          <g
             transform="matrix(1,0,0,-1,3.5,190.5)"
             id="g3507">
            <path
               inkscape:connector-curvature="0"
               id="path3509"
               style="fill:none;stroke:#000000;stroke-width:4;stroke-linecap:round;stroke-linejoin:round;stroke-miterlimit:10;stroke-dasharray:8, 8;stroke-dashoffset:0;stroke-opacity:1"
               d="M 286.9791,119.2918 427.2419,50.93219" />
          </g>
          <path
             inkscape:connector-curvature="0"
             id="path3511"
             style="fill:#000000;fill-opacity:1;fill-rule:nonzero;stroke:none"
             d="m 431.8926,140.1286 -1.3609,-0.1293 0.4205,-0.863 0.9404,0.9923 z" />
          <g
             transform="matrix(1,0,0,-1,3.5,190.5)"
             id="g3513">
            <path
               inkscape:connector-curvature="0"
               id="path3515"
               style="fill:none;stroke:#000000;stroke-width:4;stroke-linecap:butt;stroke-linejoin:miter;stroke-miterlimit:10;stroke-dasharray:none;stroke-opacity:1"
               d="m 428.3926,50.37141 -1.3609,0.12929 0.4205,0.86298 0.9404,-0.99227 z" />
          </g>
          <g
             transform="matrix(1,0,0,-1,3.5,190.5)"
             id="g3517">
            <path
               inkscape:connector-curvature="0"
               id="path3519"
               style="fill:none;stroke:#000000;stroke-width:4;stroke-linecap:round;stroke-linejoin:round;stroke-miterlimit:10;stroke-dasharray:none;stroke-opacity:1"
               d="m 289.9168,131.997 133.6029,0" />
          </g>
          <path
             inkscape:connector-curvature="0"
             id="path3521"
             style="fill:#000000;fill-opacity:1;fill-rule:nonzero;stroke:none"
             d="m 428.2996,58.50299 -1.28,0.48 0,-0.96 1.28,0.48 z" />
          <g
             transform="matrix(1,0,0,-1,3.5,190.5)"
             id="g3523">
            <path
               inkscape:connector-curvature="0"
               id="path3525"
               style="fill:none;stroke:#000000;stroke-width:4;stroke-linecap:butt;stroke-linejoin:miter;stroke-miterlimit:10;stroke-dasharray:none;stroke-opacity:1"
               d="m 424.7996,131.997 -1.28,-0.48 0,0.96 1.28,-0.48 z" />
          </g>
          <g
             transform="matrix(1,0,0,-1,21.5535,112.0434)"
             id="g3527">
            <text
               id="text3529"
               style="font-variant:normal;font-weight:normal;font-size:36px;font-family:Helvetica;-inkscape-font-specification:Helvetica;writing-mode:lr-tb;fill:#000000;fill-opacity:1;fill-rule:nonzero;stroke:none"
               transform="translate(-12.00586,13.5)">
              <tspan
                 id="tspan3531"
                 y="0"
                 x="0">X</tspan>
            </text>
          </g>
          <g
             transform="matrix(1,0,0,-1,501.5,112.0434)"
             id="g3533">
            <text
               id="text3535"
               style="font-variant:normal;font-weight:normal;font-size:36px;font-family:Helvetica;-inkscape-font-specification:Helvetica;writing-mode:lr-tb;fill:#000000;fill-opacity:1;fill-rule:nonzero;stroke:none"
               transform="translate(-12.00586,13.5)">
              <tspan
                 id="tspan3537"
                 y="0"
                 x="0">Y</tspan>
            </text>
          </g>
          <g
             transform="matrix(1,0,0,-1,71.9099,159.5434)"
             id="g3539">
            <text
               id="text3541"
               style="font-variant:normal;font-weight:normal;font-size:36px;font-family:Helvetica;-inkscape-font-specification:Helvetica;writing-mode:lr-tb;fill:#000000;fill-opacity:1;fill-rule:nonzero;stroke:none"
               transform="translate(-10.01074,13.5)">
              <tspan
                 id="tspan3543"
                 y="0"
                 x="0">0</tspan>
            </text>
          </g>
          <g
             transform="matrix(1,0,0,-1,263.91,159.5434)"
             id="g3545">
            <text
               id="text3547"
               style="font-variant:normal;font-weight:normal;font-size:36px;font-family:Helvetica;-inkscape-font-specification:Helvetica;writing-mode:lr-tb;fill:#000000;fill-opacity:1;fill-rule:nonzero;stroke:none"
               transform="translate(-10.01074,13.5)">
              <tspan
                 id="tspan3549"
                 y="0"
                 x="0">0</tspan>
            </text>
          </g>
          <g
             transform="matrix(1,0,0,-1,462.9064,160.0434)"
             id="g3551">
            <text
               id="text3553"
               style="font-variant:normal;font-weight:normal;font-size:36px;font-family:Helvetica;-inkscape-font-specification:Helvetica;writing-mode:lr-tb;fill:#000000;fill-opacity:1;fill-rule:nonzero;stroke:none"
               transform="translate(-10.01074,13.5)">
              <tspan
                 id="tspan3555"
                 y="0"
                 x="0">0</tspan>
            </text>
          </g>
          <g
             transform="matrix(1,0,0,-1,462.9064,59.50299)"
             id="g3557">
            <text
               id="text3559"
               style="font-variant:normal;font-weight:normal;font-size:36px;font-family:Helvetica;-inkscape-font-specification:Helvetica;writing-mode:lr-tb;fill:#000000;fill-opacity:1;fill-rule:nonzero;stroke:none"
               transform="translate(-10.01074,13.5)">
              <tspan
                 id="tspan3561"
                 y="0"
                 x="0">1</tspan>
            </text>
          </g>
          <g
             transform="matrix(1,0,0,-1,263.91,59.00299)"
             id="g3563">
            <text
               id="text3565"
               style="font-variant:normal;font-weight:normal;font-size:36px;font-family:Helvetica;-inkscape-font-specification:Helvetica;writing-mode:lr-tb;fill:#000000;fill-opacity:1;fill-rule:nonzero;stroke:none"
               transform="translate(-10.01074,13.5)">
              <tspan
                 id="tspan3567"
                 y="0"
                 x="0">1</tspan>
            </text>
          </g>
          <g
             transform="matrix(1,0,0,-1,71.9099,59.00299)"
             id="g3569">
            <text
               id="text3571"
               style="font-variant:normal;font-weight:normal;font-size:36px;font-family:Helvetica;-inkscape-font-specification:Helvetica;writing-mode:lr-tb;fill:#000000;fill-opacity:1;fill-rule:nonzero;stroke:none"
               transform="translate(-10.01074,13.5)">
              <tspan
                 id="tspan3573"
                 y="0"
                 x="0">1</tspan>
            </text>
          </g>
          <path
             inkscape:connector-curvature="0"
             id="path3575"
             style="fill:#ffffff;fill-opacity:1;fill-rule:nonzero;stroke:none"
             d="m 119.96,110.0434 20.99999,0 0,43 -20.99999,0 0,-43 z" />
          <g
             transform="matrix(1,0,0,-1,130.46,131.5434)"
             id="g3577">
            <text
               id="text3579"
               style="font-variant:normal;font-weight:normal;font-size:36px;font-family:Helvetica;-inkscape-font-specification:Helvetica;writing-mode:lr-tb;fill:#000000;fill-opacity:1;fill-rule:nonzero;stroke:none"
               transform="translate(-10.01074,13.5)">
              <tspan
                 id="tspan3581"
                 y="0"
                 x="0">p</tspan>
            </text>
          </g>
          <path
             inkscape:connector-curvature="0"
             id="path3583"
             style="fill:#ffffff;fill-opacity:1;fill-rule:nonzero;stroke:none"
             d="m 122.7481,68.51821 21,0 0,43 -21,0 0,-43 z" />
          <g
             transform="matrix(1,0,0,-1,133.2481,90.01821)"
             id="g3585">
            <text
               id="text3587"
               style="font-variant:normal;font-weight:normal;font-size:36px;font-family:Helvetica;-inkscape-font-specification:Helvetica;writing-mode:lr-tb;fill:#000000;fill-opacity:1;fill-rule:nonzero;stroke:none"
               transform="translate(-10.01074,13.5)">
              <tspan
                 id="tspan3589"
                 y="0"
                 x="0">p</tspan>
            </text>
          </g>
          <path
             inkscape:connector-curvature="0"
             id="path3591"
             style="fill:#ffffff;fill-opacity:1;fill-rule:nonzero;stroke:none"
             d="m 327.23,109.5684 21,0 0,43 -21,0 0,-43 z" />
          <g
             transform="matrix(1,0,0,-1,337.73,131.0684)"
             id="g3593">
            <text
               id="text3595"
               style="font-variant:normal;font-weight:normal;font-size:36px;font-family:Helvetica;-inkscape-font-specification:Helvetica;writing-mode:lr-tb;fill:#000000;fill-opacity:1;fill-rule:nonzero;stroke:none"
               transform="translate(-10.01074,13.5)">
              <tspan
                 id="tspan3597"
                 y="0"
                 x="0">p</tspan>
            </text>
          </g>
          <path
             inkscape:connector-curvature="0"
             id="path3599"
             style="fill:#ffffff;fill-opacity:1;fill-rule:nonzero;stroke:none"
             d="m 330.02,68.0334 21,0 0,43 -21,0 0,-43 z" />
          <g
             transform="matrix(1,0,0,-1,340.52,89.5334)"
             id="g3601">
            <text
               id="text3603"
               style="font-variant:normal;font-weight:normal;font-size:36px;font-family:Helvetica;-inkscape-font-specification:Helvetica;writing-mode:lr-tb;fill:#000000;fill-opacity:1;fill-rule:nonzero;stroke:none"
               transform="translate(-10.01074,13.5)">
              <tspan
                 id="tspan3605"
                 y="0"
                 x="0">p</tspan>
            </text>
          </g>
        </g>
      </g>
    </g>
  </g>
</svg>
