<?xml version="1.0" encoding="UTF-8" standalone="no"?>
<!-- Created with Inkscape (http://www.inkscape.org/) -->

<svg
   xmlns:dc="http://purl.org/dc/elements/1.1/"
   xmlns:cc="http://creativecommons.org/ns#"
   xmlns:rdf="http://www.w3.org/1999/02/22-rdf-syntax-ns#"
   xmlns:svg="http://www.w3.org/2000/svg"
   xmlns="http://www.w3.org/2000/svg"
   xmlns:sodipodi="http://sodipodi.sourceforge.net/DTD/sodipodi-0.dtd"
   xmlns:inkscape="http://www.inkscape.org/namespaces/inkscape"
   width="77.394028mm"
   height="20.042784mm"
   viewBox="0 0 274.23081 71.017737"
   id="svg2"
   version="1.1"
   inkscape:version="0.91 r13725"
   sodipodi:docname="c-enc-c.svg">
  <defs
     id="defs4">
    <clipPath
       id="clipPath4220"
       clipPathUnits="userSpaceOnUse">
      <path
         inkscape:connector-curvature="0"
         id="path4222"
         d="M 0,0 523,0 523,215 0,215 0,0 Z" />
    </clipPath>
    <clipPath
       id="clipPath4664"
       clipPathUnits="userSpaceOnUse">
      <path
         inkscape:connector-curvature="0"
         id="path4666"
         d="M 0,0 621,0 621,216 0,216 0,0 Z" />
    </clipPath>
  </defs>
  <sodipodi:namedview
     id="base"
     pagecolor="#ffffff"
     bordercolor="#666666"
     borderopacity="1.0"
     inkscape:pageopacity="0.0"
     inkscape:pageshadow="2"
     inkscape:zoom="0.94166667"
     inkscape:cx="187.20439"
     inkscape:cy="8.9910959"
     inkscape:document-units="px"
     inkscape:current-layer="layer1"
     showgrid="false"
     fit-margin-top="0"
     fit-margin-left="0"
     fit-margin-right="0"
     fit-margin-bottom="0"
     inkscape:window-width="1364"
     inkscape:window-height="726"
     inkscape:window-x="0"
     inkscape:window-y="20"
     inkscape:window-maximized="1" />
  <metadata
     id="metadata7">
    <rdf:RDF>
      <cc:Work
         rdf:about="">
        <dc:format>image/svg+xml</dc:format>
        <dc:type
           rdf:resource="http://purl.org/dc/dcmitype/StillImage" />
        <dc:title></dc:title>
      </cc:Work>
    </rdf:RDF>
  </metadata>
  <g
     inkscape:label="Layer 1"
     inkscape:groupmode="layer"
     id="layer1"
     transform="translate(-182.79561,-393.1927)">
    <g
       transform="matrix(0.4564625,0,0,-0.4564625,178.07595,477.9059)"
       id="g4656">
      <g
         id="g4658">
        <g
           id="g4660">
          <g
             clip-path="url(#clipPath4664)"
             id="g4662">
            <g
               id="g4668" />
            <g
               id="g4670">
              <path
                 inkscape:connector-curvature="0"
                 id="path4674"
                 style="fill:#42a5d7;fill-opacity:1;fill-rule:nonzero;stroke:none"
                 d="m 289.0975,70.43594 c 6.0379,-13.63459 -0.1204,-29.58229 -13.755,-35.62017 -13.6346,-6.03795 -29.5823,0.12036 -35.6202,13.755 -6.0379,13.6346 0.1204,29.58229 13.755,35.62017 13.6346,6.03796 29.5823,-0.12036 35.6202,-13.755" />
              <g
                 transform="matrix(1,0,0,-1,3.5,191.5)"
                 id="g4676">
                <path
                   inkscape:connector-curvature="0"
                   id="path4678"
                   style="fill:none;stroke:#000000;stroke-width:4;stroke-linecap:butt;stroke-linejoin:miter;stroke-miterlimit:10;stroke-dasharray:none;stroke-opacity:1"
                   d="m 285.5975,121.0641 c 6.0379,13.6346 -0.1204,29.5822 -13.755,35.6201 -13.6346,6.038 -29.5823,-0.1203 -35.6202,-13.755 -6.0379,-13.6346 0.1204,-29.5823 13.755,-35.6201 13.6346,-6.038 29.5823,0.1203 35.6202,13.755" />
              </g>
              <path
                 inkscape:connector-curvature="0"
                 id="path4680"
                 style="fill:#acb6b9;fill-opacity:1;fill-rule:nonzero;stroke:none"
                 d="m 97.0975,167.519 c 6.038,-13.6346 -0.12037,-29.5823 -13.755,-35.6202 -13.6346,-6.0379 -29.58229,0.1204 -35.62017,13.755 -6.03796,13.6346 0.12036,29.5823 13.755,35.6202 13.63459,6.038 29.58229,-0.1203 35.62017,-13.755" />
              <g
                 transform="matrix(1,0,0,-1,3.5,191.5)"
                 id="g4682">
                <path
                   inkscape:connector-curvature="0"
                   id="path4684"
                   style="fill:none;stroke:#000000;stroke-width:4;stroke-linecap:butt;stroke-linejoin:miter;stroke-miterlimit:10;stroke-dasharray:none;stroke-opacity:1"
                   d="M 93.5975,23.98099 C 99.63545,37.61559 93.47713,53.56328 79.8425,59.60117 66.2079,65.63911 50.26021,59.4808 44.22233,45.84616 38.18437,32.21156 44.34269,16.26387 57.97733,10.22598 71.61192,4.188034 87.55962,10.34634 93.5975,23.98099" />
              </g>
              <path
                 inkscape:connector-curvature="0"
                 id="path4686"
                 style="fill:#acb6b9;fill-opacity:1;fill-rule:nonzero;stroke:none"
                 d="m 289.0975,167.519 c 6.0379,-13.6346 -0.1204,-29.5823 -13.755,-35.6202 -13.6346,-6.0379 -29.5823,0.1204 -35.6202,13.755 -6.0379,13.6346 0.1204,29.5823 13.755,35.6202 13.6346,6.038 29.5823,-0.1203 35.6202,-13.755" />
              <g
                 transform="matrix(1,0,0,-1,3.5,191.5)"
                 id="g4688">
                <path
                   inkscape:connector-curvature="0"
                   id="path4690"
                   style="fill:none;stroke:#000000;stroke-width:4;stroke-linecap:butt;stroke-linejoin:miter;stroke-miterlimit:10;stroke-dasharray:none;stroke-opacity:1"
                   d="m 285.5975,23.98099 c 6.0379,13.6346 -0.1204,29.58229 -13.755,35.62018 -13.6346,6.03794 -29.5823,-0.12037 -35.6202,-13.75501 -6.0379,-13.6346 0.1204,-29.58229 13.755,-35.62018 13.6346,-6.037946 29.5823,0.12036 35.6202,13.75501" />
              </g>
              <g
                 transform="matrix(1,0,0,-1,3.5,191.5)"
                 id="g4692">
                <path
                   inkscape:connector-curvature="0"
                   id="path4694"
                   style="fill:none;stroke:#000000;stroke-width:4;stroke-linecap:round;stroke-linejoin:round;stroke-miterlimit:10;stroke-dasharray:none;stroke-opacity:1"
                   d="M 97.9152,34.6073 224.5758,33.26981" />
              </g>
              <path
                 inkscape:connector-curvature="0"
                 id="path4696"
                 style="fill:#000000;fill-opacity:1;fill-rule:nonzero;stroke:none"
                 d="m 229.3558,158.2437 -1.285,0.4665 0.0101,-0.96 1.2749,0.4935 z" />
              <g
                 transform="matrix(1,0,0,-1,3.5,191.5)"
                 id="g4698">
                <path
                   inkscape:connector-curvature="0"
                   id="path4700"
                   style="fill:none;stroke:#000000;stroke-width:4;stroke-linecap:butt;stroke-linejoin:miter;stroke-miterlimit:10;stroke-dasharray:none;stroke-opacity:1"
                   d="m 225.8558,33.2563 -1.285,-0.46646 0.0101,0.95995 1.2749,-0.49349 z" />
              </g>
              <g
                 transform="matrix(1,0,0,-1,3.5,191.5)"
                 id="g4702">
                <path
                   inkscape:connector-curvature="0"
                   id="path4704"
                   style="fill:none;stroke:#000000;stroke-width:4;stroke-linecap:round;stroke-linejoin:round;stroke-miterlimit:10;stroke-dasharray:8, 8;stroke-dashoffset:0;stroke-opacity:1"
                   d="M 94.78075,48.01883 228.3845,115.6978" />
              </g>
              <path
                 inkscape:connector-curvature="0"
                 id="path4706"
                 style="fill:#000000;fill-opacity:1;fill-rule:nonzero;stroke:none"
                 d="m 233.0264,75.22375 -0.925,1.00661 -0.4338,-0.85638 1.3588,-0.15023 z" />
              <g
                 transform="matrix(1,0,0,-1,3.5,191.5)"
                 id="g4708">
                <path
                   inkscape:connector-curvature="0"
                   id="path4710"
                   style="fill:none;stroke:#000000;stroke-width:4;stroke-linecap:butt;stroke-linejoin:miter;stroke-miterlimit:10;stroke-dasharray:none;stroke-opacity:1"
                   d="m 229.5264,116.2763 -0.925,-1.0067 -0.4338,0.8564 1.3588,0.1503 z" />
              </g>
              <path
                 inkscape:connector-curvature="0"
                 id="path4712"
                 style="fill:#42a5d7;fill-opacity:1;fill-rule:nonzero;stroke:none"
                 d="m 97.0975,70.43594 c 6.038,-13.63459 -0.12037,-29.58229 -13.755,-35.62017 -13.6346,-6.03795 -29.58229,0.12036 -35.62017,13.755 -6.03796,13.6346 0.12036,29.58229 13.755,35.62017 13.63459,6.03796 29.58229,-0.12036 35.62017,-13.755" />
              <g
                 transform="matrix(1,0,0,-1,3.5,191.5)"
                 id="g4714">
                <path
                   inkscape:connector-curvature="0"
                   id="path4716"
                   style="fill:none;stroke:#000000;stroke-width:4;stroke-linecap:butt;stroke-linejoin:miter;stroke-miterlimit:10;stroke-dasharray:none;stroke-opacity:1"
                   d="m 93.5975,121.0641 c 6.03795,13.6346 -0.12037,29.5822 -13.755,35.6201 -13.6346,6.038 -29.58229,-0.1203 -35.62017,-13.755 -6.03796,-13.6346 0.12036,-29.5823 13.755,-35.6201 13.63459,-6.038 29.58229,0.1203 35.62017,13.755" />
              </g>
              <g
                 transform="matrix(1,0,0,-1,3.5,191.5)"
                 id="g4718">
                <path
                   inkscape:connector-curvature="0"
                   id="path4720"
                   style="fill:none;stroke:#000000;stroke-width:4;stroke-linecap:round;stroke-linejoin:round;stroke-miterlimit:10;stroke-dasharray:8, 8;stroke-dashoffset:0;stroke-opacity:1"
                   d="M 94.78513,118.9005 228.4125,51.26791" />
              </g>
              <path
                 inkscape:connector-curvature="0"
                 id="path4722"
                 style="fill:#000000;fill-opacity:1;fill-rule:nonzero;stroke:none"
                 d="m 233.0546,140.8101 -1.3588,-0.1497 0.4335,-0.8566 0.9253,1.0063 z" />
              <g
                 transform="matrix(1,0,0,-1,3.5,191.5)"
                 id="g4724">
                <path
                   inkscape:connector-curvature="0"
                   id="path4726"
                   style="fill:none;stroke:#000000;stroke-width:4;stroke-linecap:butt;stroke-linejoin:miter;stroke-miterlimit:10;stroke-dasharray:none;stroke-opacity:1"
                   d="m 229.5546,50.6899 -1.3588,0.14975 0.4335,0.85653 0.9253,-1.00628 z" />
              </g>
              <g
                 transform="matrix(1,0,0,-1,3.5,191.5)"
                 id="g4728">
                <path
                   inkscape:connector-curvature="0"
                   id="path4730"
                   style="fill:none;stroke:#000000;stroke-width:4;stroke-linecap:round;stroke-linejoin:round;stroke-miterlimit:10;stroke-dasharray:none;stroke-opacity:1"
                   d="m 97.9152,131.6904 126.6606,-1.3375" />
              </g>
              <path
                 inkscape:connector-curvature="0"
                 id="path4732"
                 style="fill:#000000;fill-opacity:1;fill-rule:nonzero;stroke:none"
                 d="m 229.3558,61.16063 -1.285,0.46646 0.0101,-0.95995 1.2749,0.49349 z" />
              <g
                 transform="matrix(1,0,0,-1,3.5,191.5)"
                 id="g4734">
                <path
                   inkscape:connector-curvature="0"
                   id="path4736"
                   style="fill:none;stroke:#000000;stroke-width:4;stroke-linecap:butt;stroke-linejoin:miter;stroke-miterlimit:10;stroke-dasharray:none;stroke-opacity:1"
                   d="m 225.8558,130.3394 -1.285,-0.4665 0.0101,0.96 1.2749,-0.4935 z" />
              </g>
              <path
                 inkscape:connector-curvature="0"
                 id="path4738"
                 style="fill:#42a5d7;fill-opacity:1;fill-rule:nonzero;stroke:none"
                 d="m 577.0975,69.93594 c 6.0379,-13.63459 -0.1204,-29.58229 -13.755,-35.62017 -13.6346,-6.03795 -29.5823,0.12036 -35.6201,13.755 -6.038,13.6346 0.1203,29.58229 13.7549,35.62017 13.6346,6.03796 29.5823,-0.12036 35.6202,-13.755" />
              <g
                 transform="matrix(1,0,0,-1,3.5,191.5)"
                 id="g4740">
                <path
                   inkscape:connector-curvature="0"
                   id="path4742"
                   style="fill:none;stroke:#000000;stroke-width:4;stroke-linecap:butt;stroke-linejoin:miter;stroke-miterlimit:10;stroke-dasharray:none;stroke-opacity:1"
                   d="m 573.5975,121.5641 c 6.0379,13.6346 -0.1204,29.5822 -13.755,35.6201 -13.6346,6.038 -29.5823,-0.1203 -35.6201,-13.755 -6.038,-13.6346 0.1203,-29.5823 13.7549,-35.6201 13.6346,-6.038 29.5823,0.1203 35.6202,13.755" />
              </g>
              <path
                 inkscape:connector-curvature="0"
                 id="path4744"
                 style="fill:#acb6b9;fill-opacity:1;fill-rule:nonzero;stroke:none"
                 d="m 385.0975,167.018 c 6.0379,-13.6346 -0.1204,-29.5823 -13.755,-35.6202 -13.6346,-6.038 -29.5823,0.1204 -35.6202,13.755 -6.0379,13.6346 0.1204,29.5823 13.755,35.6202 13.6346,6.0379 29.5823,-0.1204 35.6202,-13.755" />
              <g
                 transform="matrix(1,0,0,-1,3.5,191.5)"
                 id="g4746">
                <path
                   inkscape:connector-curvature="0"
                   id="path4748"
                   style="fill:none;stroke:#000000;stroke-width:4;stroke-linecap:butt;stroke-linejoin:miter;stroke-miterlimit:10;stroke-dasharray:none;stroke-opacity:1"
                   d="m 381.5975,24.48203 c 6.0379,13.63459 -0.1204,29.58229 -13.755,35.62017 -13.6346,6.03795 -29.5823,-0.12036 -35.6202,-13.755 -6.0379,-13.6346 0.1204,-29.58229 13.755,-35.62018 13.6346,-6.037948 29.5823,0.12036 35.6202,13.75501" />
              </g>
              <path
                 inkscape:connector-curvature="0"
                 id="path4750"
                 style="fill:#acb6b9;fill-opacity:1;fill-rule:nonzero;stroke:none"
                 d="m 577.0975,167.018 c 6.0379,-13.6346 -0.1204,-29.5823 -13.755,-35.6202 -13.6346,-6.038 -29.5823,0.1204 -35.6201,13.755 -6.038,13.6346 0.1203,29.5823 13.7549,35.6202 13.6346,6.0379 29.5823,-0.1204 35.6202,-13.755" />
              <g
                 transform="matrix(1,0,0,-1,3.5,191.5)"
                 id="g4752">
                <path
                   inkscape:connector-curvature="0"
                   id="path4754"
                   style="fill:none;stroke:#000000;stroke-width:4;stroke-linecap:butt;stroke-linejoin:miter;stroke-miterlimit:10;stroke-dasharray:none;stroke-opacity:1"
                   d="m 573.5975,24.48203 c 6.0379,13.63459 -0.1204,29.58229 -13.755,35.62017 -13.6346,6.03795 -29.5823,-0.12036 -35.6201,-13.755 -6.038,-13.6346 0.1203,-29.58229 13.7549,-35.62018 13.6346,-6.037948 29.5823,0.12036 35.6202,13.75501" />
              </g>
              <g
                 transform="matrix(1,0,0,-1,3.5,191.5)"
                 id="g4756">
                <path
                   inkscape:connector-curvature="0"
                   id="path4758"
                   style="fill:none;stroke:#000000;stroke-width:4;stroke-linecap:round;stroke-linejoin:round;stroke-miterlimit:10;stroke-dasharray:none;stroke-opacity:1"
                   d="M 385.9152,35.10834 512.5759,33.77086" />
              </g>
              <path
                 inkscape:connector-curvature="0"
                 id="path4760"
                 style="fill:#000000;fill-opacity:1;fill-rule:nonzero;stroke:none"
                 d="m 517.3558,157.7427 -1.285,0.4664 0.0101,-0.9599 1.2749,0.4935 z" />
              <g
                 transform="matrix(1,0,0,-1,3.5,191.5)"
                 id="g4762">
                <path
                   inkscape:connector-curvature="0"
                   id="path4764"
                   style="fill:none;stroke:#000000;stroke-width:4;stroke-linecap:butt;stroke-linejoin:miter;stroke-miterlimit:10;stroke-dasharray:none;stroke-opacity:1"
                   d="m 513.8558,33.75734 -1.285,-0.46646 0.0101,0.95994 1.2749,-0.49348 z" />
              </g>
              <g
                 transform="matrix(1,0,0,-1,3.5,191.5)"
                 id="g4766">
                <path
                   inkscape:connector-curvature="0"
                   id="path4768"
                   style="fill:none;stroke:#000000;stroke-width:4;stroke-linecap:round;stroke-linejoin:round;stroke-miterlimit:10;stroke-dasharray:8, 8;stroke-dashoffset:0;stroke-opacity:1"
                   d="M 382.7808,48.51978 516.3845,116.198" />
              </g>
              <path
                 inkscape:connector-curvature="0"
                 id="path4770"
                 style="fill:#000000;fill-opacity:1;fill-rule:nonzero;stroke:none"
                 d="m 521.0263,74.72363 -0.9249,1.00662 -0.4339,-0.85639 1.3588,-0.15023 z" />
              <g
                 transform="matrix(1,0,0,-1,3.5,191.5)"
                 id="g4772">
                <path
                   inkscape:connector-curvature="0"
                   id="path4774"
                   style="fill:none;stroke:#000000;stroke-width:4;stroke-linecap:butt;stroke-linejoin:miter;stroke-miterlimit:10;stroke-dasharray:none;stroke-opacity:1"
                   d="m 517.5263,116.7764 -0.9249,-1.0066 -0.4339,0.8563 1.3588,0.1503 z" />
              </g>
              <path
                 inkscape:connector-curvature="0"
                 id="path4776"
                 style="fill:#42a5d7;fill-opacity:1;fill-rule:nonzero;stroke:none"
                 d="m 385.0975,69.93594 c 6.0379,-13.63459 -0.1204,-29.58229 -13.755,-35.62017 -13.6346,-6.03795 -29.5823,0.12036 -35.6202,13.755 -6.0379,13.6346 0.1204,29.58229 13.755,35.62017 13.6346,6.03796 29.5823,-0.12036 35.6202,-13.755" />
              <g
                 transform="matrix(1,0,0,-1,3.5,191.5)"
                 id="g4778">
                <path
                   inkscape:connector-curvature="0"
                   id="path4780"
                   style="fill:none;stroke:#000000;stroke-width:4;stroke-linecap:butt;stroke-linejoin:miter;stroke-miterlimit:10;stroke-dasharray:none;stroke-opacity:1"
                   d="m 381.5975,121.5641 c 6.0379,13.6346 -0.1204,29.5822 -13.755,35.6201 -13.6346,6.038 -29.5823,-0.1203 -35.6202,-13.755 -6.0379,-13.6346 0.1204,-29.5823 13.755,-35.6201 13.6346,-6.038 29.5823,0.1203 35.6202,13.755" />
              </g>
              <g
                 transform="matrix(1,0,0,-1,3.5,191.5)"
                 id="g4782">
                <path
                   inkscape:connector-curvature="0"
                   id="path4784"
                   style="fill:none;stroke:#000000;stroke-width:4;stroke-linecap:round;stroke-linejoin:round;stroke-miterlimit:10;stroke-dasharray:8, 8;stroke-dashoffset:0;stroke-opacity:1"
                   d="M 382.5784,118.999 515.2921,49.21228" />
              </g>
              <path
                 inkscape:connector-curvature="0"
                 id="path4786"
                 style="fill:#000000;fill-opacity:1;fill-rule:nonzero;stroke:none"
                 d="m 519.925,142.8835 -1.3563,-0.1709 0.4468,-0.8497 0.9095,1.0206 z" />
              <g
                 transform="matrix(1,0,0,-1,3.5,191.5)"
                 id="g4788">
                <path
                   inkscape:connector-curvature="0"
                   id="path4790"
                   style="fill:none;stroke:#000000;stroke-width:4;stroke-linecap:butt;stroke-linejoin:miter;stroke-miterlimit:10;stroke-dasharray:none;stroke-opacity:1"
                   d="m 516.425,48.61655 -1.3563,0.1709 0.4468,0.84967 0.9095,-1.02057 z" />
              </g>
              <g
                 transform="matrix(1,0,0,-1,3.5,191.5)"
                 id="g4792">
                <path
                   inkscape:connector-curvature="0"
                   id="path4794"
                   style="fill:none;stroke:#000000;stroke-width:4;stroke-linecap:round;stroke-linejoin:round;stroke-miterlimit:10;stroke-dasharray:none;stroke-opacity:1"
                   d="m 385.9152,132.1904 126.6607,-1.3375" />
              </g>
              <path
                 inkscape:connector-curvature="0"
                 id="path4796"
                 style="fill:#000000;fill-opacity:1;fill-rule:nonzero;stroke:none"
                 d="m 517.3558,60.66063 -1.285,0.46646 0.0101,-0.95995 1.2749,0.49349 z" />
              <g
                 transform="matrix(1,0,0,-1,3.5,191.5)"
                 id="g4798">
                <path
                   inkscape:connector-curvature="0"
                   id="path4800"
                   style="fill:none;stroke:#000000;stroke-width:4;stroke-linecap:butt;stroke-linejoin:miter;stroke-miterlimit:10;stroke-dasharray:none;stroke-opacity:1"
                   d="m 513.8558,130.8394 -1.285,-0.4665 0.0101,0.96 1.2749,-0.4935 z" />
              </g>
              <g
                 transform="matrix(1,0,0,-1,21.5535,113.0434)"
                 id="g4802">
                <text
                   id="text4804"
                   style="font-variant:normal;font-weight:normal;font-size:36px;font-family:Helvetica;-inkscape-font-specification:Helvetica;writing-mode:lr-tb;fill:#000000;fill-opacity:1;fill-rule:nonzero;stroke:none"
                   transform="translate(-12.00586,13.5)">
                  <tspan
                     id="tspan4806"
                     y="0"
                     x="0">X</tspan>
                </text>
              </g>
              <g
                 transform="matrix(1,0,0,-1,599.3235,108.0434)"
                 id="g4808">
                <text
                   id="text4810"
                   style="font-variant:normal;font-weight:normal;font-size:36px;font-family:Helvetica;-inkscape-font-specification:Helvetica;writing-mode:lr-tb;fill:#000000;fill-opacity:1;fill-rule:nonzero;stroke:none"
                   transform="translate(-12.00586,13.5)">
                  <tspan
                     id="tspan4812"
                     y="0"
                     x="0">Y</tspan>
                </text>
              </g>
              <g
                 transform="matrix(1,0,0,-1,71.90991,160.5434)"
                 id="g4814">
                <text
                   id="text4816"
                   style="font-variant:normal;font-weight:normal;font-size:36px;font-family:Helvetica;-inkscape-font-specification:Helvetica;writing-mode:lr-tb;fill:#000000;fill-opacity:1;fill-rule:nonzero;stroke:none"
                   transform="translate(-10.01074,13.5)">
                  <tspan
                     id="tspan4818"
                     y="0"
                     x="0">0</tspan>
                </text>
              </g>
              <g
                 transform="matrix(1,0,0,-1,263.9099,160.5434)"
                 id="g4820">
                <text
                   id="text4822"
                   style="font-variant:normal;font-weight:normal;font-size:36px;font-family:Helvetica;-inkscape-font-specification:Helvetica;writing-mode:lr-tb;fill:#000000;fill-opacity:1;fill-rule:nonzero;stroke:none"
                   transform="translate(-10.01074,13.5)">
                  <tspan
                     id="tspan4824"
                     y="0"
                     x="0">0</tspan>
                </text>
              </g>
              <g
                 transform="matrix(1,0,0,-1,359.9099,160.5434)"
                 id="g4826">
                <text
                   id="text4828"
                   style="font-variant:normal;font-weight:normal;font-size:36px;font-family:Helvetica;-inkscape-font-specification:Helvetica;writing-mode:lr-tb;fill:#000000;fill-opacity:1;fill-rule:nonzero;stroke:none"
                   transform="translate(-10.01074,13.5)">
                  <tspan
                     id="tspan4830"
                     y="0"
                     x="0">0</tspan>
                </text>
              </g>
              <g
                 transform="matrix(1,0,0,-1,551.9099,160.5434)"
                 id="g4832">
                <text
                   id="text4834"
                   style="font-variant:normal;font-weight:normal;font-size:36px;font-family:Helvetica;-inkscape-font-specification:Helvetica;writing-mode:lr-tb;fill:#000000;fill-opacity:1;fill-rule:nonzero;stroke:none"
                   transform="translate(-10.01074,13.5)">
                  <tspan
                     id="tspan4836"
                     y="0"
                     x="0">0</tspan>
                </text>
              </g>
              <g
                 transform="matrix(1,0,0,-1,551.9099,60.00336)"
                 id="g4838">
                <text
                   id="text4840"
                   style="font-variant:normal;font-weight:normal;font-size:36px;font-family:Helvetica;-inkscape-font-specification:Helvetica;writing-mode:lr-tb;fill:#000000;fill-opacity:1;fill-rule:nonzero;stroke:none"
                   transform="translate(-10.01074,13.5)">
                  <tspan
                     id="tspan4842"
                     y="0"
                     x="0">1</tspan>
                </text>
              </g>
              <g
                 transform="matrix(1,0,0,-1,359.9099,60.00336)"
                 id="g4844">
                <text
                   id="text4846"
                   style="font-variant:normal;font-weight:normal;font-size:36px;font-family:Helvetica;-inkscape-font-specification:Helvetica;writing-mode:lr-tb;fill:#000000;fill-opacity:1;fill-rule:nonzero;stroke:none"
                   transform="translate(-10.01074,13.5)">
                  <tspan
                     id="tspan4848"
                     y="0"
                     x="0">1</tspan>
                </text>
              </g>
              <g
                 transform="matrix(1,0,0,-1,263.9099,60.00336)"
                 id="g4850">
                <text
                   id="text4852"
                   style="font-variant:normal;font-weight:normal;font-size:36px;font-family:Helvetica;-inkscape-font-specification:Helvetica;writing-mode:lr-tb;fill:#000000;fill-opacity:1;fill-rule:nonzero;stroke:none"
                   transform="translate(-10.01074,13.5)">
                  <tspan
                     id="tspan4854"
                     y="0"
                     x="0">1</tspan>
                </text>
              </g>
              <g
                 transform="matrix(1,0,0,-1,71.90991,60.00336)"
                 id="g4856">
                <text
                   id="text4858"
                   style="font-variant:normal;font-weight:normal;font-size:36px;font-family:Helvetica;-inkscape-font-specification:Helvetica;writing-mode:lr-tb;fill:#000000;fill-opacity:1;fill-rule:nonzero;stroke:none"
                   transform="translate(-10.01074,13.5)">
                  <tspan
                     id="tspan4860"
                     y="0"
                     x="0">1</tspan>
                </text>
              </g>
              <path
                 inkscape:connector-curvature="0"
                 id="path4862"
                 style="fill:#ffffff;fill-opacity:1;fill-rule:nonzero;stroke:none"
                 d="m 119.96,111.0434 21,0 0,43 -21,0 0,-43 z" />
              <g
                 transform="matrix(1,0,0,-1,130.46,132.5434)"
                 id="g4864">
                <text
                   id="text4866"
                   style="font-variant:normal;font-weight:normal;font-size:36px;font-family:Helvetica;-inkscape-font-specification:Helvetica;writing-mode:lr-tb;fill:#000000;fill-opacity:1;fill-rule:nonzero;stroke:none"
                   transform="translate(-10.01074,13.5)">
                  <tspan
                     id="tspan4868"
                     y="0"
                     x="0">p</tspan>
                </text>
              </g>
              <path
                 inkscape:connector-curvature="0"
                 id="path4870"
                 style="fill:#ffffff;fill-opacity:1;fill-rule:nonzero;stroke:none"
                 d="m 122.7361,69.5423 21,0 0,43 -21,0 0,-43 z" />
              <g
                 transform="matrix(1,0,0,-1,133.2361,91.0423)"
                 id="g4872">
                <text
                   id="text4874"
                   style="font-variant:normal;font-weight:normal;font-size:36px;font-family:Helvetica;-inkscape-font-specification:Helvetica;writing-mode:lr-tb;fill:#000000;fill-opacity:1;fill-rule:nonzero;stroke:none"
                   transform="translate(-10.01074,13.5)">
                  <tspan
                     id="tspan4876"
                     y="0"
                     x="0">p</tspan>
                </text>
              </g>
              <path
                 inkscape:connector-curvature="0"
                 id="path4878"
                 style="fill:#ffffff;fill-opacity:1;fill-rule:nonzero;stroke:none"
                 d="m 408.23,110.5684 21,0 0,43 -21,0 0,-43 z" />
              <g
                 transform="matrix(1,0,0,-1,418.73,132.0684)"
                 id="g4880">
                <text
                   id="text4882"
                   style="font-variant:normal;font-weight:normal;font-size:36px;font-family:Helvetica;-inkscape-font-specification:Helvetica;writing-mode:lr-tb;fill:#000000;fill-opacity:1;fill-rule:nonzero;stroke:none"
                   transform="translate(-10.01074,13.5)">
                  <tspan
                     id="tspan4884"
                     y="0"
                     x="0">p</tspan>
                </text>
              </g>
              <path
                 inkscape:connector-curvature="0"
                 id="path4886"
                 style="fill:#ffffff;fill-opacity:1;fill-rule:nonzero;stroke:none"
                 d="m 411.02,69.03339 21,0 0,43 -21,0 0,-43 z" />
              <g
                 transform="matrix(1,0,0,-1,421.52,90.53339)"
                 id="g4888">
                <text
                   id="text4890"
                   style="font-variant:normal;font-weight:normal;font-size:36px;font-family:Helvetica;-inkscape-font-specification:Helvetica;writing-mode:lr-tb;fill:#000000;fill-opacity:1;fill-rule:nonzero;stroke:none"
                   transform="translate(-10.01074,13.5)">
                  <tspan
                     id="tspan4892"
                     y="0"
                     x="0">p</tspan>
                </text>
              </g>
              <path
                 inkscape:connector-curvature="0"
                 id="path4894"
                 style="fill:#ffffff;fill-opacity:1;fill-rule:nonzero;stroke:none"
                 d="m 299.53,46.5434 27,0 0,122 -27,0 0,-122 z" />
              <g
                 transform="matrix(1,0,0,-1,3.5,191.5)"
                 id="g4896">
                <path
                   inkscape:connector-curvature="0"
                   id="path4898"
                   style="fill:none;stroke:#000000;stroke-width:3;stroke-linecap:round;stroke-linejoin:round;stroke-miterlimit:10;stroke-dasharray:none;stroke-opacity:1"
                   d="m 296.03,22.9566 27,0 0,122 -27,0 0,-122 z" />
              </g>
              <g
                 transform="matrix(0,1,1,0,312.53,107.0434)"
                 id="g4900">
                <text
                   id="text4902"
                   style="font-variant:normal;font-weight:normal;font-size:19px;font-family:Helvetica;-inkscape-font-specification:Helvetica;writing-mode:lr-tb;fill:#000000;fill-opacity:1;fill-rule:nonzero;stroke:none"
                   transform="translate(-51.19702,7.5)">
                  <tspan
                     id="tspan4904"
                     sodipodi:role="line"
                     y="0"
                     x="0 12.673 26.391001 40.109001 54.890999 68.609001 73.890999 87.609001">ENCODING</tspan>
                </text>
              </g>
            </g>
          </g>
        </g>
      </g>
    </g>
  </g>
</svg>
