<?xml version="1.0" encoding="UTF-8" standalone="no"?>
<!-- Created with Inkscape (http://www.inkscape.org/) -->

<svg
   xmlns:dc="http://purl.org/dc/elements/1.1/"
   xmlns:cc="http://creativecommons.org/ns#"
   xmlns:rdf="http://www.w3.org/1999/02/22-rdf-syntax-ns#"
   xmlns:svg="http://www.w3.org/2000/svg"
   xmlns="http://www.w3.org/2000/svg"
   xmlns:sodipodi="http://sodipodi.sourceforge.net/DTD/sodipodi-0.dtd"
   xmlns:inkscape="http://www.inkscape.org/namespaces/inkscape"
   width="70.800858mm"
   height="44.664986mm"
   viewBox="0 0 250.86918 158.26176"
   id="svg2"
   version="1.1"
   inkscape:version="0.91 r13725"
   sodipodi:docname="capchannelband.svg">
  <defs
     id="defs4">
    <clipPath
       id="clipPath3577"
       clipPathUnits="userSpaceOnUse">
      <path
         inkscape:connector-curvature="0"
         id="path3579"
         d="m 0,0 362.8394,0 0,20.52338 L 0,20.52338 0,0 Z" />
    </clipPath>
    <clipPath
       id="clipPath3591"
       clipPathUnits="userSpaceOnUse">
      <path
         inkscape:connector-curvature="0"
         id="path3593"
         d="m 0,0 362.835,0 0,272.126 L 0,272.126 0,0 Z" />
    </clipPath>
    <linearGradient
       id="linearGradient3595"
       gradientUnits="userSpaceOnUse"
       y2="0"
       x2="362.83939"
       y1="0"
       x1="0">
      <stop
         id="stop3597"
         offset="0"
         style="stop-opacity:1;stop-color:#3333b3" />
      <stop
         id="stop3599"
         offset="1"
         style="stop-opacity:1;stop-color:#000000" />
    </linearGradient>
    <clipPath
       id="clipPath3615"
       clipPathUnits="userSpaceOnUse">
      <path
         inkscape:connector-curvature="0"
         id="path3617"
         d="m 0,0 362.835,0 0,3.985 L 0,3.985 0,0 Z" />
    </clipPath>
    <linearGradient
       id="linearGradient3619"
       gradientUnits="userSpaceOnUse"
       y2="3.9851"
       x2="0"
       y1="0"
       x1="0"
       gradientTransform="matrix(1.25,0,0,-1.25,145.37098,407.43595)">
      <stop
         id="stop3621"
         offset="0"
         style="stop-opacity:1;stop-color:#ffffff" />
      <stop
         id="stop3623"
         offset="1"
         style="stop-opacity:1;stop-color:#808080" />
    </linearGradient>
    <clipPath
       id="clipPath3677"
       clipPathUnits="userSpaceOnUse">
      <path
         inkscape:connector-curvature="0"
         id="path3679"
         d="m 0,0 5.139,0 0,5.139 L 0,5.139 0,0 Z" />
    </clipPath>
    <radialGradient
       id="radialGradient3681"
       gradientUnits="userSpaceOnUse"
       r="2.5697"
       cy="2.5697"
       cx="2.5697"
       fy="3.6656001"
       fx="1.67305"
       gradientTransform="matrix(1.25,0,0,-1.25,177.11848,482.3647)">
      <stop
         id="stop3683"
         offset="0"
         style="stop-opacity:1;stop-color:#e0e0f4" />
      <stop
         id="stop3685"
         offset="0.797"
         style="stop-opacity:1;stop-color:#6666c6" />
      <stop
         id="stop3687"
         offset="1.59401"
         style="stop-opacity:1;stop-color:#24247d" />
      <stop
         id="stop3689"
         offset="2.1918"
         style="stop-opacity:1;stop-color:#191959" />
      <stop
         id="stop3691"
         offset="2.5697"
         style="stop-opacity:1;stop-color:#ffffff" />
    </radialGradient>
    <clipPath
       id="clipPath3735"
       clipPathUnits="userSpaceOnUse">
      <path
         inkscape:connector-curvature="0"
         id="path3737"
         d="m 0,0 497.263,0 0,318.792 L 0,318.792 0,0 Z" />
    </clipPath>
    <clipPath
       id="clipPath3739"
       clipPathUnits="userSpaceOnUse">
      <path
         inkscape:connector-curvature="0"
         id="path3741"
         d="m 0,318.792 497.263,0 L 497.263,0 0,0 0,318.792 Z" />
    </clipPath>
    <clipPath
       id="clipPath3743"
       clipPathUnits="userSpaceOnUse">
      <path
         inkscape:connector-curvature="0"
         id="path3745"
         d="m 0,318.792 497.263,0 L 497.263,0 0,0 0,318.792 Z" />
    </clipPath>
    <clipPath
       id="clipPath3747"
       clipPathUnits="userSpaceOnUse">
      <path
         inkscape:connector-curvature="0"
         id="path3749"
         d="m 0,318.792 497.263,0 L 497.263,0 0,0 0,318.792 Z" />
    </clipPath>
    <clipPath
       id="clipPath3751"
       clipPathUnits="userSpaceOnUse">
      <path
         inkscape:connector-curvature="0"
         id="path3753"
         d="m 0,318.792 497.263,0 L 497.263,0 0,0 0,318.792 Z" />
    </clipPath>
    <clipPath
       id="clipPath3755"
       clipPathUnits="userSpaceOnUse">
      <path
         inkscape:connector-curvature="0"
         id="path3757"
         d="m 0,318.792 497.263,0 L 497.263,0 0,0 0,318.792 Z" />
    </clipPath>
    <clipPath
       id="clipPath3963"
       clipPathUnits="userSpaceOnUse">
      <path
         inkscape:connector-curvature="0"
         id="path3965"
         d="m 0,0 5.139,0 0,5.139 L 0,5.139 0,0 Z" />
    </clipPath>
    <radialGradient
       id="radialGradient3967"
       gradientUnits="userSpaceOnUse"
       r="2.5697"
       cy="2.5697"
       cx="2.5697"
       fy="3.6656001"
       fx="1.67305"
       gradientTransform="matrix(1.25,0,0,-1.25,177.11848,664.0272)">
      <stop
         id="stop3969"
         offset="0"
         style="stop-opacity:1;stop-color:#e0e0f4" />
      <stop
         id="stop3971"
         offset="0.797"
         style="stop-opacity:1;stop-color:#6666c6" />
      <stop
         id="stop3973"
         offset="1.59401"
         style="stop-opacity:1;stop-color:#24247d" />
      <stop
         id="stop3975"
         offset="2.1918"
         style="stop-opacity:1;stop-color:#191959" />
      <stop
         id="stop3977"
         offset="2.5697"
         style="stop-opacity:1;stop-color:#ffffff" />
    </radialGradient>
  </defs>
  <sodipodi:namedview
     id="base"
     pagecolor="#ffffff"
     bordercolor="#666666"
     borderopacity="1.0"
     inkscape:pageopacity="0.0"
     inkscape:pageshadow="2"
     inkscape:zoom="2.2751365"
     inkscape:cx="126.90647"
     inkscape:cy="78.728721"
     inkscape:document-units="px"
     inkscape:current-layer="layer1"
     showgrid="false"
     fit-margin-top="0"
     fit-margin-left="0"
     fit-margin-right="0"
     fit-margin-bottom="0"
     inkscape:window-width="1364"
     inkscape:window-height="726"
     inkscape:window-x="0"
     inkscape:window-y="20"
     inkscape:window-maximized="1" />
  <metadata
     id="metadata7">
    <rdf:RDF>
      <cc:Work
         rdf:about="">
        <dc:format>image/svg+xml</dc:format>
        <dc:type
           rdf:resource="http://purl.org/dc/dcmitype/StillImage" />
        <dc:title></dc:title>
      </cc:Work>
    </rdf:RDF>
  </metadata>
  <g
     inkscape:label="Layer 1"
     inkscape:groupmode="layer"
     id="layer1"
     transform="translate(-246.70848,-486.50914)">
    <g
       id="g3763"
       transform="matrix(0.5045,0,0,-0.5045,280.93169,618.0452)"
       style="stroke-width:3.96432114;stroke-miterlimit:4;stroke-dasharray:none">
      <path
         inkscape:connector-curvature="0"
         id="path3765"
         style="fill:none;stroke:#231f20;stroke-width:3.96432114;stroke-linecap:butt;stroke-linejoin:round;stroke-miterlimit:4;stroke-dasharray:none;stroke-opacity:1"
         d="M 0,0 0,3.351" />
    </g>
    <g
       id="g3767"
       transform="matrix(0.5045,0,0,-0.5045,280.93169,618.0452)"
       style="stroke-width:3.96432114;stroke-miterlimit:4;stroke-dasharray:none">
      <path
         inkscape:connector-curvature="0"
         id="path3769"
         style="fill:none;stroke:#231f20;stroke-width:3.96432114;stroke-linecap:butt;stroke-linejoin:round;stroke-miterlimit:4;stroke-dasharray:none;stroke-opacity:1"
         d="M 0,0 4.246,0" />
    </g>
    <g
       id="g3771"
       transform="matrix(0.5045,0,0,-0.5045,246.70848,647.3397)"
       style="stroke-width:3.96432114;stroke-miterlimit:4;stroke-dasharray:none">
      <g
         id="g3773"
         clip-path="url(#clipPath3739)"
         style="stroke-width:3.96432114;stroke-miterlimit:4;stroke-dasharray:none">
        <g
           id="g3775"
           transform="translate(475.9561,280.2754)"
           style="stroke-width:3.96432114;stroke-miterlimit:4;stroke-dasharray:none">
          <path
             inkscape:connector-curvature="0"
             id="path3777"
             style="fill:none;stroke:#3c4ca8;stroke-width:3.96432114;stroke-linecap:butt;stroke-linejoin:round;stroke-miterlimit:4;stroke-dasharray:none;stroke-opacity:1"
             d="m 0,0 0.24,0 0.16,0 0.241,0 0.24,0.062 0.24,0 0.159,0 0.241,0 0.24,0 0.162,0 0.24,0 0.24,0 0.16,0 0.24,0.062 0.24,0 0.16,0 0.24,0 0.241,0 0.161,0 0.24,0 0.241,0 0.159,0 0.241,0.063 0.24,0 0.159,0 0.24,0 0.241,0 0.243,0 0.159,0 0.24,0 0.24,0 0.16,0.061 0.241,0 0.24,0 0.161,0 0.24,0 0.241,0 0.16,0 0.24,0 0.24,0 0.159,0.062 0.241,0 0.24,0 0.162,0 0.24,0 0.24,0 0.16,0 0.24,0 0.24,0 0.16,0.062 0.24,0 0.241,0 0.24,0 0.161,0 0.24,0 0.24,0 0.161,0 0.24,0 0.24,0 0.159,0.063 0.241,0 0.241,0 0.161,0 0.24,0 0.24,0 0.16,0 0.24,0 0.24,0 0.16,0.061 0.24,0 0.241,0 0.162,0 0.24,0 0.24,0 0.159,0 0.241,0 0.24,0 0.24,0 0.16,0.063 0.24,0 0.241,0 0.161,0 0.24,0 0.24,0 0.16,0 0.241,0 0.24,0 0.159,0 0.24,0.061 0.241,0 0.162,0 0.24,0 0.24,0 0.159,0 0.241,0 0.24,0 0.16,0 0.24,0.063 0.24,0 0.241,0" />
        </g>
      </g>
    </g>
    <g
       id="g3779"
       transform="matrix(0.5045,0,0,-0.5045,476.11901,506.28513)"
       style="stroke-width:3.96432114;stroke-miterlimit:4;stroke-dasharray:none">
      <path
         inkscape:connector-curvature="0"
         id="path3781"
         style="fill:none;stroke:#3c4ca8;stroke-width:3.96432114;stroke-linecap:butt;stroke-linejoin:round;stroke-miterlimit:4;stroke-dasharray:none;stroke-opacity:1"
         d="m 0,0 0.159,0 0.24,0 0.242,0 0.161,0 0.24,0 0.24,0 0.24,0 0.161,0.062 0.24,0 0.24,0 0.159,0 0.241,0 0.24,0 0.162,0 0.24,0 0.24,0 0.159,0.063 0.241,0 0.24,0 0.16,0 0.24,0 0.241,0 0.161,0 0.24,0 0.24,0.062 0.16,0 0.241,0 0.24,0 0.159,0 0.24,0 0.24,0 0.243,0 0.16,0.061 0.24,0 0.24,0 0.159,0 0.242,0 0.24,0 0.161,0 0.24,0 0.241,0 0.159,0.063 0.24,0 0.24,0 0.16,0 0.241,0 0.24,0 0.162,0 0.24,0 0.24,0.062 0.16,0 0.24,0 0.24,0 0.24,0 0.16,0 0.241,0 0.24,0 0.161,0 0.24,0.062 0.24,0 0.161,0 0.24,0 0.24,0 0.159,0 0.241,0 0.24,0 0.162,0.062 0.24,0 0.24,0 0.159,0 0.241,0 0.24,0 0.16,0 0.24,0 0.241,0 0.161,0.062 0.24,0 0.24,0 0.241,0 0.16,0 0.24,0 0.24,0 0.159,0 0.24,0 0.242,0.061 0.161,0 0.24,0 0.24,0 0.16,0 0.241,0 0.24,0 0.159,0 0.24,0 0.241,0.063 0.161,0 0.241,0 0.24,0 0.159,0 0.241,0" />
    </g>
    <g
       id="g3783"
       transform="matrix(0.5045,0,0,-0.5045,465.36983,506.69161)"
       style="stroke-width:3.96432114;stroke-miterlimit:4;stroke-dasharray:none">
      <path
         inkscape:connector-curvature="0"
         id="path3785"
         style="fill:none;stroke:#3c4ca8;stroke-width:3.96432114;stroke-linecap:butt;stroke-linejoin:round;stroke-miterlimit:4;stroke-dasharray:none;stroke-opacity:1"
         d="m 0,0 0.24,0 0.24,0 0.161,0 0.24,0 0.24,0 0.159,0.062 0.241,0 0.24,0 0.24,0 0.162,0 0.24,0 0.241,0 0.159,0 0.241,0.061 0.24,0 0.159,0 0.241,0 0.24,0 0.161,0 0.24,0 0.241,0.063 0.16,0 0.24,0 0.24,0 0.16,0 0.24,0 0.241,0 0.161,0 0.24,0.062 0.24,0 0.16,0 0.241,0 0.24,0 0.24,0 0.159,0 0.241,0.062 0.242,0 0.16,0 0.24,0 0.24,0 0.16,0 0.24,0 0.24,0 0.162,0.062 0.24,0 0.241,0 0.159,0 0.24,0 0.24,0 0.16,0 0.241,0 0.24,0.062 0.161,0 0.24,0 0.24,0 0.161,0 0.24,0 0.24,0 0.24,0.061 0.16,0 0.24,0 0.241,0 0.161,0 0.24,0 0.241,0 0.16,0 0.24,0.063 0.24,0 0.159,0 0.241,0 0.24,0 0.161,0 0.241,0 0.24,0 0.16,0.062 0.24,0 0.24,0 0.16,0 0.24,0 0.241,0 0.24,0 0.161,0 0.24,0.062 0.241,0 0.16,0 0.24,0 0.24,0 0.159,0 0.241,0 0.24,0 0.162,0.062 0.24,0 0.24,0 0.16,0 0.24,0 0.241,0 0.159,0 0.24,0 0.241,0.062" />
    </g>
    <g
       id="g3787"
       transform="matrix(0.5045,0,0,-0.5045,454.6605,507.16115)"
       style="stroke-width:3.96432114;stroke-miterlimit:4;stroke-dasharray:none">
      <path
         inkscape:connector-curvature="0"
         id="path3789"
         style="fill:none;stroke:#3c4ca8;stroke-width:3.96432114;stroke-linecap:butt;stroke-linejoin:round;stroke-miterlimit:4;stroke-dasharray:none;stroke-opacity:1"
         d="m 0,0 0.24,0.062 0.16,0 0.241,0 0.24,0 0.161,0 0.24,0 0.24,0 0.161,0.061 0.24,0 0.24,0 0.24,0 0.16,0 0.24,0 0.24,0.063 0.162,0 0.24,0 0.241,0 0.159,0 0.24,0 0.24,0 0.16,0.062 0.241,0 0.24,0 0.161,0 0.24,0 0.24,0 0.161,0 0.24,0.062 0.24,0 0.159,0 0.241,0 0.241,0 0.161,0 0.24,0 0.24,0.062 0.241,0 0.159,0 0.24,0 0.241,0 0.161,0 0.241,0 0.24,0.062 0.16,0 0.24,0 0.24,0 0.16,0 0.24,0 0.24,0.062 0.161,0 0.241,0 0.241,0 0.159,0 0.24,0 0.24,0 0.16,0.063 0.241,0 0.24,0 0.161,0 0.24,0 0.24,0 0.241,0 0.16,0.061 0.24,0 0.24,0 0.16,0 0.24,0 0.24,0 0.162,0 0.24,0.062 0.241,0 0.159,0 0.24,0 0.241,0 0.159,0 0.241,0 0.24,0 0.161,0.062 0.24,0 0.24,0 0.161,0 0.24,0 0.24,0 0.24,0 0.16,0.063 0.241,0 0.24,0 0.161,0 0.24,0 0.241,0 0.16,0 0.24,0.061 0.24,0 0.159,0 0.241,0 0.24,0 0.162,0 0.24,0 0.24,0.063 0.16,0" />
    </g>
    <g
       id="g3791"
       transform="matrix(0.5045,0,0,-0.5045,443.95123,507.66217)"
       style="stroke-width:3.96432114;stroke-miterlimit:4;stroke-dasharray:none">
      <path
         inkscape:connector-curvature="0"
         id="path3793"
         style="fill:none;stroke:#3c4ca8;stroke-width:3.96432114;stroke-linecap:butt;stroke-linejoin:round;stroke-miterlimit:4;stroke-dasharray:none;stroke-opacity:1"
         d="m 0,0 0.161,0.062 0.24,0 0.241,0 0.16,0 0.24,0 0.24,0 0.159,0.062 0.242,0 0.24,0 0.161,0 0.24,0 0.24,0 0.16,0.063 0.24,0 0.24,0 0.241,0 0.159,0 0.241,0 0.24,0.062 0.162,0 0.24,0 0.241,0 0.159,0 0.24,0 0.24,0.062 0.16,0 0.241,0 0.24,0 0.161,0 0.24,0 0.24,0.061 0.161,0 0.24,0 0.24,0 0.161,0 0.24,0 0.241,0.063 0.24,0 0.16,0 0.24,0 0.241,0 0.159,0 0.24,0.062 0.24,0 0.162,0 0.24,0 0.241,0 0.159,0 0.24,0.062 0.241,0 0.16,0 0.24,0 0.24,0 0.161,0 0.24,0.062 0.241,0 0.16,0 0.24,0 0.24,0 0.16,0 0.241,0 0.24,0.062 0.24,0 0.161,0 0.24,0 0.241,0 0.16,0 0.24,0.061 0.24,0 0.159,0 0.241,0 0.24,0 0.162,0 0.24,0.063 0.241,0 0.159,0 0.24,0 0.24,0 0.16,0 0.241,0 0.24,0.062 0.161,0 0.24,0 0.24,0 0.161,0 0.24,0 0.24,0.062 0.24,0 0.159,0 0.242,0 0.24,0 0.161,0 0.24,0 0.24,0.062 0.16,0 0.24,0 0.241,0 0.159,0 0.241,0" />
    </g>
    <g
       id="g3795"
       transform="matrix(0.5045,0,0,-0.5045,433.20205,508.22529)"
       style="stroke-width:3.96432114;stroke-miterlimit:4;stroke-dasharray:none">
      <path
         inkscape:connector-curvature="0"
         id="path3797"
         style="fill:none;stroke:#3c4ca8;stroke-width:3.96432114;stroke-linecap:butt;stroke-linejoin:round;stroke-miterlimit:4;stroke-dasharray:none;stroke-opacity:1"
         d="m 0,0 0.24,0.062 0.24,0 0.161,0 0.24,0 0.24,0 0.161,0.062 0.24,0 0.241,0 0.16,0 0.24,0 0.24,0 0.16,0.062 0.24,0 0.24,0 0.162,0 0.24,0 0.241,0.062 0.24,0 0.159,0 0.24,0 0.24,0 0.161,0.063 0.24,0 0.24,0 0.161,0 0.24,0 0.242,0.061 0.159,0 0.24,0 0.24,0 0.159,0 0.241,0 0.241,0.063 0.161,0 0.24,0 0.241,0 0.16,0 0.24,0.061 0.24,0 0.24,0 0.16,0 0.24,0 0.24,0 0.162,0.062 0.24,0 0.241,0 0.159,0 0.24,0 0.24,0.062 0.16,0 0.241,0 0.24,0 0.161,0 0.24,0 0.24,0.063 0.161,0 0.24,0 0.24,0 0.159,0 0.241,0.061 0.24,0 0.162,0 0.24,0 0.24,0 0.241,0 0.159,0.063 0.241,0 0.24,0 0.159,0 0.241,0 0.24,0.061 0.161,0 0.24,0 0.241,0 0.16,0 0.24,0 0.24,0.062 0.16,0 0.24,0 0.241,0 0.161,0 0.24,0 0.24,0.062 0.16,0 0.241,0 0.24,0 0.159,0 0.24,0 0.241,0.063 0.24,0 0.162,0 0.24,0 0.24,0 0.16,0.061 0.24,0 0.24,0 0.16,0 0.24,0 0.241,0" />
    </g>
    <g
       id="g3799"
       transform="matrix(0.5045,0,0,-0.5045,422.49273,508.85102)"
       style="stroke-width:3.96432114;stroke-miterlimit:4;stroke-dasharray:none">
      <path
         inkscape:connector-curvature="0"
         id="path3801"
         style="fill:none;stroke:#3c4ca8;stroke-width:3.96432114;stroke-linecap:butt;stroke-linejoin:round;stroke-miterlimit:4;stroke-dasharray:none;stroke-opacity:1"
         d="m 0,0 0.24,0 0.161,0 0.241,0.062 0.241,0 0.159,0 0.24,0 0.24,0 0.16,0.061 0.24,0 0.241,0 0.161,0 0.24,0.063 0.241,0 0.16,0 0.24,0 0.24,0 0.159,0.062 0.241,0 0.24,0 0.24,0 0.162,0 0.241,0.062 0.24,0 0.159,0 0.24,0 0.24,0.062 0.161,0 0.24,0 0.24,0 0.161,0 0.24,0.062 0.241,0 0.16,0 0.24,0 0.24,0 0.159,0.061 0.241,0 0.24,0 0.162,0 0.24,0.063 0.241,0 0.159,0 0.24,0 0.241,0 0.24,0.062 0.16,0 0.24,0 0.24,0 0.161,0 0.24,0.062 0.242,0 0.159,0 0.24,0 0.24,0 0.16,0.062 0.241,0 0.24,0 0.161,0 0.24,0 0.24,0.062 0.161,0 0.24,0 0.24,0 0.159,0 0.241,0.061 0.24,0 0.24,0 0.162,0 0.24,0 0.241,0.063 0.159,0 0.24,0 0.24,0 0.16,0 0.241,0.062 0.24,0 0.161,0 0.24,0 0.24,0 0.161,0.062 0.24,0 0.24,0 0.159,0 0.241,0 0.241,0.062 0.161,0 0.24,0 0.24,0 0.159,0 0.241,0.062 0.24,0 0.241,0 0.159,0 0.241,0 0.24,0.062 0.162,0 0.24,0 0.24,0 0.16,0" />
    </g>
    <g
       id="g3803"
       transform="matrix(0.5045,0,0,-0.5045,411.78441,509.57129)"
       style="stroke-width:3.96432114;stroke-miterlimit:4;stroke-dasharray:none">
      <path
         inkscape:connector-curvature="0"
         id="path3805"
         style="fill:none;stroke:#3c4ca8;stroke-width:3.96432114;stroke-linecap:butt;stroke-linejoin:round;stroke-miterlimit:4;stroke-dasharray:none;stroke-opacity:1"
         d="m 0,0 0.159,0 0.24,0 0.241,0 0.16,0.062 0.24,0 0.24,0 0.161,0 0.241,0.063 0.24,0 0.16,0 0.24,0 0.241,0.062 0.159,0 0.24,0 0.24,0 0.162,0.061 0.24,0 0.241,0 0.159,0 0.24,0.063 0.241,0 0.241,0 0.159,0 0.24,0 0.24,0.062 0.161,0 0.241,0 0.241,0 0.159,0.062 0.24,0 0.24,0 0.161,0 0.24,0.062 0.24,0 0.161,0 0.24,0 0.241,0.062 0.16,0 0.24,0 0.24,0 0.159,0.061 0.241,0 0.24,0 0.162,0 0.24,0.063 0.241,0 0.24,0 0.159,0 0.24,0.062 0.24,0 0.161,0 0.24,0 0.24,0 0.161,0.062 0.24,0 0.241,0 0.16,0 0.24,0.062 0.24,0 0.159,0 0.242,0 0.24,0.062 0.161,0 0.24,0 0.241,0 0.159,0 0.24,0.061 0.241,0 0.159,0 0.241,0 0.24,0.063 0.24,0 0.162,0 0.24,0 0.241,0.062 0.159,0 0.24,0 0.24,0 0.16,0 0.241,0.062 0.24,0 0.161,0 0.24,0 0.24,0.062 0.161,0 0.24,0 0.24,0 0.159,0 0.24,0.062 0.241,0 0.162,0 0.24,0 0.24,0.062 0.241,0 0.159,0 0.24,0 0.24,0 0.16,0.063 0.241,0" />
    </g>
    <g
       id="g3807"
       transform="matrix(0.5045,0,0,-0.5045,401.03422,510.44726)"
       style="stroke-width:3.96432114;stroke-miterlimit:4;stroke-dasharray:none">
      <path
         inkscape:connector-curvature="0"
         id="path3809"
         style="fill:none;stroke:#3c4ca8;stroke-width:3.96432114;stroke-linecap:butt;stroke-linejoin:round;stroke-miterlimit:4;stroke-dasharray:none;stroke-opacity:1"
         d="m 0,0 0.24,0.062 0.24,0 0.162,0 0.24,0.061 0.241,0 0.159,0 0.24,0 0.241,0.063 0.16,0 0.24,0 0.24,0.062 0.161,0 0.241,0 0.24,0.062 0.16,0 0.24,0 0.241,0 0.159,0.062 0.24,0 0.24,0 0.162,0.062 0.241,0 0.24,0 0.24,0 0.159,0.062 0.24,0 0.241,0 0.16,0.063 0.24,0 0.24,0 0.161,0 0.241,0.061 0.24,0 0.16,0 0.24,0 0.241,0.062 0.159,0 0.241,0 0.24,0.062 0.161,0 0.241,0 0.24,0 0.159,0.063 0.24,0 0.241,0 0.16,0.061 0.24,0 0.24,0 0.24,0 0.162,0.063 0.241,0 0.24,0 0.159,0 0.24,0.061 0.24,0 0.161,0 0.24,0.062 0.24,0 0.161,0 0.24,0 0.241,0.062 0.16,0 0.24,0 0.24,0 0.16,0.063 0.24,0 0.24,0 0.162,0 0.24,0.061 0.241,0 0.159,0 0.24,0.063 0.24,0 0.24,0 0.161,0 0.24,0.061 0.24,0 0.161,0 0.241,0 0.241,0.062 0.159,0 0.24,0 0.24,0 0.159,0.062 0.241,0 0.241,0 0.161,0 0.24,0.063 0.241,0 0.16,0 0.24,0 0.24,0.061 0.159,0 0.241,0 0.24,0 0.24,0.063 0.162,0 0.24,0 0.241,0.061" />
    </g>
    <g
       id="g3811"
       transform="matrix(0.5045,0,0,-0.5045,390.32596,511.41786)"
       style="stroke-width:3.96432114;stroke-miterlimit:4;stroke-dasharray:none">
      <path
         inkscape:connector-curvature="0"
         id="path3813"
         style="fill:none;stroke:#3c4ca8;stroke-width:3.96432114;stroke-linecap:butt;stroke-linejoin:round;stroke-miterlimit:4;stroke-dasharray:none;stroke-opacity:1"
         d="m 0,0 0.159,0 0.24,0 0.241,0.062 0.24,0 0.16,0.063 0.24,0 0.241,0 0.161,0.062 0.24,0 0.24,0 0.16,0.062 0.241,0 0.24,0 0.159,0.062 0.241,0 0.24,0 0.161,0.061 0.241,0 0.24,0 0.159,0.063 0.24,0 0.242,0 0.159,0.062 0.24,0 0.24,0 0.162,0.062 0.241,0 0.24,0 0.24,0.062 0.159,0 0.24,0 0.241,0.062 0.16,0 0.24,0 0.24,0.061 0.161,0 0.241,0 0.24,0.063 0.16,0 0.24,0 0.241,0.062 0.159,0 0.24,0 0.24,0 0.162,0.062 0.241,0 0.24,0 0.159,0.062 0.24,0 0.24,0 0.241,0.062 0.16,0 0.24,0 0.24,0.062 0.161,0 0.242,0 0.24,0.063 0.159,0 0.24,0 0.241,0.061 0.159,0 0.24,0 0.241,0.062 0.161,0 0.241,0 0.24,0 0.16,0.062 0.24,0 0.24,0 0.16,0.063 0.24,0 0.24,0 0.161,0.061 0.241,0 0.241,0 0.24,0.063 0.159,0 0.24,0 0.24,0 0.161,0.061 0.24,0 0.24,0 0.161,0.062 0.24,0 0.241,0 0.16,0.062 0.24,0 0.24,0 0.159,0 0.241,0.063 0.24,0 0.162,0 0.24,0.061 0.241,0 0.159,0 0.24,0.063 0.241,0 0.159,0 0.241,0" />
    </g>
    <g
       id="g3815"
       transform="matrix(0.5045,0,0,-0.5045,379.57622,512.60667)"
       style="stroke-width:3.96432114;stroke-miterlimit:4;stroke-dasharray:none">
      <path
         inkscape:connector-curvature="0"
         id="path3817"
         style="fill:none;stroke:#3c4ca8;stroke-width:3.96432114;stroke-linecap:butt;stroke-linejoin:round;stroke-miterlimit:4;stroke-dasharray:none;stroke-opacity:1"
         d="m 0,0 0.24,0.062 0.24,0 0.162,0 0.24,0.061 0.24,0 0.24,0.063 0.159,0 0.241,0.062 0.24,0 0.161,0 0.24,0.062 0.241,0 0.16,0.062 0.24,0 0.24,0 0.16,0.062 0.241,0 0.24,0.061 0.16,0 0.24,0 0.24,0.063 0.162,0 0.24,0.062 0.24,0 0.159,0 0.24,0.062 0.241,0 0.161,0.062 0.24,0 0.24,0 0.241,0.062 0.16,0 0.241,0.062 0.24,0 0.159,0 0.241,0.063 0.24,0 0.161,0 0.24,0.061 0.24,0 0.161,0.062 0.24,0 0.24,0 0.16,0.062 0.24,0 0.241,0.063 0.16,0 0.24,0 0.24,0.061 0.16,0 0.242,0 0.24,0.063 0.24,0 0.159,0.061 0.24,0 0.241,0 0.161,0.062 0.24,0 0.24,0 0.16,0.062 0.241,0 0.24,0.063 0.16,0 0.24,0 0.241,0.061 0.16,0 0.24,0 0.24,0.063 0.161,0 0.241,0 0.24,0.061 0.159,0 0.24,0.062 0.241,0 0.16,0 0.24,0.062 0.24,0 0.24,0 0.161,0.063 0.241,0 0.241,0 0.159,0.061 0.24,0 0.241,0.063 0.16,0 0.24,0 0.24,0.061 0.161,0 0.241,0 0.24,0.063 0.16,0 0.24,0 0.24,0.062 0.16,0 0.24,0 0.24,0.062 0.162,0 0.24,0 0.241,0.061" />
    </g>
    <g
       id="g3819"
       transform="matrix(0.5045,0,0,-0.5045,368.86745,514.01523)"
       style="stroke-width:3.96432114;stroke-miterlimit:4;stroke-dasharray:none">
      <path
         inkscape:connector-curvature="0"
         id="path3821"
         style="fill:none;stroke:#3c4ca8;stroke-width:3.96432114;stroke-linecap:butt;stroke-linejoin:round;stroke-miterlimit:4;stroke-dasharray:none;stroke-opacity:1"
         d="m 0,0 0.24,0.062 0.159,0 0.241,0.062 0.24,0 0.161,0.063 0.24,0 0.24,0.061 0.241,0 0.16,0.062 0.241,0 0.24,0.062 0.16,0 0.24,0.063 0.24,0 0.161,0 0.24,0.061 0.241,0 0.16,0.063 0.24,0 0.24,0.061 0.16,0 0.241,0.062 0.24,0 0.16,0.062 0.24,0 0.24,0.063 0.161,0 0.241,0.061 0.24,0 0.159,0.063 0.24,0 0.241,0.061 0.24,0 0.161,0.063 0.24,0 0.241,0.062 0.16,0 0.24,0 0.24,0.062 0.16,0 0.241,0.061 0.24,0 0.16,0.063 0.24,0 0.241,0.062 0.161,0 0.24,0.062 0.24,0 0.159,0.062 0.24,0 0.242,0 0.16,0.062 0.24,0 0.24,0.061 0.16,0 0.241,0.063 0.24,0 0.241,0.062 0.159,0 0.241,0 0.24,0.062 0.16,0 0.241,0.062 0.24,0 0.161,0.062 0.24,0 0.24,0.061 0.16,0 0.24,0 0.241,0.063 0.16,0 0.24,0.062 0.24,0 0.161,0.062 0.241,0 0.24,0.062 0.159,0 0.24,0 0.24,0.062 0.241,0 0.161,0.062 0.24,0 0.24,0.063 0.16,0 0.241,0 0.24,0.061 0.16,0 0.24,0.062 0.241,0 0.16,0 0.24,0.062 0.24,0 0.161,0.063 0.241,0 0.24,0.061 0.159,0 0.24,0 0.241,0.063 0.161,0" />
    </g>
    <g
       id="g3823"
       transform="matrix(0.5045,0,0,-0.5045,358.15813,515.73664)"
       style="stroke-width:3.96432114;stroke-miterlimit:4;stroke-dasharray:none">
      <path
         inkscape:connector-curvature="0"
         id="path3825"
         style="fill:none;stroke:#3c4ca8;stroke-width:3.96432114;stroke-linecap:butt;stroke-linejoin:round;stroke-miterlimit:4;stroke-dasharray:none;stroke-opacity:1"
         d="m 0,0 0.16,0 0.24,0.062 0.241,0 0.161,0.062 0.24,0.062 0.24,0 0.159,0.062 0.241,0 0.24,0.063 0.24,0.061 0.161,0 0.24,0.063 0.241,0.061 0.16,0 0.24,0.063 0.24,0 0.16,0.062 0.241,0.062 0.24,0 0.16,0.061 0.24,0 0.242,0.063 0.16,0.062 0.24,0 0.24,0.062 0.159,0 0.242,0.062 0.24,0 0.16,0.062 0.24,0.061 0.24,0 0.161,0.063 0.24,0 0.24,0.062 0.241,0.062 0.159,0 0.241,0.062 0.24,0 0.16,0.062 0.241,0 0.241,0.061 0.16,0.063 0.24,0 0.24,0.062 0.16,0 0.241,0.062 0.24,0 0.16,0.062 0.24,0.062 0.24,0 0.162,0.062 0.24,0 0.24,0.063 0.159,0 0.24,0.061 0.241,0 0.161,0.062 0.24,0.062 0.24,0 0.24,0.063 0.161,0 0.24,0.061 0.24,0 0.16,0.063 0.241,0 0.24,0.061 0.16,0 0.24,0.062 0.24,0 0.161,0.062 0.241,0.063 0.24,0 0.159,0.061 0.24,0 0.242,0.063 0.16,0 0.24,0.061 0.24,0 0.161,0.062 0.241,0 0.24,0.063 0.159,0 0.24,0.062 0.24,0 0.241,0.062 0.161,0 0.24,0.062 0.24,0 0.16,0.062 0.241,0 0.24,0.062 0.16,0.063 0.24,0 0.241,0.061 0.16,0 0.24,0.062 0.24,0 0.161,0.062 0.241,0" />
    </g>
    <g
       id="g3827"
       transform="matrix(0.5045,0,0,-0.5045,347.40895,517.92708)"
       style="stroke-width:3.96432114;stroke-miterlimit:4;stroke-dasharray:none">
      <path
         inkscape:connector-curvature="0"
         id="path3829"
         style="fill:none;stroke:#3c4ca8;stroke-width:3.96432114;stroke-linecap:butt;stroke-linejoin:round;stroke-miterlimit:4;stroke-dasharray:none;stroke-opacity:1"
         d="m 0,0 0.24,0.062 0.24,0 0.16,0.062 0.241,0.062 0.24,0.061 0.16,0 0.24,0.063 0.241,0.062 0.16,0.062 0.24,0.062 0.24,0 0.161,0.062 0.24,0.061 0.24,0.063 0.24,0 0.16,0.062 0.242,0.062 0.24,0.062 0.16,0 0.24,0.062 0.24,0.062 0.161,0.063 0.24,0 0.24,0.061 0.16,0.062 0.24,0.062 0.241,0 0.161,0.063 0.24,0.061 0.24,0.063 0.159,0 0.241,0.061 0.24,0.062 0.161,0.062 0.24,0 0.241,0.063 0.24,0.061 0.16,0.063 0.24,0 0.24,0.061 0.161,0.062 0.24,0 0.24,0.062 0.16,0.063 0.24,0.061 0.241,0 0.161,0.063 0.24,0.061 0.24,0 0.159,0.063 0.241,0.062 0.241,0 0.16,0.062 0.24,0.061 0.24,0.063 0.162,0 0.24,0.062 0.24,0.062 0.159,0 0.241,0.062 0.24,0.062 0.24,0 0.161,0.062 0.24,0.062 0.241,0 0.16,0.063 0.24,0.061 0.24,0 0.16,0.063 0.241,0.061 0.24,0 0.16,0.062 0.24,0.062 0.24,0 0.162,0.063 0.24,0.061 0.24,0 0.159,0.063 0.24,0.061 0.241,0 0.161,0.063 0.24,0.062 0.24,0 0.16,0.062 0.241,0.061 0.241,0 0.24,0.063 0.159,0.062 0.241,0 0.24,0.062 0.161,0 0.24,0.062 0.24,0.062 0.161,0 0.24,0.061 0.24,0.063 0.16,0 0.24,0.062 0.241,0.062" />
    </g>
    <g
       id="g3831"
       transform="matrix(0.5045,0,0,-0.5045,336.69968,520.77523)"
       style="stroke-width:3.96432114;stroke-miterlimit:4;stroke-dasharray:none">
      <path
         inkscape:connector-curvature="0"
         id="path3833"
         style="fill:none;stroke:#3c4ca8;stroke-width:3.96432114;stroke-linecap:butt;stroke-linejoin:round;stroke-miterlimit:4;stroke-dasharray:none;stroke-opacity:1"
         d="m 0,0 0.24,0.062 0.16,0.062 0.241,0.063 0.24,0.061 0.161,0.062 0.24,0.062 0.24,0.063 0.16,0.061 0.24,0.063 0.24,0.123 0.161,0.062 0.24,0.063 0.241,0.061 0.16,0.063 0.24,0.061 0.24,0.062 0.241,0.062 0.16,0.063 0.24,0.061 0.24,0.063 0.16,0.061 0.241,0.063 0.24,0.062 0.161,0 0.24,0.062 0.24,0.061 0.16,0.063 0.24,0.062 0.241,0.062 0.16,0.062 0.24,0.062 0.241,0.061 0.161,0.063 0.24,0.062 0.24,0.062 0.159,0.062 0.241,0.062 0.24,0.061 0.161,0.063 0.24,0.062 0.241,0.062 0.24,0.062 0.16,0.062 0.24,0.062 0.24,0 0.161,0.063 0.24,0.062 0.24,0.061 0.16,0.063 0.24,0.062 0.241,0.062 0.161,0.062 0.24,0.062 0.24,0.061 0.159,0.063 0.241,0 0.24,0.062 0.161,0.062 0.24,0.062 0.24,0.062 0.161,0.061 0.24,0.063 0.241,0.062 0.24,0.062 0.16,0 0.24,0.062 0.24,0.062 0.161,0.062 0.24,0.063 0.241,0.061 0.16,0.062 0.24,0 0.24,0.062 0.16,0.063 0.241,0.061 0.24,0.063 0.16,0.061 0.24,0.062 0.24,0 0.162,0.062 0.24,0.063 0.24,0.061 0.159,0.063 0.24,0.061 0.241,0 0.161,0.062 0.24,0.062 0.24,0.063 0.24,0.061 0.161,0 0.24,0.063 0.24,0.061 0.16,0.063 0.241,0.062 0.24,0.062 0.159,0 0.24,0.062 0.24,0.062 0.163,0.063" />
    </g>
    <g
       id="g3835"
       transform="matrix(0.5045,0,0,-0.5045,325.99035,524.59349)"
       style="stroke-width:3.96432114;stroke-miterlimit:4;stroke-dasharray:none">
      <path
         inkscape:connector-curvature="0"
         id="path3837"
         style="fill:none;stroke:#3c4ca8;stroke-width:3.96432114;stroke-linecap:butt;stroke-linejoin:round;stroke-miterlimit:4;stroke-dasharray:none;stroke-opacity:1"
         d="m 0,0 0.161,0.062 0.24,0.125 0.241,0.061 0.159,0.124 0.24,0.062 0.241,0.062 0.16,0.124 0.241,0.063 0.24,0.123 0.161,0.062 0.24,0.124 0.24,0.063 0.16,0.061 0.24,0.125 0.24,0.062 0.161,0.061 0.24,0.125 0.241,0.062 0.24,0.124 0.16,0.061 0.24,0.063 0.241,0.124 0.16,0.062 0.24,0.062 0.24,0.124 0.16,0.062 0.241,0.062 0.24,0.124 0.161,0.062 0.24,0.063 0.24,0.123 0.16,0.062 0.24,0.063 0.24,0.062 0.161,0.124 0.24,0.061 0.241,0.063 0.16,0.124 0.24,0.062 0.241,0.062 0.159,0.061 0.241,0.125 0.24,0.062 0.24,0.062 0.161,0.062 0.241,0.125 0.24,0.061 0.16,0.062 0.24,0.062 0.24,0.124 0.161,0.063 0.24,0.061 0.24,0.062 0.16,0.062 0.24,0.124 0.241,0.063 0.161,0.061 0.24,0.062 0.24,0.062 0.159,0.124 0.241,0.063 0.24,0.061 0.161,0.063 0.24,0.062 0.24,0.062 0.241,0.124 0.16,0.062 0.24,0.062 0.24,0.062 0.16,0.062 0.241,0.062 0.24,0.125 0.16,0.061 0.24,0.063 0.242,0.061 0.16,0.062 0.24,0.062 0.24,0.063 0.159,0.061 0.242,0.124 0.24,0.063 0.16,0.062 0.24,0.062 0.24,0.061 0.161,0.063 0.24,0.062 0.24,0.062 0.16,0.062 0.24,0.062 0.241,0.124 0.24,0.062 0.16,0.062 0.241,0.062 0.241,0.062 0.16,0.061 0.24,0.063 0.24,0.062 0.16,0.062 0.241,0.062" />
    </g>
    <g
       id="g3839"
       transform="matrix(0.5045,0,0,-0.5045,315.24117,530.07004)"
       style="stroke-width:3.96432114;stroke-miterlimit:4;stroke-dasharray:none">
      <path
         inkscape:connector-curvature="0"
         id="path3841"
         style="fill:none;stroke:#3c4ca8;stroke-width:3.96432114;stroke-linecap:butt;stroke-linejoin:round;stroke-miterlimit:4;stroke-dasharray:none;stroke-opacity:1"
         d="m 0,0 0.24,0.123 0.24,0.187 0.161,0.124 0.24,0.124 0.24,0.124 0.161,0.124 0.24,0.124 0.241,0.124 0.159,0.124 0.24,0.125 0.24,0.123 0.161,0.124 0.241,0.125 0.24,0.123 0.16,0.125 0.24,0.124 0.242,0.123 0.159,0.125 0.24,0.124 0.24,0.123 0.24,0.125 0.162,0.124 0.24,0.124 0.24,0.124 0.16,0.124 0.24,0.124 0.241,0.124 0.16,0.124 0.24,0.124 0.24,0.124 0.16,0.124 L 6.889,3.97 7.129,4.094 7.29,4.218 7.53,4.342 7.771,4.466 7.93,4.59 8.17,4.652 8.41,4.775 8.571,4.9 l 0.241,0.124 0.24,0.123 0.16,0.125 0.24,0.062 0.24,0.124 0.241,0.125 0.16,0.123 0.24,0.063 0.24,0.124 0.16,0.124 0.241,0.124 0.241,0.062 0.16,0.124 0.24,0.123 0.24,0.125 0.16,0.062 0.241,0.124 0.24,0.125 0.16,0.061 0.24,0.124 0.241,0.124 0.16,0.063 0.24,0.123 0.241,0.125 0.16,0.061 0.24,0.124 0.24,0.124 0.16,0.063 0.241,0.124 0.241,0.061 0.24,0.125 0.16,0.124 0.24,0.062 0.24,0.124 0.161,0.063 0.24,0.123 0.24,0.125 0.16,0.061 0.24,0.124 0.241,0.062 0.161,0.125 0.24,0.061 0.24,0.124 0.159,0.063 0.241,0.124 0.24,0.124 0.161,0.062 0.24,0.124 0.241,0.062 0.16,0.124 0.24,0.062 0.24,0.124 0.24,0.062 0.161,0.124 0.24,0.062 0.24,0.062 0.16,0.124 0.24,0.062 0.241,0.124" />
    </g>
    <g
       id="g3843"
       transform="matrix(0.5045,0,0,-0.5045,304.53235,538.55194)"
       style="stroke-width:3.96432114;stroke-miterlimit:4;stroke-dasharray:none">
      <path
         inkscape:connector-curvature="0"
         id="path3845"
         style="fill:none;stroke:#3c4ca8;stroke-width:3.96432114;stroke-linecap:butt;stroke-linejoin:round;stroke-miterlimit:4;stroke-dasharray:none;stroke-opacity:1"
         d="m 0,0 0.24,0.249 0.16,0.186 0.241,0.248 0.24,0.186 0.16,0.186 0.24,0.248 0.24,0.186 0.161,0.248 0.24,0.187 0.24,0.185 0.161,0.248 0.24,0.187 0.241,0.185 0.159,0.187 0.24,0.248 0.24,0.186 0.161,0.186 0.241,0.186 0.24,0.186 0.16,0.249 0.24,0.186 0.241,0.186 0.24,0.186 0.16,0.186 0.24,0.187 0.24,0.185 0.161,0.187 0.24,0.186 0.241,0.186 0.16,0.186 0.24,0.186 0.241,0.187 0.159,0.185 0.241,0.187 0.24,0.185 0.16,0.187 0.241,0.185 0.24,0.124 0.16,0.186 0.24,0.186 0.242,0.187 0.159,0.185 0.24,0.187 0.24,0.124 0.16,0.187 0.242,0.185 0.24,0.187 0.24,0.124 0.16,0.186 0.24,0.186 0.241,0.124 0.16,0.185 0.24,0.187 0.24,0.124 0.16,0.186 0.241,0.186 0.24,0.125 0.161,0.185 0.24,0.124 0.24,0.186 0.16,0.125 0.24,0.186 0.24,0.186 0.161,0.124 0.241,0.187 0.24,0.123 0.16,0.186 0.24,0.124 0.24,0.124 0.161,0.187 0.24,0.123 0.24,0.186 0.24,0.124 0.16,0.187 0.241,0.124 0.24,0.124 0.161,0.185 0.24,0.125 0.24,0.125 0.16,0.186 0.24,0.123 0.241,0.124 0.16,0.187 0.24,0.124 0.241,0.124 0.161,0.185 0.24,0.125 0.24,0.124 0.159,0.123 0.241,0.187 0.24,0.124 0.161,0.125 0.24,0.123 0.242,0.125 0.159,0.185 0.24,0.124 0.24,0.124 0.24,0.124 0.161,0.125" />
    </g>
    <g
       id="g3847"
       transform="matrix(0.5045,0,0,-0.5045,293.78267,553.76186)"
       style="stroke-width:3.96432114;stroke-miterlimit:4;stroke-dasharray:none">
      <path
         inkscape:connector-curvature="0"
         id="path3849"
         style="fill:none;stroke:#3c4ca8;stroke-width:3.96432114;stroke-linecap:butt;stroke-linejoin:round;stroke-miterlimit:4;stroke-dasharray:none;stroke-opacity:1"
         d="m 0,0 0.24,0.435 0.24,0.432 0.241,0.436 0.16,0.372 0.24,0.434 0.241,0.434 0.16,0.372 0.241,0.435 0.24,0.372 0.159,0.434 0.241,0.372 0.241,0.372 0.16,0.373 0.24,0.434 0.24,0.372 0.16,0.372 0.241,0.372 0.241,0.373 0.159,0.372 0.24,0.372 0.24,0.373 0.161,0.372 0.241,0.31 0.24,0.372 0.16,0.372 0.24,0.31 0.241,0.373 0.24,0.372 0.16,0.31 0.24,0.373 0.241,0.31 0.16,0.31 0.24,0.372 0.24,0.31 0.161,0.311 0.241,0.372 0.24,0.309 0.159,0.311 0.24,0.311 0.24,0.309 0.162,0.311 0.24,0.309 0.24,0.311 0.16,0.309 0.24,0.311 0.241,0.309 0.16,0.311 0.24,0.311 0.24,0.309 0.24,0.249 0.161,0.31 0.24,0.31 0.24,0.311 0.161,0.248 0.24,0.309 0.241,0.249 0.159,0.31 0.24,0.248 0.241,0.311 0.16,0.248 0.241,0.31 0.24,0.247 0.161,0.311 0.24,0.248 0.241,0.248 0.159,0.311 0.24,0.248 0.24,0.248 0.161,0.248 0.241,0.248 0.24,0.31 0.16,0.248 0.24,0.248 0.24,0.248 0.241,0.248 0.16,0.249 0.24,0.248 0.24,0.248 0.16,0.249 0.241,0.248 0.24,0.248 0.161,0.248 0.24,0.186 0.241,0.248 0.159,0.247 0.24,0.249 0.24,0.248 0.161,0.186 0.241,0.248 0.24,0.249 0.16,0.248 0.24,0.186 0.241,0.248 0.16,0.186 0.24,0.248 0.24,0.248 0.161,0.187 0.24,0.247 0.241,0.186" />
    </g>
    <g
       id="g3851"
       transform="matrix(0.5045,0,0,-0.5045,283.07385,593.1956)"
       style="stroke-width:3.96432114;stroke-miterlimit:4;stroke-dasharray:none">
      <path
         inkscape:connector-curvature="0"
         id="path3853"
         style="fill:none;stroke:#3c4ca8;stroke-width:3.96432114;stroke-linecap:butt;stroke-linejoin:round;stroke-miterlimit:4;stroke-dasharray:none;stroke-opacity:1"
         d="m 0,0 0.24,1.612 0.16,1.489 0.241,1.489 0.24,1.489 0.24,1.428 0.16,1.363 0.24,1.365 0.241,1.366 0.16,1.302 0.24,1.241 0.24,1.302 0.161,1.18 0.241,1.24 0.24,1.179 0.159,1.178 0.24,1.116 0.241,1.117 0.161,1.116 0.24,1.117 0.24,1.056 0.16,1.054 0.241,0.993 0.24,1.054 0.16,0.993 0.24,0.991 0.24,0.931 0.161,0.993 0.24,0.931 0.24,0.93 0.241,0.931 0.16,0.868 0.241,0.869 0.24,0.931 0.159,0.806 0.24,0.869 0.242,0.868 0.16,0.806 0.24,0.806 0.24,0.807 0.161,0.807 0.241,0.805 0.24,0.745 0.159,0.807 0.24,0.744 0.24,0.745 0.162,0.744 0.24,0.682 0.24,0.744 0.16,0.745 0.24,0.683 0.241,0.682 0.16,0.682 0.24,0.684 0.24,0.681 0.24,0.682 0.161,0.621 0.24,0.682 0.24,0.621 0.161,0.621 0.24,0.619 0.241,0.621 0.159,0.62 0.24,0.62 0.24,0.62 0.162,0.559 0.24,0.621 0.24,0.559 0.16,0.557 0.24,0.619 0.242,0.559 0.159,0.559 0.24,0.558 0.24,0.497 0.16,0.559 0.242,0.558 0.24,0.496 0.24,0.558 0.16,0.495 0.24,0.559 0.241,0.497 0.16,0.496 0.24,0.496 0.24,0.497 0.16,0.495 0.241,0.496 0.24,0.498 0.161,0.496 0.24,0.434 0.241,0.496 0.159,0.435 0.24,0.496 0.24,0.435 0.161,0.433 0.242,0.497 0.24,0.433 0.159,0.435 0.24,0.435 0.24,0.433 0.161,0.435" />
    </g>
    <g
       id="g3855"
       transform="matrix(0.5045,0,0,-0.5045,281.01251,615.38522)"
       style="stroke-width:3.96432114;stroke-miterlimit:4;stroke-dasharray:none">
      <path
         inkscape:connector-curvature="0"
         id="path3857"
         style="fill:none;stroke:#3c4ca8;stroke-width:3.96432114;stroke-linecap:butt;stroke-linejoin:round;stroke-miterlimit:4;stroke-dasharray:none;stroke-opacity:1"
         d="m 0,0 0.24,3.908 0.241,3.412 0.161,3.164 0.24,2.854 0.24,2.729 0.159,2.543 0.241,2.419 0.241,2.359 0.16,2.171 0.24,2.17 0.24,2.047 0.16,1.987 0.241,1.861 0.241,1.86 0.159,1.799 0.24,1.738 0.241,1.736 0.16,1.614 0.241,1.612" />
    </g>
    <g
       id="g3859"
       transform="matrix(0.5045,0,0,-0.5045,308.0077,618.0452)"
       style="stroke-width:3.96432114;stroke-miterlimit:4;stroke-dasharray:none">
      <path
         inkscape:connector-curvature="0"
         id="path3861"
         style="fill:none;stroke:#ed1838;stroke-width:3.96432114;stroke-linecap:butt;stroke-linejoin:miter;stroke-miterlimit:4;stroke-dasharray:none;stroke-opacity:1"
         d="M 0,0 0,164.529" />
    </g>
    <g
       id="g3863"
       transform="matrix(0.5045,0,0,-0.5045,246.70848,647.3397)"
       style="stroke-width:3.96432114;stroke-miterlimit:4;stroke-dasharray:none">
      <g
         id="g3865"
         clip-path="url(#clipPath3743)"
         style="stroke-width:3.96432114;stroke-miterlimit:4;stroke-dasharray:none">
        <g
           id="g3867"
           transform="translate(67.8359,294.6055)"
           style="stroke-width:3.96432114;stroke-miterlimit:4;stroke-dasharray:none">
          <path
             inkscape:connector-curvature="0"
             id="path3869"
             style="fill:none;stroke:#231f20;stroke-width:3.96432114;stroke-linecap:butt;stroke-linejoin:round;stroke-miterlimit:4;stroke-dasharray:3.96432111, 3.96432111;stroke-dashoffset:0;stroke-opacity:1"
             d="M 0,0 429.427,0" />
        </g>
        <g
           id="g3871"
           transform="translate(67.7158,318.792)"
           style="stroke-width:3.96432114;stroke-miterlimit:4;stroke-dasharray:none">
          <path
             inkscape:connector-curvature="0"
             id="path3873"
             style="fill:none;stroke:#231f20;stroke-width:3.96432114;stroke-linecap:butt;stroke-linejoin:miter;stroke-miterlimit:4;stroke-dasharray:none;stroke-opacity:1"
             d="M 0,0 0,-267.395" />
        </g>
      </g>
    </g>
    <g
       id="g3875"
       transform="matrix(0.5045,0,0,-0.5045,267.77776,618.02941)"
       style="stroke-width:3.96432114;stroke-miterlimit:4;stroke-dasharray:none">
      <path
         inkscape:connector-curvature="0"
         id="path3877"
         style="fill:none;stroke:#231f20;stroke-width:3.96432114;stroke-linecap:butt;stroke-linejoin:miter;stroke-miterlimit:4;stroke-dasharray:none;stroke-opacity:1"
         d="M 0,0 446.598,0" />
    </g>
    <g
       id="g3879"
       transform="matrix(0.5045,0,0,-0.5045,308.13776,535.14016)"
       style="stroke-width:3.96432114;stroke-miterlimit:4;stroke-dasharray:none">
      <path
         inkscape:connector-curvature="0"
         id="path3881"
         style="fill:none;stroke:#ed1838;stroke-width:3.96432114;stroke-linecap:butt;stroke-linejoin:miter;stroke-miterlimit:4;stroke-dasharray:none;stroke-opacity:1"
         d="M 0,0 -54,0" />
    </g>
    <text
       id="text3883"
       style="font-variant:normal;font-weight:normal;font-size:10.89200401px;font-family:CMMI10;-inkscape-font-specification:CMMI10;writing-mode:lr-tb;fill:#231f20;fill-opacity:1;fill-rule:nonzero;stroke:none"
       x="302.75626"
       y="629.77728">
      <tspan
         id="tspan3885"
         y="629.77728"
         x="302.75626">P</tspan>
    </text>
    <g
       id="g3887"
       transform="matrix(0.5045,0,0,-0.5045,301.33983,634.42273)">
      <path
         inkscape:connector-curvature="0"
         id="path3889"
         style="fill:none;stroke:#231f20;stroke-width:0.86299998;stroke-linecap:butt;stroke-linejoin:miter;stroke-miterlimit:10;stroke-dasharray:none;stroke-opacity:1"
         d="M 0,0 22.475,0" />
    </g>
    <g
       id="g3891"
       transform="matrix(0.5045,0,0,-0.5045,246.70848,647.3397)">
      <g
         id="g3893"
         clip-path="url(#clipPath3747)">
        <text
           id="text3895"
           style="font-variant:normal;font-weight:normal;font-size:21.5897007px;font-family:CMMI10;-inkscape-font-specification:CMMI10;writing-mode:lr-tb;fill:#231f20;fill-opacity:1;fill-rule:nonzero;stroke:none"
           transform="matrix(1,0,0,-1,108.2881,5.3975)">
          <tspan
             id="tspan3897"
             y="0"
             x="0">σ</tspan>
        </text>
      </g>
    </g>
    <text
       id="text3899"
       style="font-variant:normal;font-weight:normal;font-size:7.95757961px;font-family:CMR8;-inkscape-font-specification:CMR8;writing-mode:lr-tb;fill:#231f20;fill-opacity:1;fill-rule:nonzero;stroke:none"
       x="307.95398"
       y="641.46991">
      <tspan
         id="tspan3901"
         y="641.46991"
         x="307.95398">2</tspan>
    </text>
    <text
       id="text3903"
       style="font-variant:normal;font-weight:normal;font-size:13.69187737px;font-family:CMMI10;-inkscape-font-specification:CMMI10;writing-mode:lr-tb;fill:#231f20;fill-opacity:1;fill-rule:nonzero;stroke:none"
       x="479.66776"
       y="635.53564">
      <tspan
         id="tspan3905"
         y="635.53564"
         x="479.66776">W</tspan>
    </text>
    <text
       id="text3907"
       style="font-variant:normal;font-weight:normal;font-size:9.03060055px;font-family:CMMI10;-inkscape-font-specification:CMMI10;writing-mode:lr-tb;fill:#231f20;fill-opacity:1;fill-rule:nonzero;stroke:none"
       x="248.56538"
       y="496.78293">
      <tspan
         id="tspan3909"
         y="496.78293"
         x="248.56538">P</tspan>
    </text>
    <g
       id="g3911"
       transform="matrix(0.5045,0,0,-0.5045,246.70848,647.3397)">
      <g
         id="g3913"
         clip-path="url(#clipPath3751)">
        <g
           id="g3915"
           transform="translate(1.3516,290.7939)">
          <path
             inkscape:connector-curvature="0"
             id="path3917"
             style="fill:none;stroke:#231f20;stroke-width:0.71499997;stroke-linecap:butt;stroke-linejoin:miter;stroke-miterlimit:10;stroke-dasharray:none;stroke-opacity:1"
             d="M 0,0 18.635,0" />
        </g>
      </g>
    </g>
    <text
       id="text3919"
       style="font-variant:normal;font-weight:normal;font-size:9.03060055px;font-family:CMMI10;-inkscape-font-specification:CMMI10;writing-mode:lr-tb;fill:#231f20;fill-opacity:1;fill-rule:nonzero;stroke:none"
       x="247.38986"
       y="509.08698">
      <tspan
         id="tspan3921"
         y="509.08698"
         x="247.38986">σ</tspan>
    </text>
    <text
       id="text3923"
       style="font-variant:normal;font-weight:normal;font-size:6.59769964px;font-family:CMR8;-inkscape-font-specification:CMR8;writing-mode:lr-tb;fill:#231f20;fill-opacity:1;fill-rule:nonzero;stroke:none"
       x="252.87483"
       y="506.47824">
      <tspan
         id="tspan3925"
         y="506.47824"
         x="252.87483">2</tspan>
    </text>
    <text
       id="text3927"
       style="font-variant:normal;font-weight:normal;font-size:9.03060055px;font-family:CMR10;-inkscape-font-specification:CMR10;writing-mode:lr-tb;fill:#231f20;fill-opacity:1;fill-rule:nonzero;stroke:none"
       x="259.28699"
       y="502.89206">
      <tspan
         id="tspan3929"
         sodipodi:role="line"
         y="502.89206"
         x="259.28699 261.79749 266.31277">log</tspan>
    </text>
    <text
       id="text3931"
       style="font-variant:normal;font-weight:normal;font-size:9.03060055px;font-family:CMMI10;-inkscape-font-specification:CMMI10;writing-mode:lr-tb;fill:#231f20;fill-opacity:1;fill-rule:nonzero;stroke:none"
       x="272.45358"
       y="502.89206">
      <tspan
         id="tspan3933"
         y="502.89206"
         x="272.45358">e</tspan>
      <tspan
         id="tspan3935"
         y="533.93024"
         x="247.88133">P</tspan>
    </text>
    <g
       id="g3937"
       transform="matrix(0.5045,0,0,-0.5045,246.70848,647.3397)">
      <g
         id="g3939"
         clip-path="url(#clipPath3755)">
        <g
           id="g3941"
           transform="translate(0,217.1592)">
          <path
             inkscape:connector-curvature="0"
             id="path3943"
             style="fill:none;stroke:#231f20;stroke-width:0.71499997;stroke-linecap:butt;stroke-linejoin:miter;stroke-miterlimit:10;stroke-dasharray:none;stroke-opacity:1"
             d="M 0,0 18.634,0" />
        </g>
        <text
           id="text3945"
           style="font-variant:normal;font-weight:normal;font-size:17.90010071px;font-family:CMMI10;-inkscape-font-specification:CMMI10;writing-mode:lr-tb;fill:#231f20;fill-opacity:1;fill-rule:nonzero;stroke:none"
           transform="matrix(1,0,0,-1,0,200.4072)">
          <tspan
             id="tspan3947"
             y="0"
             x="0">σ</tspan>
        </text>
      </g>
    </g>
    <text
       id="text3949"
       style="font-variant:normal;font-weight:normal;font-size:6.59769964px;font-family:CMR8;-inkscape-font-specification:CMR8;writing-mode:lr-tb;fill:#231f20;fill-opacity:1;fill-rule:nonzero;stroke:none"
       x="252.19244"
       y="543.62555">
      <tspan
         id="tspan3951"
         y="543.62555"
         x="252.19244">2</tspan>
    </text>
    <text
       id="text3953"
       style="font-variant:normal;font-weight:normal;font-size:9.03060055px;font-family:CMR10;-inkscape-font-specification:CMR10;writing-mode:lr-tb;fill:#231f20;fill-opacity:1;fill-rule:nonzero;stroke:none"
       x="258.60513"
       y="540.04034">
      <tspan
         id="tspan3955"
         sodipodi:role="line"
         y="540.04034"
         x="258.60513 261.11566 265.63095 271.78079">log2</tspan>
    </text>
  </g>
</svg>
