<?xml version="1.0" encoding="UTF-8" standalone="no"?>
<!-- Created with Inkscape (http://www.inkscape.org/) -->

<svg
   xmlns:dc="http://purl.org/dc/elements/1.1/"
   xmlns:cc="http://creativecommons.org/ns#"
   xmlns:rdf="http://www.w3.org/1999/02/22-rdf-syntax-ns#"
   xmlns:svg="http://www.w3.org/2000/svg"
   xmlns="http://www.w3.org/2000/svg"
   xmlns:xlink="http://www.w3.org/1999/xlink"
   xmlns:sodipodi="http://sodipodi.sourceforge.net/DTD/sodipodi-0.dtd"
   xmlns:inkscape="http://www.inkscape.org/namespaces/inkscape"
   width="376.29633"
   height="21.257532"
   id="svg2"
   version="1.1"
   inkscape:version="0.48.5 r10040"
   sodipodi:docname="chain.svg">
  <defs
     id="defs4">
    <radialGradient
       id="radialGradient4316"
       gradientUnits="userSpaceOnUse"
       r="2.5697"
       cy="2.5697"
       cx="2.5697"
       fy="3.6656001"
       fx="1.67305">
      <stop
         id="stop4318"
         offset="0"
         style="stop-opacity:1;stop-color:#e0e0f4" />
      <stop
         id="stop4320"
         offset="0.797"
         style="stop-opacity:1;stop-color:#6666c6" />
      <stop
         id="stop4322"
         offset="1.59401"
         style="stop-opacity:1;stop-color:#24247d" />
      <stop
         id="stop4324"
         offset="2.1918"
         style="stop-opacity:1;stop-color:#191959" />
      <stop
         id="stop4326"
         offset="2.5697"
         style="stop-opacity:1;stop-color:#ffffff" />
    </radialGradient>
    <radialGradient
       id="radialGradient4178"
       gradientUnits="userSpaceOnUse"
       r="2.5697"
       cy="2.5697"
       cx="2.5697"
       fy="3.6656001"
       fx="1.67305">
      <stop
         id="stop4180"
         offset="0"
         style="stop-opacity:1;stop-color:#e0e0f4" />
      <stop
         id="stop4182"
         offset="0.797"
         style="stop-opacity:1;stop-color:#6666c6" />
      <stop
         id="stop4184"
         offset="1.59401"
         style="stop-opacity:1;stop-color:#24247d" />
      <stop
         id="stop4186"
         offset="2.1918"
         style="stop-opacity:1;stop-color:#191959" />
      <stop
         id="stop4188"
         offset="2.5697"
         style="stop-opacity:1;stop-color:#ffffff" />
    </radialGradient>
    <clipPath
       id="clipPath4148"
       clipPathUnits="userSpaceOnUse">
      <path
         id="path4150"
         d="m 0,38.437 680.402,0 L 680.402,0 0,0 0,38.437 z"
         inkscape:connector-curvature="0" />
    </clipPath>
    <clipPath
       id="clipPath4128"
       clipPathUnits="userSpaceOnUse">
      <path
         id="path4130"
         d="m 0,38.437 680.402,0 L 680.402,0 0,0 0,38.437 z"
         inkscape:connector-curvature="0" />
    </clipPath>
    <clipPath
       id="clipPath4092"
       clipPathUnits="userSpaceOnUse">
      <path
         id="path4094"
         d="m 0,38.437 680.402,0 L 680.402,0 0,0 0,38.437 z"
         inkscape:connector-curvature="0" />
    </clipPath>
    <clipPath
       id="clipPath4072"
       clipPathUnits="userSpaceOnUse">
      <path
         id="path4074"
         d="m 0,38.437 680.402,0 L 680.402,0 0,0 0,38.437 z"
         inkscape:connector-curvature="0" />
    </clipPath>
    <clipPath
       id="clipPath4052"
       clipPathUnits="userSpaceOnUse">
      <path
         id="path4054"
         d="m 0,38.437 680.402,0 L 680.402,0 0,0 0,38.437 z"
         inkscape:connector-curvature="0" />
    </clipPath>
    <clipPath
       id="clipPath4016"
       clipPathUnits="userSpaceOnUse">
      <path
         id="path4018"
         d="m 0,38.437 680.402,0 L 680.402,0 0,0 0,38.437 z"
         inkscape:connector-curvature="0" />
    </clipPath>
    <clipPath
       id="clipPath3996"
       clipPathUnits="userSpaceOnUse">
      <path
         id="path3998"
         d="m 0,38.437 680.402,0 L 680.402,0 0,0 0,38.437 z"
         inkscape:connector-curvature="0" />
    </clipPath>
    <clipPath
       id="clipPath3976"
       clipPathUnits="userSpaceOnUse">
      <path
         id="path3978"
         d="m 0,38.437 680.402,0 L 680.402,0 0,0 0,38.437 z"
         inkscape:connector-curvature="0" />
    </clipPath>
    <clipPath
       id="clipPath3952"
       clipPathUnits="userSpaceOnUse">
      <path
         id="path3954"
         d="m 0,38.437 680.402,0 L 680.402,0 0,0 0,38.437 z"
         inkscape:connector-curvature="0" />
    </clipPath>
    <clipPath
       id="clipPath3936"
       clipPathUnits="userSpaceOnUse">
      <path
         id="path3938"
         d="m 0,38.437 680.402,0 L 680.402,0 0,0 0,38.437 z"
         inkscape:connector-curvature="0" />
    </clipPath>
    <clipPath
       id="clipPath3922"
       clipPathUnits="userSpaceOnUse">
      <path
         id="path3924"
         d="m 0,0 680.402,0 0,38.437 L 0,38.437 0,0 z"
         inkscape:connector-curvature="0" />
    </clipPath>
    <radialGradient
       id="radialGradient3898"
       gradientUnits="userSpaceOnUse"
       r="2.5697"
       cy="2.5697"
       cx="2.5697"
       fy="3.6656001"
       fx="1.67305">
      <stop
         id="stop3900"
         offset="0"
         style="stop-opacity:1;stop-color:#e0e0f4" />
      <stop
         id="stop3902"
         offset="0.797"
         style="stop-opacity:1;stop-color:#6666c6" />
      <stop
         id="stop3904"
         offset="1.59401"
         style="stop-opacity:1;stop-color:#24247d" />
      <stop
         id="stop3906"
         offset="2.1918"
         style="stop-opacity:1;stop-color:#191959" />
      <stop
         id="stop3908"
         offset="2.5697"
         style="stop-opacity:1;stop-color:#ffffff" />
    </radialGradient>
    <radialGradient
       id="radialGradient3722"
       gradientUnits="userSpaceOnUse"
       r="2.5697"
       cy="2.5697"
       cx="2.5697"
       fy="3.6656001"
       fx="1.67305">
      <stop
         id="stop3724"
         offset="0"
         style="stop-opacity:1;stop-color:#e0e0f4" />
      <stop
         id="stop3726"
         offset="0.797"
         style="stop-opacity:1;stop-color:#6666c6" />
      <stop
         id="stop3728"
         offset="1.59401"
         style="stop-opacity:1;stop-color:#24247d" />
      <stop
         id="stop3730"
         offset="2.1918"
         style="stop-opacity:1;stop-color:#191959" />
      <stop
         id="stop3732"
         offset="2.5697"
         style="stop-opacity:1;stop-color:#ffffff" />
    </radialGradient>
    <linearGradient
       id="linearGradient3534"
       gradientUnits="userSpaceOnUse"
       y2="8.0000896"
       x2="0"
       y1="0"
       x1="0">
      <stop
         id="stop3536"
         offset="0"
         style="stop-opacity:1;stop-color:#ffffff" />
      <stop
         id="stop3538"
         offset="4.00005"
         style="stop-opacity:1;stop-color:#808080" />
      <stop
         id="stop3540"
         offset="8.00009"
         style="stop-opacity:1;stop-color:#808080" />
    </linearGradient>
    <clipPath
       id="clipPath3516"
       clipPathUnits="userSpaceOnUse">
      <path
         id="path3518"
         d="m 338.493,1 4,0 0,47.316 -4,0 0,-47.316 z"
         inkscape:connector-curvature="0" />
    </clipPath>
    <radialGradient
       id="radialGradient3504"
       gradientUnits="userSpaceOnUse"
       r="4.0000501"
       cy="4.0000501"
       cx="4.0000501"
       fy="4.0000501"
       fx="4.0000501">
      <stop
         id="stop3506"
         offset="0"
         style="stop-opacity:1;stop-color:#808080" />
      <stop
         id="stop3508"
         offset="1"
         style="stop-opacity:1;stop-color:#ffffff" />
    </radialGradient>
    <clipPath
       id="clipPath3486"
       clipPathUnits="userSpaceOnUse">
      <path
         id="path3488"
         d="m 338.493,1 4,0 0,52.316 -4,0 0,-52.316 z"
         inkscape:connector-curvature="0" />
    </clipPath>
    <linearGradient
       id="linearGradient3472"
       gradientUnits="userSpaceOnUse"
       y2="8.0000896"
       x2="0"
       y1="0"
       x1="0">
      <stop
         id="stop3474"
         offset="0"
         style="stop-opacity:1;stop-color:#ffffff" />
      <stop
         id="stop3476"
         offset="4.00005"
         style="stop-opacity:1;stop-color:#808080" />
      <stop
         id="stop3478"
         offset="8.00009"
         style="stop-opacity:1;stop-color:#808080" />
    </linearGradient>
    <clipPath
       id="clipPath3454"
       clipPathUnits="userSpaceOnUse">
      <path
         id="path3456"
         d="m 4,-7 330.493,0 0,5 L 4,-2 4,-7 z"
         inkscape:connector-curvature="0" />
    </clipPath>
    <radialGradient
       id="radialGradient3442"
       gradientUnits="userSpaceOnUse"
       r="8.0000896"
       cy="8.0000896"
       cx="8.0000896"
       fy="8.0000896"
       fx="8.0000896">
      <stop
         id="stop3444"
         offset="0"
         style="stop-opacity:1;stop-color:#808080" />
      <stop
         id="stop3446"
         offset="8.00009"
         style="stop-opacity:1;stop-color:#ffffff" />
    </radialGradient>
    <clipPath
       id="clipPath3424"
       clipPathUnits="userSpaceOnUse">
      <path
         id="path3426"
         d="m 333.493,-7 9,0 0,9 -9,0 0,-9 z"
         inkscape:connector-curvature="0" />
    </clipPath>
    <radialGradient
       id="radialGradient3412"
       gradientUnits="userSpaceOnUse"
       r="4.0000501"
       cy="4.0000501"
       cx="4.0000501"
       fy="4.0000501"
       fx="4.0000501">
      <stop
         id="stop3414"
         offset="0"
         style="stop-opacity:1;stop-color:#808080" />
      <stop
         id="stop3416"
         offset="1"
         style="stop-opacity:1;stop-color:#ffffff" />
    </radialGradient>
    <linearGradient
       id="linearGradient3390"
       gradientUnits="userSpaceOnUse"
       y2="3.9851"
       x2="0"
       y1="0"
       x1="0">
      <stop
         id="stop3392"
         offset="0"
         style="stop-opacity:1;stop-color:#e9e9f3" />
      <stop
         id="stop3394"
         offset="3.9851"
         style="stop-opacity:1;stop-color:#262686" />
    </linearGradient>
    <clipPath
       id="clipPath3372"
       clipPathUnits="userSpaceOnUse">
      <path
         id="path3374"
         d="m -4,-1 342.493,0 0,8 L -4,7 -4,-1 z"
         inkscape:connector-curvature="0" />
    </clipPath>
    <linearGradient
       id="linearGradient3352"
       gradientUnits="userSpaceOnUse"
       y2="3.9851"
       x2="0"
       y1="0"
       x1="0">
      <stop
         id="stop3354"
         offset="0"
         style="stop-opacity:1;stop-color:#ffffff" />
      <stop
         id="stop3356"
         offset="1"
         style="stop-opacity:1;stop-color:#808080" />
    </linearGradient>
    <linearGradient
       id="linearGradient3326"
       gradientUnits="userSpaceOnUse"
       y2="0"
       x2="362.83939"
       y1="0"
       x1="0">
      <stop
         id="stop3328"
         offset="0"
         style="stop-opacity:1;stop-color:#3333b3" />
      <stop
         id="stop3330"
         offset="1"
         style="stop-opacity:1;stop-color:#000000" />
    </linearGradient>
    <clipPath
       id="clipPath3308"
       clipPathUnits="userSpaceOnUse">
      <path
         id="path3310"
         d="m 0,0 362.839,0 0,20.523 L 0,20.523 0,0 z"
         inkscape:connector-curvature="0" />
    </clipPath>
    <radialGradient
       inkscape:collect="always"
       xlink:href="#radialGradient4316"
       id="radialGradient5637"
       gradientUnits="userSpaceOnUse"
       cx="2.5697"
       cy="2.5697"
       fx="1.67305"
       fy="3.6656001"
       r="2.5697" />
    <radialGradient
       inkscape:collect="always"
       xlink:href="#radialGradient4178"
       id="radialGradient5644"
       gradientUnits="userSpaceOnUse"
       cx="2.5697"
       cy="2.5697"
       fx="1.67305"
       fy="3.6656001"
       r="2.5697" />
  </defs>
  <sodipodi:namedview
     id="base"
     pagecolor="#ffffff"
     bordercolor="#666666"
     borderopacity="1.0"
     inkscape:pageopacity="0.0"
     inkscape:pageshadow="2"
     inkscape:zoom="2.9577754"
     inkscape:cx="188.14816"
     inkscape:cy="10.628768"
     inkscape:document-units="px"
     inkscape:current-layer="layer1"
     showgrid="false"
     fit-margin-top="0"
     fit-margin-left="0"
     fit-margin-right="0"
     fit-margin-bottom="0"
     inkscape:window-width="1269"
     inkscape:window-height="711"
     inkscape:window-x="-1"
     inkscape:window-y="34"
     inkscape:window-maximized="0" />
  <metadata
     id="metadata7">
    <rdf:RDF>
      <cc:Work
         rdf:about="">
        <dc:format>image/svg+xml</dc:format>
        <dc:type
           rdf:resource="http://purl.org/dc/dcmitype/StillImage" />
        <dc:title></dc:title>
      </cc:Work>
    </rdf:RDF>
  </metadata>
  <g
     inkscape:label="Layer 1"
     inkscape:groupmode="layer"
     id="layer1"
     transform="translate(-149.69977,-302.21464)">
    <g
       id="g3928"
       transform="matrix(0.55305,0,0,-0.55305,186.41062,313.08903)">
      <path
         inkscape:connector-curvature="0"
         d="M 0,0 -44.63,0"
         style="fill:none;stroke:#231f20;stroke-width:2;stroke-linecap:butt;stroke-linejoin:miter;stroke-miterlimit:4;stroke-opacity:1;stroke-dasharray:none"
         id="path3930" />
    </g>
    <g
       id="g3932"
       transform="matrix(0.55305,0,0,-0.55305,149.69977,323.47221)">
      <g
         id="g3934"
         clip-path="url(#clipPath3936)">
        <g
           id="g3940"
           transform="translate(70.1577,20.4141)">
          <path
             inkscape:connector-curvature="0"
             d="m 0,0 c -2.645,0.799 -4.365,1.535 -6.487,2.387 l 0,-8.071 c 0.76,0.361 3.842,1.588 6.487,2.387 2.832,0.855 5.398,1.44 7.063,1.649 C 5.398,-1.439 2.832,-0.854 0,0"
             style="fill:#231f20;fill-opacity:1;fill-rule:nonzero;stroke:none"
             id="path3942" />
        </g>
      </g>
    </g>
    <g
       id="g3944"
       transform="matrix(0.55305,0,0,-0.55305,228.24045,313.08903)">
      <path
         inkscape:connector-curvature="0"
         d="M 0,0 -44.631,0"
         style="fill:none;stroke:#231f20;stroke-width:2;stroke-linecap:butt;stroke-linejoin:miter;stroke-miterlimit:4;stroke-opacity:1;stroke-dasharray:none"
         id="path3946" />
    </g>
    <g
       id="g3948"
       transform="matrix(0.55305,0,0,-0.55305,149.69977,323.47221)">
      <g
         id="g3950"
         clip-path="url(#clipPath3952)">
        <g
           id="g3956"
           transform="translate(145.7925,20.4141)">
          <path
             inkscape:connector-curvature="0"
             d="m 0,0 c -2.645,0.799 -4.365,1.535 -6.487,2.387 l 0,-8.071 c 0.76,0.361 3.842,1.588 6.487,2.387 2.832,0.855 5.398,1.44 7.063,1.649 C 5.398,-1.439 2.832,-0.854 0,0"
             style="fill:#231f20;fill-opacity:1;fill-rule:nonzero;stroke:none"
             id="path3958" />
        </g>
        <g
           id="g3960"
           transform="translate(180.8711,3.7925)">
          <path
             inkscape:connector-curvature="0"
             d="m 0,0 c -8.52,-5.351 -19.765,-2.781 -25.114,5.738 -5.35,8.522 -2.782,19.765 5.74,25.116 8.52,5.348 19.763,2.779 25.114,-5.741 C 11.09,16.592 8.52,5.35 0,0"
             style="fill:#ffffff;fill-opacity:1;fill-rule:nonzero;stroke:none"
             id="path3962" />
        </g>
        <g
           id="g3964"
           transform="translate(180.8711,3.7925)">
          <path
             inkscape:connector-curvature="0"
             d="m 0,0 c -8.52,-5.351 -19.765,-2.781 -25.114,5.738 -5.35,8.522 -2.782,19.765 5.74,25.116 8.52,5.348 19.763,2.779 25.114,-5.741 C 11.09,16.592 8.52,5.35 0,0 z"
             style="fill:none;stroke:#231f20;stroke-width:2;stroke-linecap:butt;stroke-linejoin:miter;stroke-miterlimit:4;stroke-opacity:1;stroke-dasharray:none"
             id="path3966" />
        </g>
      </g>
    </g>
    <text
       id="text3968"
       x="241.02785"
       y="315.8732"
       style="font-size:6.63660002px">
      <tspan
         style="font-size:9.37934017px;font-variant:normal;font-weight:normal;writing-mode:lr-tb;fill:#231f20;fill-opacity:1;fill-rule:nonzero;stroke:none;font-family:CMMI10;-inkscape-font-specification:CMMI10"
         x="241.02785"
         y="315.8732"
         id="tspan3970">Z</tspan>
    </text>
    <g
       id="g3972"
       transform="matrix(0.55305,0,0,-0.55305,149.69977,323.47221)">
      <g
         id="g3974"
         clip-path="url(#clipPath3976)">
        <g
           id="g3980"
           transform="translate(28.9058,3.792)">
          <path
             inkscape:connector-curvature="0"
             d="m 0,0 c -8.52,-5.35 -19.765,-2.781 -25.114,5.738 -5.35,8.522 -2.782,19.766 5.74,25.116 8.52,5.349 19.763,2.779 25.114,-5.741 C 11.09,16.592 8.52,5.35 0,0"
             style="fill:#ffffff;fill-opacity:1;fill-rule:nonzero;stroke:none"
             id="path3982" />
        </g>
        <g
           id="g3984"
           transform="translate(28.9058,3.792)">
          <path
             inkscape:connector-curvature="0"
             d="m 0,0 c -8.52,-5.35 -19.765,-2.781 -25.114,5.738 -5.35,8.522 -2.782,19.766 5.74,25.116 8.52,5.349 19.763,2.779 25.114,-5.741 C 11.09,16.592 8.52,5.35 0,0 z"
             style="fill:none;stroke:#231f20;stroke-width:2;stroke-linecap:butt;stroke-linejoin:miter;stroke-miterlimit:4;stroke-opacity:1;stroke-dasharray:none"
             id="path3986" />
        </g>
      </g>
    </g>
    <text
       id="text3988"
       x="156.36121"
       y="315.80405"
       style="font-size:6.63660002px">
      <tspan
         style="font-size:9.37934017px;font-variant:normal;font-weight:normal;writing-mode:lr-tb;fill:#231f20;fill-opacity:1;fill-rule:nonzero;stroke:none;font-family:CMMI10;-inkscape-font-specification:CMMI10"
         x="156.36121"
         y="315.80405"
         id="tspan3990">X</tspan>
    </text>
    <g
       id="g3992"
       transform="matrix(0.55305,0,0,-0.55305,149.69977,323.47221)">
      <g
         id="g3994"
         clip-path="url(#clipPath3996)">
        <g
           id="g4000"
           transform="translate(104.8887,3.793)">
          <path
             inkscape:connector-curvature="0"
             d="m 0,0 c -8.52,-5.352 -19.765,-2.781 -25.114,5.738 -5.35,8.522 -2.782,19.764 5.74,25.116 8.52,5.347 19.763,2.779 25.114,-5.741 C 11.09,16.592 8.52,5.35 0,0"
             style="fill:#ffffff;fill-opacity:1;fill-rule:nonzero;stroke:none"
             id="path4002" />
        </g>
        <g
           id="g4004"
           transform="translate(104.8887,3.793)">
          <path
             inkscape:connector-curvature="0"
             d="m 0,0 c -8.52,-5.352 -19.765,-2.781 -25.114,5.738 -5.35,8.522 -2.782,19.764 5.74,25.116 8.52,5.347 19.763,2.779 25.114,-5.741 C 11.09,16.592 8.52,5.35 0,0 z"
             style="fill:none;stroke:#231f20;stroke-width:2;stroke-linecap:butt;stroke-linejoin:miter;stroke-miterlimit:4;stroke-opacity:1;stroke-dasharray:none"
             id="path4006" />
        </g>
      </g>
    </g>
    <text
       id="text4008"
       x="198.45239"
       y="315.87369"
       style="font-size:6.63660002px">
      <tspan
         style="font-size:9.37934017px;font-variant:normal;font-weight:normal;writing-mode:lr-tb;fill:#231f20;fill-opacity:1;fill-rule:nonzero;stroke:none;font-family:CMMI10;-inkscape-font-specification:CMMI10"
         x="198.45239"
         y="315.87369"
         id="tspan4010">Y</tspan>
    </text>
    <g
       id="g4088"
       transform="matrix(0.55305,0,0,-0.55305,149.69977,323.47221)">
      <g
         id="g4090"
         clip-path="url(#clipPath4092)">
        <g
           id="g4096"
           transform="translate(613.3828,18.7744)">
          <path
             inkscape:connector-curvature="0"
             d="M 0,0 44.631,0"
             style="fill:none;stroke:#231f20;stroke-width:2;stroke-linecap:butt;stroke-linejoin:miter;stroke-miterlimit:4;stroke-opacity:1;stroke-dasharray:none"
             id="path4098" />
        </g>
        <g
           id="g4100"
           transform="translate(609.6035,17.1348)">
          <path
             inkscape:connector-curvature="0"
             d="m 0,0 c 2.646,-0.8 4.365,-1.535 6.487,-2.387 l 0,8.072 C 5.728,5.323 2.646,4.096 0,3.298 -2.831,2.442 -5.398,1.856 -7.063,1.648 -5.398,1.439 -2.831,0.854 0,0"
             style="fill:#231f20;fill-opacity:1;fill-rule:nonzero;stroke:none"
             id="path4102" />
        </g>
        <g
           id="g4104"
           transform="translate(539.3828,18.7744)">
          <path
             inkscape:connector-curvature="0"
             d="M 0,0 44.631,0"
             style="fill:none;stroke:#231f20;stroke-width:2;stroke-linecap:butt;stroke-linejoin:miter;stroke-miterlimit:4;stroke-opacity:1;stroke-dasharray:none"
             id="path4106" />
        </g>
        <g
           id="g4108"
           transform="translate(535.6035,17.1348)">
          <path
             inkscape:connector-curvature="0"
             d="m 0,0 c 2.646,-0.8 4.365,-1.535 6.487,-2.387 l 0,8.072 C 5.728,5.323 2.646,4.096 0,3.298 -2.831,2.442 -5.398,1.856 -7.063,1.648 -5.398,1.439 -2.831,0.854 0,0"
             style="fill:#231f20;fill-opacity:1;fill-rule:nonzero;stroke:none"
             id="path4110" />
        </g>
        <g
           id="g4112"
           transform="translate(670.8711,3.792)">
          <path
             inkscape:connector-curvature="0"
             d="m 0,0 c -8.52,-5.35 -19.765,-2.781 -25.114,5.738 -5.35,8.522 -2.782,19.766 5.74,25.116 8.52,5.349 19.763,2.779 25.114,-5.741 C 11.09,16.592 8.52,5.35 0,0"
             style="fill:#ffffff;fill-opacity:1;fill-rule:nonzero;stroke:none"
             id="path4114" />
        </g>
        <g
           id="g4116"
           transform="translate(670.8711,3.792)">
          <path
             inkscape:connector-curvature="0"
             d="m 0,0 c -8.52,-5.35 -19.765,-2.781 -25.114,5.738 -5.35,8.522 -2.782,19.766 5.74,25.116 8.52,5.349 19.763,2.779 25.114,-5.741 C 11.09,16.592 8.52,5.35 0,0 z"
             style="fill:none;stroke:#231f20;stroke-width:2;stroke-linecap:butt;stroke-linejoin:miter;stroke-miterlimit:4;stroke-opacity:1;stroke-dasharray:none"
             id="path4118" />
        </g>
      </g>
    </g>
    <text
       id="text4120"
       x="512.02234"
       y="315.8732"
       style="font-size:6.63660002px">
      <tspan
         style="font-size:9.37934017px;font-variant:normal;font-weight:normal;writing-mode:lr-tb;fill:#231f20;fill-opacity:1;fill-rule:nonzero;stroke:none;font-family:CMMI10;-inkscape-font-specification:CMMI10"
         x="512.02234"
         y="315.8732"
         id="tspan4122">Z</tspan>
    </text>
    <g
       id="g4124"
       transform="matrix(0.55305,0,0,-0.55305,149.69977,323.47221)">
      <g
         id="g4126"
         clip-path="url(#clipPath4128)">
        <g
           id="g4132"
           transform="translate(518.9063,3.792)">
          <path
             inkscape:connector-curvature="0"
             d="m 0,0 c -8.52,-5.35 -19.766,-2.781 -25.115,5.738 -5.35,8.522 -2.781,19.766 5.74,25.116 8.521,5.349 19.764,2.779 25.115,-5.741 C 11.09,16.592 8.52,5.35 0,0"
             style="fill:#ffffff;fill-opacity:1;fill-rule:nonzero;stroke:none"
             id="path4134" />
        </g>
        <g
           id="g4136"
           transform="translate(518.9063,3.792)">
          <path
             inkscape:connector-curvature="0"
             d="m 0,0 c -8.52,-5.35 -19.766,-2.781 -25.115,5.738 -5.35,8.522 -2.781,19.766 5.74,25.116 8.521,5.349 19.764,2.779 25.115,-5.741 C 11.09,16.592 8.52,5.35 0,0 z"
             style="fill:none;stroke:#231f20;stroke-width:2;stroke-linecap:butt;stroke-linejoin:miter;stroke-miterlimit:4;stroke-opacity:1;stroke-dasharray:none"
             id="path4138" />
        </g>
      </g>
    </g>
    <text
       id="text4140"
       x="427.35571"
       y="315.80405"
       style="font-size:6.63660002px">
      <tspan
         style="font-size:9.37934017px;font-variant:normal;font-weight:normal;writing-mode:lr-tb;fill:#231f20;fill-opacity:1;fill-rule:nonzero;stroke:none;font-family:CMMI10;-inkscape-font-specification:CMMI10"
         x="427.35571"
         y="315.80405"
         id="tspan4142">X</tspan>
    </text>
    <g
       id="g4144"
       transform="matrix(0.55305,0,0,-0.55305,149.69977,323.47221)">
      <g
         id="g4146"
         clip-path="url(#clipPath4148)">
        <g
           id="g4152"
           transform="translate(594.8887,3.793)">
          <path
             inkscape:connector-curvature="0"
             d="m 0,0 c -8.52,-5.352 -19.765,-2.781 -25.114,5.738 -5.35,8.522 -2.782,19.764 5.74,25.116 8.52,5.347 19.763,2.779 25.114,-5.741 C 11.09,16.592 8.52,5.35 0,0"
             style="fill:#ffffff;fill-opacity:1;fill-rule:nonzero;stroke:none"
             id="path4154" />
        </g>
        <g
           id="g4156"
           transform="translate(594.8887,3.793)">
          <path
             inkscape:connector-curvature="0"
             d="m 0,0 c -8.52,-5.352 -19.765,-2.781 -25.114,5.738 -5.35,8.522 -2.782,19.764 5.74,25.116 8.52,5.347 19.763,2.779 25.114,-5.741 C 11.09,16.592 8.52,5.35 0,0 z"
             style="fill:none;stroke:#231f20;stroke-width:2;stroke-linecap:butt;stroke-linejoin:miter;stroke-miterlimit:4;stroke-opacity:1;stroke-dasharray:none"
             id="path4158" />
        </g>
      </g>
    </g>
    <text
       id="text4160"
       x="469.4469"
       y="315.87369"
       style="font-size:6.63660002px">
      <tspan
         style="font-size:9.37934017px;font-variant:normal;font-weight:normal;writing-mode:lr-tb;fill:#231f20;fill-opacity:1;fill-rule:nonzero;stroke:none;font-family:CMMI10;-inkscape-font-specification:CMMI10"
         x="469.4469"
         y="315.87369"
         id="tspan4162">Y</tspan>
    </text>
  </g>
</svg>
