<?xml version="1.0" encoding="UTF-8" standalone="no"?>
<svg
   xmlns:dc="http://purl.org/dc/elements/1.1/"
   xmlns:cc="http://creativecommons.org/ns#"
   xmlns:rdf="http://www.w3.org/1999/02/22-rdf-syntax-ns#"
   xmlns:svg="http://www.w3.org/2000/svg"
   xmlns="http://www.w3.org/2000/svg"
   xmlns:sodipodi="http://sodipodi.sourceforge.net/DTD/sodipodi-0.dtd"
   xmlns:inkscape="http://www.inkscape.org/namespaces/inkscape"
   width="501.34631"
   height="395.94101"
   viewBox="0 0 501.34631 395.94101"
   id="svg3529"
   version="1.1"
   inkscape:version="0.91 r13725"
   sodipodi:docname="exmpl-max-i.svg">
  <metadata
     id="metadata3643">
    <rdf:RDF>
      <cc:Work
         rdf:about="">
        <dc:format>image/svg+xml</dc:format>
        <dc:type
           rdf:resource="http://purl.org/dc/dcmitype/StillImage" />
        <dc:title>glps_renderer figure</dc:title>
      </cc:Work>
    </rdf:RDF>
  </metadata>
  <sodipodi:namedview
     pagecolor="#ffffff"
     bordercolor="#666666"
     borderopacity="1"
     objecttolerance="10"
     gridtolerance="10"
     guidetolerance="10"
     inkscape:pageopacity="0"
     inkscape:pageshadow="2"
     inkscape:window-width="1364"
     inkscape:window-height="726"
     id="namedview3641"
     showgrid="false"
     fit-margin-top="0"
     fit-margin-left="0"
     fit-margin-right="0"
     fit-margin-bottom="0"
     inkscape:zoom="1.0762493"
     inkscape:cx="237.38519"
     inkscape:cy="199.493"
     inkscape:window-x="0"
     inkscape:window-y="20"
     inkscape:window-maximized="1"
     inkscape:current-layer="svg3529" />
  <title
     id="title3531">glps_renderer figure</title>
  <desc
     id="desc3533">
Creator: GL2PS 1.3.8, (C) 1999-2012 C. Geuzaine
For: Octave
CreationDate: Tue Nov 24 18:39:50 2015
</desc>
  <defs
     id="defs3535" />
  <polyline
     style="fill:none;stroke:#000000;stroke-width:2;stroke-miterlimit:4;stroke-dasharray:none;shape-rendering:crispEdges"
     id="polyline3543"
     points="74.88,384.48 521.28,384.48"
     transform="translate(-21.233003,-26.037501)" />
  <polyline
     style="fill:none;stroke:#000000;stroke-width:2;stroke-miterlimit:4;stroke-dasharray:none;shape-rendering:crispEdges"
     id="polyline3545"
     points="74.88,32.4 521.28,32.4"
     transform="translate(-21.233003,-26.037501)" />
  <polyline
     style="fill:none;stroke:#000000;stroke-width:2;stroke-miterlimit:4;stroke-dasharray:none;shape-rendering:crispEdges"
     id="polyline3547"
     points="74.88,384.48 74.88,32.4"
     transform="translate(-21.233003,-26.037501)" />
  <polyline
     style="fill:none;stroke:#000000;stroke-width:2;stroke-miterlimit:4;stroke-dasharray:none;shape-rendering:crispEdges"
     id="polyline3549"
     points="521.28,384.48 521.28,32.4"
     transform="translate(-21.233003,-26.037501)" />
  <polyline
     style="fill:none;stroke:#000000;stroke-width:2;stroke-miterlimit:4;stroke-dasharray:none;shape-rendering:crispEdges"
     id="polyline3551"
     points="74.88,384.48 74.88,380.015"
     transform="translate(-21.233003,-26.037501)" />
  <polyline
     style="fill:none;stroke:#000000;stroke-width:2;stroke-miterlimit:4;stroke-dasharray:none;shape-rendering:crispEdges"
     id="polyline3553"
     points="74.88,32.4 74.88,36.865"
     transform="translate(-21.233003,-26.037501)" />
  <polyline
     style="fill:none;stroke:#000000;stroke-width:2;stroke-miterlimit:4;stroke-dasharray:none;shape-rendering:crispEdges"
     id="polyline3555"
     points="164.16,384.48 164.16,380.015"
     transform="translate(-21.233003,-26.037501)" />
  <polyline
     style="fill:none;stroke:#000000;stroke-width:2;stroke-miterlimit:4;stroke-dasharray:none;shape-rendering:crispEdges"
     id="polyline3557"
     points="164.16,32.4 164.16,36.865"
     transform="translate(-21.233003,-26.037501)" />
  <polyline
     style="fill:none;stroke:#000000;stroke-width:2;stroke-miterlimit:4;stroke-dasharray:none;shape-rendering:crispEdges"
     id="polyline3559"
     points="253.44,384.48 253.44,380.015"
     transform="translate(-21.233003,-26.037501)" />
  <polyline
     style="fill:none;stroke:#000000;stroke-width:2;stroke-miterlimit:4;stroke-dasharray:none;shape-rendering:crispEdges"
     id="polyline3561"
     points="253.44,32.4 253.44,36.865"
     transform="translate(-21.233003,-26.037501)" />
  <polyline
     style="fill:none;stroke:#000000;stroke-width:2;stroke-miterlimit:4;stroke-dasharray:none;shape-rendering:crispEdges"
     id="polyline3563"
     points="342.72,384.48 342.72,380.015"
     transform="translate(-21.233003,-26.037501)" />
  <polyline
     style="fill:none;stroke:#000000;stroke-width:2;stroke-miterlimit:4;stroke-dasharray:none;shape-rendering:crispEdges"
     id="polyline3565"
     points="342.72,32.4 342.72,36.865"
     transform="translate(-21.233003,-26.037501)" />
  <polyline
     style="fill:none;stroke:#000000;stroke-width:2;stroke-miterlimit:4;stroke-dasharray:none;shape-rendering:crispEdges"
     id="polyline3567"
     points="432,384.48 432,380.015"
     transform="translate(-21.233003,-26.037501)" />
  <polyline
     style="fill:none;stroke:#000000;stroke-width:2;stroke-miterlimit:4;stroke-dasharray:none;shape-rendering:crispEdges"
     id="polyline3569"
     points="432,32.4 432,36.865"
     transform="translate(-21.233003,-26.037501)" />
  <polyline
     style="fill:none;stroke:#000000;stroke-width:2;stroke-miterlimit:4;stroke-dasharray:none;shape-rendering:crispEdges"
     id="polyline3571"
     points="521.28,384.48 521.28,380.015"
     transform="translate(-21.233003,-26.037501)" />
  <polyline
     style="fill:none;stroke:#000000;stroke-width:2;stroke-miterlimit:4;stroke-dasharray:none;shape-rendering:crispEdges"
     id="polyline3573"
     points="521.28,32.4 521.28,36.865"
     transform="translate(-21.233003,-26.037501)" />
  <text
     style="font-size:15px;font-family:Helvetica;baseline-shift:-10px;text-anchor:middle;fill:#000000;stroke-width:2;stroke-miterlimit:4;stroke-dasharray:none;shape-rendering:crispEdges"
     id="text3575"
     baseline-shift="-10"
     font-size="10"
     y="366.17847"
     x="53.663597">0</text>
  <text
     style="font-size:15px;font-family:Helvetica;baseline-shift:-10px;text-anchor:middle;fill:#000000;stroke-width:2;stroke-miterlimit:4;stroke-dasharray:none;shape-rendering:crispEdges"
     id="text3577"
     baseline-shift="-10"
     font-size="10"
     y="366.17847"
     x="142.93361">0.2</text>
  <text
     style="font-size:15px;font-family:Helvetica;baseline-shift:-10px;text-anchor:middle;fill:#000000;stroke-width:2;stroke-miterlimit:4;stroke-dasharray:none;shape-rendering:crispEdges"
     id="text3579"
     baseline-shift="-10"
     font-size="10"
     y="366.17847"
     x="232.1911">0.4</text>
  <text
     style="font-size:15px;font-family:Helvetica;baseline-shift:-10px;text-anchor:middle;fill:#000000;stroke-width:2;stroke-miterlimit:4;stroke-dasharray:none;shape-rendering:crispEdges"
     id="text3581"
     baseline-shift="-10"
     font-size="10"
     y="366.17847"
     x="321.48859">0.6</text>
  <text
     style="font-size:15px;font-family:Helvetica;baseline-shift:-10px;text-anchor:middle;fill:#000000;stroke-width:2;stroke-miterlimit:4;stroke-dasharray:none;shape-rendering:crispEdges"
     id="text3583"
     baseline-shift="-10"
     font-size="10"
     y="366.17847"
     x="410.76859">0.8</text>
  <text
     style="font-size:15px;font-family:Helvetica;baseline-shift:-10px;text-anchor:middle;fill:#000000;stroke-width:2;stroke-miterlimit:4;stroke-dasharray:none;shape-rendering:crispEdges"
     id="text3585"
     baseline-shift="-10"
     font-size="10"
     y="366.21597"
     x="500.31613">1</text>
  <polyline
     style="fill:none;stroke:#000000;stroke-width:2;stroke-miterlimit:4;stroke-dasharray:none;shape-rendering:crispEdges"
     id="polyline3587"
     points="74.88,384.48 79.348,384.48"
     transform="translate(-21.233003,-26.037501)" />
  <polyline
     style="fill:none;stroke:#000000;stroke-width:2;stroke-miterlimit:4;stroke-dasharray:none;shape-rendering:crispEdges"
     id="polyline3589"
     points="521.28,384.48 516.812,384.48"
     transform="translate(-21.233003,-26.037501)" />
  <polyline
     style="fill:none;stroke:#000000;stroke-width:2;stroke-miterlimit:4;stroke-dasharray:none;shape-rendering:crispEdges"
     id="polyline3591"
     points="74.88,334.183 79.348,334.183"
     transform="translate(-21.233003,-26.037501)" />
  <polyline
     style="fill:none;stroke:#000000;stroke-width:2;stroke-miterlimit:4;stroke-dasharray:none;shape-rendering:crispEdges"
     id="polyline3593"
     points="521.28,334.183 516.812,334.183"
     transform="translate(-21.233003,-26.037501)" />
  <polyline
     style="fill:none;stroke:#000000;stroke-width:2;stroke-miterlimit:4;stroke-dasharray:none;shape-rendering:crispEdges"
     id="polyline3595"
     points="74.88,283.886 79.348,283.886"
     transform="translate(-21.233003,-26.037501)" />
  <polyline
     style="fill:none;stroke:#000000;stroke-width:2;stroke-miterlimit:4;stroke-dasharray:none;shape-rendering:crispEdges"
     id="polyline3597"
     points="521.28,283.886 516.812,283.886"
     transform="translate(-21.233003,-26.037501)" />
  <polyline
     style="fill:none;stroke:#000000;stroke-width:2;stroke-miterlimit:4;stroke-dasharray:none;shape-rendering:crispEdges"
     id="polyline3599"
     points="74.88,233.589 79.348,233.589"
     transform="translate(-21.233003,-26.037501)" />
  <polyline
     style="fill:none;stroke:#000000;stroke-width:2;stroke-miterlimit:4;stroke-dasharray:none;shape-rendering:crispEdges"
     id="polyline3601"
     points="521.28,233.589 516.812,233.589"
     transform="translate(-21.233003,-26.037501)" />
  <polyline
     style="fill:none;stroke:#000000;stroke-width:2;stroke-miterlimit:4;stroke-dasharray:none;shape-rendering:crispEdges"
     id="polyline3603"
     points="74.88,183.291 79.348,183.291"
     transform="translate(-21.233003,-26.037501)" />
  <polyline
     style="fill:none;stroke:#000000;stroke-width:2;stroke-miterlimit:4;stroke-dasharray:none;shape-rendering:crispEdges"
     id="polyline3605"
     points="521.28,183.291 516.812,183.291"
     transform="translate(-21.233003,-26.037501)" />
  <polyline
     style="fill:none;stroke:#000000;stroke-width:2;stroke-miterlimit:4;stroke-dasharray:none;shape-rendering:crispEdges"
     id="polyline3607"
     points="74.88,132.994 79.348,132.994"
     transform="translate(-21.233003,-26.037501)" />
  <polyline
     style="fill:none;stroke:#000000;stroke-width:2;stroke-miterlimit:4;stroke-dasharray:none;shape-rendering:crispEdges"
     id="polyline3609"
     points="521.28,132.994 516.812,132.994"
     transform="translate(-21.233003,-26.037501)" />
  <polyline
     style="fill:none;stroke:#000000;stroke-width:2;stroke-miterlimit:4;stroke-dasharray:none;shape-rendering:crispEdges"
     id="polyline3611"
     points="74.88,82.6971 79.348,82.6971"
     transform="translate(-21.233003,-26.037501)" />
  <polyline
     style="fill:none;stroke:#000000;stroke-width:2;stroke-miterlimit:4;stroke-dasharray:none;shape-rendering:crispEdges"
     id="polyline3613"
     points="521.28,82.6971 516.812,82.6971"
     transform="translate(-21.233003,-26.037501)" />
  <polyline
     style="fill:none;stroke:#000000;stroke-width:2;stroke-miterlimit:4;stroke-dasharray:none;shape-rendering:crispEdges"
     id="polyline3615"
     points="74.88,32.4 79.348,32.4"
     transform="translate(-21.233003,-26.037501)" />
  <polyline
     style="fill:none;stroke:#000000;stroke-width:2;stroke-miterlimit:4;stroke-dasharray:none;shape-rendering:crispEdges"
     id="polyline3617"
     points="521.28,32.4 516.812,32.4"
     transform="translate(-21.233003,-26.037501)" />
  <text
     style="font-size:15px;font-family:Helvetica;baseline-shift:-5px;text-anchor:end;fill:#000000;stroke-width:2;stroke-miterlimit:4;stroke-dasharray:none;shape-rendering:crispEdges"
     id="text3619"
     baseline-shift="-5"
     font-size="10"
     y="357.67749"
     x="44.050705">0</text>
  <text
     style="font-size:15px;font-family:Helvetica;baseline-shift:-5px;text-anchor:end;fill:#000000;stroke-width:2;stroke-miterlimit:4;stroke-dasharray:none;shape-rendering:crispEdges"
     id="text3621"
     baseline-shift="-5"
     font-size="10"
     y="307.38049"
     x="46.125664">0.2</text>
  <text
     style="font-size:15px;font-family:Helvetica;baseline-shift:-5px;text-anchor:end;fill:#000000;stroke-width:2;stroke-miterlimit:4;stroke-dasharray:none;shape-rendering:crispEdges"
     id="text3623"
     baseline-shift="-5"
     font-size="10"
     y="257.08347"
     x="46.103165">0.4</text>
  <text
     style="font-size:15px;font-family:Helvetica;baseline-shift:-5px;text-anchor:end;fill:#000000;stroke-width:2;stroke-miterlimit:4;stroke-dasharray:none;shape-rendering:crispEdges"
     id="text3625"
     baseline-shift="-5"
     font-size="10"
     y="206.7865"
     x="46.120667">0.6</text>
  <text
     style="font-size:15px;font-family:Helvetica;baseline-shift:-5px;text-anchor:end;fill:#000000;stroke-width:2;stroke-miterlimit:4;stroke-dasharray:none;shape-rendering:crispEdges"
     id="text3627"
     baseline-shift="-5"
     font-size="10"
     y="156.48849"
     x="46.120667">0.8</text>
  <text
     style="font-size:15px;font-family:Helvetica;baseline-shift:-5px;text-anchor:end;fill:#000000;stroke-width:2;stroke-miterlimit:4;stroke-dasharray:none;shape-rendering:crispEdges"
     id="text3629"
     baseline-shift="-5"
     font-size="10"
     y="106.22901"
     x="44.303207">1</text>
  <text
     style="font-size:15px;font-family:Helvetica;baseline-shift:-5px;text-anchor:end;fill:#000000;stroke-width:2;stroke-miterlimit:4;stroke-dasharray:none;shape-rendering:crispEdges"
     id="text3631"
     baseline-shift="-5"
     font-size="10"
     y="55.932095"
     x="45.978165">1.2</text>
  <text
     style="font-size:15px;font-family:Helvetica;baseline-shift:-5px;text-anchor:end;fill:#000000;stroke-width:2;stroke-miterlimit:4;stroke-dasharray:none;shape-rendering:crispEdges"
     id="text3633"
     baseline-shift="-5"
     font-size="10"
     y="5.6350002"
     x="45.955666">1.4</text>
  <text
     style="font-size:15px;font-family:Helvetica;baseline-shift:-10px;text-anchor:middle;fill:#000000;stroke-width:2;stroke-miterlimit:4;stroke-dasharray:none;shape-rendering:crispEdges"
     id="text3635"
     baseline-shift="-10"
     font-size="10"
     y="382.67099"
     x="277.23358">p1</text>
  <text
     style="font-size:15px;font-family:Helvetica;baseline-shift:0px;text-anchor:middle;fill:#000000;stroke-width:2;stroke-miterlimit:4;stroke-dasharray:none;shape-rendering:crispEdges"
     id="text3637"
     baseline-shift="0"
     transform="matrix(0,-1,1,0,0,0)"
     font-size="10"
     y="10.935"
     x="-182.45753">I(X;Y)</text>
  <polyline
     style="fill:none;stroke:#0000ff;stroke-width:2;stroke-miterlimit:4;stroke-dasharray:none;shape-rendering:crispEdges"
     id="polyline3639"
     points="75.3264,131.937 75.7728,131.131 76.2192,130.421 76.6656,129.772 77.112,129.169 77.5584,128.602 78.0048,128.066 78.4512,127.557 78.8976,127.07 79.344,126.603 79.7904,126.154 80.2368,125.723 80.6832,125.306 81.1296,124.903 81.576,124.514 82.0224,124.137 82.4688,123.771 82.9152,123.416 83.3616,123.071 83.808,122.735 84.2544,122.409 84.7008,122.092 85.1472,121.783 85.5936,121.482 86.04,121.188 86.4864,120.902 86.9328,120.623 87.3792,120.351 87.8256,120.086 88.272,119.826 88.7184,119.573 89.1648,119.326 89.6112,119.085 90.0576,118.849 90.504,118.618 90.9504,118.393 91.3968,118.173 91.8432,117.958 92.2896,117.748 92.736,117.543 93.1824,117.342 93.6288,117.146 94.0752,116.954 94.5216,116.767 94.968,116.583 95.4144,116.404 95.8608,116.229 96.3072,116.058 96.7536,115.891 97.2,115.727 97.6464,115.567 98.0928,115.411 98.5392,115.259 98.9856,115.11 99.432,114.964 99.8784,114.822 100.325,114.683 100.771,114.547 101.218,114.415 101.664,114.286 102.11,114.16 102.557,114.037 103.003,113.917 103.45,113.8 103.896,113.686 104.342,113.574 104.789,113.466 105.235,113.361 105.682,113.258 106.128,113.158 106.574,113.06 107.021,112.966 107.467,112.873 107.914,112.784 108.36,112.697 108.806,112.612 109.253,112.53 109.699,112.451 110.146,112.374 110.592,112.299 111.038,112.227 111.485,112.157 111.931,112.089 112.378,112.023 112.824,111.96 113.27,111.899 113.717,111.84 114.163,111.784 114.61,111.729 115.056,111.677 115.502,111.627 115.949,111.579 116.395,111.533 116.842,111.489 117.288,111.447 117.734,111.407 118.181,111.369 118.627,111.333 119.074,111.299 119.52,111.267 119.966,111.236 120.413,111.208 120.859,111.182 121.306,111.157 121.752,111.134 122.198,111.113 122.645,111.094 123.091,111.077 123.538,111.061 123.984,111.048 124.43,111.035 124.877,111.025 125.323,111.017 125.77,111.01 126.216,111.004 126.662,111.001 127.109,110.999 127.555,110.999 128.002,111 128.448,111.003 128.894,111.008 129.341,111.014 129.787,111.022 130.234,111.031 130.68,111.042 131.126,111.055 131.573,111.069 132.019,111.084 132.466,111.101 132.912,111.12 133.358,111.14 133.805,111.161 134.251,111.184 134.698,111.209 135.144,111.235 135.59,111.262 136.037,111.291 136.483,111.321 136.93,111.353 137.376,111.386 137.822,111.42 138.269,111.456 138.715,111.493 139.162,111.532 139.608,111.572 140.054,111.613 140.501,111.655 140.947,111.699 141.394,111.745 141.84,111.791 142.286,111.839 142.733,111.888 143.179,111.939 143.626,111.99 144.072,112.043 144.518,112.098 144.965,112.153 145.411,112.21 145.858,112.268 146.304,112.327 146.75,112.388 147.197,112.45 147.643,112.513 148.09,112.577 148.536,112.642 148.982,112.709 149.429,112.777 149.875,112.846 150.322,112.916 150.768,112.987 151.214,113.059 151.661,113.133 152.107,113.208 152.554,113.284 153,113.361 153.446,113.439 153.893,113.518 154.339,113.599 154.786,113.681 155.232,113.763 155.678,113.847 156.125,113.932 156.571,114.018 157.018,114.105 157.464,114.193 157.91,114.282 158.357,114.373 158.803,114.464 159.25,114.557 159.696,114.65 160.142,114.745 160.589,114.84 161.035,114.937 161.482,115.035 161.928,115.134 162.374,115.233 162.821,115.334 163.267,115.436 163.714,115.539 164.16,115.643 164.606,115.748 165.053,115.854 165.499,115.961 165.946,116.068 166.392,116.177 166.838,116.287 167.285,116.398 167.731,116.51 168.178,116.623 168.624,116.736 169.07,116.851 169.517,116.967 169.963,117.083 170.41,117.201 170.856,117.319 171.302,117.439 171.749,117.559 172.195,117.681 172.642,117.803 173.088,117.926 173.534,118.05 173.981,118.176 174.427,118.302 174.874,118.428 175.32,118.556 175.766,118.685 176.213,118.815 176.659,118.945 177.106,119.077 177.552,119.209 177.998,119.342 178.445,119.476 178.891,119.611 179.338,119.747 179.784,119.884 180.23,120.022 180.677,120.16 181.123,120.299 181.57,120.44 182.016,120.581 182.462,120.723 182.909,120.866 183.355,121.009 183.802,121.154 184.248,121.299 184.694,121.445 185.141,121.592 185.587,121.74 186.034,121.889 186.48,122.038 186.926,122.189 187.373,122.34 187.819,122.492 188.266,122.645 188.712,122.799 189.158,122.953 189.605,123.108 190.051,123.264 190.498,123.421 190.944,123.579 191.39,123.738 191.837,123.897 192.283,124.057 192.73,124.218 193.176,124.38 193.622,124.542 194.069,124.705 194.515,124.87 194.962,125.034 195.408,125.2 195.854,125.366 196.301,125.534 196.747,125.702 197.194,125.87 197.64,126.04 198.086,126.21 198.533,126.381 198.979,126.553 199.426,126.725 199.872,126.899 200.318,127.073 200.765,127.247 201.211,127.423 201.658,127.599 202.104,127.776 202.55,127.954 202.997,128.133 203.443,128.312 203.89,128.492 204.336,128.672 204.782,128.854 205.229,129.036 205.675,129.219 206.122,129.403 206.568,129.587 207.014,129.772 207.461,129.958 207.907,130.144 208.354,130.332 208.8,130.52 209.246,130.708 209.693,130.898 210.139,131.088 210.586,131.278 211.032,131.47 211.478,131.662 211.925,131.855 212.371,132.049 212.818,132.243 213.264,132.438 213.71,132.634 214.157,132.83 214.603,133.027 215.05,133.225 215.496,133.423 215.942,133.622 216.389,133.822 216.835,134.022 217.282,134.224 217.728,134.425 218.174,134.628 218.621,134.831 219.067,135.035 219.514,135.239 219.96,135.445 220.406,135.65 220.853,135.857 221.299,136.064 221.746,136.272 222.192,136.48 222.638,136.69 223.085,136.899 223.531,137.11 223.978,137.321 224.424,137.533 224.87,137.745 225.317,137.958 225.763,138.172 226.21,138.386 226.656,138.601 227.102,138.817 227.549,139.033 227.995,139.25 228.442,139.468 228.888,139.686 229.334,139.905 229.781,140.124 230.227,140.344 230.674,140.565 231.12,140.786 231.566,141.008 232.013,141.231 232.459,141.454 232.906,141.678 233.352,141.903 233.798,142.128 234.245,142.353 234.691,142.58 235.138,142.807 235.584,143.034 236.03,143.263 236.477,143.491 236.923,143.721 237.37,143.951 237.816,144.181 238.262,144.413 238.709,144.645 239.155,144.877 239.602,145.11 240.048,145.344 240.494,145.578 240.941,145.813 241.387,146.048 241.834,146.284 242.28,146.521 242.726,146.758 243.173,146.996 243.619,147.235 244.066,147.474 244.512,147.713 244.958,147.954 245.405,148.194 245.851,148.436 246.298,148.678 246.744,148.92 247.19,149.164 247.637,149.407 248.083,149.652 248.53,149.896 248.976,150.142 249.422,150.388 249.869,150.635 250.315,150.882 250.762,151.13 251.208,151.378 251.654,151.627 252.101,151.876 252.547,152.126 252.994,152.377 253.44,152.628 253.886,152.88 254.333,153.132 254.779,153.385 255.226,153.639 255.672,153.893 256.118,154.147 256.565,154.402 257.011,154.658 257.458,154.914 257.904,155.171 258.35,155.429 258.797,155.687 259.243,155.945 259.69,156.204 260.136,156.464 260.582,156.724 261.029,156.985 261.475,157.246 261.922,157.508 262.368,157.77 262.814,158.033 263.261,158.296 263.707,158.56 264.154,158.825 264.6,159.09 265.046,159.355 265.493,159.622 265.939,159.888 266.386,160.156 266.832,160.423 267.278,160.692 267.725,160.96 268.171,161.23 268.618,161.5 269.064,161.77 269.51,162.041 269.957,162.313 270.403,162.585 270.85,162.857 271.296,163.13 271.742,163.404 272.189,163.678 272.635,163.953 273.082,164.228 273.528,164.504 273.974,164.78 274.421,165.057 274.867,165.334 275.314,165.612 275.76,165.89 276.206,166.169 276.653,166.449 277.099,166.729 277.546,167.009 277.992,167.29 278.438,167.571 278.885,167.853 279.331,168.136 279.778,168.419 280.224,168.702 280.67,168.986 281.117,169.271 281.563,169.556 282.01,169.842 282.456,170.128 282.902,170.414 283.349,170.701 283.795,170.989 284.242,171.277 284.688,171.566 285.134,171.855 285.581,172.144 286.027,172.434 286.474,172.725 286.92,173.016 287.366,173.308 287.813,173.6 288.259,173.893 288.706,174.186 289.152,174.479 289.598,174.773 290.045,175.068 290.491,175.363 290.938,175.659 291.384,175.955 291.83,176.251 292.277,176.548 292.723,176.846 293.17,177.144 293.616,177.443 294.062,177.742 294.509,178.041 294.955,178.341 295.402,178.642 295.848,178.943 296.294,179.244 296.741,179.546 297.187,179.849 297.634,180.152 298.08,180.455 298.526,180.759 298.973,181.063 299.419,181.368 299.866,181.674 300.312,181.98 300.758,182.286 301.205,182.593 301.651,182.9 302.098,183.208 302.544,183.516 302.99,183.825 303.437,184.134 303.883,184.444 304.33,184.754 304.776,185.064 305.222,185.375 305.669,185.687 306.115,185.999 306.562,186.312 307.008,186.625 307.454,186.938 307.901,187.252 308.347,187.566 308.794,187.881 309.24,188.197 309.686,188.512 310.133,188.829 310.579,189.145 311.026,189.463 311.472,189.78 311.918,190.098 312.365,190.417 312.811,190.736 313.258,191.056 313.704,191.376 314.15,191.696 314.597,192.017 315.043,192.338 315.49,192.66 315.936,192.983 316.382,193.305 316.829,193.629 317.275,193.952 317.722,194.276 318.168,194.601 318.614,194.926 319.061,195.252 319.507,195.578 319.954,195.904 320.4,196.231 320.846,196.558 321.293,196.886 321.739,197.214 322.186,197.543 322.632,197.872 323.078,198.202 323.525,198.532 323.971,198.862 324.418,199.193 324.864,199.525 325.31,199.856 325.757,200.189 326.203,200.522 326.65,200.855 327.096,201.188 327.542,201.523 327.989,201.857 328.435,202.192 328.882,202.528 329.328,202.863 329.774,203.2 330.221,203.537 330.667,203.874 331.114,204.211 331.56,204.55 332.006,204.888 332.453,205.227 332.899,205.567 333.346,205.906 333.792,206.247 334.238,206.587 334.685,206.929 335.131,207.27 335.578,207.612 336.024,207.955 336.47,208.298 336.917,208.641 337.363,208.985 337.81,209.329 338.256,209.674 338.702,210.019 339.149,210.365 339.595,210.711 340.042,211.057 340.488,211.404 340.934,211.751 341.381,212.099 341.827,212.447 342.274,212.796 342.72,213.145 343.166,213.495 343.613,213.844 344.059,214.195 344.506,214.546 344.952,214.897 345.398,215.248 345.845,215.6 346.291,215.953 346.738,216.306 347.184,216.659 347.63,217.013 348.077,217.367 348.523,217.722 348.97,218.077 349.416,218.432 349.862,218.788 350.309,219.145 350.755,219.501 351.202,219.859 351.648,220.216 352.094,220.574 352.541,220.933 352.987,221.292 353.434,221.651 353.88,222.011 354.326,222.371 354.773,222.731 355.219,223.092 355.666,223.454 356.112,223.816 356.558,224.178 357.005,224.54 357.451,224.904 357.898,225.267 358.344,225.631 358.79,225.995 359.237,226.36 359.683,226.725 360.13,227.091 360.576,227.457 361.022,227.823 361.469,228.19 361.915,228.558 362.362,228.925 362.808,229.293 363.254,229.662 363.701,230.031 364.147,230.4 364.594,230.77 365.04,231.14 365.486,231.511 365.933,231.882 366.379,232.253 366.826,232.625 367.272,232.997 367.718,233.37 368.165,233.743 368.611,234.116 369.058,234.49 369.504,234.865 369.95,235.239 370.397,235.614 370.843,235.99 371.29,236.366 371.736,236.742 372.182,237.119 372.629,237.496 373.075,237.874 373.522,238.252 373.968,238.63 374.414,239.009 374.861,239.388 375.307,239.768 375.754,240.148 376.2,240.528 376.646,240.909 377.093,241.29 377.539,241.672 377.986,242.054 378.432,242.436 378.878,242.819 379.325,243.202 379.771,243.586 380.218,243.97 380.664,244.354 381.11,244.739 381.557,245.125 382.003,245.51 382.45,245.896 382.896,246.283 383.342,246.67 383.789,247.057 384.235,247.445 384.682,247.833 385.128,248.221 385.574,248.61 386.021,248.999 386.467,249.389 386.914,249.779 387.36,250.17 387.806,250.56 388.253,250.952 388.699,251.343 389.146,251.735 389.592,252.128 390.038,252.521 390.485,252.914 390.931,253.308 391.378,253.702 391.824,254.096 392.27,254.491 392.717,254.886 393.163,255.282 393.61,255.678 394.056,256.074 394.502,256.471 394.949,256.868 395.395,257.266 395.842,257.664 396.288,258.062 396.734,258.461 397.181,258.86 397.627,259.26 398.074,259.66 398.52,260.06 398.966,260.461 399.413,260.862 399.859,261.264 400.306,261.666 400.752,262.068 401.198,262.471 401.645,262.874 402.091,263.277 402.538,263.681 402.984,264.085 403.43,264.49 403.877,264.895 404.323,265.301 404.77,265.706 405.216,266.113 405.662,266.519 406.109,266.926 406.555,267.334 407.002,267.742 407.448,268.15 407.894,268.558 408.341,268.967 408.787,269.377 409.234,269.786 409.68,270.196 410.126,270.607 410.573,271.018 411.019,271.429 411.466,271.841 411.912,272.253 412.358,272.665 412.805,273.078 413.251,273.491 413.698,273.905 414.144,274.319 414.59,274.733 415.037,275.148 415.483,275.563 415.93,275.978 416.376,276.394 416.822,276.811 417.269,277.227 417.715,277.644 418.162,278.062 418.608,278.48 419.054,278.898 419.501,279.316 419.947,279.735 420.394,280.155 420.84,280.574 421.286,280.994 421.733,281.415 422.179,281.836 422.626,282.257 423.072,282.679 423.518,283.101 423.965,283.523 424.411,283.946 424.858,284.369 425.304,284.793 425.75,285.216 426.197,285.641 426.643,286.065 427.09,286.491 427.536,286.916 427.982,287.342 428.429,287.768 428.875,288.195 429.322,288.622 429.768,289.049 430.214,289.477 430.661,289.905 431.107,290.333 431.554,290.762 432,291.191 432.446,291.621 432.893,292.051 433.339,292.481 433.786,292.912 434.232,293.343 434.678,293.775 435.125,294.206 435.571,294.639 436.018,295.071 436.464,295.504 436.91,295.938 437.357,296.371 437.803,296.806 438.25,297.24 438.696,297.675 439.142,298.11 439.589,298.546 440.035,298.982 440.482,299.418 440.928,299.855 441.374,300.292 441.821,300.73 442.267,301.167 442.714,301.606 443.16,302.044 443.606,302.483 444.053,302.923 444.499,303.362 444.946,303.803 445.392,304.243 445.838,304.684 446.285,305.125 446.731,305.567 447.178,306.009 447.624,306.451 448.07,306.894 448.517,307.337 448.963,307.781 449.41,308.224 449.856,308.669 450.302,309.113 450.749,309.558 451.195,310.004 451.642,310.449 452.088,310.895 452.534,311.342 452.981,311.789 453.427,312.236 453.874,312.683 454.32,313.131 454.766,313.58 455.213,314.028 455.659,314.478 456.106,314.927 456.552,315.377 456.998,315.827 457.445,316.277 457.891,316.728 458.338,317.18 458.784,317.631 459.23,318.083 459.677,318.536 460.123,318.989 460.57,319.442 461.016,319.895 461.462,320.349 461.909,320.803 462.355,321.258 462.802,321.713 463.248,322.168 463.694,322.624 464.141,323.08 464.587,323.536 465.034,323.993 465.48,324.451 465.926,324.908 466.373,325.366 466.819,325.824 467.266,326.283 467.712,326.742 468.158,327.201 468.605,327.661 469.051,328.121 469.498,328.582 469.944,329.043 470.39,329.504 470.837,329.966 471.283,330.428 471.73,330.89 472.176,331.353 472.622,331.816 473.069,332.279 473.515,332.743 473.962,333.207 474.408,333.672 474.854,334.137 475.301,334.602 475.747,335.068 476.194,335.534 476.64,336 477.086,336.467 477.533,336.934 477.979,337.401 478.426,337.869 478.872,338.337 479.318,338.806 479.765,339.275 480.211,339.744 480.658,340.214 481.104,340.684 481.55,341.154 481.997,341.625 482.443,342.096 482.89,342.568 483.336,343.04 483.782,343.512 484.229,343.985 484.675,344.458 485.122,344.931 485.568,345.405 486.014,345.879 486.461,346.353 486.907,346.828 487.354,347.303 487.8,347.779 488.246,348.254 488.693,348.731 489.139,349.207 489.586,349.684 490.032,350.162 490.478,350.639 490.925,351.117 491.371,351.596 491.818,352.075 492.264,352.554 492.71,353.033 493.157,353.513 493.603,353.994 494.05,354.474 494.496,354.955 494.942,355.437 495.389,355.918 495.835,356.4 496.282,356.883 496.728,357.366 497.174,357.849 497.621,358.332 498.067,358.816 498.514,359.301 498.96,359.785 499.406,360.27 499.853,360.755 500.299,361.241 500.746,361.727 501.192,362.214 501.638,362.701 502.085,363.188 502.531,363.675 502.978,364.163 503.424,364.651 503.87,365.14 504.317,365.629 504.763,366.118 505.21,366.608 505.656,367.098 506.102,367.589 506.549,368.08 506.995,368.571 507.442,369.062 507.888,369.554 508.334,370.046 508.781,370.539 509.227,371.032 509.674,371.525 510.12,372.019 510.566,372.513 511.013,373.008 511.459,373.502 511.906,373.998 512.352,374.493 512.798,374.989 513.245,375.485 513.691,375.982 514.138,376.479 514.584,376.976 515.03,377.474 515.477,377.972 515.923,378.47 516.37,378.969 516.816,379.468 517.262,379.968 517.709,380.468 518.155,380.968 518.602,381.469 519.048,381.97 519.494,382.471 519.941,382.973 520.387,383.475 520.834,383.977"
     transform="translate(-21.233003,-26.037501)" />
</svg>
