<?xml version="1.0" encoding="UTF-8" standalone="no"?>
<!-- Created with Inkscape (http://www.inkscape.org/) -->

<svg
   xmlns:dc="http://purl.org/dc/elements/1.1/"
   xmlns:cc="http://creativecommons.org/ns#"
   xmlns:rdf="http://www.w3.org/1999/02/22-rdf-syntax-ns#"
   xmlns:svg="http://www.w3.org/2000/svg"
   xmlns="http://www.w3.org/2000/svg"
   xmlns:sodipodi="http://sodipodi.sourceforge.net/DTD/sodipodi-0.dtd"
   xmlns:inkscape="http://www.inkscape.org/namespaces/inkscape"
   width="167.06621mm"
   height="69.319435mm"
   viewBox="0 0 591.96688 245.62004"
   id="svg2"
   version="1.1"
   inkscape:version="0.91 r13725"
   sodipodi:docname="markov-morder.svg">
  <defs
     id="defs4" />
  <sodipodi:namedview
     id="base"
     pagecolor="#ffffff"
     bordercolor="#666666"
     borderopacity="1.0"
     inkscape:pageopacity="0.0"
     inkscape:pageshadow="2"
     inkscape:zoom="0.35"
     inkscape:cx="-165.93963"
     inkscape:cy="-177.04878"
     inkscape:document-units="px"
     inkscape:current-layer="layer1"
     showgrid="false"
     fit-margin-top="0"
     fit-margin-left="0"
     fit-margin-right="0"
     fit-margin-bottom="0"
     inkscape:window-width="1364"
     inkscape:window-height="726"
     inkscape:window-x="0"
     inkscape:window-y="20"
     inkscape:window-maximized="1" />
  <metadata
     id="metadata7">
    <rdf:RDF>
      <cc:Work
         rdf:about="">
        <dc:format>image/svg+xml</dc:format>
        <dc:type
           rdf:resource="http://purl.org/dc/dcmitype/StillImage" />
        <dc:title></dc:title>
      </cc:Work>
    </rdf:RDF>
  </metadata>
  <g
     inkscape:label="Layer 1"
     inkscape:groupmode="layer"
     id="layer1"
     transform="translate(-72.368205,-109.69337)">
    <g
       id="g3730"
       transform="translate(68.571429,-28.571429)">
      <path
         d="m 16.86,245.8061 -0.67375,2.515 -1.845,1.84625 -2.52,0.67375 -2.52,-0.67375 -1.845,-1.84625 -0.67375,-2.515 0.67375,-2.51875 1.845,-1.84625 2.52,-0.67375 2.52,0.67375 1.845,1.84625 0.67375,2.51875"
         style="fill:none;stroke:#000000;stroke-width:1.76249993;stroke-linecap:round;stroke-linejoin:round;stroke-miterlimit:10;stroke-dasharray:none;stroke-opacity:1"
         id="path3369"
         inkscape:connector-curvature="0" />
      <path
         d="m 59.12625,245.9336 -0.67375,2.52 -1.84625,1.84 -2.51875,0.67875 -2.52,-0.67875 -1.84125,-1.84 -0.67875,-2.52 0.67875,-2.52 1.84125,-1.845 2.52,-0.67375 2.51875,0.67375 1.84625,1.845 0.67375,2.52"
         style="fill:none;stroke:#000000;stroke-width:1.76249993;stroke-linecap:round;stroke-linejoin:round;stroke-miterlimit:10;stroke-dasharray:none;stroke-opacity:1"
         id="path3371"
         inkscape:connector-curvature="0" />
      <path
         d="m 375.7175,246.0161 -0.67875,2.47125 -1.84,1.81125 -2.52,0.66 -2.52,-0.66 -1.845,-1.81125 -0.67375,-2.47125 0.67375,-2.47 1.845,-1.80625 2.52,-0.665 2.52,0.665 1.84,1.80625 0.67875,2.47"
         style="fill:none;stroke:#000000;stroke-width:1.74554121;stroke-linecap:round;stroke-linejoin:round;stroke-miterlimit:10;stroke-dasharray:none;stroke-opacity:1"
         id="path3373"
         inkscape:connector-curvature="0" />
      <path
         d="m 415.03875,245.98735 -0.67375,2.47125 -1.845,1.80625 -2.52,0.66375 -2.52,-0.66375 -1.845,-1.80625 -0.67375,-2.47125 0.67375,-2.47125 1.845,-1.81125 2.52,-0.65875 2.52,0.65875 1.845,1.81125 0.67375,2.47125"
         style="fill:none;stroke:#000000;stroke-width:1.74554121;stroke-linecap:round;stroke-linejoin:round;stroke-miterlimit:10;stroke-dasharray:none;stroke-opacity:1"
         id="path3375"
         inkscape:connector-curvature="0" />
      <path
         d="m 181.18625,246.6361 -0.67375,2.52 -1.845,1.84625 -2.52,0.67375 -2.52,-0.67375 -1.845,-1.84625 -0.67375,-2.52 0.67375,-2.51875 1.845,-1.84625 2.52,-0.67375 2.52,0.67375 1.845,1.84625 0.67375,2.51875"
         style="fill:none;stroke:#000000;stroke-width:1.76249993;stroke-linecap:round;stroke-linejoin:round;stroke-miterlimit:10;stroke-dasharray:none;stroke-opacity:1"
         id="path3377"
         inkscape:connector-curvature="0" />
      <path
         d="m 226.42625,245.77735 -0.67375,2.515 -1.84625,1.845 -2.52,0.67375 -2.51875,-0.67375 -1.84625,-1.845 -0.67375,-2.515 0.67375,-2.52 1.84625,-1.845 2.51875,-0.67375 2.52,0.67375 1.84625,1.845 0.67375,2.52"
         style="fill:none;stroke:#000000;stroke-width:1.76249993;stroke-linecap:round;stroke-linejoin:round;stroke-miterlimit:10;stroke-dasharray:none;stroke-opacity:1"
         id="path3379"
         inkscape:connector-curvature="0" />
      <path
         d="m 268.4475,245.8561 -0.67375,2.51875 -1.84625,1.84125 -2.51875,0.67375 -2.52,-0.67375 -1.84625,-1.84125 -0.67375,-2.51875 0.67375,-2.52 1.84625,-1.84625 2.52,-0.67375 2.51875,0.67375 1.84625,1.84625 0.67375,2.52"
         style="fill:none;stroke:#000000;stroke-width:1.76249993;stroke-linecap:round;stroke-linejoin:round;stroke-miterlimit:10;stroke-dasharray:none;stroke-opacity:1"
         id="path3381"
         inkscape:connector-curvature="0" />
      <path
         d="m 506.73875,245.8561 -0.67875,2.51875 -1.84125,1.84125 -2.52,0.67375 -2.51875,-0.67375 -1.84625,-1.84125 -0.67375,-2.51875 0.67375,-2.52 1.84625,-1.84625 2.51875,-0.67375 2.52,0.67375 1.84125,1.84625 0.67875,2.52"
         style="fill:none;stroke:#000000;stroke-width:1.76249993;stroke-linecap:round;stroke-linejoin:round;stroke-miterlimit:10;stroke-dasharray:none;stroke-opacity:1"
         id="path3383"
         inkscape:connector-curvature="0" />
      <path
         d="m 548.6725,246.40235 -0.67875,2.52 -1.84125,1.84 -2.52,0.67875 -2.51875,-0.67875 -1.84625,-1.84 -0.67375,-2.52 0.67375,-2.52 1.84625,-1.845 2.51875,-0.67375 2.52,0.67375 1.84125,1.845 0.67875,2.52"
         style="fill:none;stroke:#000000;stroke-width:1.76249993;stroke-linecap:round;stroke-linejoin:round;stroke-miterlimit:10;stroke-dasharray:none;stroke-opacity:1"
         id="path3385"
         inkscape:connector-curvature="0" />
      <path
         d="m 591.04,246.8711 -0.67875,2.52 -1.84125,1.845 -2.51875,0.67375 -2.52,-0.67375 -1.845,-1.845 -0.67375,-2.52 0.67375,-2.52 1.845,-1.845 2.52,-0.67375 2.51875,0.67375 1.84125,1.845 0.67875,2.52"
         style="fill:none;stroke:#000000;stroke-width:1.76249993;stroke-linecap:round;stroke-linejoin:round;stroke-miterlimit:10;stroke-dasharray:none;stroke-opacity:1"
         id="path3387"
         inkscape:connector-curvature="0" />
      <text
         y="248.41895"
         x="295.87402"
         style="font-variant:normal;font-weight:normal;font-size:50px;font-family:'DejaVu Sans';-inkscape-font-specification:DejaVuSans;writing-mode:lr-tb;fill:#000000;fill-opacity:1;fill-rule:nonzero;stroke:none"
         id="text3389">
        <tspan
           x="295.87402 311.72403 327.57404 431.87402 447.72403 463.57404"
           y="248.41895"
           sodipodi:role="line"
           id="tspan3391">......</tspan>
        <tspan
           x="93.07618 108.92619 124.77618"
           y="247.9502"
           sodipodi:role="line"
           id="tspan3393">...</tspan>
      </text>
      <path
         d="m 7.03125,264.0486 0,-0.3125 -0.0875,-0.46875 0,0.46875 0.175,0.70375 0.3475,1.09875 0.34625,1.3275 0.69875,1.32875 0.61,1.25375 0.69375,1.01625 0.61,0.86375 0.5225,0.70375 0.43375,0.54625 0.17125,0.46875 0.35125,0.3125 0.17125,0.39125 0.26375,0.3175 0.25875,0.15625 0.35125,0.23375"
         style="fill:none;stroke:#000000;stroke-width:1.76249993;stroke-linecap:round;stroke-linejoin:round;stroke-miterlimit:10;stroke-dasharray:none;stroke-opacity:1"
         id="path3395"
         inkscape:connector-curvature="0" />
      <path
         d="m 4.6825,274.61485 0.17625,-0.46875 0.17,-0.55125 0.5225,-0.78125 0.61125,-1.01625 0.61,-0.78625 0.605,-0.54625 0.5225,-0.54625 0.61125,-0.39125 0.5225,-0.39125 0.605,-0.54625 0.5225,-0.55125 0.61,-0.46875 0.61,-0.625 0.61125,-0.39125 0.6925,-0.23375 0.69875,-0.235 0.605,-0.0775"
         style="fill:none;stroke:#000000;stroke-width:1.76249993;stroke-linecap:round;stroke-linejoin:round;stroke-miterlimit:10;stroke-dasharray:none;stroke-opacity:1"
         id="path3397"
         inkscape:connector-curvature="0" />
      <path
         d="m 15.55625,274.61485 0.61125,0 0.5225,-0.46875 0.78125,-0.7075 0.95625,-0.9375 0.87,-1.01625 0.61,-0.78625 0.34625,-0.4675 0.17625,-0.235 0.0875,1.015 -0.0875,1.02125 0,1.17125 -0.08875,1.1775 0,1.79625 0.25875,0.70875 0.26375,0.46875 0.25875,0.3125"
         style="fill:none;stroke:#000000;stroke-width:1.76249993;stroke-linecap:round;stroke-linejoin:round;stroke-miterlimit:10;stroke-dasharray:none;stroke-opacity:1"
         id="path3399"
         inkscape:connector-curvature="0" />
      <path
         d="m 47.92,263.50235 -0.17125,-0.46875 -0.26375,-0.3125 -0.175,-0.3175 -0.17125,-0.235 0.17125,0.46875 0.35125,0.63 0.5225,1.1725 0.69375,1.3325 0.6975,1.32875 0.86875,1.17125 0.61125,0.9425 0.43375,0.78125 0.25875,0.46875 0.3475,0.46875 0.35125,0.23875 0.5225,0.15625 0.435,-0.15625 0.34625,-0.47375"
         style="fill:none;stroke:#000000;stroke-width:1.76249993;stroke-linecap:round;stroke-linejoin:round;stroke-miterlimit:10;stroke-dasharray:none;stroke-opacity:1"
         id="path3401"
         inkscape:connector-curvature="0" />
      <path
         d="m 44.52625,273.4386 -0.25875,0.23375 0.34625,-0.78125 0.5225,-0.7025 0.87,-0.9375 1.045,-1.09875 1.1325,-1.17125 1.04,-1.33375 1.045,-1.40625 0.95625,-1.3325 0.69875,-1.1725 0.69375,-0.9375 0.86875,-0.86375 0.78625,-0.625 0.69375,-0.46875 0.5225,-0.3125 0.5225,-0.0787"
         style="fill:none;stroke:#000000;stroke-width:1.76249993;stroke-linecap:round;stroke-linejoin:round;stroke-miterlimit:10;stroke-dasharray:none;stroke-opacity:1"
         id="path3403"
         inkscape:connector-curvature="0" />
      <path
         d="m 58.27125,269.1361 0.44,-0.0775 0.5175,0.15625 0.35125,0.0788 0.34625,0.23375 0.3475,0.46875 0,0.7025 -0.17125,0.39625 0,0.78125 -0.35125,1.015 -0.3475,0.86 -0.34625,0.78625 -0.34625,0.39 0.34625,0.625 0.69375,0.15625 0.78625,0.15625 1.1275,0.235 3.135,0 0.78125,0.0775 0.61,0.3125 0.5225,0.24"
         style="fill:none;stroke:#000000;stroke-width:1.76249993;stroke-linecap:round;stroke-linejoin:round;stroke-miterlimit:10;stroke-dasharray:none;stroke-opacity:1"
         id="path3405"
         inkscape:connector-curvature="0" />
      <path
         d="m 165.37125,261.1536 0.0825,-0.46875 0.3525,0.39 0.25875,0.5475 0.61,0.9375 0.86875,1.09875 0.78125,1.3275 0.78625,1.41125 0.605,1.25 0.5225,0.9425 0.5225,0.78125 0.61125,0.625 0.43375,0.625 0.5225,0.55125 0.25875,0.3125 0.26375,0.235 0.17625,-0.235"
         style="fill:none;stroke:#000000;stroke-width:1.76249993;stroke-linecap:round;stroke-linejoin:round;stroke-miterlimit:10;stroke-dasharray:none;stroke-opacity:1"
         id="path3407"
         inkscape:connector-curvature="0" />
      <path
         d="m 164.76125,272.73485 -0.26375,-0.15625 0.175,-0.54625 0.3475,-0.46875 0.61,-0.63 0.86875,-0.9375 0.9575,-1.015 1.1325,-1.09875 0.9575,-1.1725 0.95625,-1.015 0.69375,-0.9425 0.78625,-0.86 0.605,-0.85875 0.61125,-0.63 0.61,-0.70375 0.34625,-0.54625 0.3475,-0.39125 0.175,-0.23375"
         style="fill:none;stroke:#000000;stroke-width:1.76249993;stroke-linecap:round;stroke-linejoin:round;stroke-miterlimit:10;stroke-dasharray:none;stroke-opacity:1"
         id="path3409"
         inkscape:connector-curvature="0" />
      <path
         d="m 176.93875,267.8036 0.0875,0.63 0,0.39 0.0875,0.39125 0,0.39125 0.17625,0.54625 0.0825,0.3125 0.0888,0.39125 0.0875,0.31625 0.26375,0.235 0.605,-0.15625 0.435,-0.395 0.35125,-0.39125 0.25875,-0.46875 0.5225,-0.5475 0.435,-0.4675 0.25875,-0.47 0.35125,-0.395 0.17125,-0.3125 0.26375,-0.23375 0.25875,-0.235 0.35125,-0.15625 0.25875,0.15625 0.17625,0.3125 0.0825,0.46875 0.0888,0.5525 0.0875,0.625 0,1.3275 0.43375,0.39 0.435,0 0.86875,-0.3125 1.13375,-0.23375 1.045,-0.23375 0.78125,-0.3125 0.61,-0.1575 0.34625,0 0.61125,0.235 0.25875,0.46875 0.0875,0.46875 0.0875,0.395 0.0888,0.625 0,0.625 0.0875,0.625 0.17125,0.625 0.175,0.39625 0.17625,0.3125"
         style="fill:none;stroke:#000000;stroke-width:1.76249993;stroke-linecap:round;stroke-linejoin:round;stroke-miterlimit:10;stroke-dasharray:none;stroke-opacity:1"
         id="path3411"
         inkscape:connector-curvature="0" />
      <path
         d="m 214.175,261.07485 -0.0875,-0.39 -0.17125,-0.3125 -0.35125,-0.3125 0.0875,0.54625 0.26375,1.01625 0.34625,1.17625 0.5225,1.25 0.61,1.25 0.5225,1.1775 0.69375,1.015 0.5225,0.9425 0.69875,0.5475 0.5175,0.39 0.35125,0.3125 0.435,0.0775 0.25875,0.235"
         style="fill:none;stroke:#000000;stroke-width:1.76249993;stroke-linecap:round;stroke-linejoin:round;stroke-miterlimit:10;stroke-dasharray:none;stroke-opacity:1"
         id="path3413"
         inkscape:connector-curvature="0" />
      <path
         d="m 211.5675,273.2036 -0.35125,-0.0775 -0.0838,-0.39125 0.5175,-0.39 0.61125,-0.70375 0.86875,-0.785 0.9575,-0.9375 0.785,-1.1725 1.12875,-1.41125 1.045,-1.5625 0.86875,-1.5675 0.9575,-1.40625 0.78625,-1.17625 0.605,-0.9375 0.78625,-0.70375 0.435,-0.63 0.34625,-0.39 0.26375,-0.3125"
         style="fill:none;stroke:#000000;stroke-width:1.76249993;stroke-linecap:round;stroke-linejoin:round;stroke-miterlimit:10;stroke-dasharray:none;stroke-opacity:1"
         id="path3415"
         inkscape:connector-curvature="0" />
      <path
         d="m 223.39875,267.1011 0.17,-0.39125 0.0888,-0.3125 -0.0888,0.3125 0.17625,0.9375 0.17625,0.46875 0,0.47375 0.0875,0.3125 0,0.39125 0.17125,0.3125 0.0875,0.3125 0,0.4675 0.34625,-0.39 0.26375,-0.235 0.435,-0.3125 0.34625,-0.4675 0.435,-0.47 0.435,-0.395 0.35125,-0.3125 0.25875,-0.15625 0.34625,-0.15625 0.3525,-0.15625 0.34625,-0.0775 0.435,0.39 0,0.9425 -0.0888,0.54625 0,1.32875 -0.0875,0.63 0.61,-0.39625 0.5225,-0.4675 0.78125,-0.70375 0.61,-0.9375 0.78125,-0.63 0.61125,-0.625 0.5225,-0.39 0.5225,-0.235 0.17,-0.23375 0.17625,0.54625 -0.0875,0.625 -0.0888,0.86375 -0.17,0.9375 -0.17625,0.9375 -0.17125,0.78625 -0.43875,0.70375 -0.3475,0.54625 -0.34625,0.39125 -0.26375,0.15625"
         style="fill:none;stroke:#000000;stroke-width:1.76249993;stroke-linecap:round;stroke-linejoin:round;stroke-miterlimit:10;stroke-dasharray:none;stroke-opacity:1"
         id="path3417"
         inkscape:connector-curvature="0" />
      <path
         d="m 237.84125,266.4761 0.3475,-0.15625 0,0.3125 -0.0888,0.3125 -0.0875,0.54625 -0.0875,0.865 -0.17125,0.54625 -0.17625,1.5625 -0.0875,0.46875 -0.0875,0.78625 -0.25875,0.625 -0.17625,0.39 -0.17,0.39125"
         style="fill:none;stroke:#000000;stroke-width:1.76249993;stroke-linecap:round;stroke-linejoin:round;stroke-miterlimit:10;stroke-dasharray:none;stroke-opacity:1"
         id="path3419"
         inkscape:connector-curvature="0" />
      <path
         d="m 234.61875,271.0111 -0.25875,-0.3125 0.25875,-0.23375 2.0025,0 0.6975,0.15625 0.69375,0.0775 1.30375,0"
         style="fill:none;stroke:#000000;stroke-width:1.76249993;stroke-linecap:round;stroke-linejoin:round;stroke-miterlimit:10;stroke-dasharray:none;stroke-opacity:1"
         id="path3421"
         inkscape:connector-curvature="0" />
      <path
         d="m 246.5375,266.5536 -0.34625,0 -0.17625,0.235 -0.25875,0.54625 -0.2625,0.78125 -0.25875,0.9425 -0.3475,0.9375 -0.26375,1.09875 -0.34625,1.015 -0.34625,0.86 -0.0888,0.85875 0,0.5525"
         style="fill:none;stroke:#000000;stroke-width:1.76249993;stroke-linecap:round;stroke-linejoin:round;stroke-miterlimit:10;stroke-dasharray:none;stroke-opacity:1"
         id="path3423"
         inkscape:connector-curvature="0" />
      <path
         d="m 263.58875,264.75235 -0.17125,-0.78125 -0.175,-0.70375 -0.17125,-0.46875 0.17125,0.70375 0.26375,1.015 0.43375,1.09875 0.435,1.32875 0.17125,1.25 0.43875,1.17625 0.5175,1.09375 0.44,0.9425 0.435,0.85875 0.25875,0.5475 0.175,0.625 -0.175,0.23375"
         style="fill:none;stroke:#000000;stroke-width:1.76249993;stroke-linecap:round;stroke-linejoin:round;stroke-miterlimit:10;stroke-dasharray:none;stroke-opacity:1"
         id="path3425"
         inkscape:connector-curvature="0" />
      <path
         d="m 259.32625,274.22485 -0.34625,-0.15625 -0.17125,-0.3175 -0.17625,-0.39125 0,-0.625 0.17625,-0.78125 0.435,-0.78125 0.6925,-1.17625 0.9575,-1.09375 1.1325,-1.255 1.21625,-1.25 1.045,-1.255 1.1325,-1.17125 0.78125,-1.01625 0.86875,-1.02 0.78625,-0.78125 0.69375,-0.70375 0.78125,-0.54625 0.61,-0.24 0.435,-0.23375"
         style="fill:none;stroke:#000000;stroke-width:1.76249993;stroke-linecap:round;stroke-linejoin:round;stroke-miterlimit:10;stroke-dasharray:none;stroke-opacity:1"
         id="path3427"
         inkscape:connector-curvature="0" />
      <path
         d="m 266.9,269.9961 0.17,0.235 0.17625,0.7025 0.0875,0.3175 0,0.3125 0.17125,0.46875 0.0875,0.3125 0.17625,0.46875 0.34625,-0.39125 0.25875,-0.54625 0.35125,-0.46875 0.5225,-0.39625 0.435,-0.39 0.25875,-0.235 0.435,-0.23375 0.26375,-0.15625 0.5225,0 0.25875,0.39 0.0875,0.3125 0.0875,0.5525 0.0838,0.625 0,2.27 0.5225,-0.23375 0.5225,-0.39625 0.86875,-0.54625 1.045,-0.5475 0.86875,-0.625 0.87375,-0.23375 0.60625,-0.235 0.5225,-0.0775 0,2.265 -0.0875,0.5525 0,0.3125"
         style="fill:none;stroke:#000000;stroke-width:1.76249993;stroke-linecap:round;stroke-linejoin:round;stroke-miterlimit:10;stroke-dasharray:none;stroke-opacity:1"
         id="path3429"
         inkscape:connector-curvature="0" />
      <path
         d="m 281.685,269.9961 0,1.41125 -0.0838,0.9375 -0.175,0.9375 -0.17625,1.02 -0.17125,0.78125 -0.175,0.625 -0.0888,0.625 -0.17,0.39625"
         style="fill:none;stroke:#000000;stroke-width:1.76249993;stroke-linecap:round;stroke-linejoin:round;stroke-miterlimit:10;stroke-dasharray:none;stroke-opacity:1"
         id="path3431"
         inkscape:connector-curvature="0" />
      <path
         d="m 279.6,272.2661 0,-0.3125 0.25875,-0.3125 1.47875,0 0.5225,-0.0775 0.87,0"
         style="fill:none;stroke:#000000;stroke-width:1.76249993;stroke-linecap:round;stroke-linejoin:round;stroke-miterlimit:10;stroke-dasharray:none;stroke-opacity:1"
         id="path3433"
         inkscape:connector-curvature="0" />
      <path
         d="m 286.90875,269.9186 0.435,-0.1575 2.43125,0 0.26375,0.235 0.17625,0.46875 0.25875,0.63 -0.0875,0.7025 -0.25875,0.78125 -0.61125,0.70375 -0.43375,0.63 -0.5225,0.46875 -0.3475,0.39 -0.175,0.5475 -0.17125,0.3125 -0.17625,0.3125 0.3475,0.23375 0.61,0.0788 0.78125,0.0775 0.78625,0.0788 3.13,0 0.6975,0.0775 0.69375,0.24 L 295,276.9636"
         style="fill:none;stroke:#000000;stroke-width:1.76249993;stroke-linecap:round;stroke-linejoin:round;stroke-miterlimit:10;stroke-dasharray:none;stroke-opacity:1"
         id="path3435"
         inkscape:connector-curvature="0" />
      <path
         d="m 407.315,263.4236 0.5225,0.3125 0.5225,0.625 0.52125,0.70375 0.51875,0.86375 0.61,1.01625 0.6975,1.09375 0.9575,1.02 0.69375,0.9375 0.61,0.7025 0.435,0.5525 0.175,0.3125 0.435,0.0775 0.34625,0.15625 0.3475,0"
         style="fill:none;stroke:#000000;stroke-width:1.76249993;stroke-linecap:round;stroke-linejoin:round;stroke-miterlimit:10;stroke-dasharray:none;stroke-opacity:1"
         id="path3437"
         inkscape:connector-curvature="0" />
      <path
         d="m 405.7475,273.67235 -0.5225,-0.0775 0,-0.46875 0.34625,-0.46875 0.61,-0.625 0.87,-0.86 0.87375,-0.78625 0.86875,-0.85875 0.9575,-0.70375 0.86875,-0.62875 1.045,-0.86 1.1275,-0.7025 0.9575,-0.78125 0.78625,-0.5525 0.69375,-0.3125 0.43375,-0.39 0.17625,-0.235 0.25875,-0.15625"
         style="fill:none;stroke:#000000;stroke-width:1.76249993;stroke-linecap:round;stroke-linejoin:round;stroke-miterlimit:10;stroke-dasharray:none;stroke-opacity:1"
         id="path3439"
         inkscape:connector-curvature="0" />
      <path
         d="m 419.32125,269.52735 0.17125,-0.39125 0.43375,0.5475 0.0888,0.3125 0.0875,0.86 0,1.48875 -0.0875,0.39 0,0.3125 0.26375,0.15625 0.43375,-0.46875 0.60625,-0.54625 0.87375,-0.86 0.86875,-1.0975 0.69375,-0.7825 0.61,-0.7025 0.61,-0.55125 0.435,-0.3125 0.34625,-0.235 0.435,-0.0775 0.34625,0.46875 0,0.55125 -0.0825,0.78125 -0.0875,0.86 -0.0888,0.625 -0.175,0.7075 -0.0838,0.3125 -0.0875,0.39 -0.0875,0.3125"
         style="fill:none;stroke:#000000;stroke-width:1.76249993;stroke-linecap:round;stroke-linejoin:round;stroke-miterlimit:10;stroke-dasharray:none;stroke-opacity:1"
         id="path3441"
         inkscape:connector-curvature="0" />
      <path
         d="m 430.5425,271.3286 0.175,-0.23375 0.5225,-0.39625 0.69375,0 0.34625,0.1575 0.435,0 0.35125,0.0775 0.435,0.0775 0.61,0.0838 0.34625,0.15625 1.045,0"
         style="fill:none;stroke:#000000;stroke-width:1.76249993;stroke-linecap:round;stroke-linejoin:round;stroke-miterlimit:10;stroke-dasharray:none;stroke-opacity:1"
         id="path3443"
         inkscape:connector-curvature="0" />
      <path
         d="m 438.72125,268.8236 -0.17625,0.3125 -0.0875,0.5475 -0.0838,0.7025 -0.0875,0.47 -0.0875,0.55125 -0.0888,0.39 -0.0875,0.3125 -0.0825,0.46875 0.5175,-0.3125 0.43875,-0.54625 0.435,-0.625 0.5175,-0.47375 0.43875,-0.39 0.60625,-0.3125 1.045,-0.625 0.5225,-0.235 0.25875,-0.3125 0.5225,-0.0775 0.0875,0.3125 0.0875,0.39 0,1.09375 0.0888,0.46875 0.0875,0.3175 0.25875,0.54625 0.78125,0 0.78625,-0.23375 1.1275,-0.3125 1.13375,-0.5525 0.95625,-0.4675 0.69875,-0.235 0.43375,-0.235 0.435,0.47 0,3.2075"
         style="fill:none;stroke:#000000;stroke-width:1.76249993;stroke-linecap:round;stroke-linejoin:round;stroke-miterlimit:10;stroke-dasharray:none;stroke-opacity:1"
         id="path3445"
         inkscape:connector-curvature="0" />
      <path
         d="m 341.02,260.8411 0,-0.625 0.3475,0.0775 0.43375,0.5475 0.61125,0.85875 0.61,1.02125 0.69375,1.015 0.43375,1.1725 0.435,1.02 0.44,1.01625 0.25875,0.7025 0.5225,0.625 0.34625,0.47375 0.5225,0.3125 0.61,0.235 0.435,0.0775 0.34625,-0.0775 0.26375,-0.1575 0.17125,-0.23375 0.0875,-0.39125"
         style="fill:none;stroke:#000000;stroke-width:1.76249993;stroke-linecap:round;stroke-linejoin:round;stroke-miterlimit:10;stroke-dasharray:none;stroke-opacity:1"
         id="path3447"
         inkscape:connector-curvature="0" />
      <path
         d="m 342.15375,269.3711 -0.3525,0.0775 0.17625,-0.39 0.435,-0.46875 0.61,-0.7075 0.605,-1.01625 0.78625,-1.015 0.69375,-1.1775 0.78625,-1.40625 0.605,-1.09875 0.44,-0.9375 0.43375,-0.78125 0.25875,-0.7075 0.26375,-0.46875"
         style="fill:none;stroke:#000000;stroke-width:1.76249993;stroke-linecap:round;stroke-linejoin:round;stroke-miterlimit:10;stroke-dasharray:none;stroke-opacity:1"
         id="path3449"
         inkscape:connector-curvature="0" />
      <path
         d="m 352.24125,265.69485 0.0875,-0.47375 0,0.7075 -0.0875,0.5475 -0.0825,0.78125 -0.0888,0.625 -0.175,0.55125 -0.25875,0.46875 -0.0888,0.54625 -0.0875,0.47 -0.0875,0.3125 -0.0888,0.4675 0.435,-0.23375 0.35125,-0.3125 0.435,-0.54625 0.435,-0.70375 0.43375,-0.7075 0.5225,-0.70375 0.435,-0.625 0.5225,-0.46875 0.43375,-0.3125 0.61125,-0.39 0.43375,-0.24 0.3475,-0.23375 0.5225,0.15625 0,0.47375 0.0875,0.54625 0,0.78125 -0.0875,0.70375 0,0.7075 -0.17625,0.625 -0.17125,0.46875 -0.175,0.5475 -0.17625,0.23375 -0.0825,0.39125 -0.0888,0.395 -0.175,0.3125"
         style="fill:none;stroke:#000000;stroke-width:1.76249993;stroke-linecap:round;stroke-linejoin:round;stroke-miterlimit:10;stroke-dasharray:none;stroke-opacity:1"
         id="path3451"
         inkscape:connector-curvature="0" />
      <path
         d="m 360.5075,267.7261 0.25875,0.15625 0.5225,0 0.5225,0.0775 0.35125,0 0.87,0.15625 0.34625,0 0.435,0.0787 0.6975,0"
         style="fill:none;stroke:#000000;stroke-width:1.76249993;stroke-linecap:round;stroke-linejoin:round;stroke-miterlimit:10;stroke-dasharray:none;stroke-opacity:1"
         id="path3453"
         inkscape:connector-curvature="0" />
      <path
         d="m 367.64125,265.06485 0.3475,-0.3125 0.0875,0.54625 0,1.72375 -0.0875,0.625 0,0.5475 -0.0838,0.62875 -0.0875,0.3125 0,0.39125 -0.0875,0.39125 0.25875,-0.1575 0.35125,-0.155 0.25875,-0.39125 0.5225,-0.3125 0.17625,-0.3125 0.43375,-0.395 0.34625,-0.235 0.26,-0.23375 0.35125,-0.235 0.34625,0 0.25875,0.235 0,0.3125 0.0875,0.55125 0,0.46875 -0.0875,0.625 0,1.1725 0.5225,-0.235 0.5225,-0.39 0.69875,-0.47 0.78125,-0.7025 0.6975,-0.39 0.5225,-0.39625 0.5175,-0.23375 0.3525,0 0.5225,0.63 0,1.25 -0.0888,0.78 0,0.5525 -0.0875,0.625 0,0.39"
         style="fill:none;stroke:#000000;stroke-width:1.76249993;stroke-linecap:round;stroke-linejoin:round;stroke-miterlimit:10;stroke-dasharray:none;stroke-opacity:1"
         id="path3455"
         inkscape:connector-curvature="0" />
      <path
         d="m 380.69375,269.3711 0,-0.625 0.25875,-0.15625 0.34625,0.0788 0.5225,0.0775 0.69875,0.15625 0.61,0.0788 0.5175,0.0775 0.35125,0.0775 0.69375,0"
         style="fill:none;stroke:#000000;stroke-width:1.76249993;stroke-linecap:round;stroke-linejoin:round;stroke-miterlimit:10;stroke-dasharray:none;stroke-opacity:1"
         id="path3457"
         inkscape:connector-curvature="0" />
      <path
         d="m 388.26125,267.7261 0.17125,-0.70375 0.35125,-0.85875 0.17125,-0.625 0.35125,-0.47375 0.25875,-0.3125 0.25875,-0.235 0,1.88 -0.17,0.86 -0.3475,0.85875 -0.35125,0.9425 -0.69375,1.40625 -0.0875,0.54625 0,0.3175"
         style="fill:none;stroke:#000000;stroke-width:1.76249993;stroke-linecap:round;stroke-linejoin:round;stroke-miterlimit:10;stroke-dasharray:none;stroke-opacity:1"
         id="path3459"
         inkscape:connector-curvature="0" />
      <path
         d="m 498.2275,261.69985 0.17625,-0.39 0.0825,-0.39125 0.17625,-0.46875 0.175,-0.23375 0,0.3125 0.3475,0.7025 0.61,1.09375 0.78125,1.41125 1.045,1.8025 0.78125,1.5625 0.86875,1.41 0.87375,1.1725 0.60625,0.78125 0.78625,0.7075 0.43375,0.625 0.25875,0.15625 0.3475,0.15625 0.175,-0.23375 0,-0.39125"
         style="fill:none;stroke:#000000;stroke-width:1.76249993;stroke-linecap:round;stroke-linejoin:round;stroke-miterlimit:10;stroke-dasharray:none;stroke-opacity:1"
         id="path3461"
         inkscape:connector-curvature="0" />
      <path
         d="m 498.05125,269.9961 -0.34625,-0.235 0.34625,-0.7025 0.435,-0.39 0.69875,-0.5525 0.78125,-0.7025 0.6975,-0.86 0.87,-0.78125 0.78125,-0.78625 0.5225,-0.78125 0.86875,-0.78125 0.6975,-0.7025 0.61125,-0.63 0.5225,-0.70375 0.43375,-0.39 0.25875,-0.39125 0.26375,-0.23375"
         style="fill:none;stroke:#000000;stroke-width:1.76249993;stroke-linecap:round;stroke-linejoin:round;stroke-miterlimit:10;stroke-dasharray:none;stroke-opacity:1"
         id="path3463"
         inkscape:connector-curvature="0" />
      <path
         d="m 508.755,268.0386 0.25875,-0.235 0.0875,0.5525 0,0.85875 -0.0875,0.70375 -0.0825,0.3125 -0.0888,0.4675 -0.0875,0.47375 0.34625,0.15625 0.3475,-0.15625 0.6975,-0.47375 0.78125,-0.7025 0.61,-0.7025 0.78125,-0.625 0.435,-0.5525 0.5225,-0.39 0.5225,-0.15625 0.35125,-0.15625 0.5175,0.23375 0.17625,0.70875 0.0875,0.54625 0,1.95375 0.17625,0.23875 0,0.3125"
         style="fill:none;stroke:#000000;stroke-width:1.76249993;stroke-linecap:round;stroke-linejoin:round;stroke-miterlimit:10;stroke-dasharray:none;stroke-opacity:1"
         id="path3465"
         inkscape:connector-curvature="0" />
      <path
         d="m 517.8025,270.2311 0.435,-0.0788 0.61,-0.15625 0.34625,0.15625 1.73875,0"
         style="fill:none;stroke:#000000;stroke-width:1.76249993;stroke-linecap:round;stroke-linejoin:round;stroke-miterlimit:10;stroke-dasharray:none;stroke-opacity:1"
         id="path3467"
         inkscape:connector-curvature="0" />
      <path
         d="m 525.1125,268.0386 0.25875,-0.235 0.34625,-0.15625 0.435,-0.0775 1.83125,0 0.5175,0.3125 -0.0838,0.62875 -0.35125,0.3125 -0.605,0.5475 -0.61125,0.5475 -0.61,0.3125 -0.34625,0.4675 -0.17625,0.39625 -0.17,0.23375 0.43375,0.625 0.60625,0.235 0.6975,0.15625 0.78125,0.15625 2.26625,0 0.43375,0.0775 0.5225,0.15625"
         style="fill:none;stroke:#000000;stroke-width:1.76249993;stroke-linecap:round;stroke-linejoin:round;stroke-miterlimit:10;stroke-dasharray:none;stroke-opacity:1"
         id="path3469"
         inkscape:connector-curvature="0" />
      <path
         d="m 544.0775,262.95485 -0.26375,-0.47375 -0.25875,-0.3125 -0.3475,-0.3125 -0.35125,-0.3125 -0.0875,0.39125 0.0875,0.54625 0.17625,0.78625 0.34625,0.9375 0.34625,0.86 0.26375,0.9425 0.25875,0.78125 0.3525,0.7025 0.25875,0.70375 0.34625,0.55125 0.435,0.3125 0.26375,0.3125 0.34625,0.0775 0.34625,0"
         style="fill:none;stroke:#000000;stroke-width:1.76249993;stroke-linecap:round;stroke-linejoin:round;stroke-miterlimit:10;stroke-dasharray:none;stroke-opacity:1"
         id="path3471"
         inkscape:connector-curvature="0" />
      <path
         d="m 541.81125,271.8761 -0.43375,0.3125 -0.3475,0.0775 0.17625,-0.625 0.5225,-0.63 0.605,-0.78 0.5225,-0.9375 0.69875,-1.09875 0.6925,-1.32875 0.875,-1.48875 0.95625,-1.64125 0.78125,-1.17625 0.78125,-1.09375 0.5225,-0.78125 0.61125,-0.5475 0.43375,-0.395 0.5225,-0.235 0.34625,0"
         style="fill:none;stroke:#000000;stroke-width:1.76249993;stroke-linecap:round;stroke-linejoin:round;stroke-miterlimit:10;stroke-dasharray:none;stroke-opacity:1"
         id="path3473"
         inkscape:connector-curvature="0" />
      <path
         d="m 550.6,268.27235 0.17625,0.23875 0,2.89625 0.605,-0.3125 0.61125,-0.39625 0.86875,-0.7025 0.9575,-0.5475 0.78625,-0.39 0.5225,-0.39 0.34625,-0.1575 0.25875,-0.155 0.26375,0.23375 0,0.3125 -0.0875,0.46875 0,1.09375 -0.0888,0.78625 -0.175,0.54625 -0.25875,0.70375 -0.3475,0.15625 -0.26375,0.23375"
         style="fill:none;stroke:#000000;stroke-width:1.76249993;stroke-linecap:round;stroke-linejoin:round;stroke-miterlimit:10;stroke-dasharray:none;stroke-opacity:1"
         id="path3475"
         inkscape:connector-curvature="0" />
      <path
         d="m 557.9975,271.0111 0,-0.3125 3.82375,0 0.5225,-0.3125"
         style="fill:none;stroke:#000000;stroke-width:1.76249993;stroke-linecap:round;stroke-linejoin:round;stroke-miterlimit:10;stroke-dasharray:none;stroke-opacity:1"
         id="path3477"
         inkscape:connector-curvature="0" />
      <path
         d="m 565.3025,269.6836 -0.43375,0.5475 -0.0888,0.7025 0,0.86375 -0.0875,0.86 0,1.9575 0.43875,0.3125"
         style="fill:none;stroke:#000000;stroke-width:1.76249993;stroke-linecap:round;stroke-linejoin:round;stroke-miterlimit:10;stroke-dasharray:none;stroke-opacity:1"
         id="path3479"
         inkscape:connector-curvature="0" />
      <path
         d="m 583.92125,262.1686 -0.3475,-0.0775 -0.175,0.54625 0,1.49 0.175,0.85875 0.17125,0.865 0.44,0.78125 0.34625,0.7025 0.61,0.625 0.5175,0.63 0.26375,0.46875 0.61125,0.39 0.34625,0.3125 0.61,0.235 0.5225,0.39 0.25875,0.235"
         style="fill:none;stroke:#000000;stroke-width:1.76249993;stroke-linecap:round;stroke-linejoin:round;stroke-miterlimit:10;stroke-dasharray:none;stroke-opacity:1"
         id="path3481"
         inkscape:connector-curvature="0" />
      <path
         d="m 580.87375,272.34485 -0.25875,-0.15625 0.17625,-0.3125 0.34625,-0.39125 0.61,-0.55125 0.69375,-0.9375 0.78625,-0.86 0.86875,-1.3325 0.9575,-1.3275 0.9575,-1.41125 1.1275,-1.32875 1.1325,-1.09875 1.045,-0.9375"
         style="fill:none;stroke:#000000;stroke-width:1.76249993;stroke-linecap:round;stroke-linejoin:round;stroke-miterlimit:10;stroke-dasharray:none;stroke-opacity:1"
         id="path3483"
         inkscape:connector-curvature="0" />
      <path
         d="m 590.27375,268.5111 0.17,0.3125 -0.17,0.47 -0.0888,0.4675 -0.175,0.47 -0.0875,0.625 -0.0838,0.31625 0,0.46875 0.605,-0.0775 0.875,-0.39125 0.95625,-0.47375 0.87,-0.4675 0.78125,-0.47 0.43375,-0.23375 0.26375,-0.15625 0.25875,-0.15625 0,0.3125 -0.0875,0.39125 -0.0875,0.54625 -0.17125,0.7075 -0.17625,0.78125 -0.17,0.46875 0,0.39125"
         style="fill:none;stroke:#000000;stroke-width:1.76249993;stroke-linecap:round;stroke-linejoin:round;stroke-miterlimit:10;stroke-dasharray:none;stroke-opacity:1"
         id="path3485"
         inkscape:connector-curvature="0" />
      <path
         d="m 9.55625,216.5436 6.35625,0.035 6.3625,0.0288 6.3625,0.0337 6.3575,0.03 6.3625,0.0337 6.3625,0.03 6.3575,0.0337 6.3625,0.0288 6.36125,0.035 6.3575,0.0288 6.3625,0.035 6.3575,0.0288 12.725,0.0687 6.3575,0.0288 6.3625,0.0337 6.36125,0.03 6.3575,0.0338 6.3625,0.03 6.3625,0.0338 6.3575,0.0287 6.3625,0.035 6.3625,0.0288 6.3575,0.035 6.36125,0.0288 6.3625,0.0337 6.3575,0.03"
         style="fill:none;stroke:#ff0000;stroke-width:10.625;stroke-linecap:round;stroke-linejoin:round;stroke-miterlimit:10;stroke-dasharray:none;stroke-opacity:0.49803904"
         id="path3487"
         inkscape:connector-curvature="0" />
      <path
         d="m 54.44375,306.30985 6.39125,-0.0925 6.39125,-0.0987 6.3925,-0.0925 6.39125,-0.0975 6.39125,-0.0925 6.39125,-0.0975 6.3925,-0.0925 6.39125,-0.0987 6.39125,-0.0925 6.3925,-0.0975 6.39125,-0.0925 6.39125,-0.0975 12.78375,-0.18625 6.39125,-0.0975 6.39125,-0.0925 6.3875,-0.0975 6.39125,-0.0925 6.39125,-0.0987 6.39125,-0.0925 6.3925,-0.0975 6.39125,-0.0925 6.39125,-0.0975 6.3925,-0.0925 6.39125,-0.0987 12.7825,-0.185 6.3925,-0.0975"
         style="fill:none;stroke:#3333cc;stroke-width:10.625;stroke-linecap:round;stroke-linejoin:round;stroke-miterlimit:10;stroke-dasharray:none;stroke-opacity:0.49803904"
         id="path3489"
         inkscape:connector-curvature="0" />
      <path
         d="m 221.74375,233.91735 0.0875,-0.3125 -0.0875,-0.3125 0,-1.40625 0.0875,-0.3175 0,-0.39125 0.0875,-0.39 0,-0.70375 0.0875,-0.9375 0.17125,-0.78625 0.0875,-1.09375 0.0888,-1.015 0,-2.27 -0.0888,-1.33375 0,-1.3275 -0.0875,-1.41125 -0.0825,-1.5625 -0.17625,-1.5675 -0.34625,-1.7975 -0.26375,-1.72375 -0.5225,-1.88 -0.435,-1.875 -0.43375,-1.7225 -0.5225,-1.72375 -0.3475,-1.71875 -0.43375,-1.8025 -0.435,-1.64 -0.435,-1.5675 -0.43375,-1.49 -0.5225,-1.48375 -0.26375,-1.41125 -0.435,-1.40625 -0.435,-1.48875 -0.5225,-1.485 -0.52125,-1.72375 -0.5225,-1.64 -0.69375,-1.72375 -0.61,-1.72375 -0.69375,-1.40625 -0.69875,-1.48875 -0.61,-1.25 -0.69375,-1.1725 -0.6975,-1.255 -0.78125,-1.3275 -0.78125,-1.49 -0.9575,-1.40625 -0.9575,-1.5675 -1.04375,-1.5675 -1.13375,-1.5625 -1.045,-1.48875 -1.045,-1.5625 -0.95625,-1.41125 -1.04,-1.40625 -1.13375,-1.17625 -1.04375,-1.09375 -1.045,-0.9375 -1.04,-0.9425 -0.9575,-0.86 -1.045,-0.9375 -1.22125,-1.02 -1.39125,-0.9375 -1.47875,-1.01625 -1.5625,-0.9425 -1.65625,-1.09375 -1.5675,-1.015 -1.65,-0.9425 -1.655,-0.85875 -1.5625,-0.86 -1.655,-0.86375 -1.5675,-0.70375 -1.5625,-0.78125 -1.5675,-0.625 -1.48,-0.55125 -1.5675,-0.625 -1.5625,-0.625 -3.13375,-1.09375 -1.73875,-0.47375 -1.655,-0.39125 -1.82625,-0.23375 -1.91375,-0.3125 -1.73875,-0.3125 -1.655,-0.235 -1.48,-0.15625 -1.475,-0.15625 -1.39625,-0.0775 -1.30375,-0.15625 -1.47875,-0.0788 -1.30375,0 -1.3925,-0.0775 -1.47875,0 -1.39125,0.0775 -1.5675,0.15625 -1.48,0.15625 -1.475,0.15625 -1.47875,0.235 -1.30875,0.39 -1.5625,0.3125 -1.655,0.5475 -1.48,0.63 -1.65,0.46875 -1.30875,0.7025 -1.30375,0.5475 -1.045,0.3125 -1.04,0.63 -1.1325,0.3125 -1.22125,0.54625 -1.30375,0.625 -1.39125,0.5475 -1.30375,0.78625 -1.30375,0.7025 -1.22125,0.70375 -1.215,0.625 -1.22125,0.46875 -1.215,0.55125 -1.22125,0.46875 -0.9575,0.46875 -1.7375,0.9375 -0.69375,0.46875 -0.87375,0.47375 -0.9575,0.39 -0.95625,0.5475 -1.04,0.46875 -0.9575,0.625 -0.87375,0.86375 -1.04,0.70375 -1.915,1.71875 -0.87375,0.78625 -0.78125,1.015 -0.86875,0.9375 -0.86875,0.9425 -0.9575,1.1725 -1.045,1.25375 -1.22125,1.25 -1.1275,1.41125 -1.1325,1.25 -1.045,1.25 -0.86875,1.255 -0.87,1.1725 -0.6925,1.17625 -0.61125,1.1725 -0.5225,1.02 -0.26375,0.9375 -0.34625,1.01625 -0.435,1.02 -0.43375,1.09375 -0.3475,1.1725 -0.61,1.25375 -0.34625,1.09375 -0.435,1.255 -0.435,1.01625 -0.175,0.9375 -0.26375,0.78625 -0.17125,0.78125 -0.26375,0.85875 -0.25875,0.865 -0.26375,1.015 -0.25875,1.01625 -0.175,1.02 -0.25875,0.9375 -0.08875,0.86 -0.17,0.86375 -0.08875,0.85875 -0.175,1.40625 0,0.63 -0.08875,0.46875 0,0.625 -0.0875,0.46875 -0.0825,0.5475 0,3.2125 0.0825,0.78125 0,0.78125 0.0875,0.70375 0.08875,0.63 0.175,1.09375 0.08875,0.3125 0,0.3125 0.17,0.46875"
         style="fill:none;stroke:#ff0000;stroke-width:1.76249993;stroke-linecap:round;stroke-linejoin:round;stroke-miterlimit:10;stroke-dasharray:none;stroke-opacity:1"
         id="path3491"
         inkscape:connector-curvature="0" />
      <path
         d="m 71.7575,200.8161 -0.25875,-0.395 -0.175,-0.39125 -0.25875,-0.39 -0.08875,-0.3125 -0.0875,-0.39125 0,-0.3125 -0.0875,-0.46875 0.34625,0.0787 0.435,0.46875 0.6975,0.625 0.61,0.7025 0.69375,0.70375 0.61,0.55125 0.5225,0.70375 0.5225,0.54625 0.435,0.5475 0.435,0.55125 0.25875,0.46875 0.35125,0.46875 0.17125,0.235 0.26375,0.3125 0.34625,0.3125 0.26375,0.625 0.25875,0.3125 0.17625,0.47375 0.34625,0.46875 0.25875,0.15625 0.435,-0.0788 0.87375,-0.39 1.04,-0.5475 1.39125,-0.78625 1.48,-0.9375 1.39125,-0.85875 1.48,-1.09875 1.47875,-1.25 1.22125,-0.9425 0.95625,-0.9375 0.69375,-0.5475 0.34625,-0.39 -0.17,0.3125 -0.5225,0.7025 -0.78125,0.9375"
         style="fill:none;stroke:#ff0000;stroke-width:1.76249993;stroke-linecap:round;stroke-linejoin:round;stroke-miterlimit:10;stroke-dasharray:none;stroke-opacity:1"
         id="path3493"
         inkscape:connector-curvature="0" />
      <path
         d="m 135.615,324.0736 0.0875,0.3125 -0.2625,0.395 0,0.46875 -0.0838,0.78125 0.0838,1.1725 0.0875,1.17625 0.175,1.40625 0.17625,1.41125 0.25875,1.5625 0.17625,1.72375 0.25875,1.80125 0.26375,1.875 0.43375,2.03625 0.78125,2.03625 0.87,2.11375 1.22,1.875 1.30375,1.88 1.21625,1.8025 1.22,1.875 1.48,1.80125 1.21625,1.7975 1.39125,1.88 1.39125,1.72375 1.30375,1.5625 1.48,1.56625 1.47875,1.485 1.65625,1.41125 1.7375,1.48375 1.74375,1.33375 1.82625,1.17125 1.82625,1.09875 1.65,0.9375 2.0025,0.86 1.91375,0.9425 2.00125,0.85875 2.0025,0.78125 1.73875,0.86375 1.7375,0.70375 1.655,0.7025 1.5675,0.78125 1.5625,0.63 1.48,0.625 1.5675,0.625 1.39125,0.5475 1.48,0.46875 1.30375,0.395 1.39125,0.3125 1.48,0.39125 1.39125,0.3125 1.655,0.39 1.65,0.3125 1.65625,0.235 1.7375,0.15625 1.5675,0.0775 1.82625,0 1.73875,-0.15625 1.83,-0.3125 1.82625,-0.3125 1.82625,-0.54625 1.915,-0.5475 1.91375,-0.7075 2.00125,-0.9375 2.085,-1.01625 2.09,-1.17625 1.915,-1.1725 2.00125,-1.3325 1.82625,-1.3275 1.73875,-1.33375 1.655,-1.3275 1.47875,-1.25 1.3925,-1.255 1.30375,-1.09375 1.39125,-1.1775 1.48,-1.25 1.5675,-1.255 1.5625,-1.40625 1.47875,-1.645 1.48,-1.48375 1.5675,-1.5675 1.215,-1.5625 1.3925,-1.5675 1.22,-1.64625 1.045,-1.64 1.21625,-1.64625 1.1325,-1.5625 0.9575,-1.5675 0.95625,-1.48375 0.9575,-1.41125 0.78125,-1.3275 0.86875,-1.1775 0.69875,-1.09375 0.6925,-1.09375 0.875,-1.09875 0.78125,-1.09375 0.6925,-1.09875 0.69875,-1.09375 0.5225,-1.09375 0.5225,-1.02 0.605,-1.01625 0.5225,-1.02 0.5225,-0.9375 0.435,-1.17125 0.61,-1.255 0.435,-1.25 0.43375,-1.255 0.5225,-1.01625 0.3475,-1.015 0.43875,-1.02125 0.60625,-1.015 0.43375,-1.01625 0.3525,-0.9425 0.25875,-0.85875 0.175,-0.9375 0.0888,-0.9425 0.25875,-0.9375 0.175,-1.01625 0.17125,-0.94125 0.17625,-1.01625 0.175,-0.78125 0.0838,-0.7075 0.0875,-0.70375 0.175,-0.54625 0.17125,-0.625 0.0888,-0.70875 0.0875,-0.78125 0.0875,-1.015 0,-1.8025 0.0875,-0.7025 0,-0.625 0.0888,-0.46875 0,-2.1925 0.0825,-0.5475 0,-0.7075 0.17625,-1.25 0,-0.54625 0.0875,-0.5525 0,-3.28625 0.0875,-0.46875 0.0838,-0.3125 0.0875,-0.54625 0,-0.5475 0.0875,-0.47375 0,-0.78125 -0.34625,-0.46875 -0.61,-0.15625 -0.5225,0"
         style="fill:none;stroke:#3333cc;stroke-width:1.76249993;stroke-linecap:round;stroke-linejoin:round;stroke-miterlimit:10;stroke-dasharray:none;stroke-opacity:1"
         id="path3495"
         inkscape:connector-curvature="0" />
      <path
         d="m 139.8775,322.9011 -0.25875,-0.54625 -0.5225,0 -0.6975,0.39 -0.5225,0.3125 -0.69375,0.39125 -0.9575,0.7025 -1.04375,0.63 -1.13375,0.70375 -1.30375,0.9375 -1.215,0.78125 -1.045,0.7075 -1.045,0.70375 -0.9575,0.78125 -0.95625,0.54625 -0.9575,0.86375 -0.69375,0.5475 -0.61,0.39 -0.34625,0.46875 -0.26375,0.39125 0.26375,-0.15625 0.34625,-0.0787 0.435,-0.15625 0.61,-0.46875 0.605,-0.23375 0.69875,-0.5475 0.69375,-0.54625 0.785,-0.63 1.915,-1.71875 1.045,-1.02 0.95625,-1.01625 0.78125,-0.85875 0.61125,-0.70875 0.78125,-0.54625 0.34625,-0.3125 0.61,-0.3125 0.435,-0.15625 0.5225,-0.235 1.045,-0.15625 0.5225,0.235 0.5225,0.39 0.605,0.39125 0.435,0.78625 0.61,0.625 0.61,0.7025 0.78125,0.78125 0.9575,0.625 0.6975,0.63 0.60625,0.46875 0.43875,0.39125 0.5175,0.23375 0.69875,0.235 1.1325,0 0.435,-0.235"
         style="fill:none;stroke:#3333cc;stroke-width:1.76249993;stroke-linecap:round;stroke-linejoin:round;stroke-miterlimit:10;stroke-dasharray:none;stroke-opacity:1"
         id="path3497"
         inkscape:connector-curvature="0" />
      <path
         d="m 405.3125,303.7261 6.42125,0.005 6.42,0.01 6.41625,0.005 6.42125,0.005 6.42125,0.01 6.42,0.005 6.41625,0.005 6.42125,0.009 12.84125,0.01 6.42125,0.01 6.41625,0.005 6.42125,0.005 6.42,0.01 6.42125,0.004 6.41625,0.005 6.42125,0.01 12.84125,0.01 6.41625,0.01 12.84125,0.01 6.42125,0.009 6.42125,0.005"
         style="fill:none;stroke:#00ff00;stroke-width:10.625;stroke-linecap:round;stroke-linejoin:round;stroke-miterlimit:10;stroke-dasharray:none;stroke-opacity:0.49803904"
         id="path3499"
         inkscape:connector-curvature="0" />
      <path
         d="m 482.915,324.54735 -0.25875,0.625 -0.0875,0.7025 0,6.885 0.0875,1.645 0.25875,1.95875 0.34625,1.875 0.5225,1.88 0.87,1.88 0.6975,1.79625 0.9575,1.5675 1.21625,1.5625 1.04375,1.645 1.48,1.5675 1.655,1.64125 1.73875,1.88 1.91375,1.64 2.26125,1.49 2.1775,1.40625 2.26125,1.3325 2.1725,1.09375 2.00125,1.09875 3.82875,1.71875 1.91375,0.7075 2.0025,0.625 2.00125,0.5475 2.085,0.54625 1.91375,0.46875 2.0025,0.5525 2.0025,0.54625 3.8275,0.78125 1.82625,0.3125 1.82625,0.0788 1.655,0.0775 1.5625,0.0788 1.5675,0 1.48,-0.0788 1.47875,-0.23375 2.95875,-0.625 2.78375,-0.78125 1.39125,-0.39625 1.48,-0.39 1.48,-0.5475 1.39125,-0.46875 1.5675,-0.625 1.47375,-0.7025 1.5675,-0.78625 1.48,-0.9375 1.5675,-0.86 1.39125,-0.9425 1.30375,-0.9375 1.22125,-0.85875 1.1275,-0.86375 1.1325,-0.86 1.045,-1.015 1.21625,-1.09875 1.1325,-1.1725 1.21625,-1.09875 1.22,-1.3275 1.04,-1.25 1.045,-1.255 1.045,-1.32875 1.045,-1.17625 1.045,-1.1725 0.78125,-1.17625 0.78125,-1.015 0.69875,-1.09375 0.78125,-1.02125 0.95625,-1.015 0.69875,-1.09875 0.78125,-1.1725 0.61,-1.17125 0.69375,-1.255 0.78625,-1.25 0.6925,-1.33375 0.9575,-1.48375 0.78625,-1.41125 0.69375,-1.48375 0.61,-1.41125 0.435,-1.32875 0.25875,-1.3325 0.35125,-1.1725 0.25875,-1.255 0.17625,-1.25 0.34625,-1.3275 0.26375,-1.33375 0.25875,-1.3275 0.25875,-1.3325 0.175,-1.4075 0.3475,-1.56625 0.35125,-1.49 0.34625,-1.3275 0.25875,-1.32875 0.0888,-1.17625 0,-1.1725 0.0875,-1.17625 0,-3.28625 0.0875,-1.01625 0,-1.17625 0.0888,-1.17125 0,-0.9375 0.0825,-1.02125 0.0875,-1.015 0.0888,-0.86 0,-2.895 0.0875,-0.865 0.0875,-0.9375 0.0837,-0.7025 0.0875,-0.63 0.0875,-0.625 0.0888,-0.46875 0,-2.73875 -0.0888,-0.46875 0,-0.3125 -0.0875,-0.3125 -0.17125,-0.235 -0.0875,-0.3175 -0.17625,-0.23375 -0.61,0.23375 -0.69375,0.39625"
         style="fill:none;stroke:#00ff00;stroke-width:1.76249993;stroke-linecap:round;stroke-linejoin:round;stroke-miterlimit:10;stroke-dasharray:none;stroke-opacity:1"
         id="path3501"
         inkscape:connector-curvature="0" />
      <path
         d="m 486.30875,321.9636 0.0875,-0.3175 -0.61,-0.0775 -0.61,0.3175 -0.78125,0.46875 -0.9575,0.625 -0.9575,0.7025 -0.95625,0.865 -1.045,0.85875 -0.9575,0.86 -0.86875,0.7025 -0.78125,0.63 -0.69875,0.39125 -0.43375,0.3125 -0.5225,0.3125 -0.25875,0.15625 -0.17625,0.23375 0.61,-0.23375 0.69375,-0.39125 0.78625,-0.54625 0.78125,-0.70875 0.6975,-0.78125 0.60625,-0.85875 0.78625,-0.70375 0.6925,-0.7075 0.78625,-0.625 0.60625,-0.5475 0.5225,-0.39 0.43375,-0.39125 0.17625,-0.23375 0.34625,-0.15625 0.87,0 0.6975,0.23375 0.69375,0.235 0.6975,0.39 0.7825,0.46875 0.6975,0.39125 0.78125,0.39 0.61,0.46875 0.61125,0.63 0.78125,0.5475 0.6975,0.625 0.78125,0.54625 0.5225,0.235 0.435,0.3125 0.34625,0.0775 0.3475,0.0838 0.61,-0.0838 0.175,-0.3125"
         style="fill:none;stroke:#00ff00;stroke-width:1.76249993;stroke-linecap:round;stroke-linejoin:round;stroke-miterlimit:10;stroke-dasharray:none;stroke-opacity:1"
         id="path3503"
         inkscape:connector-curvature="0" />
      <path
         d="m 367.55375,211.37735 12.52875,0.0888 6.265,0.0387 12.53,0.0875 6.25875,0.0437 6.265,0.04 18.79375,0.13125 6.265,0.0387 6.26,0.045 12.52875,0.0875 6.265,0.0387 18.79375,0.1325 6.26,0.0388 18.79375,0.13125"
         style="fill:none;stroke:#008000;stroke-width:10.625;stroke-linecap:round;stroke-linejoin:round;stroke-miterlimit:10;stroke-dasharray:none;stroke-opacity:0.49803904"
         id="path3505"
         inkscape:connector-curvature="0" />
      <path
         d="m 430.195,193.4586 0.17125,-0.625 0.0875,-0.63 0.0888,-0.9375 0.0875,-1.1725 0.17125,-1.3325 0.175,-1.40625 0.17625,-1.72375 0.25875,-2.03625 0.17625,-2.26625 0.25875,-2.42625 0.35125,-2.1925 0.43375,-2.11375 0.5225,-1.875 0.60625,-1.8025 0.61,-1.645 0.69875,-1.64125 0.6925,-1.5675 0.78125,-1.64 0.78625,-1.645 0.87,-1.5675 0.95625,-1.5625 0.9575,-1.5675 1.215,-1.5625 1.22125,-1.49 1.1275,-1.79625 1.22125,-1.49 1.1325,-1.5625 1.12875,-1.48875 1.22,-1.17125 1.1275,-0.9425 1.22125,-0.86 1.21625,-0.625 1.47875,-0.78625 4.43875,-2.34375 1.48,-0.63 1.5625,-0.46875 1.7425,-0.39 1.91375,-0.3125 1.9975,-0.15625 4.00375,-0.46875 4.00375,-0.3125 1.915,-0.0788 3.91,0 2.0025,0.15625 2.09,0.15625 2.1725,0.39125 2.1775,0.39 2.17375,0.625 2.09,0.78125 1.82625,0.78625 1.65,0.78125 1.5675,0.70375 1.5675,0.78625 1.5675,0.85875 1.5625,0.9375 1.47875,1.02125 1.5675,1.015 1.65,1.09375 1.5675,1.09875 1.5675,1.17125 1.65,1.09875 1.48,1.1725 1.48,1.25 1.30375,1.17625 1.1325,1.25 1.1325,1.1775 1.04,1.17125 1.045,1.1725 0.9575,1.09875 0.78625,1.17125 0.86875,1.17625 0.78125,1.1725 0.78625,1.09875 0.78125,1.09375 0.78125,0.9375 0.6975,0.9425 0.69375,1.015 0.61,1.01625 0.5225,1.17625 1.045,2.1875 0.5225,1.09875 0.60625,1.01625 0.5225,1.02 1.045,2.1875 0.34625,1.02 0.35125,1.1725 0.435,1.17625 0.6925,2.34375 0.435,1.09875 0.26375,1.09375 0.25875,1.09875 0.35125,1.09375 0.17125,0.9375 0.34625,1.02125 0.3525,1.015 0.17,1.09375 0.26375,1.3325 0.17125,1.25 0.0875,1.1775 0.17625,1.17125 0.17625,1.1775 0,1.09375 0.0825,1.09375 0,1.09875 -0.0825,1.17125 0,3.99375 0.0825,1.32875 0.0875,1.48875 0.0887,1.40625 0.175,1.255 0.17125,1.1725 0.17625,0.9375 0.25875,1.02 0.26375,0.78125 0.34625,0.9375 0.17625,0.78625 0.0825,0.78125 0.0875,0.78125 0.0888,0.86 0.175,0.86375 0.0888,0.78125 0,0.78125 0.0825,0.54625 0,1.09875 0.0875,0.46875 0.0888,-0.9375"
         style="fill:none;stroke:#008000;stroke-width:1.76249993;stroke-linecap:round;stroke-linejoin:round;stroke-miterlimit:10;stroke-dasharray:none;stroke-opacity:1"
         id="path3507"
         inkscape:connector-curvature="0" />
      <path
         d="m 424.8,185.0836 -0.25875,-0.46875 -0.435,-0.54625 -0.35125,-0.39625 -0.34625,-0.39 -0.17625,-0.39125 -0.34625,-0.39 -0.0888,-0.46875 0,-0.5475 0.5225,0.70375 0.5225,0.78125 0.69875,1.02 0.69375,1.1725 0.52125,1.17125 0.61125,1.255 0.61,1.25 0.605,1.02125 0.61125,0.85875 0.61,0.78125 0.34625,0.46875 0.3475,0.3125 0.175,0.3175 0.87,0 0.61,-0.0775 0.605,-0.15625 0.69875,-0.3175 0.95625,-0.5475 0.87,-0.46875 0.95625,-0.78125 0.9575,-0.78625 0.78625,-0.85875 0.9575,-1.01625 0.78125,-0.7025 0.61,-0.78625 0.69375,-0.5475 0.6975,-0.46875 0.605,-0.39 0.61125,-0.235 0.43375,-0.23375 0.26375,-0.235 0.17125,-0.23875 -0.435,0.16125"
         style="fill:none;stroke:#008000;stroke-width:1.76249993;stroke-linecap:round;stroke-linejoin:round;stroke-miterlimit:10;stroke-dasharray:none;stroke-opacity:1"
         id="path3509"
         inkscape:connector-curvature="0" />
    </g>
  </g>
</svg>
