<?xml version="1.0" encoding="UTF-8" standalone="no"?>
<!-- Created with Inkscape (http://www.inkscape.org/) -->

<svg
   xmlns:dc="http://purl.org/dc/elements/1.1/"
   xmlns:cc="http://creativecommons.org/ns#"
   xmlns:rdf="http://www.w3.org/1999/02/22-rdf-syntax-ns#"
   xmlns:svg="http://www.w3.org/2000/svg"
   xmlns="http://www.w3.org/2000/svg"
   xmlns:xlink="http://www.w3.org/1999/xlink"
   xmlns:sodipodi="http://sodipodi.sourceforge.net/DTD/sodipodi-0.dtd"
   xmlns:inkscape="http://www.inkscape.org/namespaces/inkscape"
   width="206.83055"
   height="132.85782"
   id="svg2"
   version="1.1"
   inkscape:version="0.48.5 r10040"
   sodipodi:docname="ncset.pdf">
  <defs
     id="defs4">
    <clipPath
       id="clipPath3828"
       clipPathUnits="userSpaceOnUse">
      <path
         id="path3830"
         d="m 0,181.185 283.222,0 L 283.222,0 0,0 0,181.185 z"
         inkscape:connector-curvature="0" />
    </clipPath>
    <clipPath
       id="clipPath3596"
       clipPathUnits="userSpaceOnUse">
      <path
         id="path3598"
         d="m 0,181.185 283.222,0 L 283.222,0 0,0 0,181.185 z"
         inkscape:connector-curvature="0" />
    </clipPath>
    <clipPath
       id="clipPath3588"
       clipPathUnits="userSpaceOnUse">
      <path
         id="path3590"
         d="m 0,0 283.222,0 0,181.185 L 0,181.185 0,0 z"
         inkscape:connector-curvature="0" />
    </clipPath>
    <radialGradient
       id="radialGradient3496"
       gradientUnits="userSpaceOnUse"
       r="2.5697"
       cy="2.5697"
       cx="2.5697"
       fy="3.6656001"
       fx="1.67305">
      <stop
         id="stop3498"
         offset="0"
         style="stop-opacity:1;stop-color:#e0e0f4" />
      <stop
         id="stop3500"
         offset="0.797"
         style="stop-opacity:1;stop-color:#6666c6" />
      <stop
         id="stop3502"
         offset="1.59401"
         style="stop-opacity:1;stop-color:#24247d" />
      <stop
         id="stop3504"
         offset="2.1918"
         style="stop-opacity:1;stop-color:#191959" />
      <stop
         id="stop3506"
         offset="2.5697"
         style="stop-opacity:1;stop-color:#ffffff" />
    </radialGradient>
    <clipPath
       id="clipPath3492"
       clipPathUnits="userSpaceOnUse">
      <path
         id="path3494"
         d="m 0,0 5.139,0 0,5.139 L 0,5.139 0,0 z"
         inkscape:connector-curvature="0" />
    </clipPath>
    <radialGradient
       id="radialGradient3318"
       gradientUnits="userSpaceOnUse"
       r="2.5697"
       cy="2.5697"
       cx="2.5697"
       fy="3.6656001"
       fx="1.67305">
      <stop
         id="stop3320"
         offset="0"
         style="stop-opacity:1;stop-color:#e0e0f4" />
      <stop
         id="stop3322"
         offset="0.797"
         style="stop-opacity:1;stop-color:#6666c6" />
      <stop
         id="stop3324"
         offset="1.59401"
         style="stop-opacity:1;stop-color:#24247d" />
      <stop
         id="stop3326"
         offset="2.1918"
         style="stop-opacity:1;stop-color:#191959" />
      <stop
         id="stop3328"
         offset="2.5697"
         style="stop-opacity:1;stop-color:#ffffff" />
    </radialGradient>
    <clipPath
       id="clipPath3314"
       clipPathUnits="userSpaceOnUse">
      <path
         id="path3316"
         d="m 0,0 5.139,0 0,5.139 L 0,5.139 0,0 z"
         inkscape:connector-curvature="0" />
    </clipPath>
    <linearGradient
       id="linearGradient3298"
       gradientUnits="userSpaceOnUse"
       y2="3.9851"
       x2="0"
       y1="0"
       x1="0">
      <stop
         id="stop3300"
         offset="0"
         style="stop-opacity:1;stop-color:#ffffff" />
      <stop
         id="stop3302"
         offset="1"
         style="stop-opacity:1;stop-color:#808080" />
    </linearGradient>
    <clipPath
       id="clipPath3294"
       clipPathUnits="userSpaceOnUse">
      <path
         id="path3296"
         d="m 0,0 362.835,0 0,3.985 L 0,3.985 0,0 z"
         inkscape:connector-curvature="0" />
    </clipPath>
    <linearGradient
       id="linearGradient3274"
       gradientUnits="userSpaceOnUse"
       y2="0"
       x2="362.83939"
       y1="0"
       x1="0">
      <stop
         id="stop3276"
         offset="0"
         style="stop-opacity:1;stop-color:#3333b3" />
      <stop
         id="stop3278"
         offset="1"
         style="stop-opacity:1;stop-color:#000000" />
    </linearGradient>
    <clipPath
       id="clipPath3270"
       clipPathUnits="userSpaceOnUse">
      <path
         id="path3272"
         d="m 0,0 362.835,0 0,272.126 L 0,272.126 0,0 z"
         inkscape:connector-curvature="0" />
    </clipPath>
    <clipPath
       id="clipPath3256"
       clipPathUnits="userSpaceOnUse">
      <path
         id="path3258"
         d="m 0,0 362.8394,0 0,20.52338 L 0,20.52338 0,0 z"
         inkscape:connector-curvature="0" />
    </clipPath>
    <linearGradient
       inkscape:collect="always"
       xlink:href="#linearGradient3298"
       id="linearGradient5728"
       gradientUnits="userSpaceOnUse"
       x1="0"
       y1="0"
       x2="0"
       y2="3.9851" />
    <radialGradient
       inkscape:collect="always"
       xlink:href="#radialGradient3496"
       id="radialGradient5732"
       gradientUnits="userSpaceOnUse"
       cx="2.5697"
       cy="2.5697"
       fx="1.67305"
       fy="3.6656001"
       r="2.5697" />
    <radialGradient
       inkscape:collect="always"
       xlink:href="#radialGradient3318"
       id="radialGradient6008"
       gradientUnits="userSpaceOnUse"
       cx="2.5697"
       cy="2.5697"
       fx="1.67305"
       fy="3.6656001"
       r="2.5697" />
    <linearGradient
       inkscape:collect="always"
       xlink:href="#linearGradient3274"
       id="linearGradient6013"
       gradientUnits="userSpaceOnUse"
       x1="0"
       y1="0"
       x2="362.83939"
       y2="0" />
    <linearGradient
       inkscape:collect="always"
       xlink:href="#linearGradient3298"
       id="linearGradient6227"
       gradientUnits="userSpaceOnUse"
       x1="0"
       y1="0"
       x2="0"
       y2="3.9851"
       gradientTransform="matrix(1.25,0,0,-1.25,148.22809,407.43593)" />
    <radialGradient
       inkscape:collect="always"
       xlink:href="#radialGradient3496"
       id="radialGradient6229"
       gradientUnits="userSpaceOnUse"
       cx="2.5697"
       cy="2.5697"
       fx="1.67305"
       fy="3.6656001"
       r="2.5697" />
    <radialGradient
       inkscape:collect="always"
       xlink:href="#radialGradient3318"
       id="radialGradient6429"
       gradientUnits="userSpaceOnUse"
       cx="2.5697"
       cy="2.5697"
       fx="1.67305"
       fy="3.6656001"
       r="2.5697" />
    <radialGradient
       inkscape:collect="always"
       xlink:href="#radialGradient3318"
       id="radialGradient6432"
       gradientUnits="userSpaceOnUse"
       cx="2.5697"
       cy="2.5697"
       fx="1.67305"
       fy="3.6656001"
       r="2.5697"
       gradientTransform="matrix(1.25,0,0,-1.25,179.9756,429.39092)" />
    <linearGradient
       inkscape:collect="always"
       xlink:href="#linearGradient3274"
       id="linearGradient6434"
       gradientUnits="userSpaceOnUse"
       x1="0"
       y1="0"
       x2="362.83939"
       y2="0" />
    <linearGradient
       inkscape:collect="always"
       xlink:href="#linearGradient3274"
       id="linearGradient6439"
       gradientUnits="userSpaceOnUse"
       x1="0"
       y1="0"
       x2="362.83939"
       y2="0" />
    <radialGradient
       inkscape:collect="always"
       xlink:href="#radialGradient3496"
       id="radialGradient6636"
       gradientUnits="userSpaceOnUse"
       cx="2.5697"
       cy="2.5697"
       fx="1.67305"
       fy="3.6656001"
       r="2.5697" />
    <radialGradient
       inkscape:collect="always"
       xlink:href="#radialGradient3496"
       id="radialGradient6641"
       gradientUnits="userSpaceOnUse"
       cx="2.5697"
       cy="2.5697"
       fx="1.67305"
       fy="3.6656001"
       r="2.5697" />
    <linearGradient
       inkscape:collect="always"
       xlink:href="#linearGradient3274"
       id="linearGradient6804"
       gradientUnits="userSpaceOnUse"
       x1="0"
       y1="0"
       x2="362.83939"
       y2="0" />
    <linearGradient
       inkscape:collect="always"
       xlink:href="#linearGradient3274"
       id="linearGradient6807"
       gradientUnits="userSpaceOnUse"
       x1="0"
       y1="0"
       x2="362.83939"
       y2="0"
       gradientTransform="matrix(1.25,0,0,-1.25,148.22809,402.70343)" />
  </defs>
  <sodipodi:namedview
     id="base"
     pagecolor="#ffffff"
     bordercolor="#666666"
     borderopacity="1.0"
     inkscape:pageopacity="0.0"
     inkscape:pageshadow="2"
     inkscape:zoom="1.8931818"
     inkscape:cx="118.57143"
     inkscape:cy="65.714286"
     inkscape:document-units="px"
     inkscape:current-layer="layer1"
     showgrid="false"
     fit-margin-top="0"
     fit-margin-left="0"
     fit-margin-right="0"
     fit-margin-bottom="0"
     inkscape:window-width="961"
     inkscape:window-height="660"
     inkscape:window-x="0"
     inkscape:window-y="19"
     inkscape:window-maximized="0" />
  <metadata
     id="metadata7">
    <rdf:RDF>
      <cc:Work
         rdf:about="">
        <dc:format>image/svg+xml</dc:format>
        <dc:type
           rdf:resource="http://purl.org/dc/dcmitype/StillImage" />
        <dc:title></dc:title>
      </cc:Work>
    </rdf:RDF>
  </metadata>
  <g
     inkscape:label="Layer 1"
     inkscape:groupmode="layer"
     id="layer1"
     transform="translate(-239.5242,-849.46057)">
    <g
       id="g3580"
       transform="matrix(0.738125,0,0,-0.738125,238.45867,982.31839)">
      <g
         id="g3582">
        <g
           id="g3584">
          <g
             id="g3586"
             clip-path="url(#clipPath3588)">
            <g
               id="g3592">
              <g
                 id="g3594"
                 clip-path="url(#clipPath3596)">
                <g
                   id="g3600"
                   transform="translate(255.2832,70.75)">
                  <path
                     inkscape:connector-curvature="0"
                     d="m 0,0 c 0,-38.798 -54.733,-70.25 -122.25,-70.25 -67.517,0 -122.25,31.452 -122.25,70.25 0,38.798 54.733,70.25 122.25,70.25 C -54.733,70.25 0,38.798 0,0"
                     style="fill:#efee0e;fill-opacity:1;fill-rule:nonzero;stroke:none"
                     id="path3602" />
                </g>
                <g
                   id="g3604"
                   transform="translate(255.2832,70.75)">
                  <path
                     inkscape:connector-curvature="0"
                     d="m 0,0 c 0,-38.798 -54.733,-70.25 -122.25,-70.25 -67.517,0 -122.25,31.452 -122.25,70.25 0,38.798 54.733,70.25 122.25,70.25 C -54.733,70.25 0,38.798 0,0 z"
                     style="fill:none;stroke:#231f20;stroke-width:1;stroke-linecap:butt;stroke-linejoin:miter;stroke-miterlimit:10;stroke-opacity:1;stroke-dasharray:none"
                     id="path3606" />
                </g>
                <g
                   id="g3608"
                   transform="translate(46.2832,75.25)">
                  <path
                     inkscape:connector-curvature="0"
                     d="m 0,0 c 0,-9.527 -7.723,-17.25 -17.25,-17.25 -9.527,0 -17.25,7.723 -17.25,17.25 0,9.527 7.723,17.25 17.25,17.25 C -7.723,17.25 0,9.527 0,0"
                     style="fill:#ffffff;fill-opacity:1;fill-rule:nonzero;stroke:none"
                     id="path3610" />
                </g>
                <g
                   id="g3612"
                   transform="translate(46.2832,75.25)">
                  <path
                     inkscape:connector-curvature="0"
                     d="m 0,0 c 0,-9.527 -7.723,-17.25 -17.25,-17.25 -9.527,0 -17.25,7.723 -17.25,17.25 0,9.527 7.723,17.25 17.25,17.25 C -7.723,17.25 0,9.527 0,0 z"
                     style="fill:none;stroke:#231f20;stroke-width:1;stroke-linecap:butt;stroke-linejoin:miter;stroke-miterlimit:10;stroke-opacity:1;stroke-dasharray:none"
                     id="path3614" />
                </g>
                <g
                   id="g3616"
                   transform="translate(68.2832,102.25)">
                  <path
                     inkscape:connector-curvature="0"
                     d="m 0,0 c 0,-9.527 -7.723,-17.25 -17.25,-17.25 -9.527,0 -17.25,7.723 -17.25,17.25 0,9.527 7.723,17.25 17.25,17.25 C -7.723,17.25 0,9.527 0,0"
                     style="fill:#ffffff;fill-opacity:1;fill-rule:nonzero;stroke:none"
                     id="path3618" />
                </g>
                <g
                   id="g3620"
                   transform="translate(68.2832,102.25)">
                  <path
                     inkscape:connector-curvature="0"
                     d="m 0,0 c 0,-9.527 -7.723,-17.25 -17.25,-17.25 -9.527,0 -17.25,7.723 -17.25,17.25 0,9.527 7.723,17.25 17.25,17.25 C -7.723,17.25 0,9.527 0,0 z"
                     style="fill:none;stroke:#231f20;stroke-width:1;stroke-linecap:butt;stroke-linejoin:miter;stroke-miterlimit:10;stroke-opacity:1;stroke-dasharray:none"
                     id="path3622" />
                </g>
                <g
                   id="g3624"
                   transform="translate(61.2832,44.25)">
                  <path
                     inkscape:connector-curvature="0"
                     d="m 0,0 c 0,-9.527 -7.723,-17.25 -17.25,-17.25 -9.527,0 -17.25,7.723 -17.25,17.25 0,9.527 7.723,17.25 17.25,17.25 C -7.723,17.25 0,9.527 0,0"
                     style="fill:#ffffff;fill-opacity:1;fill-rule:nonzero;stroke:none"
                     id="path3626" />
                </g>
                <g
                   id="g3628"
                   transform="translate(61.2832,44.25)">
                  <path
                     inkscape:connector-curvature="0"
                     d="m 0,0 c 0,-9.527 -7.723,-17.25 -17.25,-17.25 -9.527,0 -17.25,7.723 -17.25,17.25 0,9.527 7.723,17.25 17.25,17.25 C -7.723,17.25 0,9.527 0,0 z"
                     style="fill:none;stroke:#231f20;stroke-width:1;stroke-linecap:butt;stroke-linejoin:miter;stroke-miterlimit:10;stroke-opacity:1;stroke-dasharray:none"
                     id="path3630" />
                </g>
                <g
                   id="g3632"
                   transform="translate(84.2832,71.25)">
                  <path
                     inkscape:connector-curvature="0"
                     d="m 0,0 c 0,-9.527 -7.723,-17.25 -17.25,-17.25 -9.527,0 -17.25,7.723 -17.25,17.25 0,9.527 7.723,17.25 17.25,17.25 C -7.723,17.25 0,9.527 0,0"
                     style="fill:#ffffff;fill-opacity:1;fill-rule:nonzero;stroke:none"
                     id="path3634" />
                </g>
                <g
                   id="g3636"
                   transform="translate(84.2832,71.25)">
                  <path
                     inkscape:connector-curvature="0"
                     d="m 0,0 c 0,-9.527 -7.723,-17.25 -17.25,-17.25 -9.527,0 -17.25,7.723 -17.25,17.25 0,9.527 7.723,17.25 17.25,17.25 C -7.723,17.25 0,9.527 0,0 z"
                     style="fill:none;stroke:#231f20;stroke-width:1;stroke-linecap:butt;stroke-linejoin:miter;stroke-miterlimit:10;stroke-opacity:1;stroke-dasharray:none"
                     id="path3638" />
                </g>
                <g
                   id="g3640"
                   transform="translate(100.2832,116.25)">
                  <path
                     inkscape:connector-curvature="0"
                     d="m 0,0 c 0,-9.527 -7.723,-17.25 -17.25,-17.25 -9.527,0 -17.25,7.723 -17.25,17.25 0,9.527 7.723,17.25 17.25,17.25 C -7.723,17.25 0,9.527 0,0"
                     style="fill:#ffffff;fill-opacity:1;fill-rule:nonzero;stroke:none"
                     id="path3642" />
                </g>
                <g
                   id="g3644"
                   transform="translate(100.2832,116.25)">
                  <path
                     inkscape:connector-curvature="0"
                     d="m 0,0 c 0,-9.527 -7.723,-17.25 -17.25,-17.25 -9.527,0 -17.25,7.723 -17.25,17.25 0,9.527 7.723,17.25 17.25,17.25 C -7.723,17.25 0,9.527 0,0 z"
                     style="fill:none;stroke:#231f20;stroke-width:1;stroke-linecap:butt;stroke-linejoin:miter;stroke-miterlimit:10;stroke-opacity:1;stroke-dasharray:none"
                     id="path3646" />
                </g>
                <g
                   id="g3648"
                   transform="translate(134.2832,123.25)">
                  <path
                     inkscape:connector-curvature="0"
                     d="m 0,0 c 0,-9.527 -7.723,-17.25 -17.25,-17.25 -9.527,0 -17.25,7.723 -17.25,17.25 0,9.527 7.723,17.25 17.25,17.25 C -7.723,17.25 0,9.527 0,0"
                     style="fill:#ffffff;fill-opacity:1;fill-rule:nonzero;stroke:none"
                     id="path3650" />
                </g>
                <g
                   id="g3652"
                   transform="translate(134.2832,123.25)">
                  <path
                     inkscape:connector-curvature="0"
                     d="m 0,0 c 0,-9.527 -7.723,-17.25 -17.25,-17.25 -9.527,0 -17.25,7.723 -17.25,17.25 0,9.527 7.723,17.25 17.25,17.25 C -7.723,17.25 0,9.527 0,0 z"
                     style="fill:none;stroke:#231f20;stroke-width:1;stroke-linecap:butt;stroke-linejoin:miter;stroke-miterlimit:10;stroke-opacity:1;stroke-dasharray:none"
                     id="path3654" />
                </g>
                <g
                   id="g3656"
                   transform="translate(123.2832,90.25)">
                  <path
                     inkscape:connector-curvature="0"
                     d="m 0,0 c 0,-9.527 -7.723,-17.25 -17.25,-17.25 -9.527,0 -17.25,7.723 -17.25,17.25 0,9.527 7.723,17.25 17.25,17.25 C -7.723,17.25 0,9.527 0,0"
                     style="fill:#ffffff;fill-opacity:1;fill-rule:nonzero;stroke:none"
                     id="path3658" />
                </g>
                <g
                   id="g3660"
                   transform="translate(123.2832,90.25)">
                  <path
                     inkscape:connector-curvature="0"
                     d="m 0,0 c 0,-9.527 -7.723,-17.25 -17.25,-17.25 -9.527,0 -17.25,7.723 -17.25,17.25 0,9.527 7.723,17.25 17.25,17.25 C -7.723,17.25 0,9.527 0,0 z"
                     style="fill:none;stroke:#231f20;stroke-width:1;stroke-linecap:butt;stroke-linejoin:miter;stroke-miterlimit:10;stroke-opacity:1;stroke-dasharray:none"
                     id="path3662" />
                </g>
                <g
                   id="g3664"
                   transform="translate(116.2832,56.25)">
                  <path
                     inkscape:connector-curvature="0"
                     d="m 0,0 c 0,-9.527 -7.723,-17.25 -17.25,-17.25 -9.527,0 -17.25,7.723 -17.25,17.25 0,9.527 7.723,17.25 17.25,17.25 C -7.723,17.25 0,9.527 0,0"
                     style="fill:#ffffff;fill-opacity:1;fill-rule:nonzero;stroke:none"
                     id="path3666" />
                </g>
                <g
                   id="g3668"
                   transform="translate(116.2832,56.25)">
                  <path
                     inkscape:connector-curvature="0"
                     d="m 0,0 c 0,-9.527 -7.723,-17.25 -17.25,-17.25 -9.527,0 -17.25,7.723 -17.25,17.25 0,9.527 7.723,17.25 17.25,17.25 C -7.723,17.25 0,9.527 0,0 z"
                     style="fill:none;stroke:#231f20;stroke-width:1;stroke-linecap:butt;stroke-linejoin:miter;stroke-miterlimit:10;stroke-opacity:1;stroke-dasharray:none"
                     id="path3670" />
                </g>
                <g
                   id="g3672"
                   transform="translate(93.2832,30.25)">
                  <path
                     inkscape:connector-curvature="0"
                     d="m 0,0 c 0,-9.527 -7.723,-17.25 -17.25,-17.25 -9.527,0 -17.25,7.723 -17.25,17.25 0,9.527 7.723,17.25 17.25,17.25 C -7.723,17.25 0,9.527 0,0"
                     style="fill:#ffffff;fill-opacity:1;fill-rule:nonzero;stroke:none"
                     id="path3674" />
                </g>
                <g
                   id="g3676"
                   transform="translate(93.2832,30.25)">
                  <path
                     inkscape:connector-curvature="0"
                     d="m 0,0 c 0,-9.527 -7.723,-17.25 -17.25,-17.25 -9.527,0 -17.25,7.723 -17.25,17.25 0,9.527 7.723,17.25 17.25,17.25 C -7.723,17.25 0,9.527 0,0 z"
                     style="fill:none;stroke:#231f20;stroke-width:1;stroke-linecap:butt;stroke-linejoin:miter;stroke-miterlimit:10;stroke-opacity:1;stroke-dasharray:none"
                     id="path3678" />
                </g>
                <g
                   id="g3680"
                   transform="translate(127.2832,23.25)">
                  <path
                     inkscape:connector-curvature="0"
                     d="m 0,0 c 0,-9.527 -7.723,-17.25 -17.25,-17.25 -9.527,0 -17.25,7.723 -17.25,17.25 0,9.527 7.723,17.25 17.25,17.25 C -7.723,17.25 0,9.527 0,0"
                     style="fill:#ffffff;fill-opacity:1;fill-rule:nonzero;stroke:none"
                     id="path3682" />
                </g>
                <g
                   id="g3684"
                   transform="translate(127.2832,23.25)">
                  <path
                     inkscape:connector-curvature="0"
                     d="m 0,0 c 0,-9.527 -7.723,-17.25 -17.25,-17.25 -9.527,0 -17.25,7.723 -17.25,17.25 0,9.527 7.723,17.25 17.25,17.25 C -7.723,17.25 0,9.527 0,0 z"
                     style="fill:none;stroke:#231f20;stroke-width:1;stroke-linecap:butt;stroke-linejoin:miter;stroke-miterlimit:10;stroke-opacity:1;stroke-dasharray:none"
                     id="path3686" />
                </g>
                <g
                   id="g3688"
                   transform="translate(150.2832,49.25)">
                  <path
                     inkscape:connector-curvature="0"
                     d="m 0,0 c 0,-9.527 -7.723,-17.25 -17.25,-17.25 -9.527,0 -17.25,7.723 -17.25,17.25 0,9.527 7.723,17.25 17.25,17.25 C -7.723,17.25 0,9.527 0,0"
                     style="fill:#ffffff;fill-opacity:1;fill-rule:nonzero;stroke:none"
                     id="path3690" />
                </g>
                <g
                   id="g3692"
                   transform="translate(150.2832,49.25)">
                  <path
                     inkscape:connector-curvature="0"
                     d="m 0,0 c 0,-9.527 -7.723,-17.25 -17.25,-17.25 -9.527,0 -17.25,7.723 -17.25,17.25 0,9.527 7.723,17.25 17.25,17.25 C -7.723,17.25 0,9.527 0,0 z"
                     style="fill:none;stroke:#231f20;stroke-width:1;stroke-linecap:butt;stroke-linejoin:miter;stroke-miterlimit:10;stroke-opacity:1;stroke-dasharray:none"
                     id="path3694" />
                </g>
                <g
                   id="g3696"
                   transform="translate(157.2832,83.25)">
                  <path
                     inkscape:connector-curvature="0"
                     d="m 0,0 c 0,-9.527 -7.723,-17.25 -17.25,-17.25 -9.527,0 -17.25,7.723 -17.25,17.25 0,9.527 7.723,17.25 17.25,17.25 C -7.723,17.25 0,9.527 0,0"
                     style="fill:#ffffff;fill-opacity:1;fill-rule:nonzero;stroke:none"
                     id="path3698" />
                </g>
                <g
                   id="g3700"
                   transform="translate(157.2832,83.25)">
                  <path
                     inkscape:connector-curvature="0"
                     d="m 0,0 c 0,-9.527 -7.723,-17.25 -17.25,-17.25 -9.527,0 -17.25,7.723 -17.25,17.25 0,9.527 7.723,17.25 17.25,17.25 C -7.723,17.25 0,9.527 0,0 z"
                     style="fill:none;stroke:#231f20;stroke-width:1;stroke-linecap:butt;stroke-linejoin:miter;stroke-miterlimit:10;stroke-opacity:1;stroke-dasharray:none"
                     id="path3702" />
                </g>
                <g
                   id="g3704"
                   transform="translate(168.2832,116.25)">
                  <path
                     inkscape:connector-curvature="0"
                     d="m 0,0 c 0,-9.527 -7.723,-17.25 -17.25,-17.25 -9.527,0 -17.25,7.723 -17.25,17.25 0,9.527 7.723,17.25 17.25,17.25 C -7.723,17.25 0,9.527 0,0"
                     style="fill:#ffffff;fill-opacity:1;fill-rule:nonzero;stroke:none"
                     id="path3706" />
                </g>
                <g
                   id="g3708"
                   transform="translate(168.2832,116.25)">
                  <path
                     inkscape:connector-curvature="0"
                     d="m 0,0 c 0,-9.527 -7.723,-17.25 -17.25,-17.25 -9.527,0 -17.25,7.723 -17.25,17.25 0,9.527 7.723,17.25 17.25,17.25 C -7.723,17.25 0,9.527 0,0 z"
                     style="fill:none;stroke:#231f20;stroke-width:1;stroke-linecap:butt;stroke-linejoin:miter;stroke-miterlimit:10;stroke-opacity:1;stroke-dasharray:none"
                     id="path3710" />
                </g>
                <g
                   id="g3712"
                   transform="translate(203.2832,116.25)">
                  <path
                     inkscape:connector-curvature="0"
                     d="m 0,0 c 0,-9.527 -7.723,-17.25 -17.25,-17.25 -9.527,0 -17.25,7.723 -17.25,17.25 0,9.527 7.723,17.25 17.25,17.25 C -7.723,17.25 0,9.527 0,0"
                     style="fill:#ffffff;fill-opacity:1;fill-rule:nonzero;stroke:none"
                     id="path3714" />
                </g>
                <g
                   id="g3716"
                   transform="translate(203.2832,116.25)">
                  <path
                     inkscape:connector-curvature="0"
                     d="m 0,0 c 0,-9.527 -7.723,-17.25 -17.25,-17.25 -9.527,0 -17.25,7.723 -17.25,17.25 0,9.527 7.723,17.25 17.25,17.25 C -7.723,17.25 0,9.527 0,0 z"
                     style="fill:none;stroke:#231f20;stroke-width:1;stroke-linecap:butt;stroke-linejoin:miter;stroke-miterlimit:10;stroke-opacity:1;stroke-dasharray:none"
                     id="path3718" />
                </g>
                <g
                   id="g3720"
                   transform="translate(192.2832,83.25)">
                  <path
                     inkscape:connector-curvature="0"
                     d="m 0,0 c 0,-9.527 -7.723,-17.25 -17.25,-17.25 -9.527,0 -17.25,7.723 -17.25,17.25 0,9.527 7.723,17.25 17.25,17.25 C -7.723,17.25 0,9.527 0,0"
                     style="fill:#ffffff;fill-opacity:1;fill-rule:nonzero;stroke:none"
                     id="path3722" />
                </g>
                <g
                   id="g3724"
                   transform="translate(192.2832,83.25)">
                  <path
                     inkscape:connector-curvature="0"
                     d="m 0,0 c 0,-9.527 -7.723,-17.25 -17.25,-17.25 -9.527,0 -17.25,7.723 -17.25,17.25 0,9.527 7.723,17.25 17.25,17.25 C -7.723,17.25 0,9.527 0,0 z"
                     style="fill:none;stroke:#231f20;stroke-width:1;stroke-linecap:butt;stroke-linejoin:miter;stroke-miterlimit:10;stroke-opacity:1;stroke-dasharray:none"
                     id="path3726" />
                </g>
                <g
                   id="g3728"
                   transform="translate(185.2832,49.25)">
                  <path
                     inkscape:connector-curvature="0"
                     d="m 0,0 c 0,-9.527 -7.723,-17.25 -17.25,-17.25 -9.527,0 -17.25,7.723 -17.25,17.25 0,9.527 7.723,17.25 17.25,17.25 C -7.723,17.25 0,9.527 0,0"
                     style="fill:#ffffff;fill-opacity:1;fill-rule:nonzero;stroke:none"
                     id="path3730" />
                </g>
                <g
                   id="g3732"
                   transform="translate(185.2832,49.25)">
                  <path
                     inkscape:connector-curvature="0"
                     d="m 0,0 c 0,-9.527 -7.723,-17.25 -17.25,-17.25 -9.527,0 -17.25,7.723 -17.25,17.25 0,9.527 7.723,17.25 17.25,17.25 C -7.723,17.25 0,9.527 0,0 z"
                     style="fill:none;stroke:#231f20;stroke-width:1;stroke-linecap:butt;stroke-linejoin:miter;stroke-miterlimit:10;stroke-opacity:1;stroke-dasharray:none"
                     id="path3734" />
                </g>
                <g
                   id="g3736"
                   transform="translate(168.2832,19.25)">
                  <path
                     inkscape:connector-curvature="0"
                     d="m 0,0 c 0,-9.527 -7.723,-17.25 -17.25,-17.25 -9.527,0 -17.25,7.723 -17.25,17.25 0,9.527 7.723,17.25 17.25,17.25 C -7.723,17.25 0,9.527 0,0"
                     style="fill:#ffffff;fill-opacity:1;fill-rule:nonzero;stroke:none"
                     id="path3738" />
                </g>
                <g
                   id="g3740"
                   transform="translate(168.2832,19.25)">
                  <path
                     inkscape:connector-curvature="0"
                     d="m 0,0 c 0,-9.527 -7.723,-17.25 -17.25,-17.25 -9.527,0 -17.25,7.723 -17.25,17.25 0,9.527 7.723,17.25 17.25,17.25 C -7.723,17.25 0,9.527 0,0 z"
                     style="fill:none;stroke:#231f20;stroke-width:1;stroke-linecap:butt;stroke-linejoin:miter;stroke-miterlimit:10;stroke-opacity:1;stroke-dasharray:none"
                     id="path3742" />
                </g>
                <g
                   id="g3744"
                   transform="translate(214.2832,30.25)">
                  <path
                     inkscape:connector-curvature="0"
                     d="m 0,0 c 0,-9.527 -7.723,-17.25 -17.25,-17.25 -9.527,0 -17.25,7.723 -17.25,17.25 0,9.527 7.723,17.25 17.25,17.25 C -7.723,17.25 0,9.527 0,0"
                     style="fill:#ffffff;fill-opacity:1;fill-rule:nonzero;stroke:none"
                     id="path3746" />
                </g>
                <g
                   id="g3748"
                   transform="translate(214.2832,30.25)">
                  <path
                     inkscape:connector-curvature="0"
                     d="m 0,0 c 0,-9.527 -7.723,-17.25 -17.25,-17.25 -9.527,0 -17.25,7.723 -17.25,17.25 0,9.527 7.723,17.25 17.25,17.25 C -7.723,17.25 0,9.527 0,0 z"
                     style="fill:none;stroke:#231f20;stroke-width:1;stroke-linecap:butt;stroke-linejoin:miter;stroke-miterlimit:10;stroke-opacity:1;stroke-dasharray:none"
                     id="path3750" />
                </g>
                <g
                   id="g3752"
                   transform="translate(221.2832,64.25)">
                  <path
                     inkscape:connector-curvature="0"
                     d="m 0,0 c 0,-9.527 -7.723,-17.25 -17.25,-17.25 -9.527,0 -17.25,7.723 -17.25,17.25 0,9.527 7.723,17.25 17.25,17.25 C -7.723,17.25 0,9.527 0,0"
                     style="fill:#ffffff;fill-opacity:1;fill-rule:nonzero;stroke:none"
                     id="path3754" />
                </g>
                <g
                   id="g3756"
                   transform="translate(221.2832,64.25)">
                  <path
                     inkscape:connector-curvature="0"
                     d="m 0,0 c 0,-9.527 -7.723,-17.25 -17.25,-17.25 -9.527,0 -17.25,7.723 -17.25,17.25 0,9.527 7.723,17.25 17.25,17.25 C -7.723,17.25 0,9.527 0,0 z"
                     style="fill:none;stroke:#231f20;stroke-width:1;stroke-linecap:butt;stroke-linejoin:miter;stroke-miterlimit:10;stroke-opacity:1;stroke-dasharray:none"
                     id="path3758" />
                </g>
                <g
                   id="g3760"
                   transform="translate(232.2832,97.25)">
                  <path
                     inkscape:connector-curvature="0"
                     d="m 0,0 c 0,-9.527 -7.723,-17.25 -17.25,-17.25 -9.527,0 -17.25,7.723 -17.25,17.25 0,9.527 7.723,17.25 17.25,17.25 C -7.723,17.25 0,9.527 0,0"
                     style="fill:#ffffff;fill-opacity:1;fill-rule:nonzero;stroke:none"
                     id="path3762" />
                </g>
                <g
                   id="g3764"
                   transform="translate(232.2832,97.25)">
                  <path
                     inkscape:connector-curvature="0"
                     d="m 0,0 c 0,-9.527 -7.723,-17.25 -17.25,-17.25 -9.527,0 -17.25,7.723 -17.25,17.25 0,9.527 7.723,17.25 17.25,17.25 C -7.723,17.25 0,9.527 0,0 z"
                     style="fill:none;stroke:#231f20;stroke-width:1;stroke-linecap:butt;stroke-linejoin:miter;stroke-miterlimit:10;stroke-opacity:1;stroke-dasharray:none"
                     id="path3766" />
                </g>
                <g
                   id="g3768"
                   transform="translate(255.2832,67.25)">
                  <path
                     inkscape:connector-curvature="0"
                     d="m 0,0 c 0,-9.527 -7.723,-17.25 -17.25,-17.25 -9.527,0 -17.25,7.723 -17.25,17.25 0,9.527 7.723,17.25 17.25,17.25 C -7.723,17.25 0,9.527 0,0"
                     style="fill:#ffffff;fill-opacity:1;fill-rule:nonzero;stroke:none"
                     id="path3770" />
                </g>
                <g
                   id="g3772"
                   transform="translate(255.2832,67.25)">
                  <path
                     inkscape:connector-curvature="0"
                     d="m 0,0 c 0,-9.527 -7.723,-17.25 -17.25,-17.25 -9.527,0 -17.25,7.723 -17.25,17.25 0,9.527 7.723,17.25 17.25,17.25 C -7.723,17.25 0,9.527 0,0 z"
                     style="fill:none;stroke:#231f20;stroke-width:1;stroke-linecap:butt;stroke-linejoin:miter;stroke-miterlimit:10;stroke-opacity:1;stroke-dasharray:none"
                     id="path3774" />
                </g>
                <text
                   transform="matrix(1,0,0,-1,0,160.9287)"
                   id="text3776">
                  <tspan
                     style="font-size:19.70949936px;font-variant:normal;font-weight:normal;writing-mode:lr-tb;fill:#231f20;fill-opacity:1;fill-rule:nonzero;stroke:none;font-family:CMR10;-inkscape-font-specification:CMR10"
                     x="0"
                     y="0"
                     id="tspan3778">2</tspan>
                </text>
              </g>
            </g>
            <text
               transform="matrix(1,0,0,-1,9.8574,169.0674)"
               id="text3780">
              <tspan
                 style="font-size:14.39960003px;font-variant:normal;font-weight:normal;writing-mode:lr-tb;fill:#231f20;fill-opacity:1;fill-rule:nonzero;stroke:none;font-family:CMMI8;-inkscape-font-specification:CMMI8"
                 x="0 9.2877417"
                 y="0"
                 sodipodi:role="line"
                 id="tspan3782">nH</tspan>
            </text>
            <text
               transform="matrix(1,0,0,-1,32.810362,169.0674)"
               id="text3784">
              <tspan
                 style="font-size:14.39960003px;font-variant:normal;font-weight:normal;writing-mode:lr-tb;fill:#231f20;fill-opacity:1;fill-rule:nonzero;stroke:none;font-family:CMR8;-inkscape-font-specification:CMR8"
                 x="0"
                 y="0"
                 id="tspan3786">(</tspan>
            </text>
            <text
               transform="matrix(1,0,0,-1,38.757397,169.0674)"
               id="text3788">
              <tspan
                 style="font-size:14.39960003px;font-variant:normal;font-weight:normal;writing-mode:lr-tb;fill:#231f20;fill-opacity:1;fill-rule:nonzero;stroke:none;font-family:CMMI8;-inkscape-font-specification:CMMI8"
                 x="0"
                 y="0"
                 id="tspan3790">Y</tspan>
            </text>
            <text
               transform="matrix(1,0,0,-1,51.025856,169.0674)"
               id="text3792">
              <tspan
                 style="font-size:14.39960003px;font-variant:normal;font-weight:normal;writing-mode:lr-tb;fill:#231f20;fill-opacity:1;fill-rule:nonzero;stroke:none;font-family:CMR8;-inkscape-font-specification:CMR8"
                 x="0"
                 y="0"
                 id="tspan3794">)</tspan>
            </text>
            <text
               transform="matrix(1,0,0,-1,208.2832,145.6621)"
               id="text3796">
              <tspan
                 style="font-size:19.70949936px;font-variant:normal;font-weight:normal;writing-mode:lr-tb;fill:#231f20;fill-opacity:1;fill-rule:nonzero;stroke:none;font-family:CMR10;-inkscape-font-specification:CMR10"
                 x="0"
                 y="0"
                 id="tspan3798">2</tspan>
            </text>
            <text
               transform="matrix(1,0,0,-1,218.1348,153.7988)"
               id="text3800">
              <tspan
                 style="font-size:14.39960003px;font-variant:normal;font-weight:normal;writing-mode:lr-tb;fill:#231f20;fill-opacity:1;fill-rule:nonzero;stroke:none;font-family:CMMI8;-inkscape-font-specification:CMMI8"
                 x="0 9.2877417"
                 y="0"
                 sodipodi:role="line"
                 id="tspan3802">nH</tspan>
            </text>
            <text
               transform="matrix(1,0,0,-1,241.10216,153.7988)"
               id="text3804">
              <tspan
                 style="font-size:14.39960003px;font-variant:normal;font-weight:normal;writing-mode:lr-tb;fill:#231f20;fill-opacity:1;fill-rule:nonzero;stroke:none;font-family:CMR8;-inkscape-font-specification:CMR8"
                 x="0"
                 y="0"
                 id="tspan3806">(</tspan>
            </text>
            <text
               transform="matrix(1,0,0,-1,247.0492,153.7988)"
               id="text3808">
              <tspan
                 style="font-size:14.39960003px;font-variant:normal;font-weight:normal;writing-mode:lr-tb;fill:#231f20;fill-opacity:1;fill-rule:nonzero;stroke:none;font-family:CMMI8;-inkscape-font-specification:CMMI8"
                 x="0"
                 y="0"
                 id="tspan3810">Y</tspan>
            </text>
            <text
               transform="matrix(1,0,0,-1,259.31766,153.7988)"
               id="text3812">
              <tspan
                 style="font-size:14.39960003px;font-variant:normal;font-weight:normal;writing-mode:lr-tb;fill:#231f20;fill-opacity:1;fill-rule:nonzero;stroke:none;font-family:CMSY8;-inkscape-font-specification:CMSY8"
                 x="0"
                 y="0"
                 id="tspan3814">|</tspan>
            </text>
            <text
               transform="matrix(1,0,0,-1,263.56554,153.7988)"
               id="text3816">
              <tspan
                 style="font-size:14.39960003px;font-variant:normal;font-weight:normal;writing-mode:lr-tb;fill:#231f20;fill-opacity:1;fill-rule:nonzero;stroke:none;font-family:CMMI8;-inkscape-font-specification:CMMI8"
                 x="0"
                 y="0"
                 id="tspan3818">X</tspan>
            </text>
            <text
               transform="matrix(1,0,0,-1,277.27396,153.7988)"
               id="text3820">
              <tspan
                 style="font-size:14.39960003px;font-variant:normal;font-weight:normal;writing-mode:lr-tb;fill:#231f20;fill-opacity:1;fill-rule:nonzero;stroke:none;font-family:CMR8;-inkscape-font-specification:CMR8"
                 x="0"
                 y="0"
                 id="tspan3822">)</tspan>
            </text>
            <g
               id="g3824">
              <g
                 id="g3826"
                 clip-path="url(#clipPath3828)">
                <g
                   id="g3832"
                   transform="translate(15.2822,153.75)">
                  <path
                     inkscape:connector-curvature="0"
                     d="m 0,0 -3.017,-49.228 c -0.012,-0.205 -0.188,-0.361 -0.393,-0.348 -0.202,0.013 -0.357,0.183 -0.35,0.385 l 1.762,49.289 c 0.019,0.551 0.483,0.983 1.035,0.963 C -0.411,1.041 0.021,0.578 0.001,0.025 0.001,0.019 0,0.007 0,0"
                     style="fill:#211d1d;fill-opacity:1;fill-rule:nonzero;stroke:none"
                     id="path3834" />
                </g>
                <g
                   id="g3836"
                   transform="translate(11.7832,102.25)">
                  <path
                     inkscape:connector-curvature="0"
                     d="M 0,0 C -0.348,1.098 -0.965,2.468 -1.647,3.332 L 0.126,2.592 1.962,3.156 C 1.199,2.363 0.452,1.059 0,0"
                     style="fill:#211d1d;fill-opacity:1;fill-rule:nonzero;stroke:none"
                     id="path3838" />
                </g>
                <g
                   id="g3840"
                   transform="translate(63.4902,169.957)">
                  <path
                     inkscape:connector-curvature="0"
                     d="m 0,0 27.43,-14.766 c 0.188,-0.101 0.259,-0.337 0.158,-0.525 -0.1,-0.185 -0.326,-0.256 -0.513,-0.165 L -0.914,-1.779 c -0.496,0.242 -0.701,0.841 -0.459,1.338 0.242,0.496 0.842,0.702 1.338,0.459 C -0.024,0.013 -0.011,0.006 0,0"
                     style="fill:#211d1d;fill-opacity:1;fill-rule:nonzero;stroke:none"
                     id="path3842" />
                </g>
                <g
                   id="g3844"
                   transform="translate(92.7832,153.7988)">
                  <path
                     inkscape:connector-curvature="0"
                     d="m 0,0 c -1.143,0.137 -2.646,0.14 -3.715,-0.125 l 1.407,1.31 0.244,1.906 C -1.656,2.067 -0.777,0.849 0,0"
                     style="fill:#211d1d;fill-opacity:1;fill-rule:nonzero;stroke:none"
                     id="path3846" />
                </g>
                <g
                   id="g3848"
                   transform="translate(35.6162,158.3516)">
                  <path
                     inkscape:connector-curvature="0"
                     d="m 0,0 15.475,-24.426 c 0.116,-0.182 0.061,-0.424 -0.121,-0.539 -0.177,-0.113 -0.412,-0.064 -0.531,0.108 L -1.666,-1.105 c -0.315,0.453 -0.203,1.077 0.251,1.391 0.454,0.316 1.077,0.203 1.392,-0.251 C -0.016,0.024 -0.007,0.011 0,0"
                     style="fill:#211d1d;fill-opacity:1;fill-rule:nonzero;stroke:none"
                     id="path3850" />
                </g>
                <g
                   id="g3852"
                   transform="translate(52.0332,131.7988)">
                  <path
                     inkscape:connector-curvature="0"
                     d="m 0,0 c -0.931,0.678 -2.24,1.416 -3.302,1.707 l 1.867,0.455 1.145,1.543 C -0.435,2.613 -0.264,1.12 0,0"
                     style="fill:#211d1d;fill-opacity:1;fill-rule:nonzero;stroke:none"
                     id="path3854" />
                </g>
                <g
                   id="g3856"
                   transform="translate(202.4971,144.9619)">
                  <path
                     inkscape:connector-curvature="0"
                     d="m 0,0 -20.828,-20.349 c -0.154,-0.151 -0.402,-0.148 -0.553,0.006 -0.147,0.151 -0.147,0.39 -0.005,0.541 L -1.428,1.4 c 0.379,0.403 1.012,0.422 1.414,0.043 C 0.389,1.064 0.407,0.432 0.029,0.029 L 0,0 z"
                     style="fill:#211d1d;fill-opacity:1;fill-rule:nonzero;stroke:none"
                     id="path3858" />
                </g>
                <g
                   id="g3860"
                   transform="translate(179.7832,123.25)">
                  <path
                     inkscape:connector-curvature="0"
                     d="M 0,0 C 0.471,1.051 0.921,2.484 0.985,3.584 L 1.817,1.852 3.564,1.052 C 2.467,0.967 1.041,0.49 0,0"
                     style="fill:#211d1d;fill-opacity:1;fill-rule:nonzero;stroke:none"
                     id="path3862" />
                </g>
                <g
                   id="g3864"
                   transform="translate(205.0518,142.7412)">
                  <path
                     inkscape:connector-curvature="0"
                     d="m 0,0 -17.416,-24.806 c -0.123,-0.175 -0.366,-0.217 -0.542,-0.094 -0.172,0.12 -0.216,0.354 -0.104,0.529 L -1.66,1.115 c 0.299,0.465 0.918,0.599 1.383,0.3 C 0.187,1.116 0.321,0.497 0.022,0.033 0.016,0.022 0.007,0.01 0,0"
                     style="fill:#211d1d;fill-opacity:1;fill-rule:nonzero;stroke:none"
                     id="path3866" />
                </g>
                <g
                   id="g3868"
                   transform="translate(186.0332,116.25)">
                  <path
                     inkscape:connector-curvature="0"
                     d="M 0,0 C 0.27,1.119 0.45,2.611 0.313,3.704 L 1.447,2.152 3.312,1.688 C 2.248,1.402 0.935,0.672 0,0"
                     style="fill:#211d1d;fill-opacity:1;fill-rule:nonzero;stroke:none"
                     id="path3870" />
                </g>
                <g
                   id="g3872"
                   transform="translate(207.7041,141.6094)">
                  <path
                     inkscape:connector-curvature="0"
                     d="m 0,0 -11.32,-25.151 c -0.089,-0.199 -0.323,-0.287 -0.52,-0.198 -0.193,0.087 -0.281,0.31 -0.204,0.504 L -1.842,0.781 c 0.204,0.513 0.786,0.764 1.3,0.559 C -0.029,1.136 0.222,0.554 0.017,0.041 0.012,0.028 0.005,0.013 0,0"
                     style="fill:#211d1d;fill-opacity:1;fill-rule:nonzero;stroke:none"
                     id="path3874" />
                </g>
                <g
                   id="g3876"
                   transform="translate(195.127,114.5)">
                  <path
                     inkscape:connector-curvature="0"
                     d="M 0,0 C 0.053,1.149 -0.054,2.649 -0.396,3.695 L 1.013,2.389 2.931,2.285 C 1.941,1.804 0.789,0.838 0,0"
                     style="fill:#211d1d;fill-opacity:1;fill-rule:nonzero;stroke:none"
                     id="path3878" />
                </g>
              </g>
            </g>
          </g>
        </g>
      </g>
    </g>
  </g>
</svg>
