<?xml version="1.0" encoding="UTF-8" standalone="no"?>
<svg xmlns="http://www.w3.org/2000/svg"
     xmlns:xlink="http://www.w3.org/1999/xlink"
     width="576px" height="432px" viewBox="0 0 576 432">
<title>glps_renderer figure</title>
<desc>
Creator: GL2PS 1.3.8, (C) 1999-2012 C. Geuzaine
For: Octave
CreationDate: Mon Mar 14 20:29:28 2016
</desc>
<defs>
</defs>
<g shape-rendering="crispEdges">
<polygon fill="#ffffff" points="72.8,373.8 506.8,373.8 72.8,31.5"/>
<polygon fill="#ffffff" points="506.8,373.8 506.8,31.5 72.8,31.5"/>
<polyline fill="none" stroke="#000000" stroke-width="0.5" stroke-dasharray="16,0" points="72.8,373.8 506.8,373.8"/>
<polyline fill="none" stroke="#000000" stroke-width="0.5" stroke-dasharray="16,0" points="72.8,373.8 72.8,31.5"/>
<polyline fill="none" stroke="#000000" stroke-width="0.5" stroke-dasharray="16,0" points="72.8,373.8 72.8,369.456"/>
<polyline fill="none" stroke="#000000" stroke-width="0.5" stroke-dasharray="16,0" points="181.3,373.8 181.3,369.456"/>
<polyline fill="none" stroke="#000000" stroke-width="0.5" stroke-dasharray="16,0" points="289.8,373.8 289.8,369.456"/>
<polyline fill="none" stroke="#000000" stroke-width="0.5" stroke-dasharray="16,0" points="398.3,373.8 398.3,369.456"/>
<polyline fill="none" stroke="#000000" stroke-width="0.5" stroke-dasharray="16,0" points="506.8,373.8 506.8,369.456"/>
<text fill="#000000" x="72.8" y="378.804" font-size="10" text-anchor="middle" baseline-shift="-10" font-family="Helvetica">0</text>
<text fill="#000000" x="181.3" y="378.804" font-size="10" text-anchor="middle" baseline-shift="-10" font-family="Helvetica">0.05</text>
<text fill="#000000" x="289.8" y="378.804" font-size="10" text-anchor="middle" baseline-shift="-10" font-family="Helvetica">0.1</text>
<text fill="#000000" x="398.3" y="378.804" font-size="10" text-anchor="middle" baseline-shift="-10" font-family="Helvetica">0.15</text>
<text fill="#000000" x="506.8" y="378.804" font-size="10" text-anchor="middle" baseline-shift="-10" font-family="Helvetica">0.2</text>
<polyline fill="none" stroke="#000000" stroke-width="0.5" stroke-dasharray="16,0" points="72.8,373.8 77.14,373.8"/>
<polyline fill="none" stroke="#000000" stroke-width="0.5" stroke-dasharray="16,0" points="72.8,324.9 77.14,324.9"/>
<polyline fill="none" stroke="#000000" stroke-width="0.5" stroke-dasharray="16,0" points="72.8,276 77.14,276"/>
<polyline fill="none" stroke="#000000" stroke-width="0.5" stroke-dasharray="16,0" points="72.8,227.1 77.14,227.1"/>
<polyline fill="none" stroke="#000000" stroke-width="0.5" stroke-dasharray="16,0" points="72.8,178.2 77.14,178.2"/>
<polyline fill="none" stroke="#000000" stroke-width="0.5" stroke-dasharray="16,0" points="72.8,129.3 77.14,129.3"/>
<polyline fill="none" stroke="#000000" stroke-width="0.5" stroke-dasharray="16,0" points="72.8,80.4 77.14,80.4"/>
<polyline fill="none" stroke="#000000" stroke-width="0.5" stroke-dasharray="16,0" points="72.8,31.5 77.14,31.5"/>
<text fill="#000000" x="67.8" y="373.8" font-size="10" text-anchor="end" baseline-shift="-5" font-family="Helvetica">0.2</text>
<text fill="#000000" x="67.8" y="324.9" font-size="10" text-anchor="end" baseline-shift="-5" font-family="Helvetica">0.4</text>
<text fill="#000000" x="67.8" y="276" font-size="10" text-anchor="end" baseline-shift="-5" font-family="Helvetica">0.6</text>
<text fill="#000000" x="67.8" y="227.1" font-size="10" text-anchor="end" baseline-shift="-5" font-family="Helvetica">0.8</text>
<text fill="#000000" x="67.8" y="178.2" font-size="10" text-anchor="end" baseline-shift="-5" font-family="Helvetica">1</text>
<text fill="#000000" x="67.8" y="129.3" font-size="10" text-anchor="end" baseline-shift="-5" font-family="Helvetica">1.2</text>
<text fill="#000000" x="67.8" y="80.4" font-size="10" text-anchor="end" baseline-shift="-5" font-family="Helvetica">1.4</text>
<text fill="#000000" x="67.8" y="31.5" font-size="10" text-anchor="end" baseline-shift="-5" font-family="Helvetica">1.6</text>
<text fill="#000000" x="289.8" y="391.804" font-size="10" text-anchor="middle" baseline-shift="-10" font-family="Helvetica">p3</text>
<text fill="#000000" x="48.8" y="202.65" font-size="10" transform="rotate(-90, 48.8, 202.65)" text-anchor="middle" baseline-shift="0" font-family="Helvetica">H</text>
<polyline fill="none" stroke="#0000ff" stroke-width="0.5" points="94.5,343.85 116.2,290.379 137.9,247.117 159.6,210.886 181.3,180.215 203,154.271 224.7,132.541 246.4,114.698 268.1,100.536 289.8,89.9443 311.5,82.8854 333.2,79.3957 354.9,79.588 376.6,83.6664 398.3,91.9589 420,104.979 441.7,123.559 463.4,149.17 485.1,184.99"/>
<polyline fill="none" stroke="#000000" stroke-width="0.5" stroke-dasharray="0,4,4,4,4,0" points="72.8,79.0167 342.993,79.0167"/>
<polyline fill="none" stroke="#000000" stroke-width="0.5" stroke-dasharray="0,4,4,4,4,0" points="342.993,373.8 342.993,79.0167"/>
</g>
</svg>
