<?xml version="1.0" encoding="UTF-8" standalone="no"?>
<!-- Created with Inkscape (http://www.inkscape.org/) -->

<svg
   xmlns:dc="http://purl.org/dc/elements/1.1/"
   xmlns:cc="http://creativecommons.org/ns#"
   xmlns:rdf="http://www.w3.org/1999/02/22-rdf-syntax-ns#"
   xmlns:svg="http://www.w3.org/2000/svg"
   xmlns="http://www.w3.org/2000/svg"
   xmlns:sodipodi="http://sodipodi.sourceforge.net/DTD/sodipodi-0.dtd"
   xmlns:inkscape="http://www.inkscape.org/namespaces/inkscape"
   id="svg4155"
   version="1.1"
   inkscape:version="0.91 r13725"
   xml:space="preserve"
   width="283.4751"
   height="244.08484"
   viewBox="0 0 283.4751 244.08484"
   sodipodi:docname="pchannel.svg"><metadata
     id="metadata4161"><rdf:RDF><cc:Work
         rdf:about=""><dc:format>image/svg+xml</dc:format><dc:type
           rdf:resource="http://purl.org/dc/dcmitype/StillImage" /><dc:title /></cc:Work></rdf:RDF></metadata><defs
     id="defs4159"><clipPath
       clipPathUnits="userSpaceOnUse"
       id="clipPath4615"><path
         d="M 0,0 421,0 421,386 0,386 0,0 Z"
         id="path4617"
         inkscape:connector-curvature="0" /></clipPath></defs><sodipodi:namedview
     pagecolor="#ffffff"
     bordercolor="#666666"
     borderopacity="1"
     objecttolerance="10"
     gridtolerance="10"
     guidetolerance="10"
     inkscape:pageopacity="0"
     inkscape:pageshadow="2"
     inkscape:window-width="1364"
     inkscape:window-height="726"
     id="namedview4157"
     showgrid="false"
     fit-margin-top="0"
     fit-margin-left="0"
     fit-margin-right="0"
     fit-margin-bottom="0"
     inkscape:zoom="0.57070707"
     inkscape:cx="190.51785"
     inkscape:cy="77.508272"
     inkscape:window-x="0"
     inkscape:window-y="20"
     inkscape:window-maximized="1"
     inkscape:current-layer="g4163" /><g
     id="g4163"
     inkscape:groupmode="layer"
     inkscape:label="midterm2_2009_solutions"
     transform="matrix(1.25,0,0,-1.25,-191.98215,951.12893)"><text
       transform="matrix(1,0,0,-1,291.565,678.431)"
       style="font-variant:normal;font-weight:normal;font-size:9.96259975px;font-family:CMMI10;-inkscape-font-specification:CMMI10;writing-mode:lr-tb;fill:#000000;fill-opacity:1;fill-rule:nonzero;stroke:none"
       id="text4301"><tspan
         x="0 22.584217"
         y="0"
         sodipodi:role="line"
         id="tspan4303" /></text>
<text
       transform="matrix(1,0,0,-1,282.986,666.476)"
       style="font-variant:normal;font-weight:normal;font-size:9.96259975px;font-family:CMMI10;-inkscape-font-specification:CMMI10;writing-mode:lr-tb;fill:#000000;fill-opacity:1;fill-rule:nonzero;stroke:none"
       id="text4309"><tspan
         x="0"
         y="0"
         id="tspan4311" /></text>
<text
       transform="matrix(1,0,0,-1,322.73,666.476)"
       style="font-variant:normal;font-weight:normal;font-size:9.96259975px;font-family:CMMI10;-inkscape-font-specification:CMMI10;writing-mode:lr-tb;fill:#000000;fill-opacity:1;fill-rule:nonzero;stroke:none"
       id="text4321"><tspan
         x="0"
         y="0"
         id="tspan4323" /></text>
<text
       transform="matrix(1,0,0,-1,227.69,600.186)"
       style="font-variant:normal;font-weight:normal;font-size:9.96259975px;font-family:CMEX10;-inkscape-font-specification:CMEX10;writing-mode:lr-tb;fill:#000000;fill-opacity:1;fill-rule:nonzero;stroke:none"
       id="text4407"><tspan
         x="0"
         y="0"
         id="tspan4409" /></text>
<text
       transform="matrix(1,0,0,-1,255.087,592.215)"
       style="font-variant:normal;font-weight:normal;font-size:9.96259975px;font-family:CMMI10;-inkscape-font-specification:CMMI10;writing-mode:lr-tb;fill:#000000;fill-opacity:1;fill-rule:nonzero;stroke:none"
       id="text4419"><tspan
         x="0 22.584217"
         y="0"
         sodipodi:role="line"
         id="tspan4421" /><tspan
         x="-8.5790005"
         y="11.955"
         id="tspan4423" /></text>
<text
       transform="matrix(1,0,0,-1,286.252,580.26)"
       style="font-variant:normal;font-weight:normal;font-size:9.96259975px;font-family:CMMI10;-inkscape-font-specification:CMMI10;writing-mode:lr-tb;fill:#000000;fill-opacity:1;fill-rule:nonzero;stroke:none"
       id="text4433"><tspan
         x="0"
         y="0"
         id="tspan4435" /></text>
<text
       transform="matrix(1,0,0,-1,295.277,600.186)"
       style="font-variant:normal;font-weight:normal;font-size:9.96259975px;font-family:CMEX10;-inkscape-font-specification:CMEX10;writing-mode:lr-tb;fill:#000000;fill-opacity:1;fill-rule:nonzero;stroke:none"
       id="text4437"><tspan
         x="0"
         y="0"
         id="tspan4439" /></text>
<text
       transform="matrix(1,0,0,-1,367.444,600.186)"
       style="font-variant:normal;font-weight:normal;font-size:9.96259975px;font-family:CMEX10;-inkscape-font-specification:CMEX10;writing-mode:lr-tb;fill:#000000;fill-opacity:1;fill-rule:nonzero;stroke:none"
       id="text4469"><tspan
         x="0"
         y="0"
         id="tspan4471" /></text>
<text
       transform="matrix(1,0,0,-1,436.553,600.186)"
       style="font-variant:normal;font-weight:normal;font-size:9.96259975px;font-family:CMEX10;-inkscape-font-specification:CMEX10;writing-mode:lr-tb;fill:#000000;fill-opacity:1;fill-rule:nonzero;stroke:none"
       id="text4499"><tspan
         x="0"
         y="0"
         id="tspan4501" /></text>
<g
       id="g4611"
       transform="matrix(0.53867,0,0,0.53867,153.58572,565.63527)"><g
         clip-path="url(#clipPath4615)"
         id="g4613"><g
           id="g4619" /><g
           id="g4621"><path
             inkscape:connector-curvature="0"
             id="path4625"
             style="fill:#42a5d7;fill-opacity:1;fill-rule:nonzero;stroke:none"
             d="m 337.094,240.4366 c 6.038,-13.6346 -0.1203,-29.5822 -13.755,-35.6201 -13.6346,-6.038 -29.5823,0.1203 -35.6202,13.755 -6.0379,13.6346 0.1204,29.5823 13.755,35.6202 13.6347,6.0379 29.5823,-0.1204 35.6202,-13.7551" /><g
             transform="matrix(1,0,0,-1,-20.5,361.5)"
             id="g4627"><path
               inkscape:connector-curvature="0"
               id="path4629"
               style="fill:none;stroke:#000000;stroke-width:4;stroke-linecap:butt;stroke-linejoin:miter;stroke-miterlimit:10;stroke-dasharray:none;stroke-opacity:1"
               d="m 357.594,121.0634 c 6.038,13.6346 -0.1203,29.5822 -13.755,35.6201 -13.6346,6.038 -29.5823,-0.1203 -35.6202,-13.755 -6.0379,-13.6346 0.1204,-29.5823 13.755,-35.6202 13.6347,-6.0379 29.5823,0.1204 35.6202,13.7551" /></g><path
             inkscape:connector-curvature="0"
             id="path4631"
             style="fill:#acb6b9;fill-opacity:1;fill-rule:nonzero;stroke:none"
             d="m 145.094,337.519 c 6.038,-13.6346 -0.1203,-29.5823 -13.755,-35.6201 -13.6346,-6.038 -29.5823,0.1203 -35.62014,13.755 -6.03795,13.6346 0.12037,29.5822 13.75504,35.6201 13.6346,6.038 29.5823,-0.1203 35.6201,-13.755" /><g
             transform="matrix(1,0,0,-1,-20.5,361.5)"
             id="g4633">path
               inkscape:connector-curvature=&quot;0&quot;
               id=&quot;path4635&quot;
               style=&quot;fill:none;stroke:#000000;stroke-width:4;stroke-linecap:butt;stroke-linejoin:miter;stroke-miterlimit:10;stroke-dasharray:none;stroke-opacity:1&quot;
               d=&quot;m 165.594,23.98096 c 6.038,13.63461 -0.1203,29.5823 -13.755,35.62018 -13.6346,6.03796 -29.5823,-0.12037 -35.6201,-13.75501 -6.038,-13.63458 0.1203,-29.58228 13.755,-35.62015 13.6346,-6.037961 29.5823,0.12036 35.6201,13.75498&quot; /&gt;</g><path
             inkscape:connector-curvature="0"
             id="path4637"
             style="fill:#acb6b9;fill-opacity:1;fill-rule:nonzero;stroke:none"
             d="m 337.094,337.519 c 6.038,-13.6346 -0.1203,-29.5823 -13.755,-35.6201 -13.6346,-6.038 -29.5823,0.1203 -35.6202,13.755 -6.0379,13.6346 0.1204,29.5822 13.755,35.6201 13.6347,6.038 29.5823,-0.1203 35.6202,-13.755" /><g
             transform="matrix(1,0,0,-1,-20.5,361.5)"
             id="g4639"><path
               inkscape:connector-curvature="0"
               id="path4641"
               style="fill:none;stroke:#000000;stroke-width:4;stroke-linecap:butt;stroke-linejoin:miter;stroke-miterlimit:10;stroke-dasharray:none;stroke-opacity:1"
               d="m 357.594,23.98096 c 6.038,13.63461 -0.1203,29.5823 -13.755,35.62018 -13.6346,6.03796 -29.5823,-0.12037 -35.6202,-13.75501 -6.0379,-13.63458 0.1204,-29.58228 13.755,-35.62015 13.6347,-6.037961 29.5823,0.12036 35.6202,13.75498" /></g><g
             transform="matrix(1,0,0,-1,-20.5,361.5)"
             id="g4643"><path
               inkscape:connector-curvature="0"
               id="path4645"
               style="fill:none;stroke:#000000;stroke-width:4;stroke-linecap:round;stroke-linejoin:round;stroke-miterlimit:10;stroke-dasharray:none;stroke-opacity:1"
               d="m 169.9132,34.91357 126.6065,0" /></g><path
             inkscape:connector-curvature="0"
             id="path4647"
             style="fill:#000000;fill-opacity:1;fill-rule:nonzero;stroke:none"
             d="m 277.2997,326.5864 -1.28,0.48 0,-0.96 1.28,0.48 z" /><g
             transform="matrix(1,0,0,-1,-20.5,361.5)"
             id="g4649"><path
               inkscape:connector-curvature="0"
               id="path4651"
               style="fill:none;stroke:#000000;stroke-width:4;stroke-linecap:butt;stroke-linejoin:miter;stroke-miterlimit:10;stroke-dasharray:none;stroke-opacity:1"
               d="m 297.7997,34.91357 -1.28,-0.48001 0,0.95999 1.28,-0.47998 z" /></g><g
             transform="matrix(1,0,0,-1,-20.5,361.5)"
             id="g4653"><path
               inkscape:connector-curvature="0"
               id="path4655"
               style="fill:none;stroke:#000000;stroke-width:4;stroke-linecap:round;stroke-linejoin:round;stroke-miterlimit:10;stroke-dasharray:8, 8;stroke-dashoffset:0;stroke-opacity:1"
               d="M 166.7869,47.99969 300.44,115.5797" /></g><path
             inkscape:connector-curvature="0"
             id="path4657"
             style="fill:#000000;fill-opacity:1;fill-rule:nonzero;stroke:none"
             d="m 281.0823,245.3427 -0.9257,1.006 -0.4332,-0.8568 1.3589,-0.1492 z" /><g
             transform="matrix(1,0,0,-1,-20.5,361.5)"
             id="g4659"><path
               inkscape:connector-curvature="0"
               id="path4661"
               style="fill:none;stroke:#000000;stroke-width:4;stroke-linecap:butt;stroke-linejoin:miter;stroke-miterlimit:10;stroke-dasharray:none;stroke-opacity:1"
               d="m 301.5823,116.1573 -0.9257,-1.006 -0.4332,0.8568 1.3589,0.1492 z" /></g><path
             inkscape:connector-curvature="0"
             id="path4663"
             style="fill:#42a5d7;fill-opacity:1;fill-rule:nonzero;stroke:none"
             d="m 145.094,240.4366 c 6.038,-13.6346 -0.1203,-29.5822 -13.755,-35.6201 -13.6346,-6.038 -29.5823,0.1203 -35.62014,13.755 -6.03795,13.6346 0.12037,29.5823 13.75504,35.6202 13.6346,6.0379 29.5823,-0.1204 35.6201,-13.7551" /><g
             transform="matrix(1,0,0,-1,-20.5,361.5)"
             id="g4665"><path
               inkscape:connector-curvature="0"
               id="path4667"
               style="fill:none;stroke:#000000;stroke-width:4;stroke-linecap:butt;stroke-linejoin:miter;stroke-miterlimit:10;stroke-dasharray:none;stroke-opacity:1"
               d="m 165.594,121.0634 c 6.038,13.6346 -0.1203,29.5822 -13.755,35.6201 -13.6346,6.038 -29.5823,-0.1203 -35.6201,-13.755 -6.038,-13.6346 0.1203,-29.5823 13.755,-35.6202 13.6346,-6.0379 29.5823,0.1204 35.6201,13.7551" /></g><g
             transform="matrix(1,0,0,-1,-20.5,361.5)"
             id="g4669"><path
               inkscape:connector-curvature="0"
               id="path4671"
               style="fill:none;stroke:#000000;stroke-width:4;stroke-linecap:round;stroke-linejoin:round;stroke-miterlimit:10;stroke-dasharray:8, 8;stroke-dashoffset:0;stroke-opacity:1"
               d="M 166.7868,118.9099 300.4401,51.32971" /></g><path
             inkscape:connector-curvature="0"
             id="path4673"
             style="fill:#000000;fill-opacity:1;fill-rule:nonzero;stroke:none"
             d="m 281.0824,310.7479 -1.3589,-0.1493 0.4332,-0.8567 0.9257,1.006 z" /><g
             transform="matrix(1,0,0,-1,-20.5,361.5)"
             id="g4675"><path
               inkscape:connector-curvature="0"
               id="path4677"
               style="fill:none;stroke:#000000;stroke-width:4;stroke-linecap:butt;stroke-linejoin:miter;stroke-miterlimit:10;stroke-dasharray:none;stroke-opacity:1"
               d="m 301.5824,50.75214 -1.3589,0.14923 0.4332,0.85672 0.9257,-1.00595 z" /></g><g
             transform="matrix(1,0,0,-1,-20.5,361.5)"
             id="g4679"><path
               inkscape:connector-curvature="0"
               id="path4681"
               style="fill:none;stroke:#000000;stroke-width:4;stroke-linecap:round;stroke-linejoin:round;stroke-miterlimit:10;stroke-dasharray:none;stroke-opacity:1"
               d="m 169.9132,131.9959 126.6065,0" /></g><path
             inkscape:connector-curvature="0"
             id="path4683"
             style="fill:#000000;fill-opacity:1;fill-rule:nonzero;stroke:none"
             d="m 277.2997,229.5041 -1.28,0.48 0,-0.96 1.28,0.48 z" /><g
             transform="matrix(1,0,0,-1,-20.5,361.5)"
             id="g4685"><path
               inkscape:connector-curvature="0"
               id="path4687"
               style="fill:none;stroke:#000000;stroke-width:4;stroke-linecap:butt;stroke-linejoin:miter;stroke-miterlimit:10;stroke-dasharray:none;stroke-opacity:1"
               d="m 297.7997,131.9959 -1.28,-0.48 0,0.96 1.28,-0.48 z" /></g><g
             transform="matrix(1,0,0,-1,399.5,195.5)"
             id="g4689"><text
               id="text4691"
               style="font-variant:normal;font-weight:normal;font-size:36px;font-family:Helvetica;-inkscape-font-specification:Helvetica;writing-mode:lr-tb;fill:#000000;fill-opacity:1;fill-rule:nonzero;stroke:none"
               transform="translate(-12.00586,13.5)"><tspan
                 id="tspan4693"
                 y="0"
                 x="0">Y</tspan></text>
</g><g
             transform="matrix(1,0,0,-1,311.9064,331.0445)"
             id="g4695"><text
               id="text4697"
               style="font-variant:normal;font-weight:normal;font-size:36px;font-family:Helvetica;-inkscape-font-specification:Helvetica;writing-mode:lr-tb;fill:#000000;fill-opacity:1;fill-rule:nonzero;stroke:none"
               transform="translate(-12.00586,13.5)"><tspan
                 id="tspan4699"
                 y="0"
                 x="0">A</tspan></text>
</g><g
             transform="matrix(1,0,0,-1,311.9064,230.5041)"
             id="g4701"><text
               id="text4703"
               style="font-variant:normal;font-weight:normal;font-size:36px;font-family:Helvetica;-inkscape-font-specification:Helvetica;writing-mode:lr-tb;fill:#000000;fill-opacity:1;fill-rule:nonzero;stroke:none"
               transform="translate(-12.00586,13.5)"><tspan
                 id="tspan4705"
                 y="0"
                 x="0">B</tspan></text>
</g><path
             inkscape:connector-curvature="0"
             id="path4707"
             style="fill:#ffffff;fill-opacity:1;fill-rule:nonzero;stroke:none"
             d="m 168.2264,281.0695 21,0 0,43 -21,0 0,-43 z" /><g
             transform="matrix(1,0,0,-1,178.7264,302.5695)"
             id="g4709"><text
               id="text4711"
               style="font-variant:normal;font-weight:normal;font-size:36px;font-family:Helvetica;-inkscape-font-specification:Helvetica;writing-mode:lr-tb;fill:#000000;fill-opacity:1;fill-rule:nonzero;stroke:none"
               transform="translate(-10.01074,13.5)"><tspan
                 id="tspan4713"
                 y="0"
                 x="0">ε</tspan></text>
</g><path
             inkscape:connector-curvature="0"
             id="path4715"
             style="fill:#ffffff;fill-opacity:1;fill-rule:nonzero;stroke:none"
             d="m 171.0164,239.5345 21,0 0,43 -21,0 0,-43 z" /><g
             transform="matrix(1,0,0,-1,181.5164,261.0345)"
             id="g4717"><text
               id="text4719"
               style="font-variant:normal;font-weight:normal;font-size:36px;font-family:Helvetica;-inkscape-font-specification:Helvetica;writing-mode:lr-tb;fill:#000000;fill-opacity:1;fill-rule:nonzero;stroke:none"
               transform="translate(-10.01074,13.5)"><tspan
                 id="tspan4721"
                 y="0"
                 x="0">ε</tspan></text>
</g><path
             inkscape:connector-curvature="0"
             id="path4723"
             style="fill:#eee900;fill-opacity:1;fill-rule:nonzero;stroke:none"
             d="m 337.0941,69.44064 c 6.0379,-13.63461 -0.1204,-29.58227 -13.755,-35.62017 -13.6347,-6.03794 -29.5823,0.12036 -35.6202,13.755 -6.038,13.63461 0.1203,29.58228 13.755,35.62018 13.6346,6.03793 29.5823,-0.12036 35.6202,-13.75501" /><g
             transform="matrix(1,0,0,-1,-20.5,361.5)"
             id="g4725"><path
               inkscape:connector-curvature="0"
               id="path4727"
               style="fill:none;stroke:#000000;stroke-width:4;stroke-linecap:butt;stroke-linejoin:miter;stroke-miterlimit:10;stroke-dasharray:none;stroke-opacity:1"
               d="m 357.5941,292.0594 c 6.0379,13.6346 -0.1204,29.5822 -13.755,35.6201 -13.6347,6.038 -29.5823,-0.1203 -35.6202,-13.755 -6.038,-13.6346 0.1203,-29.5822 13.755,-35.6201 13.6346,-6.038 29.5823,0.1203 35.6202,13.755" /></g><path
             inkscape:connector-curvature="0"
             id="path4729"
             style="fill:#00b503;fill-opacity:1;fill-rule:nonzero;stroke:none"
             d="m 145.094,166.5231 c 6.038,-13.6346 -0.1203,-29.5823 -13.755,-35.6202 -13.6346,-6.0379 -29.5823,0.1204 -35.62014,13.755 -6.03795,13.6346 0.12037,29.5823 13.75504,35.6202 13.6346,6.0379 29.5823,-0.1204 35.6201,-13.755" /><g
             transform="matrix(1,0,0,-1,-20.5,361.5)"
             id="g4731"><path
               inkscape:connector-curvature="0"
               id="path4733"
               style="fill:none;stroke:#000000;stroke-width:4;stroke-linecap:butt;stroke-linejoin:miter;stroke-miterlimit:10;stroke-dasharray:none;stroke-opacity:1"
               d="m 165.594,194.9769 c 6.038,13.6346 -0.1203,29.5823 -13.755,35.6202 -13.6346,6.0379 -29.5823,-0.1204 -35.6201,-13.755 -6.038,-13.6346 0.1203,-29.5823 13.755,-35.6202 13.6346,-6.0379 29.5823,0.1204 35.6201,13.755" /></g><path
             inkscape:connector-curvature="0"
             id="path4735"
             style="fill:#00b503;fill-opacity:1;fill-rule:nonzero;stroke:none"
             d="m 337.0941,166.5231 c 6.0379,-13.6346 -0.1204,-29.5823 -13.755,-35.6202 -13.6347,-6.0379 -29.5823,0.1204 -35.6202,13.755 -6.038,13.6346 0.1203,29.5823 13.755,35.6202 13.6346,6.0379 29.5823,-0.1204 35.6202,-13.755" /><g
             transform="matrix(1,0,0,-1,-20.5,361.5)"
             id="g4737"><path
               inkscape:connector-curvature="0"
               id="path4739"
               style="fill:none;stroke:#000000;stroke-width:4;stroke-linecap:butt;stroke-linejoin:miter;stroke-miterlimit:10;stroke-dasharray:none;stroke-opacity:1"
               d="m 357.5941,194.9769 c 6.0379,13.6346 -0.1204,29.5823 -13.755,35.6202 -13.6347,6.0379 -29.5823,-0.1204 -35.6202,-13.755 -6.038,-13.6346 0.1203,-29.5823 13.755,-35.6202 13.6346,-6.0379 29.5823,0.1204 35.6202,13.755" /></g><g
             transform="matrix(1,0,0,-1,-20.5,361.5)"
             id="g4741"><path
               inkscape:connector-curvature="0"
               id="path4743"
               style="fill:none;stroke:#000000;stroke-width:4;stroke-linecap:round;stroke-linejoin:round;stroke-miterlimit:10;stroke-dasharray:none;stroke-opacity:1"
               d="m 169.9132,205.9095 126.6065,0" /></g><path
             inkscape:connector-curvature="0"
             id="path4745"
             style="fill:#000000;fill-opacity:1;fill-rule:nonzero;stroke:none"
             d="m 277.2997,155.5905 -1.28,0.48 0,-0.96 1.28,0.48 z" /><g
             transform="matrix(1,0,0,-1,-20.5,361.5)"
             id="g4747"><path
               inkscape:connector-curvature="0"
               id="path4749"
               style="fill:none;stroke:#000000;stroke-width:4;stroke-linecap:butt;stroke-linejoin:miter;stroke-miterlimit:10;stroke-dasharray:none;stroke-opacity:1"
               d="m 297.7997,205.9095 -1.28,-0.48 0,0.96 1.28,-0.48 z" /></g><g
             transform="matrix(1,0,0,-1,-20.5,361.5)"
             id="g4751"><path
               inkscape:connector-curvature="0"
               id="path4753"
               style="fill:none;stroke:#000000;stroke-width:4;stroke-linecap:round;stroke-linejoin:round;stroke-miterlimit:10;stroke-dasharray:8, 8;stroke-dashoffset:0;stroke-opacity:1"
               d="m 166.7869,218.9957 133.6531,67.58" /></g><path
             inkscape:connector-curvature="0"
             id="path4755"
             style="fill:#000000;fill-opacity:1;fill-rule:nonzero;stroke:none"
             d="m 281.0823,74.34674 -0.9257,1.00592 -0.4332,-0.85669 1.3589,-0.14923 z" /><g
             transform="matrix(1,0,0,-1,-20.5,361.5)"
             id="g4757"><path
               inkscape:connector-curvature="0"
               id="path4759"
               style="fill:none;stroke:#000000;stroke-width:4;stroke-linecap:butt;stroke-linejoin:miter;stroke-miterlimit:10;stroke-dasharray:none;stroke-opacity:1"
               d="m 301.5823,287.1533 -0.9257,-1.006 -0.4332,0.8567 1.3589,0.1493 z" /></g><path
             inkscape:connector-curvature="0"
             id="path4761"
             style="fill:#eee900;fill-opacity:1;fill-rule:nonzero;stroke:none"
             d="m 145.094,69.44064 c 6.038,-13.63461 -0.1203,-29.58227 -13.755,-35.62017 -13.6346,-6.03794 -29.5823,0.12036 -35.62014,13.755 -6.03795,13.63461 0.12037,29.58228 13.75504,35.62018 13.6346,6.03793 29.5823,-0.12036 35.6201,-13.75501" /><g
             transform="matrix(1,0,0,-1,-20.5,361.5)"
             id="g4763"><path
               inkscape:connector-curvature="0"
               id="path4765"
               style="fill:none;stroke:#000000;stroke-width:4;stroke-linecap:butt;stroke-linejoin:miter;stroke-miterlimit:10;stroke-dasharray:none;stroke-opacity:1"
               d="m 165.594,292.0594 c 6.038,13.6346 -0.1203,29.5822 -13.755,35.6201 -13.6346,6.038 -29.5823,-0.1203 -35.6201,-13.755 -6.038,-13.6346 0.1203,-29.5822 13.755,-35.6201 13.6346,-6.038 29.5823,0.1203 35.6201,13.755" /></g><g
             transform="matrix(1,0,0,-1,-20.5,361.5)"
             id="g4767"><path
               inkscape:connector-curvature="0"
               id="path4769"
               style="fill:none;stroke:#000000;stroke-width:4;stroke-linecap:round;stroke-linejoin:round;stroke-miterlimit:10;stroke-dasharray:8, 8;stroke-dashoffset:0;stroke-opacity:1"
               d="M 166.7868,289.9059 300.4402,222.3257" /></g><path
             inkscape:connector-curvature="0"
             id="path4771"
             style="fill:#000000;fill-opacity:1;fill-rule:nonzero;stroke:none"
             d="m 281.0825,139.7519 -1.3589,-0.1492 0.4332,-0.8567 0.9257,1.0059 z" /><g
             transform="matrix(1,0,0,-1,-20.5,361.5)"
             id="g4773"><path
               inkscape:connector-curvature="0"
               id="path4775"
               style="fill:none;stroke:#000000;stroke-width:4;stroke-linecap:butt;stroke-linejoin:miter;stroke-miterlimit:10;stroke-dasharray:none;stroke-opacity:1"
               d="m 301.5825,221.7481 -1.3589,0.1492 0.4332,0.8567 0.9257,-1.0059 z" /></g><g
             transform="matrix(1,0,0,-1,-20.5,361.5)"
             id="g4777"><path
               inkscape:connector-curvature="0"
               id="path4779"
               style="fill:none;stroke:#000000;stroke-width:4;stroke-linecap:round;stroke-linejoin:round;stroke-miterlimit:10;stroke-dasharray:none;stroke-opacity:1"
               d="m 169.9132,302.9919 126.6065,0" /></g><path
             inkscape:connector-curvature="0"
             id="path4781"
             style="fill:#000000;fill-opacity:1;fill-rule:nonzero;stroke:none"
             d="m 277.2997,58.50806 -1.28,0.48001 0,-0.96002 1.28,0.48001 z" /><g
             transform="matrix(1,0,0,-1,-20.5,361.5)"
             id="g4783"><path
               inkscape:connector-curvature="0"
               id="path4785"
               style="fill:none;stroke:#000000;stroke-width:4;stroke-linecap:butt;stroke-linejoin:miter;stroke-miterlimit:10;stroke-dasharray:none;stroke-opacity:1"
               d="m 297.7997,302.9919 -1.28,-0.48 0,0.9601 1.28,-0.4801 z" /></g><g
             transform="matrix(1,0,0,-1,311.9065,160.0485)"
             id="g4787"><text
               id="text4789"
               style="font-variant:normal;font-weight:normal;font-size:36px;font-family:Helvetica;-inkscape-font-specification:Helvetica;writing-mode:lr-tb;fill:#000000;fill-opacity:1;fill-rule:nonzero;stroke:none"
               transform="translate(-12.99902,13.5)"><tspan
                 id="tspan4791"
                 y="0"
                 x="0">C</tspan></text>
</g><g
             transform="matrix(1,0,0,-1,311.9065,59.50806)"
             id="g4793"><text
               id="text4795"
               style="font-variant:normal;font-weight:normal;font-size:36px;font-family:Helvetica;-inkscape-font-specification:Helvetica;writing-mode:lr-tb;fill:#000000;fill-opacity:1;fill-rule:nonzero;stroke:none"
               transform="translate(-12.99902,13.5)"><tspan
                 id="tspan4797"
                 y="0"
                 x="0">D</tspan></text>
</g><path
             inkscape:connector-curvature="0"
             id="path4799"
             style="fill:#ffffff;fill-opacity:1;fill-rule:nonzero;stroke:none"
             d="m 167.7264,110.0736 22,0 0,43 -22,0 0,-43 z" /><g
             transform="matrix(1,0,0,-1,178.7264,131.5736)"
             id="g4801"><text
               id="text4803"
               style="font-variant:normal;font-weight:normal;font-size:36px;font-family:Helvetica;-inkscape-font-specification:Helvetica;writing-mode:lr-tb;fill:#000000;fill-opacity:1;fill-rule:nonzero;stroke:none"
               transform="translate(-10.99512,13.5)"><tspan
                 id="tspan4805"
                 y="0"
                 x="0">δ</tspan></text>
</g><path
             inkscape:connector-curvature="0"
             id="path4807"
             style="fill:#ffffff;fill-opacity:1;fill-rule:nonzero;stroke:none"
             d="m 170.5164,68.53854 22,0 0,43 -22,0 0,-43 z" /><g
             transform="matrix(1,0,0,-1,181.5164,90.03854)"
             id="g4809"><text
               id="text4811"
               style="font-variant:normal;font-weight:normal;font-size:36px;font-family:Helvetica;-inkscape-font-specification:Helvetica;writing-mode:lr-tb;fill:#000000;fill-opacity:1;fill-rule:nonzero;stroke:none"
               transform="translate(-10.99512,13.5)"><tspan
                 id="tspan4813"
                 y="0"
                 x="0">δ</tspan></text>
</g><g
             transform="matrix(1,0,0,-1,21.5,191.5)"
             id="g4815"><text
               id="text4817"
               style="font-variant:normal;font-weight:normal;font-size:36px;font-family:Helvetica;-inkscape-font-specification:Helvetica;writing-mode:lr-tb;fill:#000000;fill-opacity:1;fill-rule:nonzero;stroke:none"
               transform="translate(-12.00586,13.5)"><tspan
                 id="tspan4819"
                 y="0"
                 x="0">X</tspan></text>
</g><path
             inkscape:connector-curvature="0"
             id="path4821"
             style="fill:#ffffff;fill-opacity:1;fill-rule:nonzero;stroke:none"
             d="m 192,305.5864 53,0 0,43 -53,0 0,-43 z" /><g
             transform="matrix(1,0,0,-1,218.5,327.0864)"
             id="g4823"><text
               id="text4825"
               style="font-variant:normal;font-weight:normal;font-size:36px;font-family:Helvetica;-inkscape-font-specification:Helvetica;writing-mode:lr-tb;fill:#000000;fill-opacity:1;fill-rule:nonzero;stroke:none"
               transform="translate(-26.01562,13.5)"><tspan
                 id="tspan4827"
                 sodipodi:role="line"
                 y="0"
                 x="0 20.016001">1-</tspan></text>
<text
               id="text4829"
               style="font-variant:normal;font-weight:normal;font-size:36px;font-family:Helvetica;-inkscape-font-specification:Helvetica;writing-mode:lr-tb;fill:#000000;fill-opacity:1;fill-rule:nonzero;stroke:none"
               transform="translate(5.98838,13.5)"><tspan
                 id="tspan4831"
                 y="0"
                 x="0">ε</tspan></text>
</g><path
             inkscape:connector-curvature="0"
             id="path4833"
             style="fill:#ffffff;fill-opacity:1;fill-rule:nonzero;stroke:none"
             d="m 192,208.5041 53,0 0,43 -53,0 0,-43 z" /><g
             transform="matrix(1,0,0,-1,218.5,230.0041)"
             id="g4835"><text
               id="text4837"
               style="font-variant:normal;font-weight:normal;font-size:36px;font-family:Helvetica;-inkscape-font-specification:Helvetica;writing-mode:lr-tb;fill:#000000;fill-opacity:1;fill-rule:nonzero;stroke:none"
               transform="translate(-26.01562,13.5)"><tspan
                 id="tspan4839"
                 sodipodi:role="line"
                 y="0"
                 x="0 20.016001">1-</tspan></text>
<text
               id="text4841"
               style="font-variant:normal;font-weight:normal;font-size:36px;font-family:Helvetica;-inkscape-font-specification:Helvetica;writing-mode:lr-tb;fill:#000000;fill-opacity:1;fill-rule:nonzero;stroke:none"
               transform="translate(5.98838,13.5)"><tspan
                 id="tspan4843"
                 y="0"
                 x="0">ε</tspan></text>
</g><path
             inkscape:connector-curvature="0"
             id="path4845"
             style="fill:#ffffff;fill-opacity:1;fill-rule:nonzero;stroke:none"
             d="m 186.6329,148.0041 54,0 0,43 -54,0 0,-43 z" /><g
             transform="matrix(1,0,0,-1,213.6329,169.5041)"
             id="g4847"><text
               id="text4849"
               style="font-variant:normal;font-weight:normal;font-size:36px;font-family:Helvetica;-inkscape-font-specification:Helvetica;writing-mode:lr-tb;fill:#000000;fill-opacity:1;fill-rule:nonzero;stroke:none"
               transform="translate(-27,13.5)"><tspan
                 id="tspan4851"
                 sodipodi:role="line"
                 y="0"
                 x="0 20.016001">1-</tspan></text>
<text
               id="text4853"
               style="font-variant:normal;font-weight:normal;font-size:36px;font-family:Helvetica;-inkscape-font-specification:Helvetica;writing-mode:lr-tb;fill:#000000;fill-opacity:1;fill-rule:nonzero;stroke:none"
               transform="translate(5.004,13.5)"><tspan
                 id="tspan4855"
                 y="0"
                 x="0">δ</tspan></text>
</g><path
             inkscape:connector-curvature="0"
             id="path4857"
             style="fill:#ffffff;fill-opacity:1;fill-rule:nonzero;stroke:none"
             d="m 195.6329,37.50806 54,0 0,43 -54,0 0,-43 z" /><g
             transform="matrix(1,0,0,-1,222.6329,59.00806)"
             id="g4859"><text
               id="text4861"
               style="font-variant:normal;font-weight:normal;font-size:36px;font-family:Helvetica;-inkscape-font-specification:Helvetica;writing-mode:lr-tb;fill:#000000;fill-opacity:1;fill-rule:nonzero;stroke:none"
               transform="translate(-27,13.5)"><tspan
                 id="tspan4863"
                 sodipodi:role="line"
                 y="0"
                 x="0 20.016001">1-</tspan></text>
<text
               id="text4865"
               style="font-variant:normal;font-weight:normal;font-size:36px;font-family:Helvetica;-inkscape-font-specification:Helvetica;writing-mode:lr-tb;fill:#000000;fill-opacity:1;fill-rule:nonzero;stroke:none"
               transform="translate(5.004,13.5)"><tspan
                 id="tspan4867"
                 y="0"
                 x="0">δ</tspan></text>
</g><g
             transform="matrix(1,0,0,-1,120.3593,332.0445)"
             id="g4869"><text
               id="text4871"
               style="font-variant:normal;font-weight:normal;font-size:36px;font-family:Helvetica;-inkscape-font-specification:Helvetica;writing-mode:lr-tb;fill:#000000;fill-opacity:1;fill-rule:nonzero;stroke:none"
               transform="translate(-12.00586,13.5)"><tspan
                 id="tspan4873"
                 y="0"
                 x="0">A</tspan></text>
</g><g
             transform="matrix(1,0,0,-1,120.3593,231.504)"
             id="g4875"><text
               id="text4877"
               style="font-variant:normal;font-weight:normal;font-size:36px;font-family:Helvetica;-inkscape-font-specification:Helvetica;writing-mode:lr-tb;fill:#000000;fill-opacity:1;fill-rule:nonzero;stroke:none"
               transform="translate(-12.00586,13.5)"><tspan
                 id="tspan4879"
                 y="0"
                 x="0">B</tspan></text>
</g><g
             transform="matrix(1,0,0,-1,120.3593,161.049)"
             id="g4881"><text
               id="text4883"
               style="font-variant:normal;font-weight:normal;font-size:36px;font-family:Helvetica;-inkscape-font-specification:Helvetica;writing-mode:lr-tb;fill:#000000;fill-opacity:1;fill-rule:nonzero;stroke:none"
               transform="translate(-12.99902,13.5)"><tspan
                 id="tspan4885"
                 y="0"
                 x="0">C</tspan></text>
</g><g
             transform="matrix(1,0,0,-1,120.3593,60.508)"
             id="g4887"><text
               id="text4889"
               style="font-variant:normal;font-weight:normal;font-size:36px;font-family:Helvetica;-inkscape-font-specification:Helvetica;writing-mode:lr-tb;fill:#000000;fill-opacity:1;fill-rule:nonzero;stroke:none"
               transform="translate(-12.99902,13.5)"><tspan
                 id="tspan4891"
                 y="0"
                 x="0">D</tspan></text>
</g></g></g></g><text
       transform="scale(1,-1)"
       style="font-variant:normal;font-weight:normal;font-size:9.96259975px;font-family:CMMI10;-inkscape-font-specification:CMMI10;writing-mode:lr-tb;fill:#000000;fill-opacity:1;fill-rule:nonzero;stroke:none"
       id="text4907"
       x="314.67401"
       y="-293.08301"><tspan
         x="314.67401"
         y="-293.08301"
         id="tspan4909" /></text>
<text
       transform="scale(1,-1)"
       style="font-variant:normal;font-weight:normal;font-size:9.96259975px;font-family:CMMI10;-inkscape-font-specification:CMMI10;writing-mode:lr-tb;fill:#000000;fill-opacity:1;fill-rule:nonzero;stroke:none"
       id="text4947"
       x="180.01401"
       y="-268.70999"><tspan
         x="180.01401"
         y="-268.70999"
         id="tspan4949" /></text>
</g></svg>