<?xml version="1.0" encoding="UTF-8"?>
<!DOCTYPE svg PUBLIC "-//W3C//DTD SVG 1.1//EN" "http://www.w3.org/Graphics/SVG/1.1/DTD/svg11.dtd">
<svg version="1.1" width="85.04mm" height="97.38mm" viewBox="0 0 8504 9738" preserveAspectRatio="xMidYMid" fill-rule="evenodd" clip-path="url(#presentation_clip_path)" stroke-width="28.222" stroke-linejoin="round" xmlns="http://www.w3.org/2000/svg" xmlns:ooo="http://xml.openoffice.org/svg/export" xmlns:xlink="http://www.w3.org/1999/xlink" xml:space="preserve">
 <defs class="ClipPathGroup">
  <clipPath id="presentation_clip_path" clipPathUnits="userSpaceOnUse">
   <rect x="0" y="0" width="8504" height="9738"/>
  </clipPath>
 </defs>
 <defs class="TextShapeIndex">
  
 </defs>
 <defs class="TextEmbeddedBitmaps"/>
 <g>
  <g id="id2" class="Master_Slide">
   <g id="bg-id2" class="Background"/>
   <g id="bo-id2" class="BackgroundObjects"/>
  </g>
 </g>
 <g class="SlideGroup">
  <g>
   <g id="id1" class="Slide" clip-path="url(#presentation_clip_path)">
    <g class="Page">
     <g class="com.sun.star.drawing.PolyLineShape">
      <g id="id3">
       <path fill="none" stroke="rgb(0,0,0)" stroke-width="35" d="M 6545,1429 L 6368,1429 6192,1429 6192,1252 6192,1076 6016,1076 6016,1252 6016,1429 6192,1429 6192,1605 6192,1781 6192,1958 6192,1781 6368,1781 6545,1781 6545,1958 6368,1958 6192,1958 6192,2134 6368,2134 6545,2134 6545,1958 6545,1781 6721,1781 6897,1781 7074,1781 6897,1781 6897,1958 6897,2134 6897,1958 6897,1781 7074,1781 7074,1605 7074,1781 6897,1781 6897,1958 6897,1781 6721,1781 6545,1781 6545,1958 6368,1958 6192,1958 6016,1958 6192,1958 6016,1958 5839,1958 5839,1781 5663,1781 5663,1958 5839,1958 5839,2134 6016,2134 5839,2134 5839,2311 5663,2311 5839,2311 5663,2311 5486,2311 5663,2311 5663,2487 5486,2487 5486,2663 5663,2663 5663,2487 5839,2487 5839,2663 5839,2487 5663,2487 5839,2487 5663,2487 5839,2487 5663,2487 5663,2663 5663,2840 5663,3016 5663,3193 5663,3369 5839,3369 5839,3193 5839,3369 5663,3369 5663,3545 5663,3369 5486,3369 5486,3545 5310,3545 5310,3369 5310,3545 5310,3369 5310,3545 5486,3545 5486,3369 5310,3369 5310,3193 5310,3369 5134,3369 5134,3193 5134,3016 4957,3016 5134,3016 5134,3193 5134,3016 5310,3016 5310,2840 5310,3016 5310,2840 5134,2840 5134,2663 5134,2840 5134,2663 5310,2663 5134,2663 5134,2487 5134,2311 5134,2487 5310,2487 5310,2311 5134,2311 5134,2134 5134,1958 5310,1958 5310,2134 5310,2311 5310,2134 5486,2134 5486,1958 5663,1958 5486,1958 5486,2134 5310,2134 5134,2134 4957,2134 4957,2311 5134,2311 5134,2134 5134,2311 5310,2311 5310,2134 5486,2134 5310,2134 5310,1958 5310,2134 5486,2134 5486,2311 5486,2134 5310,2134 5486,2134 5486,2311 5663,2311 5663,2134 5663,2311 5663,2134 5663,1958 5663,1781 5663,1605 5663,1429 5663,1605 5663,1781 5486,1781 5310,1781 5134,1781 5134,1605 5310,1605 5486,1605 5486,1781 5486,1958 5310,1958 5310,2134 5486,2134 5663,2134 5663,2311 5663,2134 5663,1958 5839,1958 5839,1781 5839,1958 5839,1781 5839,1605 5839,1429 5839,1252 5839,1076 5839,1252 6016,1252 6192,1252 6192,1429 6192,1252 6016,1252 5839,1252 5839,1429 6016,1429 6016,1605 6016,1781 6016,1605 6192,1605 6192,1781 6192,1605 6192,1429 6016,1429 6192,1429 6192,1605 6016,1605 6016,1781 6192,1781 6016,1781 6192,1781 6192,1605 6192,1781 6192,1605 6368,1605 6192,1605 6192,1781 6192,1605 6368,1605 6545,1605 6721,1605 6721,1429 6721,1605 6721,1429 6897,1429 7074,1429 6897,1429 6897,1252 6721,1252 6721,1076 6721,1252 6897,1252 7074,1252 6897,1252 7074,1252 7074,1076 7074,900 7074,723 6897,723 6897,900 6721,900 6721,1076 6721,900 6721,1076 6545,1076 6545,1252 6721,1252 6897,1252 7074,1252 6897,1252 7074,1252 7074,1429 7250,1429 7074,1429 6897,1429 6721,1429 6545,1429 6721,1429 6721,1252 6897,1252 7074,1252 7250,1252 7250,1429 7074,1429 7074,1605 6897,1605 6897,1429 7074,1429 6897,1429 6897,1252 7074,1252 7074,1076 7074,900 6897,900 6721,900 6721,1076 6721,900 6897,900 6897,723 6897,900 6897,1076 7074,1076 7074,1252 7074,1076 7074,1252 6897,1252 6721,1252 6721,1076 6721,1252 6721,1429 6897,1429 6721,1429 6897,1429 6897,1605 7074,1605 6897,1605 6721,1605 6721,1781 6721,1605 6897,1605 6897,1429 6897,1605 6721,1605 6721,1429 6721,1605 6897,1605 7074,1605 7074,1781 6897,1781 6897,1958 7074,1958 6897,1958 7074,1958 7074,2134 7074,2311 6897,2311 6721,2311 6721,2134 6721,2311 6897,2311 6897,2487 6721,2487 6721,2663 6721,2487 6897,2487 6897,2663 6721,2663 6721,2840 6545,2840 6545,2663 6368,2663 6368,2840 6368,3016 6192,3016 6016,3016 6016,2840 5839,2840 5663,2840 5663,2663 5663,2840 5663,3016 5663,2840 5486,2840 5486,2663 5486,2840 5663,2840 5839,2840 5839,3016 6016,3016 6016,2840 5839,2840 5839,2663 5839,2487 6016,2487 5839,2487 5839,2663 5663,2663 5839,2663 5839,2840 6016,2840 6192,2840 6192,3016 6192,2840 6192,2663 6016,2663 6016,2487 5839,2487 5663,2487 5839,2487 5839,2663 5663,2663 5486,2663 5486,2487 5486,2311 5663,2311 5839,2311 6016,2311 6016,2134 6016,2311 5839,2311 6016,2311 6016,2487 6192,2487 6368,2487 6192,2487 6368,2487 6368,2663 6545,2663 6545,2840 6368,2840 6368,2663 6192,2663 6368,2663 6368,2840 6192,2840 6192,3016 6368,3016 6192,3016 6192,2840 6192,3016 6368,3016 6368,3193 6192,3193 6016,3193 6016,3369 6192,3369 6192,3193 6368,3193 6368,3016 6545,3016 6368,3016 6368,2840 6192,2840 6368,2840 6545,2840 6721,2840 6721,2663 6897,2663 6897,2487 7074,2487 7250,2487 7074,2487 6897,2487 7074,2487 7074,2663 6897,2663 7074,2663 7074,2487 7074,2311 7074,2134 7074,2311 7250,2311 7427,2311 7250,2311 7250,2134 7074,2134 7074,2311 7250,2311 7074,2311 7250,2311 7074,2311 6897,2311 6897,2487 6897,2663 6721,2663 6721,2840 6545,2840 6368,2840 6192,2840 6016,2840 5839,2840 6016,2840 6016,3016 6016,3193 6192,3193 6368,3193 6368,3016 6192,3016 6368,3016 6545,3016 6368,3016 6368,2840 6192,2840 6192,2663 6192,2487 6368,2487 6545,2487 6368,2487 6192,2487 6016,2487 6192,2487 6192,2663 6192,2487 6016,2487 6192,2487 6368,2487 6368,2663 6368,2487 6545,2487 6368,2487 6368,2311 6368,2134 6368,1958 6545,1958 6721,1958 6897,1958 7074,1958 7074,1781 7074,1605 7074,1781 7250,1781 7427,1781 7250,1781 7250,1605 7250,1429 7074,1429 7250,1429 7074,1429 7074,1252 7074,1429 6897,1429 7074,1429 6897,1429 6897,1605 7074,1605 6897,1605 7074,1605 7250,1605 7250,1781 7427,1781 7250,1781 7250,1958 7250,2134 7250,2311 7074,2311 6897,2311 6721,2311 6897,2311 7074,2311 7074,2487 7074,2311 7074,2134 6897,2134 6897,1958 6721,1958 6721,2134 6545,2134 6545,1958 6721,1958 6545,1958 6545,1781 6545,1605 6721,1605 6721,1429 6721,1252 6721,1429 6721,1252 6545,1252 6545,1429 6545,1252 6368,1252 6368,1076 6545,1076 6545,1252 6545,1076 6545,1252 6545,1076 6545,900 6368,900 6192,900 6192,1076 6192,1252 6016,1252 6016,1076 6192,1076 6192,900 6192,723 6192,547 6192,370 6192,194 6192,18 6368,18 6368,194 6192,194 6016,194 6016,370 6016,547 5839,547 5839,370 5839,194 5663,194 5663,370 5663,194 5839,194 6016,194 6192,194 6368,194 6545,194 6368,194 6192,194 6192,370 6368,370 6545,370 6368,370 6192,370 6192,194 6192,370 6192,547 6192,723 6192,547 6192,723 6192,547 6192,370 6192,547 6192,723 6192,900 6192,1076 6192,1252 6368,1252 6368,1076 6192,1076 6016,1076 5839,1076 5839,1252 5839,1076 5839,900 5839,723 5839,900 5839,1076 5839,900 5663,900 5486,900 5310,900 5486,900 5663,900 5663,723 5486,723 5486,900 5663,900 5486,900 5486,1076 5663,1076 5839,1076 5839,1252 6016,1252 6016,1429 6016,1252 6016,1429 6192,1429 6016,1429 6016,1252 6192,1252 6192,1429 6368,1429 6368,1605 6192,1605 6192,1429 6016,1429 6016,1605 5839,1605 6016,1605 6192,1605 6368,1605 6545,1605 6721,1605 6721,1429 6897,1429 6897,1252 7074,1252 7074,1429 7250,1429 7250,1252 7250,1429 7074,1429 7074,1252 7074,1429 7074,1605 6897,1605 6897,1781 7074,1781 7074,1605 6897,1605 7074,1605 7074,1429 6897,1429 6897,1252 7074,1252 7250,1252 7427,1252 7427,1429 7603,1429 7779,1429 7956,1429 7779,1429 7779,1252 7779,1429 7779,1252 7779,1076 7779,1252 7956,1252 7956,1076 7956,1252 7779,1252 7779,1429 7956,1429 7779,1429 7603,1429 7603,1252 7779,1252 7603,1252 7427,1252 7427,1076 7427,1252 7250,1252 7250,1429 7250,1605 7250,1781 7250,1605 7250,1429 7250,1252 7250,1429 7250,1252 7250,1429 7427,1429 7603,1429 7427,1429 7603,1429 7779,1429 7956,1429 7956,1252 7956,1076 7956,1252 7779,1252 7779,1076 7603,1076 7603,1252 7603,1076 7603,1252 7779,1252 7779,1429 7779,1252 7779,1429 7779,1605 7603,1605 7603,1781 7603,1958 7603,2134 7603,1958 7603,1781 7779,1781 7779,1605 7779,1429 7956,1429 7956,1605 7956,1781 7956,1958 7779,1958 7779,1781 7779,1958 7779,1781 7779,1958 7956,1958 7956,1781 8132,1781 8132,1958 8309,1958 8132,1958 8309,1958 8485,1958 8309,1958 8309,2134 8309,1958 8132,1958 8309,1958 8132,1958 8132,2134 7956,2134 7779,2134 7779,2311 7603,2311 7603,2134 7779,2134 7603,2134 7603,1958 7603,2134 7427,2134 7427,2311 7250,2311 7250,2134 7250,2311 7250,2487 7427,2487 7603,2487 7427,2487 7427,2311 7427,2134 7427,2311 7250,2311 7074,2311 7074,2487 7250,2487 7074,2487 7074,2311 7074,2134 6897,2134 6721,2134 6897,2134 6721,2134 6721,1958 6721,2134 6721,1958 6721,1781 6721,1605 6721,1429 6897,1429 6897,1605 7074,1605 7074,1781 7074,1605 7074,1781 7074,1958 7250,1958 7074,1958 7074,1781 7250,1781 7427,1781 7603,1781 7427,1781 7427,1958 7427,2134 7603,2134 7779,2134 7603,2134 7427,2134 7427,2311 7427,2134 7427,2311 7427,2134 7603,2134 7603,1958 7603,2134 7427,2134 7427,2311 7427,2487 7603,2487 7779,2487 7956,2487 8132,2487 8309,2487 8309,2311 8132,2311 7956,2311 7779,2311 7779,2487 7779,2311 7956,2311 7779,2311 7603,2311 7603,2487 7603,2663 7603,2840 7603,2663 7603,2840 7779,2840 7603,2840 7779,2840 7779,3016 7779,3193 7779,3369 7956,3369 7779,3369 7603,3369 7779,3369 7779,3545 7603,3545 7603,3722 7603,3898 7427,3898 7427,3722 7427,3898 7427,4075 7603,4075 7427,4075 7250,4075 7427,4075 7427,4251 7250,4251 7250,4427 7427,4427 7250,4427 7427,4427 7427,4251 7427,4427 7427,4604 7603,4604 7779,4604 7603,4604 7427,4604 7603,4604 7427,4604 7427,4780 7603,4780 7603,4956 7427,4956 7250,4956 7250,5133 7250,5309 7427,5309 7427,5133 7603,5133 7603,4956 7427,4956 7603,4956 7603,5133 7603,5309 7603,5133 7427,5133 7603,5133 7603,4956 7603,5133 7779,5133 7603,5133 7779,5133 7779,4956 7779,4780 7779,4604 7956,4604 7956,4780 7956,4604 8132,4604 8309,4604 8132,4604 7956,4604 7779,4604 7779,4780 7779,4956 7779,4780 7779,4956 7779,4780 7956,4780 7779,4780 7779,4956 7779,5133 7956,5133 8132,5133 8132,5309 8132,5486 8132,5309 7956,5309 7779,5309 7779,5133 7779,4956 7603,4956 7603,5133 7603,4956 7603,5133 7603,4956 7427,4956 7427,5133 7427,5309 7427,5133 7603,5133 7779,5133 7956,5133 7956,4956 7956,4780 7956,4956 7779,4956 7603,4956 7603,5133 7427,5133 7427,4956 7427,4780 7427,4956 7427,4780 7427,4604 7250,4604 7250,4427 7250,4251 7427,4251 7250,4251 7250,4075 7074,4075 7250,4075 7250,4251 7427,4251 7427,4075 7250,4075 7250,3898 7074,3898 6897,3898 7074,3898 6897,3898 6897,3722 6897,3545 7074,3545 7074,3369 6897,3369 6897,3545 6721,3545 6897,3545 6897,3369 6721,3369 6721,3193 6897,3193 6897,3016 6897,3193 7074,3193 7074,3016 7074,2840 7250,2840 7074,2840 7074,2663 7074,2487 7074,2663 7074,2840 6897,2840 6897,3016 6721,3016 6721,2840 6545,2840 6545,2663 6545,2487 6545,2311 6368,2311 6368,2487 6192,2487 6016,2487 5839,2487 5839,2663 6016,2663 5839,2663 5839,2840 5839,2663 5839,2840 5839,2663 5839,2487 5839,2663 5839,2840 5663,2840 5486,2840 5486,2663 5486,2840 5310,2840 5310,3016 5486,3016 5663,3016 5663,2840 5663,3016 5486,3016 5486,2840 5310,2840 5134,2840 5310,2840 5134,2840 5134,2663 5310,2663 5310,2840 5134,2840 5134,3016 5134,2840 4957,2840 4957,3016 4781,3016 4781,2840 4957,2840 4957,2663 4957,2487 5134,2487 5310,2487 5310,2663 5134,2663 5310,2663 5134,2663 5134,2840 5310,2840 5310,2663 5134,2663 5134,2840 5134,2663 5134,2840 5310,2840 5486,2840 5310,2840 5310,2663 5486,2663 5486,2840 5310,2840 5310,2663 5134,2663 5134,2840 5134,2663 5134,2840 5134,3016 5134,3193 5134,3369 5310,3369 5310,3545 5310,3369 5486,3369 5663,3369 5663,3193 5663,3016 5839,3016 6016,3016 6016,3193 6016,3369 6192,3369 6192,3545 6368,3545 6368,3369 6368,3193 6192,3193 6016,3193 5839,3193 5839,3016 5839,2840 5839,2663 6016,2663 6192,2663 6192,2487 6368,2487 6368,2663 6192,2663 6192,2487 6192,2311 6016,2311 6192,2311 6368,2311 6368,2134 6545,2134 6721,2134 6897,2134 6897,1958 6897,2134 6721,2134 6897,2134 7074,2134 7250,2134 7074,2134 6897,2134 6721,2134 6721,1958 6545,1958 6721,1958 6721,2134 6721,2311 6721,2487 6897,2487 6897,2311 6897,2134 6721,2134 6545,2134 6721,2134 6721,1958 6545,1958 6545,2134 6721,2134 6721,2311 6721,2134 6721,1958 6545,1958 6545,2134 6368,2134 6545,2134 6368,2134 6192,2134 6192,2311 6016,2311 6016,2134 6016,1958 5839,1958 5839,1781 5839,1958 5839,2134 5839,2311 5839,2134 5663,2134 5663,1958 5663,2134 5486,2134 5486,2311 5663,2311 5486,2311 5486,2487 5310,2487 5134,2487 4957,2487 4957,2663 4781,2663 4781,2840 4957,2840 5134,2840 5310,2840 5310,2663 5310,2840 5486,2840 5310,2840 5310,2663 5134,2663 5134,2487 5310,2487 5486,2487 5310,2487 5310,2663 5486,2663 5486,2487 5486,2311 5663,2311 5486,2311 5663,2311 5663,2487 5486,2487 5486,2311 5663,2311 5839,2311 5839,2134 6016,2134 6016,2311 6016,2134 6016,2311 6192,2311 6192,2487 6192,2311 6016,2311 6192,2311 6016,2311 5839,2311 5839,2487 5839,2311 6016,2311 5839,2311 5839,2487 5663,2487 5839,2487 5663,2487 5486,2487 5486,2663 5486,2840 5486,2663 5486,2487 5486,2311 5486,2487 5310,2487 5134,2487 4957,2487 4957,2311 4957,2134 5134,2134 5134,1958 5134,2134 4957,2134 4781,2134 4781,1958 4781,2134 4781,2311 4781,2487 4957,2487 4957,2311 4781,2311 4604,2311 4604,2487 4604,2663 4604,2487 4781,2487 4781,2311 4781,2134 4781,1958 4781,2134 4781,2311 4781,2134 4604,2134 4604,1958 4428,1958 4428,2134 4428,2311 4604,2311 4604,2487 4428,2487 4428,2311 4428,2134 4252,2134 4252,1958 4252,1781 4428,1781 4428,1605 4428,1429 4604,1429 4604,1252 4428,1252 4428,1429 4428,1605 4604,1605 4428,1605 4252,1605 4075,1605 4075,1429 4252,1429 4252,1252 4428,1252 4428,1429 4428,1605 4604,1605 4428,1605 4428,1781 4252,1781 4428,1781 4428,1958 4428,1781 4428,1958 4428,2134 4428,1958 4428,2134 4428,1958 4604,1958 4604,2134 4781,2134 4781,1958 4781,1781 4957,1781 4957,1958 5134,1958 5134,1781 5310,1781 5486,1781 5486,1605 5486,1781 5663,1781 5839,1781 5839,1605 5663,1605 5663,1429 5663,1252 5839,1252 5663,1252 5486,1252 5310,1252 5310,1076 5134,1076 5134,900 5134,723 5134,547 5134,723 5134,900 5134,1076 4957,1076 4781,1076 4781,1252 4781,1076 4604,1076 4428,1076 4252,1076 4252,900 4252,1076 4252,1252 4252,1429 4428,1429 4252,1429 4075,1429 3899,1429 4075,1429 4075,1605 4075,1429 4075,1605 4075,1429 4075,1252 4075,1076 4075,1252 3899,1252 4075,1252 4075,1429 4075,1605 3899,1605 3722,1605 3546,1605 3722,1605 3722,1429 3546,1429 3722,1429 3546,1429 3370,1429 3370,1252 3370,1076 3546,1076 3370,1076 3193,1076 3017,1076 3193,1076 3193,1252 3017,1252 3193,1252 3193,1429 3193,1252 3017,1252 3193,1252 3370,1252 3370,1429 3546,1429 3370,1429 3546,1429 3722,1429 3722,1605 3722,1781 3722,1958 3546,1958 3370,1958 3546,1958 3546,2134 3370,2134 3370,1958 3370,2134 3370,2311 3546,2311 3546,2134 3722,2134 3722,2311 3546,2311 3370,2311 3193,2311 3017,2311 2841,2311 2841,2134 2841,2311 2664,2311 2488,2311 2664,2311 2664,2487 2841,2487 3017,2487 3017,2663 3017,2840 3017,2663 3017,2840 3017,2663 3017,2487 2841,2487 2664,2487 2841,2487 2664,2487 2664,2311 2841,2311 3017,2311 3017,2134 3193,2134 3193,2311 3017,2311 3017,2134 3193,2134 3193,1958 3193,1781 3370,1781 3193,1781 3017,1781 3017,1605 3193,1605 3193,1781 3370,1781 3193,1781 3017,1781 3017,1605 3193,1605 3193,1781 3193,1958 3193,2134 3017,2134 3017,1958 3193,1958 3017,1958 3017,1781 3017,1605 3017,1781 3017,1605 3017,1781 3017,1605 3017,1429 3193,1429 3017,1429 3017,1605 3017,1781 3017,1958 3193,1958 3017,1958 3017,2134 3017,2311 3017,2134 3017,1958 3017,2134 2841,2134 2841,2311 2841,2134 2664,2134 2664,1958 2664,2134 2664,1958 2664,1781 2488,1781 2664,1781 2664,1958 2664,2134 2664,2311 2841,2311 3017,2311 3017,2487 3017,2311 3193,2311 3017,2311 3193,2311 3193,2487 3193,2663 3370,2663 3193,2663 3370,2663 3370,2487 3193,2487 3193,2663 3193,2840 3017,2840 3193,2840 3370,2840 3370,3016 3193,3016 3370,3016 3193,3016 3017,3016 3193,3016 3193,2840 3193,2663 3193,2840 3193,2663 3017,2663 3017,2487 2841,2487 3017,2487 2841,2487 3017,2487 3017,2311 3017,2487 3193,2487 3017,2487 2841,2487 3017,2487 3193,2487 3193,2663 3017,2663 3193,2663 3193,2840 3193,3016 3193,3193 3193,3369 3370,3369 3546,3369 3722,3369 3546,3369 3546,3545 3546,3369 3722,3369 3546,3369 3546,3545 3546,3369 3722,3369 3899,3369 3722,3369 3899,3369 3722,3369 3546,3369 3546,3193 3722,3193 3722,3369 3722,3545 3546,3545 3546,3369 3370,3369 3370,3193 3193,3193 3370,3193 3370,3016 3193,3016 3017,3016 3017,3193 2841,3193 3017,3193 3017,3016 3017,3193 2841,3193 3017,3193 3193,3193 3370,3193 3546,3193 3370,3193 3370,3016 3370,2840 3370,2663 3193,2663 3193,2840 3017,2840 3017,3016 2841,3016 2841,3193 2841,3016 2841,2840 3017,2840 3017,2663 3193,2663 3370,2663 3193,2663 3017,2663 3017,2840 3193,2840 3370,2840 3370,2663 3546,2663 3546,2487 3546,2663 3370,2663 3546,2663 3546,2840 3370,2840 3193,2840 3370,2840 3370,2663 3193,2663 3370,2663 3546,2663 3546,2840 3370,2840 3193,2840 3370,2840 3546,2840 3722,2840 3899,2840 3899,2663 3722,2663 3722,2840 3722,2663 3722,2487 3722,2311 3546,2311 3722,2311 3546,2311 3546,2134 3546,1958 3370,1958 3370,1781 3370,1958 3370,2134 3546,2134 3370,2134 3193,2134 3193,1958 3370,1958 3546,1958 3722,1958 3722,2134 3546,2134 3722,2134 3546,2134 3722,2134 3722,1958 3899,1958 3899,2134 3899,1958 3722,1958 3722,2134 3722,2311 3899,2311 3899,2134 4075,2134 4075,2311 4075,2487 4075,2663 4075,2487 3899,2487 3899,2663 3899,2840 3899,3016 3722,3016 3546,3016 3546,3193 3722,3193 3722,3369 3546,3369 3546,3545 3370,3545 3546,3545 3546,3722 3546,3545 3546,3722 3546,3545 3546,3722 3546,3898 3370,3898 3546,3898 3370,3898 3370,3722 3370,3545 3370,3722 3546,3722 3722,3722 3722,3898 3546,3898 3370,3898 3546,3898 3546,4075 3546,4251 3546,4427 3546,4604 3722,4604 3546,4604 3546,4427 3370,4427 3370,4251 3370,4075 3370,4251 3546,4251 3722,4251 3722,4075 3722,3898 3899,3898 3899,3722 3899,3898 3899,3722 4075,3722 4252,3722 4252,3898 4075,3898 4075,4075 4075,3898 4075,3722 4075,3898 4252,3898 4252,4075 4252,3898 4252,4075 4428,4075 4604,4075 4604,3898 4428,3898 4428,4075 4428,4251 4252,4251 4252,4075 4252,4251 4428,4251 4428,4075 4252,4075 4252,3898 4428,3898 4604,3898 4604,3722 4781,3722 4781,3545 4781,3722 4781,3898 4604,3898 4428,3898 4604,3898 4428,3898 4428,3722 4428,3545 4428,3722 4428,3898 4428,4075 4428,3898 4604,3898 4781,3898 4957,3898 4781,3898 4781,4075 4781,3898 4957,3898 4957,4075 4781,4075 4781,4251 4604,4251 4604,4427 4781,4427 4604,4427 4604,4604 4604,4780 4604,4956 4428,4956 4428,5133 4604,5133 4428,5133 4604,5133 4604,5309 4428,5309 4428,5486 4428,5309 4252,5309 4252,5133 4252,4956 4252,4780 4428,4780 4604,4780 4428,4780 4428,4604 4604,4604 4428,4604 4428,4427 4604,4427 4604,4251 4428,4251 4604,4251 4604,4075 4604,3898 4604,3722 4604,3898 4604,3722 4604,3545 4604,3369 4604,3193 4604,3369 4428,3369 4428,3545 4604,3545 4604,3369 4604,3545 4604,3369 4604,3545 4428,3545 4428,3369 4428,3545 4604,3545 4604,3722 4781,3722 4781,3898 4781,4075 4781,3898 4604,3898 4604,3722 4781,3722 4957,3722 4957,3898 4781,3898 4781,3722 4957,3722 4957,3898 5134,3898 5134,3722 4957,3722 4781,3722 4781,3898 4781,4075 4781,3898 4957,3898 4781,3898 4957,3898 5134,3898 5310,3898 5486,3898 5486,4075 5663,4075 5486,4075 5310,4075 5486,4075 5486,3898 5486,3722 5310,3722 5486,3722 5486,3545 5486,3369 5310,3369 5310,3193 5134,3193 5310,3193 5310,3369 5486,3369 5486,3545 5486,3369 5663,3369 5663,3193 5663,3016 5663,3193 5486,3193 5486,3016 5310,3016 5486,3016 5486,2840 5486,2663 5663,2663 5663,2487 5839,2487 6016,2487 6016,2311 5839,2311 5839,2487 5663,2487 5663,2311 5663,2487 5663,2663 5486,2663 5486,2487 5310,2487 5486,2487 5486,2311 5310,2311 5486,2311 5310,2311 5310,2134 5310,1958 5310,2134 5310,2311 5310,2487 5310,2663 5486,2663 5310,2663 5310,2840 5310,2663 5310,2840 5486,2840 5486,3016 5486,2840 5663,2840 5839,2840 5839,3016 5839,2840 6016,2840 6192,2840 6016,2840 6016,2663 6016,2840 5839,2840 6016,2840 5839,2840 6016,2840 6192,2840 6368,2840 6545,2840 6545,2663 6368,2663 6368,2840 6192,2840 6368,2840 6368,2663 6368,2840 6192,2840 6192,3016 6368,3016 6368,3193 6192,3193 6016,3193 6016,3369 6016,3545 6016,3369 6016,3193 6016,3016 6192,3016 6368,3016 6368,2840 6192,2840 6192,3016 6192,3193 6016,3193 5839,3193 5839,3369 5839,3545 5839,3722 5663,3722 5486,3722 5663,3722 5486,3722 5486,3545 5486,3722 5310,3722 5310,3545 5134,3545 5310,3545 5310,3722 5310,3545 5310,3369 5486,3369 5486,3545 5310,3545 5310,3722 5310,3898 5486,3898 5486,4075 5486,4251 5310,4251 5486,4251 5486,4427 5663,4427 5839,4427 5839,4251 6016,4251 6016,4427 6016,4604 6192,4604 6016,4604 6192,4604 6192,4780 6192,4956 6016,4956 6192,4956 6368,4956 6192,4956 6368,4956 6192,4956 6368,4956 6368,4780 6368,4956 6368,5133 6545,5133 6721,5133 6545,5133 6545,5309 6545,5486 6721,5486 6721,5662 6897,5662 6897,5486 6721,5486 6721,5662 6897,5662 7074,5662 7074,5838 7074,5662 7074,5838 6897,5838 6897,6015 7074,6015 7074,5838 7074,6015 7074,6191 7074,6368 6897,6368 7074,6368 7074,6191 6897,6191 6897,6368 6721,6368 6721,6544 6545,6544 6545,6720 6545,6897 6545,7073 6368,7073 6192,7073 6016,7073 6192,7073 6192,6897 6192,6720 6368,6720 6368,6897 6368,7073 6545,7073 6368,7073 6545,7073 6545,6897 6545,7073 6545,7250 6545,7073 6545,7250 6545,7073 6368,7073 6545,7073 6368,7073 6368,7250 6368,7426 6368,7250 6192,7250 6016,7250 6016,7073 6016,7250 6016,7073 5839,7073 5663,7073 5486,7073 5310,7073 5486,7073 5486,7250 5486,7073 5486,6897 5486,7073 5486,7250 5663,7250 5663,7073 5663,6897 5839,6897 6016,6897 5839,6897 5839,7073 5663,7073 5486,7073 5486,7250 5310,7250 5310,7073 5134,7073 5134,7250 5134,7426 5310,7426 5486,7426 5310,7426 5134,7426 5134,7250 4957,7250 4957,7426 4957,7250 4781,7250 4604,7250 4781,7250 4957,7250 5134,7250 5134,7073 5134,7250 5310,7250 5310,7426 5310,7602 5310,7426 5134,7426 5310,7426 5486,7426 5486,7250 5486,7426 5486,7602 5310,7602 5134,7602 5310,7602 5310,7779 5310,7955 5486,7955 5486,7779 5486,7955 5310,7955 5486,7955 5310,7955 5310,7779 5310,7955 5486,7955 5486,8131 5663,8131 5663,8308 5663,8131 5839,8131 6016,8131 6192,8131 6368,8131 6192,8131 6192,8308 6192,8484 6192,8308 6192,8484 6016,8484 6016,8661 5839,8661 5839,8837 6016,8837 5839,8837 5663,8837 5486,8837 5486,8661 5486,8837 5486,8661 5663,8661 5486,8661 5310,8661 5310,8837 5486,8837 5663,8837 5839,8837 6016,8837 6016,8661 5839,8661 5663,8661 5663,8484 5486,8484 5486,8661 5486,8837 5663,8837 5663,9013 5486,9013 5486,9190 5310,9190 5310,9013 5486,9013 5663,9013 5839,9013 5663,9013 5486,9013 5310,9013 5310,9190 5134,9190 4957,9190 4957,9013 4957,9190 4781,9190 4781,9013 4957,9013 5134,9013 4957,9013 5134,9013 5134,8837 5310,8837 5310,9013 5310,9190 5310,9013 5134,9013 5310,9013 5310,8837 5310,9013 5310,9190 5310,9366 5310,9190 5310,9013 5310,9190 5310,9366 5310,9190 5310,9366 5310,9190 5486,9190 5486,9366 5486,9190 5663,9190 5663,9366 5839,9366 5839,9543 5839,9366 5839,9543 5839,9366 6016,9366 5839,9366 5663,9366 5663,9190 5486,9190 5663,9190 5839,9190 6016,9190 6016,9013 5839,9013 6016,9013 6016,8837 5839,8837 5839,8661 6016,8661 6016,8484 6016,8308 5839,8308 6016,8308 6016,8484 6016,8308 6192,8308 6192,8131 6016,8131 6016,7955 5839,7955 5663,7955 5663,7779 5839,7779 5839,7602 5839,7426 6016,7426 6016,7602 5839,7602 6016,7602 6016,7426 6192,7426 6192,7250 6192,7073 6368,7073 6192,7073 6192,6897 6016,6897 5839,6897 5663,6897 5663,7073 5839,7073 5663,7073 5663,6897 5663,7073 5486,7073 5486,7250 5310,7250 5310,7073 5134,7073 5134,6897 5310,6897 5310,7073 5134,7073 5134,6897 5310,6897 5134,6897 5134,6720 5310,6720 5310,6544 5134,6544 4957,6544 5134,6544 4957,6544 4781,6544 4957,6544 4957,6368 4957,6544 4957,6720 5134,6720 5134,6544 5310,6544 5134,6544 5134,6720 5134,6897 5134,7073 5310,7073 5134,7073 5310,7073 5134,7073 5134,7250 5134,7426 4957,7426 4781,7426 4781,7602 4604,7602 4781,7602 4957,7602 5134,7602 5310,7602 5134,7602 5310,7602 5310,7426 5310,7250 5310,7426 5134,7426 5310,7426 5310,7250 5134,7250 4957,7250 5134,7250 5310,7250 5486,7250 5486,7426 5486,7602 5310,7602 5486,7602 5310,7602 5310,7779 5486,7779 5310,7779 5310,7602 5310,7779 5134,7779 4957,7779 4781,7779 4781,7955 4781,8131 4604,8131 4604,7955 4428,7955 4252,7955 4428,7955 4428,8131 4252,8131 4252,7955 4428,7955 4252,7955 4252,7779 4252,7955 4428,7955 4428,7779 4428,7602 4604,7602 4781,7602 4781,7779 4604,7779 4604,7955 4604,7779 4604,7955 4428,7955 4428,7779 4428,7955 4428,7779 4604,7779 4604,7955 4428,7955 4428,8131 4428,7955 4428,8131 4428,7955 4428,8131 4428,8308 4604,8308 4604,8484 4781,8484 4957,8484 4957,8661 4781,8661 4781,8484 4604,8484 4428,8484 4428,8308 4252,8308 4428,8308 4252,8308 4252,8131 4075,8131 3899,8131 3899,8308 3899,8484 3722,8484 3722,8661 3899,8661 3722,8661 3546,8661 3546,8837 3370,8837 3546,8837 3722,8837 3722,9013 3899,9013 3722,9013 3546,9013 3546,8837 3722,8837 3546,8837 3546,9013 3546,8837 3370,8837 3370,8661 3546,8661 3370,8661 3193,8661 3193,8837 3193,8661 3193,8484 3193,8308 3017,8308 3017,8131 3017,7955 3017,8131 2841,8131 2841,8308 2841,8484 2664,8484 2664,8661 2664,8484 2488,8484 2488,8308 2311,8308 2311,8484 2311,8661 2311,8484 2135,8484 2311,8484 2311,8661 2311,8484 2311,8661 2135,8661 2135,8837 1959,8837 1959,9013 1959,9190 1782,9190 1782,9013 1959,9013 1782,9013 1782,9190 1606,9190 1606,9366 1606,9543 1606,9719 1606,9543 1429,9543 1253,9543 1253,9366 1429,9366 1606,9366 1606,9543 1606,9366 1606,9190 1429,9190 1253,9190 1429,9190 1429,9013 1429,8837 1429,8661 1253,8661 1253,8484 1077,8484 1077,8308 900,8308 900,8131 900,8308 724,8308 724,8484 724,8308 900,8308 900,8131 724,8131 900,8131 900,8308 1077,8308 1253,8308 1077,8308 900,8308 724,8308 547,8308 371,8308 371,8131 547,8131 547,7955 371,7955 371,7779 195,7779 195,7602 195,7426 371,7426 195,7426 195,7250 195,7073 18,7073 195,7073 195,7250 371,7250 371,7426 547,7426 547,7250 547,7073 371,7073 371,6897 547,6897 547,7073 371,7073 547,7073 724,7073 900,7073 1077,7073 900,7073 900,7250 900,7426"/>
      </g>
     </g>
    </g>
   </g>
  </g>
 </g>
<link xmlns="" type="text/css" rel="stylesheet" id="dark-mode-general-link"/><link xmlns="" type="text/css" rel="stylesheet" id="dark-mode-custom-link"/><style xmlns="" type="text/css" id="dark-mode-custom-style"/></svg>