<?xml version="1.0" encoding="UTF-8" standalone="no"?>
<!-- Created with Inkscape (http://www.inkscape.org/) -->

<svg
   xmlns:dc="http://purl.org/dc/elements/1.1/"
   xmlns:cc="http://creativecommons.org/ns#"
   xmlns:rdf="http://www.w3.org/1999/02/22-rdf-syntax-ns#"
   xmlns:svg="http://www.w3.org/2000/svg"
   xmlns="http://www.w3.org/2000/svg"
   xmlns:sodipodi="http://sodipodi.sourceforge.net/DTD/sodipodi-0.dtd"
   xmlns:inkscape="http://www.inkscape.org/namespaces/inkscape"
   width="102.49431mm"
   height="135.8049mm"
   viewBox="0 0 363.16881 481.19847"
   id="svg2"
   version="1.1"
   inkscape:version="0.91 r13725"
   sodipodi:docname="sunrain.svg">
  <defs
     id="defs4" />
  <sodipodi:namedview
     id="base"
     pagecolor="#ffffff"
     bordercolor="#666666"
     borderopacity="1.0"
     inkscape:pageopacity="0.0"
     inkscape:pageshadow="2"
     inkscape:zoom="0.76061728"
     inkscape:cx="468.44075"
     inkscape:cy="194.24108"
     inkscape:document-units="px"
     inkscape:current-layer="layer1"
     showgrid="false"
     fit-margin-top="0"
     fit-margin-left="0"
     fit-margin-right="0"
     fit-margin-bottom="0"
     inkscape:window-width="1364"
     inkscape:window-height="726"
     inkscape:window-x="0"
     inkscape:window-y="20"
     inkscape:window-maximized="1" />
  <metadata
     id="metadata7">
    <rdf:RDF>
      <cc:Work
         rdf:about="">
        <dc:format>image/svg+xml</dc:format>
        <dc:type
           rdf:resource="http://purl.org/dc/dcmitype/StillImage" />
        <dc:title></dc:title>
      </cc:Work>
    </rdf:RDF>
  </metadata>
  <g
     inkscape:label="Layer 1"
     inkscape:groupmode="layer"
     id="layer1"
     transform="translate(-175.07833,-86.048698)">
    <g
       id="g3005"
       transform="translate(87.720629,59.320767)"
       style="stroke:#000000">
      <ellipse
         ry="60.187183"
         rx="66.653572"
         cy="146.16386"
         cx="189.01759"
         transform="matrix(0.90707302,0,0,1.0045271,213.17166,246.29877)"
         id="path1308"
         style="fill:none;stroke:#000000;stroke-width:12;stroke-linecap:butt;stroke-linejoin:miter;stroke-miterlimit:4;stroke-dasharray:none;stroke-dashoffset:0;stroke-opacity:1" />
    </g>
    <g
       id="g3010"
       transform="translate(89.720629,55.320767)"
       style="stroke:#000000">
      <ellipse
         ry="60.187183"
         rx="66.653572"
         cy="146.16386"
         cx="189.01759"
         transform="matrix(0.90707302,0,0,1.0045271,-20.192963,27.415252)"
         id="path1306"
         style="fill:none;stroke:#000000;stroke-width:12;stroke-linecap:butt;stroke-linejoin:miter;stroke-miterlimit:4;stroke-dasharray:none;stroke-dashoffset:0;stroke-opacity:1" />
    </g>
    <g
       id="g3027"
       transform="translate(89.720629,55.320767)"
       style="stroke:#000000">
      <path
         inkscape:connector-curvature="0"
         sodipodi:nodetypes="cc"
         id="path1314"
         d="m 167.42126,110.88468 c 118.1797,-204.000693 287.00786,74.56577 61.90365,50.64845"
         style="fill:none;fill-opacity:0.75;fill-rule:evenodd;stroke:#000000;stroke-width:10;stroke-linecap:butt;stroke-linejoin:miter;stroke-miterlimit:4;stroke-dasharray:none;stroke-opacity:1" />
      <path
         transform="matrix(0.989283,0.146243,-0.14622,0.989129,825.9054,302.1034)"
         d="m -558.53979,-34.026159 -52.36829,-17.599799 41.42602,-36.55237 z"
         inkscape:randomized="0"
         inkscape:rounded="0"
         inkscape:flatsided="true"
         sodipodi:arg2="1.8950145"
         sodipodi:arg1="0.84781697"
         sodipodi:r2="15.948329"
         sodipodi:r1="31.89666"
         sodipodi:cy="-57.943481"
         sodipodi:cx="-579.64331"
         sodipodi:sides="3"
         id="path1318"
         style="fill:#000000;fill-opacity:1;stroke:#000000;stroke-width:10.00043964;stroke-linecap:butt;stroke-linejoin:miter;stroke-miterlimit:4;stroke-dasharray:none;stroke-dashoffset:0;stroke-opacity:1"
         sodipodi:type="star" />
    </g>
    <g
       id="g3023"
       transform="translate(89.720629,55.320767)"
       style="stroke:#000000">
      <path
         inkscape:connector-curvature="0"
         sodipodi:nodetypes="cc"
         id="path1316"
         d="M 310.08895,387.14938 C 56.846717,328.05953 130.08361,617.05706 328.4567,453.85651"
         style="fill:none;stroke:#000000;stroke-width:10;stroke-linecap:butt;stroke-linejoin:miter;stroke-miterlimit:4;stroke-dasharray:none;stroke-opacity:1" />
      <path
         transform="matrix(0.74057,0.631429,-0.674196,0.775357,691.0375,880.995)"
         d="m -558.53979,-34.026159 -52.36829,-17.599799 41.42602,-36.55237 z"
         inkscape:randomized="0"
         inkscape:rounded="0"
         inkscape:flatsided="true"
         sodipodi:arg2="1.8950145"
         sodipodi:arg1="0.84781697"
         sodipodi:r2="15.948329"
         sodipodi:r1="31.89666"
         sodipodi:cy="-57.943481"
         sodipodi:cx="-579.64331"
         sodipodi:sides="3"
         id="path1320"
         style="fill:#000000;fill-opacity:1;stroke:#000000;stroke-width:10.00043488;stroke-linecap:butt;stroke-linejoin:miter;stroke-miterlimit:4;stroke-dasharray:none;stroke-dashoffset:0;stroke-opacity:1"
         sodipodi:type="star" />
    </g>
    <g
       id="g3019"
       transform="translate(89.720629,55.320767)"
       style="stroke:#000000">
      <path
         inkscape:connector-curvature="0"
         sodipodi:nodetypes="cs"
         id="path1312"
         d="M 317.44591,372.4804 C 169.01782,350.67342 180.69081,242.72392 181.85579,241.81443"
         style="fill:none;fill-opacity:0.75;fill-rule:evenodd;stroke:#000000;stroke-width:10;stroke-linecap:butt;stroke-linejoin:miter;stroke-miterlimit:4;stroke-dasharray:none;stroke-opacity:1" />
      <path
         transform="matrix(0.937052,-0.349287,0.349233,0.936906,745.3351,125.6772)"
         d="m -558.53979,-34.026159 -52.36829,-17.599799 41.42602,-36.55237 z"
         inkscape:randomized="0"
         inkscape:rounded="0"
         inkscape:flatsided="true"
         sodipodi:arg2="1.8950145"
         sodipodi:arg1="0.84781697"
         sodipodi:r2="15.948329"
         sodipodi:r1="31.89666"
         sodipodi:cy="-57.943481"
         sodipodi:cx="-579.64331"
         sodipodi:sides="3"
         id="path1322"
         style="fill:#000000;fill-opacity:1;stroke:#000000;stroke-width:10.00043869;stroke-linecap:butt;stroke-linejoin:miter;stroke-miterlimit:4;stroke-dasharray:none;stroke-dashoffset:0;stroke-opacity:1"
         sodipodi:type="star" />
    </g>
    <g
       id="g3015"
       transform="translate(89.720629,55.320767)"
       style="stroke:#000000">
      <path
         inkscape:connector-curvature="0"
         sodipodi:nodetypes="cs"
         id="path1310"
         d="m 218.0697,198.11255 c 148.42809,21.80698 126.16067,132.72633 124.99569,133.63582"
         style="fill:none;stroke:#000000;stroke-width:10;stroke-linecap:butt;stroke-linejoin:miter;stroke-miterlimit:4;stroke-dasharray:none;stroke-opacity:1" />
      <path
         transform="matrix(0.746444,0.6655,-0.665396,0.746328,738.3938,729.9089)"
         d="m -558.53979,-34.026159 -52.36829,-17.599799 41.42602,-36.55237 z"
         inkscape:randomized="0"
         inkscape:rounded="0"
         inkscape:flatsided="true"
         sodipodi:arg2="1.8950145"
         sodipodi:arg1="0.84781697"
         sodipodi:r2="15.948329"
         sodipodi:r1="31.89666"
         sodipodi:cy="-57.943481"
         sodipodi:cx="-579.64331"
         sodipodi:sides="3"
         id="path1324"
         style="fill:#000000;fill-opacity:1;stroke:#000000;stroke-width:10.00043488;stroke-linecap:butt;stroke-linejoin:miter;stroke-miterlimit:4;stroke-dasharray:none;stroke-dashoffset:0;stroke-opacity:1"
         sodipodi:type="star" />
    </g>
    <g
       id="g3580"
       transform="matrix(0.19303538,0,0,0.19303538,191.56336,180.14462)">
      <g
         id="g3554" />
      <path
         id="path3556"
         d="m 377.139,259.492 c 0,66.637 -54.02,120.658 -120.658,120.658 -66.637,0 -120.658,-54.021 -120.658,-120.658 0,-66.637 54.02,-120.658 120.658,-120.658 66.637,0 120.658,54.02 120.658,120.658 z"
         inkscape:connector-curvature="0"
         style="fill:#000000" />
      <path
         id="path3558"
         d="m 228.352,100.669 30.27,-77.906 25.979,77.906 z"
         inkscape:connector-curvature="0"
         style="fill:#000000" />
      <path
         id="path3560"
         d="m 228.352,411.341 30.27,77.895 25.979,-77.895 z"
         inkscape:connector-curvature="0"
         style="fill:#000000" />
      <path
         id="path3562"
         d="m 100.659,287.601 -77.895,-30.29 77.895,-25.959 z"
         inkscape:connector-curvature="0"
         style="fill:#000000" />
      <path
         id="path3564"
         d="m 411.361,287.601 77.875,-30.29 -77.875,-25.959 z"
         inkscape:connector-curvature="0"
         style="fill:#000000" />
      <path
         id="path3566"
         d="m 126.597,165.703 -33.659,-76.472 73.442,36.7 z"
         inkscape:connector-curvature="0"
         style="fill:#000000" />
      <path
         id="path3568"
         d="M 346.276,385.423 422.8,419.062 386.059,345.62 Z"
         inkscape:connector-curvature="0"
         style="fill:#000000" />
      <path
         id="path3570"
         d="m 168.499,388.199 -76.493,33.639 36.72,-73.442 z"
         inkscape:connector-curvature="0"
         style="fill:#000000" />
      <path
         id="path3572"
         d="m 388.199,168.499 33.618,-76.513 -73.4,36.751 z"
         inkscape:connector-curvature="0"
         style="fill:#000000" />
    </g>
    <g
       id="g3651"
       transform="matrix(0.15023736,0,0,0.15023736,433.88428,415.55342)">
      <path
         id="path3653"
         d="M 441.953,142.352 C 437.506,73.48 380.244,18.992 310.248,18.992 c -59.481,0 -109.766,39.346 -126.264,93.429 -9.244,-3.5 -19.259,-5.431 -29.729,-5.431 -42.84,0 -78.164,32.08 -83.322,73.523 -0.309,-0.004 -0.614,-0.023 -0.924,-0.023 -36.863,0 -66.747,29.883 -66.747,66.747 0,36.864 29.883,66.746 66.747,66.746 4.386,0 8.669,-0.436 12.819,-1.243 20.151,27.069 52.394,44.604 88.734,44.604 31.229,0 59.429,-12.952 79.533,-33.772 15.071,15.091 35.901,24.428 58.913,24.428 31.43,0 58.783,-17.42 72.955,-43.127 11.676,5.824 24.844,9.106 38.777,9.106 48.047,0 86.998,-38.949 86.998,-86.996 0,-41.088 -28.486,-75.518 -66.785,-84.631 z"
         inkscape:connector-curvature="0" />
      <g
         id="_x23_1e1e1cff">
        <path
           id="path3656"
           d="m 351.512,430.684 c 6.811,-25.64 18.34,-49.771 30.301,-73.341 11.959,23.57 23.49,47.711 30.299,73.341 4.682,17.81 -0.77,39.47 -16.488,50.18 -9.59,6.63 -23.281,4.979 -31.551,-3.04 -12.641,-11.64 -16.86,-30.801 -12.561,-47.14 z"
           inkscape:connector-curvature="0" />
      </g>
      <g
         id="_x23_1e1e1cff_1_">
        <path
           id="path3659"
           d="m 212.02,438.715 c 6.81,-25.64 18.34,-49.771 30.3,-73.341 11.96,23.57 23.489,47.711 30.3,73.341 4.68,17.81 -0.771,39.47 -16.489,50.18 -9.59,6.63 -23.281,4.979 -31.551,-3.04 -12.641,-11.64 -16.86,-30.8 -12.56,-47.14 z"
           inkscape:connector-curvature="0" />
      </g>
      <g
         id="_x23_1e1e1cff_2_">
        <path
           id="path3662"
           d="m 63.527,430.684 c 6.81,-25.64 18.34,-49.771 30.3,-73.341 11.96,23.57 23.49,47.711 30.3,73.341 4.681,17.81 -0.771,39.47 -16.489,50.18 -9.59,6.63 -23.281,4.979 -31.551,-3.04 -12.64,-11.64 -16.859,-30.801 -12.56,-47.14 z"
           inkscape:connector-curvature="0" />
      </g>
    </g>
    <g
       id="layer1-7"
       transform="matrix(0.16426795,0,0,0.16426795,135.746,414.46242)">
      <path
         style="font-style:normal;font-weight:normal;font-size:400px;font-family:'Times New Roman';text-align:start;text-anchor:start;fill:#000000;fill-opacity:1;stroke:none;stroke-width:1px;stroke-linecap:butt;stroke-linejoin:miter;stroke-opacity:1"
         id="text5540"
         d="m 402.72333,925.91455 -32.22656,0 c 4.68747,-22.00527 7.03122,-41.92713 7.03125,-59.76562 l 0,-212.69532 c -3e-5,-22.1352 1.95309,-38.60654 5.85937,-49.41406 4.03642,-10.80704 11.78381,-20.31224 23.24219,-28.51562 11.58847,-8.33306 26.04158,-12.49973 43.35937,-12.5 20.5728,2.7e-4 37.82538,5.46902 51.75782,16.40625 14.06233,10.80754 21.09357,26.23721 21.09375,46.28906 -1.8e-4,23.43769 -11.13298,42.6434 -33.39844,57.61719 33.20295,15.62514 49.80449,40.16938 49.80469,73.63281 -2e-4,18.22923 -4.42727,34.57036 -13.28125,49.02344 -8.72413,14.32293 -18.88037,24.54428 -30.46875,30.66406 -11.45847,6.11979 -25.19544,9.17968 -41.21094,9.17969 -18.22926,-10e-6 -33.07299,-6.83594 -44.53125,-20.50782 l 0,36.32813 c -6e-5,24.99995 -2.34381,46.4192 -7.03125,64.25781 m 7.03125,-118.16406 c 10.15618,16.79689 24.34887,25.19532 42.57812,25.19531 17.57801,1e-5 30.46862,-6.38019 38.67188,-19.14062 8.20297,-12.89059 12.30453,-28.51557 12.30469,-46.875 -1.6e-4,-14.06242 -2.73453,-28.38532 -8.20313,-42.96875 -5.33868,-14.71341 -12.23972,-25.91132 -20.70312,-33.59375 -7.81262,1.95327 -14.84387,2.92983 -21.09375,2.92968 -13.15114,1.5e-4 -19.72665,-3.45037 -19.72657,-10.35156 -8e-5,-6.24984 5.53377,-9.37483 16.60157,-9.375 6.90093,1.7e-4 15.49467,1.56267 25.78125,4.6875 9.24465,-15.62482 13.86704,-32.61699 13.86718,-50.97656 -1.4e-4,-16.40602 -3.64597,-28.97111 -10.9375,-37.69531 -7.16158,-8.7237 -16.53657,-13.08568 -28.125,-13.08594 -9.24488,2.6e-4 -17.18758,2.60443 -23.82812,7.8125 -6.51049,5.20858 -11.00267,11.45858 -13.47656,18.75 -2.47403,7.16169 -3.711,18.94553 -3.71094,35.35156 l 0,169.33594"
         inkscape:connector-curvature="0" />
    </g>
    <g
       transform="matrix(0.81172934,0,0,0.81172934,430.39347,-729.76511)"
       id="layer1-4"
       inkscape:label="Layer 1">
      <path
         d="m 49.836388,1040.3156 -5.2,0 c -0.24,1.84 -0.48,2.96 -0.63999,3.36 -0.24001,0.4 -0.64001,0.56 -1.12001,0.56 -1.04,0 -1.92,-0.88 -2.72,-2.8 -0.47999,-0.8 -1.2,-3.12 -2.32,-6.88 3.2,-11.2 5.52,-19.28 6.96,-24.4 l -7.2,0 -3.76,12.88 c -2.08,-5.12 -4.08,-8.72 -6.08,-10.72 -2.31999,-2.08 -5.44,-3.1201 -9.44,-3.2001 -6.15999,0 -10.8,2.2401 -13.76,6.6401 -2.55999,3.68 -3.84,8.48 -3.84,14.4 0,6 1.36001,10.88 4.08,14.72 2.96,4.24 7.12001,6.32 12.48,6.32 6.07999,0 11.36,-2.88 16,-8.8 2.24,5.92 5.04,8.8 8.48,8.8 4.55999,0 7.2,-3.6 8.08,-10.88 m -19.27999,-6.32 c -2.48001,7.76 -6.08002,11.6 -10.72001,11.6 -7.67999,0 -11.44,-5.12 -11.44,-15.44 0,-10.56 3.36001,-15.84 10.08,-15.84 2.96001,0 5.76,2.64 8.24001,7.76 1.51999,3.36 2.79999,7.36 3.84,11.92"
         style="font-style:normal;font-variant:normal;font-weight:normal;font-stretch:normal;font-size:80px;line-height:125%;font-family:'Cam Cam SILSophiaL';-inkscape-font-specification:'Cam Cam SILSophiaL';text-align:start;letter-spacing:0px;word-spacing:0px;writing-mode:lr-tb;text-anchor:start;fill:#000000;fill-opacity:1;stroke:none"
         id="path3765"
         inkscape:connector-curvature="0" />
    </g>
    <text
       xml:space="preserve"
       style="font-style:normal;font-weight:normal;font-size:56.4711113px;line-height:125%;font-family:Sans;letter-spacing:0px;word-spacing:0px;fill:#000000;fill-opacity:1;stroke:none;stroke-width:1px;stroke-linecap:butt;stroke-linejoin:miter;stroke-opacity:1"
       x="409.83466"
       y="288.25821"
       id="text3838"
       sodipodi:linespacing="125%"><tspan
         sodipodi:role="line"
         id="tspan3840"
         x="409.83466"
         y="288.25821">1-</tspan></text>
    <text
       xml:space="preserve"
       style="font-style:normal;font-weight:normal;font-size:56.4711113px;line-height:125%;font-family:Sans;letter-spacing:0px;word-spacing:0px;fill:#000000;fill-opacity:1;stroke:none;stroke-width:1px;stroke-linecap:butt;stroke-linejoin:miter;stroke-opacity:1"
       x="182.81068"
       y="401.32062"
       id="text3838-2"
       sodipodi:linespacing="125%"><tspan
         sodipodi:role="line"
         id="tspan3840-4"
         x="182.81068"
         y="401.32062">1-</tspan></text>
    <g
       id="layer1-7-9"
       transform="matrix(0.16426795,0,0,0.16426795,186.53104,265.38022)">
      <path
         style="font-style:normal;font-weight:normal;font-size:400px;font-family:'Times New Roman';text-align:start;text-anchor:start;fill:#000000;fill-opacity:1;stroke:none;stroke-width:1px;stroke-linecap:butt;stroke-linejoin:miter;stroke-opacity:1"
         id="text5540-5"
         d="m 402.72333,925.91455 -32.22656,0 c 4.68747,-22.00527 7.03122,-41.92713 7.03125,-59.76562 l 0,-212.69532 c -3e-5,-22.1352 1.95309,-38.60654 5.85937,-49.41406 4.03642,-10.80704 11.78381,-20.31224 23.24219,-28.51562 11.58847,-8.33306 26.04158,-12.49973 43.35937,-12.5 20.5728,2.7e-4 37.82538,5.46902 51.75782,16.40625 14.06233,10.80754 21.09357,26.23721 21.09375,46.28906 -1.8e-4,23.43769 -11.13298,42.6434 -33.39844,57.61719 33.20295,15.62514 49.80449,40.16938 49.80469,73.63281 -2e-4,18.22923 -4.42727,34.57036 -13.28125,49.02344 -8.72413,14.32293 -18.88037,24.54428 -30.46875,30.66406 -11.45847,6.11979 -25.19544,9.17968 -41.21094,9.17969 -18.22926,-10e-6 -33.07299,-6.83594 -44.53125,-20.50782 l 0,36.32813 c -6e-5,24.99995 -2.34381,46.4192 -7.03125,64.25781 m 7.03125,-118.16406 c 10.15618,16.79689 24.34887,25.19532 42.57812,25.19531 17.57801,1e-5 30.46862,-6.38019 38.67188,-19.14062 8.20297,-12.89059 12.30453,-28.51557 12.30469,-46.875 -1.6e-4,-14.06242 -2.73453,-28.38532 -8.20313,-42.96875 -5.33868,-14.71341 -12.23972,-25.91132 -20.70312,-33.59375 -7.81262,1.95327 -14.84387,2.92983 -21.09375,2.92968 -13.15114,1.5e-4 -19.72665,-3.45037 -19.72657,-10.35156 -8e-5,-6.24984 5.53377,-9.37483 16.60157,-9.375 6.90093,1.7e-4 15.49467,1.56267 25.78125,4.6875 9.24465,-15.62482 13.86704,-32.61699 13.86718,-50.97656 -1.4e-4,-16.40602 -3.64597,-28.97111 -10.9375,-37.69531 -7.16158,-8.7237 -16.53657,-13.08568 -28.125,-13.08594 -9.24488,2.6e-4 -17.18758,2.60443 -23.82812,7.8125 -6.51049,5.20858 -11.00267,11.45858 -13.47656,18.75 -2.47403,7.16169 -3.711,18.94553 -3.71094,35.35156 l 0,169.33594"
         inkscape:connector-curvature="0" />
    </g>
    <g
       transform="matrix(0.81172934,0,0,0.81172934,473.08666,-565.289)"
       id="layer1-4-6"
       inkscape:label="Layer 1">
      <path
         d="m 49.836388,1040.3156 -5.2,0 c -0.24,1.84 -0.48,2.96 -0.63999,3.36 -0.24001,0.4 -0.64001,0.56 -1.12001,0.56 -1.04,0 -1.92,-0.88 -2.72,-2.8 -0.47999,-0.8 -1.2,-3.12 -2.32,-6.88 3.2,-11.2 5.52,-19.28 6.96,-24.4 l -7.2,0 -3.76,12.88 c -2.08,-5.12 -4.08,-8.72 -6.08,-10.72 -2.31999,-2.08 -5.44,-3.1201 -9.44,-3.2001 -6.15999,0 -10.8,2.2401 -13.76,6.6401 -2.55999,3.68 -3.84,8.48 -3.84,14.4 0,6 1.36001,10.88 4.08,14.72 2.96,4.24 7.12001,6.32 12.48,6.32 6.07999,0 11.36,-2.88 16,-8.8 2.24,5.92 5.04,8.8 8.48,8.8 4.55999,0 7.2,-3.6 8.08,-10.88 m -19.27999,-6.32 c -2.48001,7.76 -6.08002,11.6 -10.72001,11.6 -7.67999,0 -11.44,-5.12 -11.44,-15.44 0,-10.56 3.36001,-15.84 10.08,-15.84 2.96001,0 5.76,2.64 8.24001,7.76 1.51999,3.36 2.79999,7.36 3.84,11.92"
         style="font-style:normal;font-variant:normal;font-weight:normal;font-stretch:normal;font-size:80px;line-height:125%;font-family:'Cam Cam SILSophiaL';-inkscape-font-specification:'Cam Cam SILSophiaL';text-align:start;letter-spacing:0px;word-spacing:0px;writing-mode:lr-tb;text-anchor:start;fill:#000000;fill-opacity:1;stroke:none"
         id="path3765-3"
         inkscape:connector-curvature="0" />
    </g>
  </g>
</svg>
