<?xml version="1.0" encoding="UTF-8" standalone="no"?>
<!-- Created with Inkscape (http://www.inkscape.org/) -->

<svg
   xmlns:dc="http://purl.org/dc/elements/1.1/"
   xmlns:cc="http://creativecommons.org/ns#"
   xmlns:rdf="http://www.w3.org/1999/02/22-rdf-syntax-ns#"
   xmlns:svg="http://www.w3.org/2000/svg"
   xmlns="http://www.w3.org/2000/svg"
   xmlns:xlink="http://www.w3.org/1999/xlink"
   xmlns:sodipodi="http://sodipodi.sourceforge.net/DTD/sodipodi-0.dtd"
   xmlns:inkscape="http://www.inkscape.org/namespaces/inkscape"
   width="208.46426"
   height="171.78206"
   id="svg2"
   version="1.1"
   inkscape:version="0.48.5 r10040"
   sodipodi:docname="New document 1">
  <defs
     id="defs4">
    <radialGradient
       id="radialGradient3644"
       gradientUnits="userSpaceOnUse"
       r="2.5697"
       cy="2.5697"
       cx="2.5697"
       fy="3.6656001"
       fx="1.67305">
      <stop
         id="stop3646"
         offset="0"
         style="stop-opacity:1;stop-color:#e0e0f4" />
      <stop
         id="stop3648"
         offset="0.797"
         style="stop-opacity:1;stop-color:#6666c6" />
      <stop
         id="stop3650"
         offset="1.59401"
         style="stop-opacity:1;stop-color:#24247d" />
      <stop
         id="stop3652"
         offset="2.1918"
         style="stop-opacity:1;stop-color:#191959" />
      <stop
         id="stop3654"
         offset="2.5697"
         style="stop-opacity:1;stop-color:#ffffff" />
    </radialGradient>
    <clipPath
       id="clipPath3640"
       clipPathUnits="userSpaceOnUse">
      <path
         id="path3642"
         d="m 0,0 5.139,0 0,5.139 L 0,5.139 0,0 z"
         inkscape:connector-curvature="0" />
    </clipPath>
    <clipPath
       id="clipPath3562"
       clipPathUnits="userSpaceOnUse">
      <path
         id="path3564"
         d="m 0,393.798 466.433,0 L 466.433,0 0,0 0,393.798 z"
         inkscape:connector-curvature="0" />
    </clipPath>
    <clipPath
       id="clipPath3458"
       clipPathUnits="userSpaceOnUse">
      <path
         id="path3460"
         d="m 0,393.798 466.433,0 L 466.433,0 0,0 0,393.798 z"
         inkscape:connector-curvature="0" />
    </clipPath>
    <clipPath
       id="clipPath3332"
       clipPathUnits="userSpaceOnUse">
      <path
         id="path3334"
         d="m 0,0 466.433,0 0,393.798 L 0,393.798 0,0 z"
         inkscape:connector-curvature="0" />
    </clipPath>
    <radialGradient
       id="radialGradient3242"
       gradientUnits="userSpaceOnUse"
       r="2.5697"
       cy="2.5697"
       cx="2.5697"
       fy="3.6656001"
       fx="1.67305">
      <stop
         id="stop3244"
         offset="0"
         style="stop-opacity:1;stop-color:#e0e0f4" />
      <stop
         id="stop3246"
         offset="0.797"
         style="stop-opacity:1;stop-color:#6666c6" />
      <stop
         id="stop3248"
         offset="1.59401"
         style="stop-opacity:1;stop-color:#24247d" />
      <stop
         id="stop3250"
         offset="2.1918"
         style="stop-opacity:1;stop-color:#191959" />
      <stop
         id="stop3252"
         offset="2.5697"
         style="stop-opacity:1;stop-color:#ffffff" />
    </radialGradient>
    <clipPath
       id="clipPath3238"
       clipPathUnits="userSpaceOnUse">
      <path
         id="path3240"
         d="m 0,0 5.139,0 0,5.139 L 0,5.139 0,0 z"
         inkscape:connector-curvature="0" />
    </clipPath>
    <linearGradient
       id="linearGradient3222"
       gradientUnits="userSpaceOnUse"
       y2="3.9851"
       x2="0"
       y1="0"
       x1="0">
      <stop
         id="stop3224"
         offset="0"
         style="stop-opacity:1;stop-color:#ffffff" />
      <stop
         id="stop3226"
         offset="1"
         style="stop-opacity:1;stop-color:#808080" />
    </linearGradient>
    <clipPath
       id="clipPath3218"
       clipPathUnits="userSpaceOnUse">
      <path
         id="path3220"
         d="m 0,0 362.835,0 0,3.985 L 0,3.985 0,0 z"
         inkscape:connector-curvature="0" />
    </clipPath>
    <linearGradient
       id="linearGradient3198"
       gradientUnits="userSpaceOnUse"
       y2="0"
       x2="362.83939"
       y1="0"
       x1="0">
      <stop
         id="stop3200"
         offset="0"
         style="stop-opacity:1;stop-color:#3333b3" />
      <stop
         id="stop3202"
         offset="1"
         style="stop-opacity:1;stop-color:#000000" />
    </linearGradient>
    <clipPath
       id="clipPath3194"
       clipPathUnits="userSpaceOnUse">
      <path
         id="path3196"
         d="m 0,0 362.835,0 0,272.126 L 0,272.126 0,0 z"
         inkscape:connector-curvature="0" />
    </clipPath>
    <clipPath
       id="clipPath3180"
       clipPathUnits="userSpaceOnUse">
      <path
         id="path3182"
         d="m 0,0 362.8394,0 0,20.52338 L 0,20.52338 0,0 z"
         inkscape:connector-curvature="0" />
    </clipPath>
    <linearGradient
       inkscape:collect="always"
       xlink:href="#linearGradient3222"
       id="linearGradient5243"
       gradientUnits="userSpaceOnUse"
       x1="0"
       y1="0"
       x2="0"
       y2="3.9851" />
    <radialGradient
       inkscape:collect="always"
       xlink:href="#radialGradient3242"
       id="radialGradient5478"
       gradientUnits="userSpaceOnUse"
       cx="2.5697"
       cy="2.5697"
       fx="1.67305"
       fy="3.6656001"
       r="2.5697" />
    <linearGradient
       inkscape:collect="always"
       xlink:href="#linearGradient3198"
       id="linearGradient5483"
       gradientUnits="userSpaceOnUse"
       x1="0"
       y1="0"
       x2="362.83939"
       y2="0" />
    <radialGradient
       inkscape:collect="always"
       xlink:href="#radialGradient3644"
       id="radialGradient5490"
       gradientUnits="userSpaceOnUse"
       cx="2.5697"
       cy="2.5697"
       fx="1.67305"
       fy="3.6656001"
       r="2.5697" />
  </defs>
  <sodipodi:namedview
     id="base"
     pagecolor="#ffffff"
     bordercolor="#666666"
     borderopacity="1.0"
     inkscape:pageopacity="0.0"
     inkscape:pageshadow="2"
     inkscape:zoom="0.81498614"
     inkscape:cx="104.23213"
     inkscape:cy="85.891031"
     inkscape:document-units="px"
     inkscape:current-layer="layer1"
     showgrid="false"
     fit-margin-top="0"
     fit-margin-left="0"
     fit-margin-right="0"
     fit-margin-bottom="0"
     inkscape:window-width="1368"
     inkscape:window-height="728"
     inkscape:window-x="0"
     inkscape:window-y="20"
     inkscape:window-maximized="0" />
  <metadata
     id="metadata7">
    <rdf:RDF>
      <cc:Work
         rdf:about="">
        <dc:format>image/svg+xml</dc:format>
        <dc:type
           rdf:resource="http://purl.org/dc/dcmitype/StillImage" />
        <dc:title></dc:title>
      </cc:Work>
    </rdf:RDF>
  </metadata>
  <g
     inkscape:label="Layer 1"
     inkscape:groupmode="layer"
     id="layer1"
     transform="translate(-297.838,-659.67128)">
    <g
       transform="matrix(0.4482125,0,0,-0.4482125,297.47226,835.36955)"
       id="g3324">
      <g
         id="g3326">
        <g
           id="g3328">
          <g
             clip-path="url(#clipPath3332)"
             id="g3330">
            <path
               id="path3336"
               style="fill:none;stroke:#ffffff;stroke-width:2;stroke-linecap:butt;stroke-linejoin:round;stroke-miterlimit:10;stroke-opacity:1;stroke-dasharray:none"
               d="m 22.685,386.449 433.973,0 0,-341.26 -433.973,0 0,341.26 z"
               inkscape:connector-curvature="0" />
            <g
               transform="translate(22.6851,45.1885)"
               id="g3338">
              <path
                 id="path3340"
                 style="fill:none;stroke:#000000;stroke-width:0.5;stroke-linecap:butt;stroke-linejoin:round;stroke-miterlimit:10;stroke-opacity:1;stroke-dasharray:none"
                 d="M 0,0 433.973,0"
                 inkscape:connector-curvature="0" />
            </g>
            <g
               transform="translate(22.6851,386.4487)"
               id="g3342">
              <path
                 id="path3344"
                 style="fill:none;stroke:#000000;stroke-width:2;stroke-linecap:butt;stroke-linejoin:round;stroke-miterlimit:10;stroke-opacity:1;stroke-dasharray:none"
                 d="M 0,0 433.973,0"
                 inkscape:connector-curvature="0" />
            </g>
            <g
               transform="translate(22.6851,45.1885)"
               id="g3346">
              <path
                 id="path3348"
                 style="fill:none;stroke:#000000;stroke-width:0.5;stroke-linecap:butt;stroke-linejoin:round;stroke-miterlimit:10;stroke-opacity:1;stroke-dasharray:none"
                 d="M 0,0 0,341.26"
                 inkscape:connector-curvature="0" />
            </g>
            <g
               transform="translate(456.6577,45.1885)"
               id="g3350">
              <path
                 id="path3352"
                 style="fill:none;stroke:#000000;stroke-width:0.5;stroke-linecap:butt;stroke-linejoin:round;stroke-miterlimit:10;stroke-opacity:1;stroke-dasharray:none"
                 d="M 0,0 0,341.26"
                 inkscape:connector-curvature="0" />
            </g>
            <g
               transform="translate(22.6851,45.1885)"
               id="g3354">
              <path
                 id="path3356"
                 style="fill:none;stroke:#000000;stroke-width:0.5;stroke-linecap:butt;stroke-linejoin:round;stroke-miterlimit:10;stroke-opacity:1;stroke-dasharray:none"
                 d="M 0,0 433.973,0"
                 inkscape:connector-curvature="0" />
            </g>
            <g
               transform="translate(22.6851,45.1885)"
               id="g3358">
              <path
                 id="path3360"
                 style="fill:none;stroke:#000000;stroke-width:0.5;stroke-linecap:butt;stroke-linejoin:round;stroke-miterlimit:10;stroke-opacity:1;stroke-dasharray:none"
                 d="M 0,0 0,341.26"
                 inkscape:connector-curvature="0" />
            </g>
            <g
               transform="translate(22.6851,45.1885)"
               id="g3362">
              <path
                 id="path3364"
                 style="fill:none;stroke:#000000;stroke-width:0.5;stroke-linecap:butt;stroke-linejoin:round;stroke-miterlimit:10;stroke-opacity:1;stroke-dasharray:none"
                 d="M 0,0 0,4.932"
                 inkscape:connector-curvature="0" />
            </g>
            <g
               transform="translate(22.6851,386.4487)"
               id="g3366">
              <path
                 id="path3368"
                 style="fill:none;stroke:#000000;stroke-width:0.5;stroke-linecap:butt;stroke-linejoin:round;stroke-miterlimit:10;stroke-opacity:1;stroke-dasharray:none"
                 d="M 0,0 0,-3.945"
                 inkscape:connector-curvature="0" />
            </g>
            <text
               id="text3370"
               transform="matrix(1,0,0,-1,20.7124,34.3398)">
              <tspan
                 id="tspan3372"
                 y="0"
                 x="0"
                 style="font-size:12px;font-variant:normal;font-weight:normal;font-stretch:normal;writing-mode:lr-tb;fill:#000000;fill-opacity:1;fill-rule:nonzero;stroke:none;font-family:Helvetica;-inkscape-font-specification:Helvetica">0</tspan>
            </text>
            <g
               transform="translate(109.4795,45.1885)"
               id="g3374">
              <path
                 id="path3376"
                 style="fill:none;stroke:#000000;stroke-width:0.5;stroke-linecap:butt;stroke-linejoin:round;stroke-miterlimit:10;stroke-opacity:1;stroke-dasharray:none"
                 d="M 0,0 0,4.932"
                 inkscape:connector-curvature="0" />
            </g>
            <g
               transform="translate(109.4795,386.4487)"
               id="g3378">
              <path
                 id="path3380"
                 style="fill:none;stroke:#000000;stroke-width:0.5;stroke-linecap:butt;stroke-linejoin:round;stroke-miterlimit:10;stroke-opacity:1;stroke-dasharray:none"
                 d="M 0,0 0,-3.945"
                 inkscape:connector-curvature="0" />
            </g>
            <text
               id="text3382"
               transform="matrix(1,0,0,-1,102.5757,34.3398)">
              <tspan
                 id="tspan3384"
                 sodipodi:role="line"
                 y="0"
                 x="0 6.6719999 10.008"
                 style="font-size:12px;font-variant:normal;font-weight:normal;font-stretch:normal;writing-mode:lr-tb;fill:#000000;fill-opacity:1;fill-rule:nonzero;stroke:none;font-family:Helvetica;-inkscape-font-specification:Helvetica">0.5</tspan>
            </text>
            <g
               transform="translate(196.2734,45.1885)"
               id="g3386">
              <path
                 id="path3388"
                 style="fill:none;stroke:#000000;stroke-width:0.5;stroke-linecap:butt;stroke-linejoin:round;stroke-miterlimit:10;stroke-opacity:1;stroke-dasharray:none"
                 d="M 0,0 0,4.932"
                 inkscape:connector-curvature="0" />
            </g>
            <g
               transform="translate(196.2734,386.4487)"
               id="g3390">
              <path
                 id="path3392"
                 style="fill:none;stroke:#000000;stroke-width:0.5;stroke-linecap:butt;stroke-linejoin:round;stroke-miterlimit:10;stroke-opacity:1;stroke-dasharray:none"
                 d="M 0,0 0,-3.945"
                 inkscape:connector-curvature="0" />
            </g>
            <text
               id="text3394"
               transform="matrix(1,0,0,-1,194.3013,34.3398)">
              <tspan
                 id="tspan3396"
                 y="0"
                 x="0"
                 style="font-size:12px;font-variant:normal;font-weight:normal;font-stretch:normal;writing-mode:lr-tb;fill:#000000;fill-opacity:1;fill-rule:nonzero;stroke:none;font-family:Helvetica;-inkscape-font-specification:Helvetica">1</tspan>
            </text>
            <g
               transform="translate(283.0688,45.1885)"
               id="g3398">
              <path
                 id="path3400"
                 style="fill:none;stroke:#000000;stroke-width:0.5;stroke-linecap:butt;stroke-linejoin:round;stroke-miterlimit:10;stroke-opacity:1;stroke-dasharray:none"
                 d="M 0,0 0,4.932"
                 inkscape:connector-curvature="0" />
            </g>
            <g
               transform="translate(283.0688,386.4487)"
               id="g3402">
              <path
                 id="path3404"
                 style="fill:none;stroke:#000000;stroke-width:0.5;stroke-linecap:butt;stroke-linejoin:round;stroke-miterlimit:10;stroke-opacity:1;stroke-dasharray:none"
                 d="M 0,0 0,-3.945"
                 inkscape:connector-curvature="0" />
            </g>
            <text
               id="text3406"
               transform="matrix(1,0,0,-1,276.1646,34.3398)">
              <tspan
                 id="tspan3408"
                 sodipodi:role="line"
                 y="0"
                 x="0 6.6719999 10.008"
                 style="font-size:12px;font-variant:normal;font-weight:normal;font-stretch:normal;writing-mode:lr-tb;fill:#000000;fill-opacity:1;fill-rule:nonzero;stroke:none;font-family:Helvetica;-inkscape-font-specification:Helvetica">1.5</tspan>
            </text>
            <g
               transform="translate(369.8628,45.1885)"
               id="g3410">
              <path
                 id="path3412"
                 style="fill:none;stroke:#000000;stroke-width:0.5;stroke-linecap:butt;stroke-linejoin:round;stroke-miterlimit:10;stroke-opacity:1;stroke-dasharray:none"
                 d="M 0,0 0,4.932"
                 inkscape:connector-curvature="0" />
            </g>
            <g
               transform="translate(369.8628,386.4487)"
               id="g3414">
              <path
                 id="path3416"
                 style="fill:none;stroke:#000000;stroke-width:0.5;stroke-linecap:butt;stroke-linejoin:round;stroke-miterlimit:10;stroke-opacity:1;stroke-dasharray:none"
                 d="M 0,0 0,-3.945"
                 inkscape:connector-curvature="0" />
            </g>
            <text
               id="text3418"
               transform="matrix(1,0,0,-1,367.8901,34.3398)">
              <tspan
                 id="tspan3420"
                 y="0"
                 x="0"
                 style="font-size:12px;font-variant:normal;font-weight:normal;font-stretch:normal;writing-mode:lr-tb;fill:#000000;fill-opacity:1;fill-rule:nonzero;stroke:none;font-family:Helvetica;-inkscape-font-specification:Helvetica">2</tspan>
            </text>
            <g
               transform="translate(456.6577,45.1885)"
               id="g3422">
              <path
                 id="path3424"
                 style="fill:none;stroke:#000000;stroke-width:0.5;stroke-linecap:butt;stroke-linejoin:round;stroke-miterlimit:10;stroke-opacity:1;stroke-dasharray:none"
                 d="M 0,0 0,4.932"
                 inkscape:connector-curvature="0" />
            </g>
            <g
               transform="translate(456.6577,386.4487)"
               id="g3426">
              <path
                 id="path3428"
                 style="fill:none;stroke:#000000;stroke-width:0.5;stroke-linecap:butt;stroke-linejoin:round;stroke-miterlimit:10;stroke-opacity:1;stroke-dasharray:none"
                 d="M 0,0 0,-3.945"
                 inkscape:connector-curvature="0" />
            </g>
            <text
               id="text3430"
               transform="matrix(1,0,0,-1,449.7534,34.3398)">
              <tspan
                 id="tspan3432"
                 sodipodi:role="line"
                 y="0"
                 x="0 6.6719999 10.008"
                 style="font-size:12px;font-variant:normal;font-weight:normal;font-stretch:normal;writing-mode:lr-tb;fill:#000000;fill-opacity:1;fill-rule:nonzero;stroke:none;font-family:Helvetica;-inkscape-font-specification:Helvetica">2.5</tspan>
            </text>
            <g
               transform="translate(22.6851,45.1885)"
               id="g3434">
              <path
                 id="path3436"
                 style="fill:none;stroke:#000000;stroke-width:0.5;stroke-linecap:butt;stroke-linejoin:round;stroke-miterlimit:10;stroke-opacity:1;stroke-dasharray:none"
                 d="M 0,0 3.945,0"
                 inkscape:connector-curvature="0" />
            </g>
            <g
               transform="translate(456.6577,45.1885)"
               id="g3438">
              <path
                 id="path3440"
                 style="fill:none;stroke:#000000;stroke-width:0.5;stroke-linecap:butt;stroke-linejoin:round;stroke-miterlimit:10;stroke-opacity:1;stroke-dasharray:none"
                 d="M 0,0 -4.933,0"
                 inkscape:connector-curvature="0" />
            </g>
            <text
               id="text3442"
               transform="matrix(1,0,0,-1,8.877,42.2295)">
              <tspan
                 id="tspan3444"
                 sodipodi:role="line"
                 y="0"
                 x="0 7.0079999"
                 style="font-size:12px;font-variant:normal;font-weight:normal;font-stretch:normal;writing-mode:lr-tb;fill:#000000;fill-opacity:1;fill-rule:nonzero;stroke:none;font-family:Helvetica;-inkscape-font-specification:Helvetica">−1</tspan>
            </text>
            <g
               transform="translate(22.6851,83.6543)"
               id="g3446">
              <path
                 id="path3448"
                 style="fill:none;stroke:#000000;stroke-width:0.5;stroke-linecap:butt;stroke-linejoin:round;stroke-miterlimit:10;stroke-opacity:1;stroke-dasharray:none"
                 d="M 0,0 3.945,0"
                 inkscape:connector-curvature="0" />
            </g>
            <g
               transform="translate(456.6577,83.6543)"
               id="g3450">
              <path
                 id="path3452"
                 style="fill:none;stroke:#000000;stroke-width:0.5;stroke-linecap:butt;stroke-linejoin:round;stroke-miterlimit:10;stroke-opacity:1;stroke-dasharray:none"
                 d="M 0,0 -4.933,0"
                 inkscape:connector-curvature="0" />
            </g>
            <g
               id="g3454">
              <g
                 clip-path="url(#clipPath3458)"
                 id="g3456">
                <text
                   id="text3462"
                   transform="matrix(1,0,0,-1,0,80.6953)">
                  <tspan
                     id="tspan3464"
                     sodipodi:role="line"
                     y="0"
                     x="0 7.0079999 13.68 17.016001"
                     style="font-size:12px;font-variant:normal;font-weight:normal;font-stretch:normal;writing-mode:lr-tb;fill:#000000;fill-opacity:1;fill-rule:nonzero;stroke:none;font-family:Helvetica;-inkscape-font-specification:Helvetica">−0.5</tspan>
                </text>
              </g>
            </g>
            <g
               transform="translate(22.6851,121.1338)"
               id="g3466">
              <path
                 id="path3468"
                 style="fill:none;stroke:#000000;stroke-width:0.5;stroke-linecap:butt;stroke-linejoin:round;stroke-miterlimit:10;stroke-opacity:1;stroke-dasharray:none"
                 d="M 0,0 3.945,0"
                 inkscape:connector-curvature="0" />
            </g>
            <g
               transform="translate(456.6577,121.1338)"
               id="g3470">
              <path
                 id="path3472"
                 style="fill:none;stroke:#000000;stroke-width:0.5;stroke-linecap:butt;stroke-linejoin:round;stroke-miterlimit:10;stroke-opacity:1;stroke-dasharray:none"
                 d="M 0,0 -4.933,0"
                 inkscape:connector-curvature="0" />
            </g>
            <text
               id="text3474"
               transform="matrix(1,0,0,-1,14.7944,118.1748)">
              <tspan
                 id="tspan3476"
                 y="0"
                 x="0"
                 style="font-size:10px;font-variant:normal;font-weight:normal;font-stretch:normal;writing-mode:lr-tb;fill:#000000;fill-opacity:1;fill-rule:nonzero;stroke:none;font-family:Helvetica;-inkscape-font-specification:Helvetica">0</tspan>
            </text>
            <g
               transform="translate(22.6851,159.5996)"
               id="g3478">
              <path
                 id="path3480"
                 style="fill:none;stroke:#000000;stroke-width:0.5;stroke-linecap:butt;stroke-linejoin:round;stroke-miterlimit:10;stroke-opacity:1;stroke-dasharray:none"
                 d="M 0,0 3.945,0"
                 inkscape:connector-curvature="0" />
            </g>
            <g
               transform="translate(456.6577,159.5996)"
               id="g3482">
              <path
                 id="path3484"
                 style="fill:none;stroke:#000000;stroke-width:0.5;stroke-linecap:butt;stroke-linejoin:round;stroke-miterlimit:10;stroke-opacity:1;stroke-dasharray:none"
                 d="M 0,0 -4.933,0"
                 inkscape:connector-curvature="0" />
            </g>
            <text
               id="text3486"
               transform="matrix(1,0,0,-1,5.918,156.6406)">
              <tspan
                 id="tspan3488"
                 sodipodi:role="line"
                 y="0"
                 x="0 6.6719999 10.008"
                 style="font-size:12px;font-variant:normal;font-weight:normal;font-stretch:normal;writing-mode:lr-tb;fill:#000000;fill-opacity:1;fill-rule:nonzero;stroke:none;font-family:Helvetica;-inkscape-font-specification:Helvetica">0.5</tspan>
            </text>
            <g
               transform="translate(22.6851,197.0791)"
               id="g3490">
              <path
                 id="path3492"
                 style="fill:none;stroke:#000000;stroke-width:0.5;stroke-linecap:butt;stroke-linejoin:round;stroke-miterlimit:10;stroke-opacity:1;stroke-dasharray:none"
                 d="M 0,0 3.945,0"
                 inkscape:connector-curvature="0" />
            </g>
            <g
               transform="translate(456.6577,197.0791)"
               id="g3494">
              <path
                 id="path3496"
                 style="fill:none;stroke:#000000;stroke-width:0.5;stroke-linecap:butt;stroke-linejoin:round;stroke-miterlimit:10;stroke-opacity:1;stroke-dasharray:none"
                 d="M 0,0 -4.933,0"
                 inkscape:connector-curvature="0" />
            </g>
            <text
               id="text3498"
               transform="matrix(1,0,0,-1,14.7944,194.1201)">
              <tspan
                 id="tspan3500"
                 y="0"
                 x="0"
                 style="font-size:10px;font-variant:normal;font-weight:normal;font-stretch:normal;writing-mode:lr-tb;fill:#000000;fill-opacity:1;fill-rule:nonzero;stroke:none;font-family:Helvetica;-inkscape-font-specification:Helvetica">1</tspan>
            </text>
            <g
               transform="translate(22.6851,235.5449)"
               id="g3502">
              <path
                 id="path3504"
                 style="fill:none;stroke:#000000;stroke-width:0.5;stroke-linecap:butt;stroke-linejoin:round;stroke-miterlimit:10;stroke-opacity:1;stroke-dasharray:none"
                 d="M 0,0 3.945,0"
                 inkscape:connector-curvature="0" />
            </g>
            <g
               transform="translate(456.6577,235.5449)"
               id="g3506">
              <path
                 id="path3508"
                 style="fill:none;stroke:#000000;stroke-width:0.5;stroke-linecap:butt;stroke-linejoin:round;stroke-miterlimit:10;stroke-opacity:1;stroke-dasharray:none"
                 d="M 0,0 -4.933,0"
                 inkscape:connector-curvature="0" />
            </g>
            <text
               id="text3510"
               transform="matrix(1,0,0,-1,5.918,232.5859)">
              <tspan
                 id="tspan3512"
                 sodipodi:role="line"
                 y="0"
                 x="0 6.6719999 10.008"
                 style="font-size:12px;font-variant:normal;font-weight:normal;font-stretch:normal;writing-mode:lr-tb;fill:#000000;fill-opacity:1;fill-rule:nonzero;stroke:none;font-family:Helvetica;-inkscape-font-specification:Helvetica">1.5</tspan>
            </text>
            <g
               transform="translate(22.6851,273.0239)"
               id="g3514">
              <path
                 id="path3516"
                 style="fill:none;stroke:#000000;stroke-width:0.5;stroke-linecap:butt;stroke-linejoin:round;stroke-miterlimit:10;stroke-opacity:1;stroke-dasharray:none"
                 d="M 0,0 3.945,0"
                 inkscape:connector-curvature="0" />
            </g>
            <g
               transform="translate(456.6577,273.0239)"
               id="g3518">
              <path
                 id="path3520"
                 style="fill:none;stroke:#000000;stroke-width:0.5;stroke-linecap:butt;stroke-linejoin:round;stroke-miterlimit:10;stroke-opacity:1;stroke-dasharray:none"
                 d="M 0,0 -4.933,0"
                 inkscape:connector-curvature="0" />
            </g>
            <text
               id="text3522"
               transform="matrix(1,0,0,-1,14.7944,270.0649)">
              <tspan
                 id="tspan3524"
                 y="0"
                 x="0"
                 style="font-size:10px;font-variant:normal;font-weight:normal;font-stretch:normal;writing-mode:lr-tb;fill:#000000;fill-opacity:1;fill-rule:nonzero;stroke:none;font-family:Helvetica;-inkscape-font-specification:Helvetica">2</tspan>
            </text>
            <g
               transform="translate(22.6851,311.4897)"
               id="g3526">
              <path
                 id="path3528"
                 style="fill:none;stroke:#000000;stroke-width:0.5;stroke-linecap:butt;stroke-linejoin:round;stroke-miterlimit:10;stroke-opacity:1;stroke-dasharray:none"
                 d="M 0,0 3.945,0"
                 inkscape:connector-curvature="0" />
            </g>
            <g
               transform="translate(456.6577,311.4897)"
               id="g3530">
              <path
                 id="path3532"
                 style="fill:none;stroke:#000000;stroke-width:0.5;stroke-linecap:butt;stroke-linejoin:round;stroke-miterlimit:10;stroke-opacity:1;stroke-dasharray:none"
                 d="M 0,0 -4.933,0"
                 inkscape:connector-curvature="0" />
            </g>
            <text
               id="text3534"
               transform="matrix(1,0,0,-1,5.918,308.5308)">
              <tspan
                 id="tspan3536"
                 sodipodi:role="line"
                 y="0"
                 x="0 6.6719999 10.008"
                 style="font-size:12px;font-variant:normal;font-weight:normal;font-stretch:normal;writing-mode:lr-tb;fill:#000000;fill-opacity:1;fill-rule:nonzero;stroke:none;font-family:Helvetica;-inkscape-font-specification:Helvetica">2.5</tspan>
            </text>
            <g
               transform="translate(22.6851,348.9688)"
               id="g3538">
              <path
                 id="path3540"
                 style="fill:none;stroke:#000000;stroke-width:0.5;stroke-linecap:butt;stroke-linejoin:round;stroke-miterlimit:10;stroke-opacity:1;stroke-dasharray:none"
                 d="M 0,0 3.945,0"
                 inkscape:connector-curvature="0" />
            </g>
            <g
               transform="translate(456.6577,348.9688)"
               id="g3542">
              <path
                 id="path3544"
                 style="fill:none;stroke:#000000;stroke-width:0.5;stroke-linecap:butt;stroke-linejoin:round;stroke-miterlimit:10;stroke-opacity:1;stroke-dasharray:none"
                 d="M 0,0 -4.933,0"
                 inkscape:connector-curvature="0" />
            </g>
            <text
               id="text3546"
               transform="matrix(1,0,0,-1,14.7944,346.0098)">
              <tspan
                 id="tspan3548"
                 y="0"
                 x="0"
                 style="font-size:10px;font-variant:normal;font-weight:normal;font-stretch:normal;writing-mode:lr-tb;fill:#000000;fill-opacity:1;fill-rule:nonzero;stroke:none;font-family:Helvetica;-inkscape-font-specification:Helvetica">3</tspan>
            </text>
            <g
               transform="translate(22.6851,386.4487)"
               id="g3550">
              <path
                 id="path3552"
                 style="fill:none;stroke:#000000;stroke-width:0.5;stroke-linecap:butt;stroke-linejoin:round;stroke-miterlimit:10;stroke-opacity:1;stroke-dasharray:none"
                 d="M 0,0 3.945,0"
                 inkscape:connector-curvature="0" />
            </g>
            <g
               transform="translate(456.6577,386.4487)"
               id="g3554">
              <path
                 id="path3556"
                 style="fill:none;stroke:#000000;stroke-width:0.5;stroke-linecap:butt;stroke-linejoin:round;stroke-miterlimit:10;stroke-opacity:1;stroke-dasharray:none"
                 d="M 0,0 -4.933,0"
                 inkscape:connector-curvature="0" />
            </g>
            <g
               id="g3558">
              <g
                 clip-path="url(#clipPath3562)"
                 id="g3560">
                <text
                   id="text3566"
                   transform="matrix(1,0,0,-1,5.918,383.4897)">
                  <tspan
                     id="tspan3568"
                     sodipodi:role="line"
                     y="0"
                     x="0 6.6719999 10.008"
                     style="font-size:12px;font-variant:normal;font-weight:normal;font-stretch:normal;writing-mode:lr-tb;fill:#000000;fill-opacity:1;fill-rule:nonzero;stroke:none;font-family:Helvetica;-inkscape-font-specification:Helvetica">3.5</tspan>
                </text>
              </g>
            </g>
            <g
               transform="translate(22.6851,45.1885)"
               id="g3570">
              <path
                 id="path3572"
                 style="fill:none;stroke:#000000;stroke-width:0.5;stroke-linecap:butt;stroke-linejoin:round;stroke-miterlimit:10;stroke-opacity:1;stroke-dasharray:none"
                 d="M 0,0 433.973,0"
                 inkscape:connector-curvature="0" />
            </g>
            <g
               transform="translate(22.6851,386.4487)"
               id="g3574">
              <path
                 id="path3576"
                 style="fill:none;stroke:#000000;stroke-width:2;stroke-linecap:butt;stroke-linejoin:round;stroke-miterlimit:10;stroke-opacity:1;stroke-dasharray:none"
                 d="M 0,0 433.973,0"
                 inkscape:connector-curvature="0" />
            </g>
            <g
               transform="translate(22.6851,45.1885)"
               id="g3578">
              <path
                 id="path3580"
                 style="fill:none;stroke:#000000;stroke-width:0.5;stroke-linecap:butt;stroke-linejoin:round;stroke-miterlimit:10;stroke-opacity:1;stroke-dasharray:none"
                 d="M 0,0 0,341.26"
                 inkscape:connector-curvature="0" />
            </g>
            <g
               transform="translate(456.6577,45.1885)"
               id="g3582">
              <path
                 id="path3584"
                 style="fill:none;stroke:#000000;stroke-width:0.5;stroke-linecap:butt;stroke-linejoin:round;stroke-miterlimit:10;stroke-opacity:1;stroke-dasharray:none"
                 d="M 0,0 0,341.26"
                 inkscape:connector-curvature="0" />
            </g>
            <g
               transform="translate(284.0542,189.1885)"
               id="g3586">
              <path
                 id="path3588"
                 style="fill:none;stroke:#0000ff;stroke-width:1;stroke-linecap:butt;stroke-linejoin:round;stroke-miterlimit:10;stroke-opacity:1;stroke-dasharray:none"
                 d="m 0,0 1.974,1.973 1.972,1.972 1.972,0.987 0.986,1.972 1.973,0.987 1.973,1.972 1.972,1.972 0.987,0.987 1.972,1.972 1.973,0.986 1.973,1.973 0.985,1.974 1.974,0.985 1.972,1.974 1.972,1.971 0.987,0.988 1.972,1.971 1.974,1.972 1.971,0.987 0.987,1.972 1.972,1.974 1.973,1.972 1.973,0.986 1.972,1.973 0.987,1.972 1.972,0.986 1.973,1.973 1.972,1.973 0.987,1.973 1.972,1.972 1.973,0.987 1.973,1.972 0.986,1.973 1.973,1.973 1.972,0.985 1.972,1.974 0.987,1.972 1.972,1.972 1.974,1.974 1.972,0.985 0.987,1.974 1.972,1.971 1.972,1.973 1.974,1.972 0.985,1.974 1.974,1.972 1.971,0.987 1.973,1.972 1.973,1.972 0.986,1.974 1.973,1.971 1.972,1.973 1.972,1.974 0.987,1.971 1.972,1.973 1.974,0.986 1.972,1.972 0.987,1.974 1.971,1.972 1.973,1.972 1.973,1.974 0.986,1.972 1.973,1.972 1.972,1.973 1.973,1.972 0.986,1.973 1.973,1.973 1.972,1.973 1.973,1.972 0.986,1.973 1.973,1.973 1.973,1.972 1.972,1.972 1.972,1.974 0.987,1.972 1.972,1.972 1.974,1.974 1.972,1.971 0.987,1.973 1.972,1.973 1.972,1.973 1.974,1.972 0.985,1.972 1.974,1.974 1.971,1.971 1.973,1.973 0.986,1.974 1.973,1.971 1.973,1.973 1.972,2.959 0.987,1.973 1.972,1.972 1.972,1.972 1.974,1.974 0.985,1.972 1.974,1.972 1.972,1.974 1.972,1.971 1.974,1.973"
                 inkscape:connector-curvature="0" />
            </g>
            <g
               transform="translate(112.4385,84.6406)"
               id="g3590">
              <path
                 id="path3592"
                 style="fill:none;stroke:#0000ff;stroke-width:1;stroke-linecap:butt;stroke-linejoin:round;stroke-miterlimit:10;stroke-opacity:1;stroke-dasharray:none"
                 d="m 0,0 3.945,0 0.987,0.986 1.972,0 1.973,0.987 1.972,0 0.986,0.986 1.973,0 1.973,0.986 1.972,0.987 0.987,0 1.972,0.986 1.973,0 1.972,0.986 0.987,0.987 1.972,0 1.973,0.985 1.973,0.987 0.986,0 1.973,0.987 1.972,0.985 1.972,0.987 1.973,0 0.986,0.987 1.973,0.985 1.973,0.987 1.972,0.987 0.987,0.985 1.972,0 1.973,0.987 1.972,0.987 0.987,0.985 1.972,0.987 1.973,0.987 1.973,0.985 0.986,0.986 1.973,0.987 1.972,0.986 1.973,0.986 0.986,0.987 1.973,0.986 1.972,0.986 1.973,0.987 0.986,0.986 1.973,0.986 1.972,0.987 1.973,0.986 1.972,0.986 0.987,1.972 1.972,0.987 1.973,0.986 1.973,0.986 0.986,0.987 1.972,0.986 1.973,0.986 1.973,1.973 0.986,0.986 1.973,0.987 1.972,0.986 1.973,0.986 0.986,1.973 1.973,0.986 1.972,0.986 1.973,0.987 0.986,1.972 1.973,0.987 1.972,0.987 1.973,1.972 0.986,0.987 1.973,0.985 1.972,1.973 1.973,0.986 1.973,0.986 0.986,1.973 1.973,0.986 1.972,0.987 1.973,1.972 0.986,0.987 1.973,1.972 1.972,0.987 1.973,0.985 0.986,1.974 1.973,0.985 1.973,1.974 1.972,0.985 0.986,1.974 1.973,0.985 1.972,1.974 1.973,0.985 0.986,1.974 1.973,0.985 1.973,1.974 1.972,0.985 0.986,1.973 1.973,0.986 1.973,1.973 1.972,0.986 1.973,1.973 0.986,0.986"
                 inkscape:connector-curvature="0" />
            </g>
            <g
               transform="translate(23.6714,116.2021)"
               id="g3594">
              <path
                 id="path3596"
                 style="fill:none;stroke:#0000ff;stroke-width:1;stroke-linecap:butt;stroke-linejoin:round;stroke-miterlimit:10;stroke-opacity:1;stroke-dasharray:none"
                 d="m 0,0 1.973,-2.959 1.972,-2.959 1.973,-2.958 0.986,-1.974 1.973,-1.971 1.972,-1.973 1.973,-1.974 0.986,-1.971 1.973,-0.988 1.972,-1.971 1.973,-0.988 0.986,-0.985 1.973,-0.986 1.973,-0.987 1.972,-0.986 0.986,-0.986 1.973,-0.987 1.972,-0.986 1.973,0 0.986,-0.986 1.973,-0.987 1.973,0 1.972,-0.986 2.959,0 1.973,-0.986 3.945,0 0.986,-0.987 24.658,0 1.972,0.987 4.932,0 1.973,0.986 2.958,0 1.973,0.986"
                 inkscape:connector-curvature="0" />
            </g>
            <path
               id="path3598"
               style="fill:none;stroke:#000000;stroke-width:2;stroke-linecap:butt;stroke-linejoin:miter;stroke-miterlimit:10;stroke-opacity:1;stroke-dasharray:none"
               d="m 22.685,44.202 434.958,0 0,342.247 -434.958,0 0,-342.247 z"
               inkscape:connector-curvature="0" />
            <text
               id="text3600"
               transform="matrix(1,0,0,-1,98.9146,294.6426)">
              <tspan
                 id="tspan3602"
                 y="0"
                 x="0"
                 style="font-size:34.90480042px;font-variant:normal;font-weight:normal;writing-mode:lr-tb;fill:#000000;fill-opacity:1;fill-rule:nonzero;stroke:none;font-family:CMMI10;-inkscape-font-specification:CMMI10">f</tspan>
            </text>
            <text
               id="text3604"
               transform="matrix(1,0,0,-1,119.75277,294.6426)">
              <tspan
                 id="tspan3606"
                 y="0"
                 x="0"
                 style="font-size:34.90480042px;font-variant:normal;font-weight:normal;writing-mode:lr-tb;fill:#000000;fill-opacity:1;fill-rule:nonzero;stroke:none;font-family:CMR10;-inkscape-font-specification:CMR10">(</tspan>
            </text>
            <text
               id="text3608"
               transform="matrix(1,0,0,-1,133.33073,294.6426)">
              <tspan
                 id="tspan3610"
                 y="0"
                 x="0"
                 style="font-size:34.90480042px;font-variant:normal;font-weight:normal;writing-mode:lr-tb;fill:#000000;fill-opacity:1;fill-rule:nonzero;stroke:none;font-family:CMMI10;-inkscape-font-specification:CMMI10">t</tspan>
            </text>
            <text
               id="text3612"
               transform="matrix(1,0,0,-1,145.93137,294.6426)">
              <tspan
                 id="tspan3614"
                 sodipodi:role="line"
                 y="0"
                 x="0 23.281502"
                 style="font-size:34.90480042px;font-variant:normal;font-weight:normal;writing-mode:lr-tb;fill:#000000;fill-opacity:1;fill-rule:nonzero;stroke:none;font-family:CMR10;-inkscape-font-specification:CMR10">)=</tspan>
            </text>
            <text
               id="text3616"
               transform="matrix(1,0,0,-1,206.03743,294.6426)">
              <tspan
                 id="tspan3618"
                 y="0"
                 x="0"
                 style="font-size:34.90480042px;font-variant:normal;font-weight:normal;writing-mode:lr-tb;fill:#000000;fill-opacity:1;fill-rule:nonzero;stroke:none;font-family:CMMI10;-inkscape-font-specification:CMMI10">t</tspan>
            </text>
            <text
               id="text3620"
               transform="matrix(1,0,0,-1,224.46717,294.6426)">
              <tspan
                 id="tspan3622"
                 sodipodi:role="line"
                 y="0"
                 x="0 9.7035341 27.155935"
                 style="font-size:34.90480042px;font-variant:normal;font-weight:normal;writing-mode:lr-tb;fill:#000000;fill-opacity:1;fill-rule:nonzero;stroke:none;font-family:CMR10;-inkscape-font-specification:CMR10">log</tspan>
            </text>
            <text
               id="text3624"
               transform="matrix(1,0,0,-1,275.35836,294.6426)">
              <tspan
                 id="tspan3626"
                 y="0"
                 x="0"
                 style="font-size:34.90480042px;font-variant:normal;font-weight:normal;writing-mode:lr-tb;fill:#000000;fill-opacity:1;fill-rule:nonzero;stroke:none;font-family:CMMI10;-inkscape-font-specification:CMMI10">t</tspan>
              <tspan
                 id="tspan3628"
                 y="285.90521"
                 x="153.99998"
                 style="font-size:34.90480042px;font-variant:normal;font-weight:normal;writing-mode:lr-tb;fill:#000000;fill-opacity:1;fill-rule:nonzero;stroke:none;font-family:CMMI10;-inkscape-font-specification:CMMI10">t</tspan>
            </text>
          </g>
        </g>
      </g>
    </g>
  </g>
</svg>
