<?xml version="1.0" encoding="utf-8"?>
<!-- Generator: Adobe Illustrator 15.0.2, SVG Export Plug-In . SVG Version: 6.00 Build 0)  -->
<!DOCTYPE svg PUBLIC "-//W3C//DTD SVG 1.1//EN" "http://www.w3.org/Graphics/SVG/1.1/DTD/svg11.dtd">
<svg version="1.1" xmlns="http://www.w3.org/2000/svg" xmlns:xlink="http://www.w3.org/1999/xlink" x="0px" y="0px"
	 width="490px" height="277px" viewBox="0 0 490 277" enable-background="new 0 0 490 277"
	 xml:space="preserve">
<g id="Layer_3">
	<path fill="none" stroke="#000" stroke-width="2" stroke-linecap="round" d="M327.023,103.263
		c0.833-6.146,3.971-12.109,8.063-16.958"/>
	<path fill="none" stroke="#000" stroke-width="2" stroke-linecap="round" d="M357.828,73.581
		c0.408-0.074,1.274-0.499,1.688-0.562c20.54-3.125,39.303,8.238,41.911,25.381c2.61,17.142-11.927,33.573-32.466,36.698
		c-16.172,2.46-31.243-4.061-38.194-15.313"/>
	<path stroke="#000" stroke-width="2" stroke-linecap="round" d="M359.146,86.305c0-2.374-2.489-7.173-2.489-11.846
		c-1.996,1.425-2.429,1.538-3.999,2.75C356.657,81.208,357.554,85.413,359.146,86.305z"/>
	<path fill="none" stroke="#000" stroke-width="2" stroke-linecap="round" d="M363.873,97.287
		c-0.838-6-4.727-15.595-2.899-18.827c1.394-3.511,2.82-5.018,16.923-0.923s18.081,15.091,18.731,17.248
		c0.68,2.252,3.202,15.436-4.423,23.061c-9.756,9.756-15.309,14.191-18.684,6.066S365.619,106.787,363.873,97.287z"/>
	<path fill="none" stroke="#000" stroke-width="2" stroke-linecap="round" d="M443.146,129.787"/>
	<path fill="none" stroke="#000" stroke-width="2" stroke-linecap="round" d="M341.479,122.274c4.743-4.743,13-33.118,13-35.969
		s-1.116-9.965-12.452-2.877s-7.625,1.886-10.551,7.873s-2.552,22.824,1.669,27.044
		C336.313,125.303,337.845,127.625,341.479,122.274z"/>
</g>
<g id="Layer_2">
	
		<ellipse transform="matrix(-0.9632 -0.2688 0.2688 -0.9632 211.2794 210.8528)" fill="none" stroke="#000" stroke-width="2" cx="120.076" cy="90.96" rx="48.87" ry="70.024"/>
	<circle fill="none" stroke="#000" stroke-width="2" cx="106.681" cy="118.345" r="22.674"/>
	
		<ellipse transform="matrix(0.98 0.199 -0.199 0.98 13.2726 -24.6693)" fill="none" stroke="#000" stroke-width="2" cx="129.355" cy="53.691" rx="30.664" ry="18.605"/>
	<path fill="none" stroke="#000" stroke-width="2" stroke-dasharray="4,4" d="M133.425,59.625
		c9.126,38.778,26.211,119.935,81.396,154.652c85.465,38.373,138.927-16.073,138.927-94.563"/>
	<path fill="none" stroke="#000" stroke-width="2" stroke-dasharray="4,4" d="M109.588,124.599
		c13.363,34.812,54.651,130.743,165.116,130.743c88.663-9.588,107.305-62.036,109.631-143.388"/>
	<path fill="none" stroke="#000" stroke-width="2" stroke-linecap="round" d="M241.999,167.765
		c-16.853,13.355-54.853-17.312-23.689-45.491c14.664-14.664,63.805-2.369,49.337,41.345c-15.5,36.833-53.134,14.833-61.233,5.167
		c-8.1-7.167-35.266-61.333,18.4-93.333s101.667,13,104.333,35c1.503,12.401,28.261,109.515-78.667,102.333
		c-105.333-29-67.297-141.501-61.333-151.667c5.539-9.44,48-84.333,152-44c35,21,28.333,30,28.333,39.333s-12.739,21.299-38,31.333
		c0,0-8.375,1.293-15.431-0.098"/>
	<path fill="none" stroke="#000" stroke-width="2" stroke-linecap="round" d="M84.007,147.551
		c11.333,17,109.139,168.568,250.806,111.568c130-78.333,52.333-207.667,32.012-220.902"/>
	<path fill="none" stroke="#000" stroke-dasharray="4,4" d="M222.89,217.666c10.87,7.931,4.971,24.081-9.698,26.158"/>
	<path fill="none" stroke="#000" stroke-dasharray="4,4" d="M292.71,222.191c18.667-5.968,30.082,21.396,15.012,26.767"/>
	<path fill="none" stroke="#000" stroke-width="2" d="M336.496,124.798c26.25,12.756,39.755,13.418,30.272-17.152"/>
	<text transform="matrix(1 0 0 1 405.3022 49.4087)" font-family="'Arial'" font-size="12">Nerve</text>
	<text transform="matrix(1 0 0 1 420.7095 81.6821)"><tspan x="0" y="0" font-family="'Arial'" font-size="12">Organ</tspan><tspan x="0" y="14.4" font-family="'Arial'" font-size="12">of Corti</tspan></text>
	<text transform="matrix(1 0 0 1 434.0981 138.019)"><tspan x="0" y="0" font-family="'Arial'" font-size="12">Cochlear</tspan><tspan x="0" y="14.4" font-family="'Arial'" font-size="12">Partition</tspan></text>
	<text transform="matrix(1 0 0 1 416.021 196.6089)"><tspan x="0" y="0" font-family="'Arial'" font-size="12">Tectorial</tspan><tspan x="0" y="14.4" font-family="'Arial'" font-size="12">Membrane</tspan></text>
	<text transform="matrix(1 0 0 1 241.3433 244.9233)" font-family="'Arial'" font-size="12">Fluid Paths</text>
	<text transform="matrix(1 0 0 1 28.1338 42.1206)"><tspan x="0" y="0" font-family="'Arial'" font-size="12">Oval</tspan><tspan x="-18.006" y="14.4" font-family="'Arial'" font-size="12">Window</tspan></text>
	<text transform="matrix(1 0 0 1 17.4463 114.437)"><tspan x="0" y="0" font-family="'Arial'" font-size="12">Round</tspan><tspan x="-7.318" y="14.4" font-family="'Arial'" font-size="12">Window</tspan></text>
	<g>
		<g>
			<line fill="none" stroke="#000" stroke-width="2" x1="58.427" y1="48.316" x2="120.076" y2="47.588"/>
			<path d="M126.111,47.517c-2.827,1.087-6.329,2.927-8.49,4.855l1.664-4.775l-1.776-4.734
				C119.714,44.741,123.259,46.498,126.111,47.517z"/>
		</g>
	</g>
	<g>
		<g>
			<line fill="none" stroke="#fff" stroke-width="3" x1="403.167" y1="49.408" x2="370.729" y2="67.794"/>
			<path fill="#fff" d="M362.854,72.258c2.926-3.476,6.194-8.428,7.636-12.526l1.273,7.477l5.761,4.933
				C373.267,71.272,367.339,71.532,362.854,72.258z"/>
		</g>
		<g>
			<line fill="none" stroke="#000" stroke-width="2" x1="403.167" y1="49.408" x2="370.729" y2="67.794"/>
			<path d="M365.479,70.77c1.951-2.317,4.13-5.619,5.091-8.351l0.849,4.984l3.841,3.289
				C372.421,70.113,368.469,70.286,365.479,70.77z"/>
		</g>
	</g>
	<g>
		<g>
			<line fill="none" stroke="#fff" stroke-width="3" x1="420.359" y1="85.742" x2="368.621" y2="95.094"/>
			<path fill="#fff" d="M359.712,96.705c3.911-2.313,8.632-5.907,11.347-9.299l-1.27,7.478l3.807,6.56
				C369.866,99.216,364.185,97.501,359.712,96.705z"/>
		</g>
		<g>
			<line fill="none" stroke="#000" stroke-width="2" x1="420.359" y1="85.742" x2="368.621" y2="95.094"/>
			<path d="M362.682,96.168c2.607-1.542,5.754-3.938,7.565-6.2l-0.847,4.985l2.538,4.374
				C369.451,97.842,365.664,96.699,362.682,96.168z"/>
		</g>
	</g>
	<g>
		<g>
			<line fill="none" stroke="#fff" stroke-width="3" x1="431.468" y1="141.267" x2="376.723" y2="115.109"/>
			<path fill="#fff" d="M368.555,111.206c4.525,0.41,10.456,0.255,14.643-0.908l-5.403,5.323l-0.747,7.547
				C375.323,119.181,371.717,114.468,368.555,111.206z"/>
		</g>
		<g>
			<line fill="none" stroke="#000" stroke-width="2" x1="431.468" y1="141.267" x2="376.723" y2="115.109"/>
			<path d="M371.278,112.507c3.017,0.274,6.971,0.17,9.762-0.605l-3.602,3.549l-0.499,5.032
				C375.79,117.823,373.386,114.682,371.278,112.507z"/>
		</g>
	</g>
	<g>
		<g>
			<line fill="none" stroke="#000" stroke-width="2" x1="58.427" y1="118.479" x2="93.259" y2="117.751"/>
			<path d="M99.292,117.625c-2.817,1.113-6.302,2.984-8.446,4.932l1.62-4.79l-1.818-4.718
				C92.871,114.907,96.432,116.631,99.292,117.625z"/>
		</g>
	</g>
	<g>
		<g>
			<polyline fill="none" stroke="#fff" stroke-width="3" points="413.146,196.787 363.019,166.607 360.49,118.823 			"/>
			<path fill="#fff" d="M360.012,109.783c1.804,4.17,4.776,9.306,7.8,12.425l-7.258-2.199l-6.986,2.953
				C356.245,119.541,358.659,114.121,360.012,109.783z"/>
		</g>
		<g>
			<polyline fill="none" stroke="#000" stroke-width="2" points="413.146,196.787 363.019,166.607 360.49,118.823 			"/>
			<path d="M360.171,112.796c1.202,2.78,3.184,6.204,5.2,8.284l-4.839-1.466l-4.658,1.968
				C357.66,119.302,359.27,115.688,360.171,112.796z"/>
		</g>
	</g>
	<path fill="none" stroke="#000" d="M366.248,106.162c-0.778,0-3.537-0.646-4.675-3.363c-0.696-1.664-1.257-4.709-0.479-6.505
		s-1.018-5.45-2.935-1.796s1.129,9.282,2.331,11.499c-1.792-0.539-1.809-1.593-2.949-2.732s-2.14-6.874-1.64-8.479
		s2.378-6.745,6.48-4.175"/>
</g>
</svg>
