<?xml version="1.0" encoding="UTF-8" standalone="no"?>
<!DOCTYPE svg PUBLIC "-//W3C//DTD SVG 1.1//EN" "http://www.w3.org/Graphics/SVG/1.1/DTD/svg11.dtd">
<svg preserveAspectRatio="xMinYMin meet" width="100%" height="100%" viewBox="0 0 384.000 238.000" version="1.1" xmlns="http://www.w3.org/2000/svg" xmlns:xlink="http://www.w3.org/1999/xlink">
  <desc>Matlab Figure Converted by PLOT2SVG written by Juerg Schwizer</desc>
  <rect x="0" y="0" width="384.000" height="238.000" fill="#ffffff" stroke="none"/>
  <g>
  <clipPath id="ID000000">
    <rect x="49.920" y="17.850" width="297.600" height="178.150"/>
  </clipPath>
      <polyline fill="#ffffff" fill-opacity="1.00" stroke="none" stroke-width="0.5pt" stroke-opacity="1.00" stroke-dasharray="none" points="49.920,196.000 347.520,196.000 347.520,17.850 49.920,17.850 "/>
      <polyline fill="#ffffff" fill-opacity="1.00" stroke="none" stroke-width="0.5pt" stroke-opacity="1.00" stroke-dasharray="none" points="49.920,196.000 347.520,196.000 347.520,196.000 49.920,196.000 "/>
      <polyline fill="#ffffff" fill-opacity="1.00" stroke="none" stroke-width="0.5pt" stroke-opacity="1.00" stroke-dasharray="none" points="49.920,196.000 49.920,196.000 49.920,17.850 49.920,17.850 "/>
    <g>
<g clip-path="url(#ID000000)">
      <polyline fill="none" stroke="#ff0000" stroke-width="0.5pt" stroke-dasharray="none" points="49.920,165.141 67.388,163.910 79.782,162.726 89.396,161.586 97.250,160.485 103.892,159.422 109.644,158.394 114.719,157.399 119.258,156.434 123.364,155.498 127.113,154.590 130.561,153.707 133.754,152.849 136.726,152.013 139.507,151.199 142.118,150.406 144.581,149.633 146.910,148.878 149.120,148.141 151.222,147.421 153.226,146.717 155.141,146.029 156.975,145.355 158.733,144.696 160.423,144.051 162.049,143.418 163.616,142.798 165.128,142.190 166.588,141.594 168.001,141.009 169.369,140.435 170.694,139.871 171.981,139.317 173.229,138.772 174.443,138.237 175.623,137.711 176.772,137.194 177.891,136.685 178.982,136.185 180.046,135.692 181.084,135.207 182.098,134.729 183.088,134.259 184.057,133.795 185.003,133.338 185.930,132.888 186.837,132.444 187.725,132.007 188.596,131.575 189.449,131.150 190.285,130.730 191.106,130.315 191.911,129.906 192.702,129.503 193.478,129.104 194.241,128.711 194.990,128.322 195.726,127.939 196.450,127.559 197.163,127.185 197.863,126.815 198.552,126.449 199.231,126.087 199.899,125.730 200.557,125.376 201.204,125.027 201.843,124.681 202.472,124.340 203.092,124.002 203.703,123.667 204.305,123.336 204.899,123.009 205.486,122.685 206.064,122.364 206.635,122.046 207.198,121.732 207.754,121.421 208.302,121.113 208.844,120.808 209.380,120.506 209.908,120.207 210.430,119.910 210.946,119.617 211.456,119.326 211.960,119.038 212.458,118.752 212.951,118.469 213.437,118.189 213.919,117.911 214.395,117.635 214.866,117.362 215.331,117.091 215.792,116.823 216.248,116.557 216.699,116.293 217.146,116.032 217.587,115.772 218.025,115.515 218.458,115.260 218.887,115.006 219.311,114.755 219.731,114.506 220.148,114.259 220.560,114.014 220.968,113.771 221.373,113.529 221.773,113.290 222.171,113.052 222.564,112.816 222.954,112.582 223.340,112.349 223.723,112.119 224.103,111.890 224.479,111.662 224.852,111.437 225.222,111.213 225.589,110.990 225.952,110.769 226.313,110.550 226.670,110.332 227.025,110.116 227.376,109.901 227.725,109.687 228.071,109.475 228.415,109.265 228.755,109.056 229.093,108.848 229.428,108.642 229.761,108.437 230.091,108.233 230.419,108.031 230.744,107.830 231.067,107.630 231.387,107.432 231.705,107.235 232.021,107.039 232.334,106.844 232.645,106.650 232.954,106.458 233.260,106.267 233.565,106.077 233.867,105.888 234.167,105.700 234.466,105.514 234.762,105.328 235.056,105.144 235.348,104.960 235.638,104.778 235.926,104.597 236.212,104.417 236.497,104.238 236.779,104.060 237.060,103.883 237.339,103.706 237.616,103.531 237.891,103.357 238.165,103.184 238.436,103.012 238.707,102.841 238.975,102.670 239.242,102.501 239.507,102.332 239.770,102.165 240.032,101.998 240.293,101.832 240.551,101.667 240.809,101.503 241.064,101.340 241.318,101.178 241.571,101.016 241.822,100.856 242.072,100.696 242.320,100.537 242.567,100.379 242.813,100.221 243.057,100.064 243.299,99.909 243.541,99.753 243.781,99.599 244.020,99.446 244.257,99.293 244.493,99.141 244.728,98.989 244.961,98.839 245.194,98.689 245.425,98.540 245.654,98.391 245.883,98.243 246.110,98.096 246.336,97.950 246.561,97.804 246.785,97.659 247.008,97.515 247.229,97.371 247.450,97.228 247.669,97.086 247.887,96.944 248.104,96.803 248.320,96.663 248.535,96.523 248.749,96.384 248.961,96.245 249.173,96.107 249.384,95.970 249.593,95.833 249.802,95.697 250.010,95.561 250.216,95.426 250.422,95.292 250.627,95.158 250.830,95.025 251.033,94.892 251.235,94.760 251.436,94.628 251.636,94.497 251.835,94.367 252.033,94.237 252.230,94.107 252.426,93.979 252.622,93.850 252.816,93.722 253.010,93.595 253.202,93.468 253.394,93.342 253.585,93.216 253.776,93.091 253.965,92.966 254.154,92.842 254.341,92.718 254.528,92.595 254.714,92.472 254.900,92.350 255.084,92.228 255.268,92.107 255.451,91.986 255.633,91.866 255.814,91.746 255.995,91.626 256.175,91.507 256.354,91.389 256.532,91.270 256.710,91.153 256.887,91.035 257.063,90.919 257.239,90.802 257.413,90.686 257.587,90.571 257.761,90.456 257.933,90.341 258.105,90.227 258.277,90.113 258.447,90.000 258.617,89.887 258.787,89.774 258.955,89.662 259.123,89.550 259.290,89.439 259.457,89.328 259.623,89.217 259.789,89.107 259.953,88.997 260.117,88.887 260.281,88.778 260.444,88.670 260.606,88.561 260.768,88.453 260.929,88.346 261.089,88.239 261.249,88.132 261.408,88.025 261.567,87.919 261.725,87.814 261.883,87.708 262.040,87.603 262.196,87.499 262.352,87.394 262.507,87.290 262.662,87.187 262.816,87.083 262.969,86.980 263.123,86.878 263.275,86.775 263.427,86.673 263.578,86.572 263.729,86.471 263.880,86.370 264.030,86.269 264.179,86.169 264.328,86.069 264.476,85.969 264.624,85.870 264.771,85.771 264.918,85.672 265.064,85.574 265.210,85.475 265.355,85.378 265.500,85.280 265.644,85.183 265.788,85.086 265.932,84.990 266.075,84.893 266.217,84.797 266.359,84.702 266.500,84.606 266.641,84.511 266.782,84.416 266.922,84.322 267.062,84.227 267.201,84.133 267.340,84.040 267.478,83.946 267.616,83.853 267.753,83.760 267.890,83.668 268.027,83.575 268.163,83.483 268.299,83.392 268.434,83.300 268.569,83.209 268.703,83.118 268.837,83.027 268.971,82.937 269.104,82.847 269.237,82.757 269.369,82.667 269.501,82.578 269.633,82.489 269.764,82.400 269.894,82.311 270.025,82.223 270.155,82.135 270.284,82.047 270.413,81.959 270.542,81.872 270.671,81.784 270.799,81.698 270.926,81.611 271.054,81.524 271.181,81.438 271.307,81.352 271.433,81.267 271.559,81.181 271.684,81.096 271.809,81.011 271.934,80.926 272.059,80.842 272.182,80.757 272.306,80.673 272.429,80.589 272.552,80.506 272.675,80.422 272.797,80.339 272.919,80.256 273.040,80.173 273.162,80.091 273.283,80.008 273.403,79.926 273.523,79.844 273.643,79.763 273.763,79.681 273.882,79.600 274.001,79.519 274.119,79.438 274.237,79.357 274.355,79.277 274.473,79.197 274.590,79.117 274.707,79.037 274.823,78.957 274.940,78.878 275.056,78.799 275.171,78.720 275.287,78.641 275.402,78.562 275.516,78.484 275.631,78.406 275.745,78.328 275.859,78.250 275.972,78.172 276.086,78.095 276.199,78.018 276.311,77.941 276.423,77.864 276.536,77.787 276.647,77.711 276.759,77.634 276.870,77.558 276.981,77.482 277.091,77.407 277.202,77.331 277.312,77.256 277.422,77.180 277.531,77.105 277.640,77.031 277.749,76.956 277.858,76.881 277.966,76.807 278.074,76.733 278.182,76.659 278.290,76.585 278.397,76.512 278.504,76.438 278.611,76.365 278.717,76.292 278.824,76.219 278.930,76.146 279.035,76.074 279.141,76.001 279.246,75.929 279.351,75.857 279.456,75.785 279.560,75.713 279.664,75.642 279.768,75.570 279.872,75.499 279.975,75.428 280.079,75.357 280.181,75.286 280.284,75.216 280.387,75.145 280.489,75.075 280.591,75.005 280.693,74.935 280.794,74.865 280.895,74.795 280.996,74.726 281.097,74.657 281.198,74.587 281.298,74.518 281.398,74.449 281.498,74.381 281.597,74.312 281.697,74.244 281.796,74.175 281.895,74.107 281.994,74.039 282.092,73.971 282.190,73.904 282.288,73.836 282.386,73.769 282.484,73.702 282.581,73.634 282.678,73.567 282.775,73.501 282.872,73.434 282.968,73.367 283.065,73.301 283.161,73.235 283.257,73.169 283.352,73.103 283.448,73.037 283.543,72.971 283.638,72.906 283.733,72.840 283.827,72.775 283.922,72.710 284.016,72.645 284.110,72.580 284.203,72.515 284.297,72.450 284.390,72.386 284.483,72.322 284.576,72.257 284.669,72.193 284.762,72.129 284.854,72.066 284.946,72.002 285.038,71.938 285.130,71.875 285.221,71.812 285.313,71.748 285.404,71.685 285.495,71.622 285.586,71.560 285.676,71.497 285.767,71.434 285.857,71.372 285.947,71.310 286.037,71.247 286.127,71.185 286.216,71.124 286.305,71.062 286.394,71.000 286.483,70.938 286.572,70.877 286.661,70.816 286.749,70.755 286.837,70.693 286.925,70.632 287.013,70.572 287.101,70.511 287.188,70.450 287.276,70.390 287.363,70.329 287.450,70.269 287.536,70.209 287.623,70.149 287.709,70.089 287.796,70.029 287.882,69.970 287.968,69.910 288.053,69.851 288.139,69.791 288.224,69.732 288.310,69.673 288.395,69.614 288.480,69.555 288.564,69.496 288.649,69.438 288.733,69.379 288.817,69.321 288.901,69.262 288.985,69.204 289.069,69.146 289.153,69.088 289.236,69.030 289.319,68.972 289.402,68.915 289.485,68.857 289.568,68.799 289.651,68.742 289.733,68.685 289.815,68.628 289.898,68.571 289.980,68.514 290.061,68.457 290.143,68.400 290.225,68.343 290.306,68.287 290.387,68.230 290.468,68.174 290.549,68.118 290.630,68.062 290.711,68.006 290.791,67.950 290.871,67.894 290.951,67.838 291.031,67.783 291.111,67.727 291.191,67.672 291.271,67.616 291.350,67.561 291.429,67.506 291.508,67.451 291.587,67.396 291.666,67.341 291.745,67.286 291.823,67.232 291.902,67.177 291.980,67.123 292.058,67.068 292.136,67.014 292.214,66.960 292.292,66.906 292.369,66.852 292.447,66.798 292.524,66.744 292.601,66.690 292.678,66.636 292.755,66.583 292.832,66.530 292.908,66.476 292.985,66.423 293.061,66.370 293.137,66.317 293.213,66.264 293.289,66.211 293.365,66.158 293.441,66.105 293.516,66.053 293.592,66.000 293.667,65.948 293.742,65.895 293.817,65.843 293.892,65.791 293.966,65.739 294.041,65.687 294.116,65.635 294.190,65.583 294.264,65.531 294.338,65.479 294.412,65.428 294.486,65.376 294.560,65.325 294.633,65.273 294.707,65.222 294.780,65.171 294.853,65.120 294.926,65.069 294.999,65.018 295.072,64.967 295.145,64.916 295.217,64.866 295.290,64.815 295.362,64.765 295.434,64.714 295.507,64.664 295.579,64.614 295.650,64.563 295.722,64.513 295.794,64.463 295.865,64.413 295.937,64.364 296.008,64.314 296.079,64.264 296.150,64.214 296.221,64.165 296.292,64.115 296.363,64.066 296.433,64.017 296.504,63.967 296.574,63.918 296.644,63.869 296.714,63.820 296.784,63.771 296.854,63.722 296.924,63.674 296.994,63.625 297.063,63.576 297.133,63.528 297.202,63.479 297.271,63.431 297.340,63.383 297.409,63.334 297.478,63.286 297.547,63.238 297.615,63.190 297.684,63.142 297.752,63.094 297.821,63.046 297.889,62.999 297.957,62.951 298.025,62.903 298.093,62.856 298.161,62.809 298.228,62.761 298.296,62.714 298.364,62.667 298.431,62.619 298.498,62.572 298.565,62.525 298.632,62.478 298.699,62.432 298.766,62.385 298.833,62.338 298.900,62.291 298.966,62.245 299.032,62.198 299.099,62.152 299.165,62.105 299.231,62.059 299.297,62.013 299.363,61.967 299.429,61.921 299.495,61.875 299.560,61.829 299.626,61.783 299.691,61.737 299.757,61.691 299.822,61.645 299.887,61.600 299.952,61.554 300.017,61.509 300.082,61.463 300.146,61.418 300.211,61.373 300.276,61.327 300.340,61.282 300.404,61.237 300.469,61.192 300.533,61.147 300.597,61.102 300.661,61.057 300.725,61.012 300.789,60.968 300.852,60.923 300.916,60.878 300.979,60.834 301.043,60.789 301.106,60.745 301.169,60.701 301.232,60.656 301.295,60.612 301.358,60.568 301.421,60.524 301.484,60.480 301.547,60.436 301.609,60.392 301.672,60.348 301.734,60.304 301.796,60.261 301.859,60.217 301.921,60.173 301.983,60.130 302.045,60.086 302.107,60.043 302.168,60.000 302.230,59.956 302.292,59.913 302.353,59.870 302.414,59.827 302.476,59.784 302.537,59.741 302.598,59.698 302.659,59.655 302.720,59.612 302.781,59.569 302.842,59.527 302.903,59.484 302.963,59.441 303.024,59.399 303.084,59.356 303.145,59.314 303.205,59.272 303.265,59.229 303.325,59.187 303.385,59.145 303.445,59.103 303.505,59.061 303.565,59.019 303.625,58.977 303.684,58.935 303.744,58.893 303.803,58.851 303.863,58.809 303.922,58.768 303.981,58.726 304.040,58.685 304.099,58.643 304.158,58.602 304.217,58.560 304.276,58.519 304.335,58.478 304.394,58.436 304.452,58.395 304.511,58.354 304.569,58.313 304.627,58.272 304.686,58.231 304.744,58.190 304.802,58.149 304.860,58.108 304.918,58.068 304.976,58.027 305.034,57.986 305.091,57.946 305.149,57.905 305.206,57.865 305.264,57.824 305.321,57.784 305.379,57.743 305.436,57.703 305.493,57.663 305.550,57.623 305.607,57.583 305.664,57.543 305.721,57.503 305.778,57.463 305.835,57.423 305.891,57.383 305.948,57.343 306.004,57.303 306.061,57.263 306.117,57.224 306.173,57.184 306.230,57.145 306.286,57.105 306.342,57.066 306.398,57.026 306.454,56.987 306.509,56.948 306.565,56.908 306.621,56.869 306.677,56.830 306.732,56.791 306.788,56.752 306.843,56.713 306.898,56.674 306.954,56.635 307.009,56.596 307.064,56.557 307.119,56.518 307.174,56.480 307.229,56.441 307.284,56.402 307.339,56.364 307.393,56.325 307.448,56.287 307.502,56.248 307.557,56.210 307.611,56.171 307.666,56.133 307.720,56.095 307.774,56.057 307.828,56.018 307.882,55.980 307.937,55.942 307.990,55.904 308.044,55.866 308.098,55.828 308.152,55.790 308.206,55.753 308.259,55.715 308.313,55.677 308.366,55.639 308.420,55.602 308.473,55.564 308.526,55.527 308.580,55.489 308.633,55.452 308.686,55.414 308.739,55.377 308.792,55.339 308.845,55.302 308.897,55.265 308.950,55.228 309.003,55.190 309.056,55.153 309.108,55.116 309.161,55.079 309.213,55.042 309.265,55.005 309.318,54.968 309.370,54.931 309.422,54.895 309.474,54.858 309.526,54.821 309.578,54.784 309.630,54.748 309.682,54.711 309.734,54.675 309.786,54.638 309.837,54.602 309.889,54.565 309.941,54.529 309.992,54.493 310.044,54.456 310.095,54.420 310.146,54.384 310.198,54.348 310.249,54.311 310.300,54.275 310.351,54.239 310.402,54.203 310.453,54.167 310.504,54.131 310.555,54.096 310.605,54.060 310.656,54.024 310.707,53.988 310.757,53.952 310.808,53.917 310.858,53.881 310.909,53.845 310.959,53.810 311.010,53.774 311.060,53.739 311.110,53.703 311.160,53.668 311.210,53.633 311.260,53.597 311.310,53.562 311.360,53.527 311.410,53.492 311.460,53.457 311.509,53.421 311.559,53.386 311.609,53.351 311.658,53.316 311.708,53.281 311.757,53.246 311.806,53.212 311.856,53.177 311.905,53.142 311.954,53.107 312.003,53.072 312.052,53.038 312.102,53.003 312.151,52.968 312.199,52.934 312.248,52.899 312.297,52.865 312.346,52.830 312.395,52.796 312.443,52.762 312.492,52.727 312.540,52.693 312.589,52.659 312.637,52.624 312.686,52.590 312.734,52.556 312.782,52.522 312.831,52.488 312.879,52.454 312.927,52.420 312.975,52.386 313.023,52.352 313.071,52.318 313.119,52.284 313.167,52.250 313.214,52.217 313.262,52.183 313.310,52.149 313.357,52.115 313.405,52.082 313.452,52.048 313.500,52.015 313.547,51.981 313.595,51.948 313.642,51.914 313.689,51.881 313.737,51.847 313.784,51.814 313.831,51.781 313.878,51.747 313.925,51.714 313.972,51.681 314.019,51.648 314.066,51.614 314.112,51.581 314.159,51.548 314.206,51.515 314.252,51.482 314.299,51.449 314.346,51.416 314.392,51.383 314.439,51.351 314.485,51.318 314.531,51.285 314.578,51.252 314.624,51.219 314.670,51.187 314.716,51.154 314.762,51.122 314.808,51.089 314.854,51.056 314.900,51.024 314.946,50.991 314.992,50.959 315.038,50.926 315.084,50.894 315.129,50.862 315.175,50.829 315.221,50.797 315.266,50.765 315.312,50.733 315.357,50.700 315.403,50.668 315.448,50.636 315.493,50.604 315.539,50.572 315.584,50.540 315.629,50.508 315.674,50.476 315.719,50.444 315.764,50.412 315.809,50.380 315.854,50.349 315.899,50.317 315.944,50.285 315.989,50.253 316.034,50.222 316.078,50.190 316.123,50.158 316.168,50.127 316.212,50.095 316.257,50.064 316.301,50.032 316.346,50.001 316.390,49.969 316.434,49.938 316.479,49.906 316.523,49.875 316.567,49.844 316.611,49.812 316.655,49.781 316.699,49.750 316.743,49.719 316.787,49.688 316.831,49.656 316.875,49.625 316.919,49.594 316.963,49.563 317.007,49.532 317.050,49.501 317.094,49.470 317.138,49.439 317.181,49.409 317.225,49.378 317.268,49.347 317.312,49.316 317.355,49.285 317.399,49.255 317.442,49.224 317.485,49.193 317.528,49.163 317.572,49.132 317.615,49.101 317.658,49.071 317.701,49.040 317.744,49.010 317.787,48.979 317.830,48.949 317.873,48.919 317.916,48.888 317.958,48.858 318.001,48.828 318.044,48.797 318.087,48.767 318.129,48.737 318.172,48.707 318.214,48.676 318.257,48.646 318.299,48.616 318.342,48.586 318.384,48.556 318.426,48.526 318.469,48.496 318.511,48.466 318.553,48.436 318.595,48.406 318.637,48.376 318.680,48.347 318.722,48.317 318.764,48.287 318.806,48.257 318.848,48.227 318.889,48.198 318.931,48.168 318.973,48.138 319.015,48.109 319.057,48.079 319.098,48.050 319.140,48.020 319.182,47.991 319.223,47.961 319.265,47.932 319.306,47.902 319.348,47.873 319.389,47.843 319.430,47.814 319.472,47.785 319.513,47.755 319.554,47.726 319.595,47.697 319.637,47.668 319.678,47.639 319.719,47.609 319.760,47.580 319.801,47.551 319.842,47.522 319.883,47.493 319.924,47.464 319.964,47.435 320.005,47.406 320.046,47.377 320.087,47.348 320.128,47.319 320.168,47.291 320.209,47.262 320.249,47.233 320.290,47.204 320.330,47.175 320.371,47.147 320.411,47.118 320.452,47.089 320.492,47.061 320.532,47.032 320.573,47.003 320.613,46.975 320.653,46.946 320.693,46.918 320.733,46.889 320.774,46.861 320.814,46.832 320.854,46.804 320.894,46.776 320.934,46.747 320.973,46.719 321.013,46.691 321.053,46.662 321.093,46.634 321.133,46.606 321.172,46.578 321.212,46.549 321.252,46.521 321.291,46.493 321.331,46.465 321.371,46.437 321.410,46.409 321.450,46.381 321.489,46.353 321.528,46.325 321.568,46.297 321.607,46.269 321.646,46.241 321.686,46.213 321.725,46.185 321.764,46.158 321.803,46.130 321.842,46.102 321.881,46.074 321.920,46.047 321.959,46.019 321.998,45.991 322.037,45.963 322.076,45.936 322.115,45.908 322.154,45.881 322.193,45.853 322.231,45.826 322.270,45.798 322.309,45.771 322.347,45.743 322.386,45.716 322.425,45.688 322.463,45.661 322.502,45.634 322.540,45.606 322.579,45.579 322.617,45.552 322.655,45.524 322.694,45.497 322.732,45.470 322.770,45.443 322.809,45.415 322.847,45.388 322.885,45.361 322.923,45.334 322.961,45.307 322.999,45.280 323.037,45.253 323.075,45.226 323.113,45.199 323.151,45.172 323.189,45.145 323.227,45.118 323.265,45.091 323.303,45.064 323.341,45.037 323.378,45.011 323.416,44.984 323.454,44.957 323.491,44.930 323.529,44.904 323.567,44.877 323.604,44.850 323.642,44.824 323.679,44.797 323.716,44.770 323.754,44.744 323.791,44.717 323.829,44.691 323.866,44.664 323.903,44.638 323.940,44.611 323.978,44.585 324.015,44.558 324.052,44.532 324.089,44.505 324.126,44.479 324.163,44.453 324.200,44.426 324.237,44.400 324.274,44.374 324.311,44.347 324.348,44.321 324.385,44.295 324.422,44.269 324.459,44.243 324.495,44.216 324.532,44.190 324.569,44.164 324.606,44.138 324.642,44.112 324.679,44.086 324.715,44.060 324.752,44.034 324.789,44.008 324.825,43.982 324.861,43.956 324.898,43.930 324.934,43.904 324.971,43.878 325.007,43.853 325.043,43.827 325.080,43.801 325.116,43.775 325.152,43.749 325.188,43.724 325.224,43.698 325.261,43.672 325.297,43.647 325.333,43.621 325.369,43.595 325.405,43.570 325.441,43.544 325.477,43.519 325.513,43.493 325.548,43.467 325.584,43.442 325.620,43.416 325.656,43.391 325.692,43.366 325.727,43.340 325.763,43.315 325.799,43.289 325.835,43.264 325.870,43.239 325.906,43.213 325.941,43.188 325.977,43.163 326.012,43.137 326.048,43.112 326.083,43.087 326.119,43.062 326.154,43.037 326.189,43.011 326.225,42.986 326.260,42.961 326.295,42.936 326.331,42.911 326.366,42.886 326.401,42.861 326.436,42.836 326.471,42.811 326.506,42.786 326.541,42.761 326.576,42.736 326.611,42.711 326.646,42.686 326.681,42.661 326.716,42.636 326.751,42.612 326.786,42.587 326.821,42.562 326.856,42.537 326.890,42.512 326.925,42.488 326.960,42.463 326.995,42.438 327.029,42.414 327.064,42.389 327.099,42.364 327.133,42.340 327.168,42.315 327.202,42.290 327.237,42.266 327.271,42.241 327.306,42.217 327.340,42.192 327.375,42.168 327.409,42.143 327.443,42.119 327.478,42.094 327.512,42.070 327.546,42.046 327.580,42.021 327.615,41.997 327.649,41.973 327.683,41.948 327.717,41.924 327.751,41.900 327.785,41.875 327.819,41.851 327.853,41.827 327.887,41.803 327.921,41.779 327.955,41.754 327.989,41.730 328.023,41.706 328.057,41.682 328.091,41.658 328.124,41.634 328.158,41.610 328.192,41.586 328.226,41.562 328.259,41.538 328.293,41.514 328.327,41.490 328.360,41.466 328.394,41.442 328.427,41.418 328.461,41.394 328.495,41.370 328.528,41.346 328.561,41.323 328.595,41.299 328.628,41.275 328.662,41.251 328.695,41.227 328.728,41.204 328.762,41.180 328.795,41.156 328.828,41.133 328.861,41.109 328.895,41.085 328.928,41.062 328.961,41.038 328.994,41.014 329.027,40.991 329.060,40.967 329.093,40.944 329.126,40.920 329.159,40.897 329.192,40.873 329.225,40.850 329.258,40.826 329.291,40.803 329.324,40.779 329.357,40.756 329.390,40.733 329.422,40.709 329.455,40.686 329.488,40.662 329.521,40.639 329.553,40.616 329.586,40.593 329.619,40.569 329.651,40.546 329.684,40.523 329.717,40.500 329.749,40.476 329.782,40.453 329.814,40.430 329.847,40.407 329.879,40.384 329.912,40.361 329.944,40.338 329.976,40.314 330.009,40.291 330.041,40.268 330.073,40.245 330.106,40.222 330.138,40.199 330.170,40.176 330.202,40.153 330.234,40.130 330.267,40.108 330.299,40.085 330.331,40.062 330.363,40.039 330.395,40.016 330.427,39.993 330.459,39.970 330.491,39.948 330.523,39.925 330.555,39.902 330.587,39.879 330.619,39.856 330.651,39.834 330.683,39.811 330.714,39.788 330.746,39.766 330.778,39.743 330.810,39.720 330.841,39.698 330.873,39.675 330.905,39.653 330.937,39.630 330.968,39.607 331.000,39.585 331.031,39.562 331.063,39.540 331.095,39.517 331.126,39.495 331.158,39.472 331.189,39.450 331.221,39.427 331.252,39.405 331.283,39.383 331.315,39.360 331.346,39.338 331.377,39.316 331.409,39.293 331.440,39.271 331.471,39.249 331.503,39.226 331.534,39.204 331.565,39.182 331.596,39.160 331.627,39.137 331.659,39.115 331.690,39.093 331.721,39.071 331.752,39.049 331.783,39.026 331.814,39.004 331.845,38.982 331.876,38.960 331.907,38.938 331.938,38.916 331.969,38.894 332.000,38.872 332.030,38.850 332.061,38.828 332.092,38.806 332.123,38.784 332.154,38.762 332.184,38.740 332.215,38.718 332.246,38.696 332.277,38.674 332.307,38.652 332.338,38.630 332.369,38.609 332.399,38.587 332.430,38.565 332.460,38.543 332.491,38.521 332.521,38.500 332.552,38.478 332.582,38.456 332.613,38.434 332.643,38.413 332.674,38.391 332.704,38.369 332.734,38.348 332.765,38.326 332.795,38.304 332.825,38.283 332.856,38.261 332.886,38.239 332.916,38.218 332.946,38.196 332.977,38.175 333.007,38.153 333.037,38.132 333.067,38.110 333.097,38.089 333.127,38.067 333.157,38.046 333.188,38.024 333.218,38.003 333.248,37.981 333.278,37.960 333.308,37.939 333.337,37.917 333.367,37.896 333.397,37.875 333.427,37.853 333.457,37.832 333.487,37.811 333.517,37.789 333.547,37.768 333.576,37.747 333.606,37.726 333.636,37.704 333.666,37.683 333.695,37.662 333.725,37.641 333.755,37.620 333.784,37.598 333.814,37.577 333.843,37.556 333.873,37.535 333.903,37.514 333.932,37.493 333.962,37.472 333.991,37.451 334.021,37.430 334.050,37.409 334.079,37.388 334.109,37.367 334.138,37.346 334.168,37.325 334.197,37.304 334.226,37.283 334.256,37.262 334.285,37.241 334.314,37.220 334.344,37.199 334.373,37.178 334.402,37.158 334.431,37.137 334.460,37.116 334.490,37.095 334.519,37.074 334.548,37.053 334.577,37.033 334.606,37.012 334.635,36.991 334.664,36.970 334.693,36.950 334.722,36.929 334.751,36.908 334.780,36.888 334.809,36.867 334.838,36.846 334.867,36.826 334.896,36.805 334.925,36.784 334.953,36.764 334.982,36.743 335.011,36.723 335.040,36.702 335.069,36.682 335.097,36.661 335.126,36.641 335.155,36.620 335.183,36.600 335.212,36.579 335.241,36.559 335.269,36.538 335.298,36.518 335.327,36.497 335.355,36.477 335.384,36.456 335.412,36.436 335.441,36.416 335.469,36.395 335.498,36.375 335.526,36.355 335.555,36.334 335.583,36.314 335.612,36.294 335.640,36.273 335.668,36.253 335.697,36.233 335.725,36.213 335.753,36.193 335.782,36.172 335.810,36.152 335.838,36.132 335.866,36.112 335.895,36.092 335.923,36.071 335.951,36.051 335.979,36.031 336.007,36.011 336.035,35.991 336.064,35.971 336.092,35.951 336.120,35.931 336.148,35.911 336.176,35.891 336.204,35.871 336.232,35.851 336.260,35.831 336.288,35.811 336.316,35.791 336.344,35.771 336.372,35.751 336.400,35.731 336.427,35.711 336.455,35.691 336.483,35.671 336.511,35.651 336.539,35.632 336.567,35.612 336.594,35.592 336.622,35.572 336.650,35.552 336.677,35.532 336.705,35.513 336.733,35.493 336.761,35.473 336.788,35.453 336.816,35.434 336.843,35.414 336.871,35.394 336.899,35.374 336.926,35.355 336.954,35.335 336.981,35.315 337.009,35.296 337.036,35.276 337.064,35.256 337.091,35.237 337.119,35.217 337.146,35.198 337.173,35.178 337.201,35.159 337.228,35.139 337.255,35.119 337.283,35.100 337.310,35.080 337.337,35.061 337.365,35.041 337.392,35.022 337.419,35.002 337.446,34.983 337.474,34.964 337.501,34.944 337.528,34.925 337.555,34.905 337.582,34.886 337.609,34.867 337.636,34.847 337.664,34.828 337.691,34.808 337.718,34.789 337.745,34.770 337.772,34.750 337.799,34.731 337.826,34.712 337.853,34.693 337.880,34.673 337.907,34.654 337.933,34.635 337.960,34.616 337.987,34.596 338.014,34.577 338.041,34.558 338.068,34.539 338.095,34.520 338.121,34.500 338.148,34.481 338.175,34.462 338.202,34.443 338.228,34.424 338.255,34.405 338.282,34.386 338.309,34.367 338.335,34.348 338.362,34.329 338.388,34.310 338.415,34.291 338.442,34.272 338.468,34.253 338.495,34.234 338.521,34.215 338.548,34.196 338.574,34.177 338.601,34.158 338.627,34.139 338.654,34.120 338.680,34.101 338.707,34.082 338.733,34.063 338.760,34.044 338.786,34.025 338.812,34.006 338.839,33.988 338.865,33.969 338.891,33.950 338.918,33.931 338.944,33.912 338.970,33.894 338.997,33.875 339.023,33.856 339.049,33.837 339.075,33.819 339.101,33.800 339.128,33.781 339.154,33.762 339.180,33.744 339.206,33.725 339.232,33.706 339.258,33.688 339.284,33.669 339.310,33.650 339.337,33.632 339.363,33.613 339.389,33.594 339.415,33.576 339.441,33.557 339.467,33.539 339.493,33.520 339.518,33.502 339.544,33.483 339.570,33.465 339.596,33.446 339.622,33.428 339.648,33.409 339.674,33.391 339.700,33.372 339.725,33.354 339.751,33.335 339.777,33.317 339.803,33.298 339.829,33.280 339.854,33.261 339.880,33.243 339.906,33.225 339.932,33.206 339.957,33.188 339.983,33.170 340.009,33.151 340.034,33.133 340.060,33.115 340.085,33.096 340.111,33.078 340.137,33.060 340.162,33.041 340.188,33.023 340.213,33.005 340.239,32.987 340.264,32.968 340.290,32.950 340.315,32.932 340.341,32.914 340.366,32.895 340.391,32.877 340.417,32.859 340.442,32.841 340.468,32.823 340.493,32.805 340.518,32.786 340.544,32.768 340.569,32.750 340.594,32.732 340.620,32.714 340.645,32.696 340.670,32.678 340.695,32.660 340.721,32.642 340.746,32.624 340.771,32.606 340.796,32.588 340.821,32.570 340.847,32.552 340.872,32.534 340.897,32.516 340.922,32.498 340.947,32.480 340.972,32.462 340.997,32.444 341.022,32.426 341.047,32.408 341.072,32.390 341.097,32.372 341.122,32.354 341.147,32.337 341.172,32.319 341.197,32.301 341.222,32.283 341.247,32.265 341.272,32.247 341.297,32.229 341.322,32.212 341.347,32.194 341.371,32.176 341.396,32.158 341.421,32.141 341.446,32.123 341.471,32.105 341.496,32.087 341.520,32.070 341.545,32.052 341.570,32.034 341.595,32.017 341.619,31.999 341.644,31.981 341.669,31.963 341.693,31.946 341.718,31.928 341.743,31.911 341.767,31.893 341.792,31.875 341.816,31.858 341.841,31.840 341.866,31.823 341.890,31.805 341.915,31.787 341.939,31.770 341.964,31.752 341.988,31.735 342.013,31.717 342.037,31.700 342.062,31.682 342.086,31.665 342.110,31.647 342.135,31.630 342.159,31.612 342.184,31.595 342.208,31.577 342.232,31.560 342.257,31.543 342.281,31.525 342.305,31.508 342.330,31.490 342.354,31.473 342.378,31.456 342.403,31.438 342.427,31.421 342.451,31.404 342.475,31.386 342.499,31.369 342.524,31.352 342.548,31.334 342.572,31.317 342.596,31.300 342.620,31.282 342.644,31.265 342.669,31.248 342.693,31.231 342.717,31.213 342.741,31.196 342.765,31.179 342.789,31.162 342.813,31.144 342.837,31.127 342.861,31.110 342.885,31.093 342.909,31.076 342.933,31.059 342.957,31.041 342.981,31.024 343.005,31.007 343.029,30.990 343.053,30.973 343.076,30.956 343.100,30.939 343.124,30.922 343.148,30.905 343.172,30.887 343.196,30.870 343.220,30.853 343.243,30.836 343.267,30.819 343.291,30.802 343.315,30.785 343.338,30.768 343.362,30.751 343.386,30.734 343.410,30.717 343.433,30.700 343.457,30.683 343.481,30.666 343.504,30.650 343.528,30.633 343.551,30.616 343.575,30.599 343.599,30.582 343.622,30.565 343.646,30.548 343.669,30.531 343.693,30.514 343.717,30.498 343.740,30.481 343.764,30.464 343.787,30.447 343.811,30.430 343.834,30.413 343.857,30.397 343.881,30.380 343.904,30.363 343.928,30.346 343.951,30.330 343.975,30.313 343.998,30.296 344.021,30.279 344.045,30.263 344.068,30.246 344.091,30.229 344.115,30.212 344.138,30.196 344.161,30.179 344.185,30.162 344.208,30.146 344.231,30.129 344.254,30.112 344.278,30.096 344.301,30.079 344.324,30.063 344.347,30.046 344.370,30.029 344.394,30.013 344.417,29.996 344.440,29.980 344.463,29.963 344.486,29.946 344.509,29.930 344.532,29.913 344.555,29.897 344.578,29.880 344.601,29.864 344.625,29.847 344.648,29.831 344.671,29.814 344.694,29.798 344.717,29.781 344.740,29.765 344.763,29.748 344.785,29.732 344.808,29.716 344.831,29.699 344.854,29.683 344.877,29.666 344.900,29.650 344.923,29.634 344.946,29.617 344.969,29.601 344.992,29.584 345.014,29.568 345.037,29.552 345.060,29.535 345.083,29.519 345.106,29.503 345.128,29.486 345.151,29.470 345.174,29.454 345.197,29.438 345.219,29.421 345.242,29.405 345.265,29.389 345.288,29.372 345.310,29.356 345.333,29.340 345.356,29.324 345.378,29.307 345.401,29.291 345.423,29.275 345.446,29.259 345.469,29.243 345.491,29.227 345.514,29.210 345.536,29.194 345.559,29.178 345.581,29.162 345.604,29.146 345.626,29.130 345.649,29.113 345.671,29.097 345.694,29.081 345.716,29.065 345.739,29.049 345.761,29.033 345.784,29.017 345.806,29.001 345.829,28.985 345.851,28.969 345.873,28.953 345.896,28.937 345.918,28.921 345.940,28.905 345.963,28.889 345.985,28.873 346.007,28.857 346.030,28.841 346.052,28.825 346.074,28.809 346.097,28.793 346.119,28.777 346.141,28.761 346.163,28.745 346.186,28.729 346.208,28.713 346.230,28.697 346.252,28.681 346.274,28.665 346.296,28.650 346.319,28.634 346.341,28.618 346.363,28.602 346.385,28.586 346.407,28.570 346.429,28.554 346.451,28.539 346.473,28.523 346.495,28.507 346.518,28.491 346.540,28.475 346.562,28.460 346.584,28.444 346.606,28.428 346.628,28.412 346.650,28.396 346.672,28.381 346.694,28.365 346.716,28.349 346.737,28.334 346.759,28.318 346.781,28.302 346.803,28.286 346.825,28.271 346.847,28.255 346.869,28.239 346.891,28.224 346.913,28.208 346.934,28.192 346.956,28.177 346.978,28.161 347.000,28.145 347.022,28.130 347.043,28.114 347.065,28.099 347.087,28.083 347.109,28.067 347.131,28.052 347.152,28.036 347.174,28.021 347.196,28.005 347.217,27.990 347.239,27.974 347.261,27.959 347.282,27.943 347.304,27.927 347.326,27.912 347.347,27.896 347.369,27.881 347.391,27.865 347.412,27.850 347.434,27.835 347.455,27.819 347.477,27.804 347.498,27.788 347.520,27.773 "/>
<g>
</g>
</g>
  <g transform="translate(198.221,229.522)">
    <g transform="rotate(-0.0)">
      <text x="0.000" y="0.000" font-family="Helvetica" text-anchor="middle" font-size="10.0pt" fill="#000000">Frequency (Hz)</text>
    </g>
  </g>
  <g transform="translate(19.461,108.026)">
    <g transform="rotate(-90.0)">
      <text x="0.000" y="0.000" font-family="Helvetica" text-anchor="middle" font-size="10.0pt" fill="#000000">ERB (Hz)</text>
    </g>
  </g>
    </g>
    <g>
      <polyline fill="none" stroke="#000000" stroke-width="0.5pt" stroke-dasharray="none" points="119.258,196.000 119.258,193.024 "/>
      <polyline fill="none" stroke="#000000" stroke-width="0.5pt" stroke-dasharray="none" points="218.458,196.000 218.458,193.024 "/>
      <polyline fill="none" stroke="#000000" stroke-width="0.5pt" stroke-dasharray="none" points="317.658,196.000 317.658,193.024 "/>
      <polyline fill="none" stroke="#000000" stroke-width="0.5pt" stroke-dasharray="none" points="49.920,196.000 347.520,196.000 "/>
      <polyline fill="none" stroke="#000000" stroke-width="0.5pt" stroke-dasharray="none" points="119.258,17.850 119.258,20.826 "/>
      <polyline fill="none" stroke="#000000" stroke-width="0.5pt" stroke-dasharray="none" points="218.458,17.850 218.458,20.826 "/>
      <polyline fill="none" stroke="#000000" stroke-width="0.5pt" stroke-dasharray="none" points="317.658,17.850 317.658,20.826 "/>
      <polyline fill="none" stroke="#000000" stroke-width="0.5pt" stroke-dasharray="none" points="49.920,17.850 347.520,17.850 "/>
  <g transform="translate(119.258,211.563)">
    <g transform="rotate(-0.0)">
      <text x="0.000" y="0.000" font-family="Helvetica" text-anchor="middle" font-size="10.0pt" fill="#000000">10<tspan font-size="6.0pt" dy="-6.0pt">2</tspan></text>
    </g>
  </g>
  <g transform="translate(218.458,211.563)">
    <g transform="rotate(-0.0)">
      <text x="0.000" y="0.000" font-family="Helvetica" text-anchor="middle" font-size="10.0pt" fill="#000000">10<tspan font-size="6.0pt" dy="-6.0pt">3</tspan></text>
    </g>
  </g>
  <g transform="translate(317.658,211.563)">
    <g transform="rotate(-0.0)">
      <text x="0.000" y="0.000" font-family="Helvetica" text-anchor="middle" font-size="10.0pt" fill="#000000">10<tspan font-size="6.0pt" dy="-6.0pt">4</tspan></text>
    </g>
  </g>
      <polyline fill="none" stroke="#000000" stroke-width="0.5pt" stroke-dasharray="none" points="49.920,124.082 52.896,124.082 "/>
      <polyline fill="none" stroke="#000000" stroke-width="0.5pt" stroke-dasharray="none" points="49.920,52.164 52.896,52.164 "/>
      <polyline fill="none" stroke="#000000" stroke-width="0.5pt" stroke-dasharray="none" points="49.920,196.000 49.920,17.850 "/>
      <polyline fill="none" stroke="#000000" stroke-width="0.5pt" stroke-dasharray="none" points="347.520,124.082 344.544,124.082 "/>
      <polyline fill="none" stroke="#000000" stroke-width="0.5pt" stroke-dasharray="none" points="347.520,52.164 344.544,52.164 "/>
      <polyline fill="none" stroke="#000000" stroke-width="0.5pt" stroke-dasharray="none" points="347.520,196.000 347.520,17.850 "/>
  <g transform="translate(43.968,203.000)">
    <g transform="rotate(-0.0)">
      <text x="0.000" y="0.000" font-family="Helvetica" text-anchor="end" font-size="10.0pt" fill="#000000">10<tspan font-size="6.0pt" dy="-6.0pt">1</tspan></text>
    </g>
  </g>
  <g transform="translate(43.968,131.082)">
    <g transform="rotate(-0.0)">
      <text x="0.000" y="0.000" font-family="Helvetica" text-anchor="end" font-size="10.0pt" fill="#000000">10<tspan font-size="6.0pt" dy="-6.0pt">2</tspan></text>
    </g>
  </g>
  <g transform="translate(43.968,59.164)">
    <g transform="rotate(-0.0)">
      <text x="0.000" y="0.000" font-family="Helvetica" text-anchor="end" font-size="10.0pt" fill="#000000">10<tspan font-size="6.0pt" dy="-6.0pt">3</tspan></text>
    </g>
  </g>
      <polyline fill="none" stroke="#000000" stroke-width="0.5pt" stroke-dasharray="none" points="49.920,196.000 49.920,194.218 "/>
      <polyline fill="none" stroke="#000000" stroke-width="0.5pt" stroke-dasharray="none" points="49.920,196.000 49.920,196.000 "/>
    </g>
  </g>
<link xmlns="" type="text/css" rel="stylesheet" id="dark-mode-general-link"/><link xmlns="" type="text/css" rel="stylesheet" id="dark-mode-custom-link"/><style xmlns="" type="text/css" id="dark-mode-custom-style"/></svg>