<?xml version="1.0" encoding="UTF-8" standalone="no"?>
<svg
   xmlns:dc="http://purl.org/dc/elements/1.1/"
   xmlns:cc="http://creativecommons.org/ns#"
   xmlns:rdf="http://www.w3.org/1999/02/22-rdf-syntax-ns#"
   xmlns:svg="http://www.w3.org/2000/svg"
   xmlns="http://www.w3.org/2000/svg"
   xmlns:sodipodi="http://sodipodi.sourceforge.net/DTD/sodipodi-0.dtd"
   xmlns:inkscape="http://www.inkscape.org/namespaces/inkscape"
   width="434"
   height="300"
   version="1.1"
   viewBox="0 0 114.8 79.37"
   id="svg172"
   sodipodi:docname="eyeangle.svg"
   inkscape:version="0.92.5 (2060ec1f9f, 2020-04-08)">
  <metadata
     id="metadata178">
    <rdf:RDF>
      <cc:Work
         rdf:about="">
        <dc:format>image/svg+xml</dc:format>
        <dc:type
           rdf:resource="http://purl.org/dc/dcmitype/StillImage" />
      </cc:Work>
    </rdf:RDF>
  </metadata>
  <defs
     id="defs176" />
  <sodipodi:namedview
     pagecolor="#ffffff"
     bordercolor="#666666"
     borderopacity="1"
     objecttolerance="10"
     gridtolerance="10"
     guidetolerance="10"
     inkscape:pageopacity="0"
     inkscape:pageshadow="2"
     inkscape:window-width="914"
     inkscape:window-height="585"
     id="namedview174"
     showgrid="false"
     inkscape:zoom="1.0074671"
     inkscape:cx="217"
     inkscape:cy="150"
     inkscape:window-x="0"
     inkscape:window-y="0"
     inkscape:window-maximized="0"
     inkscape:current-layer="svg172" />
  <g
     transform="translate(-29.56 -97.92)"
     id="g170">
    <path
       d="m64.17 127.1a2.731 3.931 0 0 1 2.455 1.995 2.731 3.931 0 0 1-0.07879 4.057 2.731 3.931 0 0 1-2.529 1.795"
       style="fill:none;paint-order:normal;stroke-linecap:round;stroke-linejoin:round;stroke-width:.5292;stroke:#000"
       id="path4" />
    <g
       aria-label="The Visual Angle, V degrees"
       id="g50">
      <path
         d="m39.62 108.6v-2.12c0-0.3551 0.05548-0.566 0.2552-0.566h0.1221c0.4161 0 0.9987-0.0721 0.9987 0.3496v2.336c0 0.4605-0.06658 0.4827-0.3884 0.5049-0.03329 0.0333-0.03329 0.1498 0 0.1831 0.2275-6e-3 0.3718-0.0111 0.6103-0.0111 0.2164 0 0.3107 6e-3 0.5438 0.0111 0.03329-0.0333 0.03329-0.1498 0-0.1831-0.2774-0.0222-0.3274-0.0444-0.3274-0.5049v-0.9044c0-0.1221 0.04994-0.1886 0.09432-0.2386 0.2108-0.2053 0.4883-0.3274 0.7102-0.3274 0.111 0 0.2275 0.0777 0.2941 0.1997 0.05549 0.111 0.06658 0.2608 0.06658 0.4272v0.8434c0 0.455-0.05548 0.4772-0.344 0.5049-0.02774 0.0333-0.02774 0.1498 0 0.1831 0.233-6e-3 0.344-0.0111 0.566-0.0111 0.2275 0 0.3496 6e-3 0.5881 0.0111 0.02774-0.0333 0.02774-0.1498 0-0.1831-0.3107-0.0277-0.3718-0.0499-0.3718-0.5049v-0.8267c0-0.3052-0.02219-0.5715-0.1498-0.7435-0.09433-0.1221-0.2663-0.1886-0.4605-0.1886-0.2774 0-0.6048 0.0721-0.9432 0.4494h-0.05549l0.0055-1.193c0-0.3606 0.02219-0.5826 0.02219-0.5826 0-0.0388-0.02219-0.0555-0.07213-0.0555-0.1276 0.0499-0.344 0.2053-0.6714 0.2164-0.3385 0.0111-0.8045 0.0222-1.088 0.0222h-0.4772c-0.4272 0-1.082-0.0277-1.293-0.0444-0.0111 0-0.02219 0.0111-0.02219 0.0167-0.02219 0.2497-0.07768 0.5382-0.1387 0.8045 0.05548 0.0222 0.1221 0.0277 0.1886 0.0277 0.111-0.4439 0.3662-0.5881 0.7324-0.5881h0.2719c0.2053 0 0.2608 0.2108 0.2608 0.5493v2.136c0 0.4605-0.09432 0.4883-0.5382 0.5049-0.03329 0.0333-0.03329 0.1498 0 0.1831 0.2719-6e-3 0.4716-0.0111 0.7768-0.0111 0.2996 0 0.4938 6e-3 0.7712 0.0111 0.03329-0.0333 0.03329-0.1498 0-0.1831-0.4439-0.0166-0.5382-0.0444-0.5382-0.5049z"
         style="stroke-width:.4161"
         id="path6" />
      <path
         d="m44.19 107.7c0.1054-0.627 0.4938-0.6769 0.627-0.6769 0.2108 0 0.4605 0.1165 0.4605 0.5826 0 0.0499-0.02219 0.0777-0.08323 0.0777zm1.454 1.049c-0.2053 0.2108-0.3662 0.2996-0.688 0.2996-0.1997 0-0.4328-0.1165-0.6048-0.3995-0.111-0.1831-0.1776-0.4383-0.1776-0.7602l1.476 0.0111c0.06658 0 0.1054-0.0333 0.1054-0.0943 0-0.4661-0.1665-0.9654-0.9377-0.9654-0.4827 0-1.11 0.4605-1.11 1.304 0 0.3107 0.07768 0.6103 0.2608 0.8212 0.1886 0.2219 0.4494 0.3551 0.8489 0.3551 0.4217 0 0.7213-0.1942 0.9432-0.4827-0.01665-0.0555-0.04994-0.0832-0.1165-0.0888z"
         style="stroke-width:.4161"
         id="path8" />
      <path
         d="m49.85 105.9c0.4106 0.0277 0.4106 0.1776 0.2941 0.4772l-0.8767 2.225h-0.02774l-0.8822-2.258c-0.1276-0.3274-0.09432-0.405 0.283-0.4439 0.03329-0.0333 0.03329-0.1498 0-0.1831-0.2219 6e-3 -0.4716 0.0111-0.6714 0.0111-0.2053 0-0.3939-6e-3 -0.577-0.0111-0.03329 0.0333-0.02774 0.1498 0.0055 0.1831 0.3052 0.0277 0.344 0.1221 0.4938 0.5049l1.099 2.841c0.03329 0.0888 0.07213 0.1276 0.1276 0.1276 0.06103 0 0.09987-0.0444 0.1332-0.1276l1.143-2.83c0.1054-0.2608 0.1997-0.4772 0.5493-0.516 0.03329-0.0333 0.03329-0.1498 0-0.1831-0.1665 6e-3 -0.3607 0.0111-0.4883 0.0111s-0.3773-6e-3 -0.6048-0.0111c-0.03329 0.0333-0.03329 0.1498 0 0.1831z"
         style="stroke-width:.4161"
         id="path10" />
      <path
         d="m51.49 106c0 0.1443 0.1332 0.2885 0.2663 0.2885 0.1554 0 0.2885-0.1443 0.2885-0.2663 0-0.1332-0.1165-0.2885-0.2663-0.2885-0.1332 0-0.2885 0.1332-0.2885 0.2663zm0.5049 2.647v-1.104c0-0.2774 0.0222-0.6325 0.0222-0.6325 0-0.0222-0.02774-0.0388-0.07213-0.0388-0.1609 0.061-0.3773 0.111-0.7601 0.1609-0.0111 0.0333 0 0.1221 0.0111 0.1554 0.2996 0.0333 0.3607 0.061 0.3607 0.3773v1.082c0 0.4605-0.06103 0.4772-0.3995 0.5049-0.03329 0.0333-0.03329 0.1498 0 0.1831 0.1831-6e-3 0.3995-0.0111 0.6214-0.0111s0.4328 6e-3 0.6159 0.0111c0.03329-0.0333 0.03329-0.1498 0-0.1831-0.3385-0.0222-0.3995-0.0444-0.3995-0.5049z"
         style="stroke-width:.4161"
         id="path12" />
      <path
         d="m52.76 108.5c0.0222 0.2719 0.03884 0.5327 0.03884 0.7657 0.05549-0.0111 0.111-0.0166 0.1387-0.0166 0.03884 0 0.07213 0 0.111 0.0111 0.1498 0.0388 0.2996 0.061 0.5049 0.061 0.3107 0 0.8822-0.1498 0.8822-0.6991 0-0.3773-0.2719-0.5992-0.6492-0.738-0.3385-0.1221-0.5549-0.2108-0.5549-0.516 0-0.2275 0.1997-0.3551 0.3884-0.3551 0.1221 0 0.4439 0.0444 0.516 0.516 0.03329 0.0333 0.1443 0.0277 0.1776-6e-3 0.01665-0.1998 0.02774-0.405 0.03329-0.5882-0.172-0.0277-0.4383-0.1054-0.7269-0.1054-0.4106 0-0.7823 0.2663-0.7823 0.6214 0 0.405 0.1831 0.577 0.6103 0.7546 0.4605 0.1886 0.5659 0.3052 0.5659 0.5438 0 0.2719-0.2663 0.3884-0.4716 0.3884-0.2164 0-0.3385-0.0721-0.3939-0.1332-0.1221-0.1276-0.1831-0.3718-0.2164-0.5105-0.03329-0.0333-0.1387-0.0277-0.172 6e-3z"
         style="stroke-width:.4161"
         id="path14" />
      <path
         d="m55.86 109.4c0.2164 0 0.4772-0.111 0.749-0.3329 0.02774-0.0222 0.07768-0.0333 0.08323 6e-3 0.0111 0.1443 0.06103 0.3274 0.06103 0.3274 0.04439 0.0166 0.06658 0.0166 0.1054 0 0.1221-0.0999 0.3163-0.1831 0.6547-0.2219 0.03329-0.0333 0.03329-0.1165 0-0.1498-0.3551-0.0277-0.405-0.1332-0.405-0.405v-1.065c0-0.1665 0.02219-0.5715 0.02219-0.5715 0-0.0166-0.01664-0.0333-0.04439-0.0333-0.02774 6e-3 -0.111 0.0111-0.1942 0.0111-0.1776 0-0.3773-6e-3 -0.5659-0.0111-0.03329 0.0333-0.03329 0.1498 0 0.1831 0.2719 0.0166 0.344 0.0832 0.344 0.4494v1.071c0 0.1054-0.0111 0.1498-0.08878 0.2164-0.2053 0.1776-0.4161 0.2663-0.5549 0.2663-0.1665 0-0.4439-0.0777-0.4439-0.5715v-1.01c0-0.1665 0.02219-0.5715 0.02219-0.5715 0-0.0166-0.01664-0.0333-0.04439-0.0333-0.02774 6e-3 -0.111 0.0111-0.1942 0.0111-0.1776 0-0.3773-6e-3 -0.5659-0.0111-0.03329 0.0333-0.03329 0.1498 0 0.1831 0.2663 0.0222 0.344 0.0832 0.344 0.4439v1.065c0 0.3828 0.1665 0.7546 0.7158 0.7546z"
         style="stroke-width:.4161"
         id="path16" />
      <path
         d="m59.23 108v0.7324c0 0.0721-0.03329 0.111-0.07768 0.1443-0.1443 0.1165-0.3329 0.2441-0.4883 0.2441-0.2774 0-0.3995-0.2219-0.3995-0.394 0-0.2497 0.1165-0.5049 0.5271-0.6103zm0 1.026c0.03329 0.172 0.08878 0.3218 0.3718 0.3218 0.2108 0 0.4106-0.0943 0.5271-0.2053-0.0111-0.0666-0.03329-0.111-0.09432-0.1498-0.04439 0.0388-0.1387 0.0888-0.2053 0.0888-0.1609 0-0.1665-0.2164-0.1665-0.4716v-0.8156c0-0.7879-0.4328-0.9377-0.8378-0.9377-0.455 0-0.9155 0.2996-0.9155 0.6159 0 0.1332 0.06658 0.1998 0.1942 0.1998 0.1609 0 0.2608-0.1165 0.2608-0.1886 0-0.0388-0.0055-0.0777-0.01665-0.0999-0.0055-0.0166-0.0111-0.0499-0.0111-0.111 0-0.172 0.233-0.233 0.4439-0.233 0.1886 0 0.4494 0.0943 0.4494 0.7213 0 0.0388-0.01665 0.061-0.03329 0.0666l-0.4772 0.1165c-0.5327 0.1332-0.9155 0.4272-0.9155 0.8045 0 0.455 0.3107 0.5992 0.6991 0.5992 0.1886 0 0.3607-0.0444 0.6048-0.233l0.111-0.0888z"
         style="stroke-width:.4161"
         id="path18" />
      <path
         d="m60.67 108.6c0 0.4605-0.06103 0.4883-0.3995 0.5049-0.03329 0.0333-0.03329 0.1498 0 0.1831 0.1942-6e-3 0.3995-0.0111 0.6214-0.0111s0.4328 6e-3 0.6159 0.0111c0.03329-0.0333 0.03329-0.1498 0-0.1831-0.3385-0.0166-0.3995-0.0444-0.3995-0.5049v-2.558c0-0.3607 0.0222-0.5826 0.0222-0.5826 0-0.0388-0.0222-0.0555-0.07213-0.0555-0.1387 0.0555-0.5549 0.1332-0.7768 0.1498-0.0111 0.0444 0 0.1332 0.03329 0.1664 0.3218 0.0222 0.3551 0.0388 0.3551 0.455z"
         style="stroke-width:.4161"
         id="path20" />
      <path
         d="m64.45 107.7c-0.1221 0-0.1609-0.0166-0.1443-0.0721l0.5715-1.437h0.03329l0.5216 1.509zm-0.5992 1.132 0.3052-0.8045c0.02774-0.0721 0.06103-0.0943 0.1942-0.0943h1.171l0.3218 0.9377c0.06103 0.1942-0.1498 0.2108-0.4106 0.2275-0.03329 0.0333-0.03329 0.1498 0 0.1831 0.2053-6e-3 0.5105-0.0111 0.7269-0.0111 0.2275 0 0.4383 6e-3 0.6325 0.0111 0.03329-0.0333 0.03329-0.1498 0-0.1831-0.2164-0.0166-0.405-0.0333-0.4994-0.3052l-1.143-3.174c-0.08323 0.0499-0.233 0.111-0.3052 0.111l-1.26 2.974c-0.1443 0.344-0.3163 0.3773-0.5549 0.394-0.03329 0.0333-0.03329 0.1498 0 0.1831 0.1443-6e-3 0.3218-0.0111 0.4938-0.0111 0.2275 0 0.5049 6e-3 0.7102 0.0111 0.03329-0.0333 0.03329-0.1498 0-0.1831-0.2108-0.0111-0.4716-0.0333-0.3828-0.2663z"
         style="stroke-width:.4161"
         id="path22" />
      <path
         d="m67.87 107.3c-0.03884 0.0388-0.06658 0.0555-0.06658 0-0.0055-0.1498-0.02219-0.3606-0.04439-0.4217-0.01665-0.0222-0.02219-0.0444-0.06658-0.0444-0.1554 0.061-0.2996 0.111-0.6825 0.1609-0.0111 0.0333 0 0.1221 0.0111 0.1554 0.2996 0.0277 0.3607 0.0555 0.3607 0.3773v1.082c0 0.455-0.05549 0.4772-0.3884 0.5049-0.03329 0.0333-0.03329 0.1498 0 0.1831 0.1665-6e-3 0.3884-0.0111 0.6103-0.0111s0.3884 6e-3 0.5549 0.0111c0.03329-0.0333 0.03329-0.1498 0-0.1831-0.283-0.0277-0.3385-0.0499-0.3385-0.5049v-0.91c0-0.1165 0.04994-0.1831 0.09432-0.233 0.2108-0.2053 0.4605-0.3274 0.6769-0.3274 0.111 0 0.2275 0.0721 0.2941 0.1997 0.05549 0.111 0.06658 0.2608 0.06658 0.4272v0.8434c0 0.455-0.05548 0.4772-0.344 0.5049-0.02774 0.0333-0.02774 0.1498 0 0.1831 0.1665-6e-3 0.344-0.0111 0.566-0.0111 0.2219 0 0.4217 6e-3 0.5881 0.0111 0.02774-0.0333 0.02774-0.1498 0-0.1831-0.3107-0.0277-0.3718-0.0499-0.3718-0.5049v-0.8267c0-0.3052-0.02219-0.5715-0.1498-0.7435-0.09433-0.1221-0.2663-0.1886-0.4605-0.1886-0.2719 0-0.5826 0.0721-0.91 0.4494z"
         style="stroke-width:.4161"
         id="path24" />
      <path
         d="m71.63 107.7c0 0.516-0.2608 0.6214-0.4661 0.6214-0.4661 0-0.516-0.3939-0.516-0.749 0-0.3884 0.1387-0.5881 0.4439-0.5881 0.3496 0 0.5382 0.2552 0.5382 0.7158zm-1.038 1.604c0.06103 0.0166 0.1498 0.0277 0.2219 0.0277 0.172 0 0.3274-0.0166 0.405-0.0166 0.2774 0 0.5105 6e-3 0.6714 0.0943 0.2164 0.1221 0.283 0.1998 0.283 0.344 0 0.3995-0.5881 0.6103-1.088 0.6103-0.1997 0-0.6658-0.1609-0.6658-0.5382 0-0.1886 0.0111-0.3274 0.172-0.5216zm1.731-2.203c0.1054 0 0.2053-0.0999 0.2053-0.2108 0-0.1165-0.1054-0.2053-0.2552-0.2053-0.1443 0-0.4106 0.0943-0.5549 0.283-0.06658-0.0444-0.2497-0.1554-0.577-0.1554-0.4938 0-0.9488 0.3329-0.9488 0.8434 0 0.2996 0.1332 0.4716 0.2885 0.6214-0.1554 0.1332-0.2441 0.3718-0.2441 0.5604 0 0.1998 0.111 0.3551 0.2552 0.4272-0.2996 0.1776-0.455 0.4328-0.455 0.6714 0 0.4827 0.455 0.6325 0.8822 0.6325 0.7491 0 1.559-0.3606 1.559-0.9599 0-0.1776-0.08323-0.3163-0.2441-0.4494-0.2164-0.1776-0.6048-0.1831-0.8101-0.1831-0.09987 0-0.2386 0.0111-0.3718 0.0277-0.08323 6e-3 -0.1387 0.0111-0.1665 0.0111-0.1609 0-0.3551-0.0777-0.3551-0.3163 0-0.111 0.03329-0.2275 0.09987-0.3218 0.1332 0.0777 0.2885 0.1165 0.5049 0.1165 0.4883 0 0.9377-0.3052 0.9377-0.8489 0-0.2608-0.07768-0.4106-0.2386-0.577 0.03884-0.0555 0.1498-0.1332 0.2219-0.1332 0.03884 0 0.07768 0.0166 0.111 0.0666 0.0222 0.0444 0.09432 0.0999 0.1554 0.0999z"
         style="stroke-width:.4161"
         id="path26" />
      <path
         d="m73.17 108.6c0 0.4605-0.06103 0.4883-0.3995 0.5049-0.03329 0.0333-0.03329 0.1498 0 0.1831 0.1942-6e-3 0.3995-0.0111 0.6214-0.0111 0.2219 0 0.4328 6e-3 0.6159 0.0111 0.03329-0.0333 0.03329-0.1498 0-0.1831-0.3385-0.0166-0.3995-0.0444-0.3995-0.5049v-2.558c0-0.3607 0.02219-0.5826 0.02219-0.5826 0-0.0388-0.02219-0.0555-0.07213-0.0555-0.1387 0.0555-0.5549 0.1332-0.7768 0.1498-0.0111 0.0444 0 0.1332 0.03329 0.1664 0.3218 0.0222 0.3551 0.0388 0.3551 0.455z"
         style="stroke-width:.4161"
         id="path28" />
      <path
         d="m74.79 107.7c0.1054-0.627 0.4938-0.6769 0.627-0.6769 0.2108 0 0.4605 0.1165 0.4605 0.5826 0 0.0499-0.02219 0.0777-0.08323 0.0777zm1.454 1.049c-0.2053 0.2108-0.3662 0.2996-0.688 0.2996-0.1997 0-0.4328-0.1165-0.6048-0.3995-0.111-0.1831-0.1776-0.4383-0.1776-0.7602l1.476 0.0111c0.06658 0 0.1054-0.0333 0.1054-0.0943 0-0.4661-0.1665-0.9654-0.9377-0.9654-0.4827 0-1.11 0.4605-1.11 1.304 0 0.3107 0.07768 0.6103 0.2608 0.8212 0.1886 0.2219 0.4494 0.3551 0.8489 0.3551 0.4217 0 0.7213-0.1942 0.9432-0.4827-0.01665-0.0555-0.04994-0.0832-0.1165-0.0888z"
         style="stroke-width:.4161"
         id="path30" />
      <path
         d="m77.11 108.8c-0.172 0-0.2941 0.1165-0.2941 0.2719 0 0.1776 0.1443 0.2275 0.2441 0.2441 0.1054 0.0111 0.1997 0.0444 0.1997 0.172 0 0.1165-0.1997 0.3718-0.4883 0.4439 0 0.0555 0.0111 0.0943 0.04994 0.1332 0.3329-0.061 0.6547-0.3274 0.6547-0.7158 0-0.3329-0.1443-0.5493-0.3662-0.5493z"
         style="stroke-width:.4161"
         id="path32" />
      <path
         d="m81.63 105.9c0.4106 0.0277 0.4106 0.1776 0.2941 0.4772l-0.8767 2.225h-0.02774l-0.8822-2.258c-0.1276-0.3274-0.09432-0.405 0.283-0.4439 0.03329-0.0333 0.03329-0.1498 0-0.1831-0.2219 6e-3 -0.4716 0.0111-0.6714 0.0111-0.2053 0-0.3939-6e-3 -0.577-0.0111-0.03329 0.0333-0.02774 0.1498 0.0055 0.1831 0.3052 0.0277 0.344 0.1221 0.4938 0.5049l1.099 2.841c0.03329 0.0888 0.07213 0.1276 0.1276 0.1276 0.06103 0 0.09987-0.0444 0.1332-0.1276l1.143-2.83c0.1054-0.2608 0.1997-0.4772 0.5493-0.516 0.03329-0.0333 0.03329-0.1498 0-0.1831-0.1665 6e-3 -0.3607 0.0111-0.4883 0.0111s-0.3773-6e-3 -0.6048-0.0111c-0.03329 0.0333-0.03329 0.1498 0 0.1831z"
         style="stroke-width:.4161"
         id="path34" />
      <path
         d="m86.06 108.6c0 0.1054-0.0111 0.1498-0.08878 0.2164-0.2053 0.1776-0.3828 0.2663-0.5216 0.2663-0.2996 0-0.6103-0.3274-0.6103-1.021 0-0.3995 0.07768-0.6214 0.1609-0.738 0.172-0.2608 0.405-0.2774 0.516-0.2774 0.1997 0 0.3385 0.0721 0.4494 0.1998 0.07768 0.0888 0.09433 0.1276 0.09433 0.2996zm-0.06103 0.4106c0.02219-0.0222 0.07768-0.0333 0.08323 6e-3 0.0111 0.1387 0.06103 0.3274 0.06103 0.3274 0.04439 0.0166 0.07213 0.0166 0.1054 0 0.1221-0.0999 0.3163-0.1831 0.6547-0.2219 0.03329-0.0333 0.03329-0.1165 0-0.1498-0.3551-0.0277-0.405-0.1332-0.405-0.405v-2.514c0-0.3607 0.02219-0.5826 0.02219-0.5826 0-0.0388-0.02219-0.0555-0.07213-0.0555-0.1387 0.0555-0.5549 0.1332-0.7768 0.1498-0.0111 0.0444 0 0.1332 0.03329 0.1664 0.2885 0.0166 0.3551-0.0111 0.3551 0.455v0.7102c0 0.0388-0.0111 0.0499-0.04994 0.0499-0.0222 0-0.2497-0.0943-0.4328-0.0943-0.3662 0-0.6103 0.1221-0.8323 0.3329-0.2386 0.2386-0.3828 0.566-0.3828 0.9765 0 0.6825 0.344 1.182 0.9432 1.182 0.2164 0 0.4217-0.111 0.6936-0.3329z"
         style="stroke-width:.4161"
         id="path36" />
      <path
         d="m87.64 107.7c0.1054-0.627 0.4938-0.6769 0.627-0.6769 0.2108 0 0.4605 0.1165 0.4605 0.5826 0 0.0499-0.02219 0.0777-0.08323 0.0777zm1.454 1.049c-0.2053 0.2108-0.3662 0.2996-0.688 0.2996-0.1997 0-0.4328-0.1165-0.6048-0.3995-0.111-0.1831-0.1776-0.4383-0.1776-0.7602l1.476 0.0111c0.06658 0 0.1054-0.0333 0.1054-0.0943 0-0.4661-0.1665-0.9654-0.9377-0.9654-0.4827 0-1.11 0.4605-1.11 1.304 0 0.3107 0.07768 0.6103 0.2608 0.8212 0.1886 0.2219 0.4494 0.3551 0.8489 0.3551 0.4217 0 0.7213-0.1942 0.9432-0.4827-0.01665-0.0555-0.04994-0.0832-0.1165-0.0888z"
         style="stroke-width:.4161"
         id="path38" />
      <path
         d="m91.21 107.7c0 0.516-0.2608 0.6214-0.4661 0.6214-0.4661 0-0.516-0.3939-0.516-0.749 0-0.3884 0.1387-0.5881 0.4439-0.5881 0.3496 0 0.5382 0.2552 0.5382 0.7158zm-1.038 1.604c0.06103 0.0166 0.1498 0.0277 0.2219 0.0277 0.172 0 0.3274-0.0166 0.405-0.0166 0.2774 0 0.5105 6e-3 0.6714 0.0943 0.2164 0.1221 0.283 0.1998 0.283 0.344 0 0.3995-0.5881 0.6103-1.088 0.6103-0.1997 0-0.6658-0.1609-0.6658-0.5382 0-0.1886 0.0111-0.3274 0.172-0.5216zm1.731-2.203c0.1054 0 0.2053-0.0999 0.2053-0.2108 0-0.1165-0.1054-0.2053-0.2552-0.2053-0.1443 0-0.4106 0.0943-0.5549 0.283-0.06658-0.0444-0.2497-0.1554-0.577-0.1554-0.4938 0-0.9488 0.3329-0.9488 0.8434 0 0.2996 0.1332 0.4716 0.2885 0.6214-0.1554 0.1332-0.2441 0.3718-0.2441 0.5604 0 0.1998 0.111 0.3551 0.2552 0.4272-0.2996 0.1776-0.455 0.4328-0.455 0.6714 0 0.4827 0.455 0.6325 0.8822 0.6325 0.749 0 1.559-0.3606 1.559-0.9599 0-0.1776-0.08323-0.3163-0.2441-0.4494-0.2164-0.1776-0.6048-0.1831-0.8101-0.1831-0.09987 0-0.2386 0.0111-0.3718 0.0277-0.08323 6e-3 -0.1387 0.0111-0.1665 0.0111-0.1609 0-0.3551-0.0777-0.3551-0.3163 0-0.111 0.03329-0.2275 0.09987-0.3218 0.1332 0.0777 0.2885 0.1165 0.5049 0.1165 0.4883 0 0.9377-0.3052 0.9377-0.8489 0-0.2608-0.07768-0.4106-0.2386-0.577 0.03884-0.0555 0.1498-0.1332 0.2219-0.1332 0.03884 0 0.07768 0.0166 0.111 0.0666 0.02219 0.0444 0.09432 0.0999 0.1554 0.0999z"
         style="stroke-width:.4161"
         id="path40" />
      <path
         d="m93.19 107.3c-0.0111-0.2219-0.02219-0.3606-0.04439-0.4217-0.01665-0.0222-0.02219-0.0444-0.06658-0.0444-0.1554 0.061-0.2996 0.111-0.6825 0.1609-0.0111 0.0333 0 0.1221 0.0111 0.1554 0.2996 0.0277 0.3607 0.0555 0.3607 0.3773v1.082c0 0.4605-0.06658 0.4827-0.4106 0.5049-0.03329 0.0333-0.03329 0.1498 0 0.1831 0.1942-6e-3 0.4106-0.0111 0.6325-0.0111s0.4772 6e-3 0.6714 0.0111c0.03329-0.0333 0.03329-0.1498 0-0.1831-0.3884-0.0277-0.455-0.0444-0.455-0.5049v-0.7712c0-0.1443 0.06658-0.2719 0.1332-0.3718 0.06103-0.0888 0.1886-0.2719 0.2552-0.2719 0.04994 0 0.09987 0.0166 0.1387 0.0721 0.04439 0.0555 0.1054 0.1276 0.2053 0.1276 0.1332 0 0.2608-0.1387 0.2608-0.2774 0-0.1054-0.09987-0.2663-0.3329-0.2663-0.2608 0-0.4883 0.2441-0.6159 0.4605-0.03329 0.061-0.06103 0.0166-0.06103-0.0111z"
         style="stroke-width:.4161"
         id="path42" />
      <path
         d="m94.91 107.7c0.1054-0.627 0.4938-0.6769 0.627-0.6769 0.2108 0 0.4605 0.1165 0.4605 0.5826 0 0.0499-0.02219 0.0777-0.08323 0.0777zm1.454 1.049c-0.2053 0.2108-0.3662 0.2996-0.688 0.2996-0.1997 0-0.4328-0.1165-0.6048-0.3995-0.111-0.1831-0.1776-0.4383-0.1776-0.7602l1.476 0.0111c0.06658 0 0.1054-0.0333 0.1054-0.0943 0-0.4661-0.1665-0.9654-0.9377-0.9654-0.4827 0-1.11 0.4605-1.11 1.304 0 0.3107 0.07768 0.6103 0.2608 0.8212 0.1886 0.2219 0.4494 0.3551 0.8489 0.3551 0.4217 0 0.7213-0.1942 0.9432-0.4827-0.01665-0.0555-0.04994-0.0832-0.1165-0.0888z"
         style="stroke-width:.4161"
         id="path44" />
      <path
         d="m97.44 107.7c0.1054-0.627 0.4938-0.6769 0.627-0.6769 0.2108 0 0.4605 0.1165 0.4605 0.5826 0 0.0499-0.02219 0.0777-0.08323 0.0777zm1.454 1.049c-0.2053 0.2108-0.3662 0.2996-0.688 0.2996-0.1997 0-0.4328-0.1165-0.6048-0.3995-0.111-0.1831-0.1776-0.4383-0.1776-0.7602l1.476 0.0111c0.06658 0 0.1054-0.0333 0.1054-0.0943 0-0.4661-0.1665-0.9654-0.9377-0.9654-0.4827 0-1.11 0.4605-1.11 1.304 0 0.3107 0.07768 0.6103 0.2608 0.8212 0.1886 0.2219 0.4494 0.3551 0.8489 0.3551 0.4217 0 0.7213-0.1942 0.9432-0.4827-0.01665-0.0555-0.04994-0.0832-0.1165-0.0888z"
         style="stroke-width:.4161"
         id="path46" />
      <path
         d="m99.5 108.5c0.02219 0.2719 0.03884 0.5327 0.03884 0.7657 0.05549-0.0111 0.111-0.0166 0.1387-0.0166 0.03884 0 0.07213 0 0.111 0.0111 0.1498 0.0388 0.2996 0.061 0.5049 0.061 0.3107 0 0.8822-0.1498 0.8822-0.6991 0-0.3773-0.2719-0.5992-0.6492-0.738-0.3385-0.1221-0.5548-0.2108-0.5548-0.516 0-0.2275 0.1997-0.3551 0.3884-0.3551 0.1221 0 0.4439 0.0444 0.516 0.516 0.0333 0.0333 0.1443 0.0277 0.1776-6e-3 0.0166-0.1998 0.0277-0.405 0.0333-0.5882-0.172-0.0277-0.4383-0.1054-0.7268-0.1054-0.4106 0-0.7823 0.2663-0.7823 0.6214 0 0.405 0.1831 0.577 0.6103 0.7546 0.4605 0.1886 0.566 0.3052 0.566 0.5438 0 0.2719-0.2663 0.3884-0.4716 0.3884-0.2164 0-0.3385-0.0721-0.3939-0.1332-0.1221-0.1276-0.1831-0.3718-0.2164-0.5105-0.03329-0.0333-0.1387-0.0277-0.172 6e-3z"
         style="stroke-width:.4161"
         id="path48" />
    </g>
    <path
       d="m63.99 135a12.62 12.62 0 0 1-14.11 8.256 12.62 12.62 0 0 1-10.42-12.59 12.62 12.62 0 0 1 10.75-12.31 12.62 12.62 0 0 1 13.89 8.625"
       style="fill-rule:evenodd;fill:#fee080;paint-order:normal;stroke-linecap:round;stroke-linejoin:round;stroke-width:.5447;stroke:#000"
       id="path52" />
    <g
       aria-label="a"
       id="g56">
      <path
         d="m38.84 137.7v0.7014c0 0.0691-0.03188 0.1063-0.07439 0.1382-0.1382 0.1116-0.3188 0.2338-0.4676 0.2338-0.2657 0-0.3826-0.2125-0.3826-0.3773 0-0.2391 0.1116-0.4835 0.5048-0.5845zm0 0.983c0.03188 0.1647 0.08502 0.3082 0.356 0.3082 0.2019 0 0.3932-0.0903 0.5048-0.1966-0.01063-0.0638-0.03188-0.1063-0.09033-0.1435-0.04251 0.0372-0.1328 0.085-0.1966 0.085-0.1541 0-0.1594-0.2072-0.1594-0.4516v-0.7811c0-0.7545-0.4145-0.898-0.8023-0.898-0.4357 0-0.8767 0.2869-0.8767 0.5898 0 0.1275 0.06376 0.1913 0.186 0.1913 0.1541 0 0.2497-0.1116 0.2497-0.1807 0-0.0372-0.0053-0.0744-0.01594-0.0957-0.0053-0.0159-0.01063-0.0478-0.01063-0.1063 0-0.1647 0.2232-0.2232 0.4251-0.2232 0.1807 0 0.4304 0.0903 0.4304 0.6908 0 0.0372-0.01594 0.0584-0.03188 0.0638l-0.457 0.1116c-0.5101 0.1275-0.8767 0.4091-0.8767 0.7705 0 0.4357 0.2976 0.5739 0.6695 0.5739 0.1807 0 0.3454-0.0425 0.5792-0.2232l0.1063-0.085z"
         style="stroke-width:.3985"
         id="path54" />
    </g>
    <g
       aria-label="b"
       id="g60">
      <path
         d="m37.94 125.6c0.1376-0.1217 0.2963-0.1693 0.4498-0.1693 0.3228 0 0.5874 0.3916 0.5874 0.9049 0 0.6032-0.2434 1.058-0.7461 1.058-0.164 0-0.2752-0.1164-0.381-0.2487v-1.323c0-0.1111 0.02117-0.1588 0.08996-0.2222zm-0.03704-0.164c-0.03704 0.0318-0.05292 0.0212-0.05292-0.0265v-0.9737c0-0.344 0.02117-0.5556 0.02117-0.5556 0-0.037-0.02117-0.0529-0.06879-0.0529-0.1323 0.0529-0.5292 0.127-0.7408 0.1429-0.01058 0.0423 0 0.127 0.03175 0.1588 0.2752 0.0159 0.3387-0.0106 0.3387 0.4339v2.582c0 0.2064-0.0053 0.3016-0.02117 0.3757 0.02646 0.0423 0.05292 0.0635 0.1164 0.0635 0.03175-0.0265 0.08467-0.0794 0.1217-0.127 0.05821-0.0635 0.08996-0.0635 0.1482-0.0106 0.1164 0.1006 0.2752 0.127 0.4657 0.127 0.5398 0 1.169-0.4921 1.169-1.334 0-0.6456-0.4762-1.042-0.9366-1.042-0.2275 0-0.4286 0.0899-0.5927 0.2381z"
         style="stroke-width:.2646"
         id="path58" />
    </g>
    <path
       d="m66.02 128.5-25.06 8.285 23.37-2.851 70.72-20.38z"
       style="fill-opacity:.7059;fill:#fff;stroke-linejoin:round;stroke-width:.2646;stroke:#000"
       id="path62" />
    <path
       d="m66.95 129.5-26.59-3.207 23.97 7.64 70.64 12.74z"
       style="fill-opacity:.7059;fill:#fff;stroke-linejoin:round;stroke-width:.2646;stroke:#000"
       id="path64" />
    <path
       d="m40.49 143.1v10.56"
       style="fill:none;stroke-linejoin:round;stroke-width:.5292;stroke:#000"
       id="path66" />
    <path
       d="m64.08 142.7v16.57"
       style="fill:none;stroke-linejoin:round;stroke-width:.5292;stroke:#000"
       id="path68" />
    <path
       d="m135.1 152.7v6.147"
       style="fill:none;stroke-linejoin:round;stroke-width:.5292;stroke:#000"
       id="path70" />
    <g
       aria-label="B"
       id="g74">
      <path
         d="m134.8 148.5c0-0.2805 0-0.3334 0.4604-0.3334 0.2963 0 0.6826 0.1588 0.6826 0.6985 0 0.4498-0.3122 0.6085-0.7514 0.6085h-0.3916zm0 1.154h0.3651c0.725 0 1.027 0.4075 1.027 0.8837 0 0.3863-0.1482 0.7091-0.9525 0.7091-0.3704 0-0.4392-0.1376-0.4392-0.4604zm-0.2275-1.656c-0.1905 0-0.4762-5e-3 -0.6826-0.0106-0.0318 0.0317-0.0318 0.1429 0 0.1746 0.3704 0.0159 0.4604 0.0423 0.4604 0.4815v2.122c0 0.4392-0.09 0.4657-0.4604 0.4815-0.0318 0.0317-0.0318 0.1429 0 0.1746 0.2064-5e-3 0.4868-0.0106 0.6879-0.0106 0.1852 0 0.3281 0.0106 0.7726 0.0106 1.053 0 1.334-0.5292 1.334-0.9842 0-0.508-0.3545-0.799-0.8149-0.9313v-0.0106c0.2646-0.1323 0.5027-0.4022 0.5027-0.6932 0-0.3545-0.1535-0.8149-1.138-0.8149-0.1852 0-0.471 0.0106-0.6615 0.0106z"
         style="stroke-width:.2646"
         id="path72" />
    </g>
    <g
       aria-label="S"
       id="g78">
      <path
         d="m133.5 128.4c-0.3069-0.0423-0.291-0.1429-0.8096-0.1429-0.5345 0-1.005 0.3546-1.005 0.9155 0 0.5609 0.4551 0.8149 0.9208 0.9895 0.3228 0.127 0.7144 0.2752 0.7144 0.7885 0 0.4286-0.2434 0.6509-0.6614 0.6509-0.4974 0-0.8149-0.2222-0.9313-0.7514-0.0635-0.0212-0.1217-0.0106-0.1693 0.0159 0.0212 0.4074 0.0423 0.545 0.1058 0.8043 0.3334 0 0.4762 0.1217 0.9472 0.1217 0.2434 0 0.471-0.0582 0.6562-0.1693 0.3016-0.1905 0.4974-0.5186 0.4974-0.8572 0-0.5609-0.4286-0.8096-0.8625-0.9684-0.3122-0.1217-0.8414-0.3175-0.8414-0.7673 0-0.2963 0.2699-0.5927 0.5768-0.5927 0.5186 0 0.6826 0.3281 0.7885 0.6773 0.0529 0.0106 0.1217 5e-3 0.1693-0.0318-0.0159-0.254-0.037-0.4022-0.0952-0.6826z"
         style="stroke-width:.2646"
         id="path76" />
    </g>
    <g
       aria-label="A"
       id="g82">
      <path
         d="m134.6 111.2c-0.1164 0-0.1534-0.0159-0.1376-0.0688l0.545-1.371h0.0318l0.4974 1.439zm-0.5715 1.08 0.291-0.7673c0.0264-0.0688 0.0582-0.09 0.1852-0.09h1.117l0.3069 0.8943c0.0582 0.1852-0.1429 0.2011-0.3916 0.217-0.0317 0.0318-0.0317 0.1429 0 0.1746 0.1958-5e-3 0.4868-0.0106 0.6932-0.0106 0.217 0 0.418 5e-3 0.6032 0.0106 0.0317-0.0318 0.0317-0.1429 0-0.1746-0.2064-0.0159-0.3863-0.0318-0.4762-0.291l-1.09-3.027c-0.0794 0.0476-0.2222 0.1058-0.291 0.1058l-1.201 2.836c-0.1376 0.3281-0.3016 0.3598-0.5292 0.3757-0.0318 0.0318-0.0318 0.1429 0 0.1746 0.1376-5e-3 0.3069-0.0106 0.471-0.0106 0.217 0 0.4815 5e-3 0.6773 0.0106 0.0318-0.0318 0.0318-0.1429 0-0.1746-0.2011-0.0106-0.4498-0.0318-0.3651-0.254z"
         style="stroke-width:.2646"
         id="path80" />
    </g>
    <g
       aria-label="R"
       id="g86">
      <path
         d="m41.65 129.4c0.2152 0 0.4692 0.0776 0.4692 0.4939 0 0.441-0.2505 0.5398-0.5927 0.5398h-0.1693v-0.8079c0-0.1023 0.04233-0.2258 0.2928-0.2258zm-0.2928 1.75v-0.5962c0.2963 0 0.3598 0.0529 0.4128 0.1341l0.3775 0.6138c0.09878 0.1658 0.254 0.314 0.4657 0.314 0.05292 0 0.1129-7e-3 0.1482-0.0247 0.01058-0.0212 0.01058-0.0565-0.0035-0.0847-0.1588 0-0.2469-0.1164-0.3387-0.2716l-0.4445-0.7408c0.1517-0.0494 0.4692-0.2328 0.4692-0.6032 0-0.1764-0.05997-0.321-0.187-0.441-0.1693-0.1588-0.3881-0.1693-0.6103-0.1693-0.1658 0-0.314 0.0247-0.441 0.0247-0.1235 0-0.2893-4e-3 -0.4551-7e-3 -0.02117 0.0212-0.02117 0.0952 0 0.1164 0.2469 0.0106 0.3069 0.0282 0.3069 0.321v1.415c0 0.2928-0.05997 0.3104-0.3069 0.321-0.02117 0.0212-0.02117 0.0953 0 0.1164 0.1588-4e-3 0.321-7e-3 0.4586-7e-3 0.1305 0 0.2999 4e-3 0.4551 7e-3 0.02117-0.0212 0.02117-0.0952 0-0.1164-0.2469-0.0106-0.3069-0.0282-0.3069-0.321z"
         style="stroke-width:.2646"
         id="path84" />
    </g>
    <g
       aria-label="n"
       id="g90">
      <path
         d="m51.8 149c-0.03704 0.037-0.0635 0.0529-0.0635 0-0.0053-0.1429-0.02117-0.344-0.04233-0.4022-0.01588-0.0212-0.02117-0.0423-0.0635-0.0423-0.1482 0.0582-0.2858 0.1058-0.6509 0.1535-0.01058 0.0318 0 0.1164 0.01058 0.1482 0.2858 0.0265 0.344 0.0529 0.344 0.3598v1.032c0 0.4339-0.05292 0.4551-0.3704 0.4815-0.03175 0.0318-0.03175 0.1429 0 0.1746 0.1588-5e-3 0.3704-0.0106 0.5821-0.0106 0.2117 0 0.3704 5e-3 0.5292 0.0106 0.03175-0.0317 0.03175-0.1429 0-0.1746-0.2699-0.0265-0.3228-0.0476-0.3228-0.4815v-0.8678c0-0.1111 0.04762-0.1746 0.08996-0.2222 0.2011-0.1958 0.4392-0.3122 0.6456-0.3122 0.1058 0 0.217 0.0688 0.2805 0.1905 0.05292 0.1058 0.0635 0.2487 0.0635 0.4074v0.8043c0 0.4339-0.05292 0.4551-0.3281 0.4815-0.02646 0.0318-0.02646 0.1429 0 0.1746 0.1588-5e-3 0.3281-0.0106 0.5398-0.0106 0.2117 0 0.4022 5e-3 0.5609 0.0106 0.02646-0.0317 0.02646-0.1429 0-0.1746-0.2963-0.0265-0.3545-0.0476-0.3545-0.4815v-0.7885c0-0.291-0.02117-0.545-0.1429-0.7091-0.08996-0.1164-0.254-0.1799-0.4392-0.1799-0.2593 0-0.5556 0.0688-0.8678 0.4286z"
         style="stroke-width:.2646"
         id="path88" />
    </g>
    <g
       aria-label="D"
       id="g94">
      <path
         d="m98.82 156v-2.54c0-0.1852 0.1852-0.2593 0.4445-0.2593 1.143 0 1.519 0.926 1.519 1.741 0 1.069-0.6403 1.334-1.386 1.334-0.5186 0-0.5768-0.1058-0.5768-0.2752zm-0.2275-2.969c-0.1905 0-0.471-5e-3 -0.6826-0.0106-0.03175 0.0318-0.03175 0.1429 0 0.1746 0.3704 0.0159 0.4604 0.0423 0.4604 0.4815v2.122c0 0.4392-0.08996 0.4657-0.4604 0.4815-0.03175 0.0317-0.03175 0.1429 0 0.1746 0.2064-5e-3 0.4868-0.0106 0.6879-0.0106 0.1958 0 0.418 0.0106 0.9631 0.0106 0.7461 0 1.73-0.3387 1.73-1.64 0-0.9842-0.8096-1.794-1.826-1.794-0.3757 0-0.6668 0.0106-0.8731 0.0106z"
         style="stroke-width:.2646"
         id="path92" />
    </g>
    <g
       aria-label="V"
       id="g98">
      <path
         d="m104.7 129c0.3916 0.0265 0.3916 0.1693 0.2805 0.4551l-0.8361 2.122h-0.0265l-0.8414-2.154c-0.1217-0.3122-0.09-0.3863 0.2699-0.4233 0.0318-0.0317 0.0318-0.1429 0-0.1746-0.2117 5e-3 -0.4498 0.0106-0.6403 0.0106-0.1958 0-0.3757-5e-3 -0.5503-0.0106-0.0318 0.0318-0.0265 0.1429 5e-3 0.1746 0.291 0.0265 0.3281 0.1164 0.471 0.4816l1.048 2.709c0.0318 0.0847 0.0688 0.1217 0.1217 0.1217 0.0582 0 0.0953-0.0423 0.127-0.1217l1.09-2.699c0.1005-0.2487 0.1905-0.4551 0.5239-0.4921 0.0318-0.0317 0.0318-0.1429 0-0.1746-0.1588 5e-3 -0.344 0.0106-0.4657 0.0106-0.1217 0-0.3598-5e-3 -0.5768-0.0106-0.0317 0.0318-0.0317 0.1429 0 0.1746z"
         style="stroke-width:.2646"
         id="path96" />
    </g>
    <g
       aria-label="V = 2 arctan(S/2D)"
       id="g130">
      <path
         d="m82.12 165.5c0.3916 0.0265 0.3916 0.1693 0.2805 0.4551l-0.8361 2.122h-0.02646l-0.8414-2.154c-0.1217-0.3122-0.08996-0.3863 0.2699-0.4233 0.03175-0.0317 0.03175-0.1429 0-0.1746-0.2117 5e-3 -0.4498 0.0106-0.6403 0.0106-0.1958 0-0.3757-5e-3 -0.5503-0.0106-0.03175 0.0317-0.02646 0.1429 0.0053 0.1746 0.291 0.0265 0.3281 0.1164 0.471 0.4815l1.048 2.709c0.03175 0.0847 0.06879 0.1217 0.1217 0.1217 0.05821 0 0.09525-0.0423 0.127-0.1217l1.09-2.699c0.1005-0.2487 0.1905-0.4551 0.5239-0.4921 0.03175-0.0317 0.03175-0.1429 0-0.1746-0.1588 5e-3 -0.344 0.0106-0.4657 0.0106-0.1217 0-0.3598-5e-3 -0.5768-0.0106-0.03175 0.0317-0.03175 0.1429 0 0.1746z"
         style="stroke-width:.2646"
         id="path100" />
      <path
         d="m86.98 167.1c0.06879 0 0.1429-0.1217 0.1429-0.1746 0-0.0423-0.02117-0.09-0.07408-0.09h-2.074c-0.0635 0-0.1323 0.1006-0.1323 0.1799 0 0.0423 0.03175 0.0847 0.07937 0.0847zm0 0.8784c0.06879 0 0.1429-0.1217 0.1429-0.1746 0-0.0423-0.02117-0.09-0.07408-0.09h-2.074c-0.0635 0-0.1323 0.1005-0.1323 0.1799 0 0.0423 0.03175 0.0847 0.07937 0.0847z"
         style="stroke-width:.2646"
         id="path102" />
      <path
         d="m89.09 166.2c0 0.1111 0.1005 0.2064 0.2117 0.2064 0.08996 0 0.2487-0.09 0.2487-0.2117 0-0.0423-0.01058-0.0741-0.02117-0.1111-0.01058-0.037-0.04233-0.0847-0.04233-0.127 0-0.1323 0.1376-0.3228 0.5239-0.3228 0.1905 0 0.4604 0.1323 0.4604 0.6403 0 0.3387-0.1217 0.6138-0.4339 0.9313l-0.3916 0.3863c-0.5186 0.5292-0.6032 0.7832-0.6032 1.095 0 0 0.2699-0.0106 0.4392-0.0106h0.926c0.1693 0 0.4128 0.0106 0.4128 0.0106 0.06879-0.2805 0.1217-0.6773 0.127-0.8361-0.03175-0.0265-0.1005-0.037-0.1535-0.0265-0.08996 0.3757-0.1799 0.508-0.3704 0.508h-0.9419c0-0.254 0.3651-0.6138 0.3916-0.6403l0.5345-0.5133c0.3016-0.291 0.5292-0.5239 0.5292-0.926 0-0.5715-0.4657-0.8043-0.8943-0.8043-0.5874 0-0.9525 0.4339-0.9525 0.7514z"
         style="stroke-width:.2646"
         id="path104" />
      <path
         d="m94.1 167.5v0.6985c0 0.0688-0.03175 0.1058-0.07408 0.1376-0.1376 0.1111-0.3175 0.2328-0.4657 0.2328-0.2646 0-0.381-0.2117-0.381-0.3757 0-0.2381 0.1111-0.4815 0.5027-0.5821zm0 0.979c0.03175 0.164 0.08467 0.3069 0.3545 0.3069 0.2011 0 0.3916-0.09 0.5027-0.1958-0.01058-0.0635-0.03175-0.1058-0.08996-0.1429-0.04233 0.037-0.1323 0.0847-0.1958 0.0847-0.1535 0-0.1588-0.2064-0.1588-0.4498v-0.7779c0-0.7514-0.4128-0.8943-0.799-0.8943-0.4339 0-0.8731 0.2858-0.8731 0.5874 0 0.127 0.0635 0.1905 0.1852 0.1905 0.1535 0 0.2487-0.1111 0.2487-0.1799 0-0.037-0.0053-0.0741-0.01588-0.0952-0.0053-0.0159-0.01058-0.0476-0.01058-0.1058 0-0.164 0.2222-0.2222 0.4233-0.2222 0.1799 0 0.4286 0.09 0.4286 0.6879 0 0.037-0.01587 0.0582-0.03175 0.0635l-0.4551 0.1111c-0.508 0.127-0.8731 0.4075-0.8731 0.7673 0 0.4339 0.2963 0.5715 0.6668 0.5715 0.1799 0 0.344-0.0423 0.5768-0.2222l0.1058-0.0847z"
         style="stroke-width:.2646"
         id="path106" />
      <path
         d="m95.89 166.8c-0.01058-0.2117-0.02117-0.344-0.04233-0.4022-0.01587-0.0212-0.02117-0.0423-0.0635-0.0423-0.1482 0.0582-0.2858 0.1058-0.6509 0.1534-0.01058 0.0317 0 0.1164 0.01058 0.1482 0.2858 0.0265 0.344 0.0529 0.344 0.3598v1.032c0 0.4392-0.0635 0.4604-0.3916 0.4815-0.03175 0.0317-0.03175 0.1429 0 0.1746 0.1852-5e-3 0.3916-0.0106 0.6032-0.0106 0.2117 0 0.4551 5e-3 0.6403 0.0106 0.03175-0.0317 0.03175-0.1429 0-0.1746-0.3704-0.0265-0.4339-0.0423-0.4339-0.4815v-0.7355c0-0.1376 0.0635-0.2593 0.127-0.3545 0.05821-0.0847 0.1799-0.2593 0.2434-0.2593 0.04762 0 0.09525 0.0159 0.1323 0.0688 0.04233 0.0529 0.1005 0.1217 0.1958 0.1217 0.127 0 0.2487-0.1323 0.2487-0.2646 0-0.1005-0.09525-0.254-0.3175-0.254-0.2487 0-0.4657 0.2328-0.5874 0.4392-0.03175 0.0582-0.05821 0.0159-0.05821-0.0106z"
         style="stroke-width:.2646"
         id="path108" />
      <path
         d="m98.99 168.2c-0.02117-0.0476-0.0635-0.0688-0.1111-0.0741-0.1799 0.2328-0.4075 0.3492-0.635 0.3492-0.3863 0-0.7091-0.3916-0.7091-1.011 0-0.5821 0.254-0.9313 0.6032-0.9313 0.3122 0 0.3545 0.1852 0.3757 0.3704 0.01587 0.1429 0.08996 0.1905 0.2011 0.1905 0.1111 0 0.2593-0.0688 0.2593-0.2328 0-0.291-0.3016-0.5027-0.8096-0.5027-0.5239 0-1.085 0.471-1.085 1.222 0 0.6826 0.381 1.154 1.048 1.154 0.3175 0 0.598-0.1005 0.8625-0.5345z"
         style="stroke-width:.2646"
         id="path110" />
      <path
         d="m99.38 166.4c-0.07408 0-0.09525 0.0635-0.09525 0.1058v0.0688c0 0.0265 0.0053 0.0318 0.02646 0.0318h0.3122v1.593c0 0.3757 0.164 0.5239 0.4075 0.5239 0.2434 0 0.508-0.1164 0.7144-0.3492-0.0106-0.0529-0.0423-0.0847-0.0952-0.09-0.1376 0.1058-0.2963 0.1482-0.4339 0.1482-0.1429 0-0.1746-0.1588-0.1746-0.4868v-1.339h0.5503c0.0529 0 0.127-0.0212 0.127-0.0688v-0.1058c0-0.0212-0.0159-0.0318-0.0423-0.0318h-0.635v-0.2064c0-0.344 0.0212-0.5556 0.0212-0.5556 0-0.0317-0.0159-0.0423-0.0423-0.0423-0.02645 0-0.06879 0.0212-0.1164 0.0476-0.0635 0.0318-0.1164 0.0529-0.1799 0.0741-0.0635 0.0159-0.1164 0.037-0.1164 0.0688 0 0.0635 0.01587 0.0265 0.01587 0.6138z"
         style="stroke-width:.2646"
         id="path112" />
      <path
         d="m102.4 167.5v0.6985c0 0.0688-0.0318 0.1058-0.0741 0.1376-0.1376 0.1111-0.3175 0.2328-0.4657 0.2328-0.2646 0-0.381-0.2117-0.381-0.3757 0-0.2381 0.1111-0.4815 0.5027-0.5821zm0 0.979c0.0318 0.164 0.0847 0.3069 0.3545 0.3069 0.2011 0 0.3916-0.09 0.5027-0.1958-0.0106-0.0635-0.0317-0.1058-0.09-0.1429-0.0423 0.037-0.1323 0.0847-0.1958 0.0847-0.1535 0-0.1588-0.2064-0.1588-0.4498v-0.7779c0-0.7514-0.4128-0.8943-0.799-0.8943-0.4339 0-0.8731 0.2858-0.8731 0.5874 0 0.127 0.0635 0.1905 0.1852 0.1905 0.1535 0 0.2487-0.1111 0.2487-0.1799 0-0.037-5e-3 -0.0741-0.0159-0.0952-5e-3 -0.0159-0.0106-0.0476-0.0106-0.1058 0-0.164 0.2222-0.2222 0.4233-0.2222 0.1799 0 0.4286 0.09 0.4286 0.6879 0 0.037-0.0159 0.0582-0.0318 0.0635l-0.4551 0.1111c-0.508 0.127-0.8731 0.4075-0.8731 0.7673 0 0.4339 0.2963 0.5715 0.6668 0.5715 0.1799 0 0.344-0.0423 0.5768-0.2222l0.1058-0.0847z"
         style="stroke-width:.2646"
         id="path114" />
      <path
         d="m104.2 166.8c-0.037 0.037-0.0635 0.0529-0.0635 0-5e-3 -0.1429-0.0212-0.344-0.0423-0.4022-0.0159-0.0212-0.0212-0.0423-0.0635-0.0423-0.1482 0.0582-0.2858 0.1058-0.6509 0.1534-0.0106 0.0317 0 0.1164 0.0106 0.1482 0.2858 0.0265 0.344 0.0529 0.344 0.3598v1.032c0 0.4339-0.0529 0.4551-0.3704 0.4815-0.0318 0.0317-0.0318 0.1429 0 0.1746 0.1588-5e-3 0.3704-0.0106 0.5821-0.0106s0.3704 5e-3 0.5292 0.0106c0.0318-0.0317 0.0318-0.1429 0-0.1746-0.2699-0.0265-0.3228-0.0476-0.3228-0.4815v-0.8678c0-0.1111 0.0476-0.1746 0.09-0.2222 0.2011-0.1958 0.4392-0.3122 0.6456-0.3122 0.1058 0 0.217 0.0688 0.2805 0.1905 0.0529 0.1058 0.0635 0.2487 0.0635 0.4075v0.8043c0 0.4339-0.0529 0.4551-0.3281 0.4815-0.0265 0.0317-0.0265 0.1429 0 0.1746 0.1588-5e-3 0.3281-0.0106 0.5398-0.0106 0.2117 0 0.4022 5e-3 0.5609 0.0106 0.0265-0.0317 0.0265-0.1429 0-0.1746-0.2963-0.0265-0.3545-0.0476-0.3545-0.4815v-0.7885c0-0.291-0.0212-0.545-0.1429-0.7091-0.09-0.1164-0.254-0.1799-0.4392-0.1799-0.2593 0-0.5556 0.0688-0.8678 0.4286z"
         style="stroke-width:.2646"
         id="path116" />
      <path
         d="m106.3 167.4c0 0.2381 0.0212 1.46 1.122 2.413 0.0529-0.0106 0.0952-0.0476 0.1111-0.09-0.1746-0.2011-0.7938-0.9313-0.7938-2.323s0.6244-2.122 0.7938-2.312c-0.0212-0.0529-0.0529-0.09-0.1111-0.0952-0.6297 0.5398-1.122 1.423-1.122 2.408z"
         style="stroke-width:.2646"
         id="path118" />
      <path
         d="m109.8 165.4c-0.3069-0.0423-0.291-0.1429-0.8096-0.1429-0.5344 0-1.005 0.3545-1.005 0.9154 0 0.5609 0.4551 0.8149 0.9208 0.9896 0.3228 0.127 0.7144 0.2752 0.7144 0.7884 0 0.4286-0.2434 0.6509-0.6615 0.6509-0.4974 0-0.8149-0.2222-0.9313-0.7514-0.0635-0.0212-0.1217-0.0106-0.1693 0.0159 0.0212 0.4075 0.0423 0.545 0.1058 0.8043 0.3334 0 0.4762 0.1217 0.9472 0.1217 0.2434 0 0.471-0.0582 0.6562-0.1693 0.3016-0.1905 0.4974-0.5186 0.4974-0.8572 0-0.5609-0.4286-0.8096-0.8625-0.9684-0.3122-0.1217-0.8414-0.3175-0.8414-0.7673 0-0.2963 0.2699-0.5927 0.5768-0.5927 0.5186 0 0.6826 0.3281 0.7885 0.6773 0.0529 0.0106 0.1217 5e-3 0.1693-0.0318-0.0159-0.254-0.037-0.4022-0.0952-0.6826z"
         style="stroke-width:.2646"
         id="path120" />
      <path
         d="m111.8 165.3h-0.217l-1.254 3.731h0.217z"
         style="stroke-width:.2646"
         id="path122" />
      <path
         d="m112.3 166.2c0 0.1111 0.1005 0.2064 0.2117 0.2064 0.09 0 0.2487-0.09 0.2487-0.2117 0-0.0423-0.0106-0.0741-0.0212-0.1111-0.0106-0.037-0.0423-0.0847-0.0423-0.127 0-0.1323 0.1376-0.3228 0.5239-0.3228 0.1905 0 0.4604 0.1323 0.4604 0.6403 0 0.3387-0.1217 0.6138-0.4339 0.9313l-0.3916 0.3863c-0.5186 0.5292-0.6032 0.7832-0.6032 1.095 0 0 0.2699-0.0106 0.4392-0.0106h0.926c0.1693 0 0.4128 0.0106 0.4128 0.0106 0.0688-0.2805 0.1217-0.6773 0.127-0.8361-0.0318-0.0265-0.1005-0.037-0.1535-0.0265-0.0899 0.3757-0.1799 0.508-0.3704 0.508h-0.9419c0-0.254 0.3651-0.6138 0.3916-0.6403l0.5345-0.5133c0.3016-0.291 0.5292-0.5239 0.5292-0.926 0-0.5715-0.4657-0.8043-0.8943-0.8043-0.5874 0-0.9525 0.4339-0.9525 0.7514z"
         style="stroke-width:.2646"
         id="path124" />
      <path
         d="m115.4 168.3v-2.54c0-0.1852 0.1852-0.2593 0.4445-0.2593 1.143 0 1.519 0.926 1.519 1.741 0 1.069-0.6403 1.334-1.386 1.334-0.5186 0-0.5768-0.1058-0.5768-0.2752zm-0.2275-2.969c-0.1905 0-0.471-5e-3 -0.6826-0.0106-0.0318 0.0317-0.0318 0.1429 0 0.1746 0.3704 0.0159 0.4604 0.0423 0.4604 0.4815v2.122c0 0.4392-0.09 0.4657-0.4604 0.4815-0.0318 0.0317-0.0318 0.1429 0 0.1746 0.2064-5e-3 0.4868-0.0106 0.6879-0.0106 0.1958 0 0.418 0.0106 0.9631 0.0106 0.7461 0 1.73-0.3387 1.73-1.64 0-0.9842-0.8096-1.794-1.826-1.794-0.3757 0-0.6668 0.0106-0.8731 0.0106z"
         style="stroke-width:.2646"
         id="path126" />
      <path
         d="m119.4 167.4c0-0.2381-0.0212-1.46-1.122-2.413-0.0529 0.0106-0.0952 0.0476-0.1111 0.09 0.1746 0.2011 0.7938 0.9313 0.7938 2.323s-0.6244 2.122-0.7938 2.312c0.0159 0.0582 0.0476 0.0952 0.1111 0.0952 0.6297-0.5398 1.122-1.423 1.122-2.408z"
         style="stroke-width:.2646"
         id="path128" />
    </g>
    <path
       d="m40.96 136.8 26.06-6.214 68.03-17.02"
       style="fill:none;stroke-linejoin:round;stroke-width:.2646;stroke:#000"
       id="path132" />
    <path
       d="m66.88 132-26.53-5.746"
       style="fill:none;stroke-linejoin:round;stroke-width:.2646;stroke:#000"
       id="path134" />
    <path
       d="m66.88 132 68.09 14.63"
       style="fill:none;stroke-linejoin:round;stroke-width:.2646;stroke:#000"
       id="path136" />
    <g
       aria-label="O"
       id="g140">
      <path
         d="m65.83 123.2c0.6985 0 1.265 0.5821 1.265 1.651 0 0.9472-0.4551 1.503-1.058 1.503-0.6456 0-1.254-0.5768-1.254-1.593 0-1.111 0.5239-1.561 1.048-1.561zm1.773 1.55c0-1.095-0.7567-1.741-1.704-1.741-1.027 0-1.625 0.8202-1.625 1.842 0 1.042 0.7567 1.693 1.656 1.693 0.5821 0 1.053-0.2487 1.344-0.6668 0.2117-0.2963 0.3281-0.6826 0.3281-1.127z"
         style="stroke-width:.2646"
         id="path138" />
    </g>
    <path
       d="m64.53 131.4a1.086 2.516 0 0 1-1.086 2.516 1.086 2.516 0 0 1-1.086-2.516 1.086 2.516 0 0 1 1.086-2.516 1.086 2.516 0 0 1 1.086 2.516z"
       style="fill-opacity:.251;fill-rule:evenodd;fill:#fff;paint-order:normal;stroke-linecap:round;stroke-linejoin:round;stroke-width:.2983;stroke:#000"
       id="path142" />
    <path
       d="m100.1 123.9a4.196 8.813 0 0 1 1.634 6.841 4.196 8.813 0 0 1-1.53 6.946"
       style="fill:none;paint-order:normal;stroke-linecap:round;stroke-linejoin:round;stroke-width:.5333;stroke:#000"
       id="path144" />
    <path
       d="m99.98 125.5 0.09898-1.568 1.319 0.8641"
       style="fill:none;stroke-linecap:round;stroke-linejoin:round;stroke-width:.5292;stroke:#000"
       id="path146" />
    <path
       d="m101.5 136.8-1.302 0.8792-0.1216-1.572"
       style="fill:none;stroke-linecap:round;stroke-linejoin:round;stroke-width:.5292;stroke:#000"
       id="path148" />
    <path
       d="m135 146.5 0.0726-32.86"
       style="fill:none;stroke-linecap:round;stroke-linejoin:round;stroke-width:.528;stroke:#000"
       id="path150" />
    <path
       d="m134.3 115 0.7855-1.361 0.7978 1.36"
       style="fill:none;stroke-linecap:round;stroke-linejoin:round;stroke-width:.5292;stroke:#000"
       id="path152" />
    <path
       d="m102.2 154.7h32.79v-0.0945"
       style="fill:none;stroke-linecap:round;stroke-linejoin:round;stroke-width:.5209;stroke:#000"
       id="path154" />
    <path
       d="m133.6 153.9 1.361 0.7855-1.36 0.7978"
       style="fill:none;stroke-linecap:round;stroke-linejoin:round;stroke-width:.5292;stroke:#000"
       id="path156" />
    <path
       d="m64.12 154.7h32.94"
       style="fill:none;stroke-linecap:round;stroke-linejoin:round;stroke-width:.5254;stroke:#000"
       id="path158" />
    <path
       d="m54.56 149.8h9.336"
       style="fill:none;stroke-linecap:round;stroke-linejoin:round;stroke-width:.522;stroke:#000"
       id="path160" />
    <path
       d="m62.54 149 1.361 0.7855-1.36 0.7978"
       style="fill:none;stroke-linecap:round;stroke-linejoin:round;stroke-width:.5292;stroke:#000"
       id="path162" />
    <path
       d="m65.48 153.9-1.361 0.7855 1.36 0.7978"
       style="fill:none;stroke-linecap:round;stroke-linejoin:round;stroke-width:.5292;stroke:#000"
       id="path164" />
    <path
       d="m50.04 149.8h-9.336"
       style="fill:none;stroke-linecap:round;stroke-linejoin:round;stroke-width:.522;stroke:#000"
       id="path166" />
    <path
       d="m42.06 149-1.361 0.7855 1.36 0.7978"
       style="fill:none;stroke-linecap:round;stroke-linejoin:round;stroke-width:.5292;stroke:#000"
       id="path168" />
  </g>
</svg>
