<?xml version="1.0" encoding="UTF-8" standalone="no"?>
<!-- Created with Inkscape (http://www.inkscape.org/) -->

<svg
   xmlns:dc="http://purl.org/dc/elements/1.1/"
   xmlns:cc="http://creativecommons.org/ns#"
   xmlns:rdf="http://www.w3.org/1999/02/22-rdf-syntax-ns#"
   xmlns:svg="http://www.w3.org/2000/svg"
   xmlns="http://www.w3.org/2000/svg"
   xmlns:sodipodi="http://sodipodi.sourceforge.net/DTD/sodipodi-0.dtd"
   xmlns:inkscape="http://www.inkscape.org/namespaces/inkscape"
   width="150.32895mm"
   height="99.278717mm"
   viewBox="0 0 150.32895 99.278717"
   version="1.1"
   id="svg1411"
   inkscape:version="0.92.5 (2060ec1f9f, 2020-04-08)"
   sodipodi:docname="fun_f0_1.svg">
  <defs
     id="defs1405" />
  <sodipodi:namedview
     id="base"
     pagecolor="#ffffff"
     bordercolor="#666666"
     borderopacity="1.0"
     inkscape:pageopacity="0.0"
     inkscape:pageshadow="2"
     inkscape:zoom="1.0965318"
     inkscape:cx="327.14286"
     inkscape:cy="175.71429"
     inkscape:document-units="mm"
     inkscape:current-layer="layer1"
     showgrid="false"
     fit-margin-top="0"
     fit-margin-left="0"
     fit-margin-right="0"
     fit-margin-bottom="0"
     inkscape:window-width="1364"
     inkscape:window-height="726"
     inkscape:window-x="1024"
     inkscape:window-y="20"
     inkscape:window-maximized="1" />
  <metadata
     id="metadata1408">
    <rdf:RDF>
      <cc:Work
         rdf:about="">
        <dc:format>image/svg+xml</dc:format>
        <dc:type
           rdf:resource="http://purl.org/dc/dcmitype/StillImage" />
        <dc:title></dc:title>
      </cc:Work>
    </rdf:RDF>
  </metadata>
  <g
     inkscape:label="Layer 1"
     inkscape:groupmode="layer"
     id="layer1"
     transform="translate(-33.692674,-47.033259)">
    <g
       transform="matrix(0.35277777,0,0,-0.35277777,33.37669,346.55358)"
       id="g1746">
      <path
         d="M 0.895703,678.428 H 420.683"
         style="fill:none;stroke:#000000;stroke-width:0.80000001;stroke-linecap:butt;stroke-linejoin:miter;stroke-miterlimit:10;stroke-dasharray:none;stroke-opacity:1"
         id="path41"
         inkscape:connector-curvature="0" />
      <path
         d="m 417.411,681.977 9.614,-3.535 -9.614,-3.536 c 1.535,2.087 1.527,4.943 0,7.071"
         style="fill:#000000;fill-opacity:1;fill-rule:evenodd;stroke:none;stroke-width:0.1"
         id="path43"
         inkscape:connector-curvature="0" />
      <path
         d="M 83.0281,684.954 V 671.901"
         style="fill:none;stroke:#000000;stroke-width:0.67652601;stroke-linecap:butt;stroke-linejoin:miter;stroke-miterlimit:10;stroke-dasharray:none;stroke-opacity:1"
         id="path45"
         inkscape:connector-curvature="0" />
      <path
         d="M 124.746,684.954 V 671.901"
         style="fill:none;stroke:#000000;stroke-width:0.67652601;stroke-linecap:butt;stroke-linejoin:miter;stroke-miterlimit:10;stroke-dasharray:none;stroke-opacity:1"
         id="path47"
         inkscape:connector-curvature="0" />
      <path
         d="M 333.336,684.954 V 671.901"
         style="fill:none;stroke:#000000;stroke-width:0.67652601;stroke-linecap:butt;stroke-linejoin:miter;stroke-miterlimit:10;stroke-dasharray:none;stroke-opacity:1"
         id="path49"
         inkscape:connector-curvature="0" />
      <path
         d="M 166.464,684.954 V 671.902"
         style="fill:none;stroke:#000000;stroke-width:0.67652601;stroke-linecap:butt;stroke-linejoin:miter;stroke-miterlimit:10;stroke-dasharray:none;stroke-opacity:1"
         id="path51"
         inkscape:connector-curvature="0" />
      <path
         d="M 208.182,684.954 V 671.901"
         style="fill:none;stroke:#000000;stroke-width:0.67652601;stroke-linecap:butt;stroke-linejoin:miter;stroke-miterlimit:10;stroke-dasharray:none;stroke-opacity:1"
         id="path53"
         inkscape:connector-curvature="0" />
      <path
         d="M 375.054,684.954 V 671.901"
         style="fill:none;stroke:#000000;stroke-width:0.67652601;stroke-linecap:butt;stroke-linejoin:miter;stroke-miterlimit:10;stroke-dasharray:none;stroke-opacity:1"
         id="path55"
         inkscape:connector-curvature="0" />
      <path
         d="M 291.618,684.954 V 671.901"
         style="fill:none;stroke:#000000;stroke-width:0.67652601;stroke-linecap:butt;stroke-linejoin:miter;stroke-miterlimit:10;stroke-dasharray:none;stroke-opacity:1"
         id="path57"
         inkscape:connector-curvature="0" />
      <path
         d="M 249.9,684.954 V 671.901"
         style="fill:none;stroke:#000000;stroke-width:0.67652601;stroke-linecap:butt;stroke-linejoin:miter;stroke-miterlimit:10;stroke-dasharray:none;stroke-opacity:1"
         id="path59"
         inkscape:connector-curvature="0" />
      <path
         d="M 47.8363,803.582 H 34.784"
         style="fill:none;stroke:#000000;stroke-width:0.67652601;stroke-linecap:butt;stroke-linejoin:miter;stroke-miterlimit:10;stroke-dasharray:none;stroke-opacity:1"
         id="path61"
         inkscape:connector-curvature="0" />
      <path
         d="M 47.8363,761.864 H 34.784"
         style="fill:none;stroke:#000000;stroke-width:0.67652601;stroke-linecap:butt;stroke-linejoin:miter;stroke-miterlimit:10;stroke-dasharray:none;stroke-opacity:1"
         id="path63"
         inkscape:connector-curvature="0" />
      <path
         d="M 47.8363,720.146 H 34.784"
         style="fill:none;stroke:#000000;stroke-width:0.67652601;stroke-linecap:butt;stroke-linejoin:miter;stroke-miterlimit:10;stroke-dasharray:none;stroke-opacity:1"
         id="path65"
         inkscape:connector-curvature="0" />
      <path
         d="M 47.8363,636.71 H 34.784"
         style="fill:none;stroke:#000000;stroke-width:0.67652601;stroke-linecap:butt;stroke-linejoin:miter;stroke-miterlimit:10;stroke-dasharray:none;stroke-opacity:1"
         id="path67"
         inkscape:connector-curvature="0" />
      <path
         d="M 47.8363,594.992 H 34.784"
         style="fill:none;stroke:#000000;stroke-width:0.67652601;stroke-linecap:butt;stroke-linejoin:miter;stroke-miterlimit:10;stroke-dasharray:none;stroke-opacity:1"
         id="path69"
         inkscape:connector-curvature="0" />
      <path
         d="M 41.3102,567.614 V 842.692"
         style="fill:none;stroke:#000000;stroke-width:0.80000001;stroke-linecap:butt;stroke-linejoin:miter;stroke-miterlimit:10;stroke-dasharray:none;stroke-opacity:1"
         id="path71"
         inkscape:connector-curvature="0" />
      <path
         d="m 37.7602,839.42 3.5359,9.614 3.5355,-9.614 c -2.0875,1.536 -4.9433,1.527 -7.0714,0"
         style="fill:#000000;fill-opacity:1;fill-rule:evenodd;stroke:none;stroke-width:0.1"
         id="path73"
         inkscape:connector-curvature="0" />
      <path
         d="M 82.941,569.504 V 844.582"
         style="fill:none;stroke:#727272;stroke-width:0.80000001;stroke-linecap:butt;stroke-linejoin:miter;stroke-miterlimit:10;stroke-dasharray:0.8, 1.6;stroke-dashoffset:0;stroke-opacity:1"
         id="path75"
         inkscape:connector-curvature="0" />
      <path
         d="M 124.776,569.504 V 844.582"
         style="fill:none;stroke:#727272;stroke-width:0.80000001;stroke-linecap:butt;stroke-linejoin:miter;stroke-miterlimit:10;stroke-dasharray:0.8, 1.6;stroke-dashoffset:0;stroke-opacity:1"
         id="path77"
         inkscape:connector-curvature="0" />
      <path
         d="M 166.378,569.504 V 844.582"
         style="fill:none;stroke:#727272;stroke-width:0.80000001;stroke-linecap:butt;stroke-linejoin:miter;stroke-miterlimit:10;stroke-dasharray:0.8, 1.6;stroke-dashoffset:0;stroke-opacity:1"
         id="path79"
         inkscape:connector-curvature="0" />
      <path
         d="M 208.062,569.504 V 844.582"
         style="fill:none;stroke:#727272;stroke-width:0.80000001;stroke-linecap:butt;stroke-linejoin:miter;stroke-miterlimit:10;stroke-dasharray:0.8, 1.6;stroke-dashoffset:0;stroke-opacity:1"
         id="path81"
         inkscape:connector-curvature="0" />
      <path
         d="M 249.83,569.504 V 844.582"
         style="fill:none;stroke:#727272;stroke-width:0.80000001;stroke-linecap:butt;stroke-linejoin:miter;stroke-miterlimit:10;stroke-dasharray:0.8, 1.6;stroke-dashoffset:0;stroke-opacity:1"
         id="path83"
         inkscape:connector-curvature="0" />
      <path
         d="M 291.515,569.504 V 844.582"
         style="fill:none;stroke:#727272;stroke-width:0.80000001;stroke-linecap:butt;stroke-linejoin:miter;stroke-miterlimit:10;stroke-dasharray:0.8, 1.6;stroke-dashoffset:0;stroke-opacity:1"
         id="path85"
         inkscape:connector-curvature="0" />
      <path
         d="M 333.283,569.504 V 844.582"
         style="fill:none;stroke:#727272;stroke-width:0.80000001;stroke-linecap:butt;stroke-linejoin:miter;stroke-miterlimit:10;stroke-dasharray:0.8, 1.6;stroke-dashoffset:0;stroke-opacity:1"
         id="path87"
         inkscape:connector-curvature="0" />
      <path
         d="M 374.968,569.504 V 844.582"
         style="fill:none;stroke:#727272;stroke-width:0.80000001;stroke-linecap:butt;stroke-linejoin:miter;stroke-miterlimit:10;stroke-dasharray:0.8, 1.6;stroke-dashoffset:0;stroke-opacity:1"
         id="path89"
         inkscape:connector-curvature="0" />
      <path
         d="M 43.2121,803.545 H 374.321"
         style="fill:none;stroke:#727272;stroke-width:0.80000001;stroke-linecap:butt;stroke-linejoin:miter;stroke-miterlimit:10;stroke-dasharray:0.8, 1.6;stroke-dashoffset:0;stroke-opacity:1"
         id="path91"
         inkscape:connector-curvature="0" />
      <path
         d="M 42.3219,761.967 H 373.431"
         style="fill:none;stroke:#727272;stroke-width:0.80000001;stroke-linecap:butt;stroke-linejoin:miter;stroke-miterlimit:10;stroke-dasharray:0.8, 1.6;stroke-dashoffset:0;stroke-opacity:1"
         id="path93"
         inkscape:connector-curvature="0" />
      <path
         d="M 41.0117,720.283 H 372.121"
         style="fill:none;stroke:#727272;stroke-width:0.80000001;stroke-linecap:butt;stroke-linejoin:miter;stroke-miterlimit:10;stroke-dasharray:0.8, 1.6;stroke-dashoffset:0;stroke-opacity:1"
         id="path95"
         inkscape:connector-curvature="0" />
      <path
         d="M 42.1684,636.77 H 373.278"
         style="fill:none;stroke:#727272;stroke-width:0.80000001;stroke-linecap:butt;stroke-linejoin:miter;stroke-miterlimit:10;stroke-dasharray:0.8, 1.6;stroke-dashoffset:0;stroke-opacity:1"
         id="path97"
         inkscape:connector-curvature="0" />
      <path
         d="M 42.6312,595.129 H 373.741"
         style="fill:none;stroke:#727272;stroke-width:0.80000001;stroke-linecap:butt;stroke-linejoin:miter;stroke-miterlimit:10;stroke-dasharray:0.8, 1.6;stroke-dashoffset:0;stroke-opacity:1"
         id="path99"
         inkscape:connector-curvature="0" />
      <path
         d="M 41.482,678.579 H 83.1074"
         style="fill:none;stroke:#000000;stroke-width:1.60000002;stroke-linecap:butt;stroke-linejoin:miter;stroke-miterlimit:10;stroke-dasharray:none;stroke-opacity:1"
         id="path101"
         inkscape:connector-curvature="0" />
      <path
         d="M 82.4547,720.264 H 124.504"
         style="fill:none;stroke:#000000;stroke-width:1.60000002;stroke-linecap:butt;stroke-linejoin:miter;stroke-miterlimit:10;stroke-dasharray:none;stroke-opacity:1"
         id="path103"
         inkscape:connector-curvature="0" />
      <path
         d="m 124.775,803.634 h 41.626"
         style="fill:none;stroke:#000000;stroke-width:1.60000002;stroke-linecap:butt;stroke-linejoin:miter;stroke-miterlimit:10;stroke-dasharray:none;stroke-opacity:1"
         id="path105"
         inkscape:connector-curvature="0" />
      <path
         d="m 166.672,678.579 h 42.049"
         style="fill:none;stroke:#000000;stroke-width:1.60000002;stroke-linecap:butt;stroke-linejoin:miter;stroke-miterlimit:10;stroke-dasharray:none;stroke-opacity:1"
         id="path107"
         inkscape:connector-curvature="0" />
      <path
         d="M 207.933,720.476 H 249.77"
         style="fill:none;stroke:#000000;stroke-width:1.60000002;stroke-linecap:butt;stroke-linejoin:miter;stroke-miterlimit:10;stroke-dasharray:none;stroke-opacity:1"
         id="path109"
         inkscape:connector-curvature="0" />
      <path
         d="m 249.347,636.895 h 42.261"
         style="fill:none;stroke:#000000;stroke-width:1.60000002;stroke-linecap:butt;stroke-linejoin:miter;stroke-miterlimit:10;stroke-dasharray:none;stroke-opacity:1"
         id="path111"
         inkscape:connector-curvature="0" />
      <path
         d="m 291.786,678.579 h 41.837"
         style="fill:none;stroke:#000000;stroke-width:1.60000002;stroke-linecap:butt;stroke-linejoin:miter;stroke-miterlimit:10;stroke-dasharray:none;stroke-opacity:1"
         id="path113"
         inkscape:connector-curvature="0" />
      <path
         d="m 332.988,762.102 h 42.684"
         style="fill:none;stroke:#000000;stroke-width:1.60000002;stroke-linecap:butt;stroke-linejoin:miter;stroke-miterlimit:10;stroke-dasharray:none;stroke-opacity:1"
         id="path115"
         inkscape:connector-curvature="0" />
      <path
         d="M 83.1867,720.48 V 678.431"
         style="fill:none;stroke:#000000;stroke-width:1.60000002;stroke-linecap:butt;stroke-linejoin:miter;stroke-miterlimit:10;stroke-dasharray:none;stroke-opacity:1"
         id="path117"
         inkscape:connector-curvature="0" />
      <path
         d="M 124.639,804.179 V 719.505"
         style="fill:none;stroke:#000000;stroke-width:1.60000002;stroke-linecap:butt;stroke-linejoin:miter;stroke-miterlimit:10;stroke-dasharray:none;stroke-opacity:1"
         id="path119"
         inkscape:connector-curvature="0" />
      <path
         d="M 166.358,804.444 V 678.514"
         style="fill:none;stroke:#000000;stroke-width:1.60000002;stroke-linecap:butt;stroke-linejoin:miter;stroke-miterlimit:10;stroke-dasharray:none;stroke-opacity:1"
         id="path121"
         inkscape:connector-curvature="0" />
      <path
         d="M 208.063,721.438 V 678.021"
         style="fill:none;stroke:#000000;stroke-width:1.60000002;stroke-linecap:butt;stroke-linejoin:miter;stroke-miterlimit:10;stroke-dasharray:none;stroke-opacity:1"
         id="path123"
         inkscape:connector-curvature="0" />
      <path
         d="M 249.776,721.21 V 636.309"
         style="fill:none;stroke:#000000;stroke-width:1.60000002;stroke-linecap:butt;stroke-linejoin:miter;stroke-miterlimit:10;stroke-dasharray:none;stroke-opacity:1"
         id="path125"
         inkscape:connector-curvature="0" />
      <path
         d="M 291.26,679.27 V 636.309"
         style="fill:none;stroke:#000000;stroke-width:1.60000002;stroke-linecap:butt;stroke-linejoin:miter;stroke-miterlimit:10;stroke-dasharray:none;stroke-opacity:1"
         id="path127"
         inkscape:connector-curvature="0" />
      <path
         d="M 333.086,762.922 V 677.793"
         style="fill:none;stroke:#000000;stroke-width:1.60000002;stroke-linecap:butt;stroke-linejoin:miter;stroke-miterlimit:10;stroke-dasharray:none;stroke-opacity:1"
         id="path129"
         inkscape:connector-curvature="0" />
      <path
         d="m 60.2957,693.659 v -0.717 h -0.825 c -0.3094,0 -0.525,-0.062 -0.6469,-0.187 -0.1187,-0.125 -0.1781,-0.35 -0.1781,-0.675 v -0.464 h 1.4203 v -0.671 h -1.4203 v -4.579 h -0.8672 v 4.579 h -0.825 v 0.671 h 0.825 v 0.365 c 0,0.585 0.136,1.01 0.4078,1.275 0.2719,0.269 0.7032,0.403 1.2938,0.403 h 0.8156"
         style="fill:#000000;fill-opacity:1;fill-rule:nonzero;stroke:none;stroke-width:0.1"
         id="path131"
         inkscape:connector-curvature="0" />
      <path
         d="m 62.7496,694.112 c -0.2437,0 -0.4273,-0.12 -0.5508,-0.361 -0.1218,-0.239 -0.1828,-0.599 -0.1828,-1.08 0,-0.48 0.061,-0.84 0.1828,-1.081 0.1235,-0.239 0.3071,-0.358 0.5508,-0.358 0.2453,0 0.4289,0.119 0.5508,0.358 0.1234,0.241 0.1851,0.601 0.1851,1.081 0,0.481 -0.0617,0.841 -0.1851,1.08 -0.1219,0.241 -0.3055,0.361 -0.5508,0.361 m 0,0.375 c 0.3922,0 0.6914,-0.155 0.8977,-0.466 0.2078,-0.31 0.3117,-0.76 0.3117,-1.35 0,-0.589 -0.1039,-1.039 -0.3117,-1.35 -0.2063,-0.31 -0.5055,-0.464 -0.8977,-0.464 -0.3922,0 -0.6922,0.154 -0.9,0.464 -0.2062,0.311 -0.3094,0.761 -0.3094,1.35 0,0.59 0.1032,1.04 0.3094,1.35 0.2078,0.311 0.5078,0.466 0.9,0.466"
         style="fill:#000000;fill-opacity:1;fill-rule:nonzero;stroke:none;stroke-width:0.1"
         id="path133"
         inkscape:connector-curvature="0" />
      <path
         d="m 60.6914,684.098 h 0.43125 v 3.64688 H 60.6914 Z"
         style="fill:#000000;fill-opacity:1;fill-rule:nonzero;stroke:none;stroke-width:0.1"
         id="path135"
         inkscape:connector-curvature="0" />
      <path
         d="m 61.8047,685.221 h 1.26328 v 0.38437 H 61.8047 Z"
         style="fill:#000000;fill-opacity:1;fill-rule:nonzero;stroke:none;stroke-width:0.1"
         id="path137"
         inkscape:connector-curvature="0" />
      <path
         d="m 64.2258,684.497 h 1.6523 v -0.399 h -2.2219 v 0.399 c 0.1797,0.186 0.4243,0.435 0.7336,0.748 0.311,0.314 0.5063,0.516 0.586,0.607 0.1515,0.17 0.257,0.314 0.3164,0.431 0.0609,0.119 0.0914,0.235 0.0914,0.349 0,0.186 -0.0656,0.338 -0.1969,0.455 -0.1297,0.117 -0.2992,0.175 -0.5086,0.175 -0.1484,0 -0.3054,-0.025 -0.4711,-0.077 -0.164,-0.051 -0.3398,-0.13 -0.5273,-0.234 v 0.478 c 0.1906,0.076 0.3687,0.134 0.5344,0.173 0.1656,0.039 0.3171,0.059 0.4547,0.059 0.3624,0 0.6515,-0.091 0.8671,-0.272 0.2157,-0.181 0.3235,-0.423 0.3235,-0.727 0,-0.143 -0.0274,-0.28 -0.0821,-0.41 -0.0531,-0.128 -0.1507,-0.279 -0.2929,-0.454 -0.0391,-0.046 -0.1633,-0.177 -0.3727,-0.394 -0.2094,-0.216 -0.5047,-0.518 -0.8859,-0.907"
         style="fill:#000000;fill-opacity:1;fill-rule:nonzero;stroke:none;stroke-width:0.1"
         id="path139"
         inkscape:connector-curvature="0" />
      <path
         d="m 101.689,734.15 v -0.718 h -0.825 c -0.309,0 -0.525,-0.062 -0.647,-0.187 -0.119,-0.125 -0.178,-0.35 -0.178,-0.675 v -0.464 h 1.42 v -0.67 h -1.42 v -4.58 h -0.8671 v 4.58 h -0.825 v 0.67 h 0.825 v 0.365 c 0,0.585 0.1359,1.01 0.4078,1.275 0.2719,0.269 0.7033,0.404 1.2933,0.404 h 0.816"
         style="fill:#000000;fill-opacity:1;fill-rule:nonzero;stroke:none;stroke-width:0.1"
         id="path141"
         inkscape:connector-curvature="0" />
      <path
         d="m 104.143,734.602 c -0.244,0 -0.427,-0.12 -0.551,-0.361 -0.122,-0.239 -0.183,-0.599 -0.183,-1.08 0,-0.48 0.061,-0.84 0.183,-1.081 0.124,-0.239 0.307,-0.359 0.551,-0.359 0.245,0 0.429,0.12 0.551,0.359 0.123,0.241 0.185,0.601 0.185,1.081 0,0.481 -0.062,0.841 -0.185,1.08 -0.122,0.241 -0.306,0.361 -0.551,0.361 m 0,0.375 c 0.392,0 0.691,-0.156 0.898,-0.466 0.207,-0.31 0.311,-0.76 0.311,-1.35 0,-0.59 -0.104,-1.04 -0.311,-1.35 -0.207,-0.31 -0.506,-0.465 -0.898,-0.465 -0.392,0 -0.692,0.155 -0.9,0.465 -0.206,0.31 -0.309,0.76 -0.309,1.35 0,0.59 0.103,1.04 0.309,1.35 0.208,0.31 0.508,0.466 0.9,0.466"
         style="fill:#000000;fill-opacity:1;fill-rule:nonzero;stroke:none;stroke-width:0.1"
         id="path143"
         inkscape:connector-curvature="0" />
      <path
         d="m 102.085,724.589 h 0.43125 v 3.64688 H 102.085 Z"
         style="fill:#000000;fill-opacity:1;fill-rule:nonzero;stroke:none;stroke-width:0.1"
         id="path145"
         inkscape:connector-curvature="0" />
      <path
         d="m 103.198,725.711 h 1.26328 v 0.38438 H 103.198 Z"
         style="fill:#000000;fill-opacity:1;fill-rule:nonzero;stroke:none;stroke-width:0.1"
         id="path147"
         inkscape:connector-curvature="0" />
      <path
         d="m 105.293,724.987 h 0.774 v 2.67 l -0.842,-0.169 v 0.431 l 0.837,0.169 h 0.474 v -3.101 h 0.773 v -0.398 h -2.016 v 0.398"
         style="fill:#000000;fill-opacity:1;fill-rule:nonzero;stroke:none;stroke-width:0.1"
         id="path149"
         inkscape:connector-curvature="0" />
      <path
         d="m 143.282,817.373 v -0.718 h -0.825 c -0.31,0 -0.525,-0.062 -0.647,-0.187 -0.119,-0.125 -0.178,-0.35 -0.178,-0.675 v -0.464 h 1.42 v -0.67 h -1.42 v -4.58 h -0.868 v 4.58 h -0.825 v 0.67 h 0.825 v 0.366 c 0,0.584 0.136,1.009 0.408,1.275 0.272,0.268 0.703,0.403 1.294,0.403 h 0.816"
         style="fill:#000000;fill-opacity:1;fill-rule:nonzero;stroke:none;stroke-width:0.1"
         id="path151"
         inkscape:connector-curvature="0" />
      <path
         d="m 145.736,817.825 c -0.244,0 -0.428,-0.12 -0.551,-0.361 -0.122,-0.239 -0.183,-0.599 -0.183,-1.08 0,-0.48 0.061,-0.84 0.183,-1.081 0.123,-0.239 0.307,-0.358 0.551,-0.358 0.245,0 0.428,0.119 0.55,0.358 0.124,0.241 0.185,0.601 0.185,1.081 0,0.481 -0.061,0.841 -0.185,1.08 -0.122,0.241 -0.305,0.361 -0.55,0.361 m 0,0.375 c 0.392,0 0.691,-0.155 0.897,-0.466 0.208,-0.31 0.312,-0.76 0.312,-1.35 0,-0.589 -0.104,-1.039 -0.312,-1.35 -0.206,-0.31 -0.505,-0.464 -0.897,-0.464 -0.393,0 -0.693,0.154 -0.9,0.464 -0.207,0.311 -0.31,0.761 -0.31,1.35 0,0.59 0.103,1.04 0.31,1.35 0.207,0.311 0.507,0.466 0.9,0.466"
         style="fill:#000000;fill-opacity:1;fill-rule:nonzero;stroke:none;stroke-width:0.1"
         id="path153"
         inkscape:connector-curvature="0" />
      <path
         d="m 143.677,807.811 h 0.43125 v 3.64688 H 143.677 Z"
         style="fill:#000000;fill-opacity:1;fill-rule:nonzero;stroke:none;stroke-width:0.1"
         id="path155"
         inkscape:connector-curvature="0" />
      <path
         d="m 184.893,691.151 v -0.717 h -0.825 c -0.309,0 -0.525,-0.063 -0.647,-0.188 -0.119,-0.125 -0.178,-0.35 -0.178,-0.675 v -0.464 h 1.42 v -0.67 h -1.42 v -4.58 h -0.867 v 4.58 h -0.825 v 0.67 h 0.825 v 0.366 c 0,0.584 0.136,1.009 0.408,1.275 0.271,0.269 0.703,0.403 1.293,0.403 h 0.816"
         style="fill:#000000;fill-opacity:1;fill-rule:nonzero;stroke:none;stroke-width:0.1"
         id="path157"
         inkscape:connector-curvature="0" />
      <path
         d="m 187.347,691.604 c -0.243,0 -0.427,-0.121 -0.551,-0.361 -0.121,-0.239 -0.182,-0.6 -0.182,-1.081 0,-0.48 0.061,-0.84 0.182,-1.08 0.124,-0.239 0.308,-0.359 0.551,-0.359 0.246,0 0.429,0.12 0.551,0.359 0.123,0.24 0.185,0.6 0.185,1.08 0,0.481 -0.062,0.842 -0.185,1.081 -0.122,0.24 -0.305,0.361 -0.551,0.361 m 0,0.375 c 0.392,0 0.692,-0.156 0.898,-0.467 0.208,-0.309 0.312,-0.759 0.312,-1.35 0,-0.589 -0.104,-1.039 -0.312,-1.35 -0.206,-0.309 -0.506,-0.464 -0.898,-0.464 -0.392,0 -0.692,0.155 -0.9,0.464 -0.206,0.311 -0.309,0.761 -0.309,1.35 0,0.591 0.103,1.041 0.309,1.35 0.208,0.311 0.508,0.467 0.9,0.467"
         style="fill:#000000;fill-opacity:1;fill-rule:nonzero;stroke:none;stroke-width:0.1"
         id="path159"
         inkscape:connector-curvature="0" />
      <path
         d="m 185.289,681.59 h 0.43125 v 3.64688 H 185.289 Z"
         style="fill:#000000;fill-opacity:1;fill-rule:nonzero;stroke:none;stroke-width:0.1"
         id="path161"
         inkscape:connector-curvature="0" />
      <path
         d="m 188.376,684.599 v -1.305 h 1.305 v -0.399 h -1.305 v -1.305 h -0.394 v 1.305 h -1.305 v 0.399 h 1.305 v 1.305 h 0.394"
         style="fill:#000000;fill-opacity:1;fill-rule:nonzero;stroke:none;stroke-width:0.1"
         id="path163"
         inkscape:connector-curvature="0" />
      <path
         d="m 190.785,681.988 h 0.774 v 2.67 l -0.842,-0.169 v 0.431 l 0.837,0.169 h 0.473 v -3.101 h 0.774 v -0.398 h -2.016 v 0.398"
         style="fill:#000000;fill-opacity:1;fill-rule:nonzero;stroke:none;stroke-width:0.1"
         id="path165"
         inkscape:connector-curvature="0" />
      <path
         d="m 225.361,733.456 v -0.717 h -0.825 c -0.309,0 -0.525,-0.063 -0.647,-0.188 -0.119,-0.125 -0.178,-0.35 -0.178,-0.675 v -0.464 h 1.42 v -0.67 h -1.42 v -4.58 h -0.867 v 4.58 h -0.825 v 0.67 h 0.825 v 0.366 c 0,0.584 0.136,1.009 0.408,1.275 0.271,0.268 0.703,0.403 1.293,0.403 h 0.816"
         style="fill:#000000;fill-opacity:1;fill-rule:nonzero;stroke:none;stroke-width:0.1"
         id="path167"
         inkscape:connector-curvature="0" />
      <path
         d="m 227.815,733.909 c -0.244,0 -0.427,-0.121 -0.551,-0.361 -0.122,-0.239 -0.183,-0.6 -0.183,-1.081 0,-0.479 0.061,-0.84 0.183,-1.08 0.124,-0.239 0.307,-0.359 0.551,-0.359 0.245,0 0.429,0.12 0.551,0.359 0.123,0.24 0.185,0.601 0.185,1.08 0,0.481 -0.062,0.842 -0.185,1.081 -0.122,0.24 -0.306,0.361 -0.551,0.361 m 0,0.375 c 0.392,0 0.691,-0.156 0.897,-0.467 0.208,-0.309 0.312,-0.759 0.312,-1.35 0,-0.589 -0.104,-1.039 -0.312,-1.35 -0.206,-0.309 -0.505,-0.464 -0.897,-0.464 -0.392,0 -0.692,0.155 -0.9,0.464 -0.206,0.311 -0.31,0.761 -0.31,1.35 0,0.591 0.104,1.041 0.31,1.35 0.208,0.311 0.508,0.467 0.9,0.467"
         style="fill:#000000;fill-opacity:1;fill-rule:nonzero;stroke:none;stroke-width:0.1"
         id="path169"
         inkscape:connector-curvature="0" />
      <path
         d="m 225.757,723.895 h 0.43125 v 3.64688 H 225.757 Z"
         style="fill:#000000;fill-opacity:1;fill-rule:nonzero;stroke:none;stroke-width:0.1"
         id="path171"
         inkscape:connector-curvature="0" />
      <path
         d="m 228.843,726.904 v -1.305 h 1.306 V 725.2 h -1.306 v -1.305 h -0.393 v 1.305 h -1.306 v 0.399 h 1.306 v 1.305 h 0.393"
         style="fill:#000000;fill-opacity:1;fill-rule:nonzero;stroke:none;stroke-width:0.1"
         id="path173"
         inkscape:connector-curvature="0" />
      <path
         d="m 231.579,724.293 h 1.652 v -0.398 h -2.222 v 0.398 c 0.18,0.186 0.424,0.436 0.734,0.748 0.311,0.314 0.506,0.516 0.586,0.607 0.151,0.17 0.257,0.314 0.316,0.431 0.061,0.119 0.091,0.235 0.091,0.35 0,0.185 -0.065,0.337 -0.197,0.454 -0.129,0.117 -0.299,0.176 -0.508,0.176 -0.149,0 -0.306,-0.026 -0.471,-0.077 -0.164,-0.052 -0.34,-0.13 -0.528,-0.235 v 0.478 c 0.191,0.077 0.369,0.135 0.535,0.174 0.165,0.039 0.317,0.058 0.454,0.058 0.363,0 0.652,-0.09 0.868,-0.271 0.215,-0.182 0.323,-0.424 0.323,-0.727 0,-0.144 -0.027,-0.28 -0.082,-0.41 -0.053,-0.128 -0.151,-0.28 -0.293,-0.455 -0.039,-0.045 -0.163,-0.176 -0.373,-0.394 -0.209,-0.215 -0.504,-0.518 -0.885,-0.907"
         style="fill:#000000;fill-opacity:1;fill-rule:nonzero;stroke:none;stroke-width:0.1"
         id="path175"
         inkscape:connector-curvature="0" />
      <path
         d="m 266.972,650.233 v -0.717 h -0.825 c -0.309,0 -0.525,-0.062 -0.647,-0.187 -0.118,-0.125 -0.178,-0.35 -0.178,-0.675 v -0.465 h 1.421 v -0.67 h -1.421 v -4.58 h -0.867 v 4.58 h -0.825 v 0.67 h 0.825 v 0.366 c 0,0.584 0.136,1.009 0.408,1.275 0.272,0.269 0.703,0.403 1.294,0.403 h 0.815"
         style="fill:#000000;fill-opacity:1;fill-rule:nonzero;stroke:none;stroke-width:0.1"
         id="path177"
         inkscape:connector-curvature="0" />
      <path
         d="m 269.426,650.686 c -0.244,0 -0.427,-0.121 -0.551,-0.361 -0.121,-0.239 -0.182,-0.6 -0.182,-1.081 0,-0.48 0.061,-0.84 0.182,-1.08 0.124,-0.239 0.307,-0.359 0.551,-0.359 0.245,0 0.429,0.12 0.551,0.359 0.123,0.24 0.185,0.6 0.185,1.08 0,0.481 -0.062,0.842 -0.185,1.081 -0.122,0.24 -0.306,0.361 -0.551,0.361 m 0,0.375 c 0.392,0 0.692,-0.156 0.898,-0.467 0.208,-0.309 0.312,-0.759 0.312,-1.35 0,-0.589 -0.104,-1.039 -0.312,-1.35 -0.206,-0.309 -0.506,-0.464 -0.898,-0.464 -0.392,0 -0.692,0.155 -0.9,0.464 -0.206,0.311 -0.309,0.761 -0.309,1.35 0,0.591 0.103,1.041 0.309,1.35 0.208,0.311 0.508,0.467 0.9,0.467"
         style="fill:#000000;fill-opacity:1;fill-rule:nonzero;stroke:none;stroke-width:0.1"
         id="path179"
         inkscape:connector-curvature="0" />
      <path
         d="m 267.368,640.672 h 0.43125 v 3.64688 H 267.368 Z"
         style="fill:#000000;fill-opacity:1;fill-rule:nonzero;stroke:none;stroke-width:0.1"
         id="path181"
         inkscape:connector-curvature="0" />
      <path
         d="m 270.455,643.681 v -1.305 h 1.305 v -0.399 h -1.305 v -1.305 h -0.394 v 1.305 h -1.306 v 0.399 h 1.306 v 1.305 h 0.394"
         style="fill:#000000;fill-opacity:1;fill-rule:nonzero;stroke:none;stroke-width:0.1"
         id="path183"
         inkscape:connector-curvature="0" />
      <path
         d="m 274.216,642.559 c 0.227,-0.049 0.404,-0.15 0.53,-0.303 0.128,-0.153 0.192,-0.342 0.192,-0.567 0,-0.345 -0.118,-0.612 -0.356,-0.801 -0.237,-0.19 -0.575,-0.284 -1.012,-0.284 -0.147,0 -0.299,0.015 -0.455,0.044 -0.155,0.029 -0.315,0.072 -0.481,0.129 v 0.457 c 0.132,-0.076 0.275,-0.134 0.432,-0.173 0.156,-0.039 0.319,-0.059 0.489,-0.059 0.297,0 0.523,0.059 0.678,0.176 0.156,0.117 0.234,0.288 0.234,0.511 0,0.206 -0.072,0.367 -0.218,0.483 -0.144,0.117 -0.344,0.176 -0.602,0.176 h -0.408 v 0.389 h 0.427 c 0.232,0 0.411,0.046 0.534,0.138 0.123,0.094 0.185,0.228 0.185,0.403 0,0.18 -0.064,0.317 -0.192,0.413 -0.127,0.097 -0.309,0.145 -0.546,0.145 -0.13,0 -0.269,-0.014 -0.417,-0.042 -0.149,-0.028 -0.312,-0.072 -0.49,-0.132 v 0.422 c 0.18,0.05 0.348,0.088 0.504,0.113 0.158,0.025 0.306,0.037 0.445,0.037 0.359,0 0.644,-0.082 0.853,-0.246 0.21,-0.162 0.314,-0.383 0.314,-0.661 0,-0.193 -0.055,-0.357 -0.166,-0.492 -0.111,-0.133 -0.269,-0.225 -0.474,-0.276"
         style="fill:#000000;fill-opacity:1;fill-rule:nonzero;stroke:none;stroke-width:0.1"
         id="path185"
         inkscape:connector-curvature="0" />
      <path
         d="m 308.584,692.538 v -0.717 h -0.825 c -0.31,0 -0.525,-0.063 -0.647,-0.188 -0.119,-0.125 -0.178,-0.35 -0.178,-0.675 v -0.464 h 1.42 v -0.67 h -1.42 v -4.58 h -0.868 v 4.58 h -0.825 v 0.67 h 0.825 v 0.366 c 0,0.584 0.136,1.009 0.408,1.275 0.272,0.269 0.703,0.403 1.294,0.403 h 0.816"
         style="fill:#000000;fill-opacity:1;fill-rule:nonzero;stroke:none;stroke-width:0.1"
         id="path187"
         inkscape:connector-curvature="0" />
      <path
         d="m 311.038,692.991 c -0.244,0 -0.427,-0.121 -0.551,-0.361 -0.122,-0.239 -0.183,-0.6 -0.183,-1.081 0,-0.479 0.061,-0.84 0.183,-1.08 0.124,-0.239 0.307,-0.359 0.551,-0.359 0.245,0 0.429,0.12 0.551,0.359 0.123,0.24 0.185,0.601 0.185,1.08 0,0.481 -0.062,0.842 -0.185,1.081 -0.122,0.24 -0.306,0.361 -0.551,0.361 m 0,0.375 c 0.392,0 0.691,-0.156 0.898,-0.467 0.207,-0.309 0.311,-0.759 0.311,-1.35 0,-0.589 -0.104,-1.039 -0.311,-1.35 -0.207,-0.309 -0.506,-0.464 -0.898,-0.464 -0.392,0 -0.692,0.155 -0.9,0.464 -0.206,0.311 -0.309,0.761 -0.309,1.35 0,0.591 0.103,1.041 0.309,1.35 0.208,0.311 0.508,0.467 0.9,0.467"
         style="fill:#000000;fill-opacity:1;fill-rule:nonzero;stroke:none;stroke-width:0.1"
         id="path189"
         inkscape:connector-curvature="0" />
      <path
         d="m 308.98,682.977 h 0.43125 v 3.64688 H 308.98 Z"
         style="fill:#000000;fill-opacity:1;fill-rule:nonzero;stroke:none;stroke-width:0.1"
         id="path191"
         inkscape:connector-curvature="0" />
      <path
         d="m 312.066,685.986 v -1.305 h 1.306 v -0.399 h -1.306 v -1.305 h -0.393 v 1.305 h -1.306 v 0.399 h 1.306 v 1.305 h 0.393"
         style="fill:#000000;fill-opacity:1;fill-rule:nonzero;stroke:none;stroke-width:0.1"
         id="path193"
         inkscape:connector-curvature="0" />
      <path
         d="m 315.695,686.064 -1.196,-1.868 h 1.196 v 1.868 m -0.125,0.412 h 0.596 v -2.28 h 0.499 v -0.394 h -0.499 v -0.825 h -0.471 v 0.825 h -1.58 v 0.457 l 1.455,2.217"
         style="fill:#000000;fill-opacity:1;fill-rule:nonzero;stroke:none;stroke-width:0.1"
         id="path195"
         inkscape:connector-curvature="0" />
      <path
         d="m 351.582,774.374 v -0.717 h -0.825 c -0.309,0 -0.525,-0.063 -0.646,-0.188 -0.119,-0.125 -0.179,-0.35 -0.179,-0.675 v -0.464 h 1.421 v -0.67 h -1.421 v -4.58 h -0.867 v 4.58 h -0.825 v 0.67 h 0.825 v 0.366 c 0,0.584 0.136,1.009 0.408,1.275 0.272,0.268 0.703,0.403 1.294,0.403 h 0.815"
         style="fill:#000000;fill-opacity:1;fill-rule:nonzero;stroke:none;stroke-width:0.1"
         id="path197"
         inkscape:connector-curvature="0" />
      <path
         d="m 354.036,774.827 c -0.243,0 -0.427,-0.121 -0.55,-0.361 -0.122,-0.239 -0.183,-0.6 -0.183,-1.081 0,-0.48 0.061,-0.84 0.183,-1.08 0.123,-0.239 0.307,-0.359 0.55,-0.359 0.246,0 0.429,0.12 0.551,0.359 0.124,0.24 0.185,0.6 0.185,1.08 0,0.481 -0.061,0.842 -0.185,1.081 -0.122,0.24 -0.305,0.361 -0.551,0.361 m 0,0.375 c 0.393,0 0.692,-0.156 0.898,-0.467 0.208,-0.309 0.312,-0.759 0.312,-1.35 0,-0.589 -0.104,-1.039 -0.312,-1.35 -0.206,-0.309 -0.505,-0.464 -0.898,-0.464 -0.392,0 -0.692,0.155 -0.9,0.464 -0.206,0.311 -0.309,0.761 -0.309,1.35 0,0.591 0.103,1.041 0.309,1.35 0.208,0.311 0.508,0.467 0.9,0.467"
         style="fill:#000000;fill-opacity:1;fill-rule:nonzero;stroke:none;stroke-width:0.1"
         id="path199"
         inkscape:connector-curvature="0" />
      <path
         d="m 351.978,764.813 h 0.43125 v 3.64688 H 351.978 Z"
         style="fill:#000000;fill-opacity:1;fill-rule:nonzero;stroke:none;stroke-width:0.1"
         id="path201"
         inkscape:connector-curvature="0" />
      <path
         d="m 355.065,767.822 v -1.305 h 1.305 v -0.399 h -1.305 v -1.305 h -0.394 v 1.305 h -1.305 v 0.399 h 1.305 v 1.305 h 0.394"
         style="fill:#000000;fill-opacity:1;fill-rule:nonzero;stroke:none;stroke-width:0.1"
         id="path203"
         inkscape:connector-curvature="0" />
      <path
         d="m 357.397,768.312 h 1.858 v -0.398 h -1.425 v -0.858 c 0.069,0.023 0.138,0.04 0.207,0.051 0.068,0.013 0.137,0.019 0.206,0.019 0.391,0 0.7,-0.107 0.928,-0.321 0.228,-0.214 0.342,-0.504 0.342,-0.869 0,-0.377 -0.117,-0.67 -0.351,-0.879 -0.235,-0.208 -0.565,-0.312 -0.992,-0.312 -0.147,0 -0.297,0.012 -0.45,0.037 -0.151,0.025 -0.308,0.063 -0.471,0.113 v 0.476 c 0.141,-0.077 0.286,-0.134 0.436,-0.171 0.15,-0.038 0.309,-0.057 0.476,-0.057 0.27,0 0.484,0.071 0.642,0.214 0.158,0.142 0.237,0.335 0.237,0.579 0,0.243 -0.079,0.436 -0.237,0.578 -0.158,0.143 -0.372,0.214 -0.642,0.214 -0.127,0 -0.253,-0.014 -0.38,-0.042 -0.125,-0.029 -0.253,-0.072 -0.384,-0.132 v 1.758"
         style="fill:#000000;fill-opacity:1;fill-rule:nonzero;stroke:none;stroke-width:0.1"
         id="path205"
         inkscape:connector-curvature="0" />
      <path
         d="m 20.8305,836.6 v -1.648 h -1.8961 c -0.7114,0 -1.2067,-0.144 -1.4871,-0.431 -0.2727,-0.287 -0.4094,-0.804 -0.4094,-1.551 v -1.067 h 3.2648 v -1.541 h -3.2648 v -10.526 h -1.993 v 10.526 h -1.8965 v 1.541 h 1.8965 v 0.84 c 0,1.344 0.3125,2.32 0.9371,2.931 0.625,0.618 1.6164,0.926 2.9739,0.926 h 1.8746"
         style="fill:#000000;fill-opacity:1;fill-rule:nonzero;stroke:none;stroke-width:0.1"
         id="path207"
         inkscape:connector-curvature="0" />
      <path
         d="m 26.4711,837.641 c -0.5602,0 -0.9824,-0.277 -1.266,-0.83 -0.2801,-0.549 -0.4203,-1.377 -0.4203,-2.483 0,-1.103 0.1402,-1.931 0.4203,-2.484 0.2836,-0.549 0.7058,-0.824 1.266,-0.824 0.5637,0 0.9859,0.275 1.266,0.824 0.2836,0.553 0.4254,1.381 0.4254,2.484 0,1.106 -0.1418,1.934 -0.4254,2.483 -0.2801,0.553 -0.7023,0.83 -1.266,0.83 m 0,0.862 c 0.9016,0 1.5891,-0.358 2.0633,-1.073 0.4777,-0.71 0.7164,-1.745 0.7164,-3.102 0,-1.354 -0.2387,-2.389 -0.7164,-3.103 -0.4742,-0.711 -1.1617,-1.067 -2.0633,-1.067 -0.9016,0 -1.591,0.356 -2.0688,1.067 -0.4738,0.714 -0.7109,1.749 -0.7109,3.103 0,1.357 0.2371,2.392 0.7109,3.102 0.4778,0.715 1.1672,1.073 2.0688,1.073"
         style="fill:#000000;fill-opacity:1;fill-rule:nonzero;stroke:none;stroke-width:0.1"
         id="path209"
         inkscape:connector-curvature="0" />
      <path
         d="m 17.9965,672.806 c -0.2789,-0.479 -0.4863,-0.953 -0.6219,-1.422 -0.1351,-0.468 -0.2031,-0.943 -0.2031,-1.425 0,-0.481 0.068,-0.958 0.2031,-1.431 0.1375,-0.471 0.3449,-0.945 0.6219,-1.422 h -0.5 c -0.3125,0.49 -0.5469,0.971 -0.7031,1.444 -0.1539,0.473 -0.2313,0.943 -0.2313,1.409 0,0.465 0.0774,0.932 0.2313,1.403 0.1543,0.471 0.3886,0.952 0.7031,1.444 h 0.5"
         style="fill:#000000;fill-opacity:1;fill-rule:nonzero;stroke:none;stroke-width:0.1"
         id="path303"
         inkscape:connector-curvature="0" />
      <path
         d="m 19.1152,667.95 h 0.575 v 4.8625 h -0.575 z"
         style="fill:#000000;fill-opacity:1;fill-rule:nonzero;stroke:none;stroke-width:0.1"
         id="path305"
         inkscape:connector-curvature="0" />
      <path
         d="m 20.5996,669.447 h 1.68438 v 0.5125 H 20.5996 Z"
         style="fill:#000000;fill-opacity:1;fill-rule:nonzero;stroke:none;stroke-width:0.1"
         id="path307"
         inkscape:connector-curvature="0" />
      <path
         d="m 23.8277,668.481 h 2.2032 v -0.531 h -2.9625 v 0.531 c 0.2398,0.248 0.5656,0.58 0.9781,0.997 0.4148,0.419 0.675,0.688 0.7812,0.81 0.2024,0.226 0.343,0.418 0.4219,0.574 0.0813,0.159 0.1219,0.314 0.1219,0.466 0,0.248 -0.0875,0.45 -0.2625,0.606 -0.1727,0.157 -0.3988,0.235 -0.6781,0.235 -0.1977,0 -0.4071,-0.035 -0.6282,-0.103 -0.2187,-0.069 -0.4531,-0.173 -0.7031,-0.313 v 0.638 c 0.2543,0.102 0.4918,0.179 0.7125,0.231 0.2211,0.052 0.4231,0.078 0.6063,0.078 0.4836,0 0.8687,-0.121 1.1562,-0.362 0.2875,-0.242 0.4313,-0.565 0.4313,-0.969 0,-0.192 -0.0364,-0.374 -0.1094,-0.547 -0.0707,-0.171 -0.2008,-0.373 -0.3906,-0.606 -0.052,-0.061 -0.2176,-0.236 -0.4969,-0.525 -0.2789,-0.288 -0.6727,-0.691 -1.1813,-1.21"
         style="fill:#000000;fill-opacity:1;fill-rule:nonzero;stroke:none;stroke-width:0.1"
         id="path309"
         inkscape:connector-curvature="0" />
      <path
         d="m 27.1871,672.806 h 0.5 c 0.3125,-0.492 0.5461,-0.973 0.7,-1.444 0.1563,-0.471 0.2344,-0.938 0.2344,-1.403 0,-0.466 -0.0781,-0.936 -0.2344,-1.409 -0.1539,-0.473 -0.3875,-0.954 -0.7,-1.444 h -0.5 c 0.2774,0.477 0.4836,0.951 0.6188,1.422 0.1375,0.473 0.2062,0.95 0.2062,1.431 0,0.482 -0.0687,0.957 -0.2062,1.425 -0.1352,0.469 -0.3414,0.943 -0.6188,1.422"
         style="fill:#000000;fill-opacity:1;fill-rule:nonzero;stroke:none;stroke-width:0.1"
         id="path311"
         inkscape:connector-curvature="0" />
      <path
         d="m 30.4027,668.481 h 2.2032 v -0.531 h -2.9625 v 0.531 c 0.2398,0.248 0.5656,0.58 0.9781,0.997 0.4148,0.419 0.675,0.688 0.7812,0.81 0.2024,0.226 0.343,0.418 0.4219,0.574 0.0813,0.159 0.1219,0.314 0.1219,0.466 0,0.248 -0.0875,0.45 -0.2625,0.606 -0.1727,0.157 -0.3988,0.235 -0.6781,0.235 -0.1977,0 -0.4071,-0.035 -0.6282,-0.103 -0.2187,-0.069 -0.4531,-0.173 -0.7031,-0.313 v 0.638 c 0.2543,0.102 0.4918,0.179 0.7125,0.231 0.2211,0.052 0.4231,0.078 0.6063,0.078 0.4836,0 0.8687,-0.121 1.1562,-0.362 0.2875,-0.242 0.4313,-0.565 0.4313,-0.969 0,-0.192 -0.0364,-0.374 -0.1094,-0.547 -0.0707,-0.171 -0.2008,-0.373 -0.3906,-0.606 -0.052,-0.061 -0.2176,-0.236 -0.4969,-0.525 -0.2789,-0.288 -0.6727,-0.691 -1.1813,-1.21"
         style="fill:#000000;fill-opacity:1;fill-rule:nonzero;stroke:none;stroke-width:0.1"
         id="path313"
         inkscape:connector-curvature="0" />
      <path
         d="m 33.5645,673.953 h 1.68438 v 0.5125 H 33.5645 Z"
         style="fill:#000000;fill-opacity:1;fill-rule:nonzero;stroke:none;stroke-width:0.1"
         id="path315"
         inkscape:connector-curvature="0" />
      <path
         d="m 36.5551,677.122 h 0.6312 v -4.341 c 0,-0.562 -0.1074,-0.971 -0.3218,-1.225 -0.2125,-0.254 -0.5555,-0.381 -1.0282,-0.381 h -0.2406 v 0.531 h 0.1969 c 0.2789,0 0.4758,0.078 0.5906,0.235 0.1145,0.156 0.1719,0.436 0.1719,0.84 v 4.341"
         style="fill:#000000;fill-opacity:1;fill-rule:nonzero;stroke:none;stroke-width:0.1"
         id="path317"
         inkscape:connector-curvature="0" />
      <path
         d="m 38.7129,673.144 c -0.1625,0 -0.2852,-0.08 -0.3672,-0.24 -0.0812,-0.16 -0.1219,-0.4 -0.1219,-0.721 0,-0.32 0.0407,-0.56 0.1219,-0.72 0.082,-0.159 0.2047,-0.239 0.3672,-0.239 0.1633,0 0.2859,0.08 0.3672,0.239 0.082,0.16 0.1234,0.4 0.1234,0.72 0,0.321 -0.0414,0.561 -0.1234,0.721 -0.0813,0.16 -0.2039,0.24 -0.3672,0.24 m 0,0.25 c 0.2613,0 0.4609,-0.104 0.5984,-0.311 0.1383,-0.206 0.2078,-0.506 0.2078,-0.9 0,-0.393 -0.0695,-0.693 -0.2078,-0.9 -0.1375,-0.206 -0.3371,-0.309 -0.5984,-0.309 -0.2617,0 -0.4617,0.103 -0.6,0.309 -0.1375,0.207 -0.2063,0.507 -0.2063,0.9 0,0.394 0.0688,0.694 0.2063,0.9 0.1383,0.207 0.3383,0.311 0.6,0.311"
         style="fill:#000000;fill-opacity:1;fill-rule:nonzero;stroke:none;stroke-width:0.1"
         id="path319"
         inkscape:connector-curvature="0" />
      <path
         d="m 60.348,672.806 c -0.2792,-0.479 -0.4867,-0.953 -0.6218,-1.422 -0.1356,-0.468 -0.2032,-0.943 -0.2032,-1.425 0,-0.481 0.0676,-0.958 0.2032,-1.431 0.1375,-0.471 0.3445,-0.945 0.6218,-1.422 h -0.5 c -0.3125,0.49 -0.5468,0.971 -0.7031,1.444 -0.1543,0.473 -0.2312,0.943 -0.2312,1.409 0,0.465 0.0769,0.932 0.2312,1.403 0.1539,0.471 0.3883,0.952 0.7031,1.444 h 0.5"
         style="fill:#000000;fill-opacity:1;fill-rule:nonzero;stroke:none;stroke-width:0.1"
         id="path321"
         inkscape:connector-curvature="0" />
      <path
         d="m 61.4668,667.95 h 0.575 v 4.8625 h -0.575 z"
         style="fill:#000000;fill-opacity:1;fill-rule:nonzero;stroke:none;stroke-width:0.1"
         id="path323"
         inkscape:connector-curvature="0" />
      <path
         d="m 62.9512,669.447 h 1.68438 v 0.5125 H 62.9512 Z"
         style="fill:#000000;fill-opacity:1;fill-rule:nonzero;stroke:none;stroke-width:0.1"
         id="path325"
         inkscape:connector-curvature="0" />
      <path
         d="m 65.7449,668.481 h 1.0313 v 3.56 l -1.1219,-0.225 v 0.575 l 1.1156,0.225 h 0.6313 v -4.135 h 1.0312 v -0.531 h -2.6875 v 0.531"
         style="fill:#000000;fill-opacity:1;fill-rule:nonzero;stroke:none;stroke-width:0.1"
         id="path327"
         inkscape:connector-curvature="0" />
      <path
         d="m 69.5387,672.806 h 0.5 c 0.3125,-0.492 0.5457,-0.973 0.7,-1.444 0.1562,-0.471 0.2343,-0.938 0.2343,-1.403 0,-0.466 -0.0781,-0.936 -0.2343,-1.409 -0.1543,-0.473 -0.3875,-0.954 -0.7,-1.444 h -0.5 c 0.2769,0.477 0.4832,0.951 0.6187,1.422 0.1375,0.473 0.2063,0.95 0.2063,1.431 0,0.482 -0.0688,0.957 -0.2063,1.425 -0.1355,0.469 -0.3418,0.943 -0.6187,1.422"
         style="fill:#000000;fill-opacity:1;fill-rule:nonzero;stroke:none;stroke-width:0.1"
         id="path329"
         inkscape:connector-curvature="0" />
      <path
         d="m 72.7543,668.481 h 2.2031 v -0.531 h -2.9625 v 0.531 c 0.2395,0.248 0.5656,0.58 0.9781,0.997 0.4145,0.419 0.675,0.688 0.7813,0.81 0.2019,0.226 0.3426,0.418 0.4219,0.574 0.0812,0.159 0.1218,0.314 0.1218,0.466 0,0.248 -0.0875,0.45 -0.2625,0.606 -0.173,0.157 -0.3992,0.235 -0.6781,0.235 -0.198,0 -0.4074,-0.035 -0.6281,-0.103 -0.2188,-0.069 -0.4531,-0.173 -0.7031,-0.313 v 0.638 c 0.2539,0.102 0.4914,0.179 0.7125,0.231 0.2207,0.052 0.4226,0.078 0.6062,0.078 0.4832,0 0.8688,-0.121 1.1563,-0.362 0.2875,-0.242 0.4312,-0.565 0.4312,-0.969 0,-0.192 -0.0367,-0.374 -0.1094,-0.547 -0.071,-0.171 -0.2011,-0.373 -0.3906,-0.606 -0.0523,-0.061 -0.2179,-0.236 -0.4969,-0.525 -0.2793,-0.288 -0.673,-0.691 -1.1812,-1.21"
         style="fill:#000000;fill-opacity:1;fill-rule:nonzero;stroke:none;stroke-width:0.1"
         id="path331"
         inkscape:connector-curvature="0" />
      <path
         d="m 75.9156,673.953 h 1.68438 v 0.5125 H 75.9156 Z"
         style="fill:#000000;fill-opacity:1;fill-rule:nonzero;stroke:none;stroke-width:0.1"
         id="path333"
         inkscape:connector-curvature="0" />
      <path
         d="m 78.9062,677.122 h 0.6313 v -4.341 c 0,-0.562 -0.1074,-0.971 -0.3219,-1.225 -0.2125,-0.254 -0.5551,-0.381 -1.0281,-0.381 h -0.2406 v 0.531 h 0.1969 c 0.2792,0 0.4761,0.078 0.5906,0.235 0.1144,0.156 0.1718,0.436 0.1718,0.84 v 4.341"
         style="fill:#000000;fill-opacity:1;fill-rule:nonzero;stroke:none;stroke-width:0.1"
         id="path335"
         inkscape:connector-curvature="0" />
      <path
         d="m 81.0641,673.144 c -0.1625,0 -0.2852,-0.08 -0.3672,-0.24 -0.0813,-0.16 -0.1219,-0.4 -0.1219,-0.721 0,-0.32 0.0406,-0.56 0.1219,-0.72 0.082,-0.159 0.2047,-0.239 0.3672,-0.239 0.1632,0 0.2859,0.08 0.3671,0.239 0.0821,0.16 0.1235,0.4 0.1235,0.72 0,0.321 -0.0414,0.561 -0.1235,0.721 -0.0812,0.16 -0.2039,0.24 -0.3671,0.24 m 0,0.25 c 0.2613,0 0.4609,-0.104 0.5984,-0.311 0.1383,-0.206 0.2078,-0.506 0.2078,-0.9 0,-0.393 -0.0695,-0.693 -0.2078,-0.9 -0.1375,-0.206 -0.3371,-0.309 -0.5984,-0.309 -0.2618,0 -0.4618,0.103 -0.6,0.309 -0.1375,0.207 -0.2063,0.507 -0.2063,0.9 0,0.394 0.0688,0.694 0.2063,0.9 0.1382,0.207 0.3382,0.311 0.6,0.311"
         style="fill:#000000;fill-opacity:1;fill-rule:nonzero;stroke:none;stroke-width:0.1"
         id="path337"
         inkscape:connector-curvature="0" />
      <path
         d="m 112.845,667.106 h 0.575 v 4.8625 h -0.575 z"
         style="fill:#000000;fill-opacity:1;fill-rule:nonzero;stroke:none;stroke-width:0.1"
         id="path339"
         inkscape:connector-curvature="0" />
      <path
         d="m 115.245,667.638 h 2.203 v -0.532 h -2.962 v 0.532 c 0.239,0.247 0.565,0.58 0.978,0.996 0.415,0.419 0.675,0.689 0.781,0.81 0.202,0.227 0.343,0.418 0.422,0.575 0.081,0.158 0.122,0.313 0.122,0.465 0,0.248 -0.088,0.45 -0.263,0.607 -0.172,0.156 -0.399,0.234 -0.678,0.234 -0.198,0 -0.407,-0.034 -0.628,-0.103 -0.219,-0.069 -0.453,-0.173 -0.703,-0.313 v 0.638 c 0.254,0.102 0.492,0.179 0.712,0.231 0.221,0.052 0.423,0.078 0.607,0.078 0.483,0 0.868,-0.121 1.156,-0.362 0.287,-0.242 0.431,-0.565 0.431,-0.969 0,-0.192 -0.036,-0.374 -0.109,-0.547 -0.071,-0.171 -0.201,-0.373 -0.391,-0.606 -0.052,-0.061 -0.218,-0.236 -0.497,-0.525 -0.279,-0.288 -0.672,-0.691 -1.181,-1.209"
         style="fill:#000000;fill-opacity:1;fill-rule:nonzero;stroke:none;stroke-width:0.1"
         id="path341"
         inkscape:connector-curvature="0" />
      <path
         d="m 117.264,673.109 h 1.68438 v 0.5125 H 117.264 Z"
         style="fill:#000000;fill-opacity:1;fill-rule:nonzero;stroke:none;stroke-width:0.1"
         id="path343"
         inkscape:connector-curvature="0" />
      <path
         d="m 120.255,676.278 h 0.631 v -4.34 c 0,-0.563 -0.107,-0.972 -0.322,-1.226 -0.212,-0.254 -0.555,-0.381 -1.028,-0.381 h -0.241 v 0.531 h 0.197 c 0.279,0 0.476,0.079 0.591,0.235 0.115,0.156 0.172,0.436 0.172,0.841 v 4.34"
         style="fill:#000000;fill-opacity:1;fill-rule:nonzero;stroke:none;stroke-width:0.1"
         id="path345"
         inkscape:connector-curvature="0" />
      <path
         d="m 122.412,672.3 c -0.162,0 -0.284,-0.08 -0.367,-0.24 -0.081,-0.16 -0.122,-0.4 -0.122,-0.721 0,-0.319 0.041,-0.56 0.122,-0.72 0.083,-0.159 0.205,-0.239 0.367,-0.239 0.164,0 0.286,0.08 0.368,0.239 0.082,0.16 0.123,0.401 0.123,0.72 0,0.321 -0.041,0.561 -0.123,0.721 -0.082,0.16 -0.204,0.24 -0.368,0.24 m 0,0.25 c 0.262,0 0.461,-0.104 0.599,-0.311 0.139,-0.206 0.208,-0.506 0.208,-0.9 0,-0.393 -0.069,-0.693 -0.208,-0.9 -0.138,-0.206 -0.337,-0.309 -0.599,-0.309 -0.261,0 -0.461,0.103 -0.6,0.309 -0.137,0.207 -0.206,0.507 -0.206,0.9 0,0.394 0.069,0.694 0.206,0.9 0.139,0.207 0.339,0.311 0.6,0.311"
         style="fill:#000000;fill-opacity:1;fill-rule:nonzero;stroke:none;stroke-width:0.1"
         id="path347"
         inkscape:connector-curvature="0" />
      <path
         d="m 142.168,672.806 c -0.279,-0.479 -0.487,-0.953 -0.622,-1.422 -0.135,-0.468 -0.203,-0.943 -0.203,-1.425 0,-0.481 0.068,-0.958 0.203,-1.431 0.138,-0.471 0.345,-0.945 0.622,-1.422 h -0.5 c -0.313,0.49 -0.547,0.971 -0.703,1.444 -0.154,0.473 -0.231,0.943 -0.231,1.409 0,0.465 0.077,0.932 0.231,1.403 0.154,0.471 0.388,0.952 0.703,1.444 h 0.5"
         style="fill:#000000;fill-opacity:1;fill-rule:nonzero;stroke:none;stroke-width:0.1"
         id="path349"
         inkscape:connector-curvature="0" />
      <path
         d="m 143.287,667.95 h 0.575 v 4.8625 h -0.575 z"
         style="fill:#000000;fill-opacity:1;fill-rule:nonzero;stroke:none;stroke-width:0.1"
         id="path351"
         inkscape:connector-curvature="0" />
      <path
         d="m 147.402,671.962 v -1.74 h 1.741 v -0.531 h -1.741 v -1.741 h -0.525 v 1.741 h -1.74 v 0.531 h 1.74 v 1.74 h 0.525"
         style="fill:#000000;fill-opacity:1;fill-rule:nonzero;stroke:none;stroke-width:0.1"
         id="path353"
         inkscape:connector-curvature="0" />
      <path
         d="m 150.615,668.481 h 1.031 v 3.56 l -1.122,-0.225 v 0.575 l 1.116,0.225 h 0.631 v -4.135 h 1.031 v -0.531 h -2.687 v 0.531"
         style="fill:#000000;fill-opacity:1;fill-rule:nonzero;stroke:none;stroke-width:0.1"
         id="path355"
         inkscape:connector-curvature="0" />
      <path
         d="m 154.409,672.806 h 0.5 c 0.312,-0.492 0.545,-0.973 0.7,-1.444 0.156,-0.471 0.234,-0.938 0.234,-1.403 0,-0.466 -0.078,-0.936 -0.234,-1.409 -0.155,-0.473 -0.388,-0.954 -0.7,-1.444 h -0.5 c 0.277,0.477 0.483,0.951 0.618,1.422 0.138,0.473 0.207,0.95 0.207,1.431 0,0.482 -0.069,0.957 -0.207,1.425 -0.135,0.469 -0.341,0.943 -0.618,1.422"
         style="fill:#000000;fill-opacity:1;fill-rule:nonzero;stroke:none;stroke-width:0.1"
         id="path357"
         inkscape:connector-curvature="0" />
      <path
         d="m 157.624,668.481 h 2.203 v -0.531 h -2.962 v 0.531 c 0.239,0.248 0.565,0.58 0.978,0.997 0.414,0.419 0.675,0.688 0.781,0.81 0.202,0.226 0.343,0.418 0.422,0.574 0.081,0.159 0.122,0.314 0.122,0.466 0,0.248 -0.088,0.45 -0.263,0.606 -0.173,0.157 -0.399,0.235 -0.678,0.235 -0.198,0 -0.407,-0.035 -0.628,-0.103 -0.219,-0.069 -0.453,-0.173 -0.703,-0.313 v 0.638 c 0.254,0.102 0.492,0.179 0.713,0.231 0.22,0.052 0.422,0.078 0.606,0.078 0.483,0 0.869,-0.121 1.156,-0.362 0.288,-0.242 0.431,-0.565 0.431,-0.969 0,-0.192 -0.036,-0.374 -0.109,-0.547 -0.071,-0.171 -0.201,-0.373 -0.391,-0.606 -0.052,-0.061 -0.218,-0.236 -0.497,-0.525 -0.279,-0.288 -0.673,-0.691 -1.181,-1.21"
         style="fill:#000000;fill-opacity:1;fill-rule:nonzero;stroke:none;stroke-width:0.1"
         id="path359"
         inkscape:connector-curvature="0" />
      <path
         d="m 158.989,673.953 h 1.68438 v 0.5125 H 158.989 Z"
         style="fill:#000000;fill-opacity:1;fill-rule:nonzero;stroke:none;stroke-width:0.1"
         id="path361"
         inkscape:connector-curvature="0" />
      <path
         d="m 161.979,677.122 h 0.632 v -4.341 c 0,-0.562 -0.108,-0.971 -0.322,-1.225 -0.213,-0.254 -0.556,-0.381 -1.028,-0.381 h -0.241 v 0.531 h 0.197 c 0.279,0 0.476,0.078 0.59,0.235 0.115,0.156 0.172,0.436 0.172,0.84 v 4.341"
         style="fill:#000000;fill-opacity:1;fill-rule:nonzero;stroke:none;stroke-width:0.1"
         id="path363"
         inkscape:connector-curvature="0" />
      <path
         d="m 164.137,673.144 c -0.162,0 -0.285,-0.08 -0.367,-0.24 -0.081,-0.16 -0.122,-0.4 -0.122,-0.721 0,-0.32 0.041,-0.56 0.122,-0.72 0.082,-0.159 0.205,-0.239 0.367,-0.239 0.163,0 0.286,0.08 0.367,0.239 0.082,0.16 0.124,0.4 0.124,0.72 0,0.321 -0.042,0.561 -0.124,0.721 -0.081,0.16 -0.204,0.24 -0.367,0.24 m 0,0.25 c 0.261,0 0.461,-0.104 0.599,-0.311 0.138,-0.206 0.207,-0.506 0.207,-0.9 0,-0.393 -0.069,-0.693 -0.207,-0.9 -0.138,-0.206 -0.338,-0.309 -0.599,-0.309 -0.262,0 -0.462,0.103 -0.6,0.309 -0.137,0.207 -0.206,0.507 -0.206,0.9 0,0.394 0.069,0.694 0.206,0.9 0.138,0.207 0.338,0.311 0.6,0.311"
         style="fill:#000000;fill-opacity:1;fill-rule:nonzero;stroke:none;stroke-width:0.1"
         id="path365"
         inkscape:connector-curvature="0" />
      <path
         d="m 183.391,672.806 c -0.279,-0.479 -0.486,-0.953 -0.622,-1.422 -0.135,-0.468 -0.203,-0.943 -0.203,-1.425 0,-0.481 0.068,-0.958 0.203,-1.431 0.138,-0.471 0.345,-0.945 0.622,-1.422 h -0.5 c -0.312,0.49 -0.547,0.971 -0.703,1.444 -0.154,0.473 -0.231,0.943 -0.231,1.409 0,0.465 0.077,0.932 0.231,1.403 0.154,0.471 0.389,0.952 0.703,1.444 h 0.5"
         style="fill:#000000;fill-opacity:1;fill-rule:nonzero;stroke:none;stroke-width:0.1"
         id="path367"
         inkscape:connector-curvature="0" />
      <path
         d="m 184.51,667.95 h 0.575 v 4.8625 h -0.575 z"
         style="fill:#000000;fill-opacity:1;fill-rule:nonzero;stroke:none;stroke-width:0.1"
         id="path369"
         inkscape:connector-curvature="0" />
      <path
         d="m 188.625,671.962 v -1.74 h 1.741 v -0.531 h -1.741 V 667.95 H 188.1 v 1.741 h -1.74 v 0.531 h 1.74 v 1.74 h 0.525"
         style="fill:#000000;fill-opacity:1;fill-rule:nonzero;stroke:none;stroke-width:0.1"
         id="path371"
         inkscape:connector-curvature="0" />
      <path
         d="m 192.272,668.481 h 2.203 v -0.531 h -2.962 v 0.531 c 0.24,0.248 0.566,0.58 0.978,0.997 0.415,0.419 0.675,0.688 0.781,0.81 0.203,0.226 0.343,0.418 0.422,0.574 0.081,0.159 0.122,0.314 0.122,0.466 0,0.248 -0.087,0.45 -0.262,0.606 -0.173,0.157 -0.399,0.235 -0.679,0.235 -0.197,0 -0.407,-0.035 -0.628,-0.103 -0.218,-0.069 -0.453,-0.173 -0.703,-0.313 v 0.638 c 0.254,0.102 0.492,0.179 0.713,0.231 0.221,0.052 0.423,0.078 0.606,0.078 0.483,0 0.869,-0.121 1.156,-0.362 0.288,-0.242 0.431,-0.565 0.431,-0.969 0,-0.192 -0.036,-0.374 -0.109,-0.547 -0.071,-0.171 -0.201,-0.373 -0.391,-0.606 -0.052,-0.061 -0.217,-0.236 -0.496,-0.525 -0.279,-0.288 -0.673,-0.691 -1.182,-1.21"
         style="fill:#000000;fill-opacity:1;fill-rule:nonzero;stroke:none;stroke-width:0.1"
         id="path373"
         inkscape:connector-curvature="0" />
      <path
         d="m 195.632,672.806 h 0.5 c 0.312,-0.492 0.546,-0.973 0.7,-1.444 0.156,-0.471 0.234,-0.938 0.234,-1.403 0,-0.466 -0.078,-0.936 -0.234,-1.409 -0.154,-0.473 -0.388,-0.954 -0.7,-1.444 h -0.5 c 0.277,0.477 0.483,0.951 0.618,1.422 0.138,0.473 0.207,0.95 0.207,1.431 0,0.482 -0.069,0.957 -0.207,1.425 -0.135,0.469 -0.341,0.943 -0.618,1.422"
         style="fill:#000000;fill-opacity:1;fill-rule:nonzero;stroke:none;stroke-width:0.1"
         id="path375"
         inkscape:connector-curvature="0" />
      <path
         d="m 198.847,668.481 h 2.203 v -0.531 h -2.962 v 0.531 c 0.24,0.248 0.566,0.58 0.978,0.997 0.415,0.419 0.675,0.688 0.781,0.81 0.203,0.226 0.343,0.418 0.422,0.574 0.081,0.159 0.122,0.314 0.122,0.466 0,0.248 -0.087,0.45 -0.262,0.606 -0.173,0.157 -0.399,0.235 -0.679,0.235 -0.197,0 -0.407,-0.035 -0.628,-0.103 -0.218,-0.069 -0.453,-0.173 -0.703,-0.313 v 0.638 c 0.254,0.102 0.492,0.179 0.713,0.231 0.221,0.052 0.423,0.078 0.606,0.078 0.483,0 0.869,-0.121 1.156,-0.362 0.288,-0.242 0.431,-0.565 0.431,-0.969 0,-0.192 -0.036,-0.374 -0.109,-0.547 -0.071,-0.171 -0.201,-0.373 -0.391,-0.606 -0.052,-0.061 -0.217,-0.236 -0.496,-0.525 -0.279,-0.288 -0.673,-0.691 -1.182,-1.21"
         style="fill:#000000;fill-opacity:1;fill-rule:nonzero;stroke:none;stroke-width:0.1"
         id="path377"
         inkscape:connector-curvature="0" />
      <path
         d="m 200.212,673.953 h 1.68438 v 0.5125 H 200.212 Z"
         style="fill:#000000;fill-opacity:1;fill-rule:nonzero;stroke:none;stroke-width:0.1"
         id="path379"
         inkscape:connector-curvature="0" />
      <path
         d="m 203.202,677.122 h 0.632 v -4.341 c 0,-0.562 -0.107,-0.971 -0.322,-1.225 -0.213,-0.254 -0.555,-0.381 -1.028,-0.381 h -0.241 v 0.531 h 0.197 c 0.279,0 0.476,0.078 0.59,0.235 0.115,0.156 0.172,0.436 0.172,0.84 v 4.341"
         style="fill:#000000;fill-opacity:1;fill-rule:nonzero;stroke:none;stroke-width:0.1"
         id="path381"
         inkscape:connector-curvature="0" />
      <path
         d="m 205.36,673.144 c -0.162,0 -0.285,-0.08 -0.367,-0.24 -0.081,-0.16 -0.122,-0.4 -0.122,-0.721 0,-0.32 0.041,-0.56 0.122,-0.72 0.082,-0.159 0.205,-0.239 0.367,-0.239 0.164,0 0.286,0.08 0.367,0.239 0.083,0.16 0.124,0.4 0.124,0.72 0,0.321 -0.041,0.561 -0.124,0.721 -0.081,0.16 -0.203,0.24 -0.367,0.24 m 0,0.25 c 0.262,0 0.461,-0.104 0.599,-0.311 0.138,-0.206 0.207,-0.506 0.207,-0.9 0,-0.393 -0.069,-0.693 -0.207,-0.9 -0.138,-0.206 -0.337,-0.309 -0.599,-0.309 -0.261,0 -0.461,0.103 -0.6,0.309 -0.137,0.207 -0.206,0.507 -0.206,0.9 0,0.394 0.069,0.694 0.206,0.9 0.139,0.207 0.339,0.311 0.6,0.311"
         style="fill:#000000;fill-opacity:1;fill-rule:nonzero;stroke:none;stroke-width:0.1"
         id="path383"
         inkscape:connector-curvature="0" />
      <path
         d="m 224.865,672.806 c -0.279,-0.479 -0.486,-0.953 -0.622,-1.422 -0.135,-0.468 -0.203,-0.943 -0.203,-1.425 0,-0.481 0.068,-0.958 0.203,-1.431 0.138,-0.471 0.345,-0.945 0.622,-1.422 h -0.5 c -0.312,0.49 -0.547,0.971 -0.703,1.444 -0.154,0.473 -0.231,0.943 -0.231,1.409 0,0.465 0.077,0.932 0.231,1.403 0.154,0.471 0.388,0.952 0.703,1.444 h 0.5"
         style="fill:#000000;fill-opacity:1;fill-rule:nonzero;stroke:none;stroke-width:0.1"
         id="path385"
         inkscape:connector-curvature="0" />
      <path
         d="m 225.984,667.95 h 0.575 v 4.8625 h -0.575 z"
         style="fill:#000000;fill-opacity:1;fill-rule:nonzero;stroke:none;stroke-width:0.1"
         id="path387"
         inkscape:connector-curvature="0" />
      <path
         d="m 230.1,671.962 v -1.74 h 1.74 v -0.531 h -1.74 v -1.741 h -0.525 v 1.741 h -1.741 v 0.531 h 1.741 v 1.74 h 0.525"
         style="fill:#000000;fill-opacity:1;fill-rule:nonzero;stroke:none;stroke-width:0.1"
         id="path389"
         inkscape:connector-curvature="0" />
      <path
         d="m 235.115,670.466 c 0.302,-0.065 0.538,-0.2 0.706,-0.404 0.171,-0.204 0.257,-0.456 0.257,-0.756 0,-0.46 -0.159,-0.817 -0.475,-1.068 -0.317,-0.253 -0.767,-0.379 -1.35,-0.379 -0.196,0 -0.398,0.02 -0.607,0.06 -0.206,0.037 -0.419,0.094 -0.64,0.172 v 0.609 c 0.175,-0.102 0.366,-0.179 0.575,-0.231 0.208,-0.053 0.426,-0.078 0.653,-0.078 0.396,0 0.697,0.078 0.903,0.234 0.208,0.156 0.313,0.383 0.313,0.681 0,0.275 -0.097,0.49 -0.291,0.644 -0.192,0.156 -0.459,0.234 -0.803,0.234 h -0.544 v 0.519 h 0.569 c 0.31,0 0.548,0.061 0.712,0.185 0.165,0.124 0.247,0.303 0.247,0.537 0,0.239 -0.085,0.423 -0.256,0.55 -0.169,0.129 -0.412,0.194 -0.728,0.194 -0.173,0 -0.359,-0.019 -0.556,-0.057 -0.198,-0.037 -0.416,-0.096 -0.654,-0.174 v 0.562 c 0.24,0.066 0.464,0.116 0.672,0.15 0.211,0.033 0.409,0.05 0.594,0.05 0.479,0 0.858,-0.109 1.138,-0.328 0.279,-0.217 0.418,-0.511 0.418,-0.881 0,-0.259 -0.074,-0.478 -0.222,-0.657 -0.148,-0.177 -0.358,-0.3 -0.631,-0.368"
         style="fill:#000000;fill-opacity:1;fill-rule:nonzero;stroke:none;stroke-width:0.1"
         id="path391"
         inkscape:connector-curvature="0" />
      <path
         d="m 237.106,672.806 h 0.5 c 0.312,-0.492 0.546,-0.973 0.7,-1.444 0.156,-0.471 0.234,-0.938 0.234,-1.403 0,-0.466 -0.078,-0.936 -0.234,-1.409 -0.154,-0.473 -0.388,-0.954 -0.7,-1.444 h -0.5 c 0.277,0.477 0.483,0.951 0.619,1.422 0.137,0.473 0.206,0.95 0.206,1.431 0,0.482 -0.069,0.957 -0.206,1.425 -0.136,0.469 -0.342,0.943 -0.619,1.422"
         style="fill:#000000;fill-opacity:1;fill-rule:nonzero;stroke:none;stroke-width:0.1"
         id="path393"
         inkscape:connector-curvature="0" />
      <path
         d="m 240.321,668.481 h 2.204 v -0.531 h -2.963 v 0.531 c 0.24,0.248 0.566,0.58 0.978,0.997 0.415,0.419 0.675,0.688 0.781,0.81 0.202,0.226 0.343,0.418 0.422,0.574 0.082,0.159 0.122,0.314 0.122,0.466 0,0.248 -0.087,0.45 -0.262,0.606 -0.173,0.157 -0.399,0.235 -0.678,0.235 -0.198,0 -0.408,-0.035 -0.629,-0.103 -0.218,-0.069 -0.453,-0.173 -0.703,-0.313 v 0.638 c 0.254,0.102 0.492,0.179 0.713,0.231 0.221,0.052 0.423,0.078 0.606,0.078 0.483,0 0.869,-0.121 1.156,-0.362 0.288,-0.242 0.432,-0.565 0.432,-0.969 0,-0.192 -0.037,-0.374 -0.11,-0.547 -0.071,-0.171 -0.201,-0.373 -0.39,-0.606 -0.053,-0.061 -0.218,-0.236 -0.497,-0.525 -0.28,-0.288 -0.673,-0.691 -1.182,-1.21"
         style="fill:#000000;fill-opacity:1;fill-rule:nonzero;stroke:none;stroke-width:0.1"
         id="path395"
         inkscape:connector-curvature="0" />
      <path
         d="m 241.686,673.953 h 1.68438 v 0.5125 H 241.686 Z"
         style="fill:#000000;fill-opacity:1;fill-rule:nonzero;stroke:none;stroke-width:0.1"
         id="path397"
         inkscape:connector-curvature="0" />
      <path
         d="m 244.677,677.122 h 0.631 v -4.341 c 0,-0.562 -0.108,-0.971 -0.322,-1.225 -0.213,-0.254 -0.556,-0.381 -1.028,-0.381 h -0.241 v 0.531 h 0.197 c 0.279,0 0.476,0.078 0.591,0.235 0.114,0.156 0.172,0.436 0.172,0.84 v 4.341"
         style="fill:#000000;fill-opacity:1;fill-rule:nonzero;stroke:none;stroke-width:0.1"
         id="path399"
         inkscape:connector-curvature="0" />
      <path
         d="m 246.834,673.144 c -0.163,0 -0.285,-0.08 -0.367,-0.24 -0.081,-0.16 -0.122,-0.4 -0.122,-0.721 0,-0.32 0.041,-0.56 0.122,-0.72 0.082,-0.159 0.204,-0.239 0.367,-0.239 0.164,0 0.286,0.08 0.367,0.239 0.083,0.16 0.124,0.4 0.124,0.72 0,0.321 -0.041,0.561 -0.124,0.721 -0.081,0.16 -0.203,0.24 -0.367,0.24 m 0,0.25 c 0.262,0 0.461,-0.104 0.598,-0.311 0.139,-0.206 0.208,-0.506 0.208,-0.9 0,-0.393 -0.069,-0.693 -0.208,-0.9 -0.137,-0.206 -0.336,-0.309 -0.598,-0.309 -0.261,0 -0.461,0.103 -0.6,0.309 -0.138,0.207 -0.206,0.507 -0.206,0.9 0,0.394 0.068,0.694 0.206,0.9 0.139,0.207 0.339,0.311 0.6,0.311"
         style="fill:#000000;fill-opacity:1;fill-rule:nonzero;stroke:none;stroke-width:0.1"
         id="path401"
         inkscape:connector-curvature="0" />
      <path
         d="m 266.214,672.806 c -0.28,-0.479 -0.487,-0.953 -0.622,-1.422 -0.136,-0.468 -0.203,-0.943 -0.203,-1.425 0,-0.481 0.067,-0.958 0.203,-1.431 0.137,-0.471 0.344,-0.945 0.622,-1.422 h -0.5 c -0.313,0.49 -0.547,0.971 -0.703,1.444 -0.155,0.473 -0.232,0.943 -0.232,1.409 0,0.465 0.077,0.932 0.232,1.403 0.153,0.471 0.388,0.952 0.703,1.444 h 0.5"
         style="fill:#000000;fill-opacity:1;fill-rule:nonzero;stroke:none;stroke-width:0.1"
         id="path403"
         inkscape:connector-curvature="0" />
      <path
         d="m 267.332,667.95 h 0.575 v 4.8625 h -0.575 z"
         style="fill:#000000;fill-opacity:1;fill-rule:nonzero;stroke:none;stroke-width:0.1"
         id="path405"
         inkscape:connector-curvature="0" />
      <path
         d="m 271.448,671.962 v -1.74 h 1.741 v -0.531 h -1.741 v -1.741 h -0.525 v 1.741 h -1.741 v 0.531 h 1.741 v 1.74 h 0.525"
         style="fill:#000000;fill-opacity:1;fill-rule:nonzero;stroke:none;stroke-width:0.1"
         id="path407"
         inkscape:connector-curvature="0" />
      <path
         d="m 276.286,672.066 -1.594,-2.491 h 1.594 v 2.491 m -0.166,0.55 h 0.794 v -3.041 h 0.665 v -0.525 h -0.665 v -1.1 h -0.628 v 1.1 h -2.107 v 0.609 l 1.941,2.957"
         style="fill:#000000;fill-opacity:1;fill-rule:nonzero;stroke:none;stroke-width:0.1"
         id="path409"
         inkscape:connector-curvature="0" />
      <path
         d="m 278.454,672.806 h 0.5 c 0.313,-0.492 0.546,-0.973 0.7,-1.444 0.157,-0.471 0.235,-0.938 0.235,-1.403 0,-0.466 -0.078,-0.936 -0.235,-1.409 -0.154,-0.473 -0.387,-0.954 -0.7,-1.444 h -0.5 c 0.277,0.477 0.484,0.951 0.619,1.422 0.138,0.473 0.206,0.95 0.206,1.431 0,0.482 -0.068,0.957 -0.206,1.425 -0.135,0.469 -0.342,0.943 -0.619,1.422"
         style="fill:#000000;fill-opacity:1;fill-rule:nonzero;stroke:none;stroke-width:0.1"
         id="path411"
         inkscape:connector-curvature="0" />
      <path
         d="m 281.67,668.481 h 2.203 v -0.531 h -2.962 v 0.531 c 0.239,0.248 0.565,0.58 0.978,0.997 0.414,0.419 0.675,0.688 0.781,0.81 0.202,0.226 0.342,0.418 0.422,0.574 0.081,0.159 0.122,0.314 0.122,0.466 0,0.248 -0.088,0.45 -0.263,0.606 -0.173,0.157 -0.399,0.235 -0.678,0.235 -0.198,0 -0.407,-0.035 -0.628,-0.103 -0.219,-0.069 -0.453,-0.173 -0.703,-0.313 v 0.638 c 0.254,0.102 0.491,0.179 0.712,0.231 0.221,0.052 0.423,0.078 0.607,0.078 0.483,0 0.868,-0.121 1.156,-0.362 0.287,-0.242 0.431,-0.565 0.431,-0.969 0,-0.192 -0.037,-0.374 -0.109,-0.547 -0.071,-0.171 -0.201,-0.373 -0.391,-0.606 -0.052,-0.061 -0.218,-0.236 -0.497,-0.525 -0.279,-0.288 -0.673,-0.691 -1.181,-1.21"
         style="fill:#000000;fill-opacity:1;fill-rule:nonzero;stroke:none;stroke-width:0.1"
         id="path413"
         inkscape:connector-curvature="0" />
      <path
         d="m 283.034,673.953 h 1.68438 v 0.5125 H 283.034 Z"
         style="fill:#000000;fill-opacity:1;fill-rule:nonzero;stroke:none;stroke-width:0.1"
         id="path415"
         inkscape:connector-curvature="0" />
      <path
         d="m 286.025,677.122 h 0.631 v -4.341 c 0,-0.562 -0.107,-0.971 -0.322,-1.225 -0.212,-0.254 -0.555,-0.381 -1.028,-0.381 h -0.24 v 0.531 h 0.196 c 0.279,0 0.476,0.078 0.591,0.235 0.115,0.156 0.172,0.436 0.172,0.84 v 4.341"
         style="fill:#000000;fill-opacity:1;fill-rule:nonzero;stroke:none;stroke-width:0.1"
         id="path417"
         inkscape:connector-curvature="0" />
      <path
         d="m 288.183,673.144 c -0.163,0 -0.285,-0.08 -0.367,-0.24 -0.082,-0.16 -0.122,-0.4 -0.122,-0.721 0,-0.32 0.04,-0.56 0.122,-0.72 0.082,-0.159 0.204,-0.239 0.367,-0.239 0.163,0 0.286,0.08 0.367,0.239 0.082,0.16 0.123,0.4 0.123,0.72 0,0.321 -0.041,0.561 -0.123,0.721 -0.081,0.16 -0.204,0.24 -0.367,0.24 m 0,0.25 c 0.261,0 0.461,-0.104 0.598,-0.311 0.139,-0.206 0.208,-0.506 0.208,-0.9 0,-0.393 -0.069,-0.693 -0.208,-0.9 -0.137,-0.206 -0.337,-0.309 -0.598,-0.309 -0.262,0 -0.462,0.103 -0.6,0.309 -0.138,0.207 -0.206,0.507 -0.206,0.9 0,0.394 0.068,0.694 0.206,0.9 0.138,0.207 0.338,0.311 0.6,0.311"
         style="fill:#000000;fill-opacity:1;fill-rule:nonzero;stroke:none;stroke-width:0.1"
         id="path419"
         inkscape:connector-curvature="0" />
      <path
         d="m 308.564,672.806 c -0.279,-0.479 -0.486,-0.953 -0.621,-1.422 -0.136,-0.468 -0.204,-0.943 -0.204,-1.425 0,-0.481 0.068,-0.958 0.204,-1.431 0.137,-0.471 0.345,-0.945 0.621,-1.422 h -0.5 c -0.312,0.49 -0.546,0.971 -0.703,1.444 -0.154,0.473 -0.231,0.943 -0.231,1.409 0,0.465 0.077,0.932 0.231,1.403 0.155,0.471 0.389,0.952 0.703,1.444 h 0.5"
         style="fill:#000000;fill-opacity:1;fill-rule:nonzero;stroke:none;stroke-width:0.1"
         id="path421"
         inkscape:connector-curvature="0" />
      <path
         d="m 309.683,667.95 h 0.575 v 4.8625 h -0.575 z"
         style="fill:#000000;fill-opacity:1;fill-rule:nonzero;stroke:none;stroke-width:0.1"
         id="path423"
         inkscape:connector-curvature="0" />
      <path
         d="m 313.799,671.962 v -1.74 h 1.74 v -0.531 h -1.74 v -1.741 h -0.525 v 1.741 h -1.741 v 0.531 h 1.741 v 1.74 h 0.525"
         style="fill:#000000;fill-opacity:1;fill-rule:nonzero;stroke:none;stroke-width:0.1"
         id="path425"
         inkscape:connector-curvature="0" />
      <path
         d="m 316.908,672.616 h 2.478 v -0.532 h -1.9 v -1.143 c 0.092,0.031 0.184,0.054 0.275,0.068 0.092,0.017 0.184,0.025 0.275,0.025 0.521,0 0.934,-0.143 1.238,-0.428 0.304,-0.285 0.456,-0.672 0.456,-1.159 0,-0.502 -0.156,-0.893 -0.469,-1.172 -0.312,-0.277 -0.753,-0.416 -1.322,-0.416 -0.195,0 -0.395,0.017 -0.6,0.05 -0.201,0.034 -0.411,0.084 -0.628,0.15 v 0.635 c 0.188,-0.103 0.382,-0.178 0.582,-0.228 0.2,-0.05 0.411,-0.075 0.634,-0.075 0.361,0 0.646,0.094 0.856,0.284 0.211,0.189 0.316,0.447 0.316,0.772 0,0.325 -0.105,0.582 -0.316,0.772 -0.21,0.189 -0.495,0.284 -0.856,0.284 -0.169,0 -0.338,-0.019 -0.506,-0.056 -0.167,-0.038 -0.338,-0.096 -0.513,-0.175 v 2.344"
         style="fill:#000000;fill-opacity:1;fill-rule:nonzero;stroke:none;stroke-width:0.1"
         id="path427"
         inkscape:connector-curvature="0" />
      <path
         d="m 320.805,672.806 h 0.5 c 0.313,-0.492 0.546,-0.973 0.7,-1.444 0.156,-0.471 0.234,-0.938 0.234,-1.403 0,-0.466 -0.078,-0.936 -0.234,-1.409 -0.154,-0.473 -0.387,-0.954 -0.7,-1.444 h -0.5 c 0.277,0.477 0.483,0.951 0.619,1.422 0.137,0.473 0.206,0.95 0.206,1.431 0,0.482 -0.069,0.957 -0.206,1.425 -0.136,0.469 -0.342,0.943 -0.619,1.422"
         style="fill:#000000;fill-opacity:1;fill-rule:nonzero;stroke:none;stroke-width:0.1"
         id="path429"
         inkscape:connector-curvature="0" />
      <path
         d="m 324.021,668.481 h 2.203 v -0.531 h -2.963 v 0.531 c 0.24,0.248 0.566,0.58 0.978,0.997 0.415,0.419 0.675,0.688 0.782,0.81 0.202,0.226 0.342,0.418 0.422,0.574 0.081,0.159 0.121,0.314 0.121,0.466 0,0.248 -0.087,0.45 -0.262,0.606 -0.173,0.157 -0.399,0.235 -0.678,0.235 -0.198,0 -0.408,-0.035 -0.628,-0.103 -0.219,-0.069 -0.453,-0.173 -0.703,-0.313 v 0.638 c 0.254,0.102 0.491,0.179 0.712,0.231 0.221,0.052 0.423,0.078 0.606,0.078 0.484,0 0.869,-0.121 1.157,-0.362 0.287,-0.242 0.431,-0.565 0.431,-0.969 0,-0.192 -0.037,-0.374 -0.11,-0.547 -0.07,-0.171 -0.201,-0.373 -0.39,-0.606 -0.052,-0.061 -0.218,-0.236 -0.497,-0.525 -0.279,-0.288 -0.673,-0.691 -1.181,-1.21"
         style="fill:#000000;fill-opacity:1;fill-rule:nonzero;stroke:none;stroke-width:0.1"
         id="path431"
         inkscape:connector-curvature="0" />
      <path
         d="m 325.385,673.953 h 1.68438 v 0.5125 H 325.385 Z"
         style="fill:#000000;fill-opacity:1;fill-rule:nonzero;stroke:none;stroke-width:0.1"
         id="path433"
         inkscape:connector-curvature="0" />
      <path
         d="m 328.376,677.122 h 0.631 v -4.341 c 0,-0.562 -0.107,-0.971 -0.322,-1.225 -0.212,-0.254 -0.555,-0.381 -1.028,-0.381 h -0.241 v 0.531 h 0.197 c 0.28,0 0.476,0.078 0.591,0.235 0.115,0.156 0.172,0.436 0.172,0.84 v 4.341"
         style="fill:#000000;fill-opacity:1;fill-rule:nonzero;stroke:none;stroke-width:0.1"
         id="path435"
         inkscape:connector-curvature="0" />
      <path
         d="m 330.534,673.144 c -0.163,0 -0.285,-0.08 -0.368,-0.24 -0.081,-0.16 -0.121,-0.4 -0.121,-0.721 0,-0.32 0.04,-0.56 0.121,-0.72 0.083,-0.159 0.205,-0.239 0.368,-0.239 0.163,0 0.286,0.08 0.367,0.239 0.082,0.16 0.123,0.4 0.123,0.72 0,0.321 -0.041,0.561 -0.123,0.721 -0.081,0.16 -0.204,0.24 -0.367,0.24 m 0,0.25 c 0.261,0 0.461,-0.104 0.598,-0.311 0.139,-0.206 0.208,-0.506 0.208,-0.9 0,-0.393 -0.069,-0.693 -0.208,-0.9 -0.137,-0.206 -0.337,-0.309 -0.598,-0.309 -0.262,0 -0.462,0.103 -0.6,0.309 -0.138,0.207 -0.207,0.507 -0.207,0.9 0,0.394 0.069,0.694 0.207,0.9 0.138,0.207 0.338,0.311 0.6,0.311"
         style="fill:#000000;fill-opacity:1;fill-rule:nonzero;stroke:none;stroke-width:0.1"
         id="path437"
         inkscape:connector-curvature="0" />
      <path
         d="m 350.414,672.806 c -0.279,-0.479 -0.486,-0.953 -0.622,-1.422 -0.135,-0.468 -0.203,-0.943 -0.203,-1.425 0,-0.481 0.068,-0.958 0.203,-1.431 0.138,-0.471 0.345,-0.945 0.622,-1.422 h -0.5 c -0.312,0.49 -0.547,0.971 -0.703,1.444 -0.154,0.473 -0.231,0.943 -0.231,1.409 0,0.465 0.077,0.932 0.231,1.403 0.154,0.471 0.389,0.952 0.703,1.444 h 0.5"
         style="fill:#000000;fill-opacity:1;fill-rule:nonzero;stroke:none;stroke-width:0.1"
         id="path439"
         inkscape:connector-curvature="0" />
      <path
         d="m 351.533,667.95 h 0.575 v 4.8625 h -0.575 z"
         style="fill:#000000;fill-opacity:1;fill-rule:nonzero;stroke:none;stroke-width:0.1"
         id="path441"
         inkscape:connector-curvature="0" />
      <path
         d="m 355.648,671.962 v -1.74 h 1.741 v -0.531 h -1.741 v -1.741 h -0.525 v 1.741 h -1.74 v 0.531 h 1.74 v 1.74 h 0.525"
         style="fill:#000000;fill-opacity:1;fill-rule:nonzero;stroke:none;stroke-width:0.1"
         id="path443"
         inkscape:connector-curvature="0" />
      <path
         d="m 360.18,670.534 c -0.284,0 -0.509,-0.096 -0.675,-0.29 -0.165,-0.194 -0.247,-0.46 -0.247,-0.797 0,-0.336 0.082,-0.601 0.247,-0.797 0.166,-0.194 0.391,-0.291 0.675,-0.291 0.283,0 0.507,0.097 0.672,0.291 0.166,0.196 0.25,0.461 0.25,0.797 0,0.337 -0.084,0.603 -0.25,0.797 -0.165,0.194 -0.389,0.29 -0.672,0.29 m 1.253,1.978 v -0.574 c -0.158,0.074 -0.319,0.132 -0.481,0.171 -0.161,0.04 -0.32,0.06 -0.479,0.06 -0.416,0 -0.735,-0.141 -0.956,-0.422 -0.219,-0.281 -0.344,-0.706 -0.375,-1.275 0.123,0.181 0.278,0.319 0.463,0.416 0.185,0.097 0.39,0.146 0.612,0.146 0.469,0 0.839,-0.143 1.11,-0.428 0.273,-0.283 0.409,-0.67 0.409,-1.159 0,-0.479 -0.141,-0.864 -0.425,-1.153 -0.283,-0.29 -0.66,-0.435 -1.131,-0.435 -0.54,0 -0.952,0.207 -1.238,0.619 -0.285,0.415 -0.428,1.015 -0.428,1.8 0,0.738 0.175,1.325 0.525,1.763 0.35,0.439 0.82,0.659 1.409,0.659 0.159,0 0.318,-0.016 0.479,-0.047 0.162,-0.031 0.331,-0.078 0.506,-0.141"
         style="fill:#000000;fill-opacity:1;fill-rule:nonzero;stroke:none;stroke-width:0.1"
         id="path445"
         inkscape:connector-curvature="0" />
      <path
         d="m 362.655,672.806 h 0.5 c 0.312,-0.492 0.546,-0.973 0.7,-1.444 0.156,-0.471 0.234,-0.938 0.234,-1.403 0,-0.466 -0.078,-0.936 -0.234,-1.409 -0.154,-0.473 -0.388,-0.954 -0.7,-1.444 h -0.5 c 0.277,0.477 0.483,0.951 0.618,1.422 0.138,0.473 0.207,0.95 0.207,1.431 0,0.482 -0.069,0.957 -0.207,1.425 -0.135,0.469 -0.341,0.943 -0.618,1.422"
         style="fill:#000000;fill-opacity:1;fill-rule:nonzero;stroke:none;stroke-width:0.1"
         id="path447"
         inkscape:connector-curvature="0" />
      <path
         d="m 365.87,668.481 h 2.203 v -0.531 h -2.962 v 0.531 c 0.24,0.248 0.566,0.58 0.978,0.997 0.415,0.419 0.675,0.688 0.781,0.81 0.203,0.226 0.343,0.418 0.422,0.574 0.081,0.159 0.122,0.314 0.122,0.466 0,0.248 -0.087,0.45 -0.262,0.606 -0.173,0.157 -0.399,0.235 -0.679,0.235 -0.197,0 -0.407,-0.035 -0.628,-0.103 -0.218,-0.069 -0.453,-0.173 -0.703,-0.313 v 0.638 c 0.254,0.102 0.492,0.179 0.713,0.231 0.221,0.052 0.423,0.078 0.606,0.078 0.484,0 0.869,-0.121 1.156,-0.362 0.288,-0.242 0.431,-0.565 0.431,-0.969 0,-0.192 -0.036,-0.374 -0.109,-0.547 -0.071,-0.171 -0.201,-0.373 -0.391,-0.606 -0.052,-0.061 -0.217,-0.236 -0.496,-0.525 -0.279,-0.288 -0.673,-0.691 -1.182,-1.21"
         style="fill:#000000;fill-opacity:1;fill-rule:nonzero;stroke:none;stroke-width:0.1"
         id="path449"
         inkscape:connector-curvature="0" />
      <path
         d="m 367.235,673.953 h 1.68438 v 0.5125 H 367.235 Z"
         style="fill:#000000;fill-opacity:1;fill-rule:nonzero;stroke:none;stroke-width:0.1"
         id="path451"
         inkscape:connector-curvature="0" />
      <path
         d="m 370.226,677.122 h 0.631 v -4.341 c 0,-0.562 -0.107,-0.971 -0.322,-1.225 -0.212,-0.254 -0.555,-0.381 -1.028,-0.381 h -0.241 v 0.531 h 0.197 c 0.279,0 0.476,0.078 0.591,0.235 0.114,0.156 0.172,0.436 0.172,0.84 v 4.341"
         style="fill:#000000;fill-opacity:1;fill-rule:nonzero;stroke:none;stroke-width:0.1"
         id="path453"
         inkscape:connector-curvature="0" />
      <path
         d="m 372.383,673.144 c -0.162,0 -0.285,-0.08 -0.367,-0.24 -0.081,-0.16 -0.122,-0.4 -0.122,-0.721 0,-0.32 0.041,-0.56 0.122,-0.72 0.082,-0.159 0.205,-0.239 0.367,-0.239 0.164,0 0.286,0.08 0.367,0.239 0.083,0.16 0.124,0.4 0.124,0.72 0,0.321 -0.041,0.561 -0.124,0.721 -0.081,0.16 -0.203,0.24 -0.367,0.24 m 0,0.25 c 0.262,0 0.461,-0.104 0.599,-0.311 0.138,-0.206 0.207,-0.506 0.207,-0.9 0,-0.393 -0.069,-0.693 -0.207,-0.9 -0.138,-0.206 -0.337,-0.309 -0.599,-0.309 -0.261,0 -0.461,0.103 -0.6,0.309 -0.137,0.207 -0.206,0.507 -0.206,0.9 0,0.394 0.069,0.694 0.206,0.9 0.139,0.207 0.339,0.311 0.6,0.311"
         style="fill:#000000;fill-opacity:1;fill-rule:nonzero;stroke:none;stroke-width:0.1"
         id="path455"
         inkscape:connector-curvature="0" />
    </g>
  </g>
</svg>
