<?xml version="1.0" encoding="UTF-8" standalone="no"?>
<!-- Created with Inkscape (http://www.inkscape.org/) -->

<svg
   xmlns:dc="http://purl.org/dc/elements/1.1/"
   xmlns:cc="http://creativecommons.org/ns#"
   xmlns:rdf="http://www.w3.org/1999/02/22-rdf-syntax-ns#"
   xmlns:svg="http://www.w3.org/2000/svg"
   xmlns="http://www.w3.org/2000/svg"
   xmlns:sodipodi="http://sodipodi.sourceforge.net/DTD/sodipodi-0.dtd"
   xmlns:inkscape="http://www.inkscape.org/namespaces/inkscape"
   width="150.32903mm"
   height="99.279076mm"
   viewBox="0 0 150.32903 99.279076"
   version="1.1"
   id="svg2794"
   inkscape:version="0.92.5 (2060ec1f9f, 2020-04-08)"
   sodipodi:docname="fun_f0_2.svg">
  <defs
     id="defs2788" />
  <sodipodi:namedview
     id="base"
     pagecolor="#ffffff"
     bordercolor="#666666"
     borderopacity="1.0"
     inkscape:pageopacity="0.0"
     inkscape:pageshadow="2"
     inkscape:zoom="1.0778409"
     inkscape:cx="365.71429"
     inkscape:cy="174.28571"
     inkscape:document-units="mm"
     inkscape:current-layer="layer1"
     showgrid="false"
     fit-margin-top="0"
     fit-margin-left="0"
     fit-margin-right="0"
     fit-margin-bottom="0"
     inkscape:window-width="1364"
     inkscape:window-height="726"
     inkscape:window-x="1024"
     inkscape:window-y="20"
     inkscape:window-maximized="1" />
  <metadata
     id="metadata2791">
    <rdf:RDF>
      <cc:Work
         rdf:about="">
        <dc:format>image/svg+xml</dc:format>
        <dc:type
           rdf:resource="http://purl.org/dc/dcmitype/StillImage" />
        <dc:title></dc:title>
      </cc:Work>
    </rdf:RDF>
  </metadata>
  <g
     inkscape:label="Layer 1"
     inkscape:groupmode="layer"
     id="layer1"
     transform="translate(-34.448585,-41.741416)">
    <g
       transform="matrix(0.35277777,0,0,-0.35277777,34.22052,240.85307)"
       id="g2441">
      <path
         d="M 41.0609,282.99 V 558.068"
         style="fill:none;stroke:#000000;stroke-width:0.80000001;stroke-linecap:butt;stroke-linejoin:miter;stroke-miterlimit:10;stroke-dasharray:none;stroke-opacity:1"
         id="path211"
         inkscape:connector-curvature="0" />
      <path
         d="m 37.5113,554.796 3.5356,9.615 3.5355,-9.615 c -2.0875,1.536 -4.9433,1.527 -7.0711,0"
         style="fill:#000000;fill-opacity:1;fill-rule:evenodd;stroke:none;stroke-width:0.1"
         id="path213"
         inkscape:connector-curvature="0" />
      <path
         d="M 0.646484,393.804 H 420.434"
         style="fill:none;stroke:#000000;stroke-width:0.80000001;stroke-linecap:butt;stroke-linejoin:miter;stroke-miterlimit:10;stroke-dasharray:none;stroke-opacity:1"
         id="path457"
         inkscape:connector-curvature="0" />
      <path
         d="m 417.161,397.354 9.615,-3.536 -9.615,-3.536 c 1.536,2.088 1.527,4.944 0,7.072"
         style="fill:#000000;fill-opacity:1;fill-rule:evenodd;stroke:none;stroke-width:0.1"
         id="path459"
         inkscape:connector-curvature="0" />
      <path
         d="M 82.7789,400.33 V 387.278"
         style="fill:none;stroke:#000000;stroke-width:0.67652601;stroke-linecap:butt;stroke-linejoin:miter;stroke-miterlimit:10;stroke-dasharray:none;stroke-opacity:1"
         id="path461"
         inkscape:connector-curvature="0" />
      <path
         d="M 124.497,400.33 V 387.278"
         style="fill:none;stroke:#000000;stroke-width:0.67652601;stroke-linecap:butt;stroke-linejoin:miter;stroke-miterlimit:10;stroke-dasharray:none;stroke-opacity:1"
         id="path463"
         inkscape:connector-curvature="0" />
      <path
         d="M 333.087,400.33 V 387.278"
         style="fill:none;stroke:#000000;stroke-width:0.67652601;stroke-linecap:butt;stroke-linejoin:miter;stroke-miterlimit:10;stroke-dasharray:none;stroke-opacity:1"
         id="path465"
         inkscape:connector-curvature="0" />
      <path
         d="M 166.215,400.33 V 387.278"
         style="fill:none;stroke:#000000;stroke-width:0.67652601;stroke-linecap:butt;stroke-linejoin:miter;stroke-miterlimit:10;stroke-dasharray:none;stroke-opacity:1"
         id="path467"
         inkscape:connector-curvature="0" />
      <path
         d="M 207.933,400.33 V 387.278"
         style="fill:none;stroke:#000000;stroke-width:0.67652601;stroke-linecap:butt;stroke-linejoin:miter;stroke-miterlimit:10;stroke-dasharray:none;stroke-opacity:1"
         id="path469"
         inkscape:connector-curvature="0" />
      <path
         d="M 374.805,400.33 V 387.278"
         style="fill:none;stroke:#000000;stroke-width:0.67652601;stroke-linecap:butt;stroke-linejoin:miter;stroke-miterlimit:10;stroke-dasharray:none;stroke-opacity:1"
         id="path471"
         inkscape:connector-curvature="0" />
      <path
         d="M 291.369,400.33 V 387.278"
         style="fill:none;stroke:#000000;stroke-width:0.67652601;stroke-linecap:butt;stroke-linejoin:miter;stroke-miterlimit:10;stroke-dasharray:none;stroke-opacity:1"
         id="path473"
         inkscape:connector-curvature="0" />
      <path
         d="M 249.651,400.33 V 387.278"
         style="fill:none;stroke:#000000;stroke-width:0.67652601;stroke-linecap:butt;stroke-linejoin:miter;stroke-miterlimit:10;stroke-dasharray:none;stroke-opacity:1"
         id="path475"
         inkscape:connector-curvature="0" />
      <path
         d="M 47.5871,518.958 H 34.5348"
         style="fill:none;stroke:#000000;stroke-width:0.67652601;stroke-linecap:butt;stroke-linejoin:miter;stroke-miterlimit:10;stroke-dasharray:none;stroke-opacity:1"
         id="path477"
         inkscape:connector-curvature="0" />
      <path
         d="M 47.5871,477.24 H 34.5348"
         style="fill:none;stroke:#000000;stroke-width:0.67652601;stroke-linecap:butt;stroke-linejoin:miter;stroke-miterlimit:10;stroke-dasharray:none;stroke-opacity:1"
         id="path479"
         inkscape:connector-curvature="0" />
      <path
         d="M 47.5871,435.522 H 34.5348"
         style="fill:none;stroke:#000000;stroke-width:0.67652601;stroke-linecap:butt;stroke-linejoin:miter;stroke-miterlimit:10;stroke-dasharray:none;stroke-opacity:1"
         id="path481"
         inkscape:connector-curvature="0" />
      <path
         d="M 47.5871,352.086 H 34.5348"
         style="fill:none;stroke:#000000;stroke-width:0.67652601;stroke-linecap:butt;stroke-linejoin:miter;stroke-miterlimit:10;stroke-dasharray:none;stroke-opacity:1"
         id="path483"
         inkscape:connector-curvature="0" />
      <path
         d="M 47.5871,310.368 H 34.5348"
         style="fill:none;stroke:#000000;stroke-width:0.67652601;stroke-linecap:butt;stroke-linejoin:miter;stroke-miterlimit:10;stroke-dasharray:none;stroke-opacity:1"
         id="path485"
         inkscape:connector-curvature="0" />
      <path
         d="M 82.6918,284.88 V 559.959"
         style="fill:none;stroke:#727272;stroke-width:0.80000001;stroke-linecap:butt;stroke-linejoin:miter;stroke-miterlimit:10;stroke-dasharray:0.8, 1.6;stroke-dashoffset:0;stroke-opacity:1"
         id="path487"
         inkscape:connector-curvature="0" />
      <path
         d="M 124.527,284.88 V 559.959"
         style="fill:none;stroke:#727272;stroke-width:0.80000001;stroke-linecap:butt;stroke-linejoin:miter;stroke-miterlimit:10;stroke-dasharray:0.8, 1.6;stroke-dashoffset:0;stroke-opacity:1"
         id="path489"
         inkscape:connector-curvature="0" />
      <path
         d="M 166.129,284.88 V 559.959"
         style="fill:none;stroke:#727272;stroke-width:0.80000001;stroke-linecap:butt;stroke-linejoin:miter;stroke-miterlimit:10;stroke-dasharray:0.8, 1.6;stroke-dashoffset:0;stroke-opacity:1"
         id="path491"
         inkscape:connector-curvature="0" />
      <path
         d="M 207.813,284.88 V 559.959"
         style="fill:none;stroke:#727272;stroke-width:0.80000001;stroke-linecap:butt;stroke-linejoin:miter;stroke-miterlimit:10;stroke-dasharray:0.8, 1.6;stroke-dashoffset:0;stroke-opacity:1"
         id="path493"
         inkscape:connector-curvature="0" />
      <path
         d="M 249.581,284.88 V 559.959"
         style="fill:none;stroke:#727272;stroke-width:0.80000001;stroke-linecap:butt;stroke-linejoin:miter;stroke-miterlimit:10;stroke-dasharray:0.8, 1.6;stroke-dashoffset:0;stroke-opacity:1"
         id="path495"
         inkscape:connector-curvature="0" />
      <path
         d="M 291.266,284.88 V 559.959"
         style="fill:none;stroke:#727272;stroke-width:0.80000001;stroke-linecap:butt;stroke-linejoin:miter;stroke-miterlimit:10;stroke-dasharray:0.8, 1.6;stroke-dashoffset:0;stroke-opacity:1"
         id="path497"
         inkscape:connector-curvature="0" />
      <path
         d="M 333.034,284.88 V 559.959"
         style="fill:none;stroke:#727272;stroke-width:0.80000001;stroke-linecap:butt;stroke-linejoin:miter;stroke-miterlimit:10;stroke-dasharray:0.8, 1.6;stroke-dashoffset:0;stroke-opacity:1"
         id="path499"
         inkscape:connector-curvature="0" />
      <path
         d="M 374.719,284.88 V 559.959"
         style="fill:none;stroke:#727272;stroke-width:0.80000001;stroke-linecap:butt;stroke-linejoin:miter;stroke-miterlimit:10;stroke-dasharray:0.8, 1.6;stroke-dashoffset:0;stroke-opacity:1"
         id="path501"
         inkscape:connector-curvature="0" />
      <path
         d="M 42.9629,518.921 H 374.072"
         style="fill:none;stroke:#727272;stroke-width:0.80000001;stroke-linecap:butt;stroke-linejoin:miter;stroke-miterlimit:10;stroke-dasharray:0.8, 1.6;stroke-dashoffset:0;stroke-opacity:1"
         id="path503"
         inkscape:connector-curvature="0" />
      <path
         d="M 42.0727,477.343 H 373.182"
         style="fill:none;stroke:#727272;stroke-width:0.80000001;stroke-linecap:butt;stroke-linejoin:miter;stroke-miterlimit:10;stroke-dasharray:0.8, 1.6;stroke-dashoffset:0;stroke-opacity:1"
         id="path505"
         inkscape:connector-curvature="0" />
      <path
         d="M 40.7625,435.659 H 371.872"
         style="fill:none;stroke:#727272;stroke-width:0.80000001;stroke-linecap:butt;stroke-linejoin:miter;stroke-miterlimit:10;stroke-dasharray:0.8, 1.6;stroke-dashoffset:0;stroke-opacity:1"
         id="path507"
         inkscape:connector-curvature="0" />
      <path
         d="M 41.9195,352.146 H 373.029"
         style="fill:none;stroke:#727272;stroke-width:0.80000001;stroke-linecap:butt;stroke-linejoin:miter;stroke-miterlimit:10;stroke-dasharray:0.8, 1.6;stroke-dashoffset:0;stroke-opacity:1"
         id="path509"
         inkscape:connector-curvature="0" />
      <path
         d="M 42.382,310.505 H 373.491"
         style="fill:none;stroke:#727272;stroke-width:0.80000001;stroke-linecap:butt;stroke-linejoin:miter;stroke-miterlimit:10;stroke-dasharray:0.8, 1.6;stroke-dashoffset:0;stroke-opacity:1"
         id="path511"
         inkscape:connector-curvature="0" />
      <path
         d="M 41.2328,414.755 H 124.86"
         style="fill:none;stroke:#000000;stroke-width:1.60000002;stroke-linecap:butt;stroke-linejoin:miter;stroke-miterlimit:10;stroke-dasharray:none;stroke-opacity:1"
         id="path513"
         inkscape:connector-curvature="0" />
      <path
         d="m 123.982,456.61 h 84.172"
         style="fill:none;stroke:#000000;stroke-width:1.60000002;stroke-linecap:butt;stroke-linejoin:miter;stroke-miterlimit:10;stroke-dasharray:none;stroke-opacity:1"
         id="path515"
         inkscape:connector-curvature="0" />
      <path
         d="m 207.412,394.252 h 83.034"
         style="fill:none;stroke:#000000;stroke-width:1.60000002;stroke-linecap:butt;stroke-linejoin:miter;stroke-miterlimit:10;stroke-dasharray:none;stroke-opacity:1"
         id="path517"
         inkscape:connector-curvature="0" />
      <path
         d="m 290.993,435.555 h 83.305"
         style="fill:none;stroke:#000000;stroke-width:1.60000002;stroke-linecap:butt;stroke-linejoin:miter;stroke-miterlimit:10;stroke-dasharray:none;stroke-opacity:1"
         id="path519"
         inkscape:connector-curvature="0" />
      <path
         d="M 124.389,457.091 V 414.137"
         style="fill:none;stroke:#000000;stroke-width:1.60000002;stroke-linecap:butt;stroke-linejoin:miter;stroke-miterlimit:10;stroke-dasharray:none;stroke-opacity:1"
         id="path521"
         inkscape:connector-curvature="0" />
      <path
         d="M 207.814,456.754 V 393.658"
         style="fill:none;stroke:#000000;stroke-width:1.60000002;stroke-linecap:butt;stroke-linejoin:miter;stroke-miterlimit:10;stroke-dasharray:none;stroke-opacity:1"
         id="path523"
         inkscape:connector-curvature="0" />
      <path
         d="m 291.011,393.286 v 43.479"
         style="fill:none;stroke:#000000;stroke-width:1.60000002;stroke-linecap:butt;stroke-linejoin:miter;stroke-miterlimit:10;stroke-dasharray:none;stroke-opacity:1"
         id="path525"
         inkscape:connector-curvature="0" />
      <path
         d="m 80.7777,427.923 v -0.718 h -0.825 c -0.3093,0 -0.525,-0.062 -0.6468,-0.187 -0.1188,-0.125 -0.1782,-0.35 -0.1782,-0.675 v -0.464 h 1.4203 v -0.67 h -1.4203 v -4.58 h -0.8672 v 4.58 h -0.825 v 0.67 h 0.825 v 0.366 c 0,0.584 0.136,1.009 0.4079,1.275 0.2718,0.268 0.7031,0.403 1.2937,0.403 h 0.8156"
         style="fill:#000000;fill-opacity:1;fill-rule:nonzero;stroke:none;stroke-width:0.1"
         id="path527"
         inkscape:connector-curvature="0" />
      <path
         d="m 82.3012,425.586 h 0.7734 v 2.67 l -0.8414,-0.169 v 0.431 l 0.8367,0.169 h 0.4735 v -3.101 h 0.7734 v -0.398 h -2.0156 v 0.398"
         style="fill:#000000;fill-opacity:1;fill-rule:nonzero;stroke:none;stroke-width:0.1"
         id="path529"
         inkscape:connector-curvature="0" />
      <path
         d="m 81.157,422.009 h 0.4336 v -2.154 l 1.2867,1.132 h 0.5508 l -1.3922,-1.228 1.4508,-1.397 h -0.5625 l -1.3336,1.282 v -1.282 H 81.157 v 3.647"
         style="fill:#000000;fill-opacity:1;fill-rule:nonzero;stroke:none;stroke-width:0.1"
         id="path531"
         inkscape:connector-curvature="0" />
      <path
         d="m 83.7398,419.484 h 1.26328 v 0.38437 H 83.7398 Z"
         style="fill:#000000;fill-opacity:1;fill-rule:nonzero;stroke:none;stroke-width:0.1"
         id="path533"
         inkscape:connector-curvature="0" />
      <path
         d="m 85.8352,418.76 h 0.7734 v 2.67 l -0.8414,-0.169 v 0.431 l 0.8367,0.169 h 0.4734 v -3.101 h 0.7735 v -0.398 h -2.0156 v 0.398"
         style="fill:#000000;fill-opacity:1;fill-rule:nonzero;stroke:none;stroke-width:0.1"
         id="path535"
         inkscape:connector-curvature="0" />
      <path
         d="m 165.732,470.508 v -0.717 h -0.825 c -0.309,0 -0.525,-0.062 -0.647,-0.187 -0.119,-0.125 -0.178,-0.35 -0.178,-0.675 v -0.465 h 1.42 v -0.67 h -1.42 v -4.58 h -0.867 v 4.58 h -0.825 v 0.67 h 0.825 v 0.366 c 0,0.584 0.136,1.009 0.408,1.275 0.272,0.269 0.703,0.403 1.293,0.403 h 0.816"
         style="fill:#000000;fill-opacity:1;fill-rule:nonzero;stroke:none;stroke-width:0.1"
         id="path537"
         inkscape:connector-curvature="0" />
      <path
         d="m 167.255,468.172 h 0.774 v 2.669 l -0.841,-0.168 v 0.431 l 0.836,0.169 h 0.474 v -3.101 h 0.773 v -0.399 h -2.016 v 0.399"
         style="fill:#000000;fill-opacity:1;fill-rule:nonzero;stroke:none;stroke-width:0.1"
         id="path539"
         inkscape:connector-curvature="0" />
      <path
         d="m 166.111,464.594 h 0.434 v -2.154 l 1.287,1.132 h 0.55 l -1.392,-1.228 1.451,-1.397 h -0.562 l -1.334,1.282 v -1.282 h -0.434 v 3.647"
         style="fill:#000000;fill-opacity:1;fill-rule:nonzero;stroke:none;stroke-width:0.1"
         id="path541"
         inkscape:connector-curvature="0" />
      <path
         d="m 246.061,382.828 v -0.717 h -0.825 c -0.309,0 -0.525,-0.063 -0.647,-0.188 -0.119,-0.125 -0.178,-0.35 -0.178,-0.675 v -0.464 h 1.42 v -0.67 h -1.42 v -4.58 h -0.867 v 4.58 h -0.825 v 0.67 h 0.825 v 0.366 c 0,0.584 0.136,1.009 0.408,1.275 0.271,0.268 0.703,0.403 1.293,0.403 h 0.816"
         style="fill:#000000;fill-opacity:1;fill-rule:nonzero;stroke:none;stroke-width:0.1"
         id="path543"
         inkscape:connector-curvature="0" />
      <path
         d="m 247.585,380.491 h 0.773 v 2.67 l -0.841,-0.169 v 0.431 l 0.837,0.169 h 0.473 v -3.101 h 0.773 v -0.398 h -2.015 v 0.398"
         style="fill:#000000;fill-opacity:1;fill-rule:nonzero;stroke:none;stroke-width:0.1"
         id="path545"
         inkscape:connector-curvature="0" />
      <path
         d="m 246.441,376.914 h 0.433 v -2.154 l 1.287,1.132 h 0.551 l -1.392,-1.228 1.45,-1.397 h -0.562 l -1.334,1.282 v -1.282 h -0.433 v 3.647"
         style="fill:#000000;fill-opacity:1;fill-rule:nonzero;stroke:none;stroke-width:0.1"
         id="path547"
         inkscape:connector-curvature="0" />
      <path
         d="m 250.997,376.276 v -1.305 h 1.305 v -0.399 h -1.305 v -1.305 h -0.394 v 1.305 h -1.305 v 0.399 h 1.305 v 1.305 h 0.394"
         style="fill:#000000;fill-opacity:1;fill-rule:nonzero;stroke:none;stroke-width:0.1"
         id="path549"
         inkscape:connector-curvature="0" />
      <path
         d="m 253.406,373.665 h 0.774 v 2.67 l -0.842,-0.169 v 0.431 l 0.837,0.169 h 0.473 v -3.101 h 0.774 v -0.398 h -2.016 v 0.398"
         style="fill:#000000;fill-opacity:1;fill-rule:nonzero;stroke:none;stroke-width:0.1"
         id="path551"
         inkscape:connector-curvature="0" />
      <path
         d="m 329.429,450.007 v -0.718 h -0.825 c -0.309,0 -0.525,-0.062 -0.647,-0.187 -0.119,-0.125 -0.178,-0.35 -0.178,-0.675 v -0.464 h 1.42 v -0.67 h -1.42 v -4.58 h -0.867 v 4.58 h -0.825 v 0.67 h 0.825 v 0.366 c 0,0.584 0.136,1.009 0.408,1.275 0.271,0.268 0.703,0.403 1.293,0.403 h 0.816"
         style="fill:#000000;fill-opacity:1;fill-rule:nonzero;stroke:none;stroke-width:0.1"
         id="path553"
         inkscape:connector-curvature="0" />
      <path
         d="m 330.953,447.67 h 0.773 v 2.67 l -0.841,-0.169 v 0.431 l 0.836,0.169 h 0.474 v -3.101 h 0.773 v -0.398 h -2.015 v 0.398"
         style="fill:#000000;fill-opacity:1;fill-rule:nonzero;stroke:none;stroke-width:0.1"
         id="path555"
         inkscape:connector-curvature="0" />
      <path
         d="m 329.809,444.093 h 0.433 v -2.154 l 1.287,1.132 h 0.551 l -1.392,-1.228 1.45,-1.397 h -0.562 l -1.334,1.282 v -1.282 h -0.433 v 3.647"
         style="fill:#000000;fill-opacity:1;fill-rule:nonzero;stroke:none;stroke-width:0.1"
         id="path557"
         inkscape:connector-curvature="0" />
      <path
         d="m 334.365,443.455 v -1.305 h 1.305 v -0.399 h -1.305 v -1.305 h -0.394 v 1.305 h -1.305 v 0.399 h 1.305 v 1.305 h 0.394"
         style="fill:#000000;fill-opacity:1;fill-rule:nonzero;stroke:none;stroke-width:0.1"
         id="path559"
         inkscape:connector-curvature="0" />
      <path
         d="m 337.1,440.844 h 1.652 v -0.398 h -2.222 v 0.398 c 0.18,0.186 0.425,0.435 0.734,0.748 0.311,0.314 0.506,0.516 0.586,0.607 0.152,0.17 0.257,0.314 0.316,0.431 0.061,0.119 0.092,0.235 0.092,0.349 0,0.186 -0.066,0.338 -0.197,0.455 -0.13,0.117 -0.299,0.176 -0.509,0.176 -0.148,0 -0.305,-0.026 -0.471,-0.078 -0.164,-0.051 -0.34,-0.129 -0.527,-0.234 v 0.478 c 0.191,0.077 0.369,0.135 0.534,0.174 0.166,0.039 0.317,0.058 0.455,0.058 0.362,0 0.652,-0.09 0.867,-0.272 0.216,-0.181 0.324,-0.423 0.324,-0.726 0,-0.144 -0.028,-0.281 -0.082,-0.41 -0.054,-0.129 -0.151,-0.28 -0.293,-0.455 -0.039,-0.045 -0.164,-0.177 -0.373,-0.394 -0.209,-0.215 -0.505,-0.518 -0.886,-0.907"
         style="fill:#000000;fill-opacity:1;fill-rule:nonzero;stroke:none;stroke-width:0.1"
         id="path561"
         inkscape:connector-curvature="0" />
      <path
         d="m 20.5812,551.977 v -1.649 h -1.896 c -0.7114,0 -1.2067,-0.144 -1.4868,-0.431 -0.273,-0.287 -0.4093,-0.804 -0.4093,-1.551 v -1.067 h 3.2644 v -1.54 h -3.2644 v -10.527 h -1.9934 v 10.527 h -1.8961 v 1.54 h 1.8961 v 0.841 c 0,1.343 0.3125,2.319 0.9375,2.93 0.6246,0.618 1.616,0.927 2.9734,0.927 h 1.8746"
         style="fill:#000000;fill-opacity:1;fill-rule:nonzero;stroke:none;stroke-width:0.1"
         id="path563"
         inkscape:connector-curvature="0" />
      <path
         d="m 23.4305,546.794 h 2.1414 v 7.39 l -2.3297,-0.467 v 1.194 l 2.3168,0.468 h 1.3105 v -8.585 h 2.1414 v -1.103 h -5.5804 v 1.103"
         style="fill:#000000;fill-opacity:1;fill-rule:nonzero;stroke:none;stroke-width:0.1"
         id="path565"
         inkscape:connector-curvature="0" />
      <path
         d="m 14.4801,372.03 c -0.2789,-0.48 -0.4863,-0.953 -0.6219,-1.422 -0.1352,-0.469 -0.2031,-0.944 -0.2031,-1.425 0,-0.481 0.0679,-0.959 0.2031,-1.431 0.1375,-0.472 0.3449,-0.945 0.6219,-1.422 h -0.5 c -0.3125,0.489 -0.5469,0.97 -0.7031,1.443 -0.154,0.473 -0.2313,0.943 -0.2313,1.41 0,0.464 0.0773,0.932 0.2313,1.403 0.1542,0.471 0.3886,0.952 0.7031,1.444 h 0.5"
         style="fill:#000000;fill-opacity:1;fill-rule:nonzero;stroke:none;stroke-width:0.1"
         id="path567"
         inkscape:connector-curvature="0" />
      <path
         d="m 15.5988,367.173 h 0.575 v 4.8625 h -0.575 z"
         style="fill:#000000;fill-opacity:1;fill-rule:nonzero;stroke:none;stroke-width:0.1"
         id="path569"
         inkscape:connector-curvature="0" />
      <path
         d="m 17.0832,368.67 h 1.68438 v 0.5125 H 17.0832 Z"
         style="fill:#000000;fill-opacity:1;fill-rule:nonzero;stroke:none;stroke-width:0.1"
         id="path571"
         inkscape:connector-curvature="0" />
      <path
         d="m 20.3113,367.705 h 2.2032 v -0.532 H 19.552 v 0.532 c 0.2398,0.247 0.5656,0.58 0.9781,0.997 0.4148,0.418 0.675,0.688 0.7812,0.809 0.2024,0.227 0.343,0.419 0.4219,0.575 0.0813,0.158 0.1219,0.313 0.1219,0.466 0,0.247 -0.0875,0.45 -0.2625,0.606 -0.1727,0.156 -0.3988,0.234 -0.6781,0.234 -0.1977,0 -0.4071,-0.035 -0.6282,-0.103 -0.2187,-0.069 -0.4531,-0.173 -0.7031,-0.312 v 0.637 c 0.2543,0.102 0.4918,0.179 0.7125,0.231 0.2211,0.052 0.4231,0.078 0.6063,0.078 0.4835,0 0.8687,-0.121 1.1562,-0.362 0.2875,-0.242 0.4313,-0.565 0.4313,-0.969 0,-0.192 -0.0364,-0.374 -0.1094,-0.547 -0.0707,-0.171 -0.2008,-0.373 -0.3906,-0.606 -0.052,-0.06 -0.2176,-0.235 -0.4969,-0.525 -0.2789,-0.287 -0.6727,-0.691 -1.1813,-1.209"
         style="fill:#000000;fill-opacity:1;fill-rule:nonzero;stroke:none;stroke-width:0.1"
         id="path573"
         inkscape:connector-curvature="0" />
      <path
         d="m 23.6707,372.03 h 0.5 c 0.3125,-0.492 0.5461,-0.973 0.7,-1.444 0.1563,-0.471 0.2344,-0.939 0.2344,-1.403 0,-0.467 -0.0781,-0.937 -0.2344,-1.41 -0.1539,-0.473 -0.3875,-0.954 -0.7,-1.443 h -0.5 c 0.2773,0.477 0.4836,0.95 0.6188,1.422 0.1375,0.472 0.2062,0.95 0.2062,1.431 0,0.481 -0.0687,0.956 -0.2062,1.425 -0.1352,0.469 -0.3415,0.942 -0.6188,1.422"
         style="fill:#000000;fill-opacity:1;fill-rule:nonzero;stroke:none;stroke-width:0.1"
         id="path575"
         inkscape:connector-curvature="0" />
      <path
         d="m 26.8863,367.705 h 2.2032 v -0.532 H 26.127 v 0.532 c 0.2398,0.247 0.5656,0.58 0.9781,0.997 0.4148,0.418 0.675,0.688 0.7812,0.809 0.2024,0.227 0.343,0.419 0.4219,0.575 0.0813,0.158 0.1219,0.313 0.1219,0.466 0,0.247 -0.0875,0.45 -0.2625,0.606 -0.1727,0.156 -0.3988,0.234 -0.6781,0.234 -0.1977,0 -0.4071,-0.035 -0.6282,-0.103 -0.2187,-0.069 -0.4531,-0.173 -0.7031,-0.312 v 0.637 c 0.2543,0.102 0.4918,0.179 0.7125,0.231 0.2211,0.052 0.4231,0.078 0.6063,0.078 0.4835,0 0.8687,-0.121 1.1562,-0.362 0.2875,-0.242 0.4313,-0.565 0.4313,-0.969 0,-0.192 -0.0364,-0.374 -0.1094,-0.547 -0.0707,-0.171 -0.2008,-0.373 -0.3906,-0.606 -0.052,-0.06 -0.2176,-0.235 -0.4969,-0.525 -0.2789,-0.287 -0.6727,-0.691 -1.1813,-1.209"
         style="fill:#000000;fill-opacity:1;fill-rule:nonzero;stroke:none;stroke-width:0.1"
         id="path577"
         inkscape:connector-curvature="0" />
      <path
         d="m 30.048,373.176 h 1.68438 v 0.5125 H 30.048 Z"
         style="fill:#000000;fill-opacity:1;fill-rule:nonzero;stroke:none;stroke-width:0.1"
         id="path579"
         inkscape:connector-curvature="0" />
      <path
         d="m 33.0387,376.345 h 0.6312 v -4.341 c 0,-0.562 -0.1074,-0.97 -0.3219,-1.225 -0.2125,-0.254 -0.5554,-0.381 -1.0281,-0.381 h -0.2406 v 0.531 h 0.1969 c 0.2789,0 0.4758,0.078 0.5906,0.235 0.1144,0.156 0.1719,0.436 0.1719,0.84 v 4.341"
         style="fill:#000000;fill-opacity:1;fill-rule:nonzero;stroke:none;stroke-width:0.1"
         id="path581"
         inkscape:connector-curvature="0" />
      <path
         d="m 35.1965,372.368 c -0.1625,0 -0.2852,-0.081 -0.3672,-0.241 -0.0813,-0.159 -0.1219,-0.4 -0.1219,-0.72 0,-0.32 0.0406,-0.561 0.1219,-0.721 0.082,-0.159 0.2047,-0.239 0.3672,-0.239 0.1633,0 0.2859,0.08 0.3672,0.239 0.082,0.16 0.1234,0.401 0.1234,0.721 0,0.32 -0.0414,0.561 -0.1234,0.72 -0.0813,0.16 -0.2039,0.241 -0.3672,0.241 m 0,0.25 c 0.2613,0 0.4609,-0.104 0.5984,-0.311 0.1383,-0.207 0.2078,-0.507 0.2078,-0.9 0,-0.393 -0.0695,-0.693 -0.2078,-0.9 -0.1375,-0.207 -0.3371,-0.31 -0.5984,-0.31 -0.2617,0 -0.4617,0.103 -0.6,0.31 -0.1375,0.207 -0.2063,0.507 -0.2063,0.9 0,0.393 0.0688,0.693 0.2063,0.9 0.1383,0.207 0.3383,0.311 0.6,0.311"
         style="fill:#000000;fill-opacity:1;fill-rule:nonzero;stroke:none;stroke-width:0.1"
         id="path583"
         inkscape:connector-curvature="0" />
      <path
         d="m 9.8918,387.96 c -0.27891,-0.48 -0.48633,-0.953 -0.62188,-1.422 -0.13515,-0.469 -0.20312,-0.944 -0.20312,-1.425 0,-0.481 0.06797,-0.958 0.20312,-1.431 0.1375,-0.471 0.34492,-0.945 0.62188,-1.422 h -0.5 c -0.3125,0.489 -0.54688,0.97 -0.70313,1.444 -0.1539,0.473 -0.23125,0.942 -0.23125,1.409 0,0.464 0.07735,0.932 0.23125,1.403 0.1543,0.471 0.38867,0.952 0.70313,1.444 h 0.5"
         style="fill:#000000;fill-opacity:1;fill-rule:nonzero;stroke:none;stroke-width:0.1"
         id="path585"
         inkscape:connector-curvature="0" />
      <path
         d="m 10.9887,387.966 h 0.5781 v -2.872 l 1.7156,1.51 h 0.7344 l -1.8563,-1.638 1.9344,-1.862 h -0.75 l -1.7781,1.709 v -1.709 h -0.5781 v 4.862"
         style="fill:#000000;fill-opacity:1;fill-rule:nonzero;stroke:none;stroke-width:0.1"
         id="path587"
         inkscape:connector-curvature="0" />
      <path
         d="m 14.4324,384.6 h 1.68438 v 0.5125 H 14.4324 Z"
         style="fill:#000000;fill-opacity:1;fill-rule:nonzero;stroke:none;stroke-width:0.1"
         id="path589"
         inkscape:connector-curvature="0" />
      <path
         d="m 17.2262,383.635 h 1.0312 v 3.559 l -1.1219,-0.225 v 0.575 l 1.1157,0.225 h 0.6312 v -4.134 h 1.0313 v -0.531 h -2.6875 v 0.531"
         style="fill:#000000;fill-opacity:1;fill-rule:nonzero;stroke:none;stroke-width:0.1"
         id="path591"
         inkscape:connector-curvature="0" />
      <path
         d="m 21.0199,387.96 h 0.5 c 0.3125,-0.492 0.5461,-0.973 0.7,-1.444 0.1563,-0.471 0.2344,-0.939 0.2344,-1.403 0,-0.467 -0.0781,-0.936 -0.2344,-1.409 -0.1539,-0.474 -0.3875,-0.955 -0.7,-1.444 h -0.5 c 0.2774,0.477 0.4836,0.951 0.6188,1.422 0.1375,0.473 0.2062,0.95 0.2062,1.431 0,0.481 -0.0687,0.956 -0.2062,1.425 -0.1352,0.469 -0.3414,0.942 -0.6188,1.422"
         style="fill:#000000;fill-opacity:1;fill-rule:nonzero;stroke:none;stroke-width:0.1"
         id="path593"
         inkscape:connector-curvature="0" />
      <path
         d="m 24.2355,383.635 h 2.2032 v -0.531 h -2.9625 v 0.531 c 0.2398,0.248 0.5656,0.58 0.9781,0.997 0.4148,0.418 0.675,0.688 0.7812,0.809 0.2024,0.227 0.343,0.419 0.4219,0.575 0.0813,0.158 0.1219,0.314 0.1219,0.466 0,0.248 -0.0875,0.45 -0.2625,0.606 -0.1727,0.156 -0.3988,0.234 -0.6781,0.234 -0.1977,0 -0.4071,-0.034 -0.6282,-0.103 -0.2187,-0.069 -0.4531,-0.173 -0.7031,-0.312 v 0.637 c 0.2543,0.102 0.4918,0.179 0.7125,0.231 0.2211,0.052 0.4231,0.079 0.6063,0.079 0.4836,0 0.8687,-0.121 1.1562,-0.363 0.2875,-0.242 0.4313,-0.564 0.4313,-0.969 0,-0.192 -0.0364,-0.374 -0.1094,-0.547 -0.0707,-0.17 -0.2008,-0.373 -0.3906,-0.606 -0.052,-0.06 -0.2176,-0.235 -0.4969,-0.525 -0.2789,-0.287 -0.6727,-0.69 -1.1813,-1.209"
         style="fill:#000000;fill-opacity:1;fill-rule:nonzero;stroke:none;stroke-width:0.1"
         id="path595"
         inkscape:connector-curvature="0" />
      <path
         d="m 25.4598,389.107 h 1.68438 v 0.5125 H 25.4598 Z"
         style="fill:#000000;fill-opacity:1;fill-rule:nonzero;stroke:none;stroke-width:0.1"
         id="path597"
         inkscape:connector-curvature="0" />
      <path
         d="m 28.4504,392.275 h 0.6312 v -4.34 c 0,-0.563 -0.1074,-0.971 -0.3218,-1.225 -0.2125,-0.255 -0.5555,-0.381 -1.0282,-0.381 H 27.491 v 0.531 h 0.1969 c 0.2789,0 0.4758,0.078 0.5906,0.234 0.1145,0.156 0.1719,0.436 0.1719,0.841 v 4.34"
         style="fill:#000000;fill-opacity:1;fill-rule:nonzero;stroke:none;stroke-width:0.1"
         id="path599"
         inkscape:connector-curvature="0" />
      <path
         d="m 34.691,391.622 v -1.74 h 1.7406 V 389.35 H 34.691 v -1.74 h -0.525 v 1.74 h -1.7406 v 0.532 h 1.7406 v 1.74 h 0.525"
         style="fill:#000000;fill-opacity:1;fill-rule:nonzero;stroke:none;stroke-width:0.1"
         id="path601"
         inkscape:connector-curvature="0" />
      <path
         d="m 37.9035,388.141 h 1.0313 v 3.559 l -1.1219,-0.225 v 0.575 l 1.1156,0.225 h 0.6313 v -4.134 h 1.0312 v -0.531 h -2.6875 v 0.531"
         style="fill:#000000;fill-opacity:1;fill-rule:nonzero;stroke:none;stroke-width:0.1"
         id="path603"
         inkscape:connector-curvature="0" />
      <path
         d="m 30.6078,388.298 c -0.1625,0 -0.2848,-0.08 -0.3672,-0.241 -0.0812,-0.159 -0.1218,-0.4 -0.1218,-0.72 0,-0.32 0.0406,-0.56 0.1218,-0.721 0.0824,-0.159 0.2047,-0.239 0.3672,-0.239 0.1637,0 0.286,0.08 0.3672,0.239 0.0824,0.161 0.1234,0.401 0.1234,0.721 0,0.32 -0.041,0.561 -0.1234,0.72 -0.0812,0.161 -0.2035,0.241 -0.3672,0.241 m 0,0.25 c 0.2617,0 0.461,-0.104 0.5984,-0.311 0.1387,-0.207 0.2079,-0.507 0.2079,-0.9 0,-0.393 -0.0692,-0.693 -0.2079,-0.9 -0.1374,-0.207 -0.3367,-0.31 -0.5984,-0.31 -0.2613,0 -0.4613,0.103 -0.6,0.31 -0.1375,0.207 -0.2062,0.507 -0.2062,0.9 0,0.393 0.0687,0.693 0.2062,0.9 0.1387,0.207 0.3387,0.311 0.6,0.311"
         style="fill:#000000;fill-opacity:1;fill-rule:nonzero;stroke:none;stroke-width:0.1"
         id="path605"
         inkscape:connector-curvature="0" />
      <path
         d="m 101.213,387.122 h 0.578 v -2.872 l 1.716,1.51 h 0.734 l -1.856,-1.638 1.934,-1.862 h -0.75 l -1.778,1.709 v -1.709 h -0.578 v 4.862"
         style="fill:#000000;fill-opacity:1;fill-rule:nonzero;stroke:none;stroke-width:0.1"
         id="path607"
         inkscape:connector-curvature="0" />
      <path
         d="m 105.572,382.791 h 2.203 v -0.531 h -2.962 v 0.531 c 0.24,0.248 0.566,0.58 0.978,0.997 0.414,0.419 0.675,0.689 0.781,0.809 0.203,0.227 0.343,0.419 0.422,0.575 0.081,0.158 0.122,0.314 0.122,0.466 0,0.248 -0.087,0.45 -0.262,0.606 -0.174,0.156 -0.399,0.235 -0.679,0.235 -0.198,0 -0.407,-0.035 -0.628,-0.104 -0.218,-0.068 -0.453,-0.173 -0.703,-0.312 v 0.637 c 0.254,0.102 0.492,0.18 0.713,0.232 0.221,0.052 0.423,0.078 0.606,0.078 0.483,0 0.869,-0.121 1.156,-0.363 0.288,-0.242 0.431,-0.564 0.431,-0.968 0,-0.192 -0.036,-0.374 -0.109,-0.547 -0.071,-0.171 -0.201,-0.373 -0.391,-0.607 -0.052,-0.06 -0.217,-0.235 -0.496,-0.525 -0.279,-0.287 -0.674,-0.69 -1.182,-1.209"
         style="fill:#000000;fill-opacity:1;fill-rule:nonzero;stroke:none;stroke-width:0.1"
         id="path609"
         inkscape:connector-curvature="0" />
      <path
         d="m 107.944,388.708 h 1.68438 v 0.5125 H 107.944 Z"
         style="fill:#000000;fill-opacity:1;fill-rule:nonzero;stroke:none;stroke-width:0.1"
         id="path611"
         inkscape:connector-curvature="0" />
      <path
         d="m 110.935,391.877 h 0.631 v -4.341 c 0,-0.562 -0.107,-0.971 -0.322,-1.225 -0.212,-0.254 -0.555,-0.381 -1.028,-0.381 h -0.241 v 0.531 h 0.197 c 0.28,0 0.476,0.078 0.591,0.235 0.114,0.156 0.172,0.436 0.172,0.84 v 4.341"
         style="fill:#000000;fill-opacity:1;fill-rule:nonzero;stroke:none;stroke-width:0.1"
         id="path613"
         inkscape:connector-curvature="0" />
      <path
         d="m 117.175,391.224 v -1.741 h 1.741 v -0.531 h -1.741 v -1.741 h -0.525 v 1.741 h -1.74 v 0.531 h 1.74 v 1.741 h 0.525"
         style="fill:#000000;fill-opacity:1;fill-rule:nonzero;stroke:none;stroke-width:0.1"
         id="path615"
         inkscape:connector-curvature="0" />
      <path
         d="m 120.388,387.743 h 1.031 v 3.559 l -1.122,-0.225 v 0.575 l 1.116,0.225 h 0.631 v -4.134 h 1.031 v -0.532 h -2.687 v 0.532"
         style="fill:#000000;fill-opacity:1;fill-rule:nonzero;stroke:none;stroke-width:0.1"
         id="path617"
         inkscape:connector-curvature="0" />
      <path
         d="m 113.093,387.899 c -0.163,0 -0.285,-0.08 -0.368,-0.24 -0.081,-0.16 -0.121,-0.4 -0.121,-0.721 0,-0.32 0.04,-0.56 0.121,-0.72 0.083,-0.159 0.205,-0.239 0.368,-0.239 0.163,0 0.286,0.08 0.367,0.239 0.082,0.16 0.123,0.4 0.123,0.72 0,0.321 -0.041,0.561 -0.123,0.721 -0.081,0.16 -0.204,0.24 -0.367,0.24 m 0,0.25 c 0.261,0 0.461,-0.104 0.598,-0.311 0.139,-0.206 0.208,-0.506 0.208,-0.9 0,-0.393 -0.069,-0.693 -0.208,-0.9 -0.137,-0.206 -0.337,-0.309 -0.598,-0.309 -0.262,0 -0.462,0.103 -0.6,0.309 -0.138,0.207 -0.207,0.507 -0.207,0.9 0,0.394 0.069,0.694 0.207,0.9 0.138,0.207 0.338,0.311 0.6,0.311"
         style="fill:#000000;fill-opacity:1;fill-rule:nonzero;stroke:none;stroke-width:0.1"
         id="path619"
         inkscape:connector-curvature="0" />
      <path
         d="m 173.403,387.96 c -0.279,-0.48 -0.486,-0.953 -0.622,-1.422 -0.135,-0.469 -0.203,-0.944 -0.203,-1.425 0,-0.481 0.068,-0.958 0.203,-1.431 0.138,-0.471 0.345,-0.945 0.622,-1.422 h -0.5 c -0.312,0.489 -0.547,0.97 -0.703,1.444 -0.154,0.473 -0.231,0.942 -0.231,1.409 0,0.464 0.077,0.932 0.231,1.403 0.154,0.471 0.389,0.952 0.703,1.444 h 0.5"
         style="fill:#000000;fill-opacity:1;fill-rule:nonzero;stroke:none;stroke-width:0.1"
         id="path621"
         inkscape:connector-curvature="0" />
      <path
         d="m 174.5,387.966 h 0.578 v -2.872 l 1.716,1.51 h 0.734 l -1.856,-1.638 1.934,-1.862 h -0.75 l -1.778,1.709 v -1.709 H 174.5 v 4.862"
         style="fill:#000000;fill-opacity:1;fill-rule:nonzero;stroke:none;stroke-width:0.1"
         id="path623"
         inkscape:connector-curvature="0" />
      <path
         d="m 180.575,387.116 v -1.741 h 1.741 v -0.531 h -1.741 v -1.74 h -0.525 v 1.74 h -1.741 v 0.531 h 1.741 v 1.741 h 0.525"
         style="fill:#000000;fill-opacity:1;fill-rule:nonzero;stroke:none;stroke-width:0.1"
         id="path625"
         inkscape:connector-curvature="0" />
      <path
         d="m 183.788,383.635 h 1.031 v 3.559 l -1.122,-0.225 v 0.575 l 1.115,0.225 h 0.632 v -4.134 h 1.031 v -0.531 h -2.687 v 0.531"
         style="fill:#000000;fill-opacity:1;fill-rule:nonzero;stroke:none;stroke-width:0.1"
         id="path627"
         inkscape:connector-curvature="0" />
      <path
         d="m 187.581,387.96 h 0.5 c 0.313,-0.492 0.546,-0.973 0.7,-1.444 0.157,-0.471 0.235,-0.939 0.235,-1.403 0,-0.467 -0.078,-0.936 -0.235,-1.409 -0.154,-0.474 -0.387,-0.955 -0.7,-1.444 h -0.5 c 0.278,0.477 0.484,0.951 0.619,1.422 0.138,0.473 0.206,0.95 0.206,1.431 0,0.481 -0.068,0.956 -0.206,1.425 -0.135,0.469 -0.341,0.942 -0.619,1.422"
         style="fill:#000000;fill-opacity:1;fill-rule:nonzero;stroke:none;stroke-width:0.1"
         id="path629"
         inkscape:connector-curvature="0" />
      <path
         d="M 190.797,383.635 H 193 v -0.531 h -2.962 v 0.531 c 0.239,0.248 0.565,0.58 0.978,0.997 0.414,0.418 0.675,0.688 0.781,0.809 0.202,0.227 0.343,0.419 0.422,0.575 0.081,0.158 0.122,0.314 0.122,0.466 0,0.248 -0.088,0.45 -0.263,0.606 -0.173,0.156 -0.399,0.234 -0.678,0.234 -0.198,0 -0.407,-0.034 -0.628,-0.103 -0.219,-0.069 -0.453,-0.173 -0.703,-0.312 v 0.637 c 0.254,0.102 0.492,0.179 0.712,0.231 0.221,0.052 0.423,0.079 0.607,0.079 0.483,0 0.868,-0.121 1.156,-0.363 0.287,-0.242 0.431,-0.564 0.431,-0.969 0,-0.192 -0.036,-0.374 -0.109,-0.547 -0.071,-0.17 -0.201,-0.373 -0.391,-0.606 -0.052,-0.06 -0.218,-0.235 -0.497,-0.525 -0.279,-0.287 -0.673,-0.69 -1.181,-1.209"
         style="fill:#000000;fill-opacity:1;fill-rule:nonzero;stroke:none;stroke-width:0.1"
         id="path631"
         inkscape:connector-curvature="0" />
      <path
         d="m 192.088,389.107 h 1.68438 v 0.5125 H 192.088 Z"
         style="fill:#000000;fill-opacity:1;fill-rule:nonzero;stroke:none;stroke-width:0.1"
         id="path633"
         inkscape:connector-curvature="0" />
      <path
         d="m 195.078,392.275 h 0.631 v -4.34 c 0,-0.563 -0.107,-0.971 -0.321,-1.225 -0.213,-0.255 -0.556,-0.381 -1.029,-0.381 h -0.24 v 0.531 h 0.197 c 0.279,0 0.475,0.078 0.59,0.234 0.115,0.156 0.172,0.436 0.172,0.841 v 4.34"
         style="fill:#000000;fill-opacity:1;fill-rule:nonzero;stroke:none;stroke-width:0.1"
         id="path635"
         inkscape:connector-curvature="0" />
      <path
         d="m 201.319,391.622 v -1.74 h 1.74 v -0.532 h -1.74 v -1.74 h -0.525 v 1.74 h -1.741 v 0.532 h 1.741 v 1.74 h 0.525"
         style="fill:#000000;fill-opacity:1;fill-rule:nonzero;stroke:none;stroke-width:0.1"
         id="path637"
         inkscape:connector-curvature="0" />
      <path
         d="m 204.531,388.141 h 1.031 v 3.559 l -1.121,-0.225 v 0.575 l 1.115,0.225 h 0.632 v -4.134 h 1.031 v -0.531 h -2.688 v 0.531"
         style="fill:#000000;fill-opacity:1;fill-rule:nonzero;stroke:none;stroke-width:0.1"
         id="path639"
         inkscape:connector-curvature="0" />
      <path
         d="m 197.236,388.298 c -0.163,0 -0.285,-0.08 -0.367,-0.241 -0.081,-0.159 -0.122,-0.4 -0.122,-0.72 0,-0.32 0.041,-0.56 0.122,-0.721 0.082,-0.159 0.204,-0.239 0.367,-0.239 0.163,0 0.286,0.08 0.367,0.239 0.082,0.161 0.124,0.401 0.124,0.721 0,0.32 -0.042,0.561 -0.124,0.72 -0.081,0.161 -0.204,0.241 -0.367,0.241 m 0,0.25 c 0.261,0 0.461,-0.104 0.598,-0.311 0.139,-0.207 0.208,-0.507 0.208,-0.9 0,-0.393 -0.069,-0.693 -0.208,-0.9 -0.137,-0.207 -0.337,-0.31 -0.598,-0.31 -0.262,0 -0.462,0.103 -0.6,0.31 -0.138,0.207 -0.206,0.507 -0.206,0.9 0,0.393 0.068,0.693 0.206,0.9 0.138,0.207 0.338,0.311 0.6,0.311"
         style="fill:#000000;fill-opacity:1;fill-rule:nonzero;stroke:none;stroke-width:0.1"
         id="path641"
         inkscape:connector-curvature="0" />
      <path
         d="m 256.879,387.96 c -0.279,-0.48 -0.487,-0.953 -0.622,-1.422 -0.136,-0.469 -0.203,-0.944 -0.203,-1.425 0,-0.481 0.067,-0.958 0.203,-1.431 0.137,-0.471 0.345,-0.945 0.622,-1.422 h -0.5 c -0.313,0.489 -0.547,0.97 -0.704,1.444 -0.154,0.473 -0.231,0.942 -0.231,1.409 0,0.464 0.077,0.932 0.231,1.403 0.155,0.471 0.389,0.952 0.704,1.444 h 0.5"
         style="fill:#000000;fill-opacity:1;fill-rule:nonzero;stroke:none;stroke-width:0.1"
         id="path643"
         inkscape:connector-curvature="0" />
      <path
         d="m 257.975,387.966 h 0.579 v -2.872 l 1.715,1.51 h 0.735 l -1.857,-1.638 1.935,-1.862 h -0.75 l -1.778,1.709 v -1.709 h -0.579 v 4.862"
         style="fill:#000000;fill-opacity:1;fill-rule:nonzero;stroke:none;stroke-width:0.1"
         id="path645"
         inkscape:connector-curvature="0" />
      <path
         d="m 264.05,387.116 v -1.741 h 1.741 v -0.531 h -1.741 v -1.74 h -0.525 v 1.74 h -1.74 v 0.531 h 1.74 v 1.741 h 0.525"
         style="fill:#000000;fill-opacity:1;fill-rule:nonzero;stroke:none;stroke-width:0.1"
         id="path647"
         inkscape:connector-curvature="0" />
      <path
         d="m 267.697,383.635 h 2.203 v -0.531 h -2.962 v 0.531 c 0.24,0.248 0.566,0.58 0.978,0.997 0.414,0.418 0.675,0.688 0.781,0.809 0.203,0.227 0.343,0.419 0.422,0.575 0.081,0.158 0.122,0.314 0.122,0.466 0,0.248 -0.087,0.45 -0.262,0.606 -0.174,0.156 -0.399,0.234 -0.679,0.234 -0.197,0 -0.407,-0.034 -0.628,-0.103 -0.218,-0.069 -0.453,-0.173 -0.703,-0.312 v 0.637 c 0.254,0.102 0.492,0.179 0.713,0.231 0.221,0.052 0.423,0.079 0.606,0.079 0.483,0 0.869,-0.121 1.156,-0.363 0.288,-0.242 0.431,-0.564 0.431,-0.969 0,-0.192 -0.036,-0.374 -0.109,-0.547 -0.071,-0.17 -0.201,-0.373 -0.391,-0.606 -0.052,-0.06 -0.217,-0.235 -0.496,-0.525 -0.279,-0.287 -0.674,-0.69 -1.182,-1.209"
         style="fill:#000000;fill-opacity:1;fill-rule:nonzero;stroke:none;stroke-width:0.1"
         id="path649"
         inkscape:connector-curvature="0" />
      <path
         d="m 271.057,387.96 h 0.5 c 0.312,-0.492 0.546,-0.973 0.7,-1.444 0.156,-0.471 0.234,-0.939 0.234,-1.403 0,-0.467 -0.078,-0.936 -0.234,-1.409 -0.154,-0.474 -0.388,-0.955 -0.7,-1.444 h -0.5 c 0.277,0.477 0.483,0.951 0.618,1.422 0.138,0.473 0.207,0.95 0.207,1.431 0,0.481 -0.069,0.956 -0.207,1.425 -0.135,0.469 -0.341,0.942 -0.618,1.422"
         style="fill:#000000;fill-opacity:1;fill-rule:nonzero;stroke:none;stroke-width:0.1"
         id="path651"
         inkscape:connector-curvature="0" />
      <path
         d="m 274.272,383.635 h 2.203 v -0.531 h -2.962 v 0.531 c 0.24,0.248 0.566,0.58 0.978,0.997 0.414,0.418 0.675,0.688 0.781,0.809 0.203,0.227 0.343,0.419 0.422,0.575 0.081,0.158 0.122,0.314 0.122,0.466 0,0.248 -0.087,0.45 -0.262,0.606 -0.174,0.156 -0.399,0.234 -0.679,0.234 -0.197,0 -0.407,-0.034 -0.628,-0.103 -0.218,-0.069 -0.453,-0.173 -0.703,-0.312 v 0.637 c 0.254,0.102 0.492,0.179 0.713,0.231 0.221,0.052 0.423,0.079 0.606,0.079 0.483,0 0.869,-0.121 1.156,-0.363 0.288,-0.242 0.431,-0.564 0.431,-0.969 0,-0.192 -0.036,-0.374 -0.109,-0.547 -0.071,-0.17 -0.201,-0.373 -0.391,-0.606 -0.052,-0.06 -0.217,-0.235 -0.496,-0.525 -0.279,-0.287 -0.674,-0.69 -1.182,-1.209"
         style="fill:#000000;fill-opacity:1;fill-rule:nonzero;stroke:none;stroke-width:0.1"
         id="path653"
         inkscape:connector-curvature="0" />
      <path
         d="m 275.563,389.107 h 1.68438 v 0.5125 H 275.563 Z"
         style="fill:#000000;fill-opacity:1;fill-rule:nonzero;stroke:none;stroke-width:0.1"
         id="path655"
         inkscape:connector-curvature="0" />
      <path
         d="m 278.554,392.275 h 0.631 v -4.34 c 0,-0.563 -0.108,-0.971 -0.322,-1.225 -0.213,-0.255 -0.556,-0.381 -1.028,-0.381 h -0.241 v 0.531 h 0.197 c 0.279,0 0.476,0.078 0.591,0.234 0.114,0.156 0.172,0.436 0.172,0.841 v 4.34"
         style="fill:#000000;fill-opacity:1;fill-rule:nonzero;stroke:none;stroke-width:0.1"
         id="path657"
         inkscape:connector-curvature="0" />
      <path
         d="m 284.794,391.622 v -1.74 h 1.741 v -0.532 h -1.741 v -1.74 h -0.525 v 1.74 h -1.74 v 0.532 h 1.74 v 1.74 h 0.525"
         style="fill:#000000;fill-opacity:1;fill-rule:nonzero;stroke:none;stroke-width:0.1"
         id="path659"
         inkscape:connector-curvature="0" />
      <path
         d="m 288.007,388.141 h 1.031 v 3.559 l -1.122,-0.225 v 0.575 l 1.116,0.225 h 0.631 v -4.134 h 1.031 v -0.531 h -2.687 v 0.531"
         style="fill:#000000;fill-opacity:1;fill-rule:nonzero;stroke:none;stroke-width:0.1"
         id="path661"
         inkscape:connector-curvature="0" />
      <path
         d="m 280.711,388.298 c -0.163,0 -0.285,-0.08 -0.367,-0.241 -0.082,-0.159 -0.122,-0.4 -0.122,-0.72 0,-0.32 0.04,-0.56 0.122,-0.721 0.082,-0.159 0.204,-0.239 0.367,-0.239 0.164,0 0.286,0.08 0.367,0.239 0.083,0.161 0.124,0.401 0.124,0.721 0,0.32 -0.041,0.561 -0.124,0.72 -0.081,0.161 -0.203,0.241 -0.367,0.241 m 0,0.25 c 0.262,0 0.461,-0.104 0.598,-0.311 0.139,-0.207 0.208,-0.507 0.208,-0.9 0,-0.393 -0.069,-0.693 -0.208,-0.9 -0.137,-0.207 -0.336,-0.31 -0.598,-0.31 -0.261,0 -0.461,0.103 -0.6,0.31 -0.138,0.207 -0.206,0.507 -0.206,0.9 0,0.393 0.068,0.693 0.206,0.9 0.139,0.207 0.339,0.311 0.6,0.311"
         style="fill:#000000;fill-opacity:1;fill-rule:nonzero;stroke:none;stroke-width:0.1"
         id="path663"
         inkscape:connector-curvature="0" />
      <path
         d="m 339.686,387.96 c -0.279,-0.48 -0.486,-0.953 -0.622,-1.422 -0.135,-0.469 -0.203,-0.944 -0.203,-1.425 0,-0.481 0.068,-0.958 0.203,-1.431 0.138,-0.471 0.345,-0.945 0.622,-1.422 h -0.5 c -0.312,0.489 -0.547,0.97 -0.703,1.444 -0.154,0.473 -0.231,0.942 -0.231,1.409 0,0.464 0.077,0.932 0.231,1.403 0.154,0.471 0.388,0.952 0.703,1.444 h 0.5"
         style="fill:#000000;fill-opacity:1;fill-rule:nonzero;stroke:none;stroke-width:0.1"
         id="path665"
         inkscape:connector-curvature="0" />
      <path
         d="m 340.783,387.966 h 0.578 v -2.872 l 1.716,1.51 h 0.734 l -1.856,-1.638 1.934,-1.862 h -0.75 l -1.778,1.709 v -1.709 h -0.578 v 4.862"
         style="fill:#000000;fill-opacity:1;fill-rule:nonzero;stroke:none;stroke-width:0.1"
         id="path667"
         inkscape:connector-curvature="0" />
      <path
         d="m 346.858,387.116 v -1.741 h 1.741 v -0.531 h -1.741 v -1.74 h -0.525 v 1.74 h -1.74 v 0.531 h 1.74 v 1.741 h 0.525"
         style="fill:#000000;fill-opacity:1;fill-rule:nonzero;stroke:none;stroke-width:0.1"
         id="path669"
         inkscape:connector-curvature="0" />
      <path
         d="m 351.874,385.619 c 0.302,-0.064 0.537,-0.199 0.706,-0.403 0.171,-0.204 0.256,-0.456 0.256,-0.756 0,-0.461 -0.158,-0.817 -0.475,-1.069 -0.316,-0.252 -0.766,-0.378 -1.35,-0.378 -0.196,0 -0.398,0.02 -0.606,0.059 -0.206,0.038 -0.42,0.095 -0.641,0.172 v 0.61 c 0.175,-0.102 0.367,-0.18 0.575,-0.232 0.209,-0.052 0.426,-0.078 0.654,-0.078 0.395,0 0.696,0.078 0.903,0.235 0.208,0.156 0.312,0.383 0.312,0.681 0,0.275 -0.097,0.489 -0.29,0.644 -0.192,0.156 -0.46,0.234 -0.804,0.234 h -0.543 v 0.519 h 0.568 c 0.311,0 0.548,0.061 0.713,0.184 0.164,0.125 0.247,0.304 0.247,0.538 0,0.239 -0.086,0.423 -0.256,0.55 -0.169,0.129 -0.412,0.193 -0.729,0.193 -0.173,0 -0.358,-0.018 -0.556,-0.056 -0.198,-0.037 -0.415,-0.096 -0.653,-0.175 v 0.563 c 0.24,0.066 0.463,0.116 0.672,0.15 0.21,0.033 0.408,0.05 0.594,0.05 0.479,0 0.858,-0.11 1.137,-0.329 0.279,-0.216 0.419,-0.51 0.419,-0.881 0,-0.258 -0.074,-0.477 -0.222,-0.656 -0.148,-0.177 -0.359,-0.3 -0.631,-0.369"
         style="fill:#000000;fill-opacity:1;fill-rule:nonzero;stroke:none;stroke-width:0.1"
         id="path671"
         inkscape:connector-curvature="0" />
      <path
         d="m 353.864,387.96 h 0.5 c 0.313,-0.492 0.546,-0.973 0.7,-1.444 0.157,-0.471 0.235,-0.939 0.235,-1.403 0,-0.467 -0.078,-0.936 -0.235,-1.409 -0.154,-0.474 -0.387,-0.955 -0.7,-1.444 h -0.5 c 0.277,0.477 0.484,0.951 0.619,1.422 0.138,0.473 0.206,0.95 0.206,1.431 0,0.481 -0.068,0.956 -0.206,1.425 -0.135,0.469 -0.342,0.942 -0.619,1.422"
         style="fill:#000000;fill-opacity:1;fill-rule:nonzero;stroke:none;stroke-width:0.1"
         id="path673"
         inkscape:connector-curvature="0" />
      <path
         d="m 357.08,383.635 h 2.203 v -0.531 h -2.962 v 0.531 c 0.239,0.248 0.565,0.58 0.978,0.997 0.414,0.418 0.675,0.688 0.781,0.809 0.202,0.227 0.343,0.419 0.422,0.575 0.081,0.158 0.122,0.314 0.122,0.466 0,0.248 -0.088,0.45 -0.263,0.606 -0.173,0.156 -0.399,0.234 -0.678,0.234 -0.198,0 -0.407,-0.034 -0.628,-0.103 -0.219,-0.069 -0.453,-0.173 -0.703,-0.312 v 0.637 c 0.254,0.102 0.491,0.179 0.712,0.231 0.221,0.052 0.423,0.079 0.607,0.079 0.483,0 0.868,-0.121 1.156,-0.363 0.287,-0.242 0.431,-0.564 0.431,-0.969 0,-0.192 -0.037,-0.374 -0.109,-0.547 -0.071,-0.17 -0.201,-0.373 -0.391,-0.606 -0.052,-0.06 -0.218,-0.235 -0.497,-0.525 -0.279,-0.287 -0.673,-0.69 -1.181,-1.209"
         style="fill:#000000;fill-opacity:1;fill-rule:nonzero;stroke:none;stroke-width:0.1"
         id="path675"
         inkscape:connector-curvature="0" />
      <path
         d="m 358.37,389.107 h 1.68438 v 0.5125 H 358.37 Z"
         style="fill:#000000;fill-opacity:1;fill-rule:nonzero;stroke:none;stroke-width:0.1"
         id="path677"
         inkscape:connector-curvature="0" />
      <path
         d="m 361.361,392.275 h 0.631 v -4.34 c 0,-0.563 -0.107,-0.971 -0.322,-1.225 -0.212,-0.255 -0.555,-0.381 -1.028,-0.381 h -0.24 v 0.531 h 0.196 c 0.28,0 0.477,0.078 0.591,0.234 0.115,0.156 0.172,0.436 0.172,0.841 v 4.34"
         style="fill:#000000;fill-opacity:1;fill-rule:nonzero;stroke:none;stroke-width:0.1"
         id="path679"
         inkscape:connector-curvature="0" />
      <path
         d="m 367.602,391.622 v -1.74 h 1.74 v -0.532 h -1.74 v -1.74 h -0.525 v 1.74 h -1.741 v 0.532 h 1.741 v 1.74 h 0.525"
         style="fill:#000000;fill-opacity:1;fill-rule:nonzero;stroke:none;stroke-width:0.1"
         id="path681"
         inkscape:connector-curvature="0" />
      <path
         d="m 370.814,388.141 h 1.031 v 3.559 l -1.122,-0.225 v 0.575 l 1.116,0.225 h 0.631 v -4.134 h 1.032 v -0.531 h -2.688 v 0.531"
         style="fill:#000000;fill-opacity:1;fill-rule:nonzero;stroke:none;stroke-width:0.1"
         id="path683"
         inkscape:connector-curvature="0" />
      <path
         d="m 363.519,388.298 c -0.163,0 -0.285,-0.08 -0.367,-0.241 -0.082,-0.159 -0.122,-0.4 -0.122,-0.72 0,-0.32 0.04,-0.56 0.122,-0.721 0.082,-0.159 0.204,-0.239 0.367,-0.239 0.163,0 0.286,0.08 0.367,0.239 0.082,0.161 0.123,0.401 0.123,0.721 0,0.32 -0.041,0.561 -0.123,0.72 -0.081,0.161 -0.204,0.241 -0.367,0.241 m 0,0.25 c 0.261,0 0.461,-0.104 0.598,-0.311 0.139,-0.207 0.208,-0.507 0.208,-0.9 0,-0.393 -0.069,-0.693 -0.208,-0.9 -0.137,-0.207 -0.337,-0.31 -0.598,-0.31 -0.262,0 -0.462,0.103 -0.6,0.31 -0.138,0.207 -0.207,0.507 -0.207,0.9 0,0.393 0.069,0.693 0.207,0.9 0.138,0.207 0.338,0.311 0.6,0.311"
         style="fill:#000000;fill-opacity:1;fill-rule:nonzero;stroke:none;stroke-width:0.1"
         id="path685"
         inkscape:connector-curvature="0" />
      <path
         d="M 25.4273,379.206 V 375.2 h -0.525 v 4.006 h 0.525 m -1.275,0 V 375.2 h -0.5312 v 4.006 h 0.5312"
         style="fill:#000000;fill-opacity:1;fill-rule:nonzero;stroke:none;stroke-width:0.1"
         id="path687"
         inkscape:connector-curvature="0" />
      <path
         d="m 106.957,366.329 h 0.575 v 4.8625 h -0.575 z"
         style="fill:#000000;fill-opacity:1;fill-rule:nonzero;stroke:none;stroke-width:0.1"
         id="path689"
         inkscape:connector-curvature="0" />
      <path
         d="m 109.357,366.861 h 2.204 v -0.532 h -2.963 v 0.532 c 0.24,0.248 0.566,0.58 0.978,0.996 0.415,0.419 0.675,0.689 0.781,0.81 0.202,0.227 0.343,0.419 0.422,0.575 0.082,0.158 0.122,0.313 0.122,0.465 0,0.248 -0.087,0.45 -0.262,0.607 -0.173,0.156 -0.4,0.234 -0.678,0.234 -0.199,0 -0.408,-0.034 -0.629,-0.103 -0.218,-0.069 -0.453,-0.173 -0.703,-0.313 v 0.638 c 0.254,0.102 0.492,0.179 0.713,0.231 0.22,0.053 0.422,0.078 0.606,0.078 0.483,0 0.869,-0.12 1.156,-0.362 0.288,-0.242 0.432,-0.565 0.432,-0.969 0,-0.191 -0.037,-0.374 -0.11,-0.547 -0.071,-0.171 -0.201,-0.372 -0.39,-0.606 -0.053,-0.06 -0.218,-0.235 -0.497,-0.525 -0.28,-0.288 -0.673,-0.691 -1.182,-1.209"
         style="fill:#000000;fill-opacity:1;fill-rule:nonzero;stroke:none;stroke-width:0.1"
         id="path691"
         inkscape:connector-curvature="0" />
      <path
         d="m 111.377,372.332 h 1.68438 v 0.5125 H 111.377 Z"
         style="fill:#000000;fill-opacity:1;fill-rule:nonzero;stroke:none;stroke-width:0.1"
         id="path693"
         inkscape:connector-curvature="0" />
      <path
         d="m 114.367,375.501 h 0.631 v -4.34 c 0,-0.563 -0.107,-0.971 -0.321,-1.225 -0.213,-0.255 -0.556,-0.382 -1.029,-0.382 h -0.24 v 0.532 h 0.197 c 0.279,0 0.475,0.078 0.59,0.234 0.115,0.156 0.172,0.436 0.172,0.841 v 4.34"
         style="fill:#000000;fill-opacity:1;fill-rule:nonzero;stroke:none;stroke-width:0.1"
         id="path695"
         inkscape:connector-curvature="0" />
      <path
         d="m 116.525,371.523 c -0.163,0 -0.285,-0.08 -0.368,-0.24 -0.081,-0.16 -0.121,-0.399 -0.121,-0.721 0,-0.319 0.04,-0.559 0.121,-0.72 0.083,-0.159 0.205,-0.239 0.368,-0.239 0.163,0 0.286,0.08 0.367,0.239 0.082,0.161 0.123,0.401 0.123,0.72 0,0.322 -0.041,0.561 -0.123,0.721 -0.081,0.16 -0.204,0.24 -0.367,0.24 m 0,0.25 c 0.261,0 0.461,-0.103 0.598,-0.311 0.139,-0.206 0.208,-0.506 0.208,-0.9 0,-0.392 -0.069,-0.692 -0.208,-0.9 -0.137,-0.206 -0.337,-0.309 -0.598,-0.309 -0.262,0 -0.462,0.103 -0.6,0.309 -0.138,0.208 -0.207,0.508 -0.207,0.9 0,0.394 0.069,0.694 0.207,0.9 0.138,0.208 0.338,0.311 0.6,0.311"
         style="fill:#000000;fill-opacity:1;fill-rule:nonzero;stroke:none;stroke-width:0.1"
         id="path697"
         inkscape:connector-curvature="0" />
      <path
         d="m 178.923,372.03 c -0.279,-0.48 -0.486,-0.953 -0.621,-1.422 -0.136,-0.469 -0.204,-0.944 -0.204,-1.425 0,-0.481 0.068,-0.959 0.204,-1.431 0.137,-0.472 0.344,-0.945 0.621,-1.422 h -0.5 c -0.312,0.489 -0.546,0.97 -0.703,1.443 -0.154,0.473 -0.231,0.943 -0.231,1.41 0,0.464 0.077,0.932 0.231,1.403 0.154,0.471 0.389,0.952 0.703,1.444 h 0.5"
         style="fill:#000000;fill-opacity:1;fill-rule:nonzero;stroke:none;stroke-width:0.1"
         id="path699"
         inkscape:connector-curvature="0" />
      <path
         d="m 180.042,367.173 h 0.575 v 4.8625 h -0.575 z"
         style="fill:#000000;fill-opacity:1;fill-rule:nonzero;stroke:none;stroke-width:0.1"
         id="path701"
         inkscape:connector-curvature="0" />
      <path
         d="m 184.158,371.186 v -1.741 h 1.74 v -0.531 h -1.74 v -1.741 h -0.525 v 1.741 h -1.741 v 0.531 h 1.741 v 1.741 h 0.525"
         style="fill:#000000;fill-opacity:1;fill-rule:nonzero;stroke:none;stroke-width:0.1"
         id="path703"
         inkscape:connector-curvature="0" />
      <path
         d="m 187.805,367.705 h 2.203 v -0.532 h -2.963 v 0.532 c 0.24,0.247 0.566,0.58 0.978,0.997 0.415,0.418 0.675,0.688 0.782,0.809 0.202,0.227 0.342,0.419 0.422,0.575 0.081,0.158 0.121,0.313 0.121,0.466 0,0.247 -0.087,0.45 -0.262,0.606 -0.173,0.156 -0.399,0.234 -0.678,0.234 -0.198,0 -0.408,-0.035 -0.628,-0.103 -0.219,-0.069 -0.453,-0.173 -0.703,-0.312 v 0.637 c 0.253,0.102 0.491,0.179 0.712,0.231 0.221,0.052 0.423,0.078 0.606,0.078 0.484,0 0.869,-0.121 1.157,-0.362 0.287,-0.242 0.431,-0.565 0.431,-0.969 0,-0.192 -0.037,-0.374 -0.11,-0.547 -0.071,-0.171 -0.201,-0.373 -0.39,-0.606 -0.053,-0.06 -0.218,-0.235 -0.497,-0.525 -0.279,-0.287 -0.673,-0.691 -1.181,-1.209"
         style="fill:#000000;fill-opacity:1;fill-rule:nonzero;stroke:none;stroke-width:0.1"
         id="path705"
         inkscape:connector-curvature="0" />
      <path
         d="m 191.164,372.03 h 0.5 c 0.313,-0.492 0.546,-0.973 0.7,-1.444 0.156,-0.471 0.234,-0.939 0.234,-1.403 0,-0.467 -0.078,-0.937 -0.234,-1.41 -0.154,-0.473 -0.387,-0.954 -0.7,-1.443 h -0.5 c 0.277,0.477 0.483,0.95 0.619,1.422 0.137,0.472 0.206,0.95 0.206,1.431 0,0.481 -0.069,0.956 -0.206,1.425 -0.136,0.469 -0.342,0.942 -0.619,1.422"
         style="fill:#000000;fill-opacity:1;fill-rule:nonzero;stroke:none;stroke-width:0.1"
         id="path707"
         inkscape:connector-curvature="0" />
      <path
         d="m 194.38,367.705 h 2.203 v -0.532 h -2.963 v 0.532 c 0.24,0.247 0.566,0.58 0.978,0.997 0.415,0.418 0.675,0.688 0.782,0.809 0.202,0.227 0.342,0.419 0.422,0.575 0.081,0.158 0.121,0.313 0.121,0.466 0,0.247 -0.087,0.45 -0.262,0.606 -0.173,0.156 -0.399,0.234 -0.678,0.234 -0.198,0 -0.408,-0.035 -0.628,-0.103 -0.219,-0.069 -0.453,-0.173 -0.703,-0.312 v 0.637 c 0.253,0.102 0.491,0.179 0.712,0.231 0.221,0.052 0.423,0.078 0.606,0.078 0.484,0 0.869,-0.121 1.157,-0.362 0.287,-0.242 0.431,-0.565 0.431,-0.969 0,-0.192 -0.037,-0.374 -0.11,-0.547 -0.071,-0.171 -0.201,-0.373 -0.39,-0.606 -0.053,-0.06 -0.218,-0.235 -0.497,-0.525 -0.279,-0.287 -0.673,-0.691 -1.181,-1.209"
         style="fill:#000000;fill-opacity:1;fill-rule:nonzero;stroke:none;stroke-width:0.1"
         id="path709"
         inkscape:connector-curvature="0" />
      <path
         d="m 195.744,373.176 h 1.68438 v 0.5125 H 195.744 Z"
         style="fill:#000000;fill-opacity:1;fill-rule:nonzero;stroke:none;stroke-width:0.1"
         id="path711"
         inkscape:connector-curvature="0" />
      <path
         d="m 198.735,376.345 h 0.631 v -4.341 c 0,-0.562 -0.107,-0.97 -0.322,-1.225 -0.212,-0.254 -0.555,-0.381 -1.028,-0.381 h -0.241 v 0.531 h 0.197 c 0.279,0 0.476,0.078 0.591,0.235 0.114,0.156 0.172,0.436 0.172,0.84 v 4.341"
         style="fill:#000000;fill-opacity:1;fill-rule:nonzero;stroke:none;stroke-width:0.1"
         id="path713"
         inkscape:connector-curvature="0" />
      <path
         d="m 200.893,372.368 c -0.163,0 -0.286,-0.081 -0.368,-0.241 -0.081,-0.159 -0.121,-0.4 -0.121,-0.72 0,-0.32 0.04,-0.561 0.121,-0.721 0.082,-0.159 0.205,-0.239 0.368,-0.239 0.163,0 0.286,0.08 0.367,0.239 0.082,0.16 0.123,0.401 0.123,0.721 0,0.32 -0.041,0.561 -0.123,0.72 -0.081,0.16 -0.204,0.241 -0.367,0.241 m 0,0.25 c 0.261,0 0.461,-0.104 0.598,-0.311 0.138,-0.207 0.208,-0.507 0.208,-0.9 0,-0.393 -0.07,-0.693 -0.208,-0.9 -0.137,-0.207 -0.337,-0.31 -0.598,-0.31 -0.262,0 -0.462,0.103 -0.6,0.31 -0.138,0.207 -0.207,0.507 -0.207,0.9 0,0.393 0.069,0.693 0.207,0.9 0.138,0.207 0.338,0.311 0.6,0.311"
         style="fill:#000000;fill-opacity:1;fill-rule:nonzero;stroke:none;stroke-width:0.1"
         id="path715"
         inkscape:connector-curvature="0" />
      <path
         d="m 262.399,372.03 c -0.279,-0.48 -0.487,-0.953 -0.622,-1.422 -0.136,-0.469 -0.203,-0.944 -0.203,-1.425 0,-0.481 0.067,-0.959 0.203,-1.431 0.137,-0.472 0.344,-0.945 0.622,-1.422 h -0.5 c -0.313,0.489 -0.547,0.97 -0.703,1.443 -0.155,0.473 -0.232,0.943 -0.232,1.41 0,0.464 0.077,0.932 0.232,1.403 0.154,0.471 0.388,0.952 0.703,1.444 h 0.5"
         style="fill:#000000;fill-opacity:1;fill-rule:nonzero;stroke:none;stroke-width:0.1"
         id="path717"
         inkscape:connector-curvature="0" />
      <path
         d="m 263.518,367.173 h 0.575 v 4.8625 h -0.575 z"
         style="fill:#000000;fill-opacity:1;fill-rule:nonzero;stroke:none;stroke-width:0.1"
         id="path719"
         inkscape:connector-curvature="0" />
      <path
         d="m 267.633,371.186 v -1.741 h 1.741 v -0.531 h -1.741 v -1.741 h -0.525 v 1.741 h -1.74 v 0.531 h 1.74 v 1.741 h 0.525"
         style="fill:#000000;fill-opacity:1;fill-rule:nonzero;stroke:none;stroke-width:0.1"
         id="path721"
         inkscape:connector-curvature="0" />
      <path
         d="m 272.471,371.289 -1.594,-2.491 h 1.594 v 2.491 m -0.166,0.55 h 0.794 v -3.041 h 0.665 v -0.525 h -0.665 v -1.1 h -0.628 v 1.1 h -2.107 v 0.61 l 1.941,2.956"
         style="fill:#000000;fill-opacity:1;fill-rule:nonzero;stroke:none;stroke-width:0.1"
         id="path723"
         inkscape:connector-curvature="0" />
      <path
         d="m 274.639,372.03 h 0.5 c 0.313,-0.492 0.546,-0.973 0.7,-1.444 0.157,-0.471 0.235,-0.939 0.235,-1.403 0,-0.467 -0.078,-0.937 -0.235,-1.41 -0.154,-0.473 -0.387,-0.954 -0.7,-1.443 h -0.5 c 0.277,0.477 0.484,0.95 0.619,1.422 0.138,0.472 0.206,0.95 0.206,1.431 0,0.481 -0.068,0.956 -0.206,1.425 -0.135,0.469 -0.342,0.942 -0.619,1.422"
         style="fill:#000000;fill-opacity:1;fill-rule:nonzero;stroke:none;stroke-width:0.1"
         id="path725"
         inkscape:connector-curvature="0" />
      <path
         d="m 277.855,367.705 h 2.203 v -0.532 h -2.962 v 0.532 c 0.239,0.247 0.565,0.58 0.978,0.997 0.414,0.418 0.675,0.688 0.781,0.809 0.202,0.227 0.343,0.419 0.422,0.575 0.081,0.158 0.122,0.313 0.122,0.466 0,0.247 -0.088,0.45 -0.263,0.606 -0.173,0.156 -0.399,0.234 -0.678,0.234 -0.198,0 -0.407,-0.035 -0.628,-0.103 -0.219,-0.069 -0.453,-0.173 -0.703,-0.312 v 0.637 c 0.254,0.102 0.491,0.179 0.712,0.231 0.221,0.052 0.423,0.078 0.607,0.078 0.483,0 0.868,-0.121 1.156,-0.362 0.287,-0.242 0.431,-0.565 0.431,-0.969 0,-0.192 -0.037,-0.374 -0.109,-0.547 -0.071,-0.171 -0.201,-0.373 -0.391,-0.606 -0.052,-0.06 -0.218,-0.235 -0.497,-0.525 -0.279,-0.287 -0.673,-0.691 -1.181,-1.209"
         style="fill:#000000;fill-opacity:1;fill-rule:nonzero;stroke:none;stroke-width:0.1"
         id="path727"
         inkscape:connector-curvature="0" />
      <path
         d="m 279.22,373.176 h 1.68438 v 0.5125 H 279.22 Z"
         style="fill:#000000;fill-opacity:1;fill-rule:nonzero;stroke:none;stroke-width:0.1"
         id="path729"
         inkscape:connector-curvature="0" />
      <path
         d="m 282.21,376.345 h 0.631 v -4.341 c 0,-0.562 -0.107,-0.97 -0.321,-1.225 -0.213,-0.254 -0.556,-0.381 -1.029,-0.381 h -0.24 v 0.531 h 0.197 c 0.279,0 0.475,0.078 0.59,0.235 0.115,0.156 0.172,0.436 0.172,0.84 v 4.341"
         style="fill:#000000;fill-opacity:1;fill-rule:nonzero;stroke:none;stroke-width:0.1"
         id="path731"
         inkscape:connector-curvature="0" />
      <path
         d="m 284.368,372.368 c -0.163,0 -0.285,-0.081 -0.368,-0.241 -0.081,-0.159 -0.121,-0.4 -0.121,-0.72 0,-0.32 0.04,-0.561 0.121,-0.721 0.083,-0.159 0.205,-0.239 0.368,-0.239 0.163,0 0.286,0.08 0.367,0.239 0.082,0.16 0.123,0.401 0.123,0.721 0,0.32 -0.041,0.561 -0.123,0.72 -0.081,0.16 -0.204,0.241 -0.367,0.241 m 0,0.25 c 0.261,0 0.461,-0.104 0.598,-0.311 0.139,-0.207 0.208,-0.507 0.208,-0.9 0,-0.393 -0.069,-0.693 -0.208,-0.9 -0.137,-0.207 -0.337,-0.31 -0.598,-0.31 -0.262,0 -0.462,0.103 -0.6,0.31 -0.138,0.207 -0.207,0.507 -0.207,0.9 0,0.393 0.069,0.693 0.207,0.9 0.138,0.207 0.338,0.311 0.6,0.311"
         style="fill:#000000;fill-opacity:1;fill-rule:nonzero;stroke:none;stroke-width:0.1"
         id="path733"
         inkscape:connector-curvature="0" />
      <path
         d="m 345.206,372.03 c -0.279,-0.48 -0.486,-0.953 -0.622,-1.422 -0.135,-0.469 -0.203,-0.944 -0.203,-1.425 0,-0.481 0.068,-0.959 0.203,-1.431 0.138,-0.472 0.345,-0.945 0.622,-1.422 h -0.5 c -0.312,0.489 -0.547,0.97 -0.703,1.443 -0.154,0.473 -0.231,0.943 -0.231,1.41 0,0.464 0.077,0.932 0.231,1.403 0.154,0.471 0.389,0.952 0.703,1.444 h 0.5"
         style="fill:#000000;fill-opacity:1;fill-rule:nonzero;stroke:none;stroke-width:0.1"
         id="path735"
         inkscape:connector-curvature="0" />
      <path
         d="m 346.325,367.173 h 0.575 v 4.8625 h -0.575 z"
         style="fill:#000000;fill-opacity:1;fill-rule:nonzero;stroke:none;stroke-width:0.1"
         id="path737"
         inkscape:connector-curvature="0" />
      <path
         d="m 350.441,371.186 v -1.741 h 1.74 v -0.531 h -1.74 v -1.741 h -0.525 v 1.741 h -1.741 v 0.531 h 1.741 v 1.741 h 0.525"
         style="fill:#000000;fill-opacity:1;fill-rule:nonzero;stroke:none;stroke-width:0.1"
         id="path739"
         inkscape:connector-curvature="0" />
      <path
         d="m 354.972,369.758 c -0.283,-10e-4 -0.508,-0.097 -0.675,-0.291 -0.165,-0.194 -0.247,-0.459 -0.247,-0.797 0,-0.335 0.082,-0.601 0.247,-0.797 0.167,-0.193 0.392,-0.29 0.675,-0.29 0.283,0 0.507,0.097 0.672,0.29 0.167,0.196 0.25,0.462 0.25,0.797 0,0.338 -0.083,0.603 -0.25,0.797 -0.165,0.194 -0.389,0.29 -0.672,0.291 m 1.253,1.978 v -0.575 c -0.158,0.075 -0.319,0.132 -0.481,0.172 -0.161,0.039 -0.32,0.059 -0.478,0.059 -0.417,0 -0.736,-0.14 -0.957,-0.422 -0.218,-0.281 -0.343,-0.706 -0.375,-1.275 0.123,0.182 0.277,0.32 0.463,0.416 0.185,0.098 0.389,0.146 0.612,0.147 0.469,-10e-4 0.839,-0.143 1.11,-0.428 0.273,-0.284 0.409,-0.67 0.409,-1.16 0,-0.479 -0.142,-0.863 -0.425,-1.153 -0.283,-0.29 -0.66,-0.434 -1.131,-0.434 -0.54,0 -0.952,0.206 -1.238,0.619 -0.285,0.414 -0.428,1.014 -0.428,1.8 0,0.737 0.175,1.325 0.525,1.762 0.35,0.44 0.82,0.659 1.41,0.659 0.158,0 0.317,-0.016 0.478,-0.046 0.162,-0.032 0.331,-0.079 0.506,-0.141"
         style="fill:#000000;fill-opacity:1;fill-rule:nonzero;stroke:none;stroke-width:0.1"
         id="path741"
         inkscape:connector-curvature="0" />
      <path
         d="m 357.447,372.03 h 0.5 c 0.312,-0.492 0.546,-0.973 0.7,-1.444 0.156,-0.471 0.234,-0.939 0.234,-1.403 0,-0.467 -0.078,-0.937 -0.234,-1.41 -0.154,-0.473 -0.388,-0.954 -0.7,-1.443 h -0.5 c 0.277,0.477 0.483,0.95 0.619,1.422 0.137,0.472 0.206,0.95 0.206,1.431 0,0.481 -0.069,0.956 -0.206,1.425 -0.136,0.469 -0.342,0.942 -0.619,1.422"
         style="fill:#000000;fill-opacity:1;fill-rule:nonzero;stroke:none;stroke-width:0.1"
         id="path743"
         inkscape:connector-curvature="0" />
      <path
         d="m 360.662,367.705 h 2.204 v -0.532 h -2.963 v 0.532 c 0.24,0.247 0.566,0.58 0.978,0.997 0.415,0.418 0.675,0.688 0.781,0.809 0.202,0.227 0.343,0.419 0.422,0.575 0.082,0.158 0.122,0.313 0.122,0.466 0,0.247 -0.087,0.45 -0.262,0.606 -0.173,0.156 -0.399,0.234 -0.678,0.234 -0.198,0 -0.408,-0.035 -0.628,-0.103 -0.219,-0.069 -0.454,-0.173 -0.704,-0.312 v 0.637 c 0.255,0.102 0.492,0.179 0.713,0.231 0.221,0.052 0.423,0.078 0.606,0.078 0.483,0 0.869,-0.121 1.156,-0.362 0.288,-0.242 0.432,-0.565 0.432,-0.969 0,-0.192 -0.037,-0.374 -0.11,-0.547 -0.07,-0.171 -0.201,-0.373 -0.39,-0.606 -0.052,-0.06 -0.218,-0.235 -0.497,-0.525 -0.28,-0.287 -0.673,-0.691 -1.182,-1.209"
         style="fill:#000000;fill-opacity:1;fill-rule:nonzero;stroke:none;stroke-width:0.1"
         id="path745"
         inkscape:connector-curvature="0" />
      <path
         d="m 362.027,373.176 h 1.68438 v 0.5125 H 362.027 Z"
         style="fill:#000000;fill-opacity:1;fill-rule:nonzero;stroke:none;stroke-width:0.1"
         id="path747"
         inkscape:connector-curvature="0" />
      <path
         d="m 365.018,376.345 h 0.631 v -4.341 c 0,-0.562 -0.108,-0.97 -0.322,-1.225 -0.213,-0.254 -0.555,-0.381 -1.028,-0.381 h -0.241 v 0.531 h 0.197 c 0.279,0 0.476,0.078 0.591,0.235 0.115,0.156 0.172,0.436 0.172,0.84 v 4.341"
         style="fill:#000000;fill-opacity:1;fill-rule:nonzero;stroke:none;stroke-width:0.1"
         id="path749"
         inkscape:connector-curvature="0" />
      <path
         d="m 367.175,372.368 c -0.162,0 -0.284,-0.081 -0.367,-0.241 -0.081,-0.159 -0.122,-0.4 -0.122,-0.72 0,-0.32 0.041,-0.561 0.122,-0.721 0.083,-0.159 0.205,-0.239 0.367,-0.239 0.164,0 0.286,0.08 0.368,0.239 0.082,0.16 0.123,0.401 0.123,0.721 0,0.32 -0.041,0.561 -0.123,0.72 -0.082,0.16 -0.204,0.241 -0.368,0.241 m 0,0.25 c 0.262,0 0.461,-0.104 0.599,-0.311 0.138,-0.207 0.208,-0.507 0.208,-0.9 0,-0.393 -0.07,-0.693 -0.208,-0.9 -0.138,-0.207 -0.337,-0.31 -0.599,-0.31 -0.261,0 -0.461,0.103 -0.6,0.31 -0.137,0.207 -0.206,0.507 -0.206,0.9 0,0.393 0.069,0.693 0.206,0.9 0.139,0.207 0.339,0.311 0.6,0.311"
         style="fill:#000000;fill-opacity:1;fill-rule:nonzero;stroke:none;stroke-width:0.1"
         id="path751"
         inkscape:connector-curvature="0" />
      <path
         d="M 113.047,379.206 V 375.2 h -0.525 v 4.006 h 0.525 m -1.275,0 V 375.2 h -0.531 v 4.006 h 0.531"
         style="fill:#000000;fill-opacity:1;fill-rule:nonzero;stroke:none;stroke-width:0.1"
         id="path753"
         inkscape:connector-curvature="0" />
      <path
         d="M 190.497,379.206 V 375.2 h -0.525 v 4.006 h 0.525 m -1.275,0 V 375.2 h -0.531 v 4.006 h 0.531"
         style="fill:#000000;fill-opacity:1;fill-rule:nonzero;stroke:none;stroke-width:0.1"
         id="path755"
         inkscape:connector-curvature="0" />
      <path
         d="M 273.972,379.206 V 375.2 h -0.525 v 4.006 h 0.525 m -1.275,0 V 375.2 h -0.531 v 4.006 h 0.531"
         style="fill:#000000;fill-opacity:1;fill-rule:nonzero;stroke:none;stroke-width:0.1"
         id="path757"
         inkscape:connector-curvature="0" />
      <path
         d="M 356.78,379.206 V 375.2 h -0.525 v 4.006 h 0.525 m -1.275,0 V 375.2 h -0.532 v 4.006 h 0.532"
         style="fill:#000000;fill-opacity:1;fill-rule:nonzero;stroke:none;stroke-width:0.1"
         id="path759"
         inkscape:connector-curvature="0" />
    </g>
  </g>
</svg>
