<?xml version="1.0" encoding="UTF-8" standalone="no"?>
<!-- Created with Inkscape (http://www.inkscape.org/) -->

<svg
   xmlns:dc="http://purl.org/dc/elements/1.1/"
   xmlns:cc="http://creativecommons.org/ns#"
   xmlns:rdf="http://www.w3.org/1999/02/22-rdf-syntax-ns#"
   xmlns:svg="http://www.w3.org/2000/svg"
   xmlns="http://www.w3.org/2000/svg"
   xmlns:sodipodi="http://sodipodi.sourceforge.net/DTD/sodipodi-0.dtd"
   xmlns:inkscape="http://www.inkscape.org/namespaces/inkscape"
   width="150.3289mm"
   height="99.278801mm"
   viewBox="0 0 150.3289 99.278801"
   version="1.1"
   id="svg3333"
   inkscape:version="0.92.5 (2060ec1f9f, 2020-04-08)"
   sodipodi:docname="fun_f0_3.svg">
  <defs
     id="defs3327" />
  <sodipodi:namedview
     id="base"
     pagecolor="#ffffff"
     bordercolor="#666666"
     borderopacity="1.0"
     inkscape:pageopacity="0.0"
     inkscape:pageshadow="2"
     inkscape:zoom="0.35"
     inkscape:cx="335.5147"
     inkscape:cy="53.327775"
     inkscape:document-units="mm"
     inkscape:current-layer="layer1"
     showgrid="false"
     fit-margin-top="0"
     fit-margin-left="0"
     fit-margin-right="0"
     fit-margin-bottom="0"
     inkscape:window-width="1364"
     inkscape:window-height="726"
     inkscape:window-x="1024"
     inkscape:window-y="20"
     inkscape:window-maximized="1" />
  <metadata
     id="metadata3330">
    <rdf:RDF>
      <cc:Work
         rdf:about="">
        <dc:format>image/svg+xml</dc:format>
        <dc:type
           rdf:resource="http://purl.org/dc/dcmitype/StillImage" />
        <dc:title></dc:title>
      </cc:Work>
    </rdf:RDF>
  </metadata>
  <g
     inkscape:label="Layer 1"
     inkscape:groupmode="layer"
     id="layer1"
     transform="translate(-17.061735,-63.664177)">
    <g
       transform="matrix(0.35277777,0,0,-0.35277777,16.800046,162.77568)"
       id="g3232">
      <path
         d="M 0.741797,110.339 H 420.529"
         style="fill:none;stroke:#000000;stroke-width:0.80000001;stroke-linecap:butt;stroke-linejoin:miter;stroke-miterlimit:10;stroke-dasharray:none;stroke-opacity:1"
         id="path215"
         inkscape:connector-curvature="0" />
      <path
         d="m 417.257,113.889 9.614,-3.536 -9.614,-3.535 c 1.536,2.087 1.527,4.943 0,7.071"
         style="fill:#000000;fill-opacity:1;fill-rule:evenodd;stroke:none;stroke-width:0.1"
         id="path217"
         inkscape:connector-curvature="0" />
      <path
         d="M 82.8742,116.865 V 103.813"
         style="fill:none;stroke:#000000;stroke-width:0.67652601;stroke-linecap:butt;stroke-linejoin:miter;stroke-miterlimit:10;stroke-dasharray:none;stroke-opacity:1"
         id="path219"
         inkscape:connector-curvature="0" />
      <path
         d="M 124.592,116.865 V 103.813"
         style="fill:none;stroke:#000000;stroke-width:0.67652601;stroke-linecap:butt;stroke-linejoin:miter;stroke-miterlimit:10;stroke-dasharray:none;stroke-opacity:1"
         id="path221"
         inkscape:connector-curvature="0" />
      <path
         d="M 333.182,116.865 V 103.813"
         style="fill:none;stroke:#000000;stroke-width:0.67652601;stroke-linecap:butt;stroke-linejoin:miter;stroke-miterlimit:10;stroke-dasharray:none;stroke-opacity:1"
         id="path223"
         inkscape:connector-curvature="0" />
      <path
         d="M 166.31,116.865 V 103.813"
         style="fill:none;stroke:#000000;stroke-width:0.67652601;stroke-linecap:butt;stroke-linejoin:miter;stroke-miterlimit:10;stroke-dasharray:none;stroke-opacity:1"
         id="path225"
         inkscape:connector-curvature="0" />
      <path
         d="M 208.028,116.865 V 103.813"
         style="fill:none;stroke:#000000;stroke-width:0.67652601;stroke-linecap:butt;stroke-linejoin:miter;stroke-miterlimit:10;stroke-dasharray:none;stroke-opacity:1"
         id="path227"
         inkscape:connector-curvature="0" />
      <path
         d="M 374.9,116.865 V 103.813"
         style="fill:none;stroke:#000000;stroke-width:0.67652601;stroke-linecap:butt;stroke-linejoin:miter;stroke-miterlimit:10;stroke-dasharray:none;stroke-opacity:1"
         id="path229"
         inkscape:connector-curvature="0" />
      <path
         d="M 291.464,116.865 V 103.813"
         style="fill:none;stroke:#000000;stroke-width:0.67652601;stroke-linecap:butt;stroke-linejoin:miter;stroke-miterlimit:10;stroke-dasharray:none;stroke-opacity:1"
         id="path231"
         inkscape:connector-curvature="0" />
      <path
         d="M 249.746,116.865 V 103.813"
         style="fill:none;stroke:#000000;stroke-width:0.67652601;stroke-linecap:butt;stroke-linejoin:miter;stroke-miterlimit:10;stroke-dasharray:none;stroke-opacity:1"
         id="path233"
         inkscape:connector-curvature="0" />
      <path
         d="M 47.6824,235.493 H 34.6301"
         style="fill:none;stroke:#000000;stroke-width:0.67652601;stroke-linecap:butt;stroke-linejoin:miter;stroke-miterlimit:10;stroke-dasharray:none;stroke-opacity:1"
         id="path235"
         inkscape:connector-curvature="0" />
      <path
         d="M 47.6824,193.775 H 34.6301"
         style="fill:none;stroke:#000000;stroke-width:0.67652601;stroke-linecap:butt;stroke-linejoin:miter;stroke-miterlimit:10;stroke-dasharray:none;stroke-opacity:1"
         id="path237"
         inkscape:connector-curvature="0" />
      <path
         d="M 47.6824,152.057 H 34.6301"
         style="fill:none;stroke:#000000;stroke-width:0.67652601;stroke-linecap:butt;stroke-linejoin:miter;stroke-miterlimit:10;stroke-dasharray:none;stroke-opacity:1"
         id="path239"
         inkscape:connector-curvature="0" />
      <path
         d="M 47.6824,68.6211 H 34.6301"
         style="fill:none;stroke:#000000;stroke-width:0.67652601;stroke-linecap:butt;stroke-linejoin:miter;stroke-miterlimit:10;stroke-dasharray:none;stroke-opacity:1"
         id="path241"
         inkscape:connector-curvature="0" />
      <path
         d="M 47.6824,26.9031 H 34.6301"
         style="fill:none;stroke:#000000;stroke-width:0.67652601;stroke-linecap:butt;stroke-linejoin:miter;stroke-miterlimit:10;stroke-dasharray:none;stroke-opacity:1"
         id="path243"
         inkscape:connector-curvature="0" />
      <path
         d="M 41.1562,-0.474219 V 274.604"
         style="fill:none;stroke:#000000;stroke-width:0.80000001;stroke-linecap:butt;stroke-linejoin:miter;stroke-miterlimit:10;stroke-dasharray:none;stroke-opacity:1"
         id="path245"
         inkscape:connector-curvature="0" />
      <path
         d="m 37.6066,271.331 3.5356,9.615 3.5355,-9.615 c -2.0875,1.536 -4.9433,1.527 -7.0711,0"
         style="fill:#000000;fill-opacity:1;fill-rule:evenodd;stroke:none;stroke-width:0.1"
         id="path247"
         inkscape:connector-curvature="0" />
      <path
         d="M 82.7871,1.41602 V 276.494"
         style="fill:none;stroke:#727272;stroke-width:0.80000001;stroke-linecap:butt;stroke-linejoin:miter;stroke-miterlimit:10;stroke-dasharray:0.8, 1.6;stroke-dashoffset:0;stroke-opacity:1"
         id="path249"
         inkscape:connector-curvature="0" />
      <path
         d="M 124.622,1.41602 V 276.494"
         style="fill:none;stroke:#727272;stroke-width:0.80000001;stroke-linecap:butt;stroke-linejoin:miter;stroke-miterlimit:10;stroke-dasharray:0.8, 1.6;stroke-dashoffset:0;stroke-opacity:1"
         id="path251"
         inkscape:connector-curvature="0" />
      <path
         d="M 166.224,1.41602 V 276.494"
         style="fill:none;stroke:#727272;stroke-width:0.80000001;stroke-linecap:butt;stroke-linejoin:miter;stroke-miterlimit:10;stroke-dasharray:0.8, 1.6;stroke-dashoffset:0;stroke-opacity:1"
         id="path253"
         inkscape:connector-curvature="0" />
      <path
         d="M 207.909,1.41602 V 276.494"
         style="fill:none;stroke:#727272;stroke-width:0.80000001;stroke-linecap:butt;stroke-linejoin:miter;stroke-miterlimit:10;stroke-dasharray:0.8, 1.6;stroke-dashoffset:0;stroke-opacity:1"
         id="path255"
         inkscape:connector-curvature="0" />
      <path
         d="M 249.677,1.41602 V 276.494"
         style="fill:none;stroke:#727272;stroke-width:0.80000001;stroke-linecap:butt;stroke-linejoin:miter;stroke-miterlimit:10;stroke-dasharray:0.8, 1.6;stroke-dashoffset:0;stroke-opacity:1"
         id="path257"
         inkscape:connector-curvature="0" />
      <path
         d="M 291.362,1.41602 V 276.494"
         style="fill:none;stroke:#727272;stroke-width:0.80000001;stroke-linecap:butt;stroke-linejoin:miter;stroke-miterlimit:10;stroke-dasharray:0.8, 1.6;stroke-dashoffset:0;stroke-opacity:1"
         id="path259"
         inkscape:connector-curvature="0" />
      <path
         d="M 333.13,1.41602 V 276.494"
         style="fill:none;stroke:#727272;stroke-width:0.80000001;stroke-linecap:butt;stroke-linejoin:miter;stroke-miterlimit:10;stroke-dasharray:0.8, 1.6;stroke-dashoffset:0;stroke-opacity:1"
         id="path261"
         inkscape:connector-curvature="0" />
      <path
         d="M 374.814,1.41602 V 276.494"
         style="fill:none;stroke:#727272;stroke-width:0.80000001;stroke-linecap:butt;stroke-linejoin:miter;stroke-miterlimit:10;stroke-dasharray:0.8, 1.6;stroke-dashoffset:0;stroke-opacity:1"
         id="path263"
         inkscape:connector-curvature="0" />
      <path
         d="M 43.0582,235.456 H 374.168"
         style="fill:none;stroke:#727272;stroke-width:0.80000001;stroke-linecap:butt;stroke-linejoin:miter;stroke-miterlimit:10;stroke-dasharray:0.8, 1.6;stroke-dashoffset:0;stroke-opacity:1"
         id="path265"
         inkscape:connector-curvature="0" />
      <path
         d="M 42.168,193.879 H 373.277"
         style="fill:none;stroke:#727272;stroke-width:0.80000001;stroke-linecap:butt;stroke-linejoin:miter;stroke-miterlimit:10;stroke-dasharray:0.8, 1.6;stroke-dashoffset:0;stroke-opacity:1"
         id="path267"
         inkscape:connector-curvature="0" />
      <path
         d="M 40.8582,152.194 H 371.968"
         style="fill:none;stroke:#727272;stroke-width:0.80000001;stroke-linecap:butt;stroke-linejoin:miter;stroke-miterlimit:10;stroke-dasharray:0.8, 1.6;stroke-dashoffset:0;stroke-opacity:1"
         id="path269"
         inkscape:connector-curvature="0" />
      <path
         d="M 42.0148,68.6809 H 373.124"
         style="fill:none;stroke:#727272;stroke-width:0.80000001;stroke-linecap:butt;stroke-linejoin:miter;stroke-miterlimit:10;stroke-dasharray:0.8, 1.6;stroke-dashoffset:0;stroke-opacity:1"
         id="path271"
         inkscape:connector-curvature="0" />
      <path
         d="M 42.4773,27.0402 H 373.587"
         style="fill:none;stroke:#727272;stroke-width:0.80000001;stroke-linecap:butt;stroke-linejoin:miter;stroke-miterlimit:10;stroke-dasharray:0.8, 1.6;stroke-dashoffset:0;stroke-opacity:1"
         id="path273"
         inkscape:connector-curvature="0" />
      <path
         d="M 41.3281,89.6906 H 82.9539"
         style="fill:none;stroke:#000000;stroke-width:1.60000002;stroke-linecap:butt;stroke-linejoin:miter;stroke-miterlimit:10;stroke-dasharray:none;stroke-opacity:1"
         id="path275"
         inkscape:connector-curvature="0" />
      <path
         d="M 82.3012,131.376 H 124.35"
         style="fill:none;stroke:#000000;stroke-width:1.60000002;stroke-linecap:butt;stroke-linejoin:miter;stroke-miterlimit:10;stroke-dasharray:none;stroke-opacity:1"
         id="path277"
         inkscape:connector-curvature="0" />
      <path
         d="m 124.076,173.145 c 0,0 31.765,0 42.171,0"
         style="fill:none;stroke:#000000;stroke-width:1.60000002;stroke-linecap:butt;stroke-linejoin:miter;stroke-miterlimit:10;stroke-dasharray:none;stroke-opacity:1"
         id="path279"
         inkscape:connector-curvature="0" />
      <path
         d="m 165.7,48.091 h 42.868"
         style="fill:none;stroke:#000000;stroke-width:1.60000002;stroke-linecap:butt;stroke-linejoin:miter;stroke-miterlimit:10;stroke-dasharray:none;stroke-opacity:1"
         id="path281"
         inkscape:connector-curvature="0" />
      <path
         d="m 207.779,152.388 h 41.838"
         style="fill:none;stroke:#000000;stroke-width:1.60000002;stroke-linecap:butt;stroke-linejoin:miter;stroke-miterlimit:10;stroke-dasharray:none;stroke-opacity:1"
         id="path283"
         inkscape:connector-curvature="0" />
      <path
         d="m 249.193,68.8059 h 42.261"
         style="fill:none;stroke:#000000;stroke-width:1.60000002;stroke-linecap:butt;stroke-linejoin:miter;stroke-miterlimit:10;stroke-dasharray:none;stroke-opacity:1"
         id="path285"
         inkscape:connector-curvature="0" />
      <path
         d="m 291.632,68.8906 h 41.837"
         style="fill:none;stroke:#000000;stroke-width:1.60000002;stroke-linecap:butt;stroke-linejoin:miter;stroke-miterlimit:10;stroke-dasharray:none;stroke-opacity:1"
         id="path287"
         inkscape:connector-curvature="0" />
      <path
         d="m 332.016,152.413 h 43.502"
         style="fill:none;stroke:#000000;stroke-width:1.60000002;stroke-linecap:butt;stroke-linejoin:miter;stroke-miterlimit:10;stroke-dasharray:none;stroke-opacity:1"
         id="path289"
         inkscape:connector-curvature="0" />
      <path
         d="M 83.0328,131.746 V 89.152"
         style="fill:none;stroke:#000000;stroke-width:1.60000002;stroke-linecap:butt;stroke-linejoin:miter;stroke-miterlimit:10;stroke-dasharray:none;stroke-opacity:1"
         id="path291"
         inkscape:connector-curvature="0" />
      <path
         d="m 124.485,173.596 c 0,-10.566 0,-42.267 0,-42.267"
         style="fill:none;stroke:#000000;stroke-width:1.60000002;stroke-linecap:butt;stroke-linejoin:miter;stroke-miterlimit:10;stroke-dasharray:none;stroke-opacity:1"
         id="path293"
         inkscape:connector-curvature="0" />
      <path
         d="M 166.205,173.848 V 47.9312"
         style="fill:none;stroke:#000000;stroke-width:1.60000002;stroke-linecap:butt;stroke-linejoin:miter;stroke-miterlimit:10;stroke-dasharray:none;stroke-opacity:1"
         id="path295"
         inkscape:connector-curvature="0" />
      <path
         d="M 207.91,153.349 V 47.9965"
         style="fill:none;stroke:#000000;stroke-width:1.60000002;stroke-linecap:butt;stroke-linejoin:miter;stroke-miterlimit:10;stroke-dasharray:none;stroke-opacity:1"
         id="path297"
         inkscape:connector-curvature="0" />
      <path
         d="M 249.622,153.121 V 68.2199"
         style="fill:none;stroke:#000000;stroke-width:1.60000002;stroke-linecap:butt;stroke-linejoin:miter;stroke-miterlimit:10;stroke-dasharray:none;stroke-opacity:1"
         id="path299"
         inkscape:connector-curvature="0" />
      <path
         d="M 332.933,152.972 V 67.8688"
         style="fill:none;stroke:#000000;stroke-width:1.60000002;stroke-linecap:butt;stroke-linejoin:miter;stroke-miterlimit:10;stroke-dasharray:none;stroke-opacity:1"
         id="path301"
         inkscape:connector-curvature="0" />
      <path
         d="m 23.5395,263.409 h 2.2957 v 7.923 l -2.4973,-0.5 v 1.28 l 2.4836,0.5 h 1.4051 v -9.203 h 2.2957 v -1.183 h -5.9828 v 1.183"
         style="fill:#000000;fill-opacity:1;fill-rule:nonzero;stroke:none;stroke-width:0.1"
         id="path761"
         inkscape:connector-curvature="0" />
      <path
         d="m 21.623,251.592 c 0,-0.667 -0.1542,-1.433 -0.4582,-2.304 -0.3043,-0.87 -0.8582,-1.641 -1.6578,-2.311 -0.8039,-0.671 -1.8871,-1.009 -3.2535,-1.009 -0.9246,0 -1.7535,0.217 -2.4824,0.654 -0.7289,0.433 -1.2914,1.025 -1.6953,1.775 -0.4043,0.749 -0.6043,1.566 -0.6043,2.453 0,1.071 0.1875,1.979 0.5668,2.72 0.3789,0.742 0.8246,1.309 1.3371,1.708 0.5121,0.4 1.0121,0.704 1.4996,0.917 0.4871,0.208 0.8953,0.383 1.2203,0.525 -0.0582,0.054 -0.3539,0.325 -0.8957,0.803 -0.5414,0.479 -0.9789,0.888 -1.3121,1.221 -0.3332,0.333 -0.6246,0.695 -0.8664,1.087 -0.2457,0.392 -0.3664,0.767 -0.3664,1.133 0,0.683 0.2914,1.246 0.8707,1.679 0.5828,0.437 1.3828,0.654 2.3992,0.654 0.3832,0 0.9414,-0.063 1.6785,-0.183 0.7375,-0.121 1.4121,-0.355 2.0246,-0.705 0.6164,-0.345 0.9203,-0.804 0.9203,-1.37 0,-0.579 -0.3414,-0.866 -1.0246,-0.866 -0.3414,0 -0.6164,0.07 -0.8203,0.212 -0.2086,0.142 -0.5332,0.404 -0.9707,0.792 -0.4414,0.387 -0.8539,0.678 -1.2414,0.874 -0.3875,0.196 -0.8414,0.292 -1.3703,0.292 -0.4875,0 -0.8289,-0.167 -1.0125,-0.496 -0.1871,-0.329 -0.2832,-0.6 -0.2832,-0.808 0,-0.475 0.4168,-1 1.2457,-1.583 0.8289,-0.579 1.7746,-1.233 2.8324,-1.949 1.0539,-0.721 1.941,-1.558 2.6535,-2.508 0.7122,-0.954 1.0664,-2.087 1.0664,-3.407 z m -2.3535,-0.671 c 0,0.75 -0.1,1.429 -0.3043,2.037 -0.2039,0.612 -0.4457,1.125 -0.7207,1.546 -0.2789,0.42 -0.5371,0.745 -0.7828,0.982 -0.2418,0.234 -0.3793,0.355 -0.4125,0.355 -0.8789,0 -1.6328,-0.529 -2.2578,-1.587 -0.6289,-1.059 -0.9414,-2.025 -0.9414,-2.904 0,-0.862 0.15,-1.624 0.4457,-2.282 0.2957,-0.659 0.6582,-1.167 1.0789,-1.521 0.425,-0.354 0.8332,-0.529 1.2207,-0.529 0.4957,0 0.9539,0.183 1.366,0.554 0.4168,0.371 0.7375,0.862 0.9664,1.471 0.2293,0.612 0.3418,1.237 0.3418,1.878 v 0"
         style="fill:#000000;fill-opacity:1;fill-rule:nonzero;stroke:none;stroke-width:0.1"
         id="path763"
         inkscape:connector-curvature="0" />
      <path
         d="m 60.875,101.625 h 0.7734 v 2.67 l -0.8414,-0.169 v 0.431 l 0.8368,0.169 h 0.4734 v -3.101 h 0.7734 v -0.398 H 60.875 v 0.398"
         style="fill:#000000;fill-opacity:1;fill-rule:nonzero;stroke:none;stroke-width:0.1"
         id="path765"
         inkscape:connector-curvature="0" />
      <path
         d="m 60.5379,93.6102 h 0.43125 v 3.64688 H 60.5379 Z"
         style="fill:#000000;fill-opacity:1;fill-rule:nonzero;stroke:none;stroke-width:0.1"
         id="path767"
         inkscape:connector-curvature="0" />
      <path
         d="m 61.6512,94.7328 h 1.26328 v 0.384375 H 61.6512 Z"
         style="fill:#000000;fill-opacity:1;fill-rule:nonzero;stroke:none;stroke-width:0.1"
         id="path769"
         inkscape:connector-curvature="0" />
      <path
         d="m 64.0723,94.0086 h 1.6523 v -0.3984 h -2.2219 v 0.3984 c 0.1797,0.1859 0.4243,0.4352 0.7336,0.7476 0.311,0.3141 0.5063,0.5165 0.586,0.6071 0.1515,0.1703 0.257,0.314 0.3164,0.4312 0.0609,0.1188 0.0914,0.2352 0.0914,0.3493 0,0.1859 -0.0656,0.3374 -0.1969,0.4546 -0.1297,0.1172 -0.2992,0.1758 -0.5086,0.1758 -0.1484,0 -0.3055,-0.0258 -0.4711,-0.0773 -0.164,-0.0516 -0.3398,-0.1297 -0.5273,-0.2344 v 0.4781 c 0.1906,0.0766 0.3687,0.1344 0.5343,0.1735 0.1657,0.039 0.3172,0.0586 0.4547,0.0586 0.3625,0 0.6516,-0.0907 0.8672,-0.2719 0.2156,-0.1813 0.3235,-0.4235 0.3235,-0.7266 0,-0.1437 -0.0274,-0.2804 -0.0821,-0.4101 C 65.5707,95.6359 65.473,95.4844 65.3309,95.3094 65.2918,95.2641 65.1676,95.1328 64.9582,94.9156 64.7488,94.7 64.4535,94.3977 64.0723,94.0086"
         style="fill:#000000;fill-opacity:1;fill-rule:nonzero;stroke:none;stroke-width:0.1"
         id="path771"
         inkscape:connector-curvature="0" />
      <path
         d="m 59.3395,98.05 c 0,-0.3 -0.0692,-0.6449 -0.2063,-1.0367 -0.1367,-0.3922 -0.3863,-0.7391 -0.7465,-1.041 -0.3617,-0.302 -0.8492,-0.4539 -1.4644,-0.4539 -0.4164,0 -0.7895,0.0976 -1.1176,0.2945 -0.3285,0.1949 -0.5817,0.4613 -0.7633,0.7988 -0.182,0.3375 -0.2719,0.7051 -0.2719,1.1047 0,0.482 0.0844,0.8906 0.2547,1.2246 0.1707,0.3336 0.3715,0.5887 0.6024,0.7688 0.2304,0.18 0.4554,0.3172 0.675,0.4122 0.2195,0.094 0.4031,0.173 0.5492,0.237 -0.0262,0.024 -0.1594,0.146 -0.4031,0.362 -0.2438,0.215 -0.4407,0.399 -0.5907,0.549 -0.15,0.15 -0.2812,0.313 -0.3902,0.489 -0.1106,0.177 -0.1648,0.346 -0.1648,0.511 0,0.307 0.1312,0.56 0.3918,0.755 0.2624,0.197 0.6226,0.295 1.0804,0.295 0.1723,0 0.4238,-0.028 0.7555,-0.083 0.332,-0.054 0.6359,-0.159 0.9117,-0.317 0.2774,-0.155 0.4145,-0.361 0.4145,-0.616 0,-0.261 -0.1539,-0.391 -0.4614,-0.391 -0.1539,0 -0.2777,0.032 -0.3695,0.096 -0.0938,0.064 -0.2402,0.182 -0.4371,0.356 -0.1988,0.175 -0.3844,0.306 -0.5586,0.394 -0.1746,0.088 -0.3789,0.131 -0.6172,0.131 -0.2195,0 -0.373,-0.075 -0.4559,-0.223 -0.0843,-0.148 -0.1273,-0.27 -0.1273,-0.363 0,-0.215 0.1875,-0.451 0.5606,-0.713 0.3734,-0.261 0.7992,-0.555 1.2753,-0.878 0.4747,-0.324 0.8739,-0.701 1.1946,-1.129 0.3207,-0.4293 0.4801,-0.9395 0.4801,-1.534 z m -1.0594,-0.302 c 0,0.3379 -0.0453,0.6434 -0.1371,0.9172 -0.0918,0.2758 -0.2004,0.5063 -0.3242,0.6957 -0.1258,0.1895 -0.2422,0.3356 -0.3528,0.4426 -0.1086,0.1051 -0.1707,0.1594 -0.1855,0.1594 -0.3957,0 -0.7352,-0.2383 -1.0164,-0.7145 -0.2832,-0.4761 -0.4239,-0.9113 -0.4239,-1.307 0,-0.3883 0.0676,-0.7312 0.2008,-1.0277 0.1328,-0.2961 0.2961,-0.525 0.4856,-0.6844 0.1914,-0.1594 0.375,-0.2383 0.5496,-0.2383 0.223,0 0.4293,0.0824 0.6148,0.2496 0.1875,0.1668 0.332,0.3879 0.4352,0.6617 0.1031,0.2758 0.1539,0.5571 0.1539,0.8457 v 0"
         style="fill:#000000;fill-opacity:1;fill-rule:nonzero;stroke:none;stroke-width:0.1"
         id="path773"
         inkscape:connector-curvature="0" />
      <path
         d="m 103.333,142.591 h 0.773 v 2.67 l -0.841,-0.169 v 0.431 l 0.837,0.169 h 0.473 v -3.101 h 0.773 v -0.398 h -2.015 v 0.398"
         style="fill:#000000;fill-opacity:1;fill-rule:nonzero;stroke:none;stroke-width:0.1"
         id="path775"
         inkscape:connector-curvature="0" />
      <path
         d="m 102.996,134.577 h 0.43125 v 3.64688 H 102.996 Z"
         style="fill:#000000;fill-opacity:1;fill-rule:nonzero;stroke:none;stroke-width:0.1"
         id="path777"
         inkscape:connector-curvature="0" />
      <path
         d="m 104.109,135.699 h 1.26328 v 0.38438 H 104.109 Z"
         style="fill:#000000;fill-opacity:1;fill-rule:nonzero;stroke:none;stroke-width:0.1"
         id="path779"
         inkscape:connector-curvature="0" />
      <path
         d="m 106.204,134.975 h 0.774 v 2.67 l -0.842,-0.169 v 0.431 l 0.837,0.169 h 0.473 v -3.101 h 0.774 v -0.398 h -2.016 v 0.398"
         style="fill:#000000;fill-opacity:1;fill-rule:nonzero;stroke:none;stroke-width:0.1"
         id="path781"
         inkscape:connector-curvature="0" />
      <path
         d="m 101.797,139.016 c 0,-0.3 -0.069,-0.645 -0.206,-1.036 -0.137,-0.392 -0.386,-0.739 -0.746,-1.041 -0.362,-0.302 -0.8497,-0.454 -1.4649,-0.454 -0.4164,0 -0.7895,0.097 -1.1176,0.294 -0.3281,0.195 -0.5816,0.462 -0.7633,0.799 -0.182,0.338 -0.2719,0.705 -0.2719,1.105 0,0.482 0.0844,0.89 0.2551,1.224 0.1703,0.334 0.3711,0.589 0.602,0.769 0.2304,0.18 0.4554,0.317 0.675,0.413 0.2195,0.093 0.4031,0.172 0.5496,0.236 -0.0266,0.025 -0.1594,0.146 -0.4035,0.362 -0.2438,0.216 -0.4407,0.399 -0.5907,0.549 -0.15,0.15 -0.2812,0.314 -0.3898,0.49 -0.1109,0.176 -0.1652,0.345 -0.1652,0.51 0,0.308 0.1312,0.561 0.3918,0.756 0.2629,0.197 0.6226,0.294 1.0804,0.294 0.1723,0 0.4239,-0.028 0.7555,-0.082 0.3325,-0.055 0.6355,-0.16 0.9115,-0.317 0.278,-0.156 0.415,-0.362 0.415,-0.617 0,-0.261 -0.154,-0.39 -0.462,-0.39 -0.154,0 -0.277,0.032 -0.369,0.095 -0.094,0.064 -0.24,0.182 -0.437,0.357 -0.1991,0.174 -0.3847,0.306 -0.5589,0.393 -0.1746,0.089 -0.3789,0.132 -0.6172,0.132 -0.2191,0 -0.373,-0.075 -0.4554,-0.223 -0.0844,-0.148 -0.1278,-0.27 -0.1278,-0.364 0,-0.214 0.1875,-0.45 0.561,-0.713 0.373,-0.261 0.7988,-0.555 1.2753,-0.877 0.474,-0.325 0.873,-0.702 1.194,-1.13 0.321,-0.429 0.48,-0.939 0.48,-1.534 z m -1.059,-0.302 c 0,0.338 -0.045,0.644 -0.137,0.918 -0.092,0.275 -0.201,0.506 -0.324,0.695 -0.126,0.19 -0.242,0.336 -0.3532,0.443 -0.1086,0.105 -0.1707,0.159 -0.1855,0.159 -0.3957,0 -0.7352,-0.238 -1.0164,-0.714 -0.2832,-0.476 -0.4239,-0.911 -0.4239,-1.307 0,-0.388 0.0676,-0.731 0.2008,-1.028 0.1328,-0.296 0.2961,-0.525 0.4856,-0.684 0.1914,-0.16 0.375,-0.239 0.5496,-0.239 0.223,0 0.4293,0.083 0.615,0.25 0.187,0.167 0.332,0.388 0.435,0.662 0.103,0.276 0.154,0.557 0.154,0.845 v 0"
         style="fill:#000000;fill-opacity:1;fill-rule:nonzero;stroke:none;stroke-width:0.1"
         id="path783"
         inkscape:connector-curvature="0" />
      <path
         d="m 146.792,185.016 h 0.774 v 2.669 l -0.842,-0.169 v 0.432 l 0.837,0.168 h 0.473 v -3.1 h 0.774 v -0.399 h -2.016 v 0.399"
         style="fill:#000000;fill-opacity:1;fill-rule:nonzero;stroke:none;stroke-width:0.1"
         id="path785"
         inkscape:connector-curvature="0" />
      <path
         d="m 146.455,177 h 0.43125 v 3.64688 H 146.455 Z"
         style="fill:#000000;fill-opacity:1;fill-rule:nonzero;stroke:none;stroke-width:0.1"
         id="path787"
         inkscape:connector-curvature="0" />
      <path
         d="m 145.257,181.441 c 0,-0.3 -0.07,-0.646 -0.207,-1.037 -0.137,-0.392 -0.386,-0.739 -0.746,-1.041 -0.362,-0.302 -0.85,-0.454 -1.465,-0.454 -0.416,0 -0.789,0.097 -1.118,0.295 -0.328,0.194 -0.581,0.461 -0.763,0.798 -0.181,0.338 -0.272,0.705 -0.272,1.105 0,0.482 0.085,0.891 0.255,1.224 0.171,0.334 0.372,0.589 0.602,0.769 0.231,0.18 0.456,0.317 0.676,0.413 0.219,0.094 0.403,0.172 0.549,0.236 -0.026,0.024 -0.159,0.146 -0.403,0.362 -0.244,0.216 -0.441,0.4 -0.591,0.55 -0.15,0.15 -0.281,0.313 -0.39,0.489 -0.111,0.176 -0.165,0.345 -0.165,0.51 0,0.308 0.131,0.561 0.392,0.756 0.262,0.197 0.623,0.294 1.08,0.294 0.173,0 0.424,-0.028 0.756,-0.082 0.332,-0.055 0.636,-0.16 0.911,-0.317 0.278,-0.156 0.415,-0.362 0.415,-0.617 0,-0.261 -0.154,-0.39 -0.462,-0.39 -0.153,0 -0.277,0.032 -0.369,0.095 -0.094,0.064 -0.24,0.182 -0.437,0.357 -0.199,0.174 -0.384,0.305 -0.559,0.394 -0.174,0.088 -0.378,0.131 -0.617,0.131 -0.219,0 -0.373,-0.075 -0.456,-0.224 -0.084,-0.148 -0.127,-0.269 -0.127,-0.363 0,-0.214 0.188,-0.45 0.561,-0.713 0.373,-0.26 0.798,-0.555 1.275,-0.877 0.474,-0.325 0.874,-0.702 1.195,-1.129 0.32,-0.43 0.48,-0.94 0.48,-1.534 z m -1.06,-0.302 c 0,0.337 -0.045,0.643 -0.137,0.917 -0.092,0.275 -0.201,0.506 -0.324,0.696 -0.126,0.189 -0.242,0.335 -0.353,0.442 -0.109,0.105 -0.171,0.16 -0.185,0.16 -0.396,0 -0.736,-0.239 -1.017,-0.715 -0.283,-0.477 -0.424,-0.912 -0.424,-1.307 0,-0.388 0.068,-0.732 0.201,-1.028 0.133,-0.296 0.296,-0.525 0.486,-0.684 0.191,-0.16 0.375,-0.238 0.549,-0.238 0.223,0 0.43,0.082 0.615,0.249 0.188,0.167 0.332,0.388 0.435,0.662 0.103,0.276 0.154,0.557 0.154,0.846 v 0"
         style="fill:#000000;fill-opacity:1;fill-rule:nonzero;stroke:none;stroke-width:0.1"
         id="path789"
         inkscape:connector-curvature="0" />
      <path
         d="m 185.79,59.5883 h 0.774 v 2.6695 l -0.842,-0.1687 v 0.4312 l 0.837,0.1688 h 0.473 v -3.1008 h 0.774 v -0.3985 h -2.016 v 0.3985"
         style="fill:#000000;fill-opacity:1;fill-rule:nonzero;stroke:none;stroke-width:0.1"
         id="path791"
         inkscape:connector-curvature="0" />
      <path
         d="m 185.453,51.573 h 0.43125 v 3.64688 H 185.453 Z"
         style="fill:#000000;fill-opacity:1;fill-rule:nonzero;stroke:none;stroke-width:0.1"
         id="path793"
         inkscape:connector-curvature="0" />
      <path
         d="M 188.54,54.5824 V 53.277 h 1.305 V 52.8785 H 188.54 V 51.573 h -0.394 v 1.3055 h -1.305 v 0.3985 h 1.305 v 1.3054 h 0.394"
         style="fill:#000000;fill-opacity:1;fill-rule:nonzero;stroke:none;stroke-width:0.1"
         id="path795"
         inkscape:connector-curvature="0" />
      <path
         d="m 190.949,51.9715 h 0.774 v 2.6695 l -0.842,-0.1687 v 0.4312 l 0.837,0.1688 h 0.473 v -3.1008 h 0.774 V 51.573 h -2.016 v 0.3985"
         style="fill:#000000;fill-opacity:1;fill-rule:nonzero;stroke:none;stroke-width:0.1"
         id="path797"
         inkscape:connector-curvature="0" />
      <path
         d="m 184.255,56.0133 c 0,-0.3 -0.069,-0.6453 -0.206,-1.0371 -0.137,-0.3918 -0.387,-0.7387 -0.747,-1.0407 -0.362,-0.3019 -0.849,-0.4539 -1.464,-0.4539 -0.417,0 -0.79,0.0973 -1.118,0.2946 -0.328,0.1949 -0.581,0.4613 -0.763,0.7988 -0.182,0.3375 -0.272,0.7051 -0.272,1.1043 0,0.482 0.084,0.891 0.255,1.2246 0.171,0.334 0.371,0.5891 0.602,0.7691 0.231,0.1797 0.456,0.3168 0.675,0.4125 0.219,0.0938 0.403,0.1723 0.549,0.2364 -0.026,0.0242 -0.159,0.1461 -0.403,0.3617 -0.243,0.2156 -0.44,0.3996 -0.59,0.5496 -0.151,0.15 -0.282,0.3133 -0.391,0.4895 -0.11,0.1761 -0.164,0.3449 -0.164,0.5101 0,0.3074 0.131,0.5606 0.391,0.7555 0.263,0.1972 0.623,0.2945 1.08,0.2945 0.173,0 0.424,-0.0281 0.756,-0.0824 0.332,-0.0543 0.636,-0.1594 0.912,-0.3168 0.277,-0.1559 0.414,-0.3621 0.414,-0.6172 0,-0.2605 -0.154,-0.3898 -0.461,-0.3898 -0.154,0 -0.278,0.0316 -0.37,0.0953 -0.094,0.064 -0.24,0.182 -0.436,0.3566 -0.199,0.1742 -0.385,0.3055 -0.559,0.3938 -0.175,0.0879 -0.379,0.1312 -0.617,0.1312 -0.22,0 -0.374,-0.075 -0.456,-0.2234 -0.084,-0.1481 -0.127,-0.2699 -0.127,-0.3637 0,-0.2137 0.187,-0.45 0.56,-0.7125 0.373,-0.2605 0.799,-0.5551 1.275,-0.8777 0.475,-0.3246 0.874,-0.7012 1.195,-1.1289 0.321,-0.4293 0.48,-0.9395 0.48,-1.534 z m -1.06,-0.302 c 0,0.3375 -0.045,0.6434 -0.136,0.9172 -0.092,0.2754 -0.201,0.5063 -0.325,0.6957 -0.125,0.1895 -0.242,0.3356 -0.352,0.4426 -0.109,0.1047 -0.171,0.1594 -0.186,0.1594 -0.396,0 -0.735,-0.2383 -1.017,-0.7145 -0.283,-0.4765 -0.424,-0.9117 -0.424,-1.3074 0,-0.3879 0.068,-0.7313 0.201,-1.0273 0.133,-0.2965 0.297,-0.5254 0.486,-0.6848 0.191,-0.1594 0.375,-0.2379 0.549,-0.2379 0.223,0 0.43,0.0824 0.616,0.2492 0.187,0.1668 0.332,0.3883 0.435,0.6621 0.103,0.2758 0.153,0.5571 0.153,0.8457 v 0"
         style="fill:#000000;fill-opacity:1;fill-rule:nonzero;stroke:none;stroke-width:0.1"
         id="path799"
         inkscape:connector-curvature="0" />
      <path
         d="m 227.334,164.199 h 0.773 v 2.669 l -0.841,-0.168 v 0.431 l 0.837,0.169 h 0.473 v -3.101 h 0.774 V 163.8 h -2.016 v 0.399"
         style="fill:#000000;fill-opacity:1;fill-rule:nonzero;stroke:none;stroke-width:0.1"
         id="path801"
         inkscape:connector-curvature="0" />
      <path
         d="m 226.997,156.184 h 0.43125 v 3.64688 H 226.997 Z"
         style="fill:#000000;fill-opacity:1;fill-rule:nonzero;stroke:none;stroke-width:0.1"
         id="path803"
         inkscape:connector-curvature="0" />
      <path
         d="m 230.084,159.193 v -1.305 h 1.305 v -0.399 h -1.305 v -1.305 h -0.394 v 1.305 h -1.306 v 0.399 h 1.306 v 1.305 h 0.394"
         style="fill:#000000;fill-opacity:1;fill-rule:nonzero;stroke:none;stroke-width:0.1"
         id="path805"
         inkscape:connector-curvature="0" />
      <path
         d="m 232.819,156.582 h 1.652 v -0.398 h -2.222 v 0.398 c 0.18,0.186 0.424,0.435 0.734,0.748 0.311,0.314 0.506,0.516 0.586,0.607 0.151,0.17 0.257,0.314 0.316,0.431 0.061,0.119 0.092,0.235 0.092,0.349 0,0.186 -0.066,0.338 -0.197,0.455 -0.13,0.117 -0.3,0.176 -0.509,0.176 -0.148,0 -0.305,-0.026 -0.471,-0.078 -0.164,-0.051 -0.34,-0.129 -0.527,-0.234 v 0.478 c 0.19,0.077 0.368,0.134 0.534,0.174 0.166,0.039 0.317,0.058 0.455,0.058 0.362,0 0.651,-0.091 0.867,-0.272 0.216,-0.181 0.323,-0.423 0.323,-0.726 0,-0.144 -0.027,-0.281 -0.082,-0.41 -0.053,-0.129 -0.15,-0.28 -0.293,-0.455 -0.039,-0.045 -0.163,-0.177 -0.372,-0.394 -0.21,-0.216 -0.505,-0.518 -0.886,-0.907"
         style="fill:#000000;fill-opacity:1;fill-rule:nonzero;stroke:none;stroke-width:0.1"
         id="path807"
         inkscape:connector-curvature="0" />
      <path
         d="m 225.798,160.624 c 0,-0.3 -0.069,-0.645 -0.206,-1.037 -0.137,-0.392 -0.386,-0.739 -0.746,-1.041 -0.362,-0.302 -0.85,-0.454 -1.465,-0.454 -0.416,0 -0.789,0.097 -1.117,0.295 -0.328,0.195 -0.582,0.461 -0.764,0.799 -0.182,0.337 -0.271,0.705 -0.271,1.104 0,0.482 0.084,0.891 0.255,1.224 0.17,0.334 0.371,0.59 0.602,0.77 0.23,0.179 0.455,0.316 0.675,0.412 0.219,0.094 0.403,0.172 0.549,0.236 -0.026,0.025 -0.159,0.147 -0.403,0.362 -0.244,0.216 -0.441,0.4 -0.591,0.55 -0.15,0.15 -0.281,0.313 -0.39,0.489 -0.11,0.176 -0.165,0.345 -0.165,0.51 0,0.308 0.131,0.561 0.392,0.756 0.263,0.197 0.623,0.294 1.08,0.294 0.173,0 0.424,-0.028 0.756,-0.082 0.332,-0.054 0.636,-0.159 0.911,-0.317 0.278,-0.156 0.415,-0.362 0.415,-0.617 0,-0.261 -0.154,-0.39 -0.461,-0.39 -0.154,0 -0.278,0.032 -0.37,0.095 -0.094,0.064 -0.24,0.182 -0.437,0.357 -0.199,0.174 -0.385,0.306 -0.559,0.394 -0.174,0.088 -0.379,0.131 -0.617,0.131 -0.219,0 -0.373,-0.075 -0.455,-0.223 -0.085,-0.148 -0.128,-0.27 -0.128,-0.364 0,-0.214 0.187,-0.45 0.561,-0.713 0.373,-0.26 0.799,-0.555 1.275,-0.877 0.474,-0.325 0.874,-0.701 1.194,-1.129 0.321,-0.429 0.48,-0.94 0.48,-1.534 z m -1.059,-0.302 c 0,0.337 -0.045,0.643 -0.137,0.917 -0.092,0.275 -0.2,0.506 -0.324,0.696 -0.126,0.189 -0.242,0.335 -0.353,0.442 -0.109,0.105 -0.17,0.16 -0.186,0.16 -0.395,0 -0.735,-0.239 -1.016,-0.715 -0.283,-0.476 -0.424,-0.911 -0.424,-1.307 0,-0.388 0.068,-0.731 0.201,-1.027 0.133,-0.297 0.296,-0.526 0.486,-0.685 0.191,-0.16 0.375,-0.238 0.549,-0.238 0.223,0 0.429,0.082 0.615,0.249 0.188,0.167 0.332,0.388 0.435,0.662 0.103,0.276 0.154,0.557 0.154,0.846 v 0"
         style="fill:#000000;fill-opacity:1;fill-rule:nonzero;stroke:none;stroke-width:0.1"
         id="path809"
         inkscape:connector-curvature="0" />
      <path
         d="m 269.777,80.932 h 0.773 v 2.6696 l -0.841,-0.1688 v 0.4313 l 0.836,0.1687 h 0.474 V 80.932 h 0.773 v -0.3984 h -2.015 v 0.3984"
         style="fill:#000000;fill-opacity:1;fill-rule:nonzero;stroke:none;stroke-width:0.1"
         id="path811"
         inkscape:connector-curvature="0" />
      <path
         d="m 269.439,72.9168 h 0.43125 v 3.64688 H 269.439 Z"
         style="fill:#000000;fill-opacity:1;fill-rule:nonzero;stroke:none;stroke-width:0.1"
         id="path813"
         inkscape:connector-curvature="0" />
      <path
         d="m 272.526,75.9262 v -1.3055 h 1.306 v -0.3984 h -1.306 v -1.3055 h -0.394 v 1.3055 h -1.305 v 0.3984 h 1.305 v 1.3055 h 0.394"
         style="fill:#000000;fill-opacity:1;fill-rule:nonzero;stroke:none;stroke-width:0.1"
         id="path815"
         inkscape:connector-curvature="0" />
      <path
         d="m 276.288,74.8035 c 0.226,-0.0484 0.403,-0.1492 0.53,-0.3023 0.128,-0.1532 0.192,-0.3422 0.192,-0.5672 0,-0.3453 -0.119,-0.6125 -0.356,-0.8016 -0.238,-0.189 -0.575,-0.2836 -1.013,-0.2836 -0.147,0 -0.298,0.0149 -0.455,0.0446 -0.154,0.0281 -0.315,0.0711 -0.48,0.1289 v 0.457 c 0.131,-0.0766 0.275,-0.1344 0.431,-0.1734 0.156,-0.0391 0.32,-0.0586 0.49,-0.0586 0.297,0 0.523,0.0586 0.677,0.1757 0.157,0.1172 0.235,0.2875 0.235,0.511 0,0.2062 -0.073,0.3672 -0.218,0.4828 -0.144,0.1172 -0.345,0.1758 -0.603,0.1758 h -0.407 v 0.389 h 0.426 c 0.233,0 0.411,0.0461 0.534,0.1383 0.124,0.0938 0.186,0.2281 0.186,0.4031 0,0.1797 -0.064,0.3172 -0.193,0.4125 -0.126,0.0969 -0.308,0.1454 -0.546,0.1454 -0.129,0 -0.268,-0.0141 -0.417,-0.0422 -0.148,-0.0282 -0.312,-0.0719 -0.49,-0.1313 v 0.4219 c 0.18,0.05 0.348,0.0875 0.504,0.1125 0.158,0.025 0.306,0.0375 0.446,0.0375 0.359,0 0.643,-0.082 0.853,-0.2461 0.209,-0.1625 0.314,-0.3828 0.314,-0.6609 0,-0.1938 -0.056,-0.3578 -0.167,-0.4922 -0.111,-0.1328 -0.268,-0.225 -0.473,-0.2766"
         style="fill:#000000;fill-opacity:1;fill-rule:nonzero;stroke:none;stroke-width:0.1"
         id="path817"
         inkscape:connector-curvature="0" />
      <path
         d="m 268.241,77.357 c 0,-0.3 -0.069,-0.6453 -0.206,-1.0371 -0.137,-0.3918 -0.386,-0.7387 -0.746,-1.0406 -0.362,-0.302 -0.85,-0.4539 -1.465,-0.4539 -0.416,0 -0.79,0.0973 -1.118,0.2945 -0.328,0.1949 -0.581,0.4613 -0.763,0.7989 -0.182,0.3374 -0.272,0.705 -0.272,1.1042 0,0.4821 0.084,0.8911 0.255,1.2247 0.171,0.3339 0.372,0.589 0.602,0.7691 0.231,0.1797 0.456,0.3168 0.675,0.4125 0.22,0.0937 0.403,0.1723 0.55,0.2363 -0.026,0.0242 -0.16,0.1461 -0.403,0.3617 -0.244,0.2157 -0.441,0.3997 -0.591,0.5497 -0.15,0.15 -0.282,0.3132 -0.39,0.4894 -0.111,0.1762 -0.165,0.3449 -0.165,0.5102 0,0.3074 0.131,0.5605 0.392,0.7554 0.262,0.1973 0.622,0.2946 1.08,0.2946 0.172,0 0.424,-0.0282 0.756,-0.0825 0.332,-0.0543 0.635,-0.1593 0.911,-0.3168 0.278,-0.1558 0.414,-0.3621 0.414,-0.6171 0,-0.2606 -0.153,-0.3899 -0.461,-0.3899 -0.154,0 -0.277,0.0317 -0.369,0.0953 -0.094,0.0641 -0.24,0.1821 -0.437,0.3567 -0.199,0.1742 -0.385,0.3054 -0.559,0.3937 -0.174,0.0879 -0.379,0.1313 -0.617,0.1313 -0.219,0 -0.373,-0.075 -0.456,-0.2235 -0.084,-0.148 -0.127,-0.2699 -0.127,-0.3636 0,-0.2137 0.187,-0.45 0.56,-0.7125 0.373,-0.2606 0.799,-0.5551 1.276,-0.8778 0.474,-0.3246 0.874,-0.7011 1.194,-1.1289 0.321,-0.4293 0.48,-0.9394 0.48,-1.534 z m -1.059,-0.3019 c 0,0.3375 -0.045,0.6433 -0.137,0.9172 -0.092,0.2754 -0.201,0.5062 -0.325,0.6957 -0.125,0.1894 -0.241,0.3355 -0.352,0.4425 -0.109,0.1047 -0.171,0.1594 -0.186,0.1594 -0.396,0 -0.735,-0.2383 -1.016,-0.7144 -0.284,-0.4766 -0.424,-0.9117 -0.424,-1.3075 0,-0.3878 0.067,-0.7312 0.201,-1.0273 0.133,-0.2965 0.296,-0.5254 0.485,-0.6848 0.192,-0.1593 0.376,-0.2379 0.55,-0.2379 0.223,0 0.429,0.0825 0.615,0.2493 0.187,0.1668 0.332,0.3882 0.435,0.6621 0.103,0.2758 0.154,0.557 0.154,0.8457 v 0"
         style="fill:#000000;fill-opacity:1;fill-rule:nonzero;stroke:none;stroke-width:0.1"
         id="path819"
         inkscape:connector-curvature="0" />
      <path
         d="m 311.626,80.4387 h 0.773 v 2.6695 l -0.841,-0.1687 v 0.4312 l 0.837,0.1688 h 0.473 v -3.1008 h 0.773 v -0.3985 h -2.015 v 0.3985"
         style="fill:#000000;fill-opacity:1;fill-rule:nonzero;stroke:none;stroke-width:0.1"
         id="path821"
         inkscape:connector-curvature="0" />
      <path
         d="m 311.288,72.4238 h 0.43125 v 3.64688 H 311.288 Z"
         style="fill:#000000;fill-opacity:1;fill-rule:nonzero;stroke:none;stroke-width:0.1"
         id="path823"
         inkscape:connector-curvature="0" />
      <path
         d="m 314.375,75.4332 v -1.3055 h 1.305 v -0.3984 h -1.305 v -1.3055 h -0.394 v 1.3055 h -1.305 v 0.3984 h 1.305 v 1.3055 h 0.394"
         style="fill:#000000;fill-opacity:1;fill-rule:nonzero;stroke:none;stroke-width:0.1"
         id="path825"
         inkscape:connector-curvature="0" />
      <path
         d="m 318.003,75.5105 -1.195,-1.8679 h 1.195 v 1.8679 m -0.124,0.4125 h 0.595 v -2.2804 h 0.499 v -0.3938 h -0.499 v -0.825 h -0.471 v 0.825 h -1.58 v 0.4571 l 1.456,2.2171"
         style="fill:#000000;fill-opacity:1;fill-rule:nonzero;stroke:none;stroke-width:0.1"
         id="path827"
         inkscape:connector-curvature="0" />
      <path
         d="m 310.09,76.8641 c 0,-0.3004 -0.069,-0.6453 -0.206,-1.0371 -0.137,-0.3922 -0.386,-0.7391 -0.746,-1.0411 -0.362,-0.3019 -0.85,-0.4535 -1.465,-0.4535 -0.416,0 -0.789,0.0973 -1.118,0.2942 -0.328,0.1953 -0.581,0.4613 -0.763,0.7988 -0.182,0.3379 -0.272,0.7051 -0.272,1.1047 0,0.482 0.084,0.8906 0.255,1.2246 0.171,0.334 0.371,0.5887 0.602,0.7687 0.231,0.1801 0.456,0.3172 0.675,0.4129 0.219,0.0938 0.403,0.1723 0.55,0.236 -0.027,0.0246 -0.16,0.1465 -0.404,0.3621 -0.243,0.2156 -0.44,0.3996 -0.59,0.5496 -0.15,0.15 -0.281,0.3129 -0.39,0.4894 -0.111,0.1762 -0.165,0.345 -0.165,0.5098 0,0.3078 0.131,0.5609 0.392,0.7559 0.262,0.1968 0.622,0.2945 1.08,0.2945 0.172,0 0.423,-0.0281 0.755,-0.0824 0.332,-0.0547 0.636,-0.1594 0.912,-0.3172 0.278,-0.1555 0.414,-0.3617 0.414,-0.6168 0,-0.2606 -0.153,-0.3902 -0.461,-0.3902 -0.154,0 -0.277,0.032 -0.369,0.0957 -0.094,0.0636 -0.24,0.182 -0.437,0.3562 -0.199,0.1746 -0.385,0.3059 -0.559,0.3938 -0.175,0.0882 -0.379,0.1316 -0.617,0.1316 -0.22,0 -0.373,-0.075 -0.456,-0.2234 -0.084,-0.1481 -0.127,-0.27 -0.127,-0.3637 0,-0.2137 0.187,-0.45 0.56,-0.7125 0.374,-0.2609 0.799,-0.5551 1.276,-0.8777 0.474,-0.3247 0.873,-0.7016 1.194,-1.129 0.321,-0.4296 0.48,-0.9394 0.48,-1.5339 z m -1.06,-0.302 c 0,0.3375 -0.044,0.643 -0.136,0.9168 -0.092,0.2758 -0.201,0.5066 -0.325,0.6957 -0.125,0.1895 -0.242,0.3359 -0.352,0.4426 -0.109,0.1051 -0.171,0.1594 -0.186,0.1594 -0.395,0 -0.735,-0.2379 -1.016,-0.7145 -0.283,-0.4762 -0.424,-0.9113 -0.424,-1.307 0,-0.3883 0.067,-0.7313 0.2,-1.0278 0.134,-0.2961 0.297,-0.525 0.486,-0.6843 0.191,-0.1594 0.375,-0.2383 0.55,-0.2383 0.223,0 0.429,0.0828 0.615,0.2496 0.187,0.1668 0.332,0.3883 0.435,0.6621 0.103,0.2754 0.153,0.5566 0.153,0.8457 v 0"
         style="fill:#000000;fill-opacity:1;fill-rule:nonzero;stroke:none;stroke-width:0.1"
         id="path829"
         inkscape:connector-curvature="0" />
      <path
         d="m 353.465,163.967 h 0.774 v 2.669 l -0.842,-0.168 v 0.431 l 0.837,0.169 h 0.473 v -3.101 h 0.774 v -0.399 h -2.016 v 0.399"
         style="fill:#000000;fill-opacity:1;fill-rule:nonzero;stroke:none;stroke-width:0.1"
         id="path831"
         inkscape:connector-curvature="0" />
      <path
         d="m 353.128,155.952 h 0.43125 v 3.64688 H 353.128 Z"
         style="fill:#000000;fill-opacity:1;fill-rule:nonzero;stroke:none;stroke-width:0.1"
         id="path833"
         inkscape:connector-curvature="0" />
      <path
         d="m 356.214,158.961 v -1.305 h 1.306 v -0.399 h -1.306 v -1.305 h -0.393 v 1.305 h -1.306 v 0.399 h 1.306 v 1.305 h 0.393"
         style="fill:#000000;fill-opacity:1;fill-rule:nonzero;stroke:none;stroke-width:0.1"
         id="path835"
         inkscape:connector-curvature="0" />
      <path
         d="m 358.546,159.451 h 1.859 v -0.398 h -1.425 v -0.858 c 0.069,0.023 0.138,0.041 0.206,0.051 0.069,0.013 0.138,0.019 0.207,0.019 0.39,0 0.7,-0.107 0.928,-0.321 0.228,-0.214 0.342,-0.504 0.342,-0.869 0,-0.377 -0.117,-0.67 -0.352,-0.879 -0.234,-0.208 -0.565,-0.312 -0.991,-0.312 -0.147,0 -0.297,0.012 -0.45,0.037 -0.152,0.025 -0.309,0.063 -0.471,0.113 v 0.476 c 0.14,-0.077 0.286,-0.134 0.436,-0.171 0.15,-0.038 0.308,-0.057 0.476,-0.057 0.27,0 0.484,0.072 0.642,0.214 0.158,0.142 0.236,0.335 0.236,0.579 0,0.243 -0.078,0.436 -0.236,0.579 -0.158,0.142 -0.372,0.213 -0.642,0.213 -0.127,0 -0.254,-0.014 -0.38,-0.042 -0.125,-0.029 -0.253,-0.072 -0.385,-0.132 v 1.758"
         style="fill:#000000;fill-opacity:1;fill-rule:nonzero;stroke:none;stroke-width:0.1"
         id="path837"
         inkscape:connector-curvature="0" />
      <path
         d="m 351.93,160.392 c 0,-0.3 -0.07,-0.645 -0.207,-1.037 -0.137,-0.392 -0.386,-0.739 -0.746,-1.041 -0.362,-0.302 -0.85,-0.454 -1.465,-0.454 -0.416,0 -0.789,0.098 -1.117,0.295 -0.329,0.195 -0.582,0.461 -0.764,0.799 -0.181,0.337 -0.272,0.705 -0.272,1.104 0,0.482 0.085,0.891 0.255,1.225 0.171,0.333 0.372,0.588 0.602,0.769 0.231,0.18 0.456,0.316 0.676,0.412 0.219,0.094 0.403,0.173 0.549,0.236 -0.026,0.025 -0.159,0.147 -0.403,0.362 -0.244,0.216 -0.441,0.4 -0.591,0.55 -0.15,0.15 -0.281,0.313 -0.39,0.489 -0.111,0.177 -0.165,0.345 -0.165,0.51 0,0.308 0.131,0.561 0.392,0.756 0.262,0.197 0.623,0.295 1.08,0.295 0.173,0 0.424,-0.028 0.756,-0.083 0.332,-0.054 0.636,-0.159 0.911,-0.317 0.278,-0.155 0.415,-0.362 0.415,-0.617 0,-0.261 -0.154,-0.39 -0.462,-0.39 -0.153,0 -0.277,0.032 -0.369,0.096 -0.094,0.063 -0.24,0.182 -0.437,0.356 -0.199,0.175 -0.384,0.306 -0.559,0.394 -0.174,0.088 -0.378,0.131 -0.617,0.131 -0.219,0 -0.373,-0.075 -0.456,-0.223 -0.084,-0.148 -0.127,-0.27 -0.127,-0.364 0,-0.214 0.188,-0.45 0.561,-0.713 0.373,-0.26 0.799,-0.555 1.275,-0.877 0.474,-0.325 0.874,-0.701 1.195,-1.129 0.32,-0.43 0.48,-0.94 0.48,-1.534 z m -1.06,-0.302 c 0,0.338 -0.045,0.643 -0.137,0.917 -0.092,0.276 -0.201,0.506 -0.324,0.696 -0.126,0.189 -0.242,0.335 -0.353,0.442 -0.109,0.105 -0.17,0.16 -0.185,0.16 -0.396,0 -0.735,-0.239 -1.017,-0.715 -0.283,-0.476 -0.424,-0.911 -0.424,-1.307 0,-0.388 0.068,-0.731 0.201,-1.028 0.133,-0.296 0.296,-0.525 0.486,-0.684 0.191,-0.159 0.375,-0.238 0.549,-0.238 0.223,0 0.43,0.082 0.615,0.249 0.188,0.167 0.332,0.388 0.435,0.662 0.104,0.276 0.154,0.557 0.154,0.846 v 0"
         style="fill:#000000;fill-opacity:1;fill-rule:nonzero;stroke:none;stroke-width:0.1"
         id="path839"
         inkscape:connector-curvature="0" />
    </g>
  </g>
</svg>
